<?xml version="1.0" standalone="no"?>
<!DOCTYPE svg PUBLIC "-//W3C//DTD SVG 1.1//EN" "http://www.w3.org/Graphics/SVG/1.1/DTD/svg11.dtd">
<svg xmlns="http://www.w3.org/2000/svg"><metadata>This SVG WebFont was generated by YouWorkForThem.
Â© 2017 Connary Fagen</metadata><defs><font horiz-adv-x="1764" id="ywftsvg"><font-face ascent="1638" bbox="-964 -864 2796 1935" cap-height="1434" descent="-410" font-family="" font-stretch="normal" font-weight="900" panose-1="0 0 10 0 0 0 0 0 0 0" underline-position="0" underline-thickness="0" unicode-range="U+0020-25CA" units-per-em="2048" x-height="1434"/><missing-glyph d="M736 1536v-1792h-569v1792h569zM597 1417h-297v-60h118v-67h-119v-58h298v58h-119v67h119v60zM478 1184h-179v-186h298v62h-119v124zM418 1125v-65h-60v65h60zM597 951h-298v-60h119v-67h-119v-58h179v125h119v60zM597 843h-59v-119h-239v-60h298v179zM597 625h-179v-101 h60v41h60v-84h-180v144h-59v-203h298v203zM597 314h-298v-203h298v203zM538 254v-83h-180v83h180zM597 70h-298v-60h126l-126 -83v-60h298v60h-182l124 83h58v60z" horiz-adv-x="896"/><glyph d="M736 1536v-1792h-569v1792h569zM597 1417h-297v-60h118v-67h-119v-58h298v58h-119v67h119v60zM478 1184h-179v-186h298v62h-119v124zM418 1125v-65h-60v65h60zM597 951h-298v-60h119v-67h-119v-58h179v125h119v60zM597 843h-59v-119h-239v-60h298v179zM597 625h-179v-101 h60v41h60v-84h-180v144h-59v-203h298v203zM597 314h-298v-203h298v203zM538 254v-83h-180v83h180zM597 70h-298v-60h126l-126 -83v-60h298v60h-182l124 83h58v60z" glyph-name=".notdef" horiz-adv-x="896"/><glyph glyph-name="glyph1" horiz-adv-x="0"/><glyph glyph-name="glyph2" horiz-adv-x="682"/><glyph glyph-name="space" horiz-adv-x="452" unicode=" "/><glyph d="M90 573l181 861h579l-415 -861h-345zM133 -27q-102 0 -165.5 63t-63.5 164q0 130 93 218.5t220 88.5q101 0 164 -63t63 -164q0 -130 -93 -218.5t-218 -88.5z" glyph-name="exclam" horiz-adv-x="657" unicode="!"/><glyph d="M138 766l179 668h482l-256 -668h-405zM678 766l179 668h481l-256 -668h-404z" glyph-name="quotedbl" horiz-adv-x="1191" unicode="&quot;"/><glyph d="M1456 782h-181l-31 -99h178l-133 -415h-180l-87 -268h-466l87 268h-99l-87 -268h-467l87 268h-179l133 415h181l30 99h-177l123 385h179l87 267h468l-87 -267h99l87 267h466l-88 -267h180zM778 683l31 99h-99l-31 -99h99z" glyph-name="numbersign" horiz-adv-x="1476" unicode="#"/><glyph d="M1376 889h-482q29 87 -32 103l-41 -128q65 -7 103.5 -12t105.5 -19t109 -35t86.5 -53.5t66.5 -82t22 -112.5q0 -203 -214 -332t-537 -146l-32 -101h-156l33 101q-585 29 -434 466h494q-20 -48 -2.5 -68.5t63.5 -25.5l38 117q-44 7 -60.5 9.5t-65 12t-72 17.5t-67 22.5 t-66.5 30.5t-54.5 40t-47 51t-27 64t-11.5 78q0 195 211.5 328.5t518.5 145.5l38 115h155l-38 -116q75 -3 136.5 -15.5t119.5 -34.5t95.5 -58t60 -85.5t18.5 -119.5t-35 -157zM623 932q0 -5 1 -9.5t13 -15.5t35 -20l36 108q-85 -15 -85 -63zM773 488q0 22 -61 43l-28 -89 q89 8 89 46z" glyph-name="dollar" horiz-adv-x="1402" unicode="$"/><glyph d="M471 -48l-196 150l1360 1391l193 -150zM527 660q-154 0 -246 78t-92 223q0 191 148 342t354 151q150 0 244 -78.5t94 -226.5q0 -198 -144.5 -343.5t-357.5 -145.5zM592 975q39 0 68 29.5t29 68.5q0 67 -64 67q-36 0 -66 -30t-30 -69q0 -66 63 -66zM1417 -20 q-154 0 -246 77.5t-92 224.5q0 191 146.5 342t354.5 151q148 0 243 -79.5t95 -226.5q0 -198 -144.5 -343.5t-356.5 -145.5zM1480 295q39 0 69 30t30 69q0 65 -65 65q-38 0 -67 -30t-29 -69q1 -65 62 -65z" glyph-name="percent" horiz-adv-x="2109" unicode="%"/><glyph d="M1778 771q-79 -244 -222 -418l113 -97l-333 -323l-150 137q-253 -116 -585 -116q-324 0 -492.5 106.5t-168.5 306.5q0 172 124 298.5t325 196.5q-38 89 -37 177q0 198 204.5 315t528.5 117q148 0 265.5 -35t196.5 -105.5t99 -178.5t-28 -254h-468q32 87 -17 126t-136 39 q-67 0 -110.5 -19.5t-43.5 -46.5q0 -19 19.5 -40.5t86.5 -75.5q34 -27 53 -45l223 -194q65 72 84 129h469zM708 384q49 0 116 12l-233 213q-73 -44 -74 -111q0 -114 191 -114z" glyph-name="ampersand" horiz-adv-x="1855" unicode="&amp;"/><glyph d="M138 766l179 668h482l-256 -668h-405z" glyph-name="quotesingle" horiz-adv-x="651" unicode="'"/><glyph d="M676 -247q-355 0 -516.5 174t-161.5 481q0 254 82 480t238 403.5t409 282t570 104.5l-135 -458q-160 0 -290 -70.5t-206.5 -182.5t-117.5 -237.5t-41 -246.5q0 -154 70 -212.5t239 -58.5z" glyph-name="parenleft" horiz-adv-x="1044" unicode="("/><glyph d="M369 1678q355 0 516 -174.5t161 -481.5q0 -254 -82 -480t-238 -403.5t-408.5 -281.5t-570.5 -104l135 457q160 0 290 71t207 182.5t118 237t41 246.5q0 154 -70 213t-239 59z" glyph-name="parenright" horiz-adv-x="1049" unicode=")"/><glyph d="M1181 1056l-254 -105l196 -103l-236 -273l-167 154l-61 -258h-314l97 237l-227 -133l-78 273l254 106l-196 102l235 273l167 -150l60 255h314l-97 -238l229 133z" glyph-name="asterisk" horiz-adv-x="1167" unicode="*"/><glyph d="M1391 944l-145 -451h-376l-121 -368h-491l121 368h-365l145 451h367l121 370h493l-121 -370h372z" glyph-name="plus" horiz-adv-x="1402" unicode="+"/><glyph d="M-89 -418q97 218 152 418h-210l150 468h642l7 17q-217 -643 -440 -903h-301z" glyph-name="comma" horiz-adv-x="810" unicode=","/><glyph d="M-14 473l157 466h990l-157 -466h-990z" glyph-name="hyphen" horiz-adv-x="1126" unicode="-"/><glyph d="M133 -27q-102 0 -165.5 63t-63.5 164q0 130 93 218.5t220 88.5q101 0 164 -63t63 -164q0 -130 -93 -218.5t-218 -88.5z" glyph-name="period" horiz-adv-x="648" unicode="."/><glyph d="M-215 0l1123 1434h662l-1123 -1434h-662z" glyph-name="slash" horiz-adv-x="1355" unicode="/"/><glyph d="M592 -38q-384 0 -526.5 215.5t-16.5 597.5q109 338 349 517t592 179q384 0 524.5 -214t16.5 -597q-108 -338 -347.5 -518t-591.5 -180zM686 413q128 0 215 94.5t133 258.5q36 111 2 183.5t-140 72.5q-249 0 -348 -353q-38 -111 -4 -183.5t142 -72.5z" glyph-name="zero" horiz-adv-x="1571" unicode="0"/><glyph d="M1263 1434l-331 -1012h309l-137 -422h-1276l136 422h408l152 465q-143 -79 -403 -63l149 456q215 0 431 154h562z" glyph-name="one" horiz-adv-x="1387" unicode="1"/><glyph d="M1514 1103q0 -99 -45.5 -185.5t-110 -144.5t-166 -114.5t-184.5 -89.5t-195.5 -76.5t-169.5 -70.5h678l-137 -422h-1382l77 242q36 111 133 206t216.5 153.5t251 112.5t238 90.5t176.5 78.5t70 85q0 67 -112 66q-169 0 -210 -116h-521q51 259 264.5 406t542.5 147 q283 0 434.5 -92.5t151.5 -275.5z" glyph-name="two" horiz-adv-x="1455" unicode="2"/><glyph d="M534 -38q-171 0 -294.5 30t-205.5 96t-98 170t30 251h481q-3 -48 27.5 -73t67.5 -30t96 -5q227 0 227 85q0 39 -29 57q-43 26 -145 25h-100l95 306h97q113 0 167.5 18.5t54.5 66.5q0 73 -155 74q-106 0 -160.5 -26t-81.5 -87h-473q108 551 804 551q280 0 435 -91 t155 -248q0 -128 -81 -228t-238 -153l-9 -29q79 -32 133 -104t54 -167q0 -128 -73 -225.5t-196.5 -153t-270.5 -83t-314 -27.5z" glyph-name="three" horiz-adv-x="1529" unicode="3"/><glyph d="M1616 1434l-263 -803h229l-133 -421h-229l-68 -210h-579l74 210h-765l140 421l925 803h669zM546 631h249l106 304z" glyph-name="four" horiz-adv-x="1655" unicode="4"/><glyph d="M497 -38q-333 0 -478 143.5t-55 399.5h481q0 -109 156 -109q123 0 182.5 42.5t59.5 97.5q0 102 -157 102q-159 0 -229 -78h-471l294 874h1217l-137 -419h-744l-41 -100q17 2 65 14.5t112 22t147 9.5q201 0 326 -95.5t125 -273.5q0 -283 -230 -456.5t-623 -173.5z" glyph-name="five" horiz-adv-x="1455" unicode="5"/><glyph d="M1519 968h-440q12 46 -32.5 73t-107.5 27q-53 0 -94 -6.5t-87 -27t-82 -66.5t-58 -115q116 48 312 48q486 0 487 -351q0 -280 -224.5 -434t-576.5 -154q-154 0 -269 43t-180.5 118t-97 167t-31.5 202q0 155 38 297.5t119 267t197.5 216.5t282.5 145t364 53 q290 0 433 -144t47 -359zM901 498q0 39 -39 61.5t-103 22.5q-102 0 -154 -42.5t-52 -102.5q0 -34 34 -56.5t108 -22.5q92 0 149 40t57 100z" glyph-name="six" horiz-adv-x="1553" unicode="6"/><glyph d="M271 1434h1294l-147 -436l-979 -998h-601l998 998h-710z" glyph-name="seven" horiz-adv-x="1353" unicode="7"/><glyph d="M572 -38q-331 0 -483 110.5t-152 280.5q0 143 94 255t274 175l12 24q-84 73 -83 207q0 203 184 330t504 127q271 0 406 -89.5t135 -241.5q0 -212 -241 -328l-10 -24q73 -55 120 -139t47 -183q0 -164 -110 -280t-289 -170t-408 -54zM812 927q63 0 103.5 23t40.5 69 q0 82 -106 82q-63 0 -102.5 -26.5t-39.5 -67.5q0 -80 104 -80zM630 372q106 0 159.5 35t53.5 91.5t-47 80t-105 23.5q-104 0 -157 -36.5t-53 -94.5q1 -99 149 -99z" glyph-name="eight" horiz-adv-x="1508" unicode="8"/><glyph d="M937 1471q154 0 269 -42.5t180.5 -117.5t97.5 -167.5t32 -201.5q0 -155 -38.5 -297.5t-119.5 -267t-197.5 -217t-282.5 -145.5t-364 -53q-290 0 -432.5 144.5t-47.5 359.5h440q-12 -46 32.5 -73.5t107.5 -27.5q53 0 94 7t87 27.5t82 66.5t58 114q-116 -48 -312 -48 q-486 0 -486 352q0 280 224 433.5t576 153.5zM652 935q0 -39 39 -61t103 -22q102 0 154 42.5t52 102.5q0 34 -34 56t-108 22q-92 0 -149 -40t-57 -100z" glyph-name="nine" horiz-adv-x="1553" unicode="9"/><glyph d="M401 795q-102 0 -165.5 63.5t-63.5 163.5q0 130 93 218.5t220 88.5q101 0 164 -63t63 -163q0 -130 -93 -219t-218 -89zM171 87q-102 0 -165.5 63t-63.5 164q0 130 93 218.5t219 88.5q101 0 164 -63t63 -164q0 -130 -92.5 -218.5t-217.5 -88.5z" glyph-name="colon" horiz-adv-x="650" unicode=":"/><glyph d="M401 795q-102 0 -165.5 63.5t-63.5 163.5q0 130 93 218.5t220 88.5q101 0 164 -63t63 -163q0 -130 -93 -219t-218 -89zM-72 -288q97 218 152 418h-210l150 467h642l7 17q-217 -643 -440 -902h-301z" glyph-name="semicolon" horiz-adv-x="749" unicode=";"/><glyph d="M986 72l-991 341l186 599l1220 352l-148 -470l-722 -148l-16 -50l622 -148z" glyph-name="less" horiz-adv-x="1283" unicode="&lt;"/><glyph d="M99 765l154 466h1146l-153 -466h-1147zM-82 207l154 465h1147l-154 -465h-1147z" glyph-name="equal" horiz-adv-x="1317" unicode="="/><glyph d="M295 1362l992 -341l-186 -599l-1220 -352l148 469l722 149l15 49l-621 149z" glyph-name="greater" horiz-adv-x="1281" unicode=">"/><glyph d="M430 553q20 92 71.5 158.5t112 98t127 54t120.5 33.5t89 29.5t35 46.5q0 24 -43 42t-107 18q-183 0 -255 -149h-503q27 159 104.5 275t194.5 182.5t256 98t307 31.5q283 0 461.5 -100t178.5 -287q0 -113 -56.5 -197.5t-139.5 -129.5t-165.5 -77.5t-149 -63.5t-78.5 -63 h-560zM587 -27q-102 0 -165.5 63t-63.5 164q0 130 93 218.5t220 88.5q101 0 164 -63t63 -164q0 -130 -93 -218.5t-218 -88.5z" glyph-name="question" horiz-adv-x="1495" unicode="?"/><glyph d="M1463 328q-133 -176 -339 -276t-460 -100q-305 0 -480 154.5t-175 420.5q0 184 79 357.5t215 306t331 211.5t412 79q300 0 478.5 -151t178.5 -396q0 -179 -97 -307.5t-285 -128.5q-67 0 -101 15.5t-45 55.5t18 112l169 420h-152l-56 -74h-21q-68 97 -217 98 q-145 0 -268.5 -84t-191 -209t-67.5 -255q0 -135 75 -207.5t202 -72.5q99 0 184 36.5t136 96.5h23q17 -60 80 -96.5t164 -36.5q119 0 193 44zM876 928q125 0 126 -133q0 -106 -81 -204t-185 -98q-121 0 -125 133q0 109 80.5 205.5t184.5 96.5z" glyph-name="at" horiz-adv-x="1687" unicode="@"/><glyph d="M1558 0h-558l2 155h-541l-97 -155h-596l954 1434h790zM720 567h289l5 343h-79z" glyph-name="A" unicode="A"/><glyph d="M1626 1126q0 -111 -66.5 -205.5t-207.5 -145.5l-14 -31q80 -56 106 -90q60 -73 60 -195q0 -459 -767 -459h-918l463 1434h885q459 -1 459 -308zM1073 947v2q0 12 -1.5 21.5t-18.5 22t-49 12.5h-297l-47 -143h308q53 0 79 28t26 57zM969 510q-10 60 -71 65h-330l-47 -147 h343q48 0 76.5 23t28.5 59z" glyph-name="B" horiz-adv-x="1629" unicode="B"/><glyph d="M698 -48q-326 0 -503.5 160.5t-177.5 448.5q0 181 77 348.5t211 293.5t329 202t419 76q142 0 264 -36.5t205.5 -99.5t139 -150t62.5 -187t-24 -211h-539q3 94 -56 147.5t-160 53.5q-164 0 -266 -108t-102 -248q0 -101 65.5 -154t163.5 -53q213 0 317 195h538 q-46 -157 -131.5 -280t-184.5 -196.5t-217.5 -120.5t-222 -64t-207.5 -17z" glyph-name="C" horiz-adv-x="1716" unicode="C"/><glyph d="M-177 0l460 1434h693q346 0 512 -144.5t166 -407.5q0 -171 -51.5 -314t-143.5 -247t-219 -176.5t-280 -108.5t-323 -36h-814zM532 469h204q147 0 248 95.5t101 239.5q0 94 -64.5 128t-197.5 34h-128z" glyph-name="D" horiz-adv-x="1674" unicode="D"/><glyph d="M1493 990h-795l-31 -97h796l-115 -347h-792l-32 -101h790l-145 -445h-1350l463 1434h1356z" glyph-name="E" horiz-adv-x="1452" unicode="E"/><glyph d="M1473 968h-784l-34 -108h746l-141 -442h-748l-137 -418h-556l463 1434h1343z" glyph-name="F" horiz-adv-x="1443" unicode="F"/><glyph d="M945 998q-164 0 -266 -108t-102 -248q0 -101 65.5 -154t163.5 -53q189 0 266 121h-273l85 261h826l-263 -817h-266l41 162q-92 -97 -233.5 -153.5t-310.5 -56.5q-316 0 -488.5 154.5t-172.5 443.5q0 184 77 354.5t211 297.5t329 203t419 76q328 0 516.5 -175.5 t147.5 -411.5h-565q-27 44 -81 74t-126 30z" glyph-name="G" horiz-adv-x="1715" unicode="G"/><glyph d="M1289 1434h561l-461 -1434h-561l148 461h-444l-148 -461h-561l460 1434h562l-162 -507h443z" glyph-name="H" horiz-adv-x="1672" unicode="H"/><glyph d="M-181 0l463 1434h559l-460 -1434h-562z" glyph-name="I" horiz-adv-x="660" unicode="I"/><glyph d="M536 -48q-137 0 -240 20.5t-181.5 69t-118.5 124t-40 188t46 259.5h556q-15 -46 -17 -81t6 -53t20.5 -32t28 -15.5t28.5 -5t21 0.5h4q130 0 186 169l269 838h562l-267 -828q-61 -193 -146.5 -322.5t-197 -201.5t-235.5 -101t-284 -29z" glyph-name="J" horiz-adv-x="1483" unicode="J"/><glyph d="M1889 1434l-757 -651l469 -783h-558l-302 502h-50l-201 -161l-111 -341h-560l469 1434h559l-132 -401h70l469 401h635z" glyph-name="K" horiz-adv-x="1773" unicode="K"/><glyph d="M-181 0l466 1434h562l-318 -966h756l-148 -468h-1318z" glyph-name="L" horiz-adv-x="1425" unicode="L"/><glyph d="M-177 0l460 1434h676l-75 -680h48l367 678h732l-457 -1432h-538l155 481h-49l-236 -481h-401l56 481h-49l-155 -481h-534z" glyph-name="M" horiz-adv-x="1856" unicode="M"/><glyph d="M-181 0l469 1434h620l148 -666h58l221 666h546l-466 -1434h-606l-167 654h-58l-219 -654h-546z" glyph-name="N" horiz-adv-x="1699" unicode="N"/><glyph d="M698 -48q-326 0 -504.5 159t-178.5 440q0 184 78 354t212.5 297t326 203t406.5 76q326 0 504 -158.5t178 -440.5q0 -184 -77.5 -354t-212.5 -297t-326 -203t-406 -76zM790 435q160 0 262.5 112t106.5 245q0 101 -62.5 153.5t-151.5 52.5q-160 0 -263 -111.5t-107 -243.5 q0 -101 63 -154.5t152 -53.5z" glyph-name="O" horiz-adv-x="1733" unicode="O"/><glyph d="M1036 1434q287 0 433 -107t146 -349q0 -346 -219.5 -538.5t-559.5 -192.5h-373l-82 -247h-562l469 1434h748zM850 707q85 0 135.5 43.5t50.5 121.5q0 97 -123 97h-213l-87 -264z" glyph-name="P" horiz-adv-x="1611" unicode="P"/><glyph d="M1720 882q0 -177 -70.5 -340t-198.5 -291l114 -166q-186 -171 -411 -317l-171 220q-133 -36 -285 -36q-326 0 -504.5 159t-178.5 440q0 184 78 354t212.5 297t326 203t406.5 76q326 0 504 -158.5t178 -440.5zM575 643q0 -101 63 -154.5t152 -53.5q160 0 262.5 112 t106.5 245q0 101 -62.5 153.5t-151.5 52.5q-160 0 -263.5 -112t-106.5 -243z" glyph-name="Q" horiz-adv-x="1751" unicode="Q"/><glyph d="M1630 995q0 -181 -87 -322t-232 -228l95 -445h-537l-67 331h-312l-106 -331h-561l460 1434h777q288 0 429 -108.5t141 -330.5zM695 969l-75 -232l281 2q49 0 102 34t53 99q0 55 -29.5 76t-98.5 21h-233z" glyph-name="R" horiz-adv-x="1634" unicode="R"/><glyph d="M580 -48q-147 0 -260 17t-205.5 55.5t-137 101.5t-54.5 155.5t39 216.5h477q-14 -61 51.5 -91t168.5 -30q256 0 256 86v1q0 10 -2.5 18t-12 21.5t-37.5 24t-73 13.5l-114 14q-543 43 -543 368q0 263 225.5 410.5t600.5 147.5q237 0 399.5 -63t219.5 -183.5t-28 -295.5 h-459q3 12 -0.5 25.5t-18 30.5t-36.5 30t-63 22t-92 9q-97 0 -154.5 -25.5t-57.5 -66.5q0 -55 99 -66l75 -11q26 -5 86.5 -12.5t101.5 -14.5t101.5 -20.5t101.5 -29.5t88 -43.5t76 -61t47.5 -82t18.5 -108.5q0 -157 -70 -269.5t-197 -174.5t-278 -90.5t-339 -28.5z" glyph-name="S" horiz-adv-x="1575" unicode="S"/><glyph d="M1826 1434l-152 -466h-490l-315 -968h-560l316 968h-502l150 466h1553z" glyph-name="T" horiz-adv-x="1636" unicode="T"/><glyph d="M664 -48q-425 0 -585.5 182t-44.5 533l254 767h569l-270 -808q-34 -99 2.5 -154.5t152.5 -55.5t182 61.5t114 203.5l244 753h570l-267 -816q-121 -367 -330 -516.5t-591 -149.5z" glyph-name="U" horiz-adv-x="1670" unicode="U"/><glyph d="M278 0l-46 1434h551l-12 -908h62l558 908h613l-954 -1434h-772z" glyph-name="V" horiz-adv-x="1771" unicode="V"/><glyph d="M39 0l215 1434h562l-166 -833h50l423 833h433l-105 -833h51l367 833h582l-714 -1434h-754l104 546h-48l-245 -546h-755z" glyph-name="W" horiz-adv-x="2249" unicode="W"/><glyph d="M-232 0l698 710l20 48l-249 676h558l120 -369h53l303 369h617l-673 -686l-20 -50l257 -698h-585l-106 346h-53l-314 -346h-626z" glyph-name="X" horiz-adv-x="1689" unicode="X"/><glyph d="M1920 1434l-898 -1002l-138 -432h-561l146 461l-245 973h564l98 -456h39l382 456h613z" glyph-name="Y" horiz-adv-x="1696" unicode="Y"/><glyph d="M-195 0l149 459l805 469l19 43h-648l153 463h1398l-150 -458l-806 -469l-18 -44h645l-154 -463h-1393z" glyph-name="Z" horiz-adv-x="1483" unicode="Z"/><glyph d="M-256 -230l614 1894h900l-152 -466h-338l-311 -961h338l-152 -467h-899z" glyph-name="bracketleft" horiz-adv-x="1001" unicode="["/><glyph d="M894 0l-662 1434h644l662 -1434h-644z" glyph-name="backslash" horiz-adv-x="1769" unicode="\"/><glyph d="M1258 1664l-615 -1894h-899l152 466h338l310 960h-337l151 468h900z" glyph-name="bracketright" horiz-adv-x="1001" unicode="]"/><glyph d="M-24 387l640 1105h637l-12 -1105h-447l73 700h-58l-379 -700h-454z" glyph-name="asciicircum" horiz-adv-x="1435" unicode="^"/><glyph d="M-300 -468l153 468h1067l-154 -468h-1066z" glyph-name="underscore" horiz-adv-x="1237" unicode="_"/><glyph d="M925 1161h-507l-176 312h507z" glyph-name="grave" horiz-adv-x="781" unicode="`"/><glyph d="M1558 0h-558l2 155h-541l-97 -155h-596l954 1434h790zM720 567h289l5 343h-79z" glyph-name="a" unicode="a"/><glyph d="M1626 1126q0 -111 -66.5 -205.5t-207.5 -145.5l-14 -31q80 -56 106 -90q60 -73 60 -195q0 -459 -767 -459h-918l463 1434h885q459 -1 459 -308zM1073 947v2q0 12 -1.5 21.5t-18.5 22t-49 12.5h-297l-47 -143h308q53 0 79 28t26 57zM969 510q-10 60 -71 65h-330l-47 -147 h343q48 0 76.5 23t28.5 59z" glyph-name="b" horiz-adv-x="1629" unicode="b"/><glyph d="M698 -48q-326 0 -503.5 160.5t-177.5 448.5q0 181 77 348.5t211 293.5t329 202t419 76q142 0 264 -36.5t205.5 -99.5t139 -150t62.5 -187t-24 -211h-539q3 94 -56 147.5t-160 53.5q-164 0 -266 -108t-102 -248q0 -101 65.5 -154t163.5 -53q213 0 317 195h538 q-46 -157 -131.5 -280t-184.5 -196.5t-217.5 -120.5t-222 -64t-207.5 -17z" glyph-name="c" horiz-adv-x="1716" unicode="c"/><glyph d="M-177 0l460 1434h693q346 0 512 -144.5t166 -407.5q0 -171 -51.5 -314t-143.5 -247t-219 -176.5t-280 -108.5t-323 -36h-814zM532 469h204q147 0 248 95.5t101 239.5q0 94 -64.5 128t-197.5 34h-128z" glyph-name="d" horiz-adv-x="1674" unicode="d"/><glyph d="M1493 990h-795l-31 -97h796l-115 -347h-792l-32 -101h790l-145 -445h-1350l463 1434h1356z" glyph-name="e" horiz-adv-x="1452" unicode="e"/><glyph d="M1473 968h-784l-34 -108h746l-141 -442h-748l-137 -418h-556l463 1434h1343z" glyph-name="f" horiz-adv-x="1443" unicode="f"/><glyph d="M945 998q-164 0 -266 -108t-102 -248q0 -101 65.5 -154t163.5 -53q189 0 266 121h-273l85 261h826l-263 -817h-266l41 162q-92 -97 -233.5 -153.5t-310.5 -56.5q-316 0 -488.5 154.5t-172.5 443.5q0 184 77 354.5t211 297.5t329 203t419 76q328 0 516.5 -175.5 t147.5 -411.5h-565q-27 44 -81 74t-126 30z" glyph-name="g" horiz-adv-x="1715" unicode="g"/><glyph d="M1289 1434h561l-461 -1434h-561l148 461h-444l-148 -461h-561l460 1434h562l-162 -507h443z" glyph-name="h" horiz-adv-x="1672" unicode="h"/><glyph d="M-181 0l463 1434h559l-460 -1434h-562z" glyph-name="i" horiz-adv-x="660" unicode="i"/><glyph d="M536 -48q-137 0 -240 20.5t-181.5 69t-118.5 124t-40 188t46 259.5h556q-15 -46 -17 -81t6 -53t20.5 -32t28 -15.5t28.5 -5t21 0.5h4q130 0 186 169l269 838h562l-267 -828q-61 -193 -146.5 -322.5t-197 -201.5t-235.5 -101t-284 -29z" glyph-name="j" horiz-adv-x="1483" unicode="j"/><glyph d="M1889 1434l-757 -651l469 -783h-558l-302 502h-50l-201 -161l-111 -341h-560l469 1434h559l-132 -401h70l469 401h635z" glyph-name="k" horiz-adv-x="1773" unicode="k"/><glyph d="M-181 0l466 1434h562l-318 -966h756l-148 -468h-1318z" glyph-name="l" horiz-adv-x="1425" unicode="l"/><glyph d="M-177 0l460 1434h676l-75 -680h48l367 678h732l-457 -1432h-538l155 481h-49l-236 -481h-401l56 481h-49l-155 -481h-534z" glyph-name="m" horiz-adv-x="1856" unicode="m"/><glyph d="M-181 0l469 1434h620l148 -666h58l221 666h546l-466 -1434h-606l-167 654h-58l-219 -654h-546z" glyph-name="n" horiz-adv-x="1699" unicode="n"/><glyph d="M698 -48q-326 0 -504.5 159t-178.5 440q0 184 78 354t212.5 297t326 203t406.5 76q326 0 504 -158.5t178 -440.5q0 -184 -77.5 -354t-212.5 -297t-326 -203t-406 -76zM790 435q160 0 262.5 112t106.5 245q0 101 -62.5 153.5t-151.5 52.5q-160 0 -263 -111.5t-107 -243.5 q0 -101 63 -154.5t152 -53.5z" glyph-name="o" horiz-adv-x="1733" unicode="o"/><glyph d="M1036 1434q287 0 433 -107t146 -349q0 -346 -219.5 -538.5t-559.5 -192.5h-373l-82 -247h-562l469 1434h748zM850 707q85 0 135.5 43.5t50.5 121.5q0 97 -123 97h-213l-87 -264z" glyph-name="p" horiz-adv-x="1611" unicode="p"/><glyph d="M1720 882q0 -177 -70.5 -340t-198.5 -291l114 -166q-186 -171 -411 -317l-171 220q-133 -36 -285 -36q-326 0 -504.5 159t-178.5 440q0 184 78 354t212.5 297t326 203t406.5 76q326 0 504 -158.5t178 -440.5zM575 643q0 -101 63 -154.5t152 -53.5q160 0 262.5 112 t106.5 245q0 101 -62.5 153.5t-151.5 52.5q-160 0 -263.5 -112t-106.5 -243z" glyph-name="q" horiz-adv-x="1751" unicode="q"/><glyph d="M1630 995q0 -181 -87 -322t-232 -228l95 -445h-537l-67 331h-312l-106 -331h-561l460 1434h777q288 0 429 -108.5t141 -330.5zM695 969l-75 -232l281 2q49 0 102 34t53 99q0 55 -29.5 76t-98.5 21h-233z" glyph-name="r" horiz-adv-x="1634" unicode="r"/><glyph d="M580 -48q-147 0 -260 17t-205.5 55.5t-137 101.5t-54.5 155.5t39 216.5h477q-14 -61 51.5 -91t168.5 -30q256 0 256 86v1q0 10 -2.5 18t-12 21.5t-37.5 24t-73 13.5l-114 14q-543 43 -543 368q0 263 225.5 410.5t600.5 147.5q237 0 399.5 -63t219.5 -183.5t-28 -295.5 h-459q3 12 -0.5 25.5t-18 30.5t-36.5 30t-63 22t-92 9q-97 0 -154.5 -25.5t-57.5 -66.5q0 -55 99 -66l75 -11q26 -5 86.5 -12.5t101.5 -14.5t101.5 -20.5t101.5 -29.5t88 -43.5t76 -61t47.5 -82t18.5 -108.5q0 -157 -70 -269.5t-197 -174.5t-278 -90.5t-339 -28.5z" glyph-name="s" horiz-adv-x="1575" unicode="s"/><glyph d="M1826 1434l-152 -466h-490l-315 -968h-560l316 968h-502l150 466h1553z" glyph-name="t" horiz-adv-x="1636" unicode="t"/><glyph d="M664 -48q-425 0 -585.5 182t-44.5 533l254 767h569l-270 -808q-34 -99 2.5 -154.5t152.5 -55.5t182 61.5t114 203.5l244 753h570l-267 -816q-121 -367 -330 -516.5t-591 -149.5z" glyph-name="u" horiz-adv-x="1670" unicode="u"/><glyph d="M278 0l-46 1434h551l-12 -908h62l558 908h613l-954 -1434h-772z" glyph-name="v" horiz-adv-x="1771" unicode="v"/><glyph d="M39 0l215 1434h562l-166 -833h50l423 833h433l-105 -833h51l367 833h582l-714 -1434h-754l104 546h-48l-245 -546h-755z" glyph-name="w" horiz-adv-x="2249" unicode="w"/><glyph d="M-232 0l698 710l20 48l-249 676h558l120 -369h53l303 369h617l-673 -686l-20 -50l257 -698h-585l-106 346h-53l-314 -346h-626z" glyph-name="x" horiz-adv-x="1689" unicode="x"/><glyph d="M1920 1434l-898 -1002l-138 -432h-561l146 461l-245 973h564l98 -456h39l382 456h613z" glyph-name="y" horiz-adv-x="1696" unicode="y"/><glyph d="M-195 0l149 459l805 469l19 43h-648l153 463h1398l-150 -458l-806 -469l-18 -44h645l-154 -463h-1393z" glyph-name="z" horiz-adv-x="1483" unicode="z"/><glyph d="M278 -230q-34 0 -66.5 6.5t-71.5 25.5t-58 52t-26.5 88t23.5 133l129 382l-124 243l3 44l277 234l150 437q22 72 56 122t64 74t73.5 37t66.5 14.5t64 1.5h12h667l-152 -466h-269q-32 0 -71.5 -25.5t-49.5 -56.5l-35 -136l-288 -253l-7 -44l109 -229l-54 -189 q-3 -14 -5 -20t1.5 -8.5t7.5 -1.5t16 1.5t22 0.5h313l-152 -467h-625z" glyph-name="braceleft" horiz-adv-x="1286" unicode="{"/><glyph d="M-237 -171l577 1775h561l-577 -1775h-561z" glyph-name="bar" horiz-adv-x="663" unicode="|"/><glyph d="M1007 1664q34 0 66.5 -7t71.5 -25.5t58 -52t26.5 -88t-22.5 -132.5l-130 -383l124 -242l-3 -45l-276 -233l-151 -437q-22 -72 -56 -122.5t-64 -74t-73.5 -36.5t-66.5 -14.5t-64 -1.5h-12h-667l152 466h269q32 0 71.5 25.5t50.5 55.5l34 137l288 253l7 44l-109 229l54 189 q3 14 5 20t-1.5 8.5t-7.5 1.5t-16 -2t-22 -1h-313l152 468h625z" glyph-name="braceright" horiz-adv-x="1285" unicode="}"/><glyph d="M766 517q-89 3 -209 58t-190 55q-123 0 -167 -104h-173q24 137 107.5 234t184.5 138t208 41q87 0 207.5 -55.5t187.5 -57.5q130 9 172 104h172q-24 -137 -109 -233t-185 -136.5t-206 -43.5z" glyph-name="asciitilde" horiz-adv-x="1285" unicode="~"/><glyph d="M404 1092q102 0 165.5 -63t63.5 -164q0 -130 -93 -218.5t-219 -88.5q-101 0 -164 63t-63 164q0 130 92.5 218.5t217.5 88.5zM447 492l-181 -861h-578l414 861h345z" glyph-name="exclamdown" horiz-adv-x="657" unicode="¡"/><glyph d="M1550 790h-490q2 73 -38 121l-350 -443q27 -7 65 -7q195 0 289 176h490q-43 -143 -120.5 -254.5t-167.5 -178t-198 -109t-202 -58t-188 -15.5q-160 0 -283 45l-53 -67h-161l98 123q-220 143 -221 452q0 220 118 410.5t336.5 308t488.5 117.5q147 0 262 -41l50 64h160 l-92 -116q145 -85 201.5 -227t5.5 -301zM529 649q0 -68 36 -115l343 435q-27 3 -43 4q-148 0 -242 -98t-94 -226z" glyph-name="cent" horiz-adv-x="1568" unicode="¢"/><glyph d="M1432 858h-524q36 87 -1.5 121.5t-97.5 34.5q-85 0 -126 -37t-41 -96q0 -29 12.5 -72t16.5 -60h493l-72 -218h-467q-32 -46 -116 -96v-13h791l-136 -422h-1371l137 422q147 32 217 109h-173l74 218h106q-36 114 -36 207q0 154 105.5 273t280.5 180.5t387 61.5 q159 0 284 -37.5t207 -114.5t97.5 -192t-47.5 -269z" glyph-name="sterling" horiz-adv-x="1416" unicode="£"/><glyph d="M1246 975q0 -60 -15 -120l100 -102l-242 -241l-68 67q-109 -63 -234 -63.5t-232 61.5l-65 -65l-243 241l94 94q-17 68 -17 128q0 68 22 143l-99 101l243 240l80 -78q101 53 217 53q114 0 220 -55l82 80l242 -240l-106 -110q21 -64 21 -134zM787 836q44 0 75.5 14 t44.5 32.5t20.5 39t5 35t-0.5 18.5q-2 3 0.5 17.5t-5 36t-20.5 41t-44.5 34t-75.5 14.5q-46 0 -77.5 -14.5t-44.5 -34t-20.5 -41t-5 -36t0.5 -17.5q2 -3 -0.5 -18t5 -35.5t20.5 -39t44.5 -32.5t77.5 -14z" glyph-name="currency" horiz-adv-x="1404" unicode="¤"/><glyph d="M1920 1434l-732 -818h348l-70 -203h-449l-20 -60h455l-70 -206h-450l-48 -147h-561l46 147h-451l70 206h447l19 60h-451l70 203h357l-206 818h564l98 -456h39l382 456h613z" glyph-name="yen" horiz-adv-x="1696" unicode="¥"/><glyph d="M67 765l273 839h561l-273 -839h-561zM-237 -171l273 842h561l-273 -842h-561z" glyph-name="brokenbar" horiz-adv-x="663" unicode="¦"/><glyph d="M1645 1125h-500q10 60 -36 89.5t-162 29.5q-169 0 -196 -70q-17 -53 65 -66l135 -24q43 -9 126.5 -21t138 -21t124.5 -30.5t111.5 -50.5t71.5 -80.5t30 -119.5q0 -273 -222 -415q44 -60 45 -153q0 -191 -136.5 -329.5t-346.5 -202.5t-461 -62q-386 2 -539.5 134 t-42.5 422h508q-22 -60 24 -89.5t181 -31.5q106 -2 166.5 18t69.5 50q-2 7 3 20t-18 29t-76 23l-170 29q-215 36 -289 60q-236 82 -235 298q0 225 266 335q-82 85 -82 229q0 276 243 414.5t651 138.5q80 0 150 -7t141 -24t125.5 -44.5t97.5 -71t62.5 -99.5t15 -134.5 t-38.5 -172.5zM981 633q0 20 -3 35t-26.5 33t-64.5 23l-170 29q-2 0 -5.5 0.5t-4.5 0.5q-61 0 -100.5 -29.5t-39.5 -81.5q0 -70 83 -85l123 -24q2 -2 8.5 -2t8.5 -1q82 -12 136.5 17t54.5 85z" glyph-name="section" horiz-adv-x="1588" unicode="§"/><glyph d="M362 1159q-68 0 -113.5 45t-45.5 110q0 82 68.5 146t150.5 64q68 0 112.5 -46t44.5 -109q0 -84 -67.5 -147t-149.5 -63zM930 1159q-68 0 -113.5 45t-45.5 110q0 82 68.5 146t150.5 64q68 0 112.5 -46t44.5 -109q0 -84 -67.5 -147t-149.5 -63z" glyph-name="dieresis" horiz-adv-x="943" unicode="¨"/><glyph d="M500 544q-166 0 -265.5 97.5t-99.5 264.5q0 229 164.5 397t412.5 168q166 0 265.5 -97t99.5 -263q0 -230 -165 -398.5t-412 -168.5zM532 713q56 0 112.5 14.5t120 61.5t97.5 122h-169q-49 -63 -125 -63q-109 0 -109 120q0 79 58 141.5t137 62.5q39 0 68 -17.5t32 -51.5 h171q-2 102 -72.5 155t-173.5 53q-167 0 -273 -115.5t-106 -258.5q0 -106 59.5 -165t172.5 -59z" glyph-name="copyright" horiz-adv-x="1020" unicode="©"/><glyph d="M857 1434h251l-239 -739h-234l-19 41q-85 -41 -160 -41q-128 0 -206.5 81.5t-78.5 211.5q0 193 131 324.5t307 131.5q118 0 191 -79zM492 1068q0 -63 66 -63q32 0 51 19t19 48q0 67 -63 66q-31 0 -52 -22t-21 -48z" glyph-name="ordfeminine" horiz-adv-x="935" unicode="ª"/><glyph d="M1205 1246l-505 -526l187 -532h-604l-181 532l511 526h592zM1929 1246l-506 -526l188 -532h-604l-181 532l510 526h593z" glyph-name="guillemotleft" horiz-adv-x="1882" unicode="«"/><glyph d="M746 439l61 187h-749l118 369h1206l-179 -556h-457z" glyph-name="logicalnot" horiz-adv-x="1377" unicode="¬"/><glyph d="M-14 473l157 466h990l-157 -466h-990z" glyph-name="uni00AD" horiz-adv-x="1126" unicode="­"/><glyph d="M500 544q-166 0 -265.5 97.5t-99.5 264.5q0 229 164.5 397t412.5 168q166 0 265.5 -97t99.5 -263q0 -230 -165 -398.5t-412 -168.5zM304 741h150l49 162h105l44 -162h154l-57 189q140 63 140 193q0 152 -206 152h-207zM543 1024l39 123h94q32 0 47.5 -16.5t15.5 -36.5 q0 -31 -25 -50.5t-60 -19.5h-111z" glyph-name="registered" horiz-adv-x="1020" unicode="®"/><glyph d="M147 1167l133 403h853l-133 -403h-853z" glyph-name="macron" horiz-adv-x="858" unicode="¯"/><glyph d="M505 647q-148 0 -233.5 83.5t-85.5 221.5q0 205 144 348.5t354 143.5q148 0 234 -83.5t86 -223.5q0 -203 -145.5 -346.5t-353.5 -143.5zM579 988q31 0 50.5 22.5t19.5 44.5q0 49 -41 49q-32 0 -51 -22t-19 -48q0 -46 41 -46z" glyph-name="degree" horiz-adv-x="979" unicode="°"/><glyph d="M1157 1362h372l-145 -451h-375l-122 -368h-491l121 368h-365l145 451h367l121 370h493zM-67 0l154 468h1147l-154 -468h-1147z" glyph-name="plusminus" horiz-adv-x="1401" unicode="±"/><glyph d="M143 1161l176 312h507l-176 -312h-507z" glyph-name="acute" horiz-adv-x="583" unicode="´"/><glyph d="M1015 1161h562l-376 -1161h-552l39 147h-45q-119 -138 -271 -169l-75 -234h-562l460 1417h561l-205 -630h2q-41 -121 34 -142q7 -2 14 -2q70 0 129.5 49.5t88.5 116.5z" glyph-name="uni00B5" horiz-adv-x="1484" unicode="µ"/><glyph d="M717 0l92 285h-172q-570 0 -570 430q0 341 248 530t654 189h772l-464 -1434h-560zM1505 0l464 1434h560l-464 -1434h-560z" glyph-name="paragraph" horiz-adv-x="2348" unicode="¶"/><glyph d="M367 451q-102 0 -165.5 63t-63.5 164q0 130 93 218.5t220 88.5q101 0 164 -63.5t63 -163.5q0 -130 -93 -218.5t-218 -88.5z" glyph-name="periodcentered" horiz-adv-x="815" unicode="·"/><glyph d="M26 -55q60 -15 98 -63t38 -128q0 -164 -162 -222t-374 12l58 186q63 -24 137.5 -22t74.5 38q0 14 -23 24t-67.5 11.5t-110.5 -11.5l29 100l189 130h213z" glyph-name="cedilla" horiz-adv-x="486" unicode="¸"/><glyph d="M469 698q-133 0 -216.5 84.5t-83.5 215.5q0 179 133 312.5t321 133.5q133 0 215 -83t82 -216q0 -183 -133.5 -315t-317.5 -132zM541 1005q32 0 50 20.5t18 51.5t-18 46t-41 15q-31 0 -50 -23.5t-19 -52.5q0 -57 60 -57z" glyph-name="ordmasculine" horiz-adv-x="858" unicode="º"/><glyph d="M-46 188l505 525l-188 533h605l180 -533l-510 -525h-592zM678 188l505 525l-188 533h604l181 -533l-510 -525h-592z" glyph-name="guillemotright" horiz-adv-x="1882" unicode="»"/><glyph d="M742 1092q102 0 165.5 -63t63.5 -164q0 -130 -93 -218.5t-219 -88.5q-101 0 -164 63t-63 164q0 130 92.5 218.5t217.5 88.5zM899 512q-20 -92 -71 -158.5t-112 -98t-127.5 -54t-120 -33.5t-88.5 -30t-35 -46q0 -24 42.5 -42t107.5 -18q183 0 254 149h504 q-27 -159 -105 -275t-195 -182.5t-256 -98t-306 -31.5q-283 0 -461.5 99.5t-178.5 287.5q0 113 56 197.5t139 129.5t166 77.5t149.5 63.5t78.5 63h559z" glyph-name="questiondown" horiz-adv-x="1474" unicode="¿"/><glyph d="M1408 1519h-507l-176 312h507zM1558 0h-558l2 155h-541l-97 -155h-596l954 1434h790zM720 567h289l5 343h-79z" glyph-name="Agrave" unicode="À"/><glyph d="M1579 1831l-176 -312h-507l176 312h507zM722 1434h790l46 -1434h-558l2 155h-541l-97 -155h-596zM720 567h289l5 343h-79z" glyph-name="Aacute" unicode="Á"/><glyph d="M1142 1640l-87 -121h-492l297 312h705l123 -312h-454l-34 121h-58zM722 1434h790l46 -1434h-558l2 155h-541l-97 -155h-596zM720 567h289l5 343h-79z" glyph-name="Acircumflex" unicode="Â"/><glyph d="M876 1468h-137q-29 155 56.5 235t206.5 80q84 0 200 -44t167 -44q44 0 75.5 18t33.5 52h138q29 -157 -55.5 -236.5t-208.5 -79.5q-84 0 -200 44.5t-167 44.5q-43 0 -74.5 -18t-34.5 -52zM722 1434h790l46 -1434h-558l2 155h-541l-97 -155h-596zM720 567h289l5 343h-79z " glyph-name="Atilde" unicode="Ã"/><glyph d="M872 1517q-68 0 -113.5 45.5t-45.5 110.5q0 82 68.5 145.5t150.5 63.5q68 0 112.5 -46t44.5 -109q0 -84 -67.5 -147t-149.5 -63zM1500 1882q68 0 112.5 -46t44.5 -109q0 -84 -67.5 -147t-149.5 -63q-68 0 -113 45.5t-45 110.5q0 82 68 145.5t150 63.5zM722 1434h790 l46 -1434h-558l2 155h-541l-97 -155h-596zM720 567h289l5 343h-79z" glyph-name="Adieresis" unicode="Ä"/><glyph d="M1558 0h-558l2 155h-541l-97 -155h-596l954 1434h288q-106 56 -105.5 191t90.5 219.5t212 84.5q97 0 156 -60t59 -156q0 -90 -48 -166t-126 -113h264zM1174 1713q-22 0 -36.5 -16t-14.5 -40q0 -10 8.5 -20.5t25.5 -10.5q24 0 37.5 15.5t13.5 39.5q0 12 -8.5 22t-25.5 10z M720 567h289l5 343h-79z" glyph-name="Aring" unicode="Å"/><glyph d="M2575 990h-795l-31 -97h796l-115 -347h-792l-32 -101h790l-145 -445h-1350l65 203h-461l-147 -203h-590l1111 1434h1841zM797 609h300l116 359h-158z" glyph-name="AE" horiz-adv-x="2534" unicode="Æ"/><glyph d="M1700 797h-539q3 94 -56 147.5t-160 53.5q-164 0 -266 -108t-102 -248q0 -101 65.5 -154t163.5 -53q213 0 317 195h538q-46 -157 -131.5 -280t-184.5 -196.5t-217.5 -120.5t-222 -64t-207.5 -17h-36l-13 -7q60 -15 98 -63t38 -128q0 -164 -162 -222t-374 12l58 186 q63 -24 137.5 -22t74.5 38q0 14 -23 24t-67.5 11.5t-111.5 -11.5l29 100l147 101q-230 48 -353 200t-123 390q0 181 77 348.5t211 293.5t329 202t419 76q142 0 264 -36.5t205.5 -99.5t139 -150t62.5 -187t-24 -211z" glyph-name="Ccedilla" horiz-adv-x="1716" unicode="Ç"/><glyph d="M1225 1519h-506l-176 312h507zM1493 990h-795l-31 -97h796l-115 -347h-792l-32 -101h790l-145 -445h-1350l463 1434h1356z" glyph-name="Egrave" horiz-adv-x="1452" unicode="È"/><glyph d="M1396 1831l-176 -312h-507l176 312h507zM1493 990h-795l-31 -97h796l-115 -347h-792l-32 -101h790l-145 -445h-1350l463 1434h1356z" glyph-name="Eacute" horiz-adv-x="1452" unicode="É"/><glyph d="M959 1640l-87 -121h-491l297 312h704l123 -312h-454l-34 121h-58zM1493 990h-795l-31 -97h796l-115 -347h-792l-32 -101h790l-145 -445h-1350l463 1434h1356z" glyph-name="Ecircumflex" horiz-adv-x="1452" unicode="Ê"/><glyph d="M689 1517q-68 0 -113 45.5t-45 110.5q0 82 68 145.5t150 63.5q68 0 112.5 -46t44.5 -109q0 -84 -67.5 -147t-149.5 -63zM1258 1517q-68 0 -113.5 45.5t-45.5 110.5q0 82 68.5 145.5t150.5 63.5q68 0 112.5 -46t44.5 -109q0 -84 -67.5 -147t-149.5 -63zM1493 990h-795 l-31 -97h796l-115 -347h-792l-32 -101h790l-145 -445h-1350l463 1434h1356z" glyph-name="Edieresis" horiz-adv-x="1452" unicode="Ë"/><glyph d="M824 1519h-507l-175 312h507zM-181 0l463 1434h559l-460 -1434h-562z" glyph-name="Igrave" horiz-adv-x="660" unicode="Ì"/><glyph d="M312 1519l176 312h507l-176 -312h-507zM-181 0l463 1434h559l-460 -1434h-562z" glyph-name="Iacute" horiz-adv-x="660" unicode="Í"/><glyph d="M-20 1519l296 312h705l123 -312h-454l-34 121h-58l-87 -121h-491zM-181 0l463 1434h559l-460 -1434h-562z" glyph-name="Icircumflex" horiz-adv-x="660" unicode="Î"/><glyph d="M288 1517q-68 0 -113 45.5t-45 110.5q0 82 68 145.5t150 63.5q68 0 112.5 -46t44.5 -109q0 -84 -67.5 -147t-149.5 -63zM857 1517q-68 0 -113.5 45.5t-45.5 110.5q0 82 68.5 145.5t149.5 63.5q68 0 112.5 -46t44.5 -109q0 -84 -67 -147t-149 -63zM-181 0l463 1434h559 l-460 -1434h-562z" glyph-name="Idieresis" horiz-adv-x="660" unicode="Ï"/><glyph d="M1118 1434q346 0 511.5 -144.5t165.5 -407.5q0 -171 -51 -314t-143 -247t-219.5 -176.5t-280 -108.5t-323.5 -36h-814l164 509h-177l133 402h174l167 523h693zM877 469q147 0 248.5 95.5t101.5 239.5q0 94 -65 128t-198 34h-128l-17 -55h220l-133 -402h-218l-14 -40h203z " glyph-name="Eth" horiz-adv-x="1815" unicode="Ð"/><glyph d="M1295 1449q-84 0 -199.5 44.5t-167.5 44.5q-43 0 -74 -18t-35 -52h-136q-29 155 56 235t206 80q82 0 198.5 -44t168.5 -44q44 0 76 18t34 52h138q29 -157 -55.5 -236.5t-209.5 -79.5zM-181 0l469 1434h620l148 -666h58l221 666h546l-466 -1434h-606l-167 654h-58 l-219 -654h-546z" glyph-name="Ntilde" horiz-adv-x="1699" unicode="Ñ"/><glyph d="M1367 1526h-507l-176 312h507zM698 -48q-326 0 -504.5 159t-178.5 440q0 184 78 354t212.5 297t326 203t406.5 76q326 0 504 -158.5t178 -440.5q0 -184 -77.5 -354t-212.5 -297t-326 -203t-406 -76zM790 435q160 0 262.5 112t106.5 245q0 101 -62.5 153.5t-151.5 52.5 q-160 0 -263 -111.5t-107 -243.5q0 -101 63 -154.5t152 -53.5z" glyph-name="Ograve" horiz-adv-x="1733" unicode="Ò"/><glyph d="M855 1526l176 312h507l-176 -312h-507zM698 -48q-326 0 -504.5 159t-178.5 440q0 184 78 354t212.5 297t326 203t406.5 76q326 0 504 -158.5t178 -440.5q0 -184 -77.5 -354t-212.5 -297t-326 -203t-406 -76zM790 435q160 0 262.5 112t106.5 245q0 101 -62.5 153.5 t-151.5 52.5q-160 0 -263 -111.5t-107 -243.5q0 -101 63 -154.5t152 -53.5z" glyph-name="Oacute" horiz-adv-x="1733" unicode="Ó"/><glyph d="M522 1526l297 312h705l123 -312h-454l-34 121h-58l-87 -121h-492zM698 -48q-326 0 -504.5 159t-178.5 440q0 184 78 354t212.5 297t326 203t406.5 76q326 0 504 -158.5t178 -440.5q0 -184 -77.5 -354t-212.5 -297t-326 -203t-406 -76zM790 435q160 0 262.5 112t106.5 245 q0 101 -62.5 153.5t-151.5 52.5q-160 0 -263 -111.5t-107 -243.5q0 -101 63 -154.5t152 -53.5z" glyph-name="Ocircumflex" horiz-adv-x="1733" unicode="Ô"/><glyph d="M1260 1459q222 -48 341 -198t119 -379q0 -184 -77.5 -354t-212.5 -297t-326 -203t-406 -76q-326 0 -504.5 159t-178.5 440q0 184 78 354t212.5 297t326 203t406.5 76q96 0 169 -12q-32 9 -123 42.5t-140 33.5q-43 0 -74.5 -18t-34.5 -52h-137q-29 155 56.5 235t206.5 80 q84 0 200 -44t167 -44q44 0 75.5 17.5t33.5 52.5h138q29 -157 -55.5 -236.5t-208.5 -79.5q-20 0 -51 3zM790 435q160 0 262.5 112t106.5 245q0 101 -62.5 153.5t-151.5 52.5q-160 0 -263 -111.5t-107 -243.5q0 -101 63 -154.5t152 -53.5z" glyph-name="Otilde" horiz-adv-x="1733" unicode="Õ"/><glyph d="M831 1524q-68 0 -113.5 45.5t-45.5 109.5q0 82 68.5 146t150.5 64q68 0 112.5 -46t44.5 -109q0 -84 -67.5 -147t-149.5 -63zM1399 1524q-68 0 -113 45.5t-45 109.5q0 82 68 146t150 64q68 0 112.5 -46t44.5 -109q0 -84 -67.5 -147t-149.5 -63zM698 -48q-326 0 -504.5 159 t-178.5 440q0 184 78 354t212.5 297t326 203t406.5 76q326 0 504 -158.5t178 -440.5q0 -184 -77.5 -354t-212.5 -297t-326 -203t-406 -76zM790 435q160 0 262.5 112t106.5 245q0 101 -62.5 153.5t-151.5 52.5q-160 0 -263 -111.5t-107 -243.5q0 -101 63 -154.5t152 -53.5z " glyph-name="Odieresis" horiz-adv-x="1733" unicode="Ö"/><glyph d="M1314 963l-353 -268l165 -246l-397 -297l-164 244l-345 -261l-218 322l344 262l-180 267l397 297l179 -266l357 268z" glyph-name="multiply" horiz-adv-x="1320" unicode="×"/><glyph d="M1519 1341q201 -157 201 -459q0 -184 -77.5 -354t-212.5 -297t-326 -203t-406 -76q-121 0 -227 24l-48 -63h-326l132 171q-213 155 -214 467q0 184 78 354t212.5 297t326 203t406.5 76q137 0 240 -27l53 68h326zM575 643q0 -49 16 -87l337 442q-154 -7 -252 -117 t-101 -238zM824 437q147 14 239 122t96 233q0 34 -9 68z" glyph-name="Oslash" horiz-adv-x="1733" unicode="Ø"/><glyph d="M1336 1519h-507l-175 312h507zM664 -48q-425 0 -585.5 182t-44.5 533l254 767h569l-270 -808q-34 -99 2.5 -154.5t152.5 -55.5t182 61.5t114 203.5l244 753h570l-267 -816q-121 -367 -330 -516.5t-591 -149.5z" glyph-name="Ugrave" horiz-adv-x="1670" unicode="Ù"/><glyph d="M824 1519l176 312h507l-176 -312h-507zM664 -48q-425 0 -585.5 182t-44.5 533l254 767h569l-270 -808q-34 -99 2.5 -154.5t152.5 -55.5t182 61.5t114 203.5l244 753h570l-267 -816q-121 -367 -330 -516.5t-591 -149.5z" glyph-name="Uacute" horiz-adv-x="1670" unicode="Ú"/><glyph d="M492 1519l296 312h705l123 -312h-454l-34 121h-58l-87 -121h-491zM664 -48q-425 0 -585.5 182t-44.5 533l254 767h569l-270 -808q-34 -99 2.5 -154.5t152.5 -55.5t182 61.5t114 203.5l244 753h570l-267 -816q-121 -367 -330 -516.5t-591 -149.5z" glyph-name="Ucircumflex" horiz-adv-x="1670" unicode="Û"/><glyph d="M800 1517q-68 0 -113 45.5t-45 110.5q0 82 68 145.5t150 63.5q68 0 112.5 -46t44.5 -109q0 -84 -67.5 -147t-149.5 -63zM1369 1517q-68 0 -113.5 45.5t-45.5 110.5q0 82 68.5 145.5t149.5 63.5q68 0 112.5 -46t44.5 -109q0 -84 -67 -147t-149 -63zM664 -48 q-425 0 -585.5 182t-44.5 533l254 767h569l-270 -808q-34 -99 2.5 -154.5t152.5 -55.5t182 61.5t114 203.5l244 753h570l-267 -816q-121 -367 -330 -516.5t-591 -149.5z" glyph-name="Udieresis" horiz-adv-x="1670" unicode="Ü"/><glyph d="M1505 1831l-176 -312h-506l175 312h507zM1920 1434l-898 -1002l-138 -432h-561l146 461l-245 973h564l98 -456h39l382 456h613z" glyph-name="Yacute" horiz-adv-x="1696" unicode="Ý"/><glyph d="M968 1292q345 0 493 -156t48 -476q-92 -275 -307.5 -396t-558.5 -121h-213l-46 -143h-561l460 1434h562l-46 -142h169zM969 775q14 34 -7.5 43.5t-82.5 9.5h-229l-71 -220h175q65 0 128 44t87 123z" glyph-name="Thorn" horiz-adv-x="1546" unicode="Þ"/><glyph d="M-181 0l311 959q53 159 143.5 266.5t207 158t224 69t240.5 18.5q314 0 455 -102.5t141 -255.5q0 -108 -65 -193t-181 -135l-12 -39q43 -31 70.5 -58.5t54 -89.5t26.5 -142q0 -121 -59 -211t-166.5 -142t-242.5 -77.5t-299 -25.5h-213l135 420h160q172 0 173 94 q0 14 -2 20.5t-8.5 18.5t-26.5 18t-52 6h-191l99 300h121q128 0 128 62q0 58 -120 58q-169 0 -208 -123l-281 -874h-562z" glyph-name="germandbls" horiz-adv-x="1556" unicode="ß"/><glyph d="M1408 1519h-507l-176 312h507zM1558 0h-558l2 155h-541l-97 -155h-596l954 1434h790zM720 567h289l5 343h-79z" glyph-name="agrave" unicode="à"/><glyph d="M1579 1831l-176 -312h-507l176 312h507zM722 1434h790l46 -1434h-558l2 155h-541l-97 -155h-596zM720 567h289l5 343h-79z" glyph-name="aacute" unicode="á"/><glyph d="M1142 1640l-87 -121h-492l297 312h705l123 -312h-454l-34 121h-58zM722 1434h790l46 -1434h-558l2 155h-541l-97 -155h-596zM720 567h289l5 343h-79z" glyph-name="acircumflex" unicode="â"/><glyph d="M876 1468h-137q-29 155 56.5 235t206.5 80q84 0 200 -44t167 -44q44 0 75.5 18t33.5 52h138q29 -157 -55.5 -236.5t-208.5 -79.5q-84 0 -200 44.5t-167 44.5q-43 0 -74.5 -18t-34.5 -52zM722 1434h790l46 -1434h-558l2 155h-541l-97 -155h-596zM720 567h289l5 343h-79z " glyph-name="atilde" unicode="ã"/><glyph d="M872 1517q-68 0 -113.5 45.5t-45.5 110.5q0 82 68.5 145.5t150.5 63.5q68 0 112.5 -46t44.5 -109q0 -84 -67.5 -147t-149.5 -63zM1500 1882q68 0 112.5 -46t44.5 -109q0 -84 -67.5 -147t-149.5 -63q-68 0 -113 45.5t-45 110.5q0 82 68 145.5t150 63.5zM722 1434h790 l46 -1434h-558l2 155h-541l-97 -155h-596zM720 567h289l5 343h-79z" glyph-name="adieresis" unicode="ä"/><glyph d="M1558 0h-558l2 155h-541l-97 -155h-596l954 1434h288q-106 56 -105.5 191t90.5 219.5t212 84.5q97 0 156 -60t59 -156q0 -90 -48 -166t-126 -113h264zM1174 1713q-22 0 -36.5 -16t-14.5 -40q0 -10 8.5 -20.5t25.5 -10.5q24 0 37.5 15.5t13.5 39.5q0 12 -8.5 22t-25.5 10z M720 567h289l5 343h-79z" glyph-name="aring" unicode="å"/><glyph d="M2575 990h-795l-31 -97h796l-115 -347h-792l-32 -101h790l-145 -445h-1350l65 203h-461l-147 -203h-590l1111 1434h1841zM797 609h300l116 359h-158z" glyph-name="ae" horiz-adv-x="2534" unicode="æ"/><glyph d="M1700 797h-539q3 94 -56 147.5t-160 53.5q-164 0 -266 -108t-102 -248q0 -101 65.5 -154t163.5 -53q213 0 317 195h538q-46 -157 -131.5 -280t-184.5 -196.5t-217.5 -120.5t-222 -64t-207.5 -17h-36l-13 -7q60 -15 98 -63t38 -128q0 -164 -162 -222t-374 12l58 186 q63 -24 137.5 -22t74.5 38q0 14 -23 24t-67.5 11.5t-111.5 -11.5l29 100l147 101q-230 48 -353 200t-123 390q0 181 77 348.5t211 293.5t329 202t419 76q142 0 264 -36.5t205.5 -99.5t139 -150t62.5 -187t-24 -211z" glyph-name="ccedilla" horiz-adv-x="1716" unicode="ç"/><glyph d="M1225 1519h-506l-176 312h507zM1493 990h-795l-31 -97h796l-115 -347h-792l-32 -101h790l-145 -445h-1350l463 1434h1356z" glyph-name="egrave" horiz-adv-x="1452" unicode="è"/><glyph d="M1396 1831l-176 -312h-507l176 312h507zM1493 990h-795l-31 -97h796l-115 -347h-792l-32 -101h790l-145 -445h-1350l463 1434h1356z" glyph-name="eacute" horiz-adv-x="1452" unicode="é"/><glyph d="M959 1640l-87 -121h-491l297 312h704l123 -312h-454l-34 121h-58zM1493 990h-795l-31 -97h796l-115 -347h-792l-32 -101h790l-145 -445h-1350l463 1434h1356z" glyph-name="ecircumflex" horiz-adv-x="1452" unicode="ê"/><glyph d="M689 1517q-68 0 -113 45.5t-45 110.5q0 82 68 145.5t150 63.5q68 0 112.5 -46t44.5 -109q0 -84 -67.5 -147t-149.5 -63zM1258 1517q-68 0 -113.5 45.5t-45.5 110.5q0 82 68.5 145.5t150.5 63.5q68 0 112.5 -46t44.5 -109q0 -84 -67.5 -147t-149.5 -63zM1493 990h-795 l-31 -97h796l-115 -347h-792l-32 -101h790l-145 -445h-1350l463 1434h1356z" glyph-name="edieresis" horiz-adv-x="1452" unicode="ë"/><glyph d="M824 1519h-507l-175 312h507zM-181 0l463 1434h559l-460 -1434h-562z" glyph-name="igrave" horiz-adv-x="660" unicode="ì"/><glyph d="M312 1519l176 312h507l-176 -312h-507zM-181 0l463 1434h559l-460 -1434h-562z" glyph-name="iacute" horiz-adv-x="660" unicode="í"/><glyph d="M-20 1519l296 312h705l123 -312h-454l-34 121h-58l-87 -121h-491zM-181 0l463 1434h559l-460 -1434h-562z" glyph-name="icircumflex" horiz-adv-x="660" unicode="î"/><glyph d="M288 1517q-68 0 -113 45.5t-45 110.5q0 82 68 145.5t150 63.5q68 0 112.5 -46t44.5 -109q0 -84 -67.5 -147t-149.5 -63zM857 1517q-68 0 -113.5 45.5t-45.5 110.5q0 82 68.5 145.5t149.5 63.5q68 0 112.5 -46t44.5 -109q0 -84 -67 -147t-149 -63zM-181 0l463 1434h559 l-460 -1434h-562z" glyph-name="idieresis" horiz-adv-x="660" unicode="ï"/><glyph d="M1118 1434q346 0 511.5 -144.5t165.5 -407.5q0 -171 -51 -314t-143 -247t-219.5 -176.5t-280 -108.5t-323.5 -36h-814l164 509h-177l133 402h174l167 523h693zM877 469q147 0 248.5 95.5t101.5 239.5q0 94 -65 128t-198 34h-128l-17 -55h220l-133 -402h-218l-14 -40h203z " glyph-name="eth" horiz-adv-x="1815" unicode="ð"/><glyph d="M1295 1449q-84 0 -199.5 44.5t-167.5 44.5q-43 0 -74 -18t-35 -52h-136q-29 155 56 235t206 80q82 0 198.5 -44t168.5 -44q44 0 76 18t34 52h138q29 -157 -55.5 -236.5t-209.5 -79.5zM-181 0l469 1434h620l148 -666h58l221 666h546l-466 -1434h-606l-167 654h-58 l-219 -654h-546z" glyph-name="ntilde" horiz-adv-x="1699" unicode="ñ"/><glyph d="M1367 1526h-507l-176 312h507zM698 -48q-326 0 -504.5 159t-178.5 440q0 184 78 354t212.5 297t326 203t406.5 76q326 0 504 -158.5t178 -440.5q0 -184 -77.5 -354t-212.5 -297t-326 -203t-406 -76zM790 435q160 0 262.5 112t106.5 245q0 101 -62.5 153.5t-151.5 52.5 q-160 0 -263 -111.5t-107 -243.5q0 -101 63 -154.5t152 -53.5z" glyph-name="ograve" horiz-adv-x="1733" unicode="ò"/><glyph d="M855 1526l176 312h507l-176 -312h-507zM698 -48q-326 0 -504.5 159t-178.5 440q0 184 78 354t212.5 297t326 203t406.5 76q326 0 504 -158.5t178 -440.5q0 -184 -77.5 -354t-212.5 -297t-326 -203t-406 -76zM790 435q160 0 262.5 112t106.5 245q0 101 -62.5 153.5 t-151.5 52.5q-160 0 -263 -111.5t-107 -243.5q0 -101 63 -154.5t152 -53.5z" glyph-name="oacute" horiz-adv-x="1733" unicode="ó"/><glyph d="M522 1526l297 312h705l123 -312h-454l-34 121h-58l-87 -121h-492zM698 -48q-326 0 -504.5 159t-178.5 440q0 184 78 354t212.5 297t326 203t406.5 76q326 0 504 -158.5t178 -440.5q0 -184 -77.5 -354t-212.5 -297t-326 -203t-406 -76zM790 435q160 0 262.5 112t106.5 245 q0 101 -62.5 153.5t-151.5 52.5q-160 0 -263 -111.5t-107 -243.5q0 -101 63 -154.5t152 -53.5z" glyph-name="ocircumflex" horiz-adv-x="1733" unicode="ô"/><glyph d="M1260 1459q222 -48 341 -198t119 -379q0 -184 -77.5 -354t-212.5 -297t-326 -203t-406 -76q-326 0 -504.5 159t-178.5 440q0 184 78 354t212.5 297t326 203t406.5 76q96 0 169 -12q-32 9 -123 42.5t-140 33.5q-43 0 -74.5 -18t-34.5 -52h-137q-29 155 56.5 235t206.5 80 q84 0 200 -44t167 -44q44 0 75.5 17.5t33.5 52.5h138q29 -157 -55.5 -236.5t-208.5 -79.5q-20 0 -51 3zM790 435q160 0 262.5 112t106.5 245q0 101 -62.5 153.5t-151.5 52.5q-160 0 -263 -111.5t-107 -243.5q0 -101 63 -154.5t152 -53.5z" glyph-name="otilde" horiz-adv-x="1733" unicode="õ"/><glyph d="M831 1524q-68 0 -113.5 45.5t-45.5 109.5q0 82 68.5 146t150.5 64q68 0 112.5 -46t44.5 -109q0 -84 -67.5 -147t-149.5 -63zM1399 1524q-68 0 -113 45.5t-45 109.5q0 82 68 146t150 64q68 0 112.5 -46t44.5 -109q0 -84 -67.5 -147t-149.5 -63zM698 -48q-326 0 -504.5 159 t-178.5 440q0 184 78 354t212.5 297t326 203t406.5 76q326 0 504 -158.5t178 -440.5q0 -184 -77.5 -354t-212.5 -297t-326 -203t-406 -76zM790 435q160 0 262.5 112t106.5 245q0 101 -62.5 153.5t-151.5 52.5q-160 0 -263 -111.5t-107 -243.5q0 -101 63 -154.5t152 -53.5z " glyph-name="odieresis" horiz-adv-x="1733" unicode="ö"/><glyph d="M773 1010q-85 0 -138 53t-53 137q0 109 78.5 183t184.5 74q84 0 136.5 -52.5t52.5 -136.5q0 -109 -77.5 -183.5t-183.5 -74.5zM26 527l119 383h1147l-120 -383h-1146zM439 -43q-85 0 -138.5 53t-53.5 137q0 109 78.5 183t184.5 74q84 0 137 -52.5t53 -136.5 q0 -109 -77.5 -183.5t-183.5 -74.5z" glyph-name="divide" horiz-adv-x="1317" unicode="÷"/><glyph d="M1519 1341q201 -157 201 -459q0 -184 -77.5 -354t-212.5 -297t-326 -203t-406 -76q-121 0 -227 24l-48 -63h-326l132 171q-213 155 -214 467q0 184 78 354t212.5 297t326 203t406.5 76q137 0 240 -27l53 68h326zM575 643q0 -49 16 -87l337 442q-154 -7 -252 -117 t-101 -238zM824 437q147 14 239 122t96 233q0 34 -9 68z" glyph-name="oslash" horiz-adv-x="1733" unicode="ø"/><glyph d="M1336 1519h-507l-175 312h507zM664 -48q-425 0 -585.5 182t-44.5 533l254 767h569l-270 -808q-34 -99 2.5 -154.5t152.5 -55.5t182 61.5t114 203.5l244 753h570l-267 -816q-121 -367 -330 -516.5t-591 -149.5z" glyph-name="ugrave" horiz-adv-x="1670" unicode="ù"/><glyph d="M824 1519l176 312h507l-176 -312h-507zM664 -48q-425 0 -585.5 182t-44.5 533l254 767h569l-270 -808q-34 -99 2.5 -154.5t152.5 -55.5t182 61.5t114 203.5l244 753h570l-267 -816q-121 -367 -330 -516.5t-591 -149.5z" glyph-name="uacute" horiz-adv-x="1670" unicode="ú"/><glyph d="M492 1519l296 312h705l123 -312h-454l-34 121h-58l-87 -121h-491zM664 -48q-425 0 -585.5 182t-44.5 533l254 767h569l-270 -808q-34 -99 2.5 -154.5t152.5 -55.5t182 61.5t114 203.5l244 753h570l-267 -816q-121 -367 -330 -516.5t-591 -149.5z" glyph-name="ucircumflex" horiz-adv-x="1670" unicode="û"/><glyph d="M800 1517q-68 0 -113 45.5t-45 110.5q0 82 68 145.5t150 63.5q68 0 112.5 -46t44.5 -109q0 -84 -67.5 -147t-149.5 -63zM1369 1517q-68 0 -113.5 45.5t-45.5 110.5q0 82 68.5 145.5t149.5 63.5q68 0 112.5 -46t44.5 -109q0 -84 -67 -147t-149 -63zM664 -48 q-425 0 -585.5 182t-44.5 533l254 767h569l-270 -808q-34 -99 2.5 -154.5t152.5 -55.5t182 61.5t114 203.5l244 753h570l-267 -816q-121 -367 -330 -516.5t-591 -149.5z" glyph-name="udieresis" horiz-adv-x="1670" unicode="ü"/><glyph d="M1505 1831l-176 -312h-506l175 312h507zM1920 1434l-898 -1002l-138 -432h-561l146 461l-245 973h564l98 -456h39l382 456h613z" glyph-name="yacute" horiz-adv-x="1696" unicode="ý"/><glyph d="M968 1292q345 0 493 -156t48 -476q-92 -275 -307.5 -396t-558.5 -121h-213l-46 -143h-561l460 1434h562l-46 -142h169zM969 775q14 34 -7.5 43.5t-82.5 9.5h-229l-71 -220h175q65 0 128 44t87 123z" glyph-name="thorn" horiz-adv-x="1546" unicode="þ"/><glyph d="M799 1517q-68 0 -113.5 45.5t-45.5 110.5q0 82 68.5 145.5t149.5 63.5q68 0 112.5 -46t44.5 -109q0 -84 -67 -147t-149 -63zM1367 1517q-68 0 -113.5 45.5t-45.5 110.5q0 82 68.5 145.5t150.5 63.5q68 0 112.5 -46t44.5 -109q0 -84 -67.5 -147t-149.5 -63zM1920 1434 l-898 -1002l-138 -432h-561l146 461l-245 973h564l98 -456h39l382 456h613z" glyph-name="ydieresis" horiz-adv-x="1696" unicode="ÿ"/><glyph d="M876 1929h853l-133 -403h-854zM722 1434h790l46 -1434h-558l2 155h-541l-97 -155h-596zM720 567h289l5 343h-79z" glyph-name="Amacron" unicode="Ā"/><glyph d="M876 1929h853l-133 -403h-854zM722 1434h790l46 -1434h-558l2 155h-541l-97 -155h-596zM720 567h289l5 343h-79z" glyph-name="amacron" unicode="ā"/><glyph d="M1353 1831h308q-19 -94 -62.5 -158t-107.5 -96t-134 -45t-161 -13q-67 0 -118.5 5t-101 18t-81 36t-55.5 57t-23.5 82.5t12.5 113.5h311q-19 -87 85 -87q108 0 128 87zM722 1434h790l46 -1434h-558l2 155h-541l-97 -155h-596zM720 567h289l5 343h-79z" glyph-name="Abreve" unicode="Ă"/><glyph d="M1353 1831h308q-19 -94 -62.5 -158t-107.5 -96t-134 -45t-161 -13q-67 0 -118.5 5t-101 18t-81 36t-55.5 57t-23.5 82.5t12.5 113.5h311q-19 -87 85 -87q108 0 128 87zM722 1434h790l46 -1434h-558l2 155h-541l-97 -155h-596zM720 567h289l5 343h-79z" glyph-name="abreve" unicode="ă"/><glyph d="M1005 0q-114 0 -114 -65q-9 -60 63 -56v-297q-56 0 -111 7t-114.5 25.5t-104 48.5t-73.5 79.5t-29 112.5q0 56 22.5 100.5t49.5 72t80 48t85.5 29.5t95.5 16t79.5 7t67.5 2v25h-541l-97 -155h-596l954 1434h790l46 -1434h-553zM720 567h289l5 343h-79z" glyph-name="Aogonek" unicode="Ą"/><glyph d="M1005 0q-114 0 -114 -65q-9 -60 63 -56v-297q-56 0 -111 7t-114.5 25.5t-104 48.5t-73.5 79.5t-29 112.5q0 56 22.5 100.5t49.5 72t80 48t85.5 29.5t95.5 16t79.5 7t67.5 2v25h-541l-97 -155h-596l954 1434h790l46 -1434h-553zM720 567h289l5 343h-79z" glyph-name="aogonek" unicode="ą"/><glyph d="M887 1519l176 312h507l-176 -312h-507zM698 -48q-326 0 -503.5 160.5t-177.5 448.5q0 181 77 348.5t211 293.5t329 202t419 76q142 0 264 -36.5t205.5 -99.5t139 -150t62.5 -187t-24 -211h-539q3 94 -56 147.5t-160 53.5q-164 0 -266 -108t-102 -248q0 -101 65.5 -154 t163.5 -53q213 0 317 195h538q-46 -157 -131.5 -280t-184.5 -196.5t-217.5 -120.5t-222 -64t-207.5 -17z" glyph-name="Cacute" horiz-adv-x="1716" unicode="Ć"/><glyph d="M887 1519l176 312h507l-176 -312h-507zM698 -48q-326 0 -503.5 160.5t-177.5 448.5q0 181 77 348.5t211 293.5t329 202t419 76q142 0 264 -36.5t205.5 -99.5t139 -150t62.5 -187t-24 -211h-539q3 94 -56 147.5t-160 53.5q-164 0 -266 -108t-102 -248q0 -101 65.5 -154 t163.5 -53q213 0 317 195h538q-46 -157 -131.5 -280t-184.5 -196.5t-217.5 -120.5t-222 -64t-207.5 -17z" glyph-name="cacute" horiz-adv-x="1716" unicode="ć"/><glyph d="M1186 1517q-68 0 -113.5 45.5t-45.5 110.5q0 82 68.5 145.5t150.5 63.5q68 0 112.5 -46t44.5 -109q0 -84 -67.5 -147t-149.5 -63zM698 -48q-326 0 -503.5 160.5t-177.5 448.5q0 181 77 348.5t211 293.5t329 202t419 76q142 0 264 -36.5t205.5 -99.5t139 -150t62.5 -187 t-24 -211h-539q3 94 -56 147.5t-160 53.5q-164 0 -266 -108t-102 -248q0 -101 65.5 -154t163.5 -53q213 0 317 195h538q-46 -157 -131.5 -280t-184.5 -196.5t-217.5 -120.5t-222 -64t-207.5 -17z" glyph-name="Cdotaccent" horiz-adv-x="1716" unicode="Ċ"/><glyph d="M1186 1517q-68 0 -113.5 45.5t-45.5 110.5q0 82 68.5 145.5t150.5 63.5q68 0 112.5 -46t44.5 -109q0 -84 -67.5 -147t-149.5 -63zM698 -48q-326 0 -503.5 160.5t-177.5 448.5q0 181 77 348.5t211 293.5t329 202t419 76q142 0 264 -36.5t205.5 -99.5t139 -150t62.5 -187 t-24 -211h-539q3 94 -56 147.5t-160 53.5q-164 0 -266 -108t-102 -248q0 -101 65.5 -154t163.5 -53q213 0 317 195h538q-46 -157 -131.5 -280t-184.5 -196.5t-217.5 -120.5t-222 -64t-207.5 -17z" glyph-name="cdotaccent" horiz-adv-x="1716" unicode="ċ"/><glyph d="M1283 1454q254 -65 371.5 -248.5t45.5 -408.5h-539q3 94 -56 147.5t-160 53.5q-164 0 -266 -108t-102 -248q0 -101 65.5 -154t163.5 -53q213 0 317 195h538q-46 -157 -131.5 -280t-184.5 -196.5t-217.5 -120.5t-222 -64t-207.5 -17q-326 0 -503.5 160.5t-177.5 448.5 q0 207 95.5 391.5t274 318.5t408.5 183h-46l-123 312h454l34 -121h58l88 121h491l-297 -312h-171z" glyph-name="Ccaron" horiz-adv-x="1716" unicode="Č"/><glyph d="M1283 1454q254 -65 371.5 -248.5t45.5 -408.5h-539q3 94 -56 147.5t-160 53.5q-164 0 -266 -108t-102 -248q0 -101 65.5 -154t163.5 -53q213 0 317 195h538q-46 -157 -131.5 -280t-184.5 -196.5t-217.5 -120.5t-222 -64t-207.5 -17q-326 0 -503.5 160.5t-177.5 448.5 q0 207 95.5 391.5t274 318.5t408.5 183h-46l-123 312h454l34 -121h58l88 121h491l-297 -312h-171z" glyph-name="ccaron" horiz-adv-x="1716" unicode="č"/><glyph d="M1678 1766l-297 -312h-705l-123 312h454l34 -121h58l87 121h492zM-177 0l460 1434h693q346 0 512 -144.5t166 -407.5q0 -171 -51.5 -314t-143.5 -247t-219 -176.5t-280 -108.5t-323 -36h-814zM532 469h204q147 0 248 95.5t101 239.5q0 94 -64.5 128t-197.5 34h-128z" glyph-name="Dcaron" horiz-adv-x="1674" unicode="Ď"/><glyph d="M1678 1766l-297 -312h-705l-123 312h454l34 -121h58l87 121h492zM-177 0l460 1434h693q346 0 512 -144.5t166 -407.5q0 -171 -51.5 -314t-143.5 -247t-219 -176.5t-280 -108.5t-323 -36h-814zM532 469h204q147 0 248 95.5t101 239.5q0 94 -64.5 128t-197.5 34h-128z" glyph-name="dcaron" horiz-adv-x="1674" unicode="ď"/><glyph d="M1118 1434q346 0 511.5 -144.5t165.5 -407.5q0 -171 -51 -314t-143 -247t-219.5 -176.5t-280 -108.5t-323.5 -36h-814l164 509h-177l133 402h174l167 523h693zM877 469q147 0 248.5 95.5t101.5 239.5q0 94 -65 128t-198 34h-128l-17 -55h220l-133 -402h-218l-14 -40h203z " glyph-name="Dcroat" horiz-adv-x="1815" unicode="Đ"/><glyph d="M1118 1434q346 0 511.5 -144.5t165.5 -407.5q0 -171 -51 -314t-143 -247t-219.5 -176.5t-280 -108.5t-323.5 -36h-814l164 509h-177l133 402h174l167 523h693zM877 469q147 0 248.5 95.5t101.5 239.5q0 94 -65 128t-198 34h-128l-17 -55h220l-133 -402h-218l-14 -40h203z " glyph-name="dcroat" horiz-adv-x="1815" unicode="đ"/><glyph d="M1546 1929l-133 -403h-853l133 403h853zM1493 990h-795l-31 -97h796l-115 -347h-792l-32 -101h790l-145 -445h-1350l463 1434h1356z" glyph-name="Emacron" horiz-adv-x="1452" unicode="Ē"/><glyph d="M1546 1929l-133 -403h-853l133 403h853zM1493 990h-795l-31 -97h796l-115 -347h-792l-32 -101h790l-145 -445h-1350l463 1434h1356z" glyph-name="emacron" horiz-adv-x="1452" unicode="ē"/><glyph d="M1012 1517q-68 0 -113.5 45.5t-45.5 110.5q0 82 68.5 145.5t150.5 63.5q68 0 112.5 -46t44.5 -109q0 -84 -67.5 -147t-149.5 -63zM1493 990h-795l-31 -97h796l-115 -347h-792l-32 -101h790l-145 -445h-1350l463 1434h1356z" glyph-name="Edotaccent" horiz-adv-x="1452" unicode="Ė"/><glyph d="M1012 1517q-68 0 -113.5 45.5t-45.5 110.5q0 82 68.5 145.5t150.5 63.5q68 0 112.5 -46t44.5 -109q0 -84 -67.5 -147t-149.5 -63zM1493 990h-795l-31 -97h796l-115 -347h-792l-32 -101h790l-145 -445h-1350l463 1434h1356z" glyph-name="edotaccent" horiz-adv-x="1452" unicode="ė"/><glyph d="M1493 990h-795l-31 -97h796l-115 -347h-792l-32 -101h790l-142 -435v-10q-114 0 -114 -65q-9 -60 63 -56v-297q-56 0 -110.5 7t-114.5 25.5t-104 48.5t-73.5 79.5t-29.5 112.5q0 84 48 145h-918l463 1434h1356z" glyph-name="Eogonek" horiz-adv-x="1452" unicode="Ę"/><glyph d="M1493 990h-795l-31 -97h796l-115 -347h-792l-32 -101h790l-142 -435v-10q-114 0 -114 -65q-9 -60 63 -56v-297q-56 0 -110.5 7t-114.5 25.5t-104 48.5t-73.5 79.5t-29.5 112.5q0 84 48 145h-918l463 1434h1356z" glyph-name="eogonek" horiz-adv-x="1452" unicode="ę"/><glyph d="M1280 1454h-705l-123 312h454l34 -121h58l87 121h492zM1493 990h-795l-31 -97h796l-115 -347h-792l-32 -101h790l-145 -445h-1350l463 1434h1356z" glyph-name="Ecaron" horiz-adv-x="1452" unicode="Ě"/><glyph d="M1280 1454h-705l-123 312h454l34 -121h58l87 121h492zM1493 990h-795l-31 -97h796l-115 -347h-792l-32 -101h790l-145 -445h-1350l463 1434h1356z" glyph-name="ecaron" horiz-adv-x="1452" unicode="ě"/><glyph d="M1087 1519q-67 0 -119 5t-101.5 18t-81 36t-55 57t-23 82.5t12.5 113.5h311q-19 -87 85 -87q108 0 128 87h307q-19 -94 -62 -158t-107 -96t-134.5 -45t-160.5 -13zM945 998q-164 0 -266 -108t-102 -248q0 -101 65.5 -154t163.5 -53q189 0 266 121h-273l85 261h826 l-263 -817h-266l41 162q-92 -97 -233.5 -153.5t-310.5 -56.5q-316 0 -488.5 154.5t-172.5 443.5q0 184 77 354.5t211 297.5t329 203t419 76q328 0 516.5 -175.5t147.5 -411.5h-565q-27 44 -81 74t-126 30z" glyph-name="Gbreve" horiz-adv-x="1715" unicode="Ğ"/><glyph d="M1087 1519q-67 0 -119 5t-101.5 18t-81 36t-55 57t-23 82.5t12.5 113.5h311q-19 -87 85 -87q108 0 128 87h307q-19 -94 -62 -158t-107 -96t-134.5 -45t-160.5 -13zM945 998q-164 0 -266 -108t-102 -248q0 -101 65.5 -154t163.5 -53q189 0 266 121h-273l85 261h826 l-263 -817h-266l41 162q-92 -97 -233.5 -153.5t-310.5 -56.5q-316 0 -488.5 154.5t-172.5 443.5q0 184 77 354.5t211 297.5t329 203t419 76q328 0 516.5 -175.5t147.5 -411.5h-565q-27 44 -81 74t-126 30z" glyph-name="gbreve" horiz-adv-x="1715" unicode="ğ"/><glyph d="M1085 1517q-68 0 -113 45.5t-45 110.5q0 82 68 145.5t150 63.5q68 0 112.5 -46t44.5 -109q0 -84 -67.5 -147t-149.5 -63zM945 998q-164 0 -266 -108t-102 -248q0 -101 65.5 -154t163.5 -53q189 0 266 121h-273l85 261h826l-263 -817h-266l41 162q-92 -97 -233.5 -153.5 t-310.5 -56.5q-316 0 -488.5 154.5t-172.5 443.5q0 184 77 354.5t211 297.5t329 203t419 76q328 0 516.5 -175.5t147.5 -411.5h-565q-27 44 -81 74t-126 30z" glyph-name="Gdotaccent" horiz-adv-x="1715" unicode="Ġ"/><glyph d="M1085 1517q-68 0 -113 45.5t-45 110.5q0 82 68 145.5t150 63.5q68 0 112.5 -46t44.5 -109q0 -84 -67.5 -147t-149.5 -63zM945 998q-164 0 -266 -108t-102 -248q0 -101 65.5 -154t163.5 -53q189 0 266 121h-273l85 261h826l-263 -817h-266l41 162q-92 -97 -233.5 -153.5 t-310.5 -56.5q-316 0 -488.5 154.5t-172.5 443.5q0 184 77 354.5t211 297.5t329 203t419 76q328 0 516.5 -175.5t147.5 -411.5h-565q-27 44 -81 74t-126 30z" glyph-name="gdotaccent" horiz-adv-x="1715" unicode="ġ"/><glyph d="M945 998q-164 0 -266 -108t-102 -248q0 -101 65.5 -154t163.5 -53q189 0 266 121h-273l85 261h826l-263 -817h-266l41 162q-92 -97 -233.5 -153.5t-310.5 -56.5q-316 0 -488.5 154.5t-172.5 443.5q0 184 77 354.5t211 297.5t329 203t419 76q328 0 516.5 -175.5 t147.5 -411.5h-565q-27 44 -81 74t-126 30zM406 -119h538l5 13q-181 -543 -369 -758h-252q79 174 128 352h-176z" glyph-name="Gcommaaccent" horiz-adv-x="1715" unicode="Ģ"/><glyph d="M945 998q-164 0 -266 -108t-102 -248q0 -101 65.5 -154t163.5 -53q189 0 266 121h-273l85 261h826l-263 -817h-266l41 162q-92 -97 -233.5 -153.5t-310.5 -56.5q-316 0 -488.5 154.5t-172.5 443.5q0 184 77 354.5t211 297.5t329 203t419 76q328 0 516.5 -175.5 t147.5 -411.5h-565q-27 44 -81 74t-126 30zM406 -119h538l5 13q-181 -543 -369 -758h-252q79 174 128 352h-176z" glyph-name="gcommaaccent" horiz-adv-x="1715" unicode="ģ"/><glyph d="M1289 1434h561l-461 -1434h-561l148 461h-444l-148 -461h-561l460 1434h562l-22 -70h443zM683 927h443l17 58h-443z" glyph-name="Hbar" horiz-adv-x="1672" unicode="Ħ"/><glyph d="M1289 1434h561l-461 -1434h-561l148 461h-444l-148 -461h-561l460 1434h562l-22 -70h443zM683 927h443l17 58h-443z" glyph-name="hbar" horiz-adv-x="1672" unicode="ħ"/><glyph d="M159 1526l133 403h853l-133 -403h-853zM-181 0l463 1434h559l-460 -1434h-562z" glyph-name="Imacron" horiz-adv-x="660" unicode="Ī"/><glyph d="M159 1526l133 403h853l-133 -403h-853zM-181 0l463 1434h559l-460 -1434h-562z" glyph-name="imacron" horiz-adv-x="660" unicode="ī"/><glyph d="M381 0q-114 0 -115 -65q-9 -60 63 -56v-297q-56 0 -110.5 7t-114.5 25.5t-104 48.5t-73 79.5t-29 112.5q0 84 47 145h-126l463 1434h559z" glyph-name="Iogonek" horiz-adv-x="660" unicode="Į"/><glyph d="M381 0q-114 0 -115 -65q-9 -60 63 -56v-297q-56 0 -110.5 7t-114.5 25.5t-104 48.5t-73 79.5t-29 112.5q0 84 47 145h-126l463 1434h559z" glyph-name="iogonek" horiz-adv-x="660" unicode="į"/><glyph d="M611 1517q-68 0 -113.5 45.5t-45.5 110.5q0 82 68.5 145.5t150.5 63.5q68 0 112.5 -46t44.5 -109q0 -84 -67.5 -147t-149.5 -63zM-181 0l463 1434h559l-460 -1434h-562z" glyph-name="Idotaccent" horiz-adv-x="660" unicode="İ"/><glyph d="M-181 0l463 1434h559l-460 -1434h-562z" glyph-name="dotlessi" horiz-adv-x="660" unicode="ı"/><glyph d="M-181 0l463 1434h559l-460 -1434h-562zM1205 -48q-137 0 -240 20.5t-181.5 69t-118.5 124t-40 188t46 259.5h556q-15 -46 -17 -81t6 -53t20.5 -32t28 -15.5t28.5 -5t21 0.5h4q130 0 186 169l269 838h562l-267 -828q-61 -193 -146.5 -322.5t-197 -201.5t-235.5 -101 t-284 -29z" glyph-name="IJ" horiz-adv-x="2152" unicode="Ĳ"/><glyph d="M1889 1434l-757 -651l469 -783h-558l-302 502h-50l-201 -161l-111 -341h-560l469 1434h559l-132 -401h70l469 401h635zM341 -119h538l5 13q-181 -543 -369 -758h-252q79 174 128 352h-176z" glyph-name="Kcommaaccent" horiz-adv-x="1773" unicode="Ķ"/><glyph d="M1889 1434l-757 -651l469 -783h-558l-302 502h-50l-201 -161l-111 -341h-560l469 1434h559l-132 -401h70l469 401h635zM341 -119h538l5 13q-181 -543 -369 -758h-252q79 174 128 352h-176z" glyph-name="kcommaaccent" horiz-adv-x="1773" unicode="ķ"/><glyph d="M319 1502l176 312h507l-176 -312h-507zM-181 0l466 1434h562l-318 -966h756l-148 -468h-1318z" glyph-name="Lacute" horiz-adv-x="1425" unicode="Ĺ"/><glyph d="M319 1502l176 312h507l-176 -312h-507zM-181 0l466 1434h562l-318 -966h756l-148 -468h-1318z" glyph-name="lacute" horiz-adv-x="1425" unicode="ĺ"/><glyph d="M-181 0l466 1434h562l-318 -966h756l-148 -468h-1318zM97 -864q79 174 128 352h-176l127 393h537l6 13q-181 -543 -369 -758h-253z" glyph-name="Lcommaaccent" horiz-adv-x="1425" unicode="Ļ"/><glyph d="M-181 0l466 1434h562l-318 -966h756l-148 -468h-1318zM97 -864q79 174 128 352h-176l127 393h537l6 13q-181 -543 -369 -758h-253z" glyph-name="lcommaaccent" horiz-adv-x="1425" unicode="ļ"/><glyph d="M857 550q97 218 152 418h-210l150 467h642l6 17q-217 -643 -440 -902h-300zM-181 0l466 1434h562l-318 -966h756l-148 -468h-1318z" glyph-name="Lcaron" horiz-adv-x="1425" unicode="Ľ"/><glyph d="M857 550q97 218 152 418h-210l150 467h642l6 17q-217 -643 -440 -902h-300zM-181 0l466 1434h562l-318 -966h756l-148 -468h-1318z" glyph-name="lcaron" horiz-adv-x="1425" unicode="ľ"/><glyph d="M-181 0l466 1434h562l-318 -966h756l-148 -468h-1318zM1162 637q-102 0 -165 63t-63 164q0 130 93 218.5t219 88.5q101 0 164 -63.5t63 -163.5q0 -130 -93 -218.5t-218 -88.5z" glyph-name="Ldot" horiz-adv-x="1425" unicode="Ŀ"/><glyph d="M601 468h756l-149 -468h-1317l85 263l-70 -38l34 388l183 99l234 722h561l-114 -350l223 123l-32 -388l-340 -186z" glyph-name="Lslash" horiz-adv-x="1496" unicode="Ł"/><glyph d="M601 468h756l-149 -468h-1317l85 263l-70 -38l34 388l183 99l234 722h561l-114 -350l223 123l-32 -388l-340 -186z" glyph-name="lslash" horiz-adv-x="1496" unicode="ł"/><glyph d="M840 1519l175 312h507l-175 -312h-507zM-181 0l469 1434h620l148 -666h58l221 666h546l-466 -1434h-606l-167 654h-58l-219 -654h-546z" glyph-name="Nacute" horiz-adv-x="1699" unicode="Ń"/><glyph d="M840 1519l175 312h507l-175 -312h-507zM-181 0l469 1434h620l148 -666h58l221 666h546l-466 -1434h-606l-167 654h-58l-219 -654h-546z" glyph-name="nacute" horiz-adv-x="1699" unicode="ń"/><glyph d="M-181 0l469 1434h620l148 -666h58l221 666h546l-466 -1434h-606l-167 654h-58l-219 -654h-546zM254 -864q79 174 128 352h-175l126 393h537l6 13q-181 -543 -369 -758h-253z" glyph-name="Ncommaaccent" horiz-adv-x="1699" unicode="Ņ"/><glyph d="M-181 0l469 1434h620l148 -666h58l221 666h546l-466 -1434h-606l-167 654h-58l-219 -654h-546zM254 -864q79 174 128 352h-175l126 393h537l6 13q-181 -543 -369 -758h-253z" glyph-name="ncommaaccent" horiz-adv-x="1699" unicode="ņ"/><glyph d="M1703 1766l-297 -312h-705l-122 312h454l34 -121h58l87 121h491zM-181 0l469 1434h620l148 -666h58l221 666h546l-466 -1434h-606l-167 654h-58l-219 -654h-546z" glyph-name="Ncaron" horiz-adv-x="1699" unicode="Ň"/><glyph d="M1703 1766l-297 -312h-705l-122 312h454l34 -121h58l87 121h491zM-181 0l469 1434h620l148 -666h58l221 666h546l-466 -1434h-606l-167 654h-58l-219 -654h-546z" glyph-name="ncaron" horiz-adv-x="1699" unicode="ň"/><glyph d="M1881 1434l-466 -1434l-9 -24q-84 -258 -287.5 -370.5t-534.5 -112.5l116 468q126 0 162 39h-53l-167 654h-58l-219 -654h-546l469 1434h620l148 -666h58l60 186h2l159 480h546z" glyph-name="Eng" horiz-adv-x="1699" unicode="Ŋ"/><glyph d="M1881 1434l-466 -1434l-9 -24q-84 -258 -287.5 -370.5t-534.5 -112.5l116 468q126 0 162 39h-53l-167 654h-58l-219 -654h-546l469 1434h620l148 -666h58l60 186h2l159 480h546z" glyph-name="eng" horiz-adv-x="1699" unicode="ŋ"/><glyph d="M701 1533l134 402h853l-133 -402h-854zM698 -48q-326 0 -504.5 159t-178.5 440q0 184 78 354t212.5 297t326 203t406.5 76q326 0 504 -158.5t178 -440.5q0 -184 -77.5 -354t-212.5 -297t-326 -203t-406 -76zM790 435q160 0 262.5 112t106.5 245q0 101 -62.5 153.5 t-151.5 52.5q-160 0 -263 -111.5t-107 -243.5q0 -101 63 -154.5t152 -53.5z" glyph-name="Omacron" horiz-adv-x="1733" unicode="Ō"/><glyph d="M701 1533l134 402h853l-133 -402h-854zM698 -48q-326 0 -504.5 159t-178.5 440q0 184 78 354t212.5 297t326 203t406.5 76q326 0 504 -158.5t178 -440.5q0 -184 -77.5 -354t-212.5 -297t-326 -203t-406 -76zM790 435q160 0 262.5 112t106.5 245q0 101 -62.5 153.5 t-151.5 52.5q-160 0 -263 -111.5t-107 -243.5q0 -101 63 -154.5t152 -53.5z" glyph-name="omacron" horiz-adv-x="1733" unicode="ō"/><glyph d="M609 1526l176 312h507l-176 -312h-507zM1171 1526l176 312h506l-175 -312h-507zM698 -48q-326 0 -504.5 159t-178.5 440q0 184 78 354t212.5 297t326 203t406.5 76q326 0 504 -158.5t178 -440.5q0 -184 -77.5 -354t-212.5 -297t-326 -203t-406 -76zM790 435 q160 0 262.5 112t106.5 245q0 101 -62.5 153.5t-151.5 52.5q-160 0 -263 -111.5t-107 -243.5q0 -101 63 -154.5t152 -53.5z" glyph-name="Ohungarumlaut" horiz-adv-x="1733" unicode="Ő"/><glyph d="M609 1526l176 312h507l-176 -312h-507zM1171 1526l176 312h506l-175 -312h-507zM698 -48q-326 0 -504.5 159t-178.5 440q0 184 78 354t212.5 297t326 203t406.5 76q326 0 504 -158.5t178 -440.5q0 -184 -77.5 -354t-212.5 -297t-326 -203t-406 -76zM790 435 q160 0 262.5 112t106.5 245q0 101 -62.5 153.5t-151.5 52.5q-160 0 -263 -111.5t-107 -243.5q0 -101 63 -154.5t152 -53.5z" glyph-name="ohungarumlaut" horiz-adv-x="1733" unicode="ő"/><glyph d="M2594 990h-795l-31 -97h795l-114 -347h-792l-32 -101h790l-145 -445h-1244q-159 -48 -328 -48q-326 0 -504.5 159t-178.5 440q0 184 78 354t212.5 297t326 203t406.5 76q196 0 341 -59l3 12h1357zM575 643q0 -101 63 -154.5t152 -53.5q160 0 262.5 112t106.5 245 q0 101 -62.5 153.5t-151.5 52.5q-160 0 -263.5 -112t-106.5 -243z" glyph-name="OE" horiz-adv-x="2553" unicode="Œ"/><glyph d="M2594 990h-795l-31 -97h795l-114 -347h-792l-32 -101h790l-145 -445h-1244q-159 -48 -328 -48q-326 0 -504.5 159t-178.5 440q0 184 78 354t212.5 297t326 203t406.5 76q196 0 341 -59l3 12h1357zM575 643q0 -101 63 -154.5t152 -53.5q160 0 262.5 112t106.5 245 q0 101 -62.5 153.5t-151.5 52.5q-160 0 -263.5 -112t-106.5 -243z" glyph-name="oe" horiz-adv-x="2553" unicode="œ"/><glyph d="M1476 1831l-176 -312h-506l175 312h507zM1630 995q0 -181 -87 -322t-232 -228l95 -445h-537l-67 331h-312l-106 -331h-561l460 1434h777q288 0 429 -108.5t141 -330.5zM695 969l-75 -232l281 2q49 0 102 34t53 99q0 55 -29.5 76t-98.5 21h-233z" glyph-name="Racute" horiz-adv-x="1634" unicode="Ŕ"/><glyph d="M1476 1831l-176 -312h-506l175 312h507zM1630 995q0 -181 -87 -322t-232 -228l95 -445h-537l-67 331h-312l-106 -331h-561l460 1434h777q288 0 429 -108.5t141 -330.5zM695 969l-75 -232l281 2q49 0 102 34t53 99q0 55 -29.5 76t-98.5 21h-233z" glyph-name="racute" horiz-adv-x="1634" unicode="ŕ"/><glyph d="M1630 995q0 -181 -87 -322t-232 -228l95 -445h-537l-67 331h-312l-106 -331h-561l460 1434h777q288 0 429 -108.5t141 -330.5zM695 969l-75 -232l281 2q49 0 102 34t53 99q0 55 -29.5 76t-98.5 21h-233zM287 -119h537l5 13q-181 -543 -368 -758h-253q79 174 128 352h-176 z" glyph-name="Rcommaaccent" horiz-adv-x="1634" unicode="Ŗ"/><glyph d="M1630 995q0 -181 -87 -322t-232 -228l95 -445h-537l-67 331h-312l-106 -331h-561l460 1434h777q288 0 429 -108.5t141 -330.5zM695 969l-75 -232l281 2q49 0 102 34t53 99q0 55 -29.5 76t-98.5 21h-233zM287 -119h537l5 13q-181 -543 -368 -758h-253q79 174 128 352h-176 z" glyph-name="rcommaaccent" horiz-adv-x="1634" unicode="ŗ"/><glyph d="M1360 1454h-705l-123 312h454l35 -121h58l87 121h491zM1060 1434q288 0 429 -108.5t141 -330.5q0 -181 -87 -322t-232 -228l95 -445h-537l-67 331h-312l-106 -331h-561l460 1434h777zM695 969l-75 -232l281 2q49 0 102 34t53 99q0 55 -29.5 76t-98.5 21h-233z" glyph-name="Rcaron" horiz-adv-x="1634" unicode="Ř"/><glyph d="M1360 1454h-705l-123 312h454l35 -121h58l87 121h491zM1060 1434q288 0 429 -108.5t141 -330.5q0 -181 -87 -322t-232 -228l95 -445h-537l-67 331h-312l-106 -331h-561l460 1434h777zM695 969l-75 -232l281 2q49 0 102 34t53 99q0 55 -29.5 76t-98.5 21h-233z" glyph-name="rcaron" horiz-adv-x="1634" unicode="ř"/><glyph d="M787 1519l176 312h506l-175 -312h-507zM580 -48q-147 0 -260 17t-205.5 55.5t-137 101.5t-54.5 155.5t39 216.5h477q-14 -61 51.5 -91t168.5 -30q256 0 256 86v1q0 10 -2.5 18t-12 21.5t-37.5 24t-73 13.5l-114 14q-543 43 -543 368q0 263 225.5 410.5t600.5 147.5 q237 0 399.5 -63t219.5 -183.5t-28 -295.5h-459q3 12 -0.5 25.5t-18 30.5t-36.5 30t-63 22t-92 9q-97 0 -154.5 -25.5t-57.5 -66.5q0 -55 99 -66l75 -11q26 -5 86.5 -12.5t101.5 -14.5t101.5 -20.5t101.5 -29.5t88 -43.5t76 -61t47.5 -82t18.5 -108.5q0 -157 -70 -269.5 t-197 -174.5t-278 -90.5t-339 -28.5z" glyph-name="Sacute" horiz-adv-x="1575" unicode="Ś"/><glyph d="M787 1519l176 312h506l-175 -312h-507zM580 -48q-147 0 -260 17t-205.5 55.5t-137 101.5t-54.5 155.5t39 216.5h477q-14 -61 51.5 -91t168.5 -30q256 0 256 86v1q0 10 -2.5 18t-12 21.5t-37.5 24t-73 13.5l-114 14q-543 43 -543 368q0 263 225.5 410.5t600.5 147.5 q237 0 399.5 -63t219.5 -183.5t-28 -295.5h-459q3 12 -0.5 25.5t-18 30.5t-36.5 30t-63 22t-92 9q-97 0 -154.5 -25.5t-57.5 -66.5q0 -55 99 -66l75 -11q26 -5 86.5 -12.5t101.5 -14.5t101.5 -20.5t101.5 -29.5t88 -43.5t76 -61t47.5 -82t18.5 -108.5q0 -157 -70 -269.5 t-197 -174.5t-278 -90.5t-339 -28.5z" glyph-name="sacute" horiz-adv-x="1575" unicode="ś"/><glyph d="M1550 939h-459q3 12 -0.5 25.5t-18 30.5t-36.5 30t-63 22t-92 9q-97 0 -154.5 -25.5t-57.5 -66.5q0 -55 99 -66l75 -11q26 -5 86.5 -12.5t101.5 -14.5t101.5 -20.5t101.5 -29.5t88 -43.5t76 -61t47.5 -82t18.5 -108.5q0 -154 -67.5 -265.5t-189.5 -173.5t-269.5 -92 t-329.5 -32l-12 -7q60 -15 98 -63t38 -128q0 -164 -162 -222t-374 12l58 186q63 -24 137.5 -22t74.5 38q0 14 -23 24t-67.5 11.5t-110.5 -11.5l29 100l128 87q-640 49 -460 541h477q-14 -61 51.5 -91t168.5 -30q256 0 256 86v1q0 10 -2.5 18t-12 21.5t-37.5 24t-73 13.5 l-114 14q-543 43 -543 368q0 263 225.5 410.5t600.5 147.5q237 0 399.5 -63t219.5 -183t-28 -296z" glyph-name="Scedilla" horiz-adv-x="1575" unicode="Ş"/><glyph d="M1550 939h-459q3 12 -0.5 25.5t-18 30.5t-36.5 30t-63 22t-92 9q-97 0 -154.5 -25.5t-57.5 -66.5q0 -55 99 -66l75 -11q26 -5 86.5 -12.5t101.5 -14.5t101.5 -20.5t101.5 -29.5t88 -43.5t76 -61t47.5 -82t18.5 -108.5q0 -154 -67.5 -265.5t-189.5 -173.5t-269.5 -92 t-329.5 -32l-12 -7q60 -15 98 -63t38 -128q0 -164 -162 -222t-374 12l58 186q63 -24 137.5 -22t74.5 38q0 14 -23 24t-67.5 11.5t-110.5 -11.5l29 100l128 87q-640 49 -460 541h477q-14 -61 51.5 -91t168.5 -30q256 0 256 86v1q0 10 -2.5 18t-12 21.5t-37.5 24t-73 13.5 l-114 14q-543 43 -543 368q0 263 225.5 410.5t600.5 147.5q237 0 399.5 -63t219.5 -183t-28 -296z" glyph-name="scedilla" horiz-adv-x="1575" unicode="ş"/><glyph d="M1237 1454q152 -32 243.5 -101.5t114.5 -173.5t-45 -240h-459q3 12 -0.5 25.5t-18 30.5t-36.5 30t-63 22t-92 9q-97 0 -154.5 -25.5t-57.5 -66.5q0 -55 99 -66l75 -11q26 -5 86.5 -12.5t101.5 -14.5t101.5 -20.5t101.5 -29.5t88 -43.5t76 -61t47.5 -82t18.5 -108.5 q0 -157 -70 -269.5t-197 -174.5t-278 -90.5t-339 -28.5q-147 0 -260 17t-205.5 55.5t-137 101.5t-54.5 155.5t39 216.5h477q-14 -61 51.5 -91t168.5 -30q256 0 256 86v1q0 10 -2.5 18t-12 21.5t-37.5 24t-73 13.5l-114 14q-543 43 -543 368q0 207 141.5 343.5t392.5 187.5 h-18l-123 312h454l34 -121h58l87 121h491l-297 -312h-116z" glyph-name="Scaron" horiz-adv-x="1575" unicode="Š"/><glyph d="M1237 1454q152 -32 243.5 -101.5t114.5 -173.5t-45 -240h-459q3 12 -0.5 25.5t-18 30.5t-36.5 30t-63 22t-92 9q-97 0 -154.5 -25.5t-57.5 -66.5q0 -55 99 -66l75 -11q26 -5 86.5 -12.5t101.5 -14.5t101.5 -20.5t101.5 -29.5t88 -43.5t76 -61t47.5 -82t18.5 -108.5 q0 -157 -70 -269.5t-197 -174.5t-278 -90.5t-339 -28.5q-147 0 -260 17t-205.5 55.5t-137 101.5t-54.5 155.5t39 216.5h477q-14 -61 51.5 -91t168.5 -30q256 0 256 86v1q0 10 -2.5 18t-12 21.5t-37.5 24t-73 13.5l-114 14q-543 43 -543 368q0 207 141.5 343.5t392.5 187.5 h-18l-123 312h454l34 -121h58l87 121h491l-297 -312h-116z" glyph-name="scaron" horiz-adv-x="1575" unicode="š"/><glyph d="M1826 1434l-152 -466h-490l-315 -968h-150l-101 -55q60 -15 98 -63t38 -128q0 -164 -162 -222t-374 12l58 186q63 -24 137.5 -22t74.5 38q0 14 -23 24t-67.5 11.5t-110.5 -11.5l29 100l189 130h-196l316 968h-502l150 466h1553z" glyph-name="Tcommaaccent" horiz-adv-x="1636" unicode="Ţ"/><glyph d="M1826 1434l-152 -466h-490l-315 -968h-150l-101 -55q60 -15 98 -63t38 -128q0 -164 -162 -222t-374 12l58 186q63 -24 137.5 -22t74.5 38q0 14 -23 24t-67.5 11.5t-110.5 -11.5l29 100l189 130h-196l316 968h-502l150 466h1553z" glyph-name="tcommaaccent" horiz-adv-x="1636" unicode="ţ"/><glyph d="M1376 1454h-705l-123 312h454l34 -121h58l87 121h492zM1826 1434l-152 -466h-490l-315 -968h-560l316 968h-502l150 466h1553z" glyph-name="Tcaron" horiz-adv-x="1636" unicode="Ť"/><glyph d="M1376 1454h-705l-123 312h454l34 -121h58l87 121h492zM1826 1434l-152 -466h-490l-315 -968h-560l316 968h-502l150 466h1553z" glyph-name="tcaron" horiz-adv-x="1636" unicode="ť"/><glyph d="M1674 968h-490l-37 -118h433l-153 -457h-430l-128 -393h-560l128 393h-415l154 457h411l38 118h-502l150 466h1553z" glyph-name="Tbar" horiz-adv-x="1636" unicode="Ŧ"/><glyph d="M1674 968h-490l-37 -118h433l-153 -457h-430l-128 -393h-560l128 393h-415l154 457h411l38 118h-502l150 466h1553z" glyph-name="tbar" horiz-adv-x="1636" unicode="ŧ"/><glyph d="M671 1526l133 403h853l-133 -403h-853zM664 -48q-425 0 -585.5 182t-44.5 533l254 767h569l-270 -808q-34 -99 2.5 -154.5t152.5 -55.5t182 61.5t114 203.5l244 753h570l-267 -816q-121 -367 -330 -516.5t-591 -149.5z" glyph-name="Umacron" horiz-adv-x="1670" unicode="Ū"/><glyph d="M671 1526l133 403h853l-133 -403h-853zM664 -48q-425 0 -585.5 182t-44.5 533l254 767h569l-270 -808q-34 -99 2.5 -154.5t152.5 -55.5t182 61.5t114 203.5l244 753h570l-267 -816q-121 -367 -330 -516.5t-591 -149.5z" glyph-name="umacron" horiz-adv-x="1670" unicode="ū"/><glyph d="M1125 1519q-67 0 -119 5t-101.5 18t-81 36t-55.5 57t-23 82.5t13 113.5h310q-19 -87 86 -87q108 0 128 87h307q-19 -94 -62.5 -158t-107.5 -96t-134 -45t-160 -13zM664 -48q-425 0 -585.5 182t-44.5 533l254 767h569l-270 -808q-34 -99 2.5 -154.5t152.5 -55.5t182 61.5 t114 203.5l244 753h570l-267 -816q-121 -367 -330 -516.5t-591 -149.5z" glyph-name="Ubreve" horiz-adv-x="1670" unicode="Ŭ"/><glyph d="M1125 1519q-67 0 -119 5t-101.5 18t-81 36t-55.5 57t-23 82.5t13 113.5h310q-19 -87 86 -87q108 0 128 87h307q-19 -94 -62.5 -158t-107.5 -96t-134 -45t-160 -13zM664 -48q-425 0 -585.5 182t-44.5 533l254 767h569l-270 -808q-34 -99 2.5 -154.5t152.5 -55.5t182 61.5 t114 203.5l244 753h570l-267 -816q-121 -367 -330 -516.5t-591 -149.5z" glyph-name="ubreve" horiz-adv-x="1670" unicode="ŭ"/><glyph d="M1053 1406q-99 0 -159.5 61.5t-60.5 157.5q0 135 90.5 219.5t211.5 84.5q97 0 156 -60t59 -156q0 -126 -87 -216.5t-210 -90.5zM1085 1626q24 0 38 15.5t14 39.5q0 12 -8.5 22t-25.5 10q-22 0 -37 -16t-15 -40q0 -10 8.5 -20.5t25.5 -10.5zM664 -48q-425 0 -585.5 182 t-44.5 533l254 767h569l-270 -808q-34 -99 2.5 -154.5t152.5 -55.5t182 61.5t114 203.5l244 753h570l-267 -816q-121 -367 -330 -516.5t-591 -149.5z" glyph-name="Uring" horiz-adv-x="1670" unicode="Ů"/><glyph d="M1053 1406q-99 0 -159.5 61.5t-60.5 157.5q0 135 90.5 219.5t211.5 84.5q97 0 156 -60t59 -156q0 -126 -87 -216.5t-210 -90.5zM1085 1626q24 0 38 15.5t14 39.5q0 12 -8.5 22t-25.5 10q-22 0 -37 -16t-15 -40q0 -10 8.5 -20.5t25.5 -10.5zM664 -48q-425 0 -585.5 182 t-44.5 533l254 767h569l-270 -808q-34 -99 2.5 -154.5t152.5 -55.5t182 61.5t114 203.5l244 753h570l-267 -816q-121 -367 -330 -516.5t-591 -149.5z" glyph-name="uring" horiz-adv-x="1670" unicode="ů"/><glyph d="M579 1519l175 312h507l-176 -312h-506zM1140 1519l176 312h507l-176 -312h-507zM664 -48q-425 0 -585.5 182t-44.5 533l254 767h569l-270 -808q-34 -99 2.5 -154.5t152.5 -55.5t182 61.5t114 203.5l244 753h570l-267 -816q-121 -367 -330 -516.5t-591 -149.5z" glyph-name="Uhungarumlaut" horiz-adv-x="1670" unicode="Ű"/><glyph d="M579 1519l175 312h507l-176 -312h-506zM1140 1519l176 312h507l-176 -312h-507zM664 -48q-425 0 -585.5 182t-44.5 533l254 767h569l-270 -808q-34 -99 2.5 -154.5t152.5 -55.5t182 61.5t114 203.5l244 753h570l-267 -816q-121 -367 -330 -516.5t-591 -149.5z" glyph-name="uhungarumlaut" horiz-adv-x="1670" unicode="ű"/><glyph d="M1282 1434h570l-267 -816q-106 -317 -274.5 -470t-452.5 -186v-1q-89 -5 -122 -14.5t-33 -28.5q0 -32 38 -37q10 -2 25 -2v-297q-72 0 -140 12t-137 40t-111 84.5t-42 133t45 126.5q-265 56 -353 230t6 459l254 767h569l-270 -808q-34 -99 2.5 -154.5t152.5 -55.5 t182 61.5t114 203.5z" glyph-name="Uogonek" horiz-adv-x="1670" unicode="Ų"/><glyph d="M1282 1434h570l-267 -816q-106 -317 -274.5 -470t-452.5 -186v-1q-89 -5 -122 -14.5t-33 -28.5q0 -32 38 -37q10 -2 25 -2v-297q-72 0 -140 12t-137 40t-111 84.5t-42 133t45 126.5q-265 56 -353 230t6 459l254 767h569l-270 -808q-34 -99 2.5 -154.5t152.5 -55.5 t182 61.5t114 203.5z" glyph-name="uogonek" horiz-adv-x="1670" unicode="ų"/><glyph d="M773 1519l297 312h705l123 -312h-454l-34 121h-58l-87 -121h-492zM39 0l215 1434h562l-166 -833h50l423 833h433l-105 -833h51l367 833h582l-714 -1434h-754l104 546h-48l-245 -546h-755z" glyph-name="Wcircumflex" horiz-adv-x="2249" unicode="Ŵ"/><glyph d="M773 1519l297 312h705l123 -312h-454l-34 121h-58l-87 -121h-492zM39 0l215 1434h562l-166 -833h50l423 833h433l-105 -833h51l367 833h582l-714 -1434h-754l104 546h-48l-245 -546h-755z" glyph-name="wcircumflex" horiz-adv-x="2249" unicode="ŵ"/><glyph d="M1068 1640l-87 -121h-491l297 312h705l123 -312h-454l-35 121h-58zM1920 1434l-898 -1002l-138 -432h-561l146 461l-245 973h564l98 -456h39l382 456h613z" glyph-name="Ycircumflex" horiz-adv-x="1696" unicode="Ŷ"/><glyph d="M1068 1640l-87 -121h-491l297 312h705l123 -312h-454l-35 121h-58zM1920 1434l-898 -1002l-138 -432h-561l146 461l-245 973h564l98 -456h39l382 456h613z" glyph-name="ycircumflex" horiz-adv-x="1696" unicode="ŷ"/><glyph d="M799 1517q-68 0 -113.5 45.5t-45.5 110.5q0 82 68.5 145.5t149.5 63.5q68 0 112.5 -46t44.5 -109q0 -84 -67 -147t-149 -63zM1367 1517q-68 0 -113.5 45.5t-45.5 110.5q0 82 68.5 145.5t150.5 63.5q68 0 112.5 -46t44.5 -109q0 -84 -67.5 -147t-149.5 -63zM1920 1434 l-898 -1002l-138 -432h-561l146 461l-245 973h564l98 -456h39l382 456h613z" glyph-name="Ydieresis" horiz-adv-x="1696" unicode="Ÿ"/><glyph d="M727 1519l176 312h507l-176 -312h-507zM-195 0l149 459l805 469l19 43h-648l153 463h1398l-150 -458l-806 -469l-18 -44h645l-154 -463h-1393z" glyph-name="Zacute" horiz-adv-x="1483" unicode="Ź"/><glyph d="M727 1519l176 312h507l-176 -312h-507zM-195 0l149 459l805 469l19 43h-648l153 463h1398l-150 -458l-806 -469l-18 -44h645l-154 -463h-1393z" glyph-name="zacute" horiz-adv-x="1483" unicode="ź"/><glyph d="M1026 1517q-68 0 -113.5 45.5t-45.5 110.5q0 82 68.5 145.5t149.5 63.5q68 0 112.5 -46t44.5 -109q0 -84 -67 -147t-149 -63zM-195 0l149 459l805 469l19 43h-648l153 463h1398l-150 -458l-806 -469l-18 -44h645l-154 -463h-1393z" glyph-name="Zdotaccent" horiz-adv-x="1483" unicode="Ż"/><glyph d="M1026 1517q-68 0 -113.5 45.5t-45.5 110.5q0 82 68.5 145.5t149.5 63.5q68 0 112.5 -46t44.5 -109q0 -84 -67 -147t-149 -63zM-195 0l149 459l805 469l19 43h-648l153 463h1398l-150 -458l-806 -469l-18 -44h645l-154 -463h-1393z" glyph-name="zdotaccent" horiz-adv-x="1483" unicode="ż"/><glyph d="M1591 1766l-297 -312h-705l-123 312h454l34 -121h58l87 121h492zM-195 0l149 459l805 469l19 43h-648l153 463h1398l-150 -458l-806 -469l-18 -44h645l-154 -463h-1393z" glyph-name="Zcaron" horiz-adv-x="1483" unicode="Ž"/><glyph d="M1591 1766l-297 -312h-705l-123 312h454l34 -121h58l87 121h492zM-195 0l149 459l805 469l19 43h-648l153 463h1398l-150 -458l-806 -469l-18 -44h645l-154 -463h-1393z" glyph-name="zcaron" horiz-adv-x="1483" unicode="ž"/><glyph d="M1208 1104q-65 0 -115 -30t-71 -88l-13 -42h348l-138 -423h-343l-33 -101q-75 -222 -257.5 -337t-409.5 -115q-229 0 -313 64l128 401q114 -41 186 -40q65 0 115.5 30.5t71.5 88.5l3 9h-338l138 423h333l43 133q75 222 256.5 337t410.5 115q227 0 312 -63l-128 -401 q-109 39 -186 39z" glyph-name="florin" horiz-adv-x="1365" unicode="ƒ"/><glyph d="M1463 1454h-705l-123 312h454l34 -121h58l87 121h492zM722 1434h790l46 -1434h-558l2 155h-541l-97 -155h-596zM720 567h289l5 343h-79z" glyph-name="uni01CD" unicode="Ǎ"/><glyph d="M1463 1454h-705l-123 312h454l34 -121h58l87 121h492zM722 1434h790l46 -1434h-558l2 155h-541l-97 -155h-596zM720 567h289l5 343h-79z" glyph-name="uni01CE" unicode="ǎ"/><glyph d="M1176 1766l-297 -312h-705l-123 312h454l34 -121h58l87 121h492zM-181 0l463 1434h559l-460 -1434h-562z" glyph-name="uni01CF" horiz-adv-x="660" unicode="Ǐ"/><glyph d="M1176 1766l-297 -312h-705l-123 312h454l34 -121h58l87 121h492zM-181 0l463 1434h559l-460 -1434h-562z" glyph-name="uni01D0" horiz-adv-x="660" unicode="ǐ"/><glyph d="M1249 1461q227 -48 349 -198t122 -381q0 -184 -77.5 -354t-212.5 -297t-326 -203t-406 -76q-326 0 -504.5 159t-178.5 440q0 328 226.5 585t579.5 325h-104l-123 312h454l34 -121h58l87 121h492l-297 -312h-173zM790 435q160 0 262.5 112t106.5 245q0 101 -62.5 153.5 t-151.5 52.5q-160 0 -263 -111.5t-107 -243.5q0 -101 63 -154.5t152 -53.5z" glyph-name="uni01D1" horiz-adv-x="1733" unicode="Ǒ"/><glyph d="M1249 1461q227 -48 349 -198t122 -381q0 -184 -77.5 -354t-212.5 -297t-326 -203t-406 -76q-326 0 -504.5 159t-178.5 440q0 328 226.5 585t579.5 325h-104l-123 312h454l34 -121h58l87 121h492l-297 -312h-173zM790 435q160 0 262.5 112t106.5 245q0 101 -62.5 153.5 t-151.5 52.5q-160 0 -263 -111.5t-107 -243.5q0 -101 63 -154.5t152 -53.5z" glyph-name="uni01D2" horiz-adv-x="1733" unicode="ǒ"/><glyph d="M1688 1766l-297 -312h-705l-123 312h454l34 -121h58l87 121h492zM664 -48q-425 0 -585.5 182t-44.5 533l254 767h569l-270 -808q-34 -99 2.5 -154.5t152.5 -55.5t182 61.5t114 203.5l244 753h570l-267 -816q-121 -367 -330 -516.5t-591 -149.5z" glyph-name="uni01D3" horiz-adv-x="1670" unicode="Ǔ"/><glyph d="M1688 1766l-297 -312h-705l-123 312h454l34 -121h58l87 121h492zM664 -48q-425 0 -585.5 182t-44.5 533l254 767h569l-270 -808q-34 -99 2.5 -154.5t152.5 -55.5t182 61.5t114 203.5l244 753h570l-267 -816q-121 -367 -330 -516.5t-591 -149.5z" glyph-name="uni01D4" horiz-adv-x="1670" unicode="ǔ"/><glyph d="M823 -41q-3 -9 -4 -20q-9 -60 63 -57v-297q-56 0 -110.5 7t-114.5 25.5t-104 48.5t-73 79.5t-29 112.5q0 65 27 116q-224 48 -343.5 198.5t-119.5 378.5q0 184 78 354t212.5 297t326 203t406.5 76q326 0 504 -158.5t178 -440.5q0 -229 -114 -430t-320.5 -333.5 t-462.5 -159.5zM945 998q-160 0 -263 -111.5t-107 -243.5q0 -101 63 -154.5t152 -53.5q160 0 262.5 112t106.5 245q0 101 -62.5 153.5t-151.5 52.5z" glyph-name="uni01EA" horiz-adv-x="1733" unicode="Ǫ"/><glyph d="M580 -48q-147 0 -260 17t-205.5 55.5t-137 101.5t-54.5 155.5t39 216.5h477q-14 -61 51.5 -91t168.5 -30q256 0 256 86v1q0 10 -2.5 18t-12 21.5t-37.5 24t-73 13.5l-114 14q-543 43 -543 368q0 263 225.5 410.5t600.5 147.5q237 0 399.5 -63t219.5 -183.5t-28 -295.5 h-459q3 12 -0.5 25.5t-18 30.5t-36.5 30t-63 22t-92 9q-97 0 -154.5 -25.5t-57.5 -66.5q0 -55 99 -66l75 -11q26 -5 86.5 -12.5t101.5 -14.5t101.5 -20.5t101.5 -29.5t88 -43.5t76 -61t47.5 -82t18.5 -108.5q0 -157 -70 -269.5t-197 -174.5t-278 -90.5t-339 -28.5zM201 -864 q79 174 128 352h-175l126 393h537l6 13q-181 -543 -369 -758h-253z" glyph-name="Scommaaccent" horiz-adv-x="1575" unicode="Ș"/><glyph d="M580 -48q-147 0 -260 17t-205.5 55.5t-137 101.5t-54.5 155.5t39 216.5h477q-14 -61 51.5 -91t168.5 -30q256 0 256 86v1q0 10 -2.5 18t-12 21.5t-37.5 24t-73 13.5l-114 14q-543 43 -543 368q0 263 225.5 410.5t600.5 147.5q237 0 399.5 -63t219.5 -183.5t-28 -295.5 h-459q3 12 -0.5 25.5t-18 30.5t-36.5 30t-63 22t-92 9q-97 0 -154.5 -25.5t-57.5 -66.5q0 -55 99 -66l75 -11q26 -5 86.5 -12.5t101.5 -14.5t101.5 -20.5t101.5 -29.5t88 -43.5t76 -61t47.5 -82t18.5 -108.5q0 -157 -70 -269.5t-197 -174.5t-278 -90.5t-339 -28.5zM201 -864 q79 174 128 352h-175l126 393h537l6 13q-181 -543 -369 -758h-253z" glyph-name="scommaaccent" horiz-adv-x="1575" unicode="ș"/><glyph d="M1826 1434l-152 -466h-490l-315 -968h-560l316 968h-502l150 466h1553zM302 -119h538l5 13q-181 -543 -369 -758h-252q79 174 128 352h-176z" glyph-name="uni021A" horiz-adv-x="1636" unicode="Ț"/><glyph d="M1826 1434l-152 -466h-490l-315 -968h-560l316 968h-502l150 466h1553zM302 -119h538l5 13q-181 -543 -369 -758h-252q79 174 128 352h-176z" glyph-name="uni021B" horiz-adv-x="1636" unicode="ț"/><glyph d="M143 1161l297 312h705l123 -312h-454l-34 121h-58l-87 -121h-492z" glyph-name="circumflex" horiz-adv-x="1124" unicode="ˆ"/><glyph d="M1350 1408l-297 -312h-705l-123 312h454l34 -121h58l87 121h492z" glyph-name="caron" horiz-adv-x="1124" unicode="ˇ"/><glyph d="M609 1161q-67 0 -118.5 5t-101 17.5t-81.5 35.5t-55.5 57.5t-23 83t12.5 113.5h311q-19 -87 85 -87q108 0 128 87h307q-19 -94 -62 -158t-107 -96.5t-134.5 -45t-160.5 -12.5z" glyph-name="breve" horiz-adv-x="831" unicode="˘"/><glyph d="M362 1159q-68 0 -113.5 45t-45.5 110q0 82 68.5 146t150.5 64q68 0 112.5 -46t44.5 -109q0 -84 -67.5 -147t-149.5 -63z" glyph-name="dotaccent" horiz-adv-x="375" unicode="˙"/><glyph d="M416 1048q-99 0 -159.5 61.5t-60.5 156.5q0 135 90.5 219.5t211.5 84.5q97 0 156 -59.5t59 -155.5q0 -126 -87 -216.5t-210 -90.5zM449 1268q24 0 37.5 15.5t13.5 39.5q0 12 -8.5 22t-25.5 10q-22 0 -36.5 -16t-14.5 -40q0 -10 8.5 -20.5t25.5 -10.5z" glyph-name="ring" horiz-adv-x="520" unicode="˚"/><glyph d="M166 -418q-56 0 -111 7t-114.5 25.5t-104 48.5t-73.5 79.5t-29 112.5t24.5 111t68 76t91.5 47t104.5 26.5t98 10t80.5 4.5h16v-130q-114 0 -115 -65q-9 -60 64 -56v-297z" glyph-name="ogonek" horiz-adv-x="532" unicode="˛"/><glyph d="M806 1159q-84 0 -200 44.5t-167 44.5q-43 0 -74.5 -18t-35.5 -52h-136q-29 155 56.5 235t206.5 80q84 0 199.5 -44t167.5 -44q44 0 75.5 17.5t33.5 52.5h138q29 -157 -55 -236.5t-209 -79.5z" glyph-name="tilde" horiz-adv-x="866" unicode="˜"/><glyph d="M143 1161l176 312h507l-176 -312h-507zM705 1161l176 312h507l-176 -312h-507z" glyph-name="hungarumlaut" horiz-adv-x="1145" unicode="˝"/><glyph d="M-916 -864q79 174 128 352h-176l126 393h538l5 13q-181 -543 -369 -758h-252z" glyph-name="uni0326" horiz-adv-x="0" unicode="̦"/><glyph d="M1493 1434l46 -1434h-1771l954 1434h771zM655 447h338l7 461h-61z" glyph-name="Delta" horiz-adv-x="1745" unicode="Δ"/><glyph d="M1340 510l-29 -82h193l-140 -428h-1571l139 428h206l16 57q-34 34 -57.5 94.5t-23.5 118.5q0 224 137.5 406.5t352.5 279.5t454 97q300 0 466 -125t166 -317q0 -148 -84.5 -295t-224.5 -234zM739 551q133 20 233 117t100 213q0 55 -36 86t-135 31q-118 0 -206.5 -75.5 t-88.5 -181.5q0 -137 133 -190z" glyph-name="Omega" horiz-adv-x="1621" unicode="Ω"/><glyph d="M1015 1161h562l-376 -1161h-552l39 147h-45q-119 -138 -271 -169l-75 -234h-562l460 1417h561l-205 -630h2q-41 -121 34 -142q7 -2 14 -2q70 0 129.5 49.5t88.5 116.5z" glyph-name="mu" horiz-adv-x="1484" unicode="μ"/><glyph d="M1556 771l-90 -274q-5 -17 -5 -26.5t4 -13t8.5 -3.5t14 1t14.5 1q27 0 53.5 4t33.5 6t19 -3l-89 -402q-39 -36 -100.5 -53.5t-98.5 -19.5t-103 -2q-215 0 -311.5 107.5t-19.5 341.5l109 336h-227l-251 -771h-561l251 771h-135l123 390h1621l-123 -390h-137z" glyph-name="pi" horiz-adv-x="1781" unicode="π"/><glyph d="M1618 1519h-507l-176 312h507zM39 0l215 1434h562l-166 -833h50l423 833h433l-105 -833h51l367 833h582l-714 -1434h-754l104 546h-48l-245 -546h-755z" glyph-name="Wgrave" horiz-adv-x="2249" unicode="Ẁ"/><glyph d="M1618 1519h-507l-176 312h507zM39 0l215 1434h562l-166 -833h50l423 833h433l-105 -833h51l367 833h582l-714 -1434h-754l104 546h-48l-245 -546h-755z" glyph-name="wgrave" horiz-adv-x="2249" unicode="ẁ"/><glyph d="M1106 1519l176 312h507l-176 -312h-507zM39 0l215 1434h562l-166 -833h50l423 833h433l-105 -833h51l367 833h582l-714 -1434h-754l104 546h-48l-245 -546h-755z" glyph-name="Wacute" horiz-adv-x="2249" unicode="Ẃ"/><glyph d="M1106 1519l176 312h507l-176 -312h-507zM39 0l215 1434h562l-166 -833h50l423 833h433l-105 -833h51l367 833h582l-714 -1434h-754l104 546h-48l-245 -546h-755z" glyph-name="wacute" horiz-adv-x="2249" unicode="ẃ"/><glyph d="M1082 1517q-68 0 -113.5 45.5t-45.5 110.5q0 82 68.5 145.5t150.5 63.5q68 0 112.5 -46t44.5 -109q0 -84 -67.5 -147t-149.5 -63zM1650 1517q-68 0 -113 45.5t-45 110.5q0 82 68 145.5t150 63.5q68 0 112.5 -46t44.5 -109q0 -84 -67.5 -147t-149.5 -63zM39 0l215 1434 h562l-166 -833h50l423 833h433l-105 -833h51l367 833h582l-714 -1434h-754l104 546h-48l-245 -546h-755z" glyph-name="Wdieresis" horiz-adv-x="2249" unicode="Ẅ"/><glyph d="M1082 1517q-68 0 -113.5 45.5t-45.5 110.5q0 82 68.5 145.5t150.5 63.5q68 0 112.5 -46t44.5 -109q0 -84 -67.5 -147t-149.5 -63zM1650 1517q-68 0 -113 45.5t-45 110.5q0 82 68 145.5t150 63.5q68 0 112.5 -46t44.5 -109q0 -84 -67.5 -147t-149.5 -63zM39 0l215 1434 h562l-166 -833h50l423 833h433l-105 -833h51l367 833h582l-714 -1434h-754l104 546h-48l-245 -546h-755z" glyph-name="wdieresis" horiz-adv-x="2249" unicode="ẅ"/><glyph d="M1396 819q159 3 254.5 -74.5t95.5 -198.5q0 -280 -196.5 -432t-513.5 -152q-324 0 -425.5 116.5t-26.5 308.5h455q-5 -68 87 -68q41 0 71 28t30 71q0 75 -84 75q-46 0 -78 -32l-10 -10h-453l442 517h-189q-58 0 -119.5 -45.5t-86.5 -134.5l-256 -788h-570l312 975 q39 123 89.5 206.5t106 133.5t137.5 76.5t162 34.5t205 8h1129z" glyph-name="uni1E9E" horiz-adv-x="1858" unicode="ẞ"/><glyph d="M1335 1519h-507l-176 312h507zM1920 1434l-898 -1002l-138 -432h-561l146 461l-245 973h564l98 -456h39l382 456h613z" glyph-name="Ygrave" horiz-adv-x="1696" unicode="Ỳ"/><glyph d="M1335 1519h-507l-176 312h507zM1920 1434l-898 -1002l-138 -432h-561l146 461l-245 973h564l98 -456h39l382 456h613z" glyph-name="ygrave" horiz-adv-x="1696" unicode="ỳ"/><glyph d="M-22 442l152 468h1399l-152 -468h-1399z" glyph-name="endash" horiz-adv-x="1536" unicode="–"/><glyph d="M-22 442l152 468h1536l-152 -468h-1536z" glyph-name="emdash" horiz-adv-x="1672" unicode="—"/><glyph d="M766 1437q-97 -218 -152 -418h210l-150 -468h-642l-6 -17q217 643 440 903h300z" glyph-name="quoteleft" horiz-adv-x="814" unicode="‘"/><glyph d="M224 550q97 218 151 418h-209l150 467h641l7 17q-217 -643 -440 -902h-300z" glyph-name="quoteright" horiz-adv-x="810" unicode="’"/><glyph d="M-89 -418q97 218 152 418h-210l150 468h642l7 17q-217 -643 -440 -903h-301z" glyph-name="quotesinglbase" horiz-adv-x="810" unicode="‚"/><glyph d="M695 1437q-87 -220 -135 -418h186l-133 -468h-565l-5 -17q191 649 387 903h265zM1367 1437q-87 -220 -135 -418h186l-133 -468h-565l-5 -17q191 649 388 903h264z" glyph-name="quotedblleft" horiz-adv-x="1421" unicode="“"/><glyph d="M234 550q87 220 135 418h-186l133 467h565l5 17q-191 -649 -388 -902h-264zM906 550q87 220 135 418h-186l133 467h565l5 17q-191 -649 -387 -902h-265z" glyph-name="quotedblright" horiz-adv-x="1418" unicode="”"/><glyph d="M-108 -505q87 220 135 418h-186l133 468h565l5 17q-191 -649 -387 -903h-265zM565 -505q87 220 135 418h-186l133 468h565l5 17q-191 -649 -388 -903h-264z" glyph-name="quotedblbase" horiz-adv-x="1425" unicode="„"/><glyph d="M1473 1191l-145 -450h-376l-121 -369h-491l121 369h-365l145 450h367l121 371h493l-121 -371h372z" glyph-name="dagger" horiz-adv-x="1408" unicode="†"/><glyph d="M1328 741h-371l-66 -203h372l-145 -451h-376l-121 -369h-491l121 369h-365l145 451h363l67 203h-365l145 450h367l121 371h493l-121 -371h372z" glyph-name="daggerdbl" horiz-adv-x="1408" unicode="‡"/><glyph d="M486 314q-145 0 -232 89.5t-87 226.5q0 198 152 344.5t338 146.5q145 0 233 -89.5t88 -227.5q0 -198 -152 -344t-340 -146z" glyph-name="bullet" horiz-adv-x="1145" unicode="•"/><glyph d="M133 -27q-102 0 -165.5 63t-63.5 164q0 130 93 218.5t220 88.5q101 0 164 -63t63 -164q0 -130 -93 -218.5t-218 -88.5zM819 -27q-102 0 -165 63t-63 164q0 130 93 218.5t219 88.5q101 0 164 -63t63 -164q0 -130 -93 -218.5t-218 -88.5zM1505 -27q-102 0 -165 63t-63 164 q0 130 93 218.5t219 88.5q101 0 164 -63t63 -164q0 -130 -93 -218.5t-218 -88.5z" glyph-name="ellipsis" horiz-adv-x="2020" unicode="…"/><glyph d="M471 -48l-196 150l1360 1391l193 -150zM527 660q-154 0 -246 78t-92 223q0 191 148 342t354 151q150 0 244 -78.5t94 -226.5q0 -198 -144.5 -343.5t-357.5 -145.5zM592 975q39 0 68 29.5t29 68.5q0 67 -64 67q-36 0 -66 -30t-30 -69q0 -66 63 -66zM1417 -20 q-154 0 -246 77.5t-92 224.5q0 191 146.5 342t354.5 151q148 0 243 -79.5t95 -226.5q0 -198 -144.5 -343.5t-356.5 -145.5zM2294 -20q-154 0 -246 77.5t-92 224.5q0 189 147.5 341t354.5 152q150 0 244 -79.5t94 -226.5q0 -198 -144.5 -343.5t-357.5 -145.5zM1480 295 q39 0 69 30t30 69q0 65 -65 65q-38 0 -67 -30t-29 -69q1 -65 62 -65zM2359 295q39 0 68 30t29 69q0 65 -65 65q-36 0 -66 -30t-30 -69q1 -65 64 -65z" glyph-name="perthousand" horiz-adv-x="2986" unicode="‰"/><glyph d="M1205 1246l-505 -526l187 -532h-604l-181 532l511 526h592z" glyph-name="guilsinglleft" horiz-adv-x="1158" unicode="‹"/><glyph d="M-46 188l505 525l-188 533h605l180 -533l-510 -525h-592z" glyph-name="guilsinglright" horiz-adv-x="1158" unicode="›"/><glyph d="M1724 797h-514q2 94 -53.5 147.5t-151.5 53.5q-148 0 -246 -100h255l-57 -169h-293q-7 -39 -9 -55h284l-57 -171h-181q61 -68 171 -68q203 0 302 195h512q-44 -157 -126 -280t-176 -196.5t-206.5 -120.5t-210.5 -64t-197 -17q-295 0 -462.5 145t-184.5 406h-166l57 171 h114l9 55h-103l55 169h99q108 258 352.5 420.5t567.5 162.5q224 0 385.5 -94.5t223.5 -252.5t7 -337z" glyph-name="Euro" horiz-adv-x="1740" unicode="€"/><glyph d="M1729 672q-143 0 -224.5 79.5t-81.5 216.5q0 196 142.5 336t345.5 140q142 0 224 -81t82 -216q0 -195 -142.5 -335t-345.5 -140zM-181 0l464 1434h482l-28 -553h48l178 553h503l-464 -1434h-481l23 555h-46l-175 -555h-504zM1794 961q55 0 89 37.5t34 78.5q0 75 -72 75 q-55 0 -90.5 -38.5t-35.5 -80.5q0 -72 75 -72zM1135 3l143 441h680l-144 -441h-679z" glyph-name="afii61352" horiz-adv-x="2126" unicode="№"/><glyph d="M1365 1434h323l-213 -659h-222l112 350h-22l-155 -350h-215l77 350h-35l-112 -350h-220l148 457h-167l-147 -457h-247l148 457h-210l67 202h940l-80 -424h36z" glyph-name="trademark" horiz-adv-x="1498" unicode="™"/><glyph d="M992 1471q360 0 476 -193t-12 -544q-41 -123 -91.5 -223.5t-132.5 -206.5t-182.5 -177.5t-245.5 -118t-318 -46.5q-539 0 -539 347q0 270 231.5 425t586.5 155q145 0 218 -22q111 193 -131 193q-65 0 -130 -19.5t-89 -67.5h-452q77 249 291.5 373.5t519.5 124.5zM625 370 q102 0 166 35t64 95q0 82 -145 82q-101 0 -166.5 -32.5t-65.5 -88.5q0 -91 147 -91z" glyph-name="partialdiff" horiz-adv-x="1503" unicode="∂"/><glyph d="M1495 1536l-150 -466h-2l-430 -1326h-561l430 1326h-55l-430 -1326h-562l497 1531h2l83 261h1178z" glyph-name="product" horiz-adv-x="1280" unicode="∏"/><glyph d="M-258 -256l142 468l677 413l-377 445l142 466h1133l-148 -466h-529l370 -420l-3 -49l-630 -389h508l-150 -468h-1135z" glyph-name="summation" horiz-adv-x="1244" unicode="∑"/><glyph d="M9 485l153 467h1147l-154 -467h-1146z" glyph-name="minus" horiz-adv-x="1317" unicode="−"/><glyph d="M157 -256l43 674h-212l150 466h509l-45 -625h40l606 1277h450l-904 -1792h-637z" glyph-name="radical" horiz-adv-x="1517" unicode="√"/><glyph d="M1213 1092q239 0 239 -228q0 -200 -148.5 -362t-347.5 -162q-108 0 -168.5 46.5t-99.5 132.5q-99 -87 -191.5 -133t-197.5 -46q-246 0 -246 227q0 200 152 362.5t351 162.5q106 0 166 -47t99 -135q206 182 392 182zM454 654h10h13t16 1.5t23 6.5t26.5 12t34.5 20t39 28 q-26 31 -49.5 46t-33 16t-31.5 1q-36 0 -66 -27.5t-30 -57.5q0 -20 14 -33t34 -13zM1010 654q36 0 65 26.5t29 56.5q0 19 -12.5 33.5t-33.5 14.5q-68 0 -159 -63q10 -17 19.5 -29t20 -19t16.5 -12t16 -6.5t13.5 -1.5h13.5h12z" glyph-name="infinity" horiz-adv-x="1508" unicode="∞"/><glyph d="M79 -256q-227 0 -313 63l128 401q109 -39 186 -39q65 0 115.5 30t70.5 88l251 790q49 157 155 261t234 147.5t278 43.5q227 0 313 -63l-128 -401q-109 39 -186 39q-147 0 -186 -118l-251 -790q-70 -222 -254 -337t-413 -115z" glyph-name="integral" horiz-adv-x="1314" unicode="∫"/><glyph d="M836 736q-89 3 -209 57.5t-190 54.5q-123 0 -167 -104h-173q24 137 107.5 234t184.5 138t208 41q87 0 207.5 -55.5t187.5 -57.5q130 9 172 105h172q-24 -137 -109 -233.5t-185 -136.5t-206 -43zM689 273q-89 3 -209 58t-190 55q-123 0 -167 -104h-172q24 137 107.5 234 t184 138t208.5 41q87 0 207 -55.5t187 -57.5q130 9 172 104h173q-24 -137 -109.5 -233t-185.5 -136.5t-206 -43.5z" glyph-name="approxequal" horiz-adv-x="1286" unicode="≈"/><glyph d="M1522 1468l-191 -237h68l-153 -466h-292l-75 -93h340l-154 -465h-562l-122 -152h-586l123 152l154 465h223l75 93h-271l154 466h495l191 237h583z" glyph-name="notequal" horiz-adv-x="1317" unicode="≠"/><glyph d="M1183 556l-1035 342l195 599l1273 351l-155 -469l-753 -148l-17 -50l649 -148zM-150 0l153 468h1147l-153 -468h-1147z" glyph-name="lessequal" horiz-adv-x="1317" unicode="≤"/><glyph d="M445 1831l992 -341l-186 -599l-1220 -352l148 470l722 148l15 50l-621 148zM-157 0l154 468h1146l-153 -468h-1147z" glyph-name="greaterequal" horiz-adv-x="1310" unicode="≥"/><glyph d="M188 0q-14 0 -26 20.5t-5 32.5l-72 664l507 720q5 7 5 3q2 -7 12 -6h569q15 0 27 -20t5 -32l70 -665l-507 -720l-2 -4l-1 -2q-2 9 -14 9h-568zM567 386l259 334l-27 330l-260 -337z" glyph-name="lozenge" horiz-adv-x="1365" unicode="◊"/><glyph d="M945 998q-164 0 -266 -108t-102 -248q0 -101 65.5 -154t163.5 -53q193 0 276 121h-283l85 261h811q-32 -224 -122 -391.5t-225.5 -270t-303 -153t-365.5 -50.5q-314 0 -488 161.5t-174 447.5q0 181 77 348.5t211 293.5t329 202t419 76q328 0 514 -175.5t141 -411.5h-565 q-24 44 -75 74t-123 30z" glyph-name="G.aalt" horiz-adv-x="1722"/><glyph d="M611 1517q-68 0 -113.5 45.5t-45.5 110.5q0 82 68.5 145.5t150.5 63.5q68 0 112.5 -46t44.5 -109q0 -84 -67.5 -147t-149.5 -63zM-181 0l463 1434h559l-460 -1434h-562z" glyph-name="i.aalt" horiz-adv-x="660"/><glyph d="M945 998q-164 0 -266 -108t-102 -248q0 -101 65.5 -154t163.5 -53q193 0 276 121h-283l85 261h811q-32 -224 -122 -391.5t-225.5 -270t-303 -153t-365.5 -50.5q-314 0 -488 161.5t-174 447.5q0 181 77 348.5t211 293.5t329 202t419 76q328 0 514 -175.5t141 -411.5h-565 q-24 44 -75 74t-123 30z" glyph-name="g.aalt" horiz-adv-x="1722"/></font>
</defs>
</svg>
