<?xml version="1.0" standalone="no"?>
<!DOCTYPE svg PUBLIC "-//W3C//DTD SVG 1.1//EN" "http://www.w3.org/Graphics/SVG/1.1/DTD/svg11.dtd">
<svg xmlns="http://www.w3.org/2000/svg"><metadata>This SVG WebFont was generated by YouWorkForThem.
Â© 2017 Connary Fagen</metadata><defs><font horiz-adv-x="1629" id="ywftsvg"><font-face ascent="1638" bbox="-787 -748 2749 1859" cap-height="1434" descent="-410" font-family="" font-stretch="normal" font-weight="500" panose-1="0 0 6 0 0 0 0 0 0 0" underline-position="0" underline-thickness="0" unicode-range="U+0020-25CA" units-per-em="2048" x-height="1434"/><missing-glyph d="M736 1536v-1792h-569v1792h569zM597 1417h-297v-60h118v-67h-119v-58h298v58h-119v67h119v60zM478 1184h-179v-186h298v62h-119v124zM418 1125v-65h-60v65h60zM597 951h-298v-60h119v-67h-119v-58h179v125h119v60zM597 843h-59v-119h-239v-60h298v179zM597 625h-179v-101 h60v41h60v-84h-180v144h-59v-203h298v203zM597 314h-298v-203h298v203zM538 254v-83h-180v83h180zM597 70h-298v-60h126l-126 -83v-60h298v60h-182l124 83h58v60z" horiz-adv-x="896"/><glyph d="M736 1536v-1792h-569v1792h569zM597 1417h-297v-60h118v-67h-119v-58h298v58h-119v67h119v60zM478 1184h-179v-186h298v62h-119v124zM418 1125v-65h-60v65h60zM597 951h-298v-60h119v-67h-119v-58h179v125h119v60zM597 843h-59v-119h-239v-60h298v179zM597 625h-179v-101 h60v41h60v-84h-180v144h-59v-203h298v203zM597 314h-298v-203h298v203zM538 254v-83h-180v83h180zM597 70h-298v-60h126l-126 -83v-60h298v60h-182l124 83h58v60z" glyph-name=".notdef" horiz-adv-x="896"/><glyph glyph-name="glyph1" horiz-adv-x="0"/><glyph glyph-name="glyph2" horiz-adv-x="682"/><glyph glyph-name="space" horiz-adv-x="435" unicode=" "/><glyph d="M58 512l241 922h397l-397 -922h-241zM60 -27q-77 0 -124 47t-47 122q0 96 67.5 160.5t161.5 64.5q75 0 122 -47t47 -122q0 -94 -67.5 -159.5t-159.5 -65.5z" glyph-name="exclam" horiz-adv-x="530" unicode="!"/><glyph d="M147 824l170 610h340l-227 -610h-283zM580 824l171 610h340l-227 -610h-284z" glyph-name="quotedbl" horiz-adv-x="943" unicode="&quot;"/><glyph d="M1376 852h-180l-82 -251h180l-94 -290h-179l-101 -311h-328l101 311h-256l-101 -311h-329l101 311h-180l94 290h179l82 251h-179l87 273h179l101 309h329l-100 -309h256l100 309h328l-101 -309h180zM787 601l82 251h-256l-82 -251h256z" glyph-name="numbersign" horiz-adv-x="1390" unicode="#"/><glyph d="M1299 939h-331q34 142 -116 162l-89 -275q75 -14 121 -23t115 -33t108.5 -54t69.5 -80.5t30 -114.5q0 -130 -95 -230t-248.5 -154.5t-344.5 -64.5l-34 -104h-139l35 104q-246 12 -357 116t-46 305h339q-43 -138 149 -158l90 281q-67 14 -113.5 26t-108 36.5t-99 54.5 t-65 79.5t-27.5 110.5q0 184 189.5 304.5t466.5 132.5l36 113h138l-38 -113q102 -7 180 -31.5t136 -74t68.5 -127t-20.5 -188.5zM505 959q0 -72 128 -107l82 251q-87 -10 -148.5 -48t-61.5 -96zM835 474q0 39 -36 66t-113 47l-82 -252q101 12 166 46.5t65 92.5z" glyph-name="dollar" horiz-adv-x="1320" unicode="$"/><glyph d="M341 -51l-146 116l1385 1427l145 -116zM500 724q-138 0 -219 73t-81 205q0 177 138 314.5t329 137.5q137 0 219 -74t82 -208q0 -183 -136 -315.5t-332 -132.5zM546 951q72 0 125 52.5t53 121.5q0 102 -103 102q-70 0 -123.5 -53t-53.5 -121q0 -102 102 -102zM1254 -20 q-138 0 -219 74t-81 205q0 176 138.5 314.5t329.5 138.5q135 0 217.5 -75.5t82.5 -206.5q0 -183 -136.5 -316.5t-331.5 -133.5zM1299 208q72 0 125.5 53t53.5 121q0 101 -102 101q-72 0 -125 -53t-53 -121q0 -48 26.5 -74.5t74.5 -26.5z" glyph-name="percent" horiz-adv-x="1923" unicode="%"/><glyph d="M1650 751q-87 -270 -257 -456l123 -119l-234 -225l-144 143q-254 -140 -585 -140q-285 0 -443 103t-158 293q0 174 130.5 303.5t339.5 191.5q-49 96 -50 196q0 196 188.5 313t477.5 117q282 0 418 -135.5t53 -384.5h-325q39 118 -18 175.5t-183 57.5q-118 0 -194.5 -46 t-76.5 -121q0 -48 34 -91.5t128 -131.5l298 -289q108 118 152 246h326zM620 254q154 0 293 63l-345 343q-108 -32 -165.5 -90t-57.5 -137q0 -67 43.5 -108.5t101.5 -56t130 -14.5z" glyph-name="ampersand" horiz-adv-x="1744" unicode="&amp;"/><glyph d="M147 824l170 610h340l-227 -610h-283z" glyph-name="quotesingle" horiz-adv-x="510" unicode="'"/><glyph d="M585 -247q-587 0 -587 590q0 200 50.5 392.5t153 363.5t245 300.5t339.5 204.5t422 75l-95 -317q-116 0 -223 -43.5t-188.5 -118t-150 -171.5t-112 -204.5t-67.5 -218.5t-24 -212q0 -172 78.5 -248t256.5 -76z" glyph-name="parenleft" horiz-adv-x="969" unicode="("/><glyph d="M384 1679q587 0 587 -590q0 -200 -50.5 -393t-152.5 -363.5t-244.5 -300t-340 -204.5t-422.5 -75l96 317q116 0 222.5 43.5t188.5 117.5t150 171.5t111.5 205t67.5 218.5t24 212q0 172 -78.5 248t-255.5 76z" glyph-name="parenright" horiz-adv-x="972" unicode=")"/><glyph d="M1128 1101l-307 -133l229 -130l-174 -201l-204 172l-78 -304h-232l112 290l-285 -158l-58 201l308 133l-229 130l174 201l201 -170l79 302h232l-113 -291l287 159z" glyph-name="asterisk" horiz-adv-x="1095" unicode="*"/><glyph d="M1184 874l-100 -313h-359l-116 -354h-336l116 354h-353l101 313h353l116 355h338l-116 -355h356z" glyph-name="plus" horiz-adv-x="1218" unicode="+"/><glyph d="M-125 -401q102 217 151 401h-173l103 323h477l-1 -9q-164 -492 -345 -715h-212z" glyph-name="comma" horiz-adv-x="646" unicode=","/><glyph d="M14 553l107 321h990l-107 -321h-990z" glyph-name="hyphen" horiz-adv-x="1126" unicode="-"/><glyph d="M60 -27q-77 0 -124 47t-47 122q0 96 67.5 160.5t161.5 64.5q75 0 122 -47t47 -122q0 -94 -67.5 -159.5t-159.5 -65.5z" glyph-name="period" horiz-adv-x="522" unicode="."/><glyph d="M-215 0l1123 1434h451l-1123 -1434h-451z" glyph-name="slash" horiz-adv-x="1143" unicode="/"/><glyph d="M536 -38q-345 0 -472 206t-1 591q114 355 344 533.5t550 178.5q343 0 470.5 -204.5t0.5 -590.5q-113 -353 -343 -533.5t-549 -180.5zM592 275q167 0 296 119.5t203 359.5q60 213 9.5 310t-199.5 97q-167 0 -296 -119.5t-202 -360.5q-61 -213 -11 -309.5t200 -96.5z" glyph-name="zero" horiz-adv-x="1483" unicode="0"/><glyph d="M1077 1434l-372 -1139h299l-96 -295h-1063l95 295h381l244 749q-143 -90 -384 -80l102 316q195 0 408 154h386z" glyph-name="one" horiz-adv-x="1208" unicode="1"/><glyph d="M1394 1133q0 -133 -81.5 -244.5t-213 -190t-268 -142t-277.5 -132.5t-209 -129h793l-95 -295h-1224l60 188q41 126 174 236t292.5 185t314 143.5t258 142.5t103.5 151q0 119 -186 120q-253 0 -321 -190h-357q55 236 247 365.5t482 129.5q249 0 378.5 -87t129.5 -251z" glyph-name="two" horiz-adv-x="1341" unicode="2"/><glyph d="M459 -38q-304 0 -441 122.5t-54 366.5h333q-22 -99 42 -141t183 -42q154 0 259 58t105 150q0 145 -277 145h-71l71 227h63q154 0 260 54t106 144q0 63 -60 91.5t-150 28.5q-259 0 -333 -188h-328q58 251 251 372t469 121q239 0 373 -86t134 -230q0 -133 -93 -238 t-255 -159l-7 -24q89 -31 147 -102.5t58 -172.5q0 -119 -67.5 -216.5t-180 -157t-251 -91.5t-286.5 -32z" glyph-name="three" horiz-adv-x="1399" unicode="3"/><glyph d="M1451 1434l-282 -864h205l-94 -295h-205l-89 -275h-395l93 275h-761l97 295l972 864h459zM387 570h396l171 500z" glyph-name="four" horiz-adv-x="1483" unicode="4"/><glyph d="M454 -38q-290 0 -421.5 131t-58.5 356h333q-9 -67 20.5 -109.5t77 -58t114.5 -15.5q169 0 270.5 83.5t101.5 198.5q0 167 -222 167q-191 0 -317 -113h-335l275 832h1090l-95 -294h-761l-94 -275q177 87 379 87q195 0 312.5 -93.5t117.5 -271.5q0 -275 -217 -450 t-570 -175z" glyph-name="five" horiz-adv-x="1365" unicode="5"/><glyph d="M1423 1010h-307q15 87 -40 131.5t-160 44.5q-346 0 -476 -380q155 111 408 110q213 0 335.5 -85t122.5 -264q0 -271 -218.5 -438t-541.5 -167q-256 0 -388 132.5t-132 362.5q0 188 63 366.5t179 324.5t302 234.5t413 88.5q258 0 385.5 -129t54.5 -332zM737 681 q-155 0 -256.5 -83.5t-101.5 -198.5q0 -73 56.5 -114t158.5 -41q148 0 252.5 84.5t104.5 200.5q0 75 -58.5 113.5t-155.5 38.5z" glyph-name="six" horiz-adv-x="1435" unicode="6"/><glyph d="M287 1434h1198l-101 -304l-1065 -1130h-415l1077 1130h-795z" glyph-name="seven" horiz-adv-x="1293" unicode="7"/><glyph d="M514 -38q-285 0 -426 102.5t-141 268.5q0 148 101.5 267.5t284.5 184.5l10 21q-94 84 -94 216q0 198 178.5 323.5t466.5 125.5q242 0 362.5 -84.5t120.5 -227.5q0 -118 -74 -207.5t-195 -144.5l-9 -20q179 -109 179 -311q0 -159 -105 -277.5t-276 -177.5t-383 -59z M756 891q116 0 193.5 52t77.5 136q0 128 -180 128q-116 0 -192 -53t-76 -135q0 -128 177 -128zM553 251q157 0 257 71t100 175q0 84 -66 121t-165 37q-157 0 -256.5 -71.5t-99.5 -175.5q0 -157 230 -157z" glyph-name="eight" horiz-adv-x="1421" unicode="8"/><glyph d="M889 1471q256 0 388.5 -132t132.5 -363q0 -188 -63.5 -366t-179.5 -324t-302 -235t-413 -89q-258 0 -385.5 129t-54.5 332h307q-15 -87 40.5 -131.5t159.5 -44.5q346 0 476 381q-155 -111 -408 -111q-213 0 -335 85.5t-122 264.5q0 271 218 437.5t541 166.5zM698 753 q155 0 256.5 83.5t101.5 197.5q0 73 -56 114.5t-159 41.5q-148 0 -252 -84.5t-104 -200.5q0 -75 58 -113.5t155 -38.5z" glyph-name="nine" horiz-adv-x="1435" unicode="9"/><glyph d="M357 884q-77 0 -124 47t-47 122q0 96 67.5 160.5t161.5 64.5q75 0 122 -47t47 -122q0 -94 -67.5 -159.5t-159.5 -65.5zM114 138q-77 0 -123.5 47t-46.5 122q0 96 67.5 160.5t160.5 64.5q75 0 122 -46.5t47 -121.5q0 -94 -67.5 -160t-159.5 -66z" glyph-name="colon" horiz-adv-x="523" unicode=":"/><glyph d="M357 884q-77 0 -124 47t-47 122q0 96 67.5 160.5t161.5 64.5q75 0 122 -47t47 -122q0 -94 -67.5 -159.5t-159.5 -65.5zM-85 -224q102 217 150 401h-173l103 323h478l-2 -8q-164 -492 -345 -716h-211z" glyph-name="semicolon" horiz-adv-x="599" unicode=";"/><glyph d="M881 162l-855 350l124 404l1087 357l-102 -331l-724 -206l-12 -40l586 -206z" glyph-name="less" horiz-adv-x="1148" unicode="&lt;"/><glyph d="M99 763l106 321h996l-105 -321h-997zM-34 352l106 320h996l-105 -320h-997z" glyph-name="equal" horiz-adv-x="1167" unicode="="/><glyph d="M266 1271l855 -349l-124 -405l-1087 -357l102 332l724 206l12 39l-586 207z" glyph-name="greater" horiz-adv-x="1146" unicode=">"/><glyph d="M406 500q19 111 90.5 191t161.5 123.5t177.5 78t146.5 74.5t59 91q0 49 -59.5 78.5t-165.5 29.5q-271 0 -359 -222h-346q118 527 771 527q254 0 407 -87t153 -252q0 -109 -64 -195.5t-157 -139.5t-187 -97.5t-166.5 -94t-82.5 -105.5h-379zM490 -27q-77 0 -124 47 t-47 122q0 96 67.5 160.5t161.5 64.5q75 0 122 -47t47 -122q0 -94 -67.5 -159.5t-159.5 -65.5z" glyph-name="question" horiz-adv-x="1358" unicode="?"/><glyph d="M1463 353q-142 -189 -347.5 -295t-456.5 -106q-294 0 -463.5 155.5t-169.5 419.5q0 184 79 357.5t212.5 305t323.5 211.5t400 80q288 0 461.5 -151t173.5 -393q0 -186 -101.5 -321.5t-279.5 -135.5q-198 0 -128 184l176 428h-140l-56 -77h-19q-60 101 -213 101 q-142 0 -264 -81t-190 -204.5t-68 -253.5q0 -131 72.5 -201.5t198.5 -70.5q198 0 316 135h20q14 -63 72 -99t152 -36q133 0 227 59zM876 944q131 0 134 -142q0 -116 -85 -220t-198 -104q-133 0 -136 143q0 116 87 219.5t198 103.5z" glyph-name="at" horiz-adv-x="1677" unicode="@"/><glyph d="M1026 0l-9 224h-669l-152 -224h-411l997 1434h541l83 -1434h-380zM544 512h463l-22 560h-60z" glyph-name="A" unicode="A"/><glyph d="M1497 1142q0 -119 -77 -217.5t-225 -146.5l-9 -24q87 -39 137.5 -102t50.5 -178q0 -157 -99 -266t-261 -158.5t-376 -49.5h-802l464 1434h746q451 0 451 -292zM853 852q118 0 191.5 47.5t73.5 124.5q0 111 -171 111h-356l-93 -283h355zM725 299q123 0 202.5 53.5 t79.5 147.5q0 123 -179 123h-403l-106 -324h406z" glyph-name="B" horiz-adv-x="1510" unicode="B"/><glyph d="M666 -48q-299 0 -468 156.5t-169 429.5q0 184 77.5 356.5t211 302t325.5 207t408 77.5q300 0 473.5 -165.5t130.5 -417.5h-368q-10 123 -95.5 187t-213.5 64q-242 0 -405 -171t-163 -386q0 -147 90.5 -227t238.5 -80q276 0 439 247h375q-67 -166 -173.5 -284t-231 -179.5 t-242 -89t-240.5 -27.5z" glyph-name="C" horiz-adv-x="1657" unicode="C"/><glyph d="M-160 0l460 1434h632q321 0 476 -139.5t155 -391.5q0 -271 -134 -478t-365 -316t-520 -109h-704zM328 324h286q239 0 400.5 152t161.5 372q0 137 -85.5 200t-259.5 63h-249z" glyph-name="D" horiz-adv-x="1594" unicode="D"/><glyph d="M1439 1125h-854l-88 -272h844l-85 -257h-841l-92 -285h851l-101 -311h-1237l464 1434h1239z" glyph-name="E" horiz-adv-x="1373" unicode="E"/><glyph d="M1428 1113h-848l-95 -296h800l-99 -305h-800l-168 -512h-382l464 1434h1233z" glyph-name="F" horiz-adv-x="1368" unicode="F"/><glyph d="M978 1149q-242 0 -405 -171t-163 -386q0 -147 90.5 -227t238.5 -80q77 0 154.5 19t166.5 83.5t135 167.5h-415l70 216h792l-249 -771h-217l53 183q-99 -108 -247.5 -169.5t-326.5 -61.5q-294 0 -460 153t-166 426q0 188 77.5 361t211 303.5t325.5 208t408 77.5 q283 0 456.5 -148.5t158.5 -376.5h-384q-27 94 -109 143.5t-195 49.5z" glyph-name="G" horiz-adv-x="1687" unicode="G"/><glyph d="M1340 1434h385l-460 -1434h-386l176 544h-654l-176 -544h-385l460 1434h386l-184 -572h653z" glyph-name="H" horiz-adv-x="1565" unicode="H"/><glyph d="M-164 0l464 1434h384l-462 -1434h-386z" glyph-name="I" horiz-adv-x="520" unicode="I"/><glyph d="M457 -48q-300 0 -428 145t-31 458h383q-48 -155 3 -215t150 -60q106 0 194 66.5t137 218.5l280 869h386l-280 -871q-106 -335 -302.5 -473t-491.5 -138z" glyph-name="J" horiz-adv-x="1367" unicode="J"/><glyph d="M1731 1434l-786 -647l453 -787h-386l-341 596h-29l-306 -239l-116 -357h-384l468 1434h382l-191 -591h46l741 591h449z" glyph-name="K" horiz-adv-x="1587" unicode="K"/><glyph d="M-164 0l466 1434h386l-364 -1111h828l-102 -323h-1214z" glyph-name="L" horiz-adv-x="1339" unicode="L"/><glyph d="M-160 0l460 1434h473l9 -936h34l606 936h513l-459 -1434h-370l253 787h-40l-500 -787h-298l-21 787h-39l-253 -787h-368z" glyph-name="M" horiz-adv-x="1776" unicode="M"/><glyph d="M-164 0l468 1434h428l318 -912h42l299 912h375l-466 -1434h-419l-330 905h-42l-297 -905h-376z" glyph-name="N" horiz-adv-x="1602" unicode="N"/><glyph d="M666 -48q-300 0 -469.5 155.5t-169.5 426.5q0 183 78 356t211 303t321.5 209t398.5 79q300 0 469 -154.5t169 -427.5q0 -183 -77.5 -356t-210.5 -302.5t-321.5 -209t-398.5 -79.5zM727 285q159 0 291 84.5t202 211t72 260.5q0 147 -89 227.5t-228 80.5q-159 0 -291.5 -84 t-203 -210t-72.5 -261q0 -147 88.5 -228t230.5 -81z" glyph-name="O" horiz-adv-x="1699" unicode="O"/><glyph d="M1005 1434q256 0 385 -100t129 -312q0 -309 -214 -491.5t-540 -182.5h-429l-114 -348h-386l468 1434h701zM790 666q143 0 240.5 81t97.5 209q0 80 -48.5 118.5t-152.5 38.5h-342l-146 -449z" glyph-name="P" horiz-adv-x="1510" unicode="P"/><glyph d="M1674 899q0 -193 -84.5 -372t-234.5 -314l111 -162q-133 -123 -285 -220l-142 189q-176 -68 -373 -68q-300 0 -469.5 155.5t-169.5 426.5q0 183 78 356t211 303t321.5 209t398.5 79q300 0 469 -154.5t169 -427.5zM408 594q0 -147 88.5 -228t230.5 -81q159 0 291 84.5 t202 211t72 260.5q0 147 -89 227.5t-228 80.5q-159 0 -291.5 -84t-203 -210t-72.5 -261z" glyph-name="Q" horiz-adv-x="1710" unicode="Q"/><glyph d="M1527 1036q0 -188 -104.5 -332t-275.5 -223l116 -481h-370l-94 408h-442l-132 -408h-385l460 1434h719q508 0 508 -398zM582 1113l-135 -420l376 2q126 0 221.5 73t95.5 191q0 84 -49.5 119t-155.5 35h-353z" glyph-name="R" horiz-adv-x="1517" unicode="R"/><glyph d="M532 -48q-166 0 -286.5 27.5t-203.5 87t-101 154.5t23 230h330q-20 -101 59.5 -150.5t233.5 -49.5q160 0 268 48.5t108 142.5q0 56 -47 89.5t-158 55.5l-115 22q-56 12 -78 16.5t-83.5 21.5t-93 32.5t-80.5 45t-73.5 62t-44 81t-19.5 105.5q0 237 206.5 372.5 t533.5 135.5q319 0 475.5 -132t62.5 -361h-317q15 87 -54 141t-221 54q-145 0 -232 -49.5t-87 -133.5q0 -53 41 -84.5t133 -51.5l90 -21q19 -3 81 -16t91.5 -20.5t86.5 -24.5t87.5 -32.5t72.5 -43.5t63.5 -59t37.5 -75.5t16 -97.5q0 -138 -65 -242t-178.5 -163t-254.5 -88 t-308 -29z" glyph-name="S" horiz-adv-x="1476" unicode="S"/><glyph d="M1731 1434l-105 -321h-522l-362 -1113h-384l362 1113h-532l104 321h1439z" glyph-name="T" horiz-adv-x="1558" unicode="T"/><glyph d="M584 -48q-367 0 -510.5 172.5t-35.5 500.5l266 809h389l-277 -840q-51 -154 5.5 -237.5t216.5 -83.5q166 0 271.5 89t167.5 273l259 799h391l-276 -849q-111 -338 -319 -485.5t-548 -147.5z" glyph-name="U" horiz-adv-x="1563" unicode="U"/><glyph d="M333 0l-84 1434h377l43 -1070h48l722 1070h420l-997 -1434h-529z" glyph-name="V" horiz-adv-x="1643" unicode="V"/><glyph d="M106 0l157 1434h382l-126 -1023h34l577 1023h314l-75 -1023h36l529 1023h397l-768 -1434h-519l76 833h-36l-459 -833h-519z" glyph-name="W" horiz-adv-x="2138" unicode="W"/><glyph d="M-220 0l727 715l14 33l-275 686h389l181 -466h36l440 466h430l-703 -695l-14 -34l284 -705h-407l-175 459h-36l-454 -459h-437z" glyph-name="X" horiz-adv-x="1534" unicode="X"/><glyph d="M1783 1434l-897 -980l-147 -454h-386l150 473l-262 961h387l157 -599h36l536 599h426z" glyph-name="Y" horiz-adv-x="1576" unicode="Y"/><glyph d="M-179 0l102 317l1041 767l12 30h-776l105 320h1292l-104 -316l-1041 -766l-12 -33h784l-106 -319h-1297z" glyph-name="Z" horiz-adv-x="1416" unicode="Z"/><glyph d="M-239 -230l614 1894h767l-104 -321h-381l-406 -1251h380l-104 -322h-766z" glyph-name="bracketleft" horiz-adv-x="902" unicode="["/><glyph d="M894 0l-662 1434h435l662 -1434h-435z" glyph-name="backslash" horiz-adv-x="1561" unicode="\"/><glyph d="M1142 1664l-615 -1894h-766l104 320h381l406 1251h-381l104 323h767z" glyph-name="bracketright" horiz-adv-x="902" unicode="]"/><glyph d="M20 521l630 971h435l40 -971h-314l8 674h-44l-427 -674h-328z" glyph-name="asciicircum" horiz-adv-x="1274" unicode="^"/><glyph d="M-253 -323l106 323h1050l-106 -323h-1050z" glyph-name="underscore" horiz-adv-x="1220" unicode="_"/><glyph d="M766 1161h-353l-177 286h353z" glyph-name="grave" horiz-adv-x="622" unicode="`"/><glyph d="M1026 0l-9 224h-669l-152 -224h-411l997 1434h541l83 -1434h-380zM544 512h463l-22 560h-60z" glyph-name="a" unicode="a"/><glyph d="M1497 1142q0 -119 -77 -217.5t-225 -146.5l-9 -24q87 -39 137.5 -102t50.5 -178q0 -157 -99 -266t-261 -158.5t-376 -49.5h-802l464 1434h746q451 0 451 -292zM853 852q118 0 191.5 47.5t73.5 124.5q0 111 -171 111h-356l-93 -283h355zM725 299q123 0 202.5 53.5 t79.5 147.5q0 123 -179 123h-403l-106 -324h406z" glyph-name="b" horiz-adv-x="1510" unicode="b"/><glyph d="M666 -48q-299 0 -468 156.5t-169 429.5q0 184 77.5 356.5t211 302t325.5 207t408 77.5q300 0 473.5 -165.5t130.5 -417.5h-368q-10 123 -95.5 187t-213.5 64q-242 0 -405 -171t-163 -386q0 -147 90.5 -227t238.5 -80q276 0 439 247h375q-67 -166 -173.5 -284t-231 -179.5 t-242 -89t-240.5 -27.5z" glyph-name="c" horiz-adv-x="1657" unicode="c"/><glyph d="M-160 0l460 1434h632q321 0 476 -139.5t155 -391.5q0 -271 -134 -478t-365 -316t-520 -109h-704zM328 324h286q239 0 400.5 152t161.5 372q0 137 -85.5 200t-259.5 63h-249z" glyph-name="d" horiz-adv-x="1594" unicode="d"/><glyph d="M1439 1125h-854l-88 -272h844l-85 -257h-841l-92 -285h851l-101 -311h-1237l464 1434h1239z" glyph-name="e" horiz-adv-x="1373" unicode="e"/><glyph d="M1428 1113h-848l-95 -296h800l-99 -305h-800l-168 -512h-382l464 1434h1233z" glyph-name="f" horiz-adv-x="1368" unicode="f"/><glyph d="M978 1149q-242 0 -405 -171t-163 -386q0 -147 90.5 -227t238.5 -80q77 0 154.5 19t166.5 83.5t135 167.5h-415l70 216h792l-249 -771h-217l53 183q-99 -108 -247.5 -169.5t-326.5 -61.5q-294 0 -460 153t-166 426q0 188 77.5 361t211 303.5t325.5 208t408 77.5 q283 0 456.5 -148.5t158.5 -376.5h-384q-27 94 -109 143.5t-195 49.5z" glyph-name="g" horiz-adv-x="1687" unicode="g"/><glyph d="M1340 1434h385l-460 -1434h-386l176 544h-654l-176 -544h-385l460 1434h386l-184 -572h653z" glyph-name="h" horiz-adv-x="1565" unicode="h"/><glyph d="M-164 0l464 1434h384l-462 -1434h-386z" glyph-name="i" horiz-adv-x="520" unicode="i"/><glyph d="M457 -48q-300 0 -428 145t-31 458h383q-48 -155 3 -215t150 -60q106 0 194 66.5t137 218.5l280 869h386l-280 -871q-106 -335 -302.5 -473t-491.5 -138z" glyph-name="j" horiz-adv-x="1367" unicode="j"/><glyph d="M1731 1434l-786 -647l453 -787h-386l-341 596h-29l-306 -239l-116 -357h-384l468 1434h382l-191 -591h46l741 591h449z" glyph-name="k" horiz-adv-x="1587" unicode="k"/><glyph d="M-164 0l466 1434h386l-364 -1111h828l-102 -323h-1214z" glyph-name="l" horiz-adv-x="1339" unicode="l"/><glyph d="M-160 0l460 1434h473l9 -936h34l606 936h513l-459 -1434h-370l253 787h-40l-500 -787h-298l-21 787h-39l-253 -787h-368z" glyph-name="m" horiz-adv-x="1776" unicode="m"/><glyph d="M-164 0l468 1434h428l318 -912h42l299 912h375l-466 -1434h-419l-330 905h-42l-297 -905h-376z" glyph-name="n" horiz-adv-x="1602" unicode="n"/><glyph d="M666 -48q-300 0 -469.5 155.5t-169.5 426.5q0 183 78 356t211 303t321.5 209t398.5 79q300 0 469 -154.5t169 -427.5q0 -183 -77.5 -356t-210.5 -302.5t-321.5 -209t-398.5 -79.5zM727 285q159 0 291 84.5t202 211t72 260.5q0 147 -89 227.5t-228 80.5q-159 0 -291.5 -84 t-203 -210t-72.5 -261q0 -147 88.5 -228t230.5 -81z" glyph-name="o" horiz-adv-x="1699" unicode="o"/><glyph d="M1005 1434q256 0 385 -100t129 -312q0 -309 -214 -491.5t-540 -182.5h-429l-114 -348h-386l468 1434h701zM790 666q143 0 240.5 81t97.5 209q0 80 -48.5 118.5t-152.5 38.5h-342l-146 -449z" glyph-name="p" horiz-adv-x="1510" unicode="p"/><glyph d="M1674 899q0 -193 -84.5 -372t-234.5 -314l111 -162q-133 -123 -285 -220l-142 189q-176 -68 -373 -68q-300 0 -469.5 155.5t-169.5 426.5q0 183 78 356t211 303t321.5 209t398.5 79q300 0 469 -154.5t169 -427.5zM408 594q0 -147 88.5 -228t230.5 -81q159 0 291 84.5 t202 211t72 260.5q0 147 -89 227.5t-228 80.5q-159 0 -291.5 -84t-203 -210t-72.5 -261z" glyph-name="q" horiz-adv-x="1710" unicode="q"/><glyph d="M1527 1036q0 -188 -104.5 -332t-275.5 -223l116 -481h-370l-94 408h-442l-132 -408h-385l460 1434h719q508 0 508 -398zM582 1113l-135 -420l376 2q126 0 221.5 73t95.5 191q0 84 -49.5 119t-155.5 35h-353z" glyph-name="r" horiz-adv-x="1517" unicode="r"/><glyph d="M532 -48q-166 0 -286.5 27.5t-203.5 87t-101 154.5t23 230h330q-20 -101 59.5 -150.5t233.5 -49.5q160 0 268 48.5t108 142.5q0 56 -47 89.5t-158 55.5l-115 22q-56 12 -78 16.5t-83.5 21.5t-93 32.5t-80.5 45t-73.5 62t-44 81t-19.5 105.5q0 237 206.5 372.5 t533.5 135.5q319 0 475.5 -132t62.5 -361h-317q15 87 -54 141t-221 54q-145 0 -232 -49.5t-87 -133.5q0 -53 41 -84.5t133 -51.5l90 -21q19 -3 81 -16t91.5 -20.5t86.5 -24.5t87.5 -32.5t72.5 -43.5t63.5 -59t37.5 -75.5t16 -97.5q0 -138 -65 -242t-178.5 -163t-254.5 -88 t-308 -29z" glyph-name="s" horiz-adv-x="1476" unicode="s"/><glyph d="M1731 1434l-105 -321h-522l-362 -1113h-384l362 1113h-532l104 321h1439z" glyph-name="t" horiz-adv-x="1558" unicode="t"/><glyph d="M584 -48q-367 0 -510.5 172.5t-35.5 500.5l266 809h389l-277 -840q-51 -154 5.5 -237.5t216.5 -83.5q166 0 271.5 89t167.5 273l259 799h391l-276 -849q-111 -338 -319 -485.5t-548 -147.5z" glyph-name="u" horiz-adv-x="1563" unicode="u"/><glyph d="M333 0l-84 1434h377l43 -1070h48l722 1070h420l-997 -1434h-529z" glyph-name="v" horiz-adv-x="1643" unicode="v"/><glyph d="M106 0l157 1434h382l-126 -1023h34l577 1023h314l-75 -1023h36l529 1023h397l-768 -1434h-519l76 833h-36l-459 -833h-519z" glyph-name="w" horiz-adv-x="2138" unicode="w"/><glyph d="M-220 0l727 715l14 33l-275 686h389l181 -466h36l440 466h430l-703 -695l-14 -34l284 -705h-407l-175 459h-36l-454 -459h-437z" glyph-name="x" horiz-adv-x="1534" unicode="x"/><glyph d="M1783 1434l-897 -980l-147 -454h-386l150 473l-262 961h387l157 -599h36l536 599h426z" glyph-name="y" horiz-adv-x="1576" unicode="y"/><glyph d="M-179 0l102 317l1041 767l12 30h-776l105 320h1292l-104 -316l-1041 -766l-12 -33h784l-106 -319h-1297z" glyph-name="z" horiz-adv-x="1416" unicode="z"/><glyph d="M224 -230q-89 0 -147 59.5t-16 189.5l147 437l-126 245l3 38l282 241l162 477q22 68 54.5 113t74.5 63.5t73.5 24.5t74.5 6h556l-104 -321h-294q-32 0 -69 -25.5t-47 -56.5l-87 -292l-283 -244l-5 -37l112 -224l-102 -331q-12 -20 -4.5 -29.5t14.5 -10.5t33 -1h326 l-104 -322h-524z" glyph-name="braceleft" horiz-adv-x="1131" unicode="{"/><glyph d="M-220 -171l577 1775h385l-576 -1775h-386z" glyph-name="bar" horiz-adv-x="522" unicode="|"/><glyph d="M906 1664q89 0 147 -59.5t15 -189.5l-146 -437l126 -246l-4 -37l-281 -241l-162 -478q-22 -68 -54.5 -112.5t-74.5 -63t-73.5 -24.5t-74.5 -6h-556l104 320h294q32 0 68.5 26t47.5 56l87 292l283 244l5 38l-113 223l103 331q12 20 4 30t-14.5 10.5t-32.5 0.5h-326 l104 323h524z" glyph-name="braceright" horiz-adv-x="1129" unicode="}"/><glyph d="M710 538q-60 2 -112 23t-83.5 46.5t-76 47t-88.5 21.5q-113 0 -161 -103h-148q39 164 159.5 250.5t262.5 86.5q73 0 133.5 -34.5t114.5 -68.5t108 -36q118 5 164 103h149q-26 -111 -96 -189.5t-153 -111.5t-173 -35z" glyph-name="asciitilde" horiz-adv-x="1167" unicode="~"/><glyph d="M352 1092q77 0 123.5 -47t46.5 -122q0 -96 -67.5 -160.5t-160.5 -64.5q-75 0 -122 47t-47 122q0 94 67.5 159.5t159.5 65.5zM353 553l-240 -922h-398l398 922h240z" glyph-name="exclamdown" horiz-adv-x="530" unicode="¡"/><glyph d="M1174 881q-10 102 -73 160l-550 -696q56 -20 127 -21q251 0 397 226h342q-61 -150 -158 -258.5t-209.5 -164t-220 -80.5t-218.5 -25q-152 0 -275 48l-56 -70h-147l99 126q-201 140 -201 427q0 167 70.5 324t192 275t296.5 188.5t371 70.5q133 0 251 -41l51 64h147 l-91 -116q113 -72 164 -185.5t27 -251.5h-336zM452 404l545 692q-49 14 -103 13q-220 0 -368.5 -155t-148.5 -352q0 -126 75 -198z" glyph-name="cent" horiz-adv-x="1515" unicode="¢"/><glyph d="M1365 951h-361q38 101 -15.5 152t-165.5 51q-140 0 -223 -66.5t-83 -177.5q0 -38 13.5 -96t17.5 -82h548l-57 -174h-508q-27 -80 -83.5 -146t-118.5 -103v-14h828l-95 -295h-1251l95 295q97 36 181 107.5t111 155.5h-201l58 174h134q-36 140 -35 212q0 237 207 382 t525 145q300 0 439 -134.5t40 -385.5z" glyph-name="sterling" horiz-adv-x="1334" unicode="£"/><glyph d="M1232 975q0 -99 -41 -190l94 -96l-177 -175l-81 78q-116 -77 -254 -77q-140 0 -252 76l-77 -77l-178 175l89 89q-43 94 -43 197q0 109 48 204l-94 94l178 176l85 -84q113 68 244 69q137 0 248 -72l87 87l177 -176l-97 -101q44 -91 44 -197zM773 748q63 0 111 24.5 t72.5 62t36.5 73.5t12 67q0 75 -57 152.5t-175 77.5q-84 0 -139 -44.5t-74 -93t-19 -92.5q0 -31 12 -67t36 -73.5t72.5 -62t111.5 -24.5z" glyph-name="currency" horiz-adv-x="1378" unicode="¤"/><glyph d="M1783 1434l-761 -832h357l-56 -167h-444l-26 -78h447l-56 -169h-445l-60 -188h-386l60 188h-444l57 169h442l24 78h-443l57 167h362l-227 832h387l157 -599h36l536 599h426z" glyph-name="yen" horiz-adv-x="1576" unicode="¥"/><glyph d="M94 797l263 807h385l-262 -807h-386zM-220 -171l263 809h385l-262 -809h-386z" glyph-name="brokenbar" horiz-adv-x="522" unicode="¦"/><glyph d="M1551 1207h-344q15 96 -44.5 147.5t-208.5 51.5q-131 0 -214 -41.5t-109 -113.5q-39 -119 142 -155l142 -28q24 -5 85.5 -16t91 -18t83.5 -21.5t83 -28t67.5 -36.5t57 -49.5t33 -65t14.5 -82.5q0 -287 -295 -435q94 -73 94 -200q0 -172 -125.5 -302t-320 -194t-418.5 -62 q-335 0 -475.5 125.5t-51.5 381.5h351q-26 -97 39.5 -150t228.5 -55q154 0 250.5 44.5t120.5 119.5q20 63 -21 104t-152 60l-163 30q-80 15 -131.5 27.5t-119 38t-106 58t-66.5 86t-28 123.5q0 259 331 389q-126 84 -126 248q0 167 107.5 286.5t288.5 176.5t413 57 q106 0 193 -16t162 -52t116 -94t52.5 -142t-27.5 -197zM1038 660q0 116 -181 149l-142 27q-106 9 -199.5 -60t-93.5 -163q0 -108 157 -139l107 -22q131 -24 241.5 41t110.5 167z" glyph-name="section" horiz-adv-x="1481" unicode="§"/><glyph d="M323 1174q-55 0 -91 36t-36 89q0 65 54 115t119 50q55 0 89.5 -36.5t34.5 -87.5q0 -67 -52.5 -116.5t-117.5 -49.5zM812 1174q-55 0 -90.5 36t-35.5 89q0 65 54 115t118 50q55 0 90 -36.5t35 -87.5q0 -67 -53 -116.5t-118 -49.5z" glyph-name="dieresis" horiz-adv-x="788" unicode="¨"/><glyph d="M515 544q-166 0 -265.5 97.5t-99.5 263.5q0 227 165 396.5t412 169.5q166 0 265.5 -97t99.5 -261q0 -227 -165.5 -398t-411.5 -171zM546 715q89 0 176 42t138 142h-138q-56 -73 -150 -73q-58 0 -90.5 34t-32.5 96q0 90 69 163.5t160 73.5q44 0 76.5 -19.5t39.5 -57.5h136 q-2 94 -68.5 142t-161.5 48q-164 0 -272.5 -114.5t-108.5 -259.5q0 -102 59 -159.5t168 -57.5z" glyph-name="copyright" horiz-adv-x="1051" unicode="©"/><glyph d="M905 1434h191l-239 -738h-179l-12 55q-99 -55 -197 -55q-128 0 -205.5 79.5t-77.5 205.5q0 193 136.5 328t322.5 135q131 0 203 -89zM420 1036q0 -56 36 -83.5t87 -27.5q79 0 132.5 55.5t53.5 125.5q0 56 -36 84.5t-85 28.5q-79 0 -133.5 -57.5t-54.5 -125.5z" glyph-name="ordfeminine" horiz-adv-x="940" unicode="ª"/><glyph d="M1005 1212l-491 -497l184 -493h-415l-182 493l490 497h414zM1527 1212l-491 -497l184 -493h-414l-183 493l490 497h414z" glyph-name="guillemotleft" horiz-adv-x="1483" unicode="«"/><glyph d="M807 497l55 167h-792l87 273h1121l-141 -440h-330z" glyph-name="logicalnot" horiz-adv-x="1291" unicode="¬"/><glyph d="M14 553l107 321h990l-107 -321h-990z" glyph-name="uni00AD" horiz-adv-x="1126" unicode="­"/><glyph d="M515 544q-166 0 -265.5 97.5t-99.5 263.5q0 227 165 396.5t412 169.5q166 0 265.5 -97t99.5 -261q0 -227 -165.5 -398t-411.5 -171zM321 739h121l51 164h152l44 -164h127l-57 189q147 61 147 192q0 67 -45 109t-146 42h-222zM526 1004l53 163h121q85 0 85 -68 q0 -41 -35 -68t-86 -27h-138z" glyph-name="registered" horiz-adv-x="1051" unicode="®"/><glyph d="M147 1167l94 284h716l-93 -284h-717z" glyph-name="macron" horiz-adv-x="720" unicode="¯"/><glyph d="M490 684q-138 0 -219.5 78t-81.5 207q0 191 143.5 333t341.5 142q138 0 219.5 -77.5t81.5 -207.5q0 -191 -143.5 -333t-341.5 -142zM539 932q72 0 126 56t54 118q0 44 -26.5 68t-69.5 24q-73 0 -126 -56.5t-53 -119.5q0 -44 26 -67t69 -23z" glyph-name="degree" horiz-adv-x="940" unicode="°"/><glyph d="M918 1149h357l-101 -313h-358l-116 -355h-336l116 355h-354l101 313h353l116 355h338zM-99 0l106 323h997l-106 -323h-997z" glyph-name="plusminus" horiz-adv-x="1218" unicode="±"/><glyph d="M143 1161l178 286h353l-177 -286h-354z" glyph-name="acute" horiz-adv-x="438" unicode="´"/><glyph d="M1033 1161h385l-375 -1161h-377l42 157h-34q-159 -183 -392 -183q-26 0 -67 4l-77 -234h-385l459 1417h385l-223 -692q-36 -109 0 -156.5t111 -47.5q118 0 212.5 76.5t116.5 143.5l-2 -7z" glyph-name="uni00B5" horiz-adv-x="1343" unicode="µ"/><glyph d="M777 0l119 370h-294q-509 0 -508 395q0 307 231 488t591 181h709l-464 -1434h-384zM1347 0l464 1434h384l-464 -1434h-384z" glyph-name="paragraph" horiz-adv-x="2030" unicode="¶"/><glyph d="M309 521q-77 0 -124 46.5t-47 121.5q0 96 67.5 161t161.5 65q75 0 122 -47t47 -122q0 -94 -67.5 -159.5t-159.5 -65.5z" glyph-name="periodcentered" horiz-adv-x="674" unicode="·"/><glyph d="M-29 -65q56 -12 92 -54.5t36 -114.5q0 -145 -141 -204.5t-327 -6.5l45 146q68 -20 142 -2t74 60q0 19 -21 31t-64 13.5t-106 -10.5l28 91l165 116h179z" glyph-name="cedilla" horiz-adv-x="418" unicode="¸"/><glyph d="M476 698q-131 0 -212 81t-81 207q0 181 139 319.5t330 138.5q131 0 211.5 -80.5t80.5 -206.5q0 -183 -139.5 -321t-328.5 -138zM529 925q79 0 131.5 55.5t52.5 125.5q0 53 -32 83t-82 30q-77 0 -130.5 -57.5t-53.5 -127.5q0 -53 32.5 -81t81.5 -28z" glyph-name="ordmasculine" horiz-adv-x="896" unicode="º"/><glyph d="M-44 222l491 497l-184 493h415l182 -493l-490 -497h-414zM478 222l491 497l-184 493h415l182 -493l-489 -497h-415z" glyph-name="guillemotright" horiz-adv-x="1483" unicode="»"/><glyph d="M701 1092q77 0 124 -47t47 -122q0 -96 -67.5 -160.5t-161.5 -64.5q-75 0 -122 47t-47 122q0 94 67.5 159.5t159.5 65.5zM785 565q-19 -111 -90.5 -191t-161 -123.5t-177.5 -78t-147 -74.5t-59 -91q0 -49 60 -78.5t165 -29.5q271 0 359 222h346q-118 -527 -771 -527 q-254 0 -407 87t-153 252q0 109 64 195.5t157 139.5t187 97.5t166.5 94t82.5 105.5h379z" glyph-name="questiondown" horiz-adv-x="1319" unicode="¿"/><glyph d="M1260 1519h-354l-177 287h353zM1026 0l-9 224h-669l-152 -224h-411l997 1434h541l83 -1434h-380zM544 512h463l-22 560h-60z" glyph-name="Agrave" unicode="À"/><glyph d="M1430 1806l-177 -287h-354l178 287h353zM782 1434h541l83 -1434h-380l-9 224h-669l-152 -224h-411zM544 512h463l-22 560h-60z" glyph-name="Aacute" unicode="Á"/><glyph d="M1079 1654l-132 -135h-355l301 287h498l140 -287h-326l-62 135h-64zM782 1434h541l83 -1434h-380l-9 224h-669l-152 -224h-411zM544 512h463l-22 560h-60z" glyph-name="Acircumflex" unicode="Â"/><glyph d="M1500 1734q15 -128 -54.5 -193.5t-177.5 -65.5q-82 0 -185 54.5t-151 54.5q-41 0 -69 -19.5t-34 -54.5h-117q-15 128 54.5 194t175.5 66q82 0 185.5 -54.5t150.5 -54.5q43 0 71 19.5t32 53.5h119zM782 1434h541l83 -1434h-380l-9 224h-669l-152 -224h-411zM544 512h463 l-22 560h-60z" glyph-name="Atilde" unicode="Ã"/><glyph d="M845 1533q-55 0 -90.5 35.5t-35.5 88.5q0 65 53.5 115.5t118.5 50.5q55 0 89.5 -37t34.5 -88q0 -67 -52.5 -116t-117.5 -49zM1381 1823q55 0 89.5 -37t34.5 -88q0 -67 -53 -116t-117 -49q-55 0 -91 35.5t-36 88.5q0 65 54 115.5t119 50.5zM782 1434h541l83 -1434h-380 l-9 224h-669l-152 -224h-411zM544 512h463l-22 560h-60z" glyph-name="Adieresis" unicode="Ä"/><glyph d="M1026 0l-9 224h-669l-152 -224h-411l997 1434h175q-89 48 -88.5 160.5t80.5 188.5t186 76q84 0 134 -51.5t50 -131.5q0 -77 -42.5 -143.5t-112.5 -98.5h159l83 -1434h-380zM1108 1691q-27 0 -48 -21t-21 -50q0 -15 12 -27.5t33 -12.5q29 0 48.5 21.5t19.5 48.5 q0 17 -12 29t-32 12zM544 512h463l-22 560h-60z" glyph-name="Aring" unicode="Å"/><glyph d="M2429 1125h-854l-88 -272h844l-85 -257h-841l-93 -285h852l-101 -311h-1237l82 253h-515l-198 -253h-410l1155 1434h1589zM614 538h386l186 575h-121z" glyph-name="AE" horiz-adv-x="2363" unicode="Æ"/><glyph d="M978 1149q-242 0 -405 -171t-163 -386q0 -147 90.5 -227t238.5 -80q276 0 439 247h375q-67 -166 -173.5 -284t-231 -179.5t-242.5 -89t-240 -27.5h-19l-27 -17q56 -12 92 -54.5t36 -114.5q0 -145 -141 -204.5t-327 -6.5l44 146q68 -20 142.5 -2t74.5 60q0 19 -21.5 31 t-64 13.5t-105.5 -10.5l27 91l120 84q-222 41 -345 190t-123 380q0 184 77.5 356.5t211 302t325.5 207t408 77.5q300 0 473.5 -165.5t130.5 -417.5h-368q-10 123 -95.5 187t-213.5 64z" glyph-name="Ccedilla" horiz-adv-x="1657" unicode="Ç"/><glyph d="M1111 1519h-353l-178 287h354zM1439 1125h-854l-88 -272h844l-85 -257h-841l-92 -285h851l-101 -311h-1237l464 1434h1239z" glyph-name="Egrave" horiz-adv-x="1373" unicode="È"/><glyph d="M1282 1806l-178 -287h-353l177 287h354zM1439 1125h-854l-88 -272h844l-85 -257h-841l-92 -285h851l-101 -311h-1237l464 1434h1239z" glyph-name="Eacute" horiz-adv-x="1373" unicode="É"/><glyph d="M930 1654l-131 -135h-355l300 287h498l140 -287h-326l-61 135h-65zM1439 1125h-854l-88 -272h844l-85 -257h-841l-92 -285h851l-101 -311h-1237l464 1434h1239z" glyph-name="Ecircumflex" horiz-adv-x="1373" unicode="Ê"/><glyph d="M696 1533q-55 0 -90.5 35.5t-35.5 88.5q0 65 54 115.5t118 50.5q55 0 90 -37t35 -88q0 -67 -53 -116t-118 -49zM1186 1533q-55 0 -90.5 35.5t-35.5 88.5q0 65 53.5 115.5t118.5 50.5q55 0 90 -37t35 -88q0 -67 -53 -116t-118 -49zM1439 1125h-854l-88 -272h844l-85 -257 h-841l-92 -285h851l-101 -311h-1237l464 1434h1239z" glyph-name="Edieresis" horiz-adv-x="1373" unicode="Ë"/><glyph d="M681 1519h-353l-178 287h353zM-164 0l464 1434h384l-462 -1434h-386z" glyph-name="Igrave" horiz-adv-x="520" unicode="Ì"/><glyph d="M321 1519l177 287h354l-178 -287h-353zM-164 0l464 1434h384l-462 -1434h-386z" glyph-name="Iacute" horiz-adv-x="520" unicode="Í"/><glyph d="M14 1519l300 287h498l140 -287h-326l-61 135h-65l-131 -135h-355zM-164 0l464 1434h384l-462 -1434h-386z" glyph-name="Icircumflex" horiz-adv-x="520" unicode="Î"/><glyph d="M266 1533q-55 0 -90.5 35.5t-35.5 88.5q0 65 53.5 115.5t118.5 50.5q55 0 90 -37t35 -88q0 -67 -53 -116t-118 -49zM756 1533q-55 0 -90.5 35.5t-35.5 88.5q0 65 53.5 115.5t118.5 50.5q55 0 90 -37t35 -88q0 -67 -53 -116t-118 -49zM-164 0l464 1434h384l-462 -1434 h-386z" glyph-name="Idieresis" horiz-adv-x="520" unicode="Ï"/><glyph d="M1046 1434q321 0 476.5 -139.5t155.5 -391.5q0 -271 -134 -478t-365.5 -316t-519.5 -109h-705l184 575h-167l94 283h165l185 576h631zM729 324q239 0 400 152t161 372q0 137 -85 200t-260 63h-249l-82 -253h236l-94 -283h-232l-82 -251h287z" glyph-name="Eth" horiz-adv-x="1708" unicode="Ð"/><glyph d="M1234 1475q-82 0 -185.5 54.5t-150.5 54.5q-41 0 -69.5 -19.5t-33.5 -54.5h-117q-15 128 54.5 194t175.5 66q82 0 185 -54.5t151 -54.5q43 0 71 19.5t32 53.5h119q15 -128 -54.5 -193.5t-177.5 -65.5zM-164 0l468 1434h428l318 -912h42l299 912h375l-466 -1434h-419 l-330 905h-42l-297 -905h-376z" glyph-name="Ntilde" horiz-adv-x="1602" unicode="Ñ"/><glyph d="M1266 1526h-353l-177 286h353zM666 -48q-300 0 -469.5 155.5t-169.5 426.5q0 183 78 356t211 303t321.5 209t398.5 79q300 0 469 -154.5t169 -427.5q0 -183 -77.5 -356t-210.5 -302.5t-321.5 -209t-398.5 -79.5zM727 285q159 0 291 84.5t202 211t72 260.5 q0 147 -89 227.5t-228 80.5q-159 0 -291.5 -84t-203 -210t-72.5 -261q0 -147 88.5 -228t230.5 -81z" glyph-name="Ograve" horiz-adv-x="1699" unicode="Ò"/><glyph d="M906 1526l178 286h353l-177 -286h-354zM666 -48q-300 0 -469.5 155.5t-169.5 426.5q0 183 78 356t211 303t321.5 209t398.5 79q300 0 469 -154.5t169 -427.5q0 -183 -77.5 -356t-210.5 -302.5t-321.5 -209t-398.5 -79.5zM727 285q159 0 291 84.5t202 211t72 260.5 q0 147 -89 227.5t-228 80.5q-159 0 -291.5 -84t-203 -210t-72.5 -261q0 -147 88.5 -228t230.5 -81z" glyph-name="Oacute" horiz-adv-x="1699" unicode="Ó"/><glyph d="M599 1526l300 286h499l140 -286h-326l-62 135h-65l-131 -135h-355zM666 -48q-300 0 -469.5 155.5t-169.5 426.5q0 183 78 356t211 303t321.5 209t398.5 79q300 0 469 -154.5t169 -427.5q0 -183 -77.5 -356t-210.5 -302.5t-321.5 -209t-398.5 -79.5zM727 285 q159 0 291 84.5t202 211t72 260.5q0 147 -89 227.5t-228 80.5q-159 0 -291.5 -84t-203 -210t-72.5 -261q0 -147 88.5 -228t230.5 -81z" glyph-name="Ocircumflex" horiz-adv-x="1699" unicode="Ô"/><glyph d="M1275 1481q-82 0 -185.5 55t-150.5 55q-41 0 -69.5 -20t-33.5 -54h-117q-15 128 54.5 194t175.5 66q82 0 185 -55t151 -55q43 0 71 20t32 54h119q15 -128 -54.5 -194t-177.5 -66zM666 -48q-300 0 -469.5 155.5t-169.5 426.5q0 183 78 356t211 303t321.5 209t398.5 79 q300 0 469 -154.5t169 -427.5q0 -183 -77.5 -356t-210.5 -302.5t-321.5 -209t-398.5 -79.5zM727 285q159 0 291 84.5t202 211t72 260.5q0 147 -89 227.5t-228 80.5q-159 0 -291.5 -84t-203 -210t-72.5 -261q0 -147 88.5 -228t230.5 -81z" glyph-name="Otilde" horiz-adv-x="1699" unicode="Õ"/><glyph d="M852 1539q-55 0 -91 36t-36 89q0 65 54 115.5t119 50.5q55 0 89.5 -37t34.5 -88q0 -67 -52.5 -116.5t-117.5 -49.5zM1341 1539q-55 0 -90.5 36t-35.5 89q0 65 54 115.5t119 50.5q55 0 89.5 -37t34.5 -88q0 -67 -53 -116.5t-118 -49.5zM666 -48q-300 0 -469.5 155.5 t-169.5 426.5q0 183 78 356t211 303t321.5 209t398.5 79q300 0 469 -154.5t169 -427.5q0 -183 -77.5 -356t-210.5 -302.5t-321.5 -209t-398.5 -79.5zM727 285q159 0 291 84.5t202 211t72 260.5q0 147 -89 227.5t-228 80.5q-159 0 -291.5 -84t-203 -210t-72.5 -261 q0 -147 88.5 -228t230.5 -81z" glyph-name="Odieresis" horiz-adv-x="1699" unicode="Ö"/><glyph d="M1106 957l-338 -254l164 -242l-275 -205l-162 239l-335 -253l-155 227l336 255l-170 252l274 205l169 -251l338 254z" glyph-name="multiply" horiz-adv-x="1114" unicode="×"/><glyph d="M1469 1357q205 -155 205 -458q0 -183 -77.5 -356t-210.5 -302.5t-321.5 -209t-398.5 -79.5q-135 0 -248 34l-56 -73h-244l121 159q-212 155 -212 462q0 183 78 356t211 303t321.5 209t398.5 79q143 0 256 -35l60 76h244zM408 594q0 -130 72 -210l578 756q-43 9 -83 9 q-159 0 -291.5 -84t-203 -210t-72.5 -261zM727 285q159 0 291 84.5t202 211t72 260.5q0 121 -65 202l-575 -751q32 -7 75 -7z" glyph-name="Oslash" horiz-adv-x="1699" unicode="Ø"/><glyph d="M1207 1519h-354l-177 287h353zM584 -48q-367 0 -510.5 172.5t-35.5 500.5l266 809h389l-277 -840q-51 -154 5.5 -237.5t216.5 -83.5q166 0 271.5 89t167.5 273l259 799h391l-276 -849q-111 -338 -319 -485.5t-548 -147.5z" glyph-name="Ugrave" horiz-adv-x="1563" unicode="Ù"/><glyph d="M847 1519l177 287h353l-177 -287h-353zM584 -48q-367 0 -510.5 172.5t-35.5 500.5l266 809h389l-277 -840q-51 -154 5.5 -237.5t216.5 -83.5q166 0 271.5 89t167.5 273l259 799h391l-276 -849q-111 -338 -319 -485.5t-548 -147.5z" glyph-name="Uacute" horiz-adv-x="1563" unicode="Ú"/><glyph d="M539 1519l301 287h498l140 -287h-326l-61 135h-65l-132 -135h-355zM584 -48q-367 0 -510.5 172.5t-35.5 500.5l266 809h389l-277 -840q-51 -154 5.5 -237.5t216.5 -83.5q166 0 271.5 89t167.5 273l259 799h391l-276 -849q-111 -338 -319 -485.5t-548 -147.5z" glyph-name="Ucircumflex" horiz-adv-x="1563" unicode="Û"/><glyph d="M792 1533q-55 0 -90.5 35.5t-35.5 88.5q0 65 53.5 115.5t118.5 50.5q55 0 90 -37t35 -88q0 -67 -53 -116t-118 -49zM1282 1533q-55 0 -91 35.5t-36 88.5q0 65 54 115.5t119 50.5q55 0 89.5 -37t34.5 -88q0 -67 -52.5 -116t-117.5 -49zM584 -48q-367 0 -510.5 172.5 t-35.5 500.5l266 809h389l-277 -840q-51 -154 5.5 -237.5t216.5 -83.5q166 0 271.5 89t167.5 273l259 799h391l-276 -849q-111 -338 -319 -485.5t-548 -147.5z" glyph-name="Udieresis" horiz-adv-x="1563" unicode="Ü"/><glyph d="M1370 1806l-177 -287h-353l177 287h353zM1783 1434l-897 -980l-147 -454h-386l150 473l-262 961h387l157 -599h36l536 599h426z" glyph-name="Yacute" horiz-adv-x="1576" unicode="Ý"/><glyph d="M918 1249q312 0 440.5 -147.5t39.5 -425.5q-160 -490 -789 -490h-324l-60 -186h-385l460 1434h386l-60 -185h292zM1033 759q31 89 -13.5 129t-159.5 40h-336l-137 -421h299q118 0 213.5 65.5t133.5 186.5z" glyph-name="Thorn" horiz-adv-x="1450" unicode="Þ"/><glyph d="M-164 0l324 1002q154 469 760 469q280 0 407 -93t127 -241q0 -116 -75 -210t-208 -142l-9 -29q177 -79 178 -282q0 -157 -101 -266t-263 -158.5t-372 -49.5h-269l93 294h236q137 0 229.5 58.5t92.5 159.5q0 119 -186 119h-261l74 222h184q119 0 199.5 45.5t80.5 127.5 q0 118 -213 117q-273 0 -338 -201l-304 -942h-386z" glyph-name="germandbls" horiz-adv-x="1474" unicode="ß"/><glyph d="M1260 1519h-354l-177 287h353zM1026 0l-9 224h-669l-152 -224h-411l997 1434h541l83 -1434h-380zM544 512h463l-22 560h-60z" glyph-name="agrave" unicode="à"/><glyph d="M1430 1806l-177 -287h-354l178 287h353zM782 1434h541l83 -1434h-380l-9 224h-669l-152 -224h-411zM544 512h463l-22 560h-60z" glyph-name="aacute" unicode="á"/><glyph d="M1079 1654l-132 -135h-355l301 287h498l140 -287h-326l-62 135h-64zM782 1434h541l83 -1434h-380l-9 224h-669l-152 -224h-411zM544 512h463l-22 560h-60z" glyph-name="acircumflex" unicode="â"/><glyph d="M1500 1734q15 -128 -54.5 -193.5t-177.5 -65.5q-82 0 -185 54.5t-151 54.5q-41 0 -69 -19.5t-34 -54.5h-117q-15 128 54.5 194t175.5 66q82 0 185.5 -54.5t150.5 -54.5q43 0 71 19.5t32 53.5h119zM782 1434h541l83 -1434h-380l-9 224h-669l-152 -224h-411zM544 512h463 l-22 560h-60z" glyph-name="atilde" unicode="ã"/><glyph d="M845 1533q-55 0 -90.5 35.5t-35.5 88.5q0 65 53.5 115.5t118.5 50.5q55 0 89.5 -37t34.5 -88q0 -67 -52.5 -116t-117.5 -49zM1381 1823q55 0 89.5 -37t34.5 -88q0 -67 -53 -116t-117 -49q-55 0 -91 35.5t-36 88.5q0 65 54 115.5t119 50.5zM782 1434h541l83 -1434h-380 l-9 224h-669l-152 -224h-411zM544 512h463l-22 560h-60z" glyph-name="adieresis" unicode="ä"/><glyph d="M1026 0l-9 224h-669l-152 -224h-411l997 1434h175q-89 48 -88.5 160.5t80.5 188.5t186 76q84 0 134 -51.5t50 -131.5q0 -77 -42.5 -143.5t-112.5 -98.5h159l83 -1434h-380zM1108 1691q-27 0 -48 -21t-21 -50q0 -15 12 -27.5t33 -12.5q29 0 48.5 21.5t19.5 48.5 q0 17 -12 29t-32 12zM544 512h463l-22 560h-60z" glyph-name="aring" unicode="å"/><glyph d="M2429 1125h-854l-88 -272h844l-85 -257h-841l-93 -285h852l-101 -311h-1237l82 253h-515l-198 -253h-410l1155 1434h1589zM614 538h386l186 575h-121z" glyph-name="ae" horiz-adv-x="2363" unicode="æ"/><glyph d="M978 1149q-242 0 -405 -171t-163 -386q0 -147 90.5 -227t238.5 -80q276 0 439 247h375q-67 -166 -173.5 -284t-231 -179.5t-242.5 -89t-240 -27.5h-19l-27 -17q56 -12 92 -54.5t36 -114.5q0 -145 -141 -204.5t-327 -6.5l44 146q68 -20 142.5 -2t74.5 60q0 19 -21.5 31 t-64 13.5t-105.5 -10.5l27 91l120 84q-222 41 -345 190t-123 380q0 184 77.5 356.5t211 302t325.5 207t408 77.5q300 0 473.5 -165.5t130.5 -417.5h-368q-10 123 -95.5 187t-213.5 64z" glyph-name="ccedilla" horiz-adv-x="1657" unicode="ç"/><glyph d="M1111 1519h-353l-178 287h354zM1439 1125h-854l-88 -272h844l-85 -257h-841l-92 -285h851l-101 -311h-1237l464 1434h1239z" glyph-name="egrave" horiz-adv-x="1373" unicode="è"/><glyph d="M1282 1806l-178 -287h-353l177 287h354zM1439 1125h-854l-88 -272h844l-85 -257h-841l-92 -285h851l-101 -311h-1237l464 1434h1239z" glyph-name="eacute" horiz-adv-x="1373" unicode="é"/><glyph d="M930 1654l-131 -135h-355l300 287h498l140 -287h-326l-61 135h-65zM1439 1125h-854l-88 -272h844l-85 -257h-841l-92 -285h851l-101 -311h-1237l464 1434h1239z" glyph-name="ecircumflex" horiz-adv-x="1373" unicode="ê"/><glyph d="M696 1533q-55 0 -90.5 35.5t-35.5 88.5q0 65 54 115.5t118 50.5q55 0 90 -37t35 -88q0 -67 -53 -116t-118 -49zM1186 1533q-55 0 -90.5 35.5t-35.5 88.5q0 65 53.5 115.5t118.5 50.5q55 0 90 -37t35 -88q0 -67 -53 -116t-118 -49zM1439 1125h-854l-88 -272h844l-85 -257 h-841l-92 -285h851l-101 -311h-1237l464 1434h1239z" glyph-name="edieresis" horiz-adv-x="1373" unicode="ë"/><glyph d="M681 1519h-353l-178 287h353zM-164 0l464 1434h384l-462 -1434h-386z" glyph-name="igrave" horiz-adv-x="520" unicode="ì"/><glyph d="M321 1519l177 287h354l-178 -287h-353zM-164 0l464 1434h384l-462 -1434h-386z" glyph-name="iacute" horiz-adv-x="520" unicode="í"/><glyph d="M14 1519l300 287h498l140 -287h-326l-61 135h-65l-131 -135h-355zM-164 0l464 1434h384l-462 -1434h-386z" glyph-name="icircumflex" horiz-adv-x="520" unicode="î"/><glyph d="M266 1533q-55 0 -90.5 35.5t-35.5 88.5q0 65 53.5 115.5t118.5 50.5q55 0 90 -37t35 -88q0 -67 -53 -116t-118 -49zM756 1533q-55 0 -90.5 35.5t-35.5 88.5q0 65 53.5 115.5t118.5 50.5q55 0 90 -37t35 -88q0 -67 -53 -116t-118 -49zM-164 0l464 1434h384l-462 -1434 h-386z" glyph-name="idieresis" horiz-adv-x="520" unicode="ï"/><glyph d="M1046 1434q321 0 476.5 -139.5t155.5 -391.5q0 -271 -134 -478t-365.5 -316t-519.5 -109h-705l184 575h-167l94 283h165l185 576h631zM729 324q239 0 400 152t161 372q0 137 -85 200t-260 63h-249l-82 -253h236l-94 -283h-232l-82 -251h287z" glyph-name="eth" horiz-adv-x="1708" unicode="ð"/><glyph d="M1234 1475q-82 0 -185.5 54.5t-150.5 54.5q-41 0 -69.5 -19.5t-33.5 -54.5h-117q-15 128 54.5 194t175.5 66q82 0 185 -54.5t151 -54.5q43 0 71 19.5t32 53.5h119q15 -128 -54.5 -193.5t-177.5 -65.5zM-164 0l468 1434h428l318 -912h42l299 912h375l-466 -1434h-419 l-330 905h-42l-297 -905h-376z" glyph-name="ntilde" horiz-adv-x="1602" unicode="ñ"/><glyph d="M1266 1526h-353l-177 286h353zM666 -48q-300 0 -469.5 155.5t-169.5 426.5q0 183 78 356t211 303t321.5 209t398.5 79q300 0 469 -154.5t169 -427.5q0 -183 -77.5 -356t-210.5 -302.5t-321.5 -209t-398.5 -79.5zM727 285q159 0 291 84.5t202 211t72 260.5 q0 147 -89 227.5t-228 80.5q-159 0 -291.5 -84t-203 -210t-72.5 -261q0 -147 88.5 -228t230.5 -81z" glyph-name="ograve" horiz-adv-x="1699" unicode="ò"/><glyph d="M906 1526l178 286h353l-177 -286h-354zM666 -48q-300 0 -469.5 155.5t-169.5 426.5q0 183 78 356t211 303t321.5 209t398.5 79q300 0 469 -154.5t169 -427.5q0 -183 -77.5 -356t-210.5 -302.5t-321.5 -209t-398.5 -79.5zM727 285q159 0 291 84.5t202 211t72 260.5 q0 147 -89 227.5t-228 80.5q-159 0 -291.5 -84t-203 -210t-72.5 -261q0 -147 88.5 -228t230.5 -81z" glyph-name="oacute" horiz-adv-x="1699" unicode="ó"/><glyph d="M599 1526l300 286h499l140 -286h-326l-62 135h-65l-131 -135h-355zM666 -48q-300 0 -469.5 155.5t-169.5 426.5q0 183 78 356t211 303t321.5 209t398.5 79q300 0 469 -154.5t169 -427.5q0 -183 -77.5 -356t-210.5 -302.5t-321.5 -209t-398.5 -79.5zM727 285 q159 0 291 84.5t202 211t72 260.5q0 147 -89 227.5t-228 80.5q-159 0 -291.5 -84t-203 -210t-72.5 -261q0 -147 88.5 -228t230.5 -81z" glyph-name="ocircumflex" horiz-adv-x="1699" unicode="ô"/><glyph d="M1275 1481q-82 0 -185.5 55t-150.5 55q-41 0 -69.5 -20t-33.5 -54h-117q-15 128 54.5 194t175.5 66q82 0 185 -55t151 -55q43 0 71 20t32 54h119q15 -128 -54.5 -194t-177.5 -66zM666 -48q-300 0 -469.5 155.5t-169.5 426.5q0 183 78 356t211 303t321.5 209t398.5 79 q300 0 469 -154.5t169 -427.5q0 -183 -77.5 -356t-210.5 -302.5t-321.5 -209t-398.5 -79.5zM727 285q159 0 291 84.5t202 211t72 260.5q0 147 -89 227.5t-228 80.5q-159 0 -291.5 -84t-203 -210t-72.5 -261q0 -147 88.5 -228t230.5 -81z" glyph-name="otilde" horiz-adv-x="1699" unicode="õ"/><glyph d="M852 1539q-55 0 -91 36t-36 89q0 65 54 115.5t119 50.5q55 0 89.5 -37t34.5 -88q0 -67 -52.5 -116.5t-117.5 -49.5zM1341 1539q-55 0 -90.5 36t-35.5 89q0 65 54 115.5t119 50.5q55 0 89.5 -37t34.5 -88q0 -67 -53 -116.5t-118 -49.5zM666 -48q-300 0 -469.5 155.5 t-169.5 426.5q0 183 78 356t211 303t321.5 209t398.5 79q300 0 469 -154.5t169 -427.5q0 -183 -77.5 -356t-210.5 -302.5t-321.5 -209t-398.5 -79.5zM727 285q159 0 291 84.5t202 211t72 260.5q0 147 -89 227.5t-228 80.5q-159 0 -291.5 -84t-203 -210t-72.5 -261 q0 -147 88.5 -228t230.5 -81z" glyph-name="odieresis" horiz-adv-x="1699" unicode="ö"/><glyph d="M691 975q-67 0 -108.5 41.5t-41.5 106.5q0 85 59 142.5t142 57.5q67 0 109 -42t42 -107q0 -84 -60 -141.5t-142 -57.5zM43 582l85 271h997l-86 -271h-996zM415 109q-67 0 -108.5 41t-41.5 108q0 85 58.5 142t142.5 57q67 0 108.5 -41.5t41.5 -106.5q0 -84 -59.5 -142 t-141.5 -58z" glyph-name="divide" horiz-adv-x="1167" unicode="÷"/><glyph d="M1469 1357q205 -155 205 -458q0 -183 -77.5 -356t-210.5 -302.5t-321.5 -209t-398.5 -79.5q-135 0 -248 34l-56 -73h-244l121 159q-212 155 -212 462q0 183 78 356t211 303t321.5 209t398.5 79q143 0 256 -35l60 76h244zM408 594q0 -130 72 -210l578 756q-43 9 -83 9 q-159 0 -291.5 -84t-203 -210t-72.5 -261zM727 285q159 0 291 84.5t202 211t72 260.5q0 121 -65 202l-575 -751q32 -7 75 -7z" glyph-name="oslash" horiz-adv-x="1699" unicode="ø"/><glyph d="M1207 1519h-354l-177 287h353zM584 -48q-367 0 -510.5 172.5t-35.5 500.5l266 809h389l-277 -840q-51 -154 5.5 -237.5t216.5 -83.5q166 0 271.5 89t167.5 273l259 799h391l-276 -849q-111 -338 -319 -485.5t-548 -147.5z" glyph-name="ugrave" horiz-adv-x="1563" unicode="ù"/><glyph d="M847 1519l177 287h353l-177 -287h-353zM584 -48q-367 0 -510.5 172.5t-35.5 500.5l266 809h389l-277 -840q-51 -154 5.5 -237.5t216.5 -83.5q166 0 271.5 89t167.5 273l259 799h391l-276 -849q-111 -338 -319 -485.5t-548 -147.5z" glyph-name="uacute" horiz-adv-x="1563" unicode="ú"/><glyph d="M539 1519l301 287h498l140 -287h-326l-61 135h-65l-132 -135h-355zM584 -48q-367 0 -510.5 172.5t-35.5 500.5l266 809h389l-277 -840q-51 -154 5.5 -237.5t216.5 -83.5q166 0 271.5 89t167.5 273l259 799h391l-276 -849q-111 -338 -319 -485.5t-548 -147.5z" glyph-name="ucircumflex" horiz-adv-x="1563" unicode="û"/><glyph d="M792 1533q-55 0 -90.5 35.5t-35.5 88.5q0 65 53.5 115.5t118.5 50.5q55 0 90 -37t35 -88q0 -67 -53 -116t-118 -49zM1282 1533q-55 0 -91 35.5t-36 88.5q0 65 54 115.5t119 50.5q55 0 89.5 -37t34.5 -88q0 -67 -52.5 -116t-117.5 -49zM584 -48q-367 0 -510.5 172.5 t-35.5 500.5l266 809h389l-277 -840q-51 -154 5.5 -237.5t216.5 -83.5q166 0 271.5 89t167.5 273l259 799h391l-276 -849q-111 -338 -319 -485.5t-548 -147.5z" glyph-name="udieresis" horiz-adv-x="1563" unicode="ü"/><glyph d="M1370 1806l-177 -287h-353l177 287h353zM1783 1434l-897 -980l-147 -454h-386l150 473l-262 961h387l157 -599h36l536 599h426z" glyph-name="yacute" horiz-adv-x="1576" unicode="ý"/><glyph d="M918 1249q312 0 440.5 -147.5t39.5 -425.5q-160 -490 -789 -490h-324l-60 -186h-385l460 1434h386l-60 -185h292zM1033 759q31 89 -13.5 129t-159.5 40h-336l-137 -421h299q118 0 213.5 65.5t133.5 186.5z" glyph-name="thorn" horiz-adv-x="1450" unicode="þ"/><glyph d="M785 1533q-55 0 -90.5 35.5t-35.5 88.5q0 65 53.5 115.5t118.5 50.5q55 0 90 -37t35 -88q0 -67 -53 -116t-118 -49zM1275 1533q-55 0 -90.5 35.5t-35.5 88.5q0 65 53.5 115.5t118.5 50.5q55 0 90 -37t35 -88q0 -67 -53 -116t-118 -49zM1783 1434l-897 -980l-147 -454 h-386l150 473l-262 961h387l157 -599h36l536 599h426z" glyph-name="ydieresis" horiz-adv-x="1576" unicode="ÿ"/><glyph d="M833 1809h717l-94 -283h-717zM782 1434h541l83 -1434h-380l-9 224h-669l-152 -224h-411zM544 512h463l-22 560h-60z" glyph-name="Amacron" unicode="Ā"/><glyph d="M833 1809h717l-94 -283h-717zM782 1434h541l83 -1434h-380l-9 224h-669l-152 -224h-411zM544 512h463l-22 560h-60z" glyph-name="amacron" unicode="ā"/><glyph d="M1309 1806h225q-68 -287 -421 -287q-177 0 -258.5 67.5t-40.5 219.5h225q-22 -111 101 -111q60 0 106 28t63 83zM782 1434h541l83 -1434h-380l-9 224h-669l-152 -224h-411zM544 512h463l-22 560h-60z" glyph-name="Abreve" unicode="Ă"/><glyph d="M1309 1806h225q-68 -287 -421 -287q-177 0 -258.5 67.5t-40.5 219.5h225q-22 -111 101 -111q60 0 106 28t63 83zM782 1434h541l83 -1434h-380l-9 224h-669l-152 -224h-411zM544 512h463l-22 560h-60z" glyph-name="abreve" unicode="ă"/><glyph d="M1029 0q-80 0 -116 -32.5t-36 -75.5q0 -36 25.5 -63t87.5 -25v-217q-61 0 -121 11t-120 37.5t-96.5 79.5t-36.5 126q0 80 42.5 136.5t114.5 82t129 35t120 11.5l-5 118h-669l-152 -224h-411l997 1434h541l83 -1434h-377zM544 512h463l-22 560h-60z" glyph-name="Aogonek" unicode="Ą"/><glyph d="M1029 0q-80 0 -116 -32.5t-36 -75.5q0 -36 25.5 -63t87.5 -25v-217q-61 0 -121 11t-120 37.5t-96.5 79.5t-36.5 126q0 80 42.5 136.5t114.5 82t129 35t120 11.5l-5 118h-669l-152 -224h-411l997 1434h541l83 -1434h-377zM544 512h463l-22 560h-60z" glyph-name="aogonek" unicode="ą"/><glyph d="M940 1519l178 287h353l-177 -287h-354zM666 -48q-299 0 -468 156.5t-169 429.5q0 184 77.5 356.5t211 302t325.5 207t408 77.5q300 0 473.5 -165.5t130.5 -417.5h-368q-10 123 -95.5 187t-213.5 64q-242 0 -405 -171t-163 -386q0 -147 90.5 -227t238.5 -80q276 0 439 247 h375q-67 -166 -173.5 -284t-231 -179.5t-242 -89t-240.5 -27.5z" glyph-name="Cacute" horiz-adv-x="1657" unicode="Ć"/><glyph d="M940 1519l178 287h353l-177 -287h-354zM666 -48q-299 0 -468 156.5t-169 429.5q0 184 77.5 356.5t211 302t325.5 207t408 77.5q300 0 473.5 -165.5t130.5 -417.5h-368q-10 123 -95.5 187t-213.5 64q-242 0 -405 -171t-163 -386q0 -147 90.5 -227t238.5 -80q276 0 439 247 h375q-67 -166 -173.5 -284t-231 -179.5t-242 -89t-240.5 -27.5z" glyph-name="cacute" horiz-adv-x="1657" unicode="ć"/><glyph d="M1164 1533q-55 0 -90.5 35.5t-35.5 88.5q0 65 53.5 115.5t118.5 50.5q55 0 90 -37t35 -88q0 -67 -53 -116t-118 -49zM666 -48q-299 0 -468 156.5t-169 429.5q0 184 77.5 356.5t211 302t325.5 207t408 77.5q300 0 473.5 -165.5t130.5 -417.5h-368q-10 123 -95.5 187 t-213.5 64q-242 0 -405 -171t-163 -386q0 -147 90.5 -227t238.5 -80q276 0 439 247h375q-67 -166 -173.5 -284t-231 -179.5t-242 -89t-240.5 -27.5z" glyph-name="Cdotaccent" horiz-adv-x="1657" unicode="Ċ"/><glyph d="M1164 1533q-55 0 -90.5 35.5t-35.5 88.5q0 65 53.5 115.5t118.5 50.5q55 0 90 -37t35 -88q0 -67 -53 -116t-118 -49zM666 -48q-299 0 -468 156.5t-169 429.5q0 184 77.5 356.5t211 302t325.5 207t408 77.5q300 0 473.5 -165.5t130.5 -417.5h-368q-10 123 -95.5 187 t-213.5 64q-242 0 -405 -171t-163 -386q0 -147 90.5 -227t238.5 -80q276 0 439 247h375q-67 -166 -173.5 -284t-231 -179.5t-242 -89t-240.5 -27.5z" glyph-name="cdotaccent" horiz-adv-x="1657" unicode="ċ"/><glyph d="M978 1149q-242 0 -405 -171t-163 -386q0 -147 90.5 -227t238.5 -80q276 0 439 247h375q-67 -166 -173.5 -284t-231 -179.5t-242.5 -89t-240 -27.5q-299 0 -468 156.5t-169 429.5q0 177 71.5 344.5t197 295.5t305.5 209t385 93h-136l-140 286h326l61 -134h65l131 134h355 l-300 -286h-242q276 -17 432 -180t115 -402h-368q-10 123 -95.5 187t-213.5 64z" glyph-name="Ccaron" horiz-adv-x="1657" unicode="Č"/><glyph d="M978 1149q-242 0 -405 -171t-163 -386q0 -147 90.5 -227t238.5 -80q276 0 439 247h375q-67 -166 -173.5 -284t-231 -179.5t-242.5 -89t-240 -27.5q-299 0 -468 156.5t-169 429.5q0 177 71.5 344.5t197 295.5t305.5 209t385 93h-136l-140 286h326l61 -134h65l131 134h355 l-300 -286h-242q276 -17 432 -180t115 -402h-368q-10 123 -95.5 187t-213.5 64z" glyph-name="ccaron" horiz-adv-x="1657" unicode="č"/><glyph d="M1538 1766l-301 -286h-498l-140 286h326l61 -134h65l132 134h355zM-160 0l460 1434h632q321 0 476 -139.5t155 -391.5q0 -271 -134 -478t-365 -316t-520 -109h-704zM328 324h286q239 0 400.5 152t161.5 372q0 137 -85.5 200t-259.5 63h-249z" glyph-name="Dcaron" horiz-adv-x="1594" unicode="Ď"/><glyph d="M1538 1766l-301 -286h-498l-140 286h326l61 -134h65l132 134h355zM-160 0l460 1434h632q321 0 476 -139.5t155 -391.5q0 -271 -134 -478t-365 -316t-520 -109h-704zM328 324h286q239 0 400.5 152t161.5 372q0 137 -85.5 200t-259.5 63h-249z" glyph-name="dcaron" horiz-adv-x="1594" unicode="ď"/><glyph d="M1046 1434q321 0 476.5 -139.5t155.5 -391.5q0 -271 -134 -478t-365.5 -316t-519.5 -109h-705l184 575h-167l94 283h165l185 576h631zM729 324q239 0 400 152t161 372q0 137 -85 200t-260 63h-249l-82 -253h236l-94 -283h-232l-82 -251h287z" glyph-name="Dcroat" horiz-adv-x="1708" unicode="Đ"/><glyph d="M1046 1434q321 0 476.5 -139.5t155.5 -391.5q0 -271 -134 -478t-365.5 -316t-519.5 -109h-705l184 575h-167l94 283h165l185 576h631zM729 324q239 0 400 152t161 372q0 137 -85 200t-260 63h-249l-82 -253h236l-94 -283h-232l-82 -251h287z" glyph-name="dcroat" horiz-adv-x="1708" unicode="đ"/><glyph d="M1401 1809l-94 -283h-716l93 283h717zM1439 1125h-854l-88 -272h844l-85 -257h-841l-92 -285h851l-101 -311h-1237l464 1434h1239z" glyph-name="Emacron" horiz-adv-x="1373" unicode="Ē"/><glyph d="M1401 1809l-94 -283h-716l93 283h717zM1439 1125h-854l-88 -272h844l-85 -257h-841l-92 -285h851l-101 -311h-1237l464 1434h1239z" glyph-name="emacron" horiz-adv-x="1373" unicode="ē"/><glyph d="M975 1533q-55 0 -91 35.5t-36 88.5q0 65 54 115.5t119 50.5q55 0 89.5 -37t34.5 -88q0 -67 -52.5 -116t-117.5 -49zM1439 1125h-854l-88 -272h844l-85 -257h-841l-92 -285h851l-101 -311h-1237l464 1434h1239z" glyph-name="Edotaccent" horiz-adv-x="1373" unicode="Ė"/><glyph d="M975 1533q-55 0 -91 35.5t-36 88.5q0 65 54 115.5t119 50.5q55 0 89.5 -37t34.5 -88q0 -67 -52.5 -116t-117.5 -49zM1439 1125h-854l-88 -272h844l-85 -257h-841l-92 -285h851l-101 -311h-1237l464 1434h1239z" glyph-name="edotaccent" horiz-adv-x="1373" unicode="ė"/><glyph d="M1439 1125h-854l-88 -272h844l-85 -257h-841l-92 -285h851l-99 -306v-5q-80 0 -116 -32.5t-36 -75.5q0 -36 26 -63t87 -25v-217q-61 0 -121 11t-119.5 37.5t-96.5 79.5t-37 126q0 96 63 159h-889l464 1434h1239z" glyph-name="Eogonek" horiz-adv-x="1373" unicode="Ę"/><glyph d="M1439 1125h-854l-88 -272h844l-85 -257h-841l-92 -285h851l-99 -306v-5q-80 0 -116 -32.5t-36 -75.5q0 -36 26 -63t87 -25v-217q-61 0 -121 11t-119.5 37.5t-96.5 79.5t-37 126q0 96 63 159h-889l464 1434h1239z" glyph-name="eogonek" horiz-adv-x="1373" unicode="ę"/><glyph d="M1161 1480h-499l-140 286h326l62 -134h65l131 134h355zM1439 1125h-854l-88 -272h844l-85 -257h-841l-92 -285h851l-101 -311h-1237l464 1434h1239z" glyph-name="Ecaron" horiz-adv-x="1373" unicode="Ě"/><glyph d="M1161 1480h-499l-140 286h326l62 -134h65l131 134h355zM1439 1125h-854l-88 -272h844l-85 -257h-841l-92 -285h851l-101 -311h-1237l464 1434h1239z" glyph-name="ecaron" horiz-adv-x="1373" unicode="ě"/><glyph d="M1073 1519q-177 0 -258 67.5t-40 219.5h225q-22 -111 101 -111q60 0 106 28t63 83h225q-69 -287 -422 -287zM978 1149q-242 0 -405 -171t-163 -386q0 -147 90.5 -227t238.5 -80q77 0 154.5 19t166.5 83.5t135 167.5h-415l70 216h792l-249 -771h-217l53 183 q-99 -108 -247.5 -169.5t-326.5 -61.5q-294 0 -460 153t-166 426q0 188 77.5 361t211 303.5t325.5 208t408 77.5q283 0 456.5 -148.5t158.5 -376.5h-384q-27 94 -109 143.5t-195 49.5z" glyph-name="Gbreve" horiz-adv-x="1687" unicode="Ğ"/><glyph d="M1073 1519q-177 0 -258 67.5t-40 219.5h225q-22 -111 101 -111q60 0 106 28t63 83h225q-69 -287 -422 -287zM978 1149q-242 0 -405 -171t-163 -386q0 -147 90.5 -227t238.5 -80q77 0 154.5 19t166.5 83.5t135 167.5h-415l70 216h792l-249 -771h-217l53 183 q-99 -108 -247.5 -169.5t-326.5 -61.5q-294 0 -460 153t-166 426q0 188 77.5 361t211 303.5t325.5 208t408 77.5q283 0 456.5 -148.5t158.5 -376.5h-384q-27 94 -109 143.5t-195 49.5z" glyph-name="gbreve" horiz-adv-x="1687" unicode="ğ"/><glyph d="M1084 1533q-55 0 -91 35.5t-36 88.5q0 65 54 115.5t119 50.5q55 0 89.5 -37t34.5 -88q0 -67 -52.5 -116t-117.5 -49zM978 1149q-242 0 -405 -171t-163 -386q0 -147 90.5 -227t238.5 -80q77 0 154.5 19t166.5 83.5t135 167.5h-415l70 216h792l-249 -771h-217l53 183 q-99 -108 -247.5 -169.5t-326.5 -61.5q-294 0 -460 153t-166 426q0 188 77.5 361t211 303.5t325.5 208t408 77.5q283 0 456.5 -148.5t158.5 -376.5h-384q-27 94 -109 143.5t-195 49.5z" glyph-name="Gdotaccent" horiz-adv-x="1687" unicode="Ġ"/><glyph d="M1084 1533q-55 0 -91 35.5t-36 88.5q0 65 54 115.5t119 50.5q55 0 89.5 -37t34.5 -88q0 -67 -52.5 -116t-117.5 -49zM978 1149q-242 0 -405 -171t-163 -386q0 -147 90.5 -227t238.5 -80q77 0 154.5 19t166.5 83.5t135 167.5h-415l70 216h792l-249 -771h-217l53 183 q-99 -108 -247.5 -169.5t-326.5 -61.5q-294 0 -460 153t-166 426q0 188 77.5 361t211 303.5t325.5 208t408 77.5q283 0 456.5 -148.5t158.5 -376.5h-384q-27 94 -109 143.5t-195 49.5z" glyph-name="gdotaccent" horiz-adv-x="1687" unicode="ġ"/><glyph d="M978 1149q-242 0 -405 -171t-163 -386q0 -147 90.5 -227t238.5 -80q77 0 154.5 19t166.5 83.5t135 167.5h-415l70 216h792l-249 -771h-217l53 183q-99 -108 -247.5 -169.5t-326.5 -61.5q-294 0 -460 153t-166 426q0 188 77.5 361t211 303.5t325.5 208t408 77.5 q283 0 456.5 -148.5t158.5 -376.5h-384q-27 94 -109 143.5t-195 49.5zM365 -393l91 285h423l-2 -6q-145 -432 -305 -634h-188q89 186 133 355h-152z" glyph-name="Gcommaaccent" horiz-adv-x="1687" unicode="Ģ"/><glyph d="M978 1149q-242 0 -405 -171t-163 -386q0 -147 90.5 -227t238.5 -80q77 0 154.5 19t166.5 83.5t135 167.5h-415l70 216h792l-249 -771h-217l53 183q-99 -108 -247.5 -169.5t-326.5 -61.5q-294 0 -460 153t-166 426q0 188 77.5 361t211 303.5t325.5 208t408 77.5 q283 0 456.5 -148.5t158.5 -376.5h-384q-27 94 -109 143.5t-195 49.5zM365 -393l91 285h423l-2 -6q-145 -432 -305 -634h-188q89 186 133 355h-152z" glyph-name="gcommaaccent" horiz-adv-x="1687" unicode="ģ"/><glyph d="M1340 1434h385l-460 -1434h-386l176 544h-654l-176 -544h-385l460 1434h386l-55 -173h654zM502 862h653l43 130h-654z" glyph-name="Hbar" horiz-adv-x="1565" unicode="Ħ"/><glyph d="M1340 1434h385l-460 -1434h-386l176 544h-654l-176 -544h-385l460 1434h386l-55 -173h654zM502 862h653l43 130h-654z" glyph-name="hbar" horiz-adv-x="1565" unicode="ħ"/><glyph d="M160 1526l94 283h717l-94 -283h-717zM-164 0l464 1434h384l-462 -1434h-386z" glyph-name="Imacron" horiz-adv-x="520" unicode="Ī"/><glyph d="M160 1526l94 283h717l-94 -283h-717zM-164 0l464 1434h384l-462 -1434h-386z" glyph-name="imacron" horiz-adv-x="520" unicode="ī"/><glyph d="M222 0q-80 0 -116 -32.5t-36 -75.5q0 -36 25.5 -63t87.5 -25v-217q-61 0 -121 11t-120 37.5t-96.5 79.5t-36.5 126q0 96 63 159h-36l464 1434h384z" glyph-name="Iogonek" horiz-adv-x="520" unicode="Į"/><glyph d="M222 0q-80 0 -116 -32.5t-36 -75.5q0 -36 25.5 -63t87.5 -25v-217q-61 0 -121 11t-120 37.5t-96.5 79.5t-36.5 126q0 96 63 159h-36l464 1434h384z" glyph-name="iogonek" horiz-adv-x="520" unicode="į"/><glyph d="M544 1533q-55 0 -90.5 35.5t-35.5 88.5q0 65 54 115.5t119 50.5q55 0 89.5 -37t34.5 -88q0 -67 -53 -116t-118 -49zM-164 0l464 1434h384l-462 -1434h-386z" glyph-name="Idotaccent" horiz-adv-x="520" unicode="İ"/><glyph d="M-164 0l464 1434h384l-462 -1434h-386z" glyph-name="dotlessi" horiz-adv-x="520" unicode="ı"/><glyph d="M-164 0l464 1434h384l-462 -1434h-386zM963 -48q-300 0 -428.5 145t-31.5 458h383q-48 -155 3 -215t150 -60q106 0 194 66.5t137 218.5l280 869h386l-280 -871q-106 -335 -302 -473t-491 -138z" glyph-name="IJ" horiz-adv-x="1872" unicode="Ĳ"/><glyph d="M1731 1434l-786 -647l453 -787h-386l-341 596h-29l-306 -239l-116 -357h-384l468 1434h382l-191 -591h46l741 591h449zM241 -393l90 285h423l-1 -6q-145 -432 -306 -634h-188q89 186 134 355h-152z" glyph-name="Kcommaaccent" horiz-adv-x="1587" unicode="Ķ"/><glyph d="M1731 1434l-786 -647l453 -787h-386l-341 596h-29l-306 -239l-116 -357h-384l468 1434h382l-191 -591h46l741 591h449zM241 -393l90 285h423l-1 -6q-145 -432 -306 -634h-188q89 186 134 355h-152z" glyph-name="kcommaaccent" horiz-adv-x="1587" unicode="ķ"/><glyph d="M331 1502l178 287h353l-178 -287h-353zM-164 0l466 1434h386l-364 -1111h828l-102 -323h-1214z" glyph-name="Lacute" horiz-adv-x="1339" unicode="Ĺ"/><glyph d="M331 1502l178 287h353l-178 -287h-353zM-164 0l466 1434h386l-364 -1111h828l-102 -323h-1214z" glyph-name="lacute" horiz-adv-x="1339" unicode="ĺ"/><glyph d="M-164 0l466 1434h386l-364 -1111h828l-102 -323h-1214zM126 -748q89 186 133 355h-151l90 285h423l-1 -6q-145 -432 -306 -634h-188z" glyph-name="Lcommaaccent" horiz-adv-x="1339" unicode="Ļ"/><glyph d="M-164 0l466 1434h386l-364 -1111h828l-102 -323h-1214zM126 -748q89 186 133 355h-151l90 285h423l-1 -6q-145 -432 -306 -634h-188z" glyph-name="lcommaaccent" horiz-adv-x="1339" unicode="ļ"/><glyph d="M766 712q102 217 150 401h-172l103 322h477l-1 -8q-164 -492 -345 -715h-212zM-164 0l466 1434h386l-364 -1111h828l-102 -323h-1214z" glyph-name="Lcaron" horiz-adv-x="1339" unicode="Ľ"/><glyph d="M766 712q102 217 150 401h-172l103 322h477l-1 -8q-164 -492 -345 -715h-212zM-164 0l466 1434h386l-364 -1111h828l-102 -323h-1214z" glyph-name="lcaron" horiz-adv-x="1339" unicode="ľ"/><glyph d="M-164 0l466 1434h386l-364 -1111h828l-102 -323h-1214zM1026 703q-77 0 -124 47t-47 122q0 96 67.5 160.5t161.5 64.5q75 0 122 -46.5t47 -122.5q0 -94 -67.5 -159.5t-159.5 -65.5z" glyph-name="Ldot" horiz-adv-x="1339" unicode="Ŀ"/><glyph d="M375 323h828l-102 -323h-1214l115 352l-77 -47l26 287l160 97l242 745h386l-148 -453l252 154l-24 -287l-339 -206z" glyph-name="Lslash" horiz-adv-x="1390" unicode="Ł"/><glyph d="M375 323h828l-102 -323h-1214l115 352l-77 -47l26 287l160 97l242 745h386l-148 -453l252 154l-24 -287l-339 -206z" glyph-name="lslash" horiz-adv-x="1390" unicode="ł"/><glyph d="M865 1519l178 287h353l-177 -287h-354zM-164 0l468 1434h428l318 -912h42l299 912h375l-466 -1434h-419l-330 905h-42l-297 -905h-376z" glyph-name="Nacute" horiz-adv-x="1602" unicode="Ń"/><glyph d="M865 1519l178 287h353l-177 -287h-354zM-164 0l468 1434h428l318 -912h42l299 912h375l-466 -1434h-419l-330 905h-42l-297 -905h-376z" glyph-name="nacute" horiz-adv-x="1602" unicode="ń"/><glyph d="M-164 0l468 1434h428l318 -912h42l299 912h375l-466 -1434h-419l-330 905h-42l-297 -905h-376zM271 -748q89 186 133 355h-151l90 285h423l-1 -6q-145 -432 -306 -634h-188z" glyph-name="Ncommaaccent" horiz-adv-x="1602" unicode="Ņ"/><glyph d="M-164 0l468 1434h428l318 -912h42l299 912h375l-466 -1434h-419l-330 905h-42l-297 -905h-376zM271 -748q89 186 133 355h-151l90 285h423l-1 -6q-145 -432 -306 -634h-188z" glyph-name="ncommaaccent" horiz-adv-x="1602" unicode="ņ"/><glyph d="M1575 1766l-300 -286h-498l-140 286h326l61 -134h65l131 134h355zM-164 0l468 1434h428l318 -912h42l299 912h375l-466 -1434h-419l-330 905h-42l-297 -905h-376z" glyph-name="Ncaron" horiz-adv-x="1602" unicode="Ň"/><glyph d="M1575 1766l-300 -286h-498l-140 286h326l61 -134h65l131 134h355zM-164 0l468 1434h428l318 -912h42l299 912h375l-466 -1434h-419l-330 905h-42l-297 -905h-376z" glyph-name="ncaron" horiz-adv-x="1602" unicode="ň"/><glyph d="M1766 1434l-466 -1434l-6 -19q-84 -258 -275 -373t-487 -115l77 323q96 0 185.5 45t128.5 139h-42l-330 905h-42l-297 -905h-376l468 1434h428l318 -912h42l34 103l106 329h2l157 480h375z" glyph-name="Eng" horiz-adv-x="1602" unicode="Ŋ"/><glyph d="M1766 1434l-466 -1434l-6 -19q-84 -258 -275 -373t-487 -115l77 323q96 0 185.5 45t128.5 139h-42l-330 905h-42l-297 -905h-376l468 1434h428l318 -912h42l34 103l106 329h2l157 480h375z" glyph-name="eng" horiz-adv-x="1602" unicode="ŋ"/><glyph d="M746 1533l94 283h716l-93 -283h-717zM666 -48q-300 0 -469.5 155.5t-169.5 426.5q0 183 78 356t211 303t321.5 209t398.5 79q300 0 469 -154.5t169 -427.5q0 -183 -77.5 -356t-210.5 -302.5t-321.5 -209t-398.5 -79.5zM727 285q159 0 291 84.5t202 211t72 260.5 q0 147 -89 227.5t-228 80.5q-159 0 -291.5 -84t-203 -210t-72.5 -261q0 -147 88.5 -228t230.5 -81z" glyph-name="Omacron" horiz-adv-x="1699" unicode="Ō"/><glyph d="M746 1533l94 283h716l-93 -283h-717zM666 -48q-300 0 -469.5 155.5t-169.5 426.5q0 183 78 356t211 303t321.5 209t398.5 79q300 0 469 -154.5t169 -427.5q0 -183 -77.5 -356t-210.5 -302.5t-321.5 -209t-398.5 -79.5zM727 285q159 0 291 84.5t202 211t72 260.5 q0 147 -89 227.5t-228 80.5q-159 0 -291.5 -84t-203 -210t-72.5 -261q0 -147 88.5 -228t230.5 -81z" glyph-name="omacron" horiz-adv-x="1699" unicode="ō"/><glyph d="M695 1526l177 286h353l-177 -286h-353zM1150 1526l178 286h353l-177 -286h-354zM666 -48q-300 0 -469.5 155.5t-169.5 426.5q0 183 78 356t211 303t321.5 209t398.5 79q300 0 469 -154.5t169 -427.5q0 -183 -77.5 -356t-210.5 -302.5t-321.5 -209t-398.5 -79.5zM727 285 q159 0 291 84.5t202 211t72 260.5q0 147 -89 227.5t-228 80.5q-159 0 -291.5 -84t-203 -210t-72.5 -261q0 -147 88.5 -228t230.5 -81z" glyph-name="Ohungarumlaut" horiz-adv-x="1699" unicode="Ő"/><glyph d="M695 1526l177 286h353l-177 -286h-353zM1150 1526l178 286h353l-177 -286h-354zM666 -48q-300 0 -469.5 155.5t-169.5 426.5q0 183 78 356t211 303t321.5 209t398.5 79q300 0 469 -154.5t169 -427.5q0 -183 -77.5 -356t-210.5 -302.5t-321.5 -209t-398.5 -79.5zM727 285 q159 0 291 84.5t202 211t72 260.5q0 147 -89 227.5t-228 80.5q-159 0 -291.5 -84t-203 -210t-72.5 -261q0 -147 88.5 -228t230.5 -81z" glyph-name="ohungarumlaut" horiz-adv-x="1699" unicode="ő"/><glyph d="M2649 1125h-854l-88 -272h844l-85 -257h-841l-92 -285h851l-100 -311h-1238l9 27q-188 -75 -389 -75q-300 0 -469.5 155.5t-169.5 426.5q0 183 78 356t211 303t321.5 209t398.5 79q278 0 447 -134l27 87h1239zM408 594q0 -147 88.5 -228t230.5 -81q159 0 291 84.5 t202 211t72 260.5q0 147 -89 227.5t-228 80.5q-159 0 -291.5 -84t-203 -210t-72.5 -261z" glyph-name="OE" horiz-adv-x="2583" unicode="Œ"/><glyph d="M2649 1125h-854l-88 -272h844l-85 -257h-841l-92 -285h851l-100 -311h-1238l9 27q-188 -75 -389 -75q-300 0 -469.5 155.5t-169.5 426.5q0 183 78 356t211 303t321.5 209t398.5 79q278 0 447 -134l27 87h1239zM408 594q0 -147 88.5 -228t230.5 -81q159 0 291 84.5 t202 211t72 260.5q0 147 -89 227.5t-228 80.5q-159 0 -291.5 -84t-203 -210t-72.5 -261z" glyph-name="oe" horiz-adv-x="2583" unicode="œ"/><glyph d="M1340 1806l-178 -287h-353l177 287h354zM1527 1036q0 -188 -104.5 -332t-275.5 -223l116 -481h-370l-94 408h-442l-132 -408h-385l460 1434h719q508 0 508 -398zM582 1113l-135 -420l376 2q126 0 221.5 73t95.5 191q0 84 -49.5 119t-155.5 35h-353z" glyph-name="Racute" horiz-adv-x="1517" unicode="Ŕ"/><glyph d="M1340 1806l-178 -287h-353l177 287h354zM1527 1036q0 -188 -104.5 -332t-275.5 -223l116 -481h-370l-94 408h-442l-132 -408h-385l460 1434h719q508 0 508 -398zM582 1113l-135 -420l376 2q126 0 221.5 73t95.5 191q0 84 -49.5 119t-155.5 35h-353z" glyph-name="racute" horiz-adv-x="1517" unicode="ŕ"/><glyph d="M1527 1036q0 -188 -104.5 -332t-275.5 -223l116 -481h-370l-94 408h-442l-132 -408h-385l460 1434h719q508 0 508 -398zM582 1113l-135 -420l376 2q126 0 221.5 73t95.5 191q0 84 -49.5 119t-155.5 35h-353zM196 -393l91 285h423l-2 -6q-145 -432 -305 -634h-188 q89 186 133 355h-152z" glyph-name="Rcommaaccent" horiz-adv-x="1517" unicode="Ŗ"/><glyph d="M1527 1036q0 -188 -104.5 -332t-275.5 -223l116 -481h-370l-94 408h-442l-132 -408h-385l460 1434h719q508 0 508 -398zM582 1113l-135 -420l376 2q126 0 221.5 73t95.5 191q0 84 -49.5 119t-155.5 35h-353zM196 -393l91 285h423l-2 -6q-145 -432 -305 -634h-188 q89 186 133 355h-152z" glyph-name="rcommaaccent" horiz-adv-x="1517" unicode="ŗ"/><glyph d="M1219 1480h-499l-140 286h326l62 -134h65l131 134h355zM1527 1036q0 -188 -104.5 -332t-275.5 -223l116 -481h-370l-94 408h-442l-132 -408h-385l460 1434h719q508 0 508 -398zM582 1113l-135 -420l376 2q126 0 221.5 73t95.5 191q0 84 -49.5 119t-155.5 35h-353z" glyph-name="Rcaron" horiz-adv-x="1517" unicode="Ř"/><glyph d="M1219 1480h-499l-140 286h326l62 -134h65l131 134h355zM1527 1036q0 -188 -104.5 -332t-275.5 -223l116 -481h-370l-94 408h-442l-132 -408h-385l460 1434h719q508 0 508 -398zM582 1113l-135 -420l376 2q126 0 221.5 73t95.5 191q0 84 -49.5 119t-155.5 35h-353z" glyph-name="rcaron" horiz-adv-x="1517" unicode="ř"/><glyph d="M802 1519l178 287h353l-178 -287h-353zM532 -48q-166 0 -286.5 27.5t-203.5 87t-101 154.5t23 230h330q-20 -101 59.5 -150.5t233.5 -49.5q160 0 268 48.5t108 142.5q0 56 -47 89.5t-158 55.5l-115 22q-56 12 -78 16.5t-83.5 21.5t-93 32.5t-80.5 45t-73.5 62t-44 81 t-19.5 105.5q0 237 206.5 372.5t533.5 135.5q319 0 475.5 -132t62.5 -361h-317q15 87 -54 141t-221 54q-145 0 -232 -49.5t-87 -133.5q0 -53 41 -84.5t133 -51.5l90 -21q19 -3 81 -16t91.5 -20.5t86.5 -24.5t87.5 -32.5t72.5 -43.5t63.5 -59t37.5 -75.5t16 -97.5 q0 -138 -65 -242t-178.5 -163t-254.5 -88t-308 -29z" glyph-name="Sacute" horiz-adv-x="1476" unicode="Ś"/><glyph d="M802 1519l178 287h353l-178 -287h-353zM532 -48q-166 0 -286.5 27.5t-203.5 87t-101 154.5t23 230h330q-20 -101 59.5 -150.5t233.5 -49.5q160 0 268 48.5t108 142.5q0 56 -47 89.5t-158 55.5l-115 22q-56 12 -78 16.5t-83.5 21.5t-93 32.5t-80.5 45t-73.5 62t-44 81 t-19.5 105.5q0 237 206.5 372.5t533.5 135.5q319 0 475.5 -132t62.5 -361h-317q15 87 -54 141t-221 54q-145 0 -232 -49.5t-87 -133.5q0 -53 41 -84.5t133 -51.5l90 -21q19 -3 81 -16t91.5 -20.5t86.5 -24.5t87.5 -32.5t72.5 -43.5t63.5 -59t37.5 -75.5t16 -97.5 q0 -138 -65 -242t-178.5 -163t-254.5 -88t-308 -29z" glyph-name="sacute" horiz-adv-x="1476" unicode="ś"/><glyph d="M1449 988h-317q15 87 -54 141t-221 54q-145 0 -232 -49.5t-87 -133.5q0 -53 41 -84.5t133 -51.5l90 -21q19 -3 81 -16t91.5 -20.5t86.5 -24.5t87.5 -32.5t72.5 -43.5t63.5 -59t37.5 -75.5t16 -97.5q0 -137 -64 -240t-176.5 -162.5t-251 -89.5t-303.5 -30l-28 -17 q56 -12 92 -54.5t36 -114.5q0 -145 -140.5 -204.5t-326.5 -6.5l44 146q70 -20 143.5 -2t73.5 60q0 19 -21.5 31t-64 13.5t-105.5 -10.5l27 91l108 75q-266 24 -380 144.5t-37 347.5h330q-20 -101 59.5 -150.5t233.5 -49.5q160 0 268 48.5t108 142.5q0 56 -47 89.5t-158 55.5 l-115 22q-56 12 -78 16.5t-83.5 21.5t-93 32.5t-80.5 45t-73.5 62t-44 81t-19.5 105.5q0 237 206.5 372.5t533.5 135.5q319 0 475.5 -132t62.5 -361z" glyph-name="Scedilla" horiz-adv-x="1476" unicode="Ş"/><glyph d="M1449 988h-317q15 87 -54 141t-221 54q-145 0 -232 -49.5t-87 -133.5q0 -53 41 -84.5t133 -51.5l90 -21q19 -3 81 -16t91.5 -20.5t86.5 -24.5t87.5 -32.5t72.5 -43.5t63.5 -59t37.5 -75.5t16 -97.5q0 -137 -64 -240t-176.5 -162.5t-251 -89.5t-303.5 -30l-28 -17 q56 -12 92 -54.5t36 -114.5q0 -145 -140.5 -204.5t-326.5 -6.5l44 146q70 -20 143.5 -2t73.5 60q0 19 -21.5 31t-64 13.5t-105.5 -10.5l27 91l108 75q-266 24 -380 144.5t-37 347.5h330q-20 -101 59.5 -150.5t233.5 -49.5q160 0 268 48.5t108 142.5q0 56 -47 89.5t-158 55.5 l-115 22q-56 12 -78 16.5t-83.5 21.5t-93 32.5t-80.5 45t-73.5 62t-44 81t-19.5 105.5q0 237 206.5 372.5t533.5 135.5q319 0 475.5 -132t62.5 -361z" glyph-name="scedilla" horiz-adv-x="1476" unicode="ş"/><glyph d="M980 1480q288 -15 423 -146t46 -346h-317q15 87 -54 141t-221 54q-145 0 -232 -49.5t-87 -133.5q0 -53 41 -84.5t133 -51.5l90 -21q19 -3 81 -16t91.5 -20.5t86.5 -24.5t87.5 -32.5t72.5 -43.5t63.5 -59t37.5 -75.5t16 -97.5q0 -138 -65 -242t-178.5 -163t-254 -88 t-308.5 -29q-166 0 -286.5 27.5t-203.5 87t-101 154.5t23 230h330q-20 -101 59.5 -150.5t233.5 -49.5q160 0 268 48.5t108 142.5q0 56 -47 89.5t-158 55.5l-115 22q-56 12 -78 16.5t-83.5 21.5t-93 32.5t-80.5 45t-73.5 62t-44 81t-19.5 105.5q0 224 185 358.5t485 148.5 h-128l-140 286h326l62 -134h65l131 134h355l-300 -286h-232z" glyph-name="Scaron" horiz-adv-x="1476" unicode="Š"/><glyph d="M980 1480q288 -15 423 -146t46 -346h-317q15 87 -54 141t-221 54q-145 0 -232 -49.5t-87 -133.5q0 -53 41 -84.5t133 -51.5l90 -21q19 -3 81 -16t91.5 -20.5t86.5 -24.5t87.5 -32.5t72.5 -43.5t63.5 -59t37.5 -75.5t16 -97.5q0 -138 -65 -242t-178.5 -163t-254 -88 t-308.5 -29q-166 0 -286.5 27.5t-203.5 87t-101 154.5t23 230h330q-20 -101 59.5 -150.5t233.5 -49.5q160 0 268 48.5t108 142.5q0 56 -47 89.5t-158 55.5l-115 22q-56 12 -78 16.5t-83.5 21.5t-93 32.5t-80.5 45t-73.5 62t-44 81t-19.5 105.5q0 224 185 358.5t485 148.5 h-128l-140 286h326l62 -134h65l131 134h355l-300 -286h-232z" glyph-name="scaron" horiz-adv-x="1476" unicode="š"/><glyph d="M1731 1434l-105 -321h-522l-362 -1113h-82l-102 -65q56 -12 92 -54.5t36 -114.5q0 -145 -141 -204.5t-327 -6.5l45 146q68 -20 142.5 -2t74.5 60q0 19 -21.5 31t-64 13.5t-106.5 -10.5l28 91l165 116h-123l362 1113h-532l104 321h1439z" glyph-name="Tcommaaccent" horiz-adv-x="1558" unicode="Ţ"/><glyph d="M1731 1434l-105 -321h-522l-362 -1113h-82l-102 -65q56 -12 92 -54.5t36 -114.5q0 -145 -141 -204.5t-327 -6.5l45 146q68 -20 142.5 -2t74.5 60q0 19 -21.5 31t-64 13.5t-106.5 -10.5l28 91l165 116h-123l362 1113h-532l104 321h1439z" glyph-name="tcommaaccent" horiz-adv-x="1558" unicode="ţ"/><glyph d="M1254 1480h-498l-140 286h326l62 -134h64l132 134h355zM1731 1434l-105 -321h-522l-362 -1113h-384l362 1113h-532l104 321h1439z" glyph-name="Tcaron" horiz-adv-x="1558" unicode="Ť"/><glyph d="M1254 1480h-498l-140 286h326l62 -134h64l132 134h355zM1731 1434l-105 -321h-522l-362 -1113h-384l362 1113h-532l104 321h1439z" glyph-name="tcaron" horiz-adv-x="1558" unicode="ť"/><glyph d="M1626 1113h-522l-87 -266h371l-106 -316h-367l-173 -531h-384l173 531h-359l106 316h355l87 266h-532l104 321h1439z" glyph-name="Tbar" horiz-adv-x="1558" unicode="Ŧ"/><glyph d="M1626 1113h-522l-87 -266h371l-106 -316h-367l-173 -531h-384l173 531h-359l106 316h355l87 266h-532l104 321h1439z" glyph-name="tbar" horiz-adv-x="1558" unicode="ŧ"/><glyph d="M686 1526l94 283h717l-94 -283h-717zM584 -48q-367 0 -510.5 172.5t-35.5 500.5l266 809h389l-277 -840q-51 -154 5.5 -237.5t216.5 -83.5q166 0 271.5 89t167.5 273l259 799h391l-276 -849q-111 -338 -319 -485.5t-548 -147.5z" glyph-name="Umacron" horiz-adv-x="1563" unicode="Ū"/><glyph d="M686 1526l94 283h717l-94 -283h-717zM584 -48q-367 0 -510.5 172.5t-35.5 500.5l266 809h389l-277 -840q-51 -154 5.5 -237.5t216.5 -83.5q166 0 271.5 89t167.5 273l259 799h391l-276 -849q-111 -338 -319 -485.5t-548 -147.5z" glyph-name="umacron" horiz-adv-x="1563" unicode="ū"/><glyph d="M1060 1519q-177 0 -258.5 67.5t-40.5 219.5h225q-22 -111 101 -111q60 0 106 28t63 83h225q-68 -287 -421 -287zM584 -48q-367 0 -510.5 172.5t-35.5 500.5l266 809h389l-277 -840q-51 -154 5.5 -237.5t216.5 -83.5q166 0 271.5 89t167.5 273l259 799h391l-276 -849 q-111 -338 -319 -485.5t-548 -147.5z" glyph-name="Ubreve" horiz-adv-x="1563" unicode="Ŭ"/><glyph d="M1060 1519q-177 0 -258.5 67.5t-40.5 219.5h225q-22 -111 101 -111q60 0 106 28t63 83h225q-68 -287 -421 -287zM584 -48q-367 0 -510.5 172.5t-35.5 500.5l266 809h389l-277 -840q-51 -154 5.5 -237.5t216.5 -83.5q166 0 271.5 89t167.5 273l259 799h391l-276 -849 q-111 -338 -319 -485.5t-548 -147.5z" glyph-name="ubreve" horiz-adv-x="1563" unicode="ŭ"/><glyph d="M1004 1410q-85 0 -136.5 52t-51.5 132q0 113 80 189t186 76q84 0 134 -51.5t50 -131.5q0 -108 -77 -187t-185 -79zM1031 1580q29 0 48.5 21.5t19.5 48.5q0 17 -12 29t-32 12q-27 0 -48 -21t-21 -50q0 -15 12.5 -27.5t32.5 -12.5zM584 -48q-367 0 -510.5 172.5 t-35.5 500.5l266 809h389l-277 -840q-51 -154 5.5 -237.5t216.5 -83.5q166 0 271.5 89t167.5 273l259 799h391l-276 -849q-111 -338 -319 -485.5t-548 -147.5z" glyph-name="Uring" horiz-adv-x="1563" unicode="Ů"/><glyph d="M1004 1410q-85 0 -136.5 52t-51.5 132q0 113 80 189t186 76q84 0 134 -51.5t50 -131.5q0 -108 -77 -187t-185 -79zM1031 1580q29 0 48.5 21.5t19.5 48.5q0 17 -12 29t-32 12q-27 0 -48 -21t-21 -50q0 -15 12.5 -27.5t32.5 -12.5zM584 -48q-367 0 -510.5 172.5 t-35.5 500.5l266 809h389l-277 -840q-51 -154 5.5 -237.5t216.5 -83.5q166 0 271.5 89t167.5 273l259 799h391l-276 -849q-111 -338 -319 -485.5t-548 -147.5z" glyph-name="uring" horiz-adv-x="1563" unicode="ů"/><glyph d="M635 1519l177 287h354l-178 -287h-353zM1091 1519l177 287h353l-177 -287h-353zM584 -48q-367 0 -510.5 172.5t-35.5 500.5l266 809h389l-277 -840q-51 -154 5.5 -237.5t216.5 -83.5q166 0 271.5 89t167.5 273l259 799h391l-276 -849q-111 -338 -319 -485.5t-548 -147.5z " glyph-name="Uhungarumlaut" horiz-adv-x="1563" unicode="Ű"/><glyph d="M635 1519l177 287h354l-178 -287h-353zM1091 1519l177 287h353l-177 -287h-353zM584 -48q-367 0 -510.5 172.5t-35.5 500.5l266 809h389l-277 -840q-51 -154 5.5 -237.5t216.5 -83.5q166 0 271.5 89t167.5 273l259 799h391l-276 -849q-111 -338 -319 -485.5t-548 -147.5z " glyph-name="uhungarumlaut" horiz-adv-x="1563" unicode="ű"/><glyph d="M1336 1434h391l-276 -849q-96 -288 -260 -436.5t-418 -184.5q-176 -19 -176 -89q0 -27 26 -50t85 -21v-217q-61 0 -120 11t-118.5 36.5t-96.5 77t-37 121.5q0 82 55 133q-261 44 -353.5 211.5t0.5 447.5l266 809h389l-277 -840q-51 -154 5.5 -237.5t216.5 -83.5 q166 0 271.5 89t167.5 273z" glyph-name="Uogonek" horiz-adv-x="1563" unicode="Ų"/><glyph d="M1336 1434h391l-276 -849q-96 -288 -260 -436.5t-418 -184.5q-176 -19 -176 -89q0 -27 26 -50t85 -21v-217q-61 0 -120 11t-118.5 36.5t-96.5 77t-37 121.5q0 82 55 133q-261 44 -353.5 211.5t0.5 447.5l266 809h389l-277 -840q-51 -154 5.5 -237.5t216.5 -83.5 q166 0 271.5 89t167.5 273z" glyph-name="uogonek" horiz-adv-x="1563" unicode="ų"/><glyph d="M819 1519l301 287h498l140 -287h-326l-62 135h-64l-132 -135h-355zM106 0l157 1434h382l-126 -1023h34l577 1023h314l-75 -1023h36l529 1023h397l-768 -1434h-519l76 833h-36l-459 -833h-519z" glyph-name="Wcircumflex" horiz-adv-x="2138" unicode="Ŵ"/><glyph d="M819 1519l301 287h498l140 -287h-326l-62 135h-64l-132 -135h-355zM106 0l157 1434h382l-126 -1023h34l577 1023h314l-75 -1023h36l529 1023h397l-768 -1434h-519l76 833h-36l-459 -833h-519z" glyph-name="wcircumflex" horiz-adv-x="2138" unicode="ŵ"/><glyph d="M1019 1654l-132 -135h-355l301 287h498l140 -287h-326l-61 135h-65zM1783 1434l-897 -980l-147 -454h-386l150 473l-262 961h387l157 -599h36l536 599h426z" glyph-name="Ycircumflex" horiz-adv-x="1576" unicode="Ŷ"/><glyph d="M1019 1654l-132 -135h-355l301 287h498l140 -287h-326l-61 135h-65zM1783 1434l-897 -980l-147 -454h-386l150 473l-262 961h387l157 -599h36l536 599h426z" glyph-name="ycircumflex" horiz-adv-x="1576" unicode="ŷ"/><glyph d="M785 1533q-55 0 -90.5 35.5t-35.5 88.5q0 65 53.5 115.5t118.5 50.5q55 0 90 -37t35 -88q0 -67 -53 -116t-118 -49zM1275 1533q-55 0 -90.5 35.5t-35.5 88.5q0 65 53.5 115.5t118.5 50.5q55 0 90 -37t35 -88q0 -67 -53 -116t-118 -49zM1783 1434l-897 -980l-147 -454 h-386l150 473l-262 961h387l157 -599h36l536 599h426z" glyph-name="Ydieresis" horiz-adv-x="1576" unicode="Ÿ"/><glyph d="M770 1519l177 287h353l-177 -287h-353zM-179 0l102 317l1041 767l12 30h-776l105 320h1292l-104 -316l-1041 -766l-12 -33h784l-106 -319h-1297z" glyph-name="Zacute" horiz-adv-x="1416" unicode="Ź"/><glyph d="M770 1519l177 287h353l-177 -287h-353zM-179 0l102 317l1041 767l12 30h-776l105 320h1292l-104 -316l-1041 -766l-12 -33h784l-106 -319h-1297z" glyph-name="zacute" horiz-adv-x="1416" unicode="ź"/><glyph d="M993 1533q-55 0 -90.5 35.5t-35.5 88.5q0 65 54 115.5t118 50.5q55 0 90 -37t35 -88q0 -67 -53 -116t-118 -49zM-179 0l102 317l1041 767l12 30h-776l105 320h1292l-104 -316l-1041 -766l-12 -33h784l-106 -319h-1297z" glyph-name="Zdotaccent" horiz-adv-x="1416" unicode="Ż"/><glyph d="M993 1533q-55 0 -90.5 35.5t-35.5 88.5q0 65 54 115.5t118 50.5q55 0 90 -37t35 -88q0 -67 -53 -116t-118 -49zM-179 0l102 317l1041 767l12 30h-776l105 320h1292l-104 -316l-1041 -766l-12 -33h784l-106 -319h-1297z" glyph-name="zdotaccent" horiz-adv-x="1416" unicode="ż"/><glyph d="M1480 1766l-301 -286h-498l-140 286h326l61 -134h65l132 134h355zM-179 0l102 317l1041 767l12 30h-776l105 320h1292l-104 -316l-1041 -766l-12 -33h784l-106 -319h-1297z" glyph-name="Zcaron" horiz-adv-x="1416" unicode="Ž"/><glyph d="M1480 1766l-301 -286h-498l-140 286h326l61 -134h65l132 134h355zM-179 0l102 317l1041 767l12 30h-776l105 320h1292l-104 -316l-1041 -766l-12 -33h784l-106 -319h-1297z" glyph-name="zcaron" horiz-adv-x="1416" unicode="ž"/><glyph d="M1188 1224q-184 0 -248 -188l-32 -102h401l-96 -296h-401l-73 -232q-49 -150 -146.5 -250t-208.5 -140t-237 -40q-189 0 -280 68l90 282q128 -53 198 -53q184 0 248 190l56 175h-394l95 296h395l49 157q73 222 233.5 326t358.5 104q193 0 280 -67l-90 -282 q-123 52 -198 52z" glyph-name="florin" horiz-adv-x="1322" unicode="ƒ"/><glyph d="M1309 1480h-498l-140 286h326l61 -134h65l131 134h355zM782 1434h541l83 -1434h-380l-9 224h-669l-152 -224h-411zM544 512h463l-22 560h-60z" glyph-name="uni01CD" unicode="Ǎ"/><glyph d="M1309 1480h-498l-140 286h326l61 -134h65l131 134h355zM782 1434h541l83 -1434h-380l-9 224h-669l-152 -224h-411zM544 512h463l-22 560h-60z" glyph-name="uni01CE" unicode="ǎ"/><glyph d="M1031 1766l-301 -286h-498l-140 286h326l62 -134h64l132 134h355zM-164 0l464 1434h384l-462 -1434h-386z" glyph-name="uni01CF" horiz-adv-x="520" unicode="Ǐ"/><glyph d="M1031 1766l-301 -286h-498l-140 286h326l62 -134h64l132 134h355zM-164 0l464 1434h384l-462 -1434h-386z" glyph-name="uni01D0" horiz-adv-x="520" unicode="ǐ"/><glyph d="M1616 1773l-300 -286h-499l-139 286h326l61 -135h65l131 135h355zM666 -48q-300 0 -469.5 155.5t-169.5 426.5q0 183 78 356t211 303t321.5 209t398.5 79q300 0 469 -154.5t169 -427.5q0 -183 -77.5 -356t-210.5 -302.5t-321.5 -209t-398.5 -79.5zM727 285 q159 0 291 84.5t202 211t72 260.5q0 147 -89 227.5t-228 80.5q-159 0 -291.5 -84t-203 -210t-72.5 -261q0 -147 88.5 -228t230.5 -81z" glyph-name="uni01D1" horiz-adv-x="1699" unicode="Ǒ"/><glyph d="M1616 1773l-300 -286h-499l-139 286h326l61 -135h65l131 135h355zM666 -48q-300 0 -469.5 155.5t-169.5 426.5q0 183 78 356t211 303t321.5 209t398.5 79q300 0 469 -154.5t169 -427.5q0 -183 -77.5 -356t-210.5 -302.5t-321.5 -209t-398.5 -79.5zM727 285 q159 0 291 84.5t202 211t72 260.5q0 147 -89 227.5t-228 80.5q-159 0 -291.5 -84t-203 -210t-72.5 -261q0 -147 88.5 -228t230.5 -81z" glyph-name="uni01D2" horiz-adv-x="1699" unicode="ǒ"/><glyph d="M1556 1766l-300 -286h-498l-140 286h326l61 -134h65l131 134h355zM584 -48q-367 0 -510.5 172.5t-35.5 500.5l266 809h389l-277 -840q-51 -154 5.5 -237.5t216.5 -83.5q166 0 271.5 89t167.5 273l259 799h391l-276 -849q-111 -338 -319 -485.5t-548 -147.5z" glyph-name="uni01D3" horiz-adv-x="1563" unicode="Ǔ"/><glyph d="M1556 1766l-300 -286h-498l-140 286h326l61 -134h65l131 134h355zM584 -48q-367 0 -510.5 172.5t-35.5 500.5l266 809h389l-277 -840q-51 -154 5.5 -237.5t216.5 -83.5q166 0 271.5 89t167.5 273l259 799h391l-276 -849q-111 -338 -319 -485.5t-548 -147.5z" glyph-name="uni01D4" horiz-adv-x="1563" unicode="ǔ"/><glyph d="M1674 899q0 -350 -257.5 -625.5t-639.5 -316.5q-22 -27 -23 -61q0 -36 26 -63.5t87 -25.5v-217q-61 0 -121 11.5t-119.5 37.5t-96.5 79t-37 127q0 65 31 117q-237 34 -367 184.5t-130 387.5q0 183 78 356t211 303t321.5 209t398.5 79q300 0 469 -154.5t169 -427.5z M408 594q0 -147 88.5 -228t230.5 -81q159 0 291 84.5t202 211t72 260.5q0 147 -89 227.5t-228 80.5q-159 0 -291.5 -84t-203 -210t-72.5 -261z" glyph-name="uni01EA" horiz-adv-x="1699" unicode="Ǫ"/><glyph d="M532 -48q-166 0 -286.5 27.5t-203.5 87t-101 154.5t23 230h330q-20 -101 59.5 -150.5t233.5 -49.5q160 0 268 48.5t108 142.5q0 56 -47 89.5t-158 55.5l-115 22q-56 12 -78 16.5t-83.5 21.5t-93 32.5t-80.5 45t-73.5 62t-44 81t-19.5 105.5q0 237 206.5 372.5 t533.5 135.5q319 0 475.5 -132t62.5 -361h-317q15 87 -54 141t-221 54q-145 0 -232 -49.5t-87 -133.5q0 -53 41 -84.5t133 -51.5l90 -21q19 -3 81 -16t91.5 -20.5t86.5 -24.5t87.5 -32.5t72.5 -43.5t63.5 -59t37.5 -75.5t16 -97.5q0 -138 -65 -242t-178.5 -163t-254.5 -88 t-308 -29zM208 -748q89 186 133 355h-152l91 285h423l-2 -6q-145 -432 -305 -634h-188z" glyph-name="Scommaaccent" horiz-adv-x="1476" unicode="Ș"/><glyph d="M532 -48q-166 0 -286.5 27.5t-203.5 87t-101 154.5t23 230h330q-20 -101 59.5 -150.5t233.5 -49.5q160 0 268 48.5t108 142.5q0 56 -47 89.5t-158 55.5l-115 22q-56 12 -78 16.5t-83.5 21.5t-93 32.5t-80.5 45t-73.5 62t-44 81t-19.5 105.5q0 237 206.5 372.5 t533.5 135.5q319 0 475.5 -132t62.5 -361h-317q15 87 -54 141t-221 54q-145 0 -232 -49.5t-87 -133.5q0 -53 41 -84.5t133 -51.5l90 -21q19 -3 81 -16t91.5 -20.5t86.5 -24.5t87.5 -32.5t72.5 -43.5t63.5 -59t37.5 -75.5t16 -97.5q0 -138 -65 -242t-178.5 -163t-254.5 -88 t-308 -29zM208 -748q89 186 133 355h-152l91 285h423l-2 -6q-145 -432 -305 -634h-188z" glyph-name="scommaaccent" horiz-adv-x="1476" unicode="ș"/><glyph d="M1731 1434l-105 -321h-522l-362 -1113h-384l362 1113h-532l104 321h1439zM232 -393l91 285h423l-2 -6q-145 -432 -305 -634h-188q89 186 133 355h-152z" glyph-name="uni021A" horiz-adv-x="1558" unicode="Ț"/><glyph d="M1731 1434l-105 -321h-522l-362 -1113h-384l362 1113h-532l104 321h1439zM232 -393l91 285h423l-2 -6q-145 -432 -305 -634h-188q89 186 133 355h-152z" glyph-name="uni021B" horiz-adv-x="1558" unicode="ț"/><glyph d="M143 1161l301 286h498l140 -286h-326l-61 134h-65l-132 -134h-355z" glyph-name="circumflex" horiz-adv-x="938" unicode="ˆ"/><glyph d="M1164 1408l-300 -287h-499l-140 287h326l62 -135h65l131 135h355z" glyph-name="caron" horiz-adv-x="938" unicode="ˇ"/><glyph d="M534 1161q-177 0 -258 67t-40 219h225q-22 -111 100 -111q60 0 106 28.5t63 82.5h226q-69 -286 -422 -286z" glyph-name="breve" horiz-adv-x="720" unicode="˘"/><glyph d="M323 1174q-55 0 -91 36t-36 89q0 65 54 115t119 50q55 0 89.5 -36.5t34.5 -87.5q0 -67 -52.5 -116.5t-117.5 -49.5z" glyph-name="dotaccent" horiz-adv-x="298" unicode="˙"/><glyph d="M370 1051q-85 0 -136 52t-51 133q0 113 80 188.5t186 75.5q84 0 134 -51t50 -131q0 -108 -77.5 -187.5t-185.5 -79.5zM398 1222q29 0 48.5 21.5t19.5 48.5q0 17 -12 29t-32 12q-27 0 -48 -21.5t-21 -50.5q0 -15 12.5 -27t32.5 -12z" glyph-name="ring" horiz-adv-x="450" unicode="˚"/><glyph d="M102 -413q-61 0 -121 11t-119.5 37.5t-96 79.5t-36.5 126q0 82 44 139.5t116.5 82t131.5 34t121 9.5v-106q-80 0 -116 -32.5t-36 -75.5q0 -36 25.5 -63t86.5 -25v-217z" glyph-name="ogonek" horiz-adv-x="467" unicode="˛"/><glyph d="M741 1157q-82 0 -185.5 54.5t-151.5 54.5q-41 0 -69 -19.5t-33 -53.5h-118q-15 128 55 193.5t176 65.5q82 0 185 -54.5t151 -54.5q43 0 71 19.5t31 54.5h120q15 -128 -54.5 -194t-177.5 -66z" glyph-name="tilde" horiz-adv-x="774" unicode="˜"/><glyph d="M143 1161l178 286h353l-177 -286h-354zM599 1161l178 286h353l-178 -286h-353z" glyph-name="hungarumlaut" horiz-adv-x="894" unicode="˝"/><glyph d="M-768 -748q89 186 133 355h-152l91 285h423l-2 -6q-145 -432 -305 -634h-188z" glyph-name="uni0326" horiz-adv-x="0" unicode="̦"/><glyph d="M1311 1434l83 -1434h-1609l997 1434h529zM415 311h590l-30 759h-48z" glyph-name="Delta" horiz-adv-x="1617" unicode="Δ"/><glyph d="M-189 0l95 299h222l22 71q-84 118 -83 268q0 172 81.5 330t215 269t308.5 177.5t355 66.5q288 0 448 -134t160 -345q0 -176 -97.5 -339t-264.5 -284l-27 -80h211l-97 -299h-611l125 428q155 61 263.5 195.5t108.5 282.5q0 111 -73.5 177t-221.5 66q-208 0 -365.5 -149.5 t-157.5 -344.5q0 -147 118 -227l-124 -428h-611z" glyph-name="Omega" horiz-adv-x="1634" unicode="Ω"/><glyph d="M1033 1161h385l-375 -1161h-377l42 157h-34q-159 -183 -392 -183q-26 0 -67 4l-77 -234h-385l459 1417h385l-223 -692q-36 -109 0 -156.5t111 -47.5q118 0 212.5 76.5t116.5 143.5l-2 -7z" glyph-name="mu" horiz-adv-x="1343" unicode="μ"/><glyph d="M1413 881l-165 -511q-9 -43 -1.5 -52t36.5 -9q32 0 71.5 8.5t44.5 8.5l-61 -283q-68 -56 -232 -57q-169 0 -240.5 86.5t-12.5 267.5l176 541h-372l-285 -881h-386l285 881h-148l89 280h1442l-89 -280h-152z" glyph-name="pi" horiz-adv-x="1624" unicode="π"/><glyph d="M1487 1519h-354l-177 287h353zM106 0l157 1434h382l-126 -1023h34l577 1023h314l-75 -1023h36l529 1023h397l-768 -1434h-519l76 833h-36l-459 -833h-519z" glyph-name="Wgrave" horiz-adv-x="2138" unicode="Ẁ"/><glyph d="M1487 1519h-354l-177 287h353zM106 0l157 1434h382l-126 -1023h34l577 1023h314l-75 -1023h36l529 1023h397l-768 -1434h-519l76 833h-36l-459 -833h-519z" glyph-name="wgrave" horiz-adv-x="2138" unicode="ẁ"/><glyph d="M1126 1519l178 287h353l-177 -287h-354zM106 0l157 1434h382l-126 -1023h34l577 1023h314l-75 -1023h36l529 1023h397l-768 -1434h-519l76 833h-36l-459 -833h-519z" glyph-name="Wacute" horiz-adv-x="2138" unicode="Ẃ"/><glyph d="M1126 1519l178 287h353l-177 -287h-354zM106 0l157 1434h382l-126 -1023h34l577 1023h314l-75 -1023h36l529 1023h397l-768 -1434h-519l76 833h-36l-459 -833h-519z" glyph-name="wacute" horiz-adv-x="2138" unicode="ẃ"/><glyph d="M1072 1533q-55 0 -91 35.5t-36 88.5q0 65 54 115.5t119 50.5q55 0 89.5 -37t34.5 -88q0 -67 -52.5 -116t-117.5 -49zM1562 1533q-55 0 -91 35.5t-36 88.5q0 65 54 115.5t119 50.5q55 0 89.5 -37t34.5 -88q0 -67 -52.5 -116t-117.5 -49zM106 0l157 1434h382l-126 -1023h34 l577 1023h314l-75 -1023h36l529 1023h397l-768 -1434h-519l76 833h-36l-459 -833h-519z" glyph-name="Wdieresis" horiz-adv-x="2138" unicode="Ẅ"/><glyph d="M1072 1533q-55 0 -91 35.5t-36 88.5q0 65 54 115.5t119 50.5q55 0 89.5 -37t34.5 -88q0 -67 -52.5 -116t-117.5 -49zM1562 1533q-55 0 -91 35.5t-36 88.5q0 65 54 115.5t119 50.5q55 0 89.5 -37t34.5 -88q0 -67 -52.5 -116t-117.5 -49zM106 0l157 1434h382l-126 -1023h34 l577 1023h314l-75 -1023h36l529 1023h397l-768 -1434h-519l76 833h-36l-459 -833h-519z" glyph-name="wdieresis" horiz-adv-x="2138" unicode="ẅ"/><glyph d="M1143 812q171 17 275 -65.5t104 -217.5q0 -254 -191 -410.5t-476 -156.5q-280 0 -376.5 119t-22.5 320h317q-15 -84 26 -132.5t111 -48.5q102 0 179 68.5t77 160.5q0 67 -41 101.5t-108 34.5q-82 0 -143 -49h-324l534 577h-299q-89 0 -161.5 -59t-104.5 -161l-289 -893 h-390l322 1005q80 247 222 338t401 91h963z" glyph-name="uni1E9E" horiz-adv-x="1653" unicode="ẞ"/><glyph d="M1200 1519h-353l-178 287h353zM1783 1434l-897 -980l-147 -454h-386l150 473l-262 961h387l157 -599h36l536 599h426z" glyph-name="Ygrave" horiz-adv-x="1576" unicode="Ỳ"/><glyph d="M1200 1519h-353l-178 287h353zM1783 1434l-897 -980l-147 -454h-386l150 473l-262 961h387l157 -599h36l536 599h426z" glyph-name="ygrave" horiz-adv-x="1576" unicode="ỳ"/><glyph d="M9 534l104 323h1399l-104 -323h-1399z" glyph-name="endash" horiz-adv-x="1536" unicode="–"/><glyph d="M9 534l104 323h1536l-104 -323h-1536z" glyph-name="emdash" horiz-adv-x="1672" unicode="—"/><glyph d="M643 1437q-102 -217 -150 -401h173l-103 -323h-478l2 9q164 492 345 715h211z" glyph-name="quoteleft" horiz-adv-x="648" unicode="‘"/><glyph d="M236 712q102 217 150 401h-173l103 322h478l-2 -8q-164 -492 -345 -715h-211z" glyph-name="quoteright" horiz-adv-x="646" unicode="’"/><glyph d="M-125 -401q102 217 151 401h-173l103 323h477l-1 -9q-164 -492 -345 -715h-212z" glyph-name="quotesinglbase" horiz-adv-x="646" unicode="‚"/><glyph d="M591 1437q-90 -207 -135 -401h153l-92 -323h-428l1 9q148 493 309 715h192zM1114 1437q-90 -207 -134 -401h153l-92 -323h-428l1 9q148 493 309 715h191z" glyph-name="quotedblleft" horiz-adv-x="1126" unicode="“"/><glyph d="M244 712q90 207 135 401h-154l92 322h429l-2 -8q-148 -493 -309 -715h-191zM768 712q90 207 135 401h-154l92 322h429l-2 -8q-148 -493 -309 -715h-191z" glyph-name="quotedblright" horiz-adv-x="1124" unicode="”"/><glyph d="M-130 -439q90 207 135 401h-153l92 323h428l-2 -9q-148 -493 -309 -715h-191zM394 -439q90 207 135 401h-154l93 323h428l-2 -9q-148 -493 -309 -715h-191z" glyph-name="quotedblbase" horiz-adv-x="1128" unicode="„"/><glyph d="M1290 1196l-100 -312h-359l-116 -355h-336l116 355h-353l100 312h354l116 355h338l-116 -355h356z" glyph-name="dagger" horiz-adv-x="1221" unicode="†"/><glyph d="M1190 884h-359l-43 -133h2l-116 -355h357l-101 -312h-358l-116 -355h-337l117 355h-354l101 312h353l45 133h-2l116 355h-353l100 312h354l116 355h338l-116 -355h356z" glyph-name="daggerdbl" horiz-adv-x="1221" unicode="‡"/><glyph d="M418 401q-113 0 -182 69t-69 177q0 155 120.5 271t267.5 116q113 0 182 -70t69 -177q0 -155 -120 -270.5t-268 -115.5z" glyph-name="bullet" horiz-adv-x="972" unicode="•"/><glyph d="M60 -27q-77 0 -124 47t-47 122q0 96 67.5 160.5t161.5 64.5q75 0 122 -47t47 -122q0 -94 -67.5 -159.5t-159.5 -65.5zM599 -27q-77 0 -124 47t-47 122q0 96 67.5 160.5t161.5 64.5q75 0 122 -47t47 -122q0 -94 -67.5 -159.5t-159.5 -65.5zM1138 -27q-77 0 -123.5 47 t-46.5 122q0 96 67.5 160.5t160.5 64.5q75 0 122 -47t47 -122q0 -94 -67.5 -159.5t-159.5 -65.5z" glyph-name="ellipsis" horiz-adv-x="1600" unicode="…"/><glyph d="M341 -51l-146 116l1385 1427l145 -116zM500 724q-138 0 -219 73t-81 205q0 177 138 314.5t329 137.5q137 0 219 -74t82 -208q0 -183 -136 -315.5t-332 -132.5zM546 951q72 0 125 52.5t53 121.5q0 102 -103 102q-70 0 -123.5 -53t-53.5 -121q0 -102 102 -102zM1254 -20 q-138 0 -219 74t-81 205q0 176 138.5 314.5t329.5 138.5q135 0 217.5 -75.5t82.5 -206.5q0 -183 -136.5 -316.5t-331.5 -133.5zM2079 -20q-138 0 -219.5 74t-81.5 205q0 176 139.5 314.5t328.5 138.5q137 0 218.5 -75.5t81.5 -206.5q0 -183 -135.5 -316.5t-331.5 -133.5z M1299 208q72 0 125.5 53t53.5 121q0 101 -102 101q-72 0 -125 -53t-53 -121q0 -48 26.5 -74.5t74.5 -26.5zM2125 208q72 0 124.5 53t52.5 121q0 101 -102 101q-70 0 -124 -53t-54 -121q1 -101 103 -101z" glyph-name="perthousand" horiz-adv-x="2747" unicode="‰"/><glyph d="M1005 1212l-491 -497l184 -493h-415l-182 493l490 497h414z" glyph-name="guilsinglleft" horiz-adv-x="960" unicode="‹"/><glyph d="M-44 222l491 497l-184 493h415l182 -493l-490 -497h-414z" glyph-name="guilsinglright" horiz-adv-x="960" unicode="›"/><glyph d="M1038 1149q-147 0 -266.5 -72.5t-191.5 -194.5h326l-48 -143h-341q-10 -34 -15 -73h333l-48 -144h-285q20 -114 102 -175.5t205 -61.5q265 0 418 247h358q-51 -133 -129.5 -237t-163 -167t-184 -104t-188.5 -56.5t-181 -15.5q-280 0 -440.5 152t-165.5 418h-153l47 144 h115q3 29 13 73h-102l46 143h102q108 265 351 432t556 167q285 0 450.5 -165.5t124.5 -417.5h-352q-10 123 -90 187t-203 64z" glyph-name="Euro" horiz-adv-x="1687" unicode="€"/><glyph d="M1524 758q-125 0 -197.5 70t-72.5 187q0 172 131 300.5t310 128.5q125 0 197 -70t72 -188q0 -172 -130.5 -300t-309.5 -128zM-164 0l464 1434h357l-12 -792h36l256 792h350l-464 -1434h-357l10 795h-34l-256 -795h-350zM1570 971q72 0 122.5 54t50.5 113q0 44 -26.5 67.5 t-67.5 23.5q-72 0 -124 -54t-52 -115q0 -44 27 -66.5t70 -22.5zM1036 271l99 306h604l-99 -306h-604z" glyph-name="afii61352" horiz-adv-x="1875" unicode="№"/><glyph d="M1350 1434h261l-206 -639h-180l125 384h-15l-193 -384h-188l60 384h-24l-125 -384h-177l153 476h-186l-153 -476h-195l156 476h-224l53 163h860l-60 -449h26z" glyph-name="trademark" horiz-adv-x="1438" unicode="™"/><glyph d="M944 1471q227 0 345.5 -93t126 -260t-68.5 -398q-261 -758 -914 -758q-241 0 -364.5 90t-123.5 257q0 176 107.5 314t287 211.5t394.5 73.5q222 0 295 -79q138 352 -184 352q-106 0 -198 -42t-137 -125h-317q80 220 280 338.5t471 118.5zM531 251q150 0 261 81t111 195 q0 154 -217 154q-152 0 -262 -77t-110 -189q0 -80 57.5 -122t159.5 -42z" glyph-name="partialdiff" horiz-adv-x="1397" unicode="∂"/><glyph d="M1422 1536l-104 -321l-478 -1471h-386l478 1471h-316l-478 -1471h-385l517 1594h1l64 198h1087z" glyph-name="product" horiz-adv-x="1223" unicode="∏"/><glyph d="M-242 -256l97 323l741 558l-352 590l97 321h1077l-102 -321h-667l348 -566l-5 -47l-704 -535h652l-104 -323h-1078z" glyph-name="summation" horiz-adv-x="1220" unicode="∑"/><glyph d="M32 556l106 323h997l-106 -323h-997z" glyph-name="minus" horiz-adv-x="1167" unicode="−"/><glyph d="M200 -256l32 737h-223l104 321h435l-34 -688h27l736 1422h320l-950 -1792h-447z" glyph-name="radical" horiz-adv-x="1416" unicode="√"/><glyph d="M1171 1077q215 0 215 -205q0 -195 -138.5 -355t-324.5 -160q-108 0 -162 53t-94 153q-109 -102 -199.5 -154t-194.5 -52q-220 0 -220 204q0 195 141 355.5t327 160.5q104 0 158.5 -53t93.5 -155q109 102 199.5 155t198.5 53zM312 662q0 -75 72 -75q77 0 230 133 q-39 73 -68 101.5t-70 28.5q-65 0 -114.5 -60.5t-49.5 -127.5zM966 587q63 0 113.5 60.5t50.5 125.5q0 34 -19 55.5t-53 21.5q-73 0 -229 -130q36 -73 66 -103t71 -30z" glyph-name="infinity" horiz-adv-x="1440" unicode="∞"/><glyph d="M63 -256q-193 0 -280 67l91 281q123 -51 198 -51q184 0 247 188l277 862q72 225 231 327.5t361 102.5q193 0 280 -67l-91 -282q-125 51 -198 52q-186 0 -247 -188l-277 -862q-48 -150 -145 -250t-208 -140t-239 -40z" glyph-name="integral" horiz-adv-x="1305" unicode="∫"/><glyph d="M775 737q-60 2 -112 23.5t-83.5 47t-76 47t-88.5 21.5q-113 0 -161 -103h-148q39 164 159.5 250t261.5 86q73 0 134 -34t114.5 -68t108.5 -36q118 5 164 102h148q-26 -111 -95.5 -189t-152.5 -111.5t-173 -35.5zM642 323q-60 2 -112 23t-83.5 46.5t-76 47t-88.5 21.5 q-113 0 -161 -103h-148q39 164 159.5 250.5t261.5 86.5q73 0 134 -34.5t114.5 -68.5t108.5 -36q118 5 164 103h148q-26 -111 -95.5 -189.5t-152.5 -111.5t-173 -35z" glyph-name="approxequal" horiz-adv-x="1169" unicode="≈"/><glyph d="M1306 1398l-251 -314h146l-105 -321h-299l-72 -91h343l-105 -320h-494l-213 -267h-394l213 267h-109l106 320h261l71 91h-305l106 321h457l251 314h393z" glyph-name="notequal" horiz-adv-x="1167" unicode="≠"/><glyph d="M986 449l-868 350l126 404l1104 357l-104 -331l-734 -207l-13 -39l594 -206zM-145 0l106 323h996l-105 -323h-997z" glyph-name="lessequal" horiz-adv-x="1172" unicode="≤"/><glyph d="M357 1553l855 -350l-125 -404l-1087 -357l102 331l724 207l12 39l-585 206zM-148 0l105 323h997l-106 -323h-996z" glyph-name="greaterequal" horiz-adv-x="1169" unicode="≥"/><glyph d="M208 0q-12 0 -22 16t-7 28l-94 673l531 713q5 7 7 8t6 -1.5t11 -2.5h387q14 0 24.5 -15.5t6.5 -27.5l92 -674l-530 -714q-5 -7 -6 -7.5t-6.5 2t-11.5 2.5h-388zM468 278l355 442l-55 437l-355 -444z" glyph-name="lozenge" horiz-adv-x="1235" unicode="◊"/><glyph d="M978 1149q-242 0 -405 -171t-163 -386q0 -147 90.5 -227t240.5 -80q55 0 112.5 12t125 39.5t127.5 83.5t95 135h-421l70 216h783q-72 -408 -331 -613.5t-645 -205.5q-292 0 -460 157t-168 429q0 184 77.5 356.5t211 302t325.5 207t408 77.5q282 0 454.5 -148.5 t155.5 -376.5h-384q-26 94 -106 143.5t-193 49.5z" glyph-name="G.aalt" horiz-adv-x="1687"/><glyph d="M544 1533q-55 0 -90.5 35.5t-35.5 88.5q0 65 54 115.5t119 50.5q55 0 89.5 -37t34.5 -88q0 -67 -53 -116t-118 -49zM-164 0l464 1434h384l-462 -1434h-386z" glyph-name="i.aalt" horiz-adv-x="520"/><glyph d="M978 1149q-242 0 -405 -171t-163 -386q0 -147 90.5 -227t240.5 -80q55 0 112.5 12t125 39.5t127.5 83.5t95 135h-421l70 216h783q-72 -408 -331 -613.5t-645 -205.5q-292 0 -460 157t-168 429q0 184 77.5 356.5t211 302t325.5 207t408 77.5q282 0 454.5 -148.5 t155.5 -376.5h-384q-26 94 -106 143.5t-193 49.5z" glyph-name="g.aalt" horiz-adv-x="1687"/></font>
</defs>
</svg>
