<?xml version="1.0" standalone="no"?>
<!DOCTYPE svg PUBLIC "-//W3C//DTD SVG 1.1//EN" "http://www.w3.org/Graphics/SVG/1.1/DTD/svg11.dtd">
<svg xmlns="http://www.w3.org/2000/svg"><metadata>This SVG WebFont was generated by YouWorkForThem.
Â© 2017 Connary Fagen</metadata><defs><font horiz-adv-x="1578" id="ywftsvg"><font-face ascent="1638" bbox="-459 -775 2697 1876" cap-height="1434" descent="-410" font-family="" font-stretch="normal" font-weight="600" panose-1="0 0 7 0 0 0 0 0 0 0" underline-position="0" underline-thickness="0" unicode-range="U+0020-25CA" units-per-em="2048" x-height="1434"/><missing-glyph d="M736 1536v-1792h-569v1792h569zM597 1417h-297v-60h118v-67h-119v-58h298v58h-119v67h119v60zM478 1184h-179v-186h298v62h-119v124zM418 1125v-65h-60v65h60zM597 951h-298v-60h119v-67h-119v-58h179v125h119v60zM597 843h-59v-119h-239v-60h298v179zM597 625h-179v-101 h60v41h60v-84h-180v144h-59v-203h298v203zM597 314h-298v-203h298v203zM538 254v-83h-180v83h180zM597 70h-298v-60h126l-126 -83v-60h298v60h-182l124 83h58v60z" horiz-adv-x="896"/><glyph d="M736 1536v-1792h-569v1792h569zM597 1417h-297v-60h118v-67h-119v-58h298v58h-119v67h119v60zM478 1184h-179v-186h298v62h-119v124zM418 1125v-65h-60v65h60zM597 951h-298v-60h119v-67h-119v-58h179v125h119v60zM597 843h-59v-119h-239v-60h298v179zM597 625h-179v-101 h60v41h60v-84h-180v144h-59v-203h298v203zM597 314h-298v-203h298v203zM538 254v-83h-180v83h180zM597 70h-298v-60h126l-126 -83v-60h298v60h-182l124 83h58v60z" glyph-name=".notdef" horiz-adv-x="896"/><glyph glyph-name="glyph1" horiz-adv-x="0"/><glyph glyph-name="glyph2" horiz-adv-x="682"/><glyph glyph-name="space" horiz-adv-x="440" unicode=" "/><glyph d="M142 527l-84 907h444l-84 -907h-276zM280 -27q-90 0 -154.5 63t-64.5 152q0 87 65 151t154 64t153 -64t64 -151q0 -89 -64 -152t-153 -63z" glyph-name="exclam" horiz-adv-x="559" unicode="!"/><glyph d="M116 811l-31 623h374l-29 -623h-314zM577 811l-31 623h374l-29 -623h-314z" glyph-name="quotedbl" horiz-adv-x="1005" unicode="&quot;"/><glyph d="M1369 845h-183v-236h183v-312h-183v-297h-357v297h-233v-297h-359v297h-181v312h181v236h-181v293h181v296h359v-296h233v296h357v-296h183v-293zM829 609v236h-233v-236h233z" glyph-name="numbersign" horiz-adv-x="1425" unicode="#"/><glyph d="M1287 459q0 -177 -148.5 -276t-409.5 -111v-104h-144v104q-258 12 -405.5 117.5t-148.5 315.5h377q5 -123 177 -141v238q-237 43 -336 91q-196 94 -196 285q0 171 143.5 271.5t388.5 110.5v113h144v-114q108 -7 195.5 -32t162 -73.5t115 -132t39.5 -196.5h-369 q-5 68 -40 102.5t-103 44.5v-237q67 -9 104 -14t104 -19t107.5 -30t92 -45t80.5 -64t49.5 -88t20.5 -116zM442 973q0 -75 143 -113v215q-143 -15 -143 -102zM729 364q162 14 162 102q0 38 -37.5 63.5t-124.5 45.5v-211z" glyph-name="dollar" horiz-adv-x="1322" unicode="$"/><glyph d="M599 -51l-184 126l928 1417l184 -125zM457.5 707q-187.5 0 -284 105.5t-96.5 269.5q0 162 96.5 267t284 105t284 -105t96.5 -267q0 -164 -96.5 -269.5t-284 -105.5zM457 975q53 0 79.5 31.5t26.5 75.5q0 46 -26.5 76t-79.5 30t-80 -30t-27 -76q0 -44 27 -75.5t80 -31.5z M1485 -20q-188 0 -284.5 104.5t-96.5 268.5t96.5 269t284.5 105t283.5 -105t95.5 -269t-95.5 -268.5t-283.5 -104.5zM1485 246q53 0 79.5 31.5t26.5 75.5q0 46 -26.5 77t-79.5 31t-80.5 -31t-27.5 -77q0 -44 27.5 -75.5t80.5 -31.5z" glyph-name="percent" horiz-adv-x="1942" unicode="%"/><glyph d="M1683 210l-178 -248l-176 130q-218 -140 -554 -140q-333 0 -530 127.5t-197 345.5q0 130 76 235t234 163q-116 125 -116 257q0 162 157 276.5t436 114.5q288 0 455 -130.5t166 -403.5h-374q2 119 -65.5 168t-181.5 49q-96 0 -148 -31t-52 -85q0 -44 42.5 -85.5 t191.5 -150.5l373 -271q49 102 47 225h377q-2 -258 -120 -447zM817 285q111 0 202 36l-444 326q-99 -58 -99 -155q0 -104 97 -155.5t244 -51.5z" glyph-name="ampersand" horiz-adv-x="1728" unicode="&amp;"/><glyph d="M116 811l-31 623h374l-29 -623h-314z" glyph-name="quotesingle" horiz-adv-x="544" unicode="'"/><glyph d="M876 -247q-164 0 -295.5 36.5t-217 92t-148.5 141.5t-95.5 166.5t-52 184.5t-24 177.5t-4.5 165.5q0 90 4.5 163.5t24 177.5t52 183.5t95.5 165.5t148.5 141.5t217 92.5t295.5 37v-352q-111 0 -191.5 -31.5t-128 -82t-75 -132.5t-37 -165.5t-9.5 -198t9.5 -199t37 -166 t75 -133t128 -83t191.5 -31.5v-351z" glyph-name="parenleft" horiz-adv-x="938" unicode="("/><glyph d="M63 -247v351q111 0 191.5 31.5t128 83t75 133t36.5 166t9 199t-9 198t-36.5 165.5t-75 132.5t-128 82t-191.5 31.5v352q164 0 295.5 -37t216.5 -92.5t148.5 -141.5t96 -165.5t52 -183.5t23.5 -177.5t4 -163.5q0 -92 -4 -165.5t-23.5 -177.5t-52 -184.5t-96 -166.5 t-148.5 -141.5t-216.5 -92t-295.5 -36.5z" glyph-name="parenright" horiz-adv-x="938" unicode=")"/><glyph d="M1021 1091l-258 -125l258 -125l-127 -220l-235 161l20 -285h-252l20 285l-235 -161l-127 220l258 125l-258 125l127 218l235 -160l-20 285h252l-20 -285l235 160z" glyph-name="asterisk" horiz-adv-x="1105" unicode="*"/><glyph d="M1239 887v-339h-398v-398h-358v398h-398v339h398v400h358v-400h398z" glyph-name="plus" horiz-adv-x="1324" unicode="+"/><glyph d="M210 -403q27 184 24 403h-178v358h516v-80q0 -249 -30 -426.5t-68 -254.5h-264z" glyph-name="comma" horiz-adv-x="626" unicode=","/><glyph d="M68 532v359h990v-359h-990z" glyph-name="hyphen" horiz-adv-x="1126" unicode="-"/><glyph d="M280 -27q-90 0 -154.5 63t-64.5 152q0 87 65 151t154 64t153 -64t64 -151q0 -89 -64 -152t-153 -63z" glyph-name="period" horiz-adv-x="559" unicode="."/><glyph d="M17 0l662 1434h488l-662 -1434h-488z" glyph-name="slash" horiz-adv-x="1184" unicode="/"/><glyph d="M751 -38q-340 0 -526 194t-186 561t186 560.5t526 193.5q341 0 527 -193t186 -561.5t-186 -561.5t-527 -193zM751 324q142 0 217 98.5t75 294.5t-75 294t-217 98q-140 0 -215 -98t-75 -294t75 -294.5t215 -98.5z" glyph-name="zero" horiz-adv-x="1503" unicode="0"/><glyph d="M887 328h301v-328h-1115v328h386v693q-118 -101 -355 -101v360q193 0 355 154h428v-1106z" glyph-name="one" horiz-adv-x="1261" unicode="1"/><glyph d="M1316 1015q0 -102 -37 -180.5t-98 -126.5t-136.5 -84.5t-154.5 -64.5t-148.5 -57t-125 -73.5t-77.5 -100.5h770v-328h-1261v200q0 126 47 225t122 160.5t166 108.5t181.5 79.5t166 62t122 69t46.5 88.5q0 137 -192 137q-97 0 -163 -38.5t-64 -134.5h-419q0 251 159 382.5 t468 131.5q302 0 465 -118t163 -338z" glyph-name="two" horiz-adv-x="1363" unicode="2"/><glyph d="M689 -38q-329 0 -486 121.5t-155 382.5h384q5 -90 68 -127t181 -37q125 0 194.5 36.5t69.5 106.5q0 61 -63 112t-220 51h-70v245h70q154 0 212 45.5t58 101.5q0 65 -63 99t-169 34q-239 0 -239 -169h-382q-5 507 622 507q299 0 458.5 -107.5t159.5 -291.5 q0 -210 -213 -307v-24q118 -34 190.5 -123t72.5 -224q0 -201 -183 -316.5t-497 -115.5z" glyph-name="three" horiz-adv-x="1414" unicode="3"/><glyph d="M1253 585h211v-326h-211v-259h-429v259h-759v326l684 849h504v-849zM444 585h380v473z" glyph-name="four" horiz-adv-x="1518" unicode="4"/><glyph d="M678 -38q-631 0 -622 494h381q22 -157 237 -157q126 0 193.5 58t67.5 146q0 90 -63 144t-181 54q-154 0 -239 -100h-382l155 833h990v-326h-672l-45 -236q102 79 316 79q225 0 373.5 -122t148.5 -348q0 -244 -169.5 -381.5t-488.5 -137.5z" glyph-name="five" horiz-adv-x="1384" unicode="5"/><glyph d="M775 922q253 0 411.5 -116.5t158.5 -344.5q0 -230 -165.5 -364.5t-474.5 -134.5q-669 0 -669 758q0 205 53.5 354.5t150 234t215 123.5t264.5 39q280 0 439.5 -118.5t157.5 -348.5h-343q-15 75 -84.5 110.5t-169.5 35.5q-288 0 -280 -302q111 74 336 74zM699.5 282 q119.5 0 188.5 52t69 137q0 87 -68 136.5t-189 49.5t-188 -48.5t-67 -137.5q0 -85 67.5 -137t187 -52z" glyph-name="six" horiz-adv-x="1380" unicode="6"/><glyph d="M48 1434h1227v-347l-702 -1087h-452l705 1087h-778v347z" glyph-name="seven" horiz-adv-x="1312" unicode="7"/><glyph d="M720 -38q-181 0 -315.5 37t-210 101t-111 142.5t-35.5 172.5q0 249 247 373v26q-67 41 -107 113.5t-40 157.5q0 174 144.5 280t428 106t429 -105.5t145.5 -280.5q0 -85 -40 -157.5t-108 -113.5v-26q247 -125 247 -373q0 -94 -35.5 -172.5t-111.5 -142.5t-210 -101 t-317 -37zM720 896q196 0 196 140q0 67 -50 104.5t-146 37.5q-94 0 -144 -37.5t-50 -104.5q-1 -140 194 -140zM720 287q131 0 194.5 49.5t63.5 131.5t-63 130.5t-194.5 48.5t-194 -48.5t-62.5 -130.5t63 -131.5t193 -49.5z" glyph-name="eight" horiz-adv-x="1442" unicode="8"/><glyph d="M676 1471q669 0 669 -758q0 -205 -54 -354t-150.5 -233.5t-215 -124t-263.5 -39.5q-280 0 -439.5 119t-157.5 349h343q15 -75 84 -111t170 -36q288 0 280 302q-109 -73 -336 -73q-253 0 -411.5 116t-158.5 345q0 230 165.5 364t474.5 134zM681 777q121 0 187.5 48.5 t66.5 137.5q0 85 -67.5 137t-187 52t-188.5 -52t-69 -137q0 -87 68.5 -136.5t189.5 -49.5z" glyph-name="nine" horiz-adv-x="1380" unicode="9"/><glyph d="M280 862q-90 0 -154.5 63t-64.5 152q0 87 65 151t154 64t153 -64t64 -151q0 -89 -64 -152t-153 -63zM280 126q-90 0 -154.5 63.5t-64.5 151.5q0 87 65 151t154 64t153 -64t64 -151q0 -89 -64 -152t-153 -63z" glyph-name="colon" horiz-adv-x="559" unicode=":"/><glyph d="M328 862q-90 0 -154.5 63t-64.5 152q0 87 65 151t153.5 64t152.5 -64t64 -151q0 -89 -63.5 -152t-152.5 -63zM217 -237q27 184 24 403h-178v358h516v-80q0 -249 -30 -426.5t-68 -254.5h-264z" glyph-name="semicolon" horiz-adv-x="640" unicode=";"/><glyph d="M1091 138l-1006 333v486l1006 338v-368l-681 -191v-43l681 -191v-364z" glyph-name="less" horiz-adv-x="1175" unicode="&lt;"/><glyph d="M85 763v358h1035v-358h-1035zM85 314v358h1035v-358h-1035z" glyph-name="equal" horiz-adv-x="1204" unicode="="/><glyph d="M114 138v364l681 191v43l-681 191v368l1006 -338v-486z" glyph-name="greater" horiz-adv-x="1204" unicode=">"/><glyph d="M464 515q-10 82 7 143t53 95.5t82 59.5t94.5 42t88.5 35t66 45.5t26 66.5q0 58 -59 93t-155 35q-104 0 -176.5 -46t-72.5 -159h-387q-12 273 154.5 409.5t478.5 136.5q299 0 470.5 -104t171.5 -317q0 -90 -32 -155.5t-79.5 -97t-103 -60.5t-104 -51t-81 -65.5 t-32.5 -105.5h-410zM667 -27q-90 0 -154 63t-64 152q0 87 65 151t153.5 64t152.5 -64t64 -151q0 -89 -64 -152t-153 -63z" glyph-name="question" horiz-adv-x="1336" unicode="?"/><glyph d="M1539 355q-73 -177 -262.5 -290t-445.5 -113q-353 0 -572.5 214.5t-219.5 550.5t219.5 550t572.5 214q352 0 573 -212.5t221 -531.5q0 -126 -68.5 -190t-192.5 -64q-109 0 -156 49.5t-41 136.5l41 425h-143l-31 -77h-22q-89 101 -246 101q-155 0 -261.5 -110t-106.5 -296 q0 -188 107.5 -299t269.5 -111q183 0 263 137h20q72 -137 260 -137q137 0 218 56zM787 939q84 0 134 -61.5t50 -169.5q0 -104 -50.5 -165.5t-133.5 -61.5q-85 0 -138 61.5t-53 165.5q0 106 53 168.5t138 62.5z" glyph-name="at" horiz-adv-x="1662" unicode="@"/><glyph d="M1244 0l-72 207h-645l-71 -207h-442l536 1434h600l538 -1434h-444zM638 526h424l-175 505h-75z" glyph-name="A" horiz-adv-x="1699" unicode="A"/><glyph d="M1270 744q229 -109 228 -340q0 -186 -144 -295t-458 -109h-831v1434h848q294 0 420 -106t126 -270q0 -111 -49.5 -176.5t-139.5 -111.5v-26zM870 1104h-377v-249h377q90 0 134 33.5t44 89.5t-44 91t-134 35zM884 329q89 0 135 43t46 102.5t-45 98t-136 38.5h-391v-282 h391z" glyph-name="B" horiz-adv-x="1546" unicode="B"/><glyph d="M838 -48q-358 0 -578.5 211.5t-220.5 553t220.5 553t578.5 211.5q135 0 252 -31.5t222 -99.5t174.5 -191t90.5 -290h-410q-68 242 -329 242q-160 0 -267 -109t-107 -285q0 -174 107 -284t267 -110q263 0 329 245h410q-20 -169 -89.5 -292.5t-174.5 -192t-222.5 -100 t-252.5 -31.5z" glyph-name="C" horiz-adv-x="1616" unicode="C"/><glyph d="M765 1434q210 0 363.5 -53t243 -152t132 -226t42.5 -286t-42.5 -286t-132 -225t-243 -152t-363.5 -54h-700v1434h700zM763 360q167 0 260 89t93 268t-93 267.5t-260 88.5h-268v-713h268z" glyph-name="D" horiz-adv-x="1592" unicode="D"/><glyph d="M65 0v1434h1263v-345h-835v-227h804v-289h-804v-227h835v-346h-1263z" glyph-name="E" horiz-adv-x="1392" unicode="E"/><glyph d="M65 0v1434h1259v-359h-831v-242h792v-312h-792v-521h-428z" glyph-name="F" horiz-adv-x="1389" unicode="F"/><glyph d="M1589 780v-780h-239l-5 198q-77 -113 -213.5 -179.5t-319.5 -66.5q-333 0 -553 213.5t-220 551.5q0 343 222 553.5t587 210.5q174 0 322.5 -52.5t262 -176.5t144.5 -305h-425q-29 72 -107.5 118t-187.5 46q-172 0 -282.5 -109t-110.5 -285q0 -174 109.5 -284t273.5 -110 q43 0 85.5 8.5t93.5 29.5t91 67t57 111h-348v241h763z" glyph-name="G" horiz-adv-x="1662" unicode="G"/><glyph d="M1101 1434h428v-1434h-428v538h-608v-538h-428v1434h428v-538h608v538z" glyph-name="H" horiz-adv-x="1594" unicode="H"/><glyph d="M65 0v1434h428v-1434h-428z" glyph-name="I" horiz-adv-x="556" unicode="I"/><glyph d="M674 -48q-143 0 -253 29t-198 95t-132.5 185.5t-42.5 286.5h426q-2 -230 210 -230.5t212 271.5v845h428v-823q0 -355 -164.5 -507t-485.5 -152z" glyph-name="J" horiz-adv-x="1389" unicode="J"/><glyph d="M1584 0h-441l-411 538h-27l-213 -226v-312h-427v1434h427v-608h29l561 608h480l-589 -639z" glyph-name="K" unicode="K"/><glyph d="M65 0v1434h428v-1076h785v-358h-1213z" glyph-name="L" horiz-adv-x="1338" unicode="L"/><glyph d="M65 0v1434h541l275 -881h30l275 881h543v-1434h-410v712h-34l-227 -712h-322l-227 712h-36v-712h-408z" glyph-name="M" horiz-adv-x="1792" unicode="M"/><glyph d="M65 0v1434h493l539 -838h40v838h418v-1434h-483l-551 838h-38v-838h-418z" glyph-name="N" horiz-adv-x="1617" unicode="N"/><glyph d="M843 -48q-362 0 -583 211t-221 554t221 553.5t583 210.5t583 -210.5t221 -553.5t-221 -554t-583 -211zM843 323q162 0 270.5 107.5t108.5 286.5t-108.5 286.5t-270.5 107.5t-270.5 -107.5t-108.5 -286.5t108.5 -286.5t270.5 -107.5z" glyph-name="O" horiz-adv-x="1686" unicode="O"/><glyph d="M65 0v1434h792q295 0 453.5 -137.5t158.5 -410.5q0 -275 -157.5 -411.5t-453.5 -136.5h-365v-338h-428zM493 695h330q101 0 158 48.5t57 142.5t-57.5 142.5t-157.5 48.5h-330v-382z" glyph-name="P" horiz-adv-x="1515" unicode="P"/><glyph d="M1647 732q0 -278 -198 -481l189 -191q-96 -125 -239 -244l-225 208q-171 -72 -331 -72q-362 0 -583 211t-221 554t221 553.5t583 210.5t583 -208t221 -541zM464 717q0 -179 108.5 -286.5t270.5 -107.5t270.5 107.5t108.5 286.5t-108.5 286.5t-270.5 107.5t-270.5 -107.5 t-108.5 -286.5z" glyph-name="Q" horiz-adv-x="1686" unicode="Q"/><glyph d="M1516 0h-422l-208 389h-393v-389h-428v1434h797q299 0 455 -134t156 -402q0 -278 -220 -420zM493 1077v-365h342q102 0 155.5 47t53.5 135.5t-53.5 135.5t-155.5 47h-342z" glyph-name="R" horiz-adv-x="1553" unicode="R"/><glyph d="M730 -48q-362 2 -534 125.5t-165 390.5h385q10 -177 314 -180q142 -2 216.5 37t74.5 103q0 104 -195 135l-181 29q-247 43 -348 86q-230 101 -230 355q0 213 171.5 330.5t495.5 117.5q155 0 273.5 -25.5t211.5 -82.5t140 -158.5t46 -245.5h-383q-31 176 -298 176 q-246 0 -246 -133q0 -101 162 -128l152 -27q26 -3 86.5 -13.5t91 -15.5t87 -17t88 -23t79 -30t74 -40.5t59 -53t49 -67.5t28.5 -83.5t12 -102.5q0 -227 -180.5 -344t-535.5 -115z" glyph-name="S" horiz-adv-x="1481" unicode="S"/><glyph d="M1529 1434v-359h-522v-1075h-428v1075h-523v359h1473z" glyph-name="T" horiz-adv-x="1585" unicode="T"/><glyph d="M790.5 -48q-725.5 0 -725.5 664v818h432v-808q0 -150 72.5 -232t221 -82t221.5 82t73 232v808h431v-816q0 -666 -725.5 -666z" glyph-name="U" unicode="U"/><glyph d="M550 0l-536 1434h442l370 -1031h48l370 1031h444l-538 -1434h-600z" glyph-name="V" horiz-adv-x="1699" unicode="V"/><glyph d="M329 0l-293 1434h435l178 -977h37l229 977h345l228 -977h38l177 977h435l-293 -1434h-579l-160 761h-38l-160 -761h-579z" glyph-name="W" horiz-adv-x="2174" unicode="W"/><glyph d="M5 0l502 715v22l-490 697h463l276 -413h41l276 413h463l-488 -697v-22l500 -715h-468l-283 432h-41l-283 -432h-468z" glyph-name="X" horiz-adv-x="1553" unicode="X"/><glyph d="M1609 1434l-588 -985v-449h-429v451l-587 983h451l332 -574h38l331 574h452z" glyph-name="Y" horiz-adv-x="1614" unicode="Y"/><glyph d="M39 0v346l770 697v32h-751v359h1306v-347l-780 -696v-33h769v-358h-1314z" glyph-name="Z" horiz-adv-x="1401" unicode="Z"/><glyph d="M65 -230v1894h799v-358h-371v-1178h371v-358h-799z" glyph-name="bracketleft" horiz-adv-x="928" unicode="["/><glyph d="M1167 0h-488l-662 1434h488z" glyph-name="backslash" horiz-adv-x="1184" unicode="\"/><glyph d="M864 -230h-799v358h370v1178h-370v358h799v-1894z" glyph-name="bracketright" horiz-adv-x="928" unicode="]"/><glyph d="M72 486l332 1006h487l338 -1006h-369l-191 681h-43l-191 -681h-363z" glyph-name="asciicircum" horiz-adv-x="1302" unicode="^"/><glyph d="M85 -358v358h1055v-358h-1055z" glyph-name="underscore" horiz-adv-x="1225" unicode="_"/><glyph d="M503 1161h-380l-123 291h381z" glyph-name="grave" horiz-adv-x="503" unicode="`"/><glyph d="M1244 0l-72 207h-645l-71 -207h-442l536 1434h600l538 -1434h-444zM638 526h424l-175 505h-75z" glyph-name="a" horiz-adv-x="1699" unicode="a"/><glyph d="M1270 744q229 -109 228 -340q0 -186 -144 -295t-458 -109h-831v1434h848q294 0 420 -106t126 -270q0 -111 -49.5 -176.5t-139.5 -111.5v-26zM870 1104h-377v-249h377q90 0 134 33.5t44 89.5t-44 91t-134 35zM884 329q89 0 135 43t46 102.5t-45 98t-136 38.5h-391v-282 h391z" glyph-name="b" horiz-adv-x="1546" unicode="b"/><glyph d="M838 -48q-358 0 -578.5 211.5t-220.5 553t220.5 553t578.5 211.5q135 0 252 -31.5t222 -99.5t174.5 -191t90.5 -290h-410q-68 242 -329 242q-160 0 -267 -109t-107 -285q0 -174 107 -284t267 -110q263 0 329 245h410q-20 -169 -89.5 -292.5t-174.5 -192t-222.5 -100 t-252.5 -31.5z" glyph-name="c" horiz-adv-x="1616" unicode="c"/><glyph d="M765 1434q210 0 363.5 -53t243 -152t132 -226t42.5 -286t-42.5 -286t-132 -225t-243 -152t-363.5 -54h-700v1434h700zM763 360q167 0 260 89t93 268t-93 267.5t-260 88.5h-268v-713h268z" glyph-name="d" horiz-adv-x="1592" unicode="d"/><glyph d="M65 0v1434h1263v-345h-835v-227h804v-289h-804v-227h835v-346h-1263z" glyph-name="e" horiz-adv-x="1392" unicode="e"/><glyph d="M65 0v1434h1259v-359h-831v-242h792v-312h-792v-521h-428z" glyph-name="f" horiz-adv-x="1389" unicode="f"/><glyph d="M1589 780v-780h-239l-5 198q-77 -113 -213.5 -179.5t-319.5 -66.5q-333 0 -553 213.5t-220 551.5q0 343 222 553.5t587 210.5q174 0 322.5 -52.5t262 -176.5t144.5 -305h-425q-29 72 -107.5 118t-187.5 46q-172 0 -282.5 -109t-110.5 -285q0 -174 109.5 -284t273.5 -110 q43 0 85.5 8.5t93.5 29.5t91 67t57 111h-348v241h763z" glyph-name="g" horiz-adv-x="1662" unicode="g"/><glyph d="M1101 1434h428v-1434h-428v538h-608v-538h-428v1434h428v-538h608v538z" glyph-name="h" horiz-adv-x="1594" unicode="h"/><glyph d="M65 0v1434h428v-1434h-428z" glyph-name="i" horiz-adv-x="556" unicode="i"/><glyph d="M674 -48q-143 0 -253 29t-198 95t-132.5 185.5t-42.5 286.5h426q-2 -230 210 -230.5t212 271.5v845h428v-823q0 -355 -164.5 -507t-485.5 -152z" glyph-name="j" horiz-adv-x="1389" unicode="j"/><glyph d="M1584 0h-441l-411 538h-27l-213 -226v-312h-427v1434h427v-608h29l561 608h480l-589 -639z" glyph-name="k" unicode="k"/><glyph d="M65 0v1434h428v-1076h785v-358h-1213z" glyph-name="l" horiz-adv-x="1338" unicode="l"/><glyph d="M65 0v1434h541l275 -881h30l275 881h543v-1434h-410v712h-34l-227 -712h-322l-227 712h-36v-712h-408z" glyph-name="m" horiz-adv-x="1792" unicode="m"/><glyph d="M65 0v1434h493l539 -838h40v838h418v-1434h-483l-551 838h-38v-838h-418z" glyph-name="n" horiz-adv-x="1617" unicode="n"/><glyph d="M843 -48q-362 0 -583 211t-221 554t221 553.5t583 210.5t583 -210.5t221 -553.5t-221 -554t-583 -211zM843 323q162 0 270.5 107.5t108.5 286.5t-108.5 286.5t-270.5 107.5t-270.5 -107.5t-108.5 -286.5t108.5 -286.5t270.5 -107.5z" glyph-name="o" horiz-adv-x="1686" unicode="o"/><glyph d="M65 0v1434h792q295 0 453.5 -137.5t158.5 -410.5q0 -275 -157.5 -411.5t-453.5 -136.5h-365v-338h-428zM493 695h330q101 0 158 48.5t57 142.5t-57.5 142.5t-157.5 48.5h-330v-382z" glyph-name="p" horiz-adv-x="1515" unicode="p"/><glyph d="M1647 732q0 -278 -198 -481l189 -191q-96 -125 -239 -244l-225 208q-171 -72 -331 -72q-362 0 -583 211t-221 554t221 553.5t583 210.5t583 -208t221 -541zM464 717q0 -179 108.5 -286.5t270.5 -107.5t270.5 107.5t108.5 286.5t-108.5 286.5t-270.5 107.5t-270.5 -107.5 t-108.5 -286.5z" glyph-name="q" horiz-adv-x="1686" unicode="q"/><glyph d="M1516 0h-422l-208 389h-393v-389h-428v1434h797q299 0 455 -134t156 -402q0 -278 -220 -420zM493 1077v-365h342q102 0 155.5 47t53.5 135.5t-53.5 135.5t-155.5 47h-342z" glyph-name="r" horiz-adv-x="1553" unicode="r"/><glyph d="M730 -48q-362 2 -534 125.5t-165 390.5h385q10 -177 314 -180q142 -2 216.5 37t74.5 103q0 104 -195 135l-181 29q-247 43 -348 86q-230 101 -230 355q0 213 171.5 330.5t495.5 117.5q155 0 273.5 -25.5t211.5 -82.5t140 -158.5t46 -245.5h-383q-31 176 -298 176 q-246 0 -246 -133q0 -101 162 -128l152 -27q26 -3 86.5 -13.5t91 -15.5t87 -17t88 -23t79 -30t74 -40.5t59 -53t49 -67.5t28.5 -83.5t12 -102.5q0 -227 -180.5 -344t-535.5 -115z" glyph-name="s" horiz-adv-x="1481" unicode="s"/><glyph d="M1529 1434v-359h-522v-1075h-428v1075h-523v359h1473z" glyph-name="t" horiz-adv-x="1585" unicode="t"/><glyph d="M790.5 -48q-725.5 0 -725.5 664v818h432v-808q0 -150 72.5 -232t221 -82t221.5 82t73 232v808h431v-816q0 -666 -725.5 -666z" glyph-name="u" unicode="u"/><glyph d="M550 0l-536 1434h442l370 -1031h48l370 1031h444l-538 -1434h-600z" glyph-name="v" horiz-adv-x="1699" unicode="v"/><glyph d="M329 0l-293 1434h435l178 -977h37l229 977h345l228 -977h38l177 977h435l-293 -1434h-579l-160 761h-38l-160 -761h-579z" glyph-name="w" horiz-adv-x="2174" unicode="w"/><glyph d="M5 0l502 715v22l-490 697h463l276 -413h41l276 413h463l-488 -697v-22l500 -715h-468l-283 432h-41l-283 -432h-468z" glyph-name="x" horiz-adv-x="1553" unicode="x"/><glyph d="M1609 1434l-588 -985v-449h-429v451l-587 983h451l332 -574h38l331 574h452z" glyph-name="y" horiz-adv-x="1614" unicode="y"/><glyph d="M39 0v346l770 697v32h-751v359h1306v-347l-780 -696v-33h769v-358h-1314z" glyph-name="z" horiz-adv-x="1401" unicode="z"/><glyph d="M526 -230q-43 0 -79 8.5t-76 32t-63 74t-23 125.5v446l-208 242v39l208 241v445q0 73 24 124.5t63 75.5t76 32.5t78 8.5h565v-358h-304q-72 0 -72 -60v-273l-193 -236v-39l193 -235v-275q0 -60 72 -60h304v-358h-565z" glyph-name="braceleft" horiz-adv-x="1167" unicode="{"/><glyph d="M65 -171v1775h428v-1775h-428z" glyph-name="bar" horiz-adv-x="556" unicode="|"/><glyph d="M642 -230h-565v358h304q72 0 71 60v275l193 235v39l-193 236v273q0 60 -71 60h-304v358h565q41 0 77.5 -8.5t76 -32.5t63 -75t23.5 -125v-445l209 -241v-39l-209 -242v-446q0 -75 -23 -125.5t-63 -74t-75.5 -32t-78.5 -8.5z" glyph-name="braceright" horiz-adv-x="1167" unicode="}"/><glyph d="M783 532q-90 2 -219 67t-194 65q-56 0 -89.5 -27.5t-38.5 -75.5h-153q-24 174 72.5 264.5t244.5 90.5q90 0 219 -64.5t191 -66.5q121 5 131 102h156q24 -172 -74 -262t-246 -93z" glyph-name="asciitilde" horiz-adv-x="1189" unicode="~"/><glyph d="M282 1092q89 0 152.5 -63t63.5 -152q0 -87 -64 -151t-152.5 -64t-153.5 64t-65 151q0 89 64.5 152t154.5 63zM143 538h277l83 -907h-443z" glyph-name="exclamdown" horiz-adv-x="855" unicode="¡"/><glyph d="M765 358q239 0 300 224h372q-14 -123 -59 -221t-109 -160.5t-147.5 -103.5t-171.5 -58t-185 -17q-137 0 -251 36l-28 -58h-155l51 111q-162 87 -252.5 244t-90.5 362q0 311 200.5 502.5t525.5 191.5q109 0 208 -22l20 45h156l-41 -91q287 -131 329 -488h-372 q-31 108 -108 164l-298 -645q51 -16 106 -16zM425 717q0 -171 111 -272l290 625q-31 5 -61 5q-145 0 -242.5 -99.5t-97.5 -258.5z" glyph-name="cent" horiz-adv-x="1476" unicode="¢"/><glyph d="M691 1120q-96 0 -151 -44.5t-55 -119.5q0 -38 11 -69.5t35.5 -74t33.5 -59.5h519v-185h-493q-15 -152 -139 -228v-12h864v-328h-1277v328q85 39 146.5 108t70.5 132h-217v185h149q-36 53 -53 82.5t-36 87.5t-19 118q0 195 168 312.5t452 117.5q302 0 472.5 -134 t145.5 -380h-408q-21 163 -219 163z" glyph-name="sterling" horiz-adv-x="1358" unicode="£"/><glyph d="M1157 975q0 -96 -39 -183l89 -87l-195 -193l-73 73q-113 -70 -250 -70q-138 0 -249 72l-75 -75l-194 193l88 89q-38 89 -37 181q0 101 43 191l-94 94l194 192l84 -83q111 65 240 65q128 0 239 -65l84 83l195 -192l-93 -93q43 -90 43 -192zM689.5 770q61.5 0 107.5 23.5 t67.5 59.5t31 67t9.5 54.5t-9.5 54.5t-31 67.5t-67.5 61.5t-108 25q-80 0 -133 -43.5t-68 -87t-15 -77.5q0 -24 10 -55t31.5 -67t67.5 -59.5t107.5 -23.5z" glyph-name="currency" horiz-adv-x="1377" unicode="¤"/><glyph d="M1609 1434l-495 -828h357v-178h-450v-71h450v-180h-450v-177h-429v177h-444v180h444v71h-444v178h350l-493 828h451l332 -574h38l331 574h452z" glyph-name="yen" horiz-adv-x="1614" unicode="¥"/><glyph d="M65 788v816h428v-816h-428zM65 -171v816h428v-816h-428z" glyph-name="brokenbar" horiz-adv-x="556" unicode="¦"/><glyph d="M1307 324q142 -99 142 -297q0 -461 -715 -459q-362 2 -536 125.5t-167 393.5h389q10 -183 314 -183q142 -2 216 37t74 103q0 109 -198 140l-176 29q-68 12 -90 15.5t-87 16.5t-91.5 22t-80.5 29t-78.5 38.5t-60.5 49.5t-52 65t-29 80t-13 99q0 201 183 297 q-183 101 -183 328q0 212 171.5 330.5t496.5 118.5q157 0 275.5 -26t210.5 -84t140 -160.5t46 -245.5h-382q-31 179 -299 179q-123 0 -184.5 -35.5t-61.5 -98.5q0 -102 164 -134l147 -25q31 -5 107.5 -18t115 -20t107.5 -24.5t106 -36.5t85.5 -50.5t74 -71t43.5 -95.5 t18 -125q0 -201 -142 -307zM649 495l107 -21q130 -17 199 34.5t69 122.5q0 53 -47 96.5t-151 60.5l-130 21q-75 10 -145 -33.5t-70 -128.5q0 -46 39.5 -91.5t128.5 -60.5z" glyph-name="section" horiz-adv-x="1484" unicode="§"/><glyph d="M162 1169q-68 0 -115 44.5t-47 111t47 110t115 43.5t115 -43.5t47 -110t-47 -111t-115 -44.5zM664 1169q-67 0 -114.5 44.5t-47.5 110.5q0 65 47.5 109.5t114.5 44.5q68 0 115 -43.5t47 -110t-47 -111t-115 -44.5z" glyph-name="dieresis" horiz-adv-x="826" unicode="¨"/><glyph d="M538 551q-205 0 -335 129t-130 329q0 201 130 331.5t335 130.5q207 0 336.5 -130.5t129.5 -332t-129.5 -329.5t-336.5 -128zM543 741q92 0 163.5 47t88.5 146l-128 -2q-41 -85 -131 -85q-63 0 -106 42.5t-43 119t43 119.5t106 43q89 0 131 -82h128q-19 97 -90.5 145 t-161.5 48q-123 0 -200.5 -75t-77.5 -198q0 -121 77.5 -194.5t200.5 -73.5z" glyph-name="copyright" horiz-adv-x="1076" unicode="©"/><glyph d="M664 1434h200v-739h-200l-36 66q-90 -67 -195 -66q-147 0 -253.5 109t-106.5 264q0 157 107 266.5t253 109.5q109 0 202 -72zM454 947q53 0 89 35t36 86.5t-36 89t-89 37.5q-55 0 -90.5 -37t-35.5 -90q0 -51 35.5 -86t90.5 -35z" glyph-name="ordfeminine" horiz-adv-x="936" unicode="ª"/><glyph d="M877 213h-444l-331 504l331 503h444l-331 -503zM1456 213h-444l-331 504l331 503h444l-331 -503z" glyph-name="guillemotleft" horiz-adv-x="1558" unicode="«"/><glyph d="M778 483v172h-783v297h1143v-469h-360z" glyph-name="logicalnot" horiz-adv-x="1223" unicode="¬"/><glyph d="M68 532v359h990v-359h-990z" glyph-name="uni00AD" horiz-adv-x="1126" unicode="­"/><glyph d="M538 551q-205 0 -335 129t-130 329q0 201 130 331.5t335 130.5q207 0 336.5 -130.5t129.5 -332t-129.5 -329.5t-336.5 -128zM316 737h128v164h136l94 -164h138l-114 190q99 49 99 160q0 87 -59.5 135.5t-169.5 48.5h-252v-534zM444 1007v157h128q90 0 90 -77 q0 -38 -24.5 -59t-65.5 -21h-128z" glyph-name="registered" horiz-adv-x="1076" unicode="®"/><glyph d="M0 1167v314h751v-314h-751z" glyph-name="macron" horiz-adv-x="750" unicode="¯"/><glyph d="M452 676q-166 0 -275.5 108.5t-109.5 275.5q0 166 110 275t275 109q167 0 277.5 -109.5t110.5 -274.5q0 -167 -110.5 -275.5t-277.5 -108.5zM452 949q58 0 86.5 34t28.5 77t-28.5 77t-86.5 34q-56 0 -84 -35t-28 -76t28 -76t84 -35z" glyph-name="degree" horiz-adv-x="906" unicode="°"/><glyph d="M840 1198h397v-340h-397v-397h-359v397h-397v340h397v399h359v-399zM84 0v357h1034v-357h-1034z" glyph-name="plusminus" horiz-adv-x="1203" unicode="±"/><glyph d="M0 1161l123 291h380l-122 -291h-381z" glyph-name="acute" horiz-adv-x="503" unicode="´"/><glyph d="M886 1161h428v-1161h-420l-8 155h-43q-56 -89 -152.5 -134t-197.5 -47v-230h-428v1417h428v-658q0 -104 57.5 -144t133.5 -40q92 0 147 52t55 112v678z" glyph-name="uni00B5" horiz-adv-x="1377" unicode="µ"/><glyph d="M980 0v350h-280q-317 0 -489 135.5t-172 405.5q0 271 171.5 407t490.5 136h707v-1434h-428zM1604 0v1434h429v-1434h-429z" glyph-name="paragraph" horiz-adv-x="2097" unicode="¶"/><glyph d="M355 502q-90 0 -154 63t-64 152q0 87 64.5 151t153.5 64t153 -64t64 -151q0 -89 -64 -152t-153 -63z" glyph-name="periodcentered" horiz-adv-x="708" unicode="·"/><glyph d="M230 -61q79 -5 137 -55t58 -138q0 -128 -124.5 -181t-300.5 -17v169q68 -15 110 -12t60.5 12.5t18.5 23.5q0 15 -18.5 27t-60.5 16t-110 -13v110l150 119h157z" glyph-name="cedilla" horiz-adv-x="424" unicode="¸"/><glyph d="M443.5 698q-153.5 0 -262 108.5t-108.5 261.5q0 157 108.5 266.5t262 109.5t262 -109.5t108.5 -266.5q0 -154 -108.5 -262t-262 -108zM444 947q53 0 88 34t35 87q0 55 -35 91t-88 36t-88 -36t-35 -91q0 -53 35 -87t88 -34z" glyph-name="ordmasculine" horiz-adv-x="887" unicode="º"/><glyph d="M102 213l331 504l-331 503h444l331 -503l-331 -504h-444zM681 213l331 504l-331 503h444l331 -503l-331 -504h-444z" glyph-name="guillemotright" horiz-adv-x="1558" unicode="»"/><glyph d="M700 1092q90 0 154 -63t64 -152q0 -87 -65 -151t-153.5 -64t-152.5 64t-64 151q0 89 64 152t153 63zM903 550q10 -82 -7 -143t-53 -96t-82 -59.5t-94.5 -41.5t-88.5 -35t-66 -45.5t-26 -66.5q0 -58 59 -93t155 -35q104 0 176.5 46t72.5 159h387q12 -273 -154.5 -409.5 t-478.5 -136.5q-299 0 -470.5 104t-171.5 317q0 90 32 155.5t79.5 97t103 60.5t104 51t81 65.5t32.5 105.5h410z" glyph-name="questiondown" horiz-adv-x="1367" unicode="¿"/><glyph d="M1044 1519h-380l-123 292h381zM1244 0l-72 207h-645l-71 -207h-442l536 1434h600l538 -1434h-444zM638 526h424l-175 505h-75z" glyph-name="Agrave" horiz-adv-x="1699" unicode="À"/><glyph d="M1161 1811l-123 -292h-381l123 292h381zM1244 0l-72 207h-645l-71 -207h-442l536 1434h600l538 -1434h-444zM638 526h424l-175 505h-75z" glyph-name="Aacute" horiz-adv-x="1699" unicode="Á"/><glyph d="M804 1611l-82 -92h-360l229 292h518l229 -292h-360l-82 92h-92zM1244 0l-72 207h-645l-71 -207h-442l536 1434h600l538 -1434h-444zM638 526h424l-175 505h-75z" glyph-name="Acircumflex" horiz-adv-x="1699" unicode="Â"/><glyph d="M567 1538h-123q-19 140 58 211.5t196 71.5q73 0 175.5 -52t153.5 -52q94 0 105 82h122q19 -140 -57.5 -211.5t-196.5 -71.5q-73 0 -175.5 52t-153.5 52q-95 0 -104 -82zM1244 0l-72 207h-645l-71 -207h-442l536 1434h600l538 -1434h-444zM638 526h424l-175 505h-75z" glyph-name="Atilde" horiz-adv-x="1699" unicode="Ã"/><glyph d="M597.5 1527q-68.5 0 -115.5 44.5t-47 111t47 110t115.5 43.5t115 -43.5t46.5 -110t-46.5 -111t-115 -44.5zM1099 1527q-67 0 -114.5 44.5t-47.5 111.5q0 65 48 109t114 44q68 0 115 -43.5t47 -110t-47 -111t-115 -44.5zM1244 0l-72 207h-645l-71 -207h-442l536 1434h600 l538 -1434h-444zM638 526h424l-175 505h-75z" glyph-name="Adieresis" horiz-adv-x="1699" unicode="Ä"/><glyph d="M1244 0l-72 207h-645l-71 -207h-442l536 1434h194q-60 29 -95 84.5t-35 121.5q0 97 68.5 166.5t167.5 69.5t165.5 -68.5t66.5 -167.5q0 -68 -34 -122.5t-94 -83.5h196l538 -1434h-444zM850 1698q-24 0 -39.5 -15.5t-15.5 -38.5q0 -53 55 -53q26 0 41 13.5t14 39.5 q-6 54 -55 54zM638 526h424l-175 505h-75z" glyph-name="Aring" horiz-adv-x="1699" unicode="Å"/><glyph d="M2285 1089h-834v-227h804v-289h-804v-227h834v-346h-1263v210h-479l-98 -210h-431l660 1434h1611v-345zM689 526h333v549h-78z" glyph-name="AE" horiz-adv-x="2350" unicode="Æ"/><glyph d="M838 323q263 0 329 245h410q-19 -160 -82 -279.5t-158.5 -188.5t-205 -104t-235.5 -42l-19 -15q79 -5 137 -55t58 -138q0 -128 -124.5 -181t-300.5 -17v169q68 -15 110 -12t60.5 12.5t18.5 23.5q0 15 -18.5 27t-60.5 16t-110 -13v110l95 76q-319 29 -511 235.5 t-192 524.5q0 341 220.5 552.5t578.5 211.5q135 0 252 -31.5t222 -99.5t174.5 -191t90.5 -290h-410q-68 242 -329 242q-160 0 -267 -109t-107 -285q0 -174 107 -284t267 -110z" glyph-name="Ccedilla" horiz-adv-x="1616" unicode="Ç"/><glyph d="M879 1519h-381l-123 292h381zM65 0v1434h1263v-345h-835v-227h804v-289h-804v-227h835v-346h-1263z" glyph-name="Egrave" horiz-adv-x="1392" unicode="È"/><glyph d="M492 1519l122 292h381l-123 -292h-380zM65 0v1434h1263v-345h-835v-227h804v-289h-804v-227h835v-346h-1263z" glyph-name="Eacute" horiz-adv-x="1392" unicode="É"/><glyph d="M196 1519l229 292h519l228 -292h-360l-82 92h-92l-82 -92h-360zM65 0v1434h1263v-345h-835v-227h804v-289h-804v-227h835v-346h-1263z" glyph-name="Ecircumflex" horiz-adv-x="1392" unicode="Ê"/><glyph d="M432 1527q-68 0 -115 44.5t-47 111t47 110t115 43.5t115 -43.5t47 -110t-47 -111t-115 -44.5zM934 1527q-67 0 -115 44.5t-48 111.5q0 65 48 109t115 44q68 0 115 -43.5t47 -110t-47 -111t-115 -44.5zM65 0v1434h1263v-345h-835v-227h804v-289h-804v-227h835v-346h-1263z " glyph-name="Edieresis" horiz-adv-x="1392" unicode="Ë"/><glyph d="M473 1519h-381l-123 292h381zM65 0v1434h428v-1434h-428z" glyph-name="Igrave" horiz-adv-x="556" unicode="Ì"/><glyph d="M85 1519l123 292h381l-123 -292h-381zM65 0v1434h428v-1434h-428z" glyph-name="Iacute" horiz-adv-x="556" unicode="Í"/><glyph d="M-210 1519l229 292h519l228 -292h-360l-82 92h-92l-82 -92h-360zM65 0v1434h428v-1434h-428z" glyph-name="Icircumflex" horiz-adv-x="556" unicode="Î"/><glyph d="M25.5 1527q-68.5 0 -115.5 44.5t-47 111t47 110t115.5 43.5t115.5 -43.5t47 -110t-47 -111t-115.5 -44.5zM527 1527q-67 0 -114.5 44.5t-47.5 111.5q0 65 48 109t114 44q68 0 115 -43.5t47 -110t-47 -111t-115 -44.5zM65 0v1434h428v-1434h-428z" glyph-name="Idieresis" horiz-adv-x="556" unicode="Ï"/><glyph d="M862 1434q210 0 363.5 -53t243 -152t132.5 -226t43 -286t-43 -286t-132.5 -225t-243 -152t-363.5 -54h-700v558h-153v312h153v564h700zM860 360q167 0 260 89t93 268t-93 267.5t-260 88.5h-268v-203h239v-312h-239v-198h268z" glyph-name="Eth" horiz-adv-x="1689" unicode="Ð"/><glyph d="M959 1516q-73 0 -175.5 52t-153.5 52q-96 0 -104 -82h-123q-19 140 58 211.5t196 71.5q73 0 175.5 -52t153.5 -52q94 0 105 82h122q19 -140 -58 -211.5t-196 -71.5zM65 0v1434h493l539 -838h40v838h418v-1434h-483l-551 838h-38v-838h-418z" glyph-name="Ntilde" horiz-adv-x="1617" unicode="Ñ"/><glyph d="M1038 1526h-381l-123 292h381zM843 -48q-362 0 -583 211t-221 554t221 553.5t583 210.5t583 -210.5t221 -553.5t-221 -554t-583 -211zM843 323q162 0 270.5 107.5t108.5 286.5t-108.5 286.5t-270.5 107.5t-270.5 -107.5t-108.5 -286.5t108.5 -286.5t270.5 -107.5z" glyph-name="Ograve" horiz-adv-x="1686" unicode="Ò"/><glyph d="M650 1526l123 292h381l-123 -292h-381zM843 -48q-362 0 -583 211t-221 554t221 553.5t583 210.5t583 -210.5t221 -553.5t-221 -554t-583 -211zM843 323q162 0 270.5 107.5t108.5 286.5t-108.5 286.5t-270.5 107.5t-270.5 -107.5t-108.5 -286.5t108.5 -286.5t270.5 -107.5 z" glyph-name="Oacute" horiz-adv-x="1686" unicode="Ó"/><glyph d="M355 1526l229 292h519l228 -292h-360l-82 92h-92l-82 -92h-360zM843 -48q-362 0 -583 211t-221 554t221 553.5t583 210.5t583 -210.5t221 -553.5t-221 -554t-583 -211zM843 323q162 0 270.5 107.5t108.5 286.5t-108.5 286.5t-270.5 107.5t-270.5 -107.5t-108.5 -286.5 t108.5 -286.5t270.5 -107.5z" glyph-name="Ocircumflex" horiz-adv-x="1686" unicode="Ô"/><glyph d="M993 1522q-73 0 -175.5 52t-153.5 52q-96 0 -104 -81h-123q-19 140 58 211.5t196 71.5q73 0 175.5 -52t154.5 -52q94 0 104 82h123q19 -140 -58.5 -212t-196.5 -72zM843 -48q-362 0 -583 211t-221 554t221 553.5t583 210.5t583 -210.5t221 -553.5t-221 -554t-583 -211z M843 323q162 0 270.5 107.5t108.5 286.5t-108.5 286.5t-270.5 107.5t-270.5 -107.5t-108.5 -286.5t108.5 -286.5t270.5 -107.5z" glyph-name="Otilde" horiz-adv-x="1686" unicode="Õ"/><glyph d="M590.5 1534q-68.5 0 -115.5 44.5t-47 111t47 110t115.5 43.5t115.5 -43.5t47 -110t-47 -111t-115.5 -44.5zM1092 1534q-67 0 -114.5 44.5t-47.5 111.5q0 65 48 109t114 44q68 0 115 -43.5t47 -110t-47 -111t-115 -44.5zM843 -48q-362 0 -583 211t-221 554t221 553.5 t583 210.5t583 -210.5t221 -553.5t-221 -554t-583 -211zM843 323q162 0 270.5 107.5t108.5 286.5t-108.5 286.5t-270.5 107.5t-270.5 -107.5t-108.5 -286.5t108.5 -286.5t270.5 -107.5z" glyph-name="Odieresis" horiz-adv-x="1686" unicode="Ö"/><glyph d="M1142 951l-284 -284l282 -281l-241 -239l-279 281l-282 -281l-254 252l281 282l-281 282l240 238l282 -279l281 281z" glyph-name="multiply" horiz-adv-x="1227" unicode="×"/><glyph d="M1273 1381q177 -96 275.5 -268.5t98.5 -395.5q0 -343 -221 -554t-583 -211q-108 0 -218 22l-29 -61h-265l68 147q-172 97 -266 267t-94 390q0 343 221 553.5t583 210.5q101 0 203 -18l27 59h265zM464 717q0 -174 106 -285l312 677q-12 2 -39 2q-162 0 -270.5 -107.5 t-108.5 -286.5zM843 323q162 0 270.5 107.5t108.5 286.5q0 184 -118 297l-317 -688q37 -3 56 -3z" glyph-name="Oslash" horiz-adv-x="1686" unicode="Ø"/><glyph d="M985 1519h-381l-123 292h381zM790.5 -48q-725.5 0 -725.5 664v818h432v-808q0 -150 72.5 -232t221 -82t221.5 82t73 232v808h431v-816q0 -666 -725.5 -666z" glyph-name="Ugrave" unicode="Ù"/><glyph d="M597 1519l123 292h381l-123 -292h-381zM790.5 -48q-725.5 0 -725.5 664v818h432v-808q0 -150 72.5 -232t221 -82t221.5 82t73 232v808h431v-816q0 -666 -725.5 -666z" glyph-name="Uacute" unicode="Ú"/><glyph d="M302 1519l229 292h519l228 -292h-360l-82 92h-92l-82 -92h-360zM790.5 -48q-725.5 0 -725.5 664v818h432v-808q0 -150 72.5 -232t221 -82t221.5 82t73 232v808h431v-816q0 -666 -725.5 -666z" glyph-name="Ucircumflex" unicode="Û"/><glyph d="M537.5 1527q-68.5 0 -115.5 44.5t-47 111t47 110t115.5 43.5t115.5 -43.5t47 -110t-47 -111t-115.5 -44.5zM1039 1527q-67 0 -114.5 44.5t-47.5 111.5q0 65 48 109t114 44q68 0 115 -43.5t47 -110t-47 -111t-115 -44.5zM790.5 -48q-725.5 0 -725.5 664v818h432v-808 q0 -150 72.5 -232t221 -82t221.5 82t73 232v808h431v-816q0 -666 -725.5 -666z" glyph-name="Udieresis" unicode="Ü"/><glyph d="M1118 1811l-123 -292h-381l123 292h381zM1609 1434l-588 -985v-449h-429v451l-587 983h451l332 -574h38l331 574h452z" glyph-name="Yacute" horiz-adv-x="1614" unicode="Ý"/><glyph d="M771 1260q319 0 491 -136t172 -407.5t-171 -407t-490 -135.5h-280v-174h-428v1434h428v-174h278zM782 531q102 0 162 46t60 140q0 92 -60 139t-161 47h-290v-372h289z" glyph-name="Thorn" horiz-adv-x="1481" unicode="Þ"/><glyph d="M65 0v968q0 138 51 238.5t144 157t206 82t253 25.5q176 0 304.5 -35t197.5 -95.5t101.5 -129t32.5 -146.5q0 -188 -169 -275v-29q266 -90 266 -350q0 -184 -148.5 -297.5t-468.5 -113.5h-238v326h227q106 0 154.5 41t48.5 107q0 63 -49.5 105t-153.5 42h-227v236h183 q89 0 131.5 33t42.5 81q0 137 -212 137q-249 0 -249 -161v-947h-428z" glyph-name="germandbls" horiz-adv-x="1498" unicode="ß"/><glyph d="M1044 1519h-380l-123 292h381zM1244 0l-72 207h-645l-71 -207h-442l536 1434h600l538 -1434h-444zM638 526h424l-175 505h-75z" glyph-name="agrave" horiz-adv-x="1699" unicode="à"/><glyph d="M1161 1811l-123 -292h-381l123 292h381zM1244 0l-72 207h-645l-71 -207h-442l536 1434h600l538 -1434h-444zM638 526h424l-175 505h-75z" glyph-name="aacute" horiz-adv-x="1699" unicode="á"/><glyph d="M804 1611l-82 -92h-360l229 292h518l229 -292h-360l-82 92h-92zM1244 0l-72 207h-645l-71 -207h-442l536 1434h600l538 -1434h-444zM638 526h424l-175 505h-75z" glyph-name="acircumflex" horiz-adv-x="1699" unicode="â"/><glyph d="M567 1538h-123q-19 140 58 211.5t196 71.5q73 0 175.5 -52t153.5 -52q94 0 105 82h122q19 -140 -57.5 -211.5t-196.5 -71.5q-73 0 -175.5 52t-153.5 52q-95 0 -104 -82zM1244 0l-72 207h-645l-71 -207h-442l536 1434h600l538 -1434h-444zM638 526h424l-175 505h-75z" glyph-name="atilde" horiz-adv-x="1699" unicode="ã"/><glyph d="M597.5 1527q-68.5 0 -115.5 44.5t-47 111t47 110t115.5 43.5t115 -43.5t46.5 -110t-46.5 -111t-115 -44.5zM1099 1527q-67 0 -114.5 44.5t-47.5 111.5q0 65 48 109t114 44q68 0 115 -43.5t47 -110t-47 -111t-115 -44.5zM1244 0l-72 207h-645l-71 -207h-442l536 1434h600 l538 -1434h-444zM638 526h424l-175 505h-75z" glyph-name="adieresis" horiz-adv-x="1699" unicode="ä"/><glyph d="M1244 0l-72 207h-645l-71 -207h-442l536 1434h194q-60 29 -95 84.5t-35 121.5q0 97 68.5 166.5t167.5 69.5t165.5 -68.5t66.5 -167.5q0 -68 -34 -122.5t-94 -83.5h196l538 -1434h-444zM850 1698q-24 0 -39.5 -15.5t-15.5 -38.5q0 -53 55 -53q26 0 41 13.5t14 39.5 q-6 54 -55 54zM638 526h424l-175 505h-75z" glyph-name="aring" horiz-adv-x="1699" unicode="å"/><glyph d="M2285 1089h-834v-227h804v-289h-804v-227h834v-346h-1263v210h-479l-98 -210h-431l660 1434h1611v-345zM689 526h333v549h-78z" glyph-name="ae" horiz-adv-x="2350" unicode="æ"/><glyph d="M838 323q263 0 329 245h410q-19 -160 -82 -279.5t-158.5 -188.5t-205 -104t-235.5 -42l-19 -15q79 -5 137 -55t58 -138q0 -128 -124.5 -181t-300.5 -17v169q68 -15 110 -12t60.5 12.5t18.5 23.5q0 15 -18.5 27t-60.5 16t-110 -13v110l95 76q-319 29 -511 235.5 t-192 524.5q0 341 220.5 552.5t578.5 211.5q135 0 252 -31.5t222 -99.5t174.5 -191t90.5 -290h-410q-68 242 -329 242q-160 0 -267 -109t-107 -285q0 -174 107 -284t267 -110z" glyph-name="ccedilla" horiz-adv-x="1616" unicode="ç"/><glyph d="M879 1519h-381l-123 292h381zM65 0v1434h1263v-345h-835v-227h804v-289h-804v-227h835v-346h-1263z" glyph-name="egrave" horiz-adv-x="1392" unicode="è"/><glyph d="M492 1519l122 292h381l-123 -292h-380zM65 0v1434h1263v-345h-835v-227h804v-289h-804v-227h835v-346h-1263z" glyph-name="eacute" horiz-adv-x="1392" unicode="é"/><glyph d="M196 1519l229 292h519l228 -292h-360l-82 92h-92l-82 -92h-360zM65 0v1434h1263v-345h-835v-227h804v-289h-804v-227h835v-346h-1263z" glyph-name="ecircumflex" horiz-adv-x="1392" unicode="ê"/><glyph d="M432 1527q-68 0 -115 44.5t-47 111t47 110t115 43.5t115 -43.5t47 -110t-47 -111t-115 -44.5zM934 1527q-67 0 -115 44.5t-48 111.5q0 65 48 109t115 44q68 0 115 -43.5t47 -110t-47 -111t-115 -44.5zM65 0v1434h1263v-345h-835v-227h804v-289h-804v-227h835v-346h-1263z " glyph-name="edieresis" horiz-adv-x="1392" unicode="ë"/><glyph d="M473 1519h-381l-123 292h381zM65 0v1434h428v-1434h-428z" glyph-name="igrave" horiz-adv-x="556" unicode="ì"/><glyph d="M85 1519l123 292h381l-123 -292h-381zM65 0v1434h428v-1434h-428z" glyph-name="iacute" horiz-adv-x="556" unicode="í"/><glyph d="M-210 1519l229 292h519l228 -292h-360l-82 92h-92l-82 -92h-360zM65 0v1434h428v-1434h-428z" glyph-name="icircumflex" horiz-adv-x="556" unicode="î"/><glyph d="M25.5 1527q-68.5 0 -115.5 44.5t-47 111t47 110t115.5 43.5t115.5 -43.5t47 -110t-47 -111t-115.5 -44.5zM527 1527q-67 0 -114.5 44.5t-47.5 111.5q0 65 48 109t114 44q68 0 115 -43.5t47 -110t-47 -111t-115 -44.5zM65 0v1434h428v-1434h-428z" glyph-name="idieresis" horiz-adv-x="556" unicode="ï"/><glyph d="M862 1434q210 0 363.5 -53t243 -152t132.5 -226t43 -286t-43 -286t-132.5 -225t-243 -152t-363.5 -54h-700v558h-153v312h153v564h700zM860 360q167 0 260 89t93 268t-93 267.5t-260 88.5h-268v-203h239v-312h-239v-198h268z" glyph-name="eth" horiz-adv-x="1689" unicode="ð"/><glyph d="M959 1516q-73 0 -175.5 52t-153.5 52q-96 0 -104 -82h-123q-19 140 58 211.5t196 71.5q73 0 175.5 -52t153.5 -52q94 0 105 82h122q19 -140 -58 -211.5t-196 -71.5zM65 0v1434h493l539 -838h40v838h418v-1434h-483l-551 838h-38v-838h-418z" glyph-name="ntilde" horiz-adv-x="1617" unicode="ñ"/><glyph d="M1038 1526h-381l-123 292h381zM843 -48q-362 0 -583 211t-221 554t221 553.5t583 210.5t583 -210.5t221 -553.5t-221 -554t-583 -211zM843 323q162 0 270.5 107.5t108.5 286.5t-108.5 286.5t-270.5 107.5t-270.5 -107.5t-108.5 -286.5t108.5 -286.5t270.5 -107.5z" glyph-name="ograve" horiz-adv-x="1686" unicode="ò"/><glyph d="M650 1526l123 292h381l-123 -292h-381zM843 -48q-362 0 -583 211t-221 554t221 553.5t583 210.5t583 -210.5t221 -553.5t-221 -554t-583 -211zM843 323q162 0 270.5 107.5t108.5 286.5t-108.5 286.5t-270.5 107.5t-270.5 -107.5t-108.5 -286.5t108.5 -286.5t270.5 -107.5 z" glyph-name="oacute" horiz-adv-x="1686" unicode="ó"/><glyph d="M355 1526l229 292h519l228 -292h-360l-82 92h-92l-82 -92h-360zM843 -48q-362 0 -583 211t-221 554t221 553.5t583 210.5t583 -210.5t221 -553.5t-221 -554t-583 -211zM843 323q162 0 270.5 107.5t108.5 286.5t-108.5 286.5t-270.5 107.5t-270.5 -107.5t-108.5 -286.5 t108.5 -286.5t270.5 -107.5z" glyph-name="ocircumflex" horiz-adv-x="1686" unicode="ô"/><glyph d="M993 1522q-73 0 -175.5 52t-153.5 52q-96 0 -104 -81h-123q-19 140 58 211.5t196 71.5q73 0 175.5 -52t154.5 -52q94 0 104 82h123q19 -140 -58.5 -212t-196.5 -72zM843 -48q-362 0 -583 211t-221 554t221 553.5t583 210.5t583 -210.5t221 -553.5t-221 -554t-583 -211z M843 323q162 0 270.5 107.5t108.5 286.5t-108.5 286.5t-270.5 107.5t-270.5 -107.5t-108.5 -286.5t108.5 -286.5t270.5 -107.5z" glyph-name="otilde" horiz-adv-x="1686" unicode="õ"/><glyph d="M590.5 1534q-68.5 0 -115.5 44.5t-47 111t47 110t115.5 43.5t115.5 -43.5t47 -110t-47 -111t-115.5 -44.5zM1092 1534q-67 0 -114.5 44.5t-47.5 111.5q0 65 48 109t114 44q68 0 115 -43.5t47 -110t-47 -111t-115 -44.5zM843 -48q-362 0 -583 211t-221 554t221 553.5 t583 210.5t583 -210.5t221 -553.5t-221 -554t-583 -211zM843 323q162 0 270.5 107.5t108.5 286.5t-108.5 286.5t-270.5 107.5t-270.5 -107.5t-108.5 -286.5t108.5 -286.5t270.5 -107.5z" glyph-name="odieresis" horiz-adv-x="1686" unicode="ö"/><glyph d="M599 983q-79 0 -135 55.5t-56 132.5q0 75 56.5 131.5t134.5 56.5q77 0 133 -56.5t56 -131.5q0 -77 -56 -132.5t-133 -55.5zM85 568v299h1035v-299h-1035zM599 70q-79 0 -135 55.5t-56 132.5q0 75 56.5 131t134.5 56q77 0 133 -56t56 -131q0 -77 -56 -132.5t-133 -55.5z " glyph-name="divide" horiz-adv-x="1204" unicode="÷"/><glyph d="M1273 1381q177 -96 275.5 -268.5t98.5 -395.5q0 -343 -221 -554t-583 -211q-108 0 -218 22l-29 -61h-265l68 147q-172 97 -266 267t-94 390q0 343 221 553.5t583 210.5q101 0 203 -18l27 59h265zM464 717q0 -174 106 -285l312 677q-12 2 -39 2q-162 0 -270.5 -107.5 t-108.5 -286.5zM843 323q162 0 270.5 107.5t108.5 286.5q0 184 -118 297l-317 -688q37 -3 56 -3z" glyph-name="oslash" horiz-adv-x="1686" unicode="ø"/><glyph d="M985 1519h-381l-123 292h381zM790.5 -48q-725.5 0 -725.5 664v818h432v-808q0 -150 72.5 -232t221 -82t221.5 82t73 232v808h431v-816q0 -666 -725.5 -666z" glyph-name="ugrave" unicode="ù"/><glyph d="M597 1519l123 292h381l-123 -292h-381zM790.5 -48q-725.5 0 -725.5 664v818h432v-808q0 -150 72.5 -232t221 -82t221.5 82t73 232v808h431v-816q0 -666 -725.5 -666z" glyph-name="uacute" unicode="ú"/><glyph d="M302 1519l229 292h519l228 -292h-360l-82 92h-92l-82 -92h-360zM790.5 -48q-725.5 0 -725.5 664v818h432v-808q0 -150 72.5 -232t221 -82t221.5 82t73 232v808h431v-816q0 -666 -725.5 -666z" glyph-name="ucircumflex" unicode="û"/><glyph d="M537.5 1527q-68.5 0 -115.5 44.5t-47 111t47 110t115.5 43.5t115.5 -43.5t47 -110t-47 -111t-115.5 -44.5zM1039 1527q-67 0 -114.5 44.5t-47.5 111.5q0 65 48 109t114 44q68 0 115 -43.5t47 -110t-47 -111t-115 -44.5zM790.5 -48q-725.5 0 -725.5 664v818h432v-808 q0 -150 72.5 -232t221 -82t221.5 82t73 232v808h431v-816q0 -666 -725.5 -666z" glyph-name="udieresis" unicode="ü"/><glyph d="M1118 1811l-123 -292h-381l123 292h381zM1609 1434l-588 -985v-449h-429v451l-587 983h451l332 -574h38l331 574h452z" glyph-name="yacute" horiz-adv-x="1614" unicode="ý"/><glyph d="M771 1260q319 0 491 -136t172 -407.5t-171 -407t-490 -135.5h-280v-174h-428v1434h428v-174h278zM782 531q102 0 162 46t60 140q0 92 -60 139t-161 47h-290v-372h289z" glyph-name="thorn" horiz-adv-x="1481" unicode="þ"/><glyph d="M554.5 1527q-68.5 0 -115 44.5t-46.5 111t46.5 110t115 43.5t115.5 -43.5t47 -110t-47 -111t-115.5 -44.5zM1056 1527q-67 0 -114.5 44.5t-47.5 111.5q0 65 48 109t114 44q68 0 115.5 -43.5t47.5 -110t-47.5 -111t-115.5 -44.5zM1609 1434l-588 -985v-449h-429v451 l-587 983h451l332 -574h38l331 574h452z" glyph-name="ydieresis" horiz-adv-x="1614" unicode="ÿ"/><glyph d="M1225 1840v-314h-751v314h751zM1244 0l-72 207h-645l-71 -207h-442l536 1434h600l538 -1434h-444zM638 526h424l-175 505h-75z" glyph-name="Amacron" horiz-adv-x="1699" unicode="Ā"/><glyph d="M1225 1840v-314h-751v314h751zM1244 0l-72 207h-645l-71 -207h-442l536 1434h600l538 -1434h-444zM638 526h424l-175 505h-75z" glyph-name="amacron" horiz-adv-x="1699" unicode="ā"/><glyph d="M850 1519q-212 0 -299 65.5t-83 226.5h261q-2 -55 30.5 -84t90.5 -29q56 0 88.5 29t30.5 84h262q2 -160 -83.5 -226t-297.5 -66zM1244 0l-72 207h-645l-71 -207h-442l536 1434h600l538 -1434h-444zM638 526h424l-175 505h-75z" glyph-name="Abreve" horiz-adv-x="1699" unicode="Ă"/><glyph d="M850 1519q-212 0 -299 65.5t-83 226.5h261q-2 -55 30.5 -84t90.5 -29q56 0 88.5 29t30.5 84h262q2 -160 -83.5 -226t-297.5 -66zM1244 0l-72 207h-645l-71 -207h-442l536 1434h600l538 -1434h-444zM638 526h424l-175 505h-75z" glyph-name="abreve" horiz-adv-x="1699" unicode="ă"/><glyph d="M1244 0q-77 0 -109 -29t-32 -67q0 -84 98 -81v-236q-49 0 -98.5 6t-103.5 24t-93 46t-65.5 75t-26.5 107q0 79 39.5 134t106 81.5t123.5 37.5t122 15l-33 94h-645l-71 -207h-442l536 1434h600l538 -1434h-444zM638 526h424l-175 505h-75z" glyph-name="Aogonek" horiz-adv-x="1699" unicode="Ą"/><glyph d="M1244 0q-77 0 -109 -29t-32 -67q0 -84 98 -81v-236q-49 0 -98.5 6t-103.5 24t-93 46t-65.5 75t-26.5 107q0 79 39.5 134t106 81.5t123.5 37.5t122 15l-33 94h-645l-71 -207h-442l536 1434h600l538 -1434h-444zM638 526h424l-175 505h-75z" glyph-name="aogonek" horiz-adv-x="1699" unicode="ą"/><glyph d="M647 1519l123 292h380l-123 -292h-380zM838 -48q-358 0 -578.5 211.5t-220.5 553t220.5 553t578.5 211.5q135 0 252 -31.5t222 -99.5t174.5 -191t90.5 -290h-410q-68 242 -329 242q-160 0 -267 -109t-107 -285q0 -174 107 -284t267 -110q263 0 329 245h410 q-20 -169 -89.5 -292.5t-174.5 -192t-222.5 -100t-252.5 -31.5z" glyph-name="Cacute" horiz-adv-x="1616" unicode="Ć"/><glyph d="M647 1519l123 292h380l-123 -292h-380zM838 -48q-358 0 -578.5 211.5t-220.5 553t220.5 553t578.5 211.5q135 0 252 -31.5t222 -99.5t174.5 -191t90.5 -290h-410q-68 242 -329 242q-160 0 -267 -109t-107 -285q0 -174 107 -284t267 -110q263 0 329 245h410 q-20 -169 -89.5 -292.5t-174.5 -192t-222.5 -100t-252.5 -31.5z" glyph-name="cacute" horiz-adv-x="1616" unicode="ć"/><glyph d="M839.5 1527q-68.5 0 -115 44.5t-46.5 111t46.5 110t115 43.5t115.5 -43.5t47 -110t-47 -111t-115.5 -44.5zM838 -48q-358 0 -578.5 211.5t-220.5 553t220.5 553t578.5 211.5q135 0 252 -31.5t222 -99.5t174.5 -191t90.5 -290h-410q-68 242 -329 242q-160 0 -267 -109 t-107 -285q0 -174 107 -284t267 -110q263 0 329 245h410q-20 -169 -89.5 -292.5t-174.5 -192t-222.5 -100t-252.5 -31.5z" glyph-name="Cdotaccent" horiz-adv-x="1616" unicode="Ċ"/><glyph d="M839.5 1527q-68.5 0 -115 44.5t-46.5 111t46.5 110t115 43.5t115.5 -43.5t47 -110t-47 -111t-115.5 -44.5zM838 -48q-358 0 -578.5 211.5t-220.5 553t220.5 553t578.5 211.5q135 0 252 -31.5t222 -99.5t174.5 -191t90.5 -290h-410q-68 242 -329 242q-160 0 -267 -109 t-107 -285q0 -174 107 -284t267 -110q263 0 329 245h410q-20 -169 -89.5 -292.5t-174.5 -192t-222.5 -100t-252.5 -31.5z" glyph-name="cdotaccent" horiz-adv-x="1616" unicode="ċ"/><glyph d="M838 323q263 0 329 245h410q-20 -169 -89.5 -292.5t-174.5 -192t-222.5 -100t-252.5 -31.5q-358 0 -578.5 211.5t-220.5 553.5q0 311 184.5 516.5t493.5 241.5h-133l-229 291h360l82 -92h92l82 92h360l-228 -291h-142q246 -29 414 -175t202 -431h-410q-68 242 -329 242 q-160 0 -267 -109t-107 -285q0 -174 107 -284t267 -110z" glyph-name="Ccaron" horiz-adv-x="1616" unicode="Č"/><glyph d="M838 323q263 0 329 245h410q-20 -169 -89.5 -292.5t-174.5 -192t-222.5 -100t-252.5 -31.5q-358 0 -578.5 211.5t-220.5 553.5q0 311 184.5 516.5t493.5 241.5h-133l-229 291h360l82 -92h92l82 92h360l-228 -291h-142q246 -29 414 -175t202 -431h-410q-68 242 -329 242 q-160 0 -267 -109t-107 -285q0 -174 107 -284t267 -110z" glyph-name="ccaron" horiz-adv-x="1616" unicode="č"/><glyph d="M1039 1475h-518l-229 291h360l82 -92h92l82 92h360zM765 1434q210 0 363.5 -53t243 -152t132 -226t42.5 -286t-42.5 -286t-132 -225t-243 -152t-363.5 -54h-700v1434h700zM763 360q167 0 260 89t93 268t-93 267.5t-260 88.5h-268v-713h268z" glyph-name="Dcaron" horiz-adv-x="1592" unicode="Ď"/><glyph d="M1039 1475h-518l-229 291h360l82 -92h92l82 92h360zM765 1434q210 0 363.5 -53t243 -152t132 -226t42.5 -286t-42.5 -286t-132 -225t-243 -152t-363.5 -54h-700v1434h700zM763 360q167 0 260 89t93 268t-93 267.5t-260 88.5h-268v-713h268z" glyph-name="dcaron" horiz-adv-x="1592" unicode="ď"/><glyph d="M862 1434q210 0 363.5 -53t243 -152t132.5 -226t43 -286t-43 -286t-132.5 -225t-243 -152t-363.5 -54h-700v558h-153v312h153v564h700zM860 360q167 0 260 89t93 268t-93 267.5t-260 88.5h-268v-203h239v-312h-239v-198h268z" glyph-name="Dcroat" horiz-adv-x="1689" unicode="Đ"/><glyph d="M862 1434q210 0 363.5 -53t243 -152t132.5 -226t43 -286t-43 -286t-132.5 -225t-243 -152t-363.5 -54h-700v558h-153v312h153v564h700zM860 360q167 0 260 89t93 268t-93 267.5t-260 88.5h-268v-203h239v-312h-239v-198h268z" glyph-name="dcroat" horiz-adv-x="1689" unicode="đ"/><glyph d="M309 1526v314h751v-314h-751zM65 0v1434h1263v-345h-835v-227h804v-289h-804v-227h835v-346h-1263z" glyph-name="Emacron" horiz-adv-x="1392" unicode="Ē"/><glyph d="M309 1526v314h751v-314h-751zM65 0v1434h1263v-345h-835v-227h804v-289h-804v-227h835v-346h-1263z" glyph-name="emacron" horiz-adv-x="1392" unicode="ē"/><glyph d="M684.5 1527q-68.5 0 -115.5 44.5t-47 111t47 110t115.5 43.5t115.5 -43.5t47 -110t-47 -111t-115.5 -44.5zM65 0v1434h1263v-345h-835v-227h804v-289h-804v-227h835v-346h-1263z" glyph-name="Edotaccent" horiz-adv-x="1392" unicode="Ė"/><glyph d="M684.5 1527q-68.5 0 -115.5 44.5t-47 111t47 110t115.5 43.5t115.5 -43.5t47 -110t-47 -111t-115.5 -44.5zM65 0v1434h1263v-345h-835v-227h804v-289h-804v-227h835v-346h-1263z" glyph-name="edotaccent" horiz-adv-x="1392" unicode="ė"/><glyph d="M1328 1089h-835v-227h804v-289h-804v-227h835v-346q-77 0 -109.5 -29t-32.5 -67q0 -84 99 -81v-236q-49 0 -98.5 6t-103.5 24t-93 46t-65.5 75t-26.5 107q0 94 58 155h-891v1434h1263v-345z" glyph-name="Eogonek" horiz-adv-x="1392" unicode="Ę"/><glyph d="M1328 1089h-835v-227h804v-289h-804v-227h835v-346q-77 0 -109.5 -29t-32.5 -67q0 -84 99 -81v-236q-49 0 -98.5 6t-103.5 24t-93 46t-65.5 75t-26.5 107q0 94 58 155h-891v1434h1263v-345z" glyph-name="eogonek" horiz-adv-x="1392" unicode="ę"/><glyph d="M200 1766h360l82 -92h92l82 92h360l-229 -291h-519zM65 0v1434h1263v-345h-835v-227h804v-289h-804v-227h835v-346h-1263z" glyph-name="Ecaron" horiz-adv-x="1392" unicode="Ě"/><glyph d="M200 1766h360l82 -92h92l82 92h360l-229 -291h-519zM65 0v1434h1263v-345h-835v-227h804v-289h-804v-227h835v-346h-1263z" glyph-name="ecaron" horiz-adv-x="1392" unicode="ě"/><glyph d="M838 1519q-212 0 -299 65.5t-83 226.5h261q-2 -55 30.5 -84t90.5 -29q56 0 88.5 29t30.5 84h262q3 -160 -83 -226t-298 -66zM1589 780v-780h-239l-5 198q-77 -113 -213.5 -179.5t-319.5 -66.5q-333 0 -553 213.5t-220 551.5q0 343 222 553.5t587 210.5q174 0 322.5 -52.5 t262 -176.5t144.5 -305h-425q-29 72 -107.5 118t-187.5 46q-172 0 -282.5 -109t-110.5 -285q0 -174 109.5 -284t273.5 -110q43 0 85.5 8.5t93.5 29.5t91 67t57 111h-348v241h763z" glyph-name="Gbreve" horiz-adv-x="1662" unicode="Ğ"/><glyph d="M838 1519q-212 0 -299 65.5t-83 226.5h261q-2 -55 30.5 -84t90.5 -29q56 0 88.5 29t30.5 84h262q3 -160 -83 -226t-298 -66zM1589 780v-780h-239l-5 198q-77 -113 -213.5 -179.5t-319.5 -66.5q-333 0 -553 213.5t-220 551.5q0 343 222 553.5t587 210.5q174 0 322.5 -52.5 t262 -176.5t144.5 -305h-425q-29 72 -107.5 118t-187.5 46q-172 0 -282.5 -109t-110.5 -285q0 -174 109.5 -284t273.5 -110q43 0 85.5 8.5t93.5 29.5t91 67t57 111h-348v241h763z" glyph-name="gbreve" horiz-adv-x="1662" unicode="ğ"/><glyph d="M838 1527q-68 0 -115 44.5t-47 111t47 110t115 43.5t115 -43.5t47 -110t-47 -111t-115 -44.5zM1589 780v-780h-239l-5 198q-77 -113 -213.5 -179.5t-319.5 -66.5q-333 0 -553 213.5t-220 551.5q0 343 222 553.5t587 210.5q174 0 322.5 -52.5t262 -176.5t144.5 -305h-425 q-29 72 -107.5 118t-187.5 46q-172 0 -282.5 -109t-110.5 -285q0 -174 109.5 -284t273.5 -110q43 0 85.5 8.5t93.5 29.5t91 67t57 111h-348v241h763z" glyph-name="Gdotaccent" horiz-adv-x="1662" unicode="Ġ"/><glyph d="M838 1527q-68 0 -115 44.5t-47 111t47 110t115 43.5t115 -43.5t47 -110t-47 -111t-115 -44.5zM1589 780v-780h-239l-5 198q-77 -113 -213.5 -179.5t-319.5 -66.5q-333 0 -553 213.5t-220 551.5q0 343 222 553.5t587 210.5q174 0 322.5 -52.5t262 -176.5t144.5 -305h-425 q-29 72 -107.5 118t-187.5 46q-172 0 -282.5 -109t-110.5 -285q0 -174 109.5 -284t273.5 -110q43 0 85.5 8.5t93.5 29.5t91 67t57 111h-348v241h763z" glyph-name="gdotaccent" horiz-adv-x="1662" unicode="ġ"/><glyph d="M1589 780v-780h-239l-5 198q-77 -113 -213.5 -179.5t-319.5 -66.5q-333 0 -553 213.5t-220 551.5q0 343 222 553.5t587 210.5q174 0 322.5 -52.5t262 -176.5t144.5 -305h-425q-29 72 -107.5 118t-187.5 46q-172 0 -282.5 -109t-110.5 -285q0 -174 109.5 -284t273.5 -110 q43 0 85.5 8.5t93.5 29.5t91 67t57 111h-348v241h763zM616 -423v312h449v-70q0 -217 -25.5 -372t-58.5 -222h-232q22 143 22 352h-155z" glyph-name="Gcommaaccent" horiz-adv-x="1662" unicode="Ģ"/><glyph d="M1589 780v-780h-239l-5 198q-77 -113 -213.5 -179.5t-319.5 -66.5q-333 0 -553 213.5t-220 551.5q0 343 222 553.5t587 210.5q174 0 322.5 -52.5t262 -176.5t144.5 -305h-425q-29 72 -107.5 118t-187.5 46q-172 0 -282.5 -109t-110.5 -285q0 -174 109.5 -284t273.5 -110 q43 0 85.5 8.5t93.5 29.5t91 67t57 111h-348v241h763zM616 -423v312h449v-70q0 -217 -25.5 -372t-58.5 -222h-232q22 143 22 352h-155z" glyph-name="gcommaaccent" horiz-adv-x="1662" unicode="ģ"/><glyph d="M1101 1434h428v-1434h-428v538h-608v-538h-428v1434h428v-147h608v147zM493 896h608v94h-608v-94z" glyph-name="Hbar" horiz-adv-x="1594" unicode="Ħ"/><glyph d="M1101 1434h428v-1434h-428v538h-608v-538h-428v1434h428v-147h608v147zM493 896h608v94h-608v-94z" glyph-name="hbar" horiz-adv-x="1594" unicode="ħ"/><glyph d="M-97 1526v314h751v-314h-751zM65 0v1434h428v-1434h-428z" glyph-name="Imacron" horiz-adv-x="556" unicode="Ī"/><glyph d="M-97 1526v314h751v-314h-751zM65 0v1434h428v-1434h-428z" glyph-name="imacron" horiz-adv-x="556" unicode="ī"/><glyph d="M65 1434h428v-1434q-77 0 -109 -29t-32 -67q0 -84 99 -81v-236q-49 0 -99 6t-103.5 24t-93 46t-66 75t-26.5 107q0 94 58 155h-56v1434z" glyph-name="Iogonek" horiz-adv-x="556" unicode="Į"/><glyph d="M65 1434h428v-1434q-77 0 -109 -29t-32 -67q0 -84 99 -81v-236q-49 0 -99 6t-103.5 24t-93 46t-66 75t-26.5 107q0 94 58 155h-56v1434z" glyph-name="iogonek" horiz-adv-x="556" unicode="į"/><glyph d="M278 1527q-68 0 -115 44.5t-47 111t47 110t115 43.5t115 -43.5t47 -110t-47 -111t-115 -44.5zM65 0v1434h428v-1434h-428z" glyph-name="Idotaccent" horiz-adv-x="556" unicode="İ"/><glyph d="M65 0v1434h428v-1434h-428z" glyph-name="dotlessi" horiz-adv-x="556" unicode="ı"/><glyph d="M65 0v1434h428v-1434h-428zM1220 -48q-143 0 -253 29t-198 95t-132.5 185.5t-42.5 286.5h427q-2 -230 209.5 -230.5t211.5 271.5v845h429v-823q0 -355 -165 -507t-486 -152z" glyph-name="IJ" horiz-adv-x="1935" unicode="Ĳ"/><glyph d="M973 795l611 -795h-441l-411 538h-27l-213 -226v-312h-427v1434h427v-608h29l561 608h480zM580 -423v312h449v-70q0 -217 -25.5 -372t-58.5 -222h-232q22 143 23 352h-156z" glyph-name="Kcommaaccent" unicode="Ķ"/><glyph d="M973 795l611 -795h-441l-411 538h-27l-213 -226v-312h-427v1434h427v-608h29l561 608h480zM580 -423v312h449v-70q0 -217 -25.5 -372t-58.5 -222h-232q22 143 23 352h-156z" glyph-name="kcommaaccent" unicode="ķ"/><glyph d="M65 1502l123 292h380l-123 -292h-380zM65 0v1434h428v-1076h785v-358h-1213z" glyph-name="Lacute" horiz-adv-x="1338" unicode="Ĺ"/><glyph d="M65 1502l123 292h380l-123 -292h-380zM65 0v1434h428v-1076h785v-358h-1213z" glyph-name="lacute" horiz-adv-x="1338" unicode="ĺ"/><glyph d="M65 0v1434h428v-1076h785v-358h-1213zM580 -775q22 143 22 352h-155v312h449v-70q0 -217 -25.5 -372t-58.5 -222h-232z" glyph-name="Lcommaaccent" horiz-adv-x="1338" unicode="Ļ"/><glyph d="M65 0v1434h428v-1076h785v-358h-1213zM580 -775q22 143 22 352h-155v312h449v-70q0 -217 -25.5 -372t-58.5 -222h-232z" glyph-name="lcommaaccent" horiz-adv-x="1338" unicode="ļ"/><glyph d="M65 0v1434h428v-1076h785v-358h-1213zM807 672q27 184 24 403h-177v359h515v-81q0 -249 -30 -426.5t-67 -254.5h-265z" glyph-name="Lcaron" horiz-adv-x="1338" unicode="Ľ"/><glyph d="M65 0v1434h428v-1076h785v-358h-1213zM807 672q27 184 24 403h-177v359h515v-81q0 -249 -30 -426.5t-67 -254.5h-265z" glyph-name="lcaron" horiz-adv-x="1338" unicode="ľ"/><glyph d="M65 0v1434h428v-1076h785v-358h-1213zM908 686q-90 0 -154.5 63t-64.5 152q0 87 65 151t154 64t153 -64t64 -151q0 -89 -64 -152t-153 -63z" glyph-name="Ldot" horiz-adv-x="1338" unicode="Ŀ"/><glyph d="M550 358h785v-358h-1214v379l-121 -94v312l121 94v743h429v-412l245 191v-314l-245 -189v-352z" glyph-name="Lslash" horiz-adv-x="1394" unicode="Ł"/><glyph d="M550 358h785v-358h-1214v379l-121 -94v312l121 94v743h429v-412l245 191v-314l-245 -189v-352z" glyph-name="lslash" horiz-adv-x="1394" unicode="ł"/><glyph d="M616 1519l123 292h381l-123 -292h-381zM65 0v1434h493l539 -838h40v838h418v-1434h-483l-551 838h-38v-838h-418z" glyph-name="Nacute" horiz-adv-x="1617" unicode="Ń"/><glyph d="M616 1519l123 292h381l-123 -292h-381zM65 0v1434h493l539 -838h40v838h418v-1434h-483l-551 838h-38v-838h-418z" glyph-name="nacute" horiz-adv-x="1617" unicode="ń"/><glyph d="M65 0v1434h493l539 -838h40v838h418v-1434h-483l-551 838h-38v-838h-418zM720 -775q22 143 22 352h-155v312h449v-70q0 -217 -25.5 -372t-58.5 -222h-232z" glyph-name="Ncommaaccent" horiz-adv-x="1617" unicode="Ņ"/><glyph d="M65 0v1434h493l539 -838h40v838h418v-1434h-483l-551 838h-38v-838h-418zM720 -775q22 143 22 352h-155v312h449v-70q0 -217 -25.5 -372t-58.5 -222h-232z" glyph-name="ncommaaccent" horiz-adv-x="1617" unicode="ņ"/><glyph d="M324 1766h360l82 -92h92l82 92h360l-228 -291h-519zM65 0v1434h493l539 -838h40v838h418v-1434h-483l-551 838h-38v-838h-418z" glyph-name="Ncaron" horiz-adv-x="1617" unicode="Ň"/><glyph d="M324 1766h360l82 -92h92l82 92h360l-228 -291h-519zM65 0v1434h493l539 -838h40v838h418v-1434h-483l-551 838h-38v-838h-418z" glyph-name="ncaron" horiz-adv-x="1617" unicode="ň"/><glyph d="M1137 1434h418v-1434q-2 -259 -166.5 -383t-468.5 -124l5 360q212 0 212 144v3h-65l-551 838h-38v-838h-418v1434h493l539 -838h40v838z" glyph-name="Eng" horiz-adv-x="1617" unicode="Ŋ"/><glyph d="M1137 1434h418v-1434q-2 -259 -166.5 -383t-468.5 -124l5 360q212 0 212 144v3h-65l-551 838h-38v-838h-418v1434h493l539 -838h40v838z" glyph-name="eng" horiz-adv-x="1617" unicode="ŋ"/><glyph d="M468 1533v314h751v-314h-751zM843 -48q-362 0 -583 211t-221 554t221 553.5t583 210.5t583 -210.5t221 -553.5t-221 -554t-583 -211zM843 323q162 0 270.5 107.5t108.5 286.5t-108.5 286.5t-270.5 107.5t-270.5 -107.5t-108.5 -286.5t108.5 -286.5t270.5 -107.5z" glyph-name="Omacron" horiz-adv-x="1686" unicode="Ō"/><glyph d="M468 1533v314h751v-314h-751zM843 -48q-362 0 -583 211t-221 554t221 553.5t583 210.5t583 -210.5t221 -553.5t-221 -554t-583 -211zM843 323q162 0 270.5 107.5t108.5 286.5t-108.5 286.5t-270.5 107.5t-270.5 -107.5t-108.5 -286.5t108.5 -286.5t270.5 -107.5z" glyph-name="omacron" horiz-adv-x="1686" unicode="ō"/><glyph d="M377 1536l123 292h381l-123 -292h-381zM843 1536l123 292h381l-123 -292h-381zM843 -48q-362 0 -583 211t-221 554t221 553.5t583 210.5t583 -210.5t221 -553.5t-221 -554t-583 -211zM843 323q162 0 270.5 107.5t108.5 286.5t-108.5 286.5t-270.5 107.5t-270.5 -107.5 t-108.5 -286.5t108.5 -286.5t270.5 -107.5z" glyph-name="Ohungarumlaut" horiz-adv-x="1686" unicode="Ő"/><glyph d="M377 1536l123 292h381l-123 -292h-381zM843 1536l123 292h381l-123 -292h-381zM843 -48q-362 0 -583 211t-221 554t221 553.5t583 210.5t583 -210.5t221 -553.5t-221 -554t-583 -211zM843 323q162 0 270.5 107.5t108.5 286.5t-108.5 286.5t-270.5 107.5t-270.5 -107.5 t-108.5 -286.5t108.5 -286.5t270.5 -107.5z" glyph-name="ohungarumlaut" horiz-adv-x="1686" unicode="ő"/><glyph d="M2485 1089h-835v-227h804v-289h-804v-227h835v-346h-1263v27q-166 -75 -379 -75q-362 0 -583 211t-221 554t221 553.5t583 210.5q213 0 379 -75v28h1263v-345zM843 323q162 0 270.5 107.5t108.5 286.5t-108.5 286.5t-270.5 107.5t-270.5 -107.5t-108.5 -286.5 t108.5 -286.5t270.5 -107.5z" glyph-name="OE" horiz-adv-x="2548" unicode="Œ"/><glyph d="M2485 1089h-835v-227h804v-289h-804v-227h835v-346h-1263v27q-166 -75 -379 -75q-362 0 -583 211t-221 554t221 553.5t583 210.5q213 0 379 -75v28h1263v-345zM843 323q162 0 270.5 107.5t108.5 286.5t-108.5 286.5t-270.5 107.5t-270.5 -107.5t-108.5 -286.5 t108.5 -286.5t270.5 -107.5z" glyph-name="oe" horiz-adv-x="2548" unicode="œ"/><glyph d="M1072 1811l-123 -292h-381l123 292h381zM1516 0h-422l-208 389h-393v-389h-428v1434h797q299 0 455 -134t156 -402q0 -278 -220 -420zM493 1077v-365h342q102 0 155.5 47t53.5 135.5t-53.5 135.5t-155.5 47h-342z" glyph-name="Racute" horiz-adv-x="1553" unicode="Ŕ"/><glyph d="M1072 1811l-123 -292h-381l123 292h381zM1516 0h-422l-208 389h-393v-389h-428v1434h797q299 0 455 -134t156 -402q0 -278 -220 -420zM493 1077v-365h342q102 0 155.5 47t53.5 135.5t-53.5 135.5t-155.5 47h-342z" glyph-name="racute" horiz-adv-x="1553" unicode="ŕ"/><glyph d="M1253 478l263 -478h-422l-208 389h-393v-389h-428v1434h797q299 0 455 -134t156 -402q0 -278 -220 -420zM493 1077v-365h342q102 0 155.5 47t53.5 135.5t-53.5 135.5t-155.5 47h-342zM539 -423v312h449v-70q0 -217 -25.5 -372t-57.5 -222h-233q22 143 23 352h-156z" glyph-name="Rcommaaccent" horiz-adv-x="1553" unicode="Ŗ"/><glyph d="M1253 478l263 -478h-422l-208 389h-393v-389h-428v1434h797q299 0 455 -134t156 -402q0 -278 -220 -420zM493 1077v-365h342q102 0 155.5 47t53.5 135.5t-53.5 135.5t-155.5 47h-342zM539 -423v312h449v-70q0 -217 -25.5 -372t-57.5 -222h-233q22 143 23 352h-156z" glyph-name="rcommaaccent" horiz-adv-x="1553" unicode="ŗ"/><glyph d="M1024 1475h-519l-229 291h361l82 -92h92l82 92h360zM1516 0h-422l-208 389h-393v-389h-428v1434h797q299 0 455 -134t156 -402q0 -278 -220 -420zM493 1077v-365h342q102 0 155.5 47t53.5 135.5t-53.5 135.5t-155.5 47h-342z" glyph-name="Rcaron" horiz-adv-x="1553" unicode="Ř"/><glyph d="M1024 1475h-519l-229 291h361l82 -92h92l82 92h360zM1516 0h-422l-208 389h-393v-389h-428v1434h797q299 0 455 -134t156 -402q0 -278 -220 -420zM493 1077v-365h342q102 0 155.5 47t53.5 135.5t-53.5 135.5t-155.5 47h-342z" glyph-name="rcaron" horiz-adv-x="1553" unicode="ř"/><glyph d="M550 1519l122 292h381l-123 -292h-380zM730 -48q-362 2 -534 125.5t-165 390.5h385q10 -177 314 -180q142 -2 216.5 37t74.5 103q0 104 -195 135l-181 29q-247 43 -348 86q-230 101 -230 355q0 213 171.5 330.5t495.5 117.5q155 0 273.5 -25.5t211.5 -82.5t140 -158.5 t46 -245.5h-383q-31 176 -298 176q-246 0 -246 -133q0 -101 162 -128l152 -27q26 -3 86.5 -13.5t91 -15.5t87 -17t88 -23t79 -30t74 -40.5t59 -53t49 -67.5t28.5 -83.5t12 -102.5q0 -227 -180.5 -344t-535.5 -115z" glyph-name="Sacute" horiz-adv-x="1481" unicode="Ś"/><glyph d="M550 1519l122 292h381l-123 -292h-380zM730 -48q-362 2 -534 125.5t-165 390.5h385q10 -177 314 -180q142 -2 216.5 37t74.5 103q0 104 -195 135l-181 29q-247 43 -348 86q-230 101 -230 355q0 213 171.5 330.5t495.5 117.5q155 0 273.5 -25.5t211.5 -82.5t140 -158.5 t46 -245.5h-383q-31 176 -298 176q-246 0 -246 -133q0 -101 162 -128l152 -27q26 -3 86.5 -13.5t91 -15.5t87 -17t88 -23t79 -30t74 -40.5t59 -53t49 -67.5t28.5 -83.5t12 -102.5q0 -227 -180.5 -344t-535.5 -115z" glyph-name="sacute" horiz-adv-x="1481" unicode="ś"/><glyph d="M1446 411q0 -217 -163 -333t-486 -124l-17 -15q79 -5 137 -55t58 -138q0 -128 -125 -181t-300 -17v169q68 -15 109.5 -12t60.5 12.5t19 23.5q0 15 -19 27t-60.5 16t-109.5 -13v110l92 73q-316 15 -467 139t-144 375h385q10 -177 314 -180q142 -2 216.5 37t74.5 103 q0 104 -195 135l-181 29q-247 43 -348 86q-230 101 -230 355q0 213 171.5 330.5t495.5 117.5q155 0 273.5 -25.5t211.5 -82.5t140 -158.5t46 -245.5h-383q-31 176 -298 176q-246 0 -246 -133q0 -101 162 -128l152 -27q26 -3 86.5 -13.5t91 -15.5t87 -17t88 -23t79 -30 t74 -40.5t59 -53t49 -67.5t28.5 -83.5t12 -102.5z" glyph-name="Scedilla" horiz-adv-x="1481" unicode="Ş"/><glyph d="M1446 411q0 -217 -163 -333t-486 -124l-17 -15q79 -5 137 -55t58 -138q0 -128 -125 -181t-300 -17v169q68 -15 109.5 -12t60.5 12.5t19 23.5q0 15 -19 27t-60.5 16t-109.5 -13v110l92 73q-316 15 -467 139t-144 375h385q10 -177 314 -180q142 -2 216.5 37t74.5 103 q0 104 -195 135l-181 29q-247 43 -348 86q-230 101 -230 355q0 213 171.5 330.5t495.5 117.5q155 0 273.5 -25.5t211.5 -82.5t140 -158.5t46 -245.5h-383q-31 176 -298 176q-246 0 -246 -133q0 -101 162 -128l152 -27q26 -3 86.5 -13.5t91 -15.5t87 -17t88 -23t79 -30 t74 -40.5t59 -53t49 -67.5t28.5 -83.5t12 -102.5z" glyph-name="scedilla" horiz-adv-x="1481" unicode="ş"/><glyph d="M792 857q26 -3 86.5 -13.5t91 -15.5t87 -17t88 -23t79 -30t74 -40.5t59 -53t49 -67.5t28.5 -83.5t12 -102.5q0 -227 -180.5 -343.5t-535.5 -115.5q-362 2 -534 125.5t-165 390.5h385q10 -177 314 -180q142 -2 216.5 37t74.5 103q0 104 -195 135l-181 29q-247 43 -348 86 q-230 101 -230 355q0 188 134 302t388 140h-103l-228 291h360l82 -92h92l82 92h360l-229 -291h-118q251 -24 386 -143.5t132 -362.5h-383q-31 176 -298 176q-246 0 -246 -133q0 -101 162 -128z" glyph-name="Scaron" horiz-adv-x="1481" unicode="Š"/><glyph d="M792 857q26 -3 86.5 -13.5t91 -15.5t87 -17t88 -23t79 -30t74 -40.5t59 -53t49 -67.5t28.5 -83.5t12 -102.5q0 -227 -180.5 -343.5t-535.5 -115.5q-362 2 -534 125.5t-165 390.5h385q10 -177 314 -180q142 -2 216.5 37t74.5 103q0 104 -195 135l-181 29q-247 43 -348 86 q-230 101 -230 355q0 188 134 302t388 140h-103l-228 291h360l82 -92h92l82 92h360l-229 -291h-118q251 -24 386 -143.5t132 -362.5h-383q-31 176 -298 176q-246 0 -246 -133q0 -101 162 -128z" glyph-name="scaron" horiz-adv-x="1481" unicode="š"/><glyph d="M1007 0h-99l-77 -61q79 -5 137 -55t58 -138q0 -128 -124.5 -181t-300.5 -17v169q68 -15 110 -12t60.5 12.5t18.5 23.5q0 15 -18.5 27t-60.5 16t-110 -13v110l150 119h-172v1075h-523v359h1473v-359h-522v-1075z" glyph-name="Tcommaaccent" horiz-adv-x="1585" unicode="Ţ"/><glyph d="M1007 0h-99l-77 -61q79 -5 137 -55t58 -138q0 -128 -124.5 -181t-300.5 -17v169q68 -15 110 -12t60.5 12.5t18.5 23.5q0 15 -18.5 27t-60.5 16t-110 -13v110l150 119h-172v1075h-523v359h1473v-359h-522v-1075z" glyph-name="tcommaaccent" horiz-adv-x="1585" unicode="ţ"/><glyph d="M1056 1475h-518l-229 291h360l82 -92h92l82 92h360zM1529 1434v-359h-522v-1075h-428v1075h-523v359h1473z" glyph-name="Tcaron" horiz-adv-x="1585" unicode="Ť"/><glyph d="M1056 1475h-518l-229 291h360l82 -92h92l82 92h360zM1529 1434v-359h-522v-1075h-428v1075h-523v359h1473z" glyph-name="tcaron" horiz-adv-x="1585" unicode="ť"/><glyph d="M1529 1075h-522v-258h370v-314h-370v-503h-428v503h-367v314h367v258h-523v359h1473v-359z" glyph-name="Tbar" horiz-adv-x="1585" unicode="Ŧ"/><glyph d="M1529 1075h-522v-258h370v-314h-370v-503h-428v503h-367v314h367v258h-523v359h1473v-359z" glyph-name="tbar" horiz-adv-x="1585" unicode="ŧ"/><glyph d="M415 1526v314h751v-314h-751zM790.5 -48q-725.5 0 -725.5 664v818h432v-808q0 -150 72.5 -232t221 -82t221.5 82t73 232v808h431v-816q0 -666 -725.5 -666z" glyph-name="Umacron" unicode="Ū"/><glyph d="M415 1526v314h751v-314h-751zM790.5 -48q-725.5 0 -725.5 664v818h432v-808q0 -150 72.5 -232t221 -82t221.5 82t73 232v808h431v-816q0 -666 -725.5 -666z" glyph-name="umacron" unicode="ū"/><glyph d="M790.5 1519q-211.5 0 -299 65.5t-83.5 226.5h261q-2 -55 30.5 -84t90.5 -29q56 0 88.5 29t31.5 84h261q3 -160 -83 -226t-297.5 -66zM790.5 -48q-725.5 0 -725.5 664v818h432v-808q0 -150 72.5 -232t221 -82t221.5 82t73 232v808h431v-816q0 -666 -725.5 -666z" glyph-name="Ubreve" unicode="Ŭ"/><glyph d="M790.5 1519q-211.5 0 -299 65.5t-83.5 226.5h261q-2 -55 30.5 -84t90.5 -29q56 0 88.5 29t31.5 84h261q3 -160 -83 -226t-297.5 -66zM790.5 -48q-725.5 0 -725.5 664v818h432v-808q0 -150 72.5 -232t221 -82t221.5 82t73 232v808h431v-816q0 -666 -725.5 -666z" glyph-name="ubreve" unicode="ŭ"/><glyph d="M790 1410q-99 0 -167 67.5t-68 162.5q0 97 68 166.5t167 69.5t165.5 -68.5t66.5 -167.5q0 -96 -66.5 -163t-165.5 -67zM790 1591q26 0 41.5 13.5t13.5 39.5q-5 55 -55 54q-24 0 -39 -15.5t-15 -38.5q-1 -53 54 -53zM790.5 -48q-725.5 0 -725.5 664v818h432v-808 q0 -150 72.5 -232t221 -82t221.5 82t73 232v808h431v-816q0 -666 -725.5 -666z" glyph-name="Uring" unicode="Ů"/><glyph d="M790 1410q-99 0 -167 67.5t-68 162.5q0 97 68 166.5t167 69.5t165.5 -68.5t66.5 -167.5q0 -96 -66.5 -163t-165.5 -67zM790 1591q26 0 41.5 13.5t13.5 39.5q-5 55 -55 54q-24 0 -39 -15.5t-15 -38.5q-1 -53 54 -53zM790.5 -48q-725.5 0 -725.5 664v818h432v-808 q0 -150 72.5 -232t221 -82t221.5 82t73 232v808h431v-816q0 -666 -725.5 -666z" glyph-name="uring" unicode="ů"/><glyph d="M324 1529l123 292h381l-123 -292h-381zM790 1529l123 292h381l-123 -292h-381zM790.5 -48q-725.5 0 -725.5 664v818h432v-808q0 -150 72.5 -232t221 -82t221.5 82t73 232v808h431v-816q0 -666 -725.5 -666z" glyph-name="Uhungarumlaut" unicode="Ű"/><glyph d="M324 1529l123 292h381l-123 -292h-381zM790 1529l123 292h381l-123 -292h-381zM790.5 -48q-725.5 0 -725.5 664v818h432v-808q0 -150 72.5 -232t221 -82t221.5 82t73 232v808h431v-816q0 -666 -725.5 -666z" glyph-name="uhungarumlaut" unicode="ű"/><glyph d="M1085 1434h431v-816q0 -579 -545 -654v-2q-171 -15 -171 -75q0 -14 6 -26.5t30 -25t63 -12.5v-236q-65 0 -126 11t-123.5 37.5t-100 78.5t-37.5 124q0 82 55 133q-502 90 -502 645v818h432v-808q0 -150 72.5 -232t221 -82t221.5 82t73 232v808z" glyph-name="Uogonek" unicode="Ų"/><glyph d="M1085 1434h431v-816q0 -579 -545 -654v-2q-171 -15 -171 -75q0 -14 6 -26.5t30 -25t63 -12.5v-236q-65 0 -126 11t-123.5 37.5t-100 78.5t-37.5 124q0 82 55 133q-502 90 -502 645v818h432v-808q0 -150 72.5 -232t221 -82t221.5 82t73 232v808z" glyph-name="uogonek" unicode="ų"/><glyph d="M601 1519l228 292h519l229 -292h-360l-82 92h-92l-82 -92h-360zM329 0l-293 1434h435l178 -977h37l229 977h345l228 -977h38l177 977h435l-293 -1434h-579l-160 761h-38l-160 -761h-579z" glyph-name="Wcircumflex" horiz-adv-x="2174" unicode="Ŵ"/><glyph d="M601 1519l228 292h519l229 -292h-360l-82 92h-92l-82 -92h-360zM329 0l-293 1434h435l178 -977h37l229 977h345l228 -977h38l177 977h435l-293 -1434h-579l-160 761h-38l-160 -761h-579z" glyph-name="wcircumflex" horiz-adv-x="2174" unicode="ŵ"/><glyph d="M761 1611l-82 -92h-360l229 292h519l228 -292h-360l-82 92h-92zM1609 1434l-588 -985v-449h-429v451l-587 983h451l332 -574h38l331 574h452z" glyph-name="Ycircumflex" horiz-adv-x="1614" unicode="Ŷ"/><glyph d="M761 1611l-82 -92h-360l229 292h519l228 -292h-360l-82 92h-92zM1609 1434l-588 -985v-449h-429v451l-587 983h451l332 -574h38l331 574h452z" glyph-name="ycircumflex" horiz-adv-x="1614" unicode="ŷ"/><glyph d="M554.5 1527q-68.5 0 -115 44.5t-46.5 111t46.5 110t115 43.5t115.5 -43.5t47 -110t-47 -111t-115.5 -44.5zM1056 1527q-67 0 -114.5 44.5t-47.5 111.5q0 65 48 109t114 44q68 0 115.5 -43.5t47.5 -110t-47.5 -111t-115.5 -44.5zM1609 1434l-588 -985v-449h-429v451 l-587 983h451l332 -574h38l331 574h452z" glyph-name="Ydieresis" horiz-adv-x="1614" unicode="Ÿ"/><glyph d="M507 1519l123 292h380l-123 -292h-380zM39 0v346l770 697v32h-751v359h1306v-347l-780 -696v-33h769v-358h-1314z" glyph-name="Zacute" horiz-adv-x="1401" unicode="Ź"/><glyph d="M507 1519l123 292h380l-123 -292h-380zM39 0v346l770 697v32h-751v359h1306v-347l-780 -696v-33h769v-358h-1314z" glyph-name="zacute" horiz-adv-x="1401" unicode="ź"/><glyph d="M699.5 1527q-68.5 0 -115 44.5t-46.5 111t46.5 110t115 43.5t115.5 -43.5t47 -110t-47 -111t-115.5 -44.5zM39 0v346l770 697v32h-751v359h1306v-347l-780 -696v-33h769v-358h-1314z" glyph-name="Zdotaccent" horiz-adv-x="1401" unicode="Ż"/><glyph d="M699.5 1527q-68.5 0 -115 44.5t-46.5 111t46.5 110t115 43.5t115.5 -43.5t47 -110t-47 -111t-115.5 -44.5zM39 0v346l770 697v32h-751v359h1306v-347l-780 -696v-33h769v-358h-1314z" glyph-name="zdotaccent" horiz-adv-x="1401" unicode="ż"/><glyph d="M215 1766h360l82 -92h92l82 92h360l-228 -291h-519zM39 0v346l770 697v32h-751v359h1306v-347l-780 -696v-33h769v-358h-1314z" glyph-name="Zcaron" horiz-adv-x="1401" unicode="Ž"/><glyph d="M215 1766h360l82 -92h92l82 92h360l-228 -291h-519zM39 0v346l770 697v32h-751v359h1306v-347l-780 -696v-33h769v-358h-1314z" glyph-name="zcaron" horiz-adv-x="1401" unicode="ž"/><glyph d="M1026 1184q-79 0 -127.5 -38t-48.5 -124v-73h384v-329h-384v-210q0 -222 -130.5 -329t-337.5 -107q-196 0 -309 67v311q101 -39 209 -40q79 0 127 38.5t48 123.5v146h-384v329h384v138q0 222 131 328.5t337 106.5q196 0 309 -66v-311q-95 39 -208 39z" glyph-name="florin" horiz-adv-x="1307" unicode="ƒ"/><glyph d="M1113 1475h-519l-229 291h360l82 -92h92l82 92h360zM1244 0l-72 207h-645l-71 -207h-442l536 1434h600l538 -1434h-444zM638 526h424l-175 505h-75z" glyph-name="uni01CD" horiz-adv-x="1699" unicode="Ǎ"/><glyph d="M1113 1475h-519l-229 291h360l82 -92h92l82 92h360zM1244 0l-72 207h-645l-71 -207h-442l536 1434h600l538 -1434h-444zM638 526h424l-175 505h-75z" glyph-name="uni01CE" horiz-adv-x="1699" unicode="ǎ"/><glyph d="M-207 1766h361l82 -92h92l82 92h360l-229 -291h-519zM65 0v1434h428v-1434h-428z" glyph-name="uni01CF" horiz-adv-x="556" unicode="Ǐ"/><glyph d="M-207 1766h361l82 -92h92l82 92h360l-229 -291h-519zM65 0v1434h428v-1434h-428z" glyph-name="uni01D0" horiz-adv-x="556" unicode="ǐ"/><glyph d="M358 1773h361l81 -92h93l82 92h360l-229 -292h-519zM843 -48q-362 0 -583 211t-221 554t221 553.5t583 210.5t583 -210.5t221 -553.5t-221 -554t-583 -211zM843 323q162 0 270.5 107.5t108.5 286.5t-108.5 286.5t-270.5 107.5t-270.5 -107.5t-108.5 -286.5t108.5 -286.5 t270.5 -107.5z" glyph-name="uni01D1" horiz-adv-x="1686" unicode="Ǒ"/><glyph d="M358 1773h361l81 -92h93l82 92h360l-229 -292h-519zM843 -48q-362 0 -583 211t-221 554t221 553.5t583 210.5t583 -210.5t221 -553.5t-221 -554t-583 -211zM843 323q162 0 270.5 107.5t108.5 286.5t-108.5 286.5t-270.5 107.5t-270.5 -107.5t-108.5 -286.5t108.5 -286.5 t270.5 -107.5z" glyph-name="uni01D2" horiz-adv-x="1686" unicode="ǒ"/><glyph d="M305 1766h361l82 -92h92l82 92h360l-229 -291h-519zM790.5 -48q-725.5 0 -725.5 664v818h432v-808q0 -150 72.5 -232t221 -82t221.5 82t73 232v808h431v-816q0 -666 -725.5 -666z" glyph-name="uni01D3" unicode="Ǔ"/><glyph d="M305 1766h361l82 -92h92l82 92h360l-229 -291h-519zM790.5 -48q-725.5 0 -725.5 664v818h432v-808q0 -150 72.5 -232t221 -82t221.5 82t73 232v808h431v-816q0 -666 -725.5 -666z" glyph-name="uni01D4" unicode="ǔ"/><glyph d="M1647 717q0 -302 -174 -505t-471 -248q-20 -22 -21 -56q0 -84 99 -82v-236q-49 0 -98.5 6t-103.5 24t-93 46.5t-65.5 75t-26.5 106.5t26 111q-311 36 -495.5 240.5t-184.5 517.5q0 343 221 553.5t583 210.5t583 -210.5t221 -553.5zM464 717q0 -179 108.5 -286.5 t270.5 -107.5t270.5 107.5t108.5 286.5t-108.5 286.5t-270.5 107.5t-270.5 -107.5t-108.5 -286.5z" glyph-name="uni01EA" horiz-adv-x="1686" unicode="Ǫ"/><glyph d="M730 -48q-362 2 -534 125.5t-165 390.5h385q10 -177 314 -180q142 -2 216.5 37t74.5 103q0 104 -195 135l-181 29q-247 43 -348 86q-230 101 -230 355q0 213 171.5 330.5t495.5 117.5q155 0 273.5 -25.5t211.5 -82.5t140 -158.5t46 -245.5h-383q-31 176 -298 176 q-246 0 -246 -133q0 -101 162 -128l152 -27q26 -3 86.5 -13.5t91 -15.5t87 -17t88 -23t79 -30t74 -40.5t59 -53t49 -67.5t28.5 -83.5t12 -102.5q0 -227 -180.5 -344t-535.5 -115zM654 -775q22 143 22 352h-155v312h448v-70q0 -217 -25.5 -372t-57.5 -222h-232z" glyph-name="Scommaaccent" horiz-adv-x="1481" unicode="Ș"/><glyph d="M730 -48q-362 2 -534 125.5t-165 390.5h385q10 -177 314 -180q142 -2 216.5 37t74.5 103q0 104 -195 135l-181 29q-247 43 -348 86q-230 101 -230 355q0 213 171.5 330.5t495.5 117.5q155 0 273.5 -25.5t211.5 -82.5t140 -158.5t46 -245.5h-383q-31 176 -298 176 q-246 0 -246 -133q0 -101 162 -128l152 -27q26 -3 86.5 -13.5t91 -15.5t87 -17t88 -23t79 -30t74 -40.5t59 -53t49 -67.5t28.5 -83.5t12 -102.5q0 -227 -180.5 -344t-535.5 -115zM654 -775q22 143 22 352h-155v312h448v-70q0 -217 -25.5 -372t-57.5 -222h-232z" glyph-name="scommaaccent" horiz-adv-x="1481" unicode="ș"/><glyph d="M56 1434h1473v-359h-522v-1075h-428v1075h-523v359zM572 -423v312h449v-70q0 -217 -26 -372t-58 -222h-232q22 143 22 352h-155z" glyph-name="uni021A" horiz-adv-x="1585" unicode="Ț"/><glyph d="M56 1434h1473v-359h-522v-1075h-428v1075h-523v359zM572 -423v312h449v-70q0 -217 -26 -372t-58 -222h-232q22 143 22 352h-155z" glyph-name="uni021B" horiz-adv-x="1585" unicode="ț"/><glyph d="M0 1161l229 291h519l228 -291h-360l-82 92h-92l-82 -92h-360z" glyph-name="circumflex" horiz-adv-x="976" unicode="ˆ"/><glyph d="M0 1408h360l82 -92h92l82 92h360l-228 -292h-519z" glyph-name="caron" horiz-adv-x="976" unicode="ˇ"/><glyph d="M382.5 1161q-211.5 0 -298.5 65.5t-84 225.5h261q-2 -55 30.5 -83.5t90.5 -28.5q56 0 88.5 29t31.5 83h261q2 -160 -83.5 -225.5t-297 -65.5z" glyph-name="breve" horiz-adv-x="762" unicode="˘"/><glyph d="M162 1169q-68 0 -115 44.5t-47 111t47 110t115 43.5t115 -43.5t47 -110t-47 -111t-115 -44.5z" glyph-name="dotaccent" horiz-adv-x="324" unicode="˙"/><glyph d="M236 1051q-99 0 -167.5 67.5t-68.5 163.5q0 97 68.5 166t167.5 69t165.5 -68t66.5 -167q0 -96 -66.5 -163.5t-165.5 -67.5zM236 1232q26 0 41 14t13 39q-5 55 -54 55q-24 0 -39.5 -15.5t-15.5 -39.5q0 -53 55 -53z" glyph-name="ring" horiz-adv-x="467" unicode="˚"/><glyph d="M387 -413q-49 0 -98.5 6t-103.5 24t-93 46t-65.5 75t-26.5 107q0 70 34 122t80 79t111 42.5t111 20t94 4.5v-113q-77 0 -109.5 -29t-32.5 -67q0 -84 99 -81v-236z" glyph-name="ogonek" horiz-adv-x="430" unicode="˛"/><glyph d="M560 1157q-73 0 -175.5 52t-154.5 52q-96 0 -104 -82h-123q-19 140 58 212t197 72q73 0 175.5 -52t153.5 -52q94 0 104 81h123q19 -140 -58 -211.5t-196 -71.5z" glyph-name="tilde" horiz-adv-x="817" unicode="˜"/><glyph d="M0 1161l123 291h380l-122 -291h-381zM466 1161l123 291h380l-122 -291h-381z" glyph-name="hungarumlaut" horiz-adv-x="930" unicode="˝"/><glyph d="M-326 -775q22 145 22 352h-155v312h449v-70q0 -217 -25.5 -372t-58.5 -222h-232z" glyph-name="uni0326" horiz-adv-x="0" unicode="̦"/><glyph d="M1150 1434l538 -1434h-1674l536 1434h600zM580 345h540l-246 686h-48z" glyph-name="Delta" horiz-adv-x="1699" unicode="Δ"/><glyph d="M39 0v331h202v51q-89 84 -138.5 203.5t-49.5 252.5q0 275 208 459t554.5 184t555.5 -184t209 -459q0 -133 -50 -251.5t-139 -204.5v-51h203v-331h-655v474q215 89 215 311q0 133 -93 229.5t-245 96.5t-244 -96.5t-92 -229.5q0 -224 215 -311v-474h-656z" glyph-name="Omega" horiz-adv-x="1631" unicode="Ω"/><glyph d="M886 1161h428v-1161h-420l-8 155h-43q-56 -89 -152.5 -134t-197.5 -47v-230h-428v1417h428v-658q0 -104 57.5 -144t133.5 -40q92 0 147 52t55 112v678z" glyph-name="mu" horiz-adv-x="1377" unicode="μ"/><glyph d="M1495 346q22 0 52 6t40 6v-295q-67 -77 -254 -77q-357 0 -357 355v512h-336v-853h-428v853h-147v308h1485v-308h-145v-428q0 -79 90 -79z" glyph-name="pi" horiz-adv-x="1652" unicode="π"/><glyph d="M1283 1519h-380l-123 292h381zM329 0l-293 1434h435l178 -977h37l229 977h345l228 -977h38l177 977h435l-293 -1434h-579l-160 761h-38l-160 -761h-579z" glyph-name="Wgrave" horiz-adv-x="2174" unicode="Ẁ"/><glyph d="M1283 1519h-380l-123 292h381zM329 0l-293 1434h435l178 -977h37l229 977h345l228 -977h38l177 977h435l-293 -1434h-579l-160 761h-38l-160 -761h-579z" glyph-name="wgrave" horiz-adv-x="2174" unicode="ẁ"/><glyph d="M896 1519l123 292h380l-122 -292h-381zM329 0l-293 1434h435l178 -977h37l229 977h345l228 -977h38l177 977h435l-293 -1434h-579l-160 761h-38l-160 -761h-579z" glyph-name="Wacute" horiz-adv-x="2174" unicode="Ẃ"/><glyph d="M896 1519l123 292h380l-122 -292h-381zM329 0l-293 1434h435l178 -977h37l229 977h345l228 -977h38l177 977h435l-293 -1434h-579l-160 761h-38l-160 -761h-579z" glyph-name="wacute" horiz-adv-x="2174" unicode="ẃ"/><glyph d="M836.5 1527q-68.5 0 -115.5 44.5t-47 111t47 110t115.5 43.5t115 -43.5t46.5 -110t-46.5 -111t-115 -44.5zM1338 1527q-67 0 -114.5 44.5t-47.5 111.5q0 65 47.5 109t114.5 44q68 0 115 -43.5t47 -110t-47 -111t-115 -44.5zM329 0l-293 1434h435l178 -977h37l229 977h345 l228 -977h38l177 977h435l-293 -1434h-579l-160 761h-38l-160 -761h-579z" glyph-name="Wdieresis" horiz-adv-x="2174" unicode="Ẅ"/><glyph d="M836.5 1527q-68.5 0 -115.5 44.5t-47 111t47 110t115.5 43.5t115 -43.5t46.5 -110t-46.5 -111t-115 -44.5zM1338 1527q-67 0 -114.5 44.5t-47.5 111.5q0 65 47.5 109t114.5 44q68 0 115 -43.5t47 -110t-47 -111t-115 -44.5zM329 0l-293 1434h435l178 -977h37l229 977h345 l228 -977h38l177 977h435l-293 -1434h-579l-160 761h-38l-160 -761h-579z" glyph-name="wdieresis" horiz-adv-x="2174" unicode="ẅ"/><glyph d="M1190 853q207 7 327 -127.5t120 -317.5q0 -212 -141 -329t-390 -117q-280 0 -403 111t-123 321h352q7 -68 57 -107.5t112 -39.5q73 0 121 43t48 118q0 73 -50.5 120t-118.5 47q-72 0 -121 -46h-352l328 546h-287q-171 0 -171 -188v-887h-433v976q0 259 124.5 358.5 t392.5 99.5h981z" glyph-name="uni1E9E" horiz-adv-x="1674" unicode="ẞ"/><glyph d="M1002 1519h-381l-123 292h381zM1609 1434l-588 -985v-449h-429v451l-587 983h451l332 -574h38l331 574h452z" glyph-name="Ygrave" horiz-adv-x="1614" unicode="Ỳ"/><glyph d="M1002 1519h-381l-123 292h381zM1609 1434l-588 -985v-449h-429v451l-587 983h451l332 -574h38l331 574h452z" glyph-name="ygrave" horiz-adv-x="1614" unicode="ỳ"/><glyph d="M68 512v357h1400v-357h-1400z" glyph-name="endash" horiz-adv-x="1536" unicode="–"/><glyph d="M68 512v357h1536v-357h-1536z" glyph-name="emdash" horiz-adv-x="1672" unicode="—"/><glyph d="M416 1435q-27 -184 -23 -402h177v-359h-515v80q0 249 29.5 427t67.5 254h264z" glyph-name="quoteleft" horiz-adv-x="626" unicode="‘"/><glyph d="M210 672q27 184 24 403h-178v359h516v-81q0 -249 -30 -426.5t-68 -254.5h-264z" glyph-name="quoteright" horiz-adv-x="626" unicode="’"/><glyph d="M210 -403q27 184 24 403h-178v358h516v-80q0 -249 -30 -426.5t-68 -254.5h-264z" glyph-name="quotesinglbase" horiz-adv-x="626" unicode="‚"/><glyph d="M382 1435q-24 -179 -20 -402h159v-359h-461v80q0 251 26.5 428.5t60.5 252.5h235zM922 1435q-24 -179 -21 -402h159v-359h-461v80q0 251 26.5 428.5t60.5 252.5h236z" glyph-name="quotedblleft" horiz-adv-x="1116" unicode="“"/><glyph d="M195 672q24 179 20 403h-159v359h461v-81q0 -251 -26.5 -428t-60.5 -253h-235zM734 672q24 179 20 403h-158v359h460v-81q0 -251 -26 -428t-61 -253h-235z" glyph-name="quotedblright" horiz-adv-x="1116" unicode="”"/><glyph d="M195 -454q24 179 20 403h-159v358h461v-80q0 -251 -26.5 -428.5t-60.5 -252.5h-235zM734 -454q24 179 20 403h-158v358h460v-80q0 -251 -26 -428.5t-61 -252.5h-235z" glyph-name="quotedblbase" horiz-adv-x="1116" unicode="„"/><glyph d="M1239 1191v-339h-398v-398h-358v398h-398v339h398v400h358v-400h398z" glyph-name="dagger" horiz-adv-x="1324" unicode="†"/><glyph d="M841 427h398v-340h-398v-398h-358v398h-398v340h398v425h-398v339h398v400h358v-400h398v-339h-398v-425z" glyph-name="daggerdbl" horiz-adv-x="1324" unicode="‡"/><glyph d="M509 379q-140 0 -239 100t-99 238t99 238t239 100q138 0 237 -100t99 -238t-99 -238t-237 -100z" glyph-name="bullet" horiz-adv-x="1015" unicode="•"/><glyph d="M280 -27q-90 0 -154.5 63t-64.5 152q0 87 65 151t154 64t153 -64t64 -151q0 -89 -64 -152t-153 -63zM857 -27q-90 0 -154.5 63t-64.5 152q0 87 65 151t153.5 64t152.5 -64t64 -151q0 -89 -63.5 -152t-152.5 -63zM1432 -27q-90 0 -154.5 63t-64.5 152q0 87 65 151t154 64 t153 -64t64 -151q0 -89 -64 -152t-153 -63z" glyph-name="ellipsis" horiz-adv-x="1711" unicode="…"/><glyph d="M599 -51l-184 126l928 1417l184 -125zM457.5 707q-187.5 0 -284 105.5t-96.5 269.5q0 162 96.5 267t284 105t284 -105t96.5 -267q0 -164 -96.5 -269.5t-284 -105.5zM457 975q53 0 79.5 31.5t26.5 75.5q0 46 -26.5 76t-79.5 30t-80 -30t-27 -76q0 -44 27 -75.5t80 -31.5z M1485 -20q-188 0 -284.5 104.5t-96.5 268.5t96.5 269t284.5 105t283.5 -105t95.5 -269t-95.5 -268.5t-283.5 -104.5zM2316 -20q-188 0 -284.5 105.5t-96.5 267.5t96.5 268t284.5 106t284.5 -106t96.5 -268t-96.5 -267.5t-284.5 -105.5zM1485 246q53 0 79.5 31.5t26.5 75.5 q0 46 -26.5 77t-79.5 31t-80.5 -31t-27.5 -77q0 -44 27.5 -75.5t80.5 -31.5zM2316 246q53 0 80 31.5t27 75.5q0 46 -27 77t-80 31t-79.5 -31t-26.5 -77q0 -44 26.5 -75.5t79.5 -31.5z" glyph-name="perthousand" horiz-adv-x="2775" unicode="‰"/><glyph d="M877 213h-444l-331 504l331 503h444l-331 -503z" glyph-name="guilsinglleft" horiz-adv-x="979" unicode="‹"/><glyph d="M102 213l331 504l-331 503h444l331 -503l-331 -504h-444z" glyph-name="guilsinglright" horiz-adv-x="979" unicode="›"/><glyph d="M903 323q119 0 200 61t112 184h391q-15 -137 -62 -243.5t-113.5 -175.5t-154.5 -114t-179.5 -64t-193.5 -19q-288 0 -486.5 154.5t-254.5 415.5h-123v149h104q-2 15 -1 46v22h-103v147h118q49 273 250 434t496 161q128 0 239.5 -31.5t211.5 -99.5t166.5 -191t85.5 -290 h-391q-63 242 -312 242q-111 0 -198 -59.5t-128 -165.5h297v-147h-328v-22q0 -31 2 -46h326v-149h-287q44 -94 128 -146.5t188 -52.5z" glyph-name="Euro" horiz-adv-x="1645" unicode="€"/><glyph d="M1572 678q-167 0 -276.5 110.5t-109.5 273t109.5 272.5t276.5 110q166 0 276 -110t110 -272.5t-110 -273t-276 -110.5zM65 0v1434h343l276 -690h38v690h377v-1434h-345l-276 689h-38v-689h-375zM1572 945q49 0 81.5 33.5t32.5 83.5q0 48 -32.5 81t-81.5 33 q-51 0 -83.5 -33.5t-32.5 -80.5q0 -49 32.5 -83t83.5 -34zM1219 201v340h706v-340h-706z" glyph-name="afii61352" horiz-adv-x="1995" unicode="№"/><glyph d="M1123 1434h275v-644h-190v376h-22l-60 -376h-194l-60 376h-20v-376h-190v471h-181v-471h-206v471h-219v173h881l78 -444h29z" glyph-name="trademark" horiz-adv-x="1452" unicode="™"/><glyph d="M662 1471q145 0 263.5 -39t215 -123.5t150.5 -234t54 -354.5q0 -758 -669 -758q-309 0 -474.5 134t-165.5 365q0 229 158.5 345t411.5 116q227 0 336 -74q9 302 -280 302q-101 0 -170 -35.5t-84 -110.5h-343q-2 230 157.5 348.5t439.5 118.5zM680.5 282q119.5 0 187 52 t67.5 137q0 89 -66.5 137.5t-187.5 48.5t-189.5 -49.5t-68.5 -136.5q0 -85 69 -137t188.5 -52z" glyph-name="partialdiff" horiz-adv-x="1380" unicode="∂"/><glyph d="M65 1536h1107v-1792h-428v1434h-251v-1434h-428v1792z" glyph-name="product" horiz-adv-x="1237" unicode="∏"/><glyph d="M65 -256v358l544 523l-544 553v358h1090v-358h-621l524 -529v-48l-524 -499h621v-358h-1090z" glyph-name="summation" horiz-adv-x="1220" unicode="∑"/><glyph d="M85 539v357h1035v-357h-1035z" glyph-name="minus" horiz-adv-x="1204" unicode="−"/><glyph d="M498 -256l-198 720h-215v359h459l185 -673h24l254 1386h345l-348 -1792h-506z" glyph-name="radical" horiz-adv-x="1437" unicode="√"/><glyph d="M1056 1080q157 0 236.5 -101.5t79.5 -259.5q0 -162 -78.5 -264t-237.5 -102q-108 0 -181 51.5t-146 150.5q-70 -99 -144.5 -150.5t-180.5 -51.5q-160 0 -239.5 101.5t-79.5 264.5q0 159 79.5 260t239.5 101q106 0 180.5 -52t144.5 -152q73 101 146 152.5t181 51.5z M444 602q41 0 77.5 25t96.5 93q-61 65 -98 90t-76 25q-53 0 -78 -34.5t-25 -80.5q1 -118 103 -118zM1014 602q102 0 102 118q0 46 -24.5 80.5t-77.5 34.5q-39 0 -75 -25t-96 -90q58 -68 94 -93t77 -25z" glyph-name="infinity" horiz-adv-x="1457" unicode="∞"/><glyph d="M411 -256q-200 0 -309 65v312q99 -39 210 -39q77 0 125.5 38.5t48.5 123.5v843q0 222 131.5 328.5t338.5 106.5q196 0 309 -66v-311q-97 39 -210 39q-77 0 -125.5 -38t-48.5 -124v-843q0 -222 -131.5 -328.5t-338.5 -106.5z" glyph-name="integral" horiz-adv-x="1367" unicode="∫"/><glyph d="M783 736q-90 2 -219 66.5t-194 64.5q-56 0 -89.5 -27.5t-38.5 -74.5h-153q-24 174 72.5 264.5t244.5 90.5q90 0 219 -65t191 -67q121 5 131 103h156q24 -172 -74 -262t-246 -93zM783 311q-90 2 -219 66.5t-194 64.5q-56 0 -89.5 -27.5t-38.5 -74.5h-153 q-24 174 72.5 264.5t244.5 90.5q90 0 219 -65t191 -67q121 5 131 103h156q24 -172 -74 -262t-246 -93z" glyph-name="approxequal" horiz-adv-x="1189" unicode="≈"/><glyph d="M1121 1415l-131 -294h130v-358h-289l-41 -91h330v-358h-489l-105 -235h-441l106 235h-106v358h265l41 91h-306v358h465l131 294h440z" glyph-name="notequal" horiz-adv-x="1204" unicode="≠"/><glyph d="M1111 474l-1027 333v487l1027 338v-369l-696 -191v-43l696 -191v-364zM85 0v357h1035v-357h-1035z" glyph-name="lessequal" horiz-adv-x="1204" unicode="≤"/><glyph d="M143 474v364l697 191v43l-697 191v369l1028 -338v-487zM1169 0h-1034v357h1034v-357z" glyph-name="greaterequal" horiz-adv-x="1254" unicode="≥"/><glyph d="M432 0q-24 0 -34 22l-306 674q-10 20 0 41l306 674q10 22 34 23h433q27 0 34 -23l306 -674q10 -20 0 -41l-306 -674q-7 -22 -34 -22h-433zM649 304l184 413l-184 413l-185 -413z" glyph-name="lozenge" horiz-adv-x="1297" unicode="◊"/><glyph d="M1611 780q31 -387 -180 -607.5t-584 -220.5q-365 0 -586.5 211.5t-221.5 553.5q0 343 222 553.5t586 210.5q179 0 330.5 -52.5t265 -176.5t144.5 -305h-425q-31 70 -111 117t-196 47q-171 0 -281 -109t-110 -285q0 -177 106 -285.5t277 -108.5q68 0 128.5 14.5 t123.5 65.5t87 136h-360v241h785z" glyph-name="G.aalt" horiz-adv-x="1660"/><glyph d="M278 1527q-68 0 -115 44.5t-47 111t47 110t115 43.5t115 -43.5t47 -110t-47 -111t-115 -44.5zM65 0v1434h428v-1434h-428z" glyph-name="i.aalt" horiz-adv-x="556"/><glyph d="M1611 780q31 -387 -180 -607.5t-584 -220.5q-365 0 -586.5 211.5t-221.5 553.5q0 343 222 553.5t586 210.5q179 0 330.5 -52.5t265 -176.5t144.5 -305h-425q-31 70 -111 117t-196 47q-171 0 -281 -109t-110 -285q0 -177 106 -285.5t277 -108.5q68 0 128.5 14.5 t123.5 65.5t87 136h-360v241h785z" glyph-name="g.aalt" horiz-adv-x="1660"/></font>
</defs>
</svg>
