<?xml version="1.0" standalone="no"?>
<!DOCTYPE svg PUBLIC "-//W3C//DTD SVG 1.1//EN" "http://www.w3.org/Graphics/SVG/1.1/DTD/svg11.dtd">
<svg xmlns="http://www.w3.org/2000/svg"><metadata>This SVG WebFont was generated by YouWorkForThem.
Â© 2017 Connary Fagen</metadata><defs><font horiz-adv-x="1696" id="ywftsvg"><font-face ascent="1638" bbox="-876 -806 2744 1893" cap-height="1434" descent="-410" font-family="" font-stretch="normal" font-weight="700" panose-1="0 0 8 0 0 0 0 0 0 0" underline-position="0" underline-thickness="0" unicode-range="U+0020-25CA" units-per-em="2048" x-height="1434"/><missing-glyph d="M736 1536v-1792h-569v1792h569zM597 1417h-297v-60h118v-67h-119v-58h298v58h-119v67h119v60zM478 1184h-179v-186h298v62h-119v124zM418 1125v-65h-60v65h60zM597 951h-298v-60h119v-67h-119v-58h179v125h119v60zM597 843h-59v-119h-239v-60h298v179zM597 625h-179v-101 h60v41h60v-84h-180v144h-59v-203h298v203zM597 314h-298v-203h298v203zM538 254v-83h-180v83h180zM597 70h-298v-60h126l-126 -83v-60h298v60h-182l124 83h58v60z" horiz-adv-x="896"/><glyph d="M736 1536v-1792h-569v1792h569zM597 1417h-297v-60h118v-67h-119v-58h298v58h-119v67h119v60zM478 1184h-179v-186h298v62h-119v124zM418 1125v-65h-60v65h60zM597 951h-298v-60h119v-67h-119v-58h179v125h119v60zM597 843h-59v-119h-239v-60h298v179zM597 625h-179v-101 h60v41h60v-84h-180v144h-59v-203h298v203zM597 314h-298v-203h298v203zM538 254v-83h-180v83h180zM597 70h-298v-60h126l-126 -83v-60h298v60h-182l124 83h58v60z" glyph-name=".notdef" horiz-adv-x="896"/><glyph glyph-name="glyph1" horiz-adv-x="0"/><glyph glyph-name="glyph2" horiz-adv-x="682"/><glyph glyph-name="space" horiz-adv-x="443" unicode=" "/><glyph d="M73 543l212 891h488l-406 -891h-294zM96 -27q-89 0 -143.5 55.5t-54.5 142.5q0 113 80 189.5t189 76.5q89 0 143.5 -55.5t54.5 -142.5q0 -113 -80 -189.5t-189 -76.5z" glyph-name="exclam" horiz-adv-x="593" unicode="!"/><glyph d="M142 795l175 639h410l-241 -639h-344zM628 795l176 639h409l-240 -639h-345z" glyph-name="quotedbl" horiz-adv-x="1066" unicode="&quot;"/><glyph d="M1415 816h-179l-57 -174h178l-113 -354h-179l-94 -288h-398l94 288h-177l-94 -288h-398l94 288h-179l113 354h181l56 174h-179l105 329h180l94 289h397l-94 -289h178l94 289h397l-94 -289h180zM782 642l56 174h-178l-56 -174h178z" glyph-name="numbersign" horiz-adv-x="1433" unicode="#"/><glyph d="M1336 913h-406q17 61 -1 92t-72 41l-67 -201q53 -7 86.5 -12t88 -18t90.5 -26.5t78.5 -37.5t67 -53t42 -71t17.5 -93q0 -133 -98.5 -235.5t-259.5 -159.5t-361 -67l-34 -103h-147l33 103q-261 12 -375 120t-42 323h417q-38 -108 104 -126l64 200q-72 12 -115 22t-113 35 t-110 54.5t-72 83.5t-32 121q0 189 201 316t492 139l36 113h147l-38 -114q522 -33 379 -446zM563 945q0 -48 89 -76l58 181q-63 -10 -105 -38t-42 -67zM804 481q0 48 -106 77l-55 -169q161 15 161 92z" glyph-name="dollar" horiz-adv-x="1361" unicode="$"/><glyph d="M406 -49l-172 133l1374 1408l169 -133zM514 691q-147 0 -233 76t-86 214q0 184 142.5 328.5t341.5 144.5q143 0 231 -77t88 -216q0 -189 -139.5 -329.5t-344.5 -140.5zM568 963q55 0 97 40.5t42 95.5q0 84 -84 84q-53 0 -95 -42t-42 -95q0 -83 82 -83zM1335 -20 q-147 0 -233.5 75.5t-86.5 214.5q0 184 142.5 328t342.5 144q143 0 231 -76.5t88 -216.5q0 -189 -139.5 -329t-344.5 -140zM1389 251q55 0 96.5 41t41.5 95q0 84 -83 84q-55 0 -96 -41t-41 -95q0 -84 82 -84z" glyph-name="percent" horiz-adv-x="2015" unicode="%"/><glyph d="M1713 761q-85 -261 -240 -437l119 -109l-283 -273l-147 140q-256 -128 -585 -128q-304 0 -467 105t-163 299q0 172 127 301t330 193q-43 97 -42 187q0 198 196 315t504 117q295 0 442.5 -142.5t58.5 -405.5h-396q34 102 -18.5 151t-158.5 49q-92 0 -152.5 -32.5 t-60.5 -83.5q0 -34 28 -66.5t117 -112.5q10 -9 15 -14l263 -241q87 101 116 188h397zM664 319q106 0 210 36l-297 282q-147 -60 -147 -171q0 -147 234 -147z" glyph-name="ampersand" horiz-adv-x="1798" unicode="&amp;"/><glyph d="M142 795l175 639h410l-241 -639h-344z" glyph-name="quotesingle" horiz-adv-x="580" unicode="'"/><glyph d="M630 -247q-631 0 -632 622q0 201 50.5 391t154.5 355.5t251 289t352.5 195.5t446.5 72l-116 -388q-133 0 -251 -54.5t-200 -142.5t-141.5 -200.5t-88.5 -228.5t-29 -225q0 -164 74 -231.5t248 -67.5z" glyph-name="parenleft" horiz-adv-x="1006" unicode="("/><glyph d="M377 1678q631 0 632 -623q0 -201 -50.5 -391t-154.5 -355.5t-251 -289t-352.5 -195t-446.5 -71.5l116 387q133 0 251 54.5t200 142.5t141.5 200.5t88.5 228.5t29 226q0 164 -74 231t-248 67z" glyph-name="parenright" horiz-adv-x="1010" unicode=")"/><glyph d="M1154 1079l-282 -120l213 -116l-204 -237l-185 162l-70 -280h-273l106 265l-258 -147l-68 237l282 120l-214 116l205 237l185 -162l69 280h274l-106 -265l257 147z" glyph-name="asterisk" horiz-adv-x="1131" unicode="*"/><glyph d="M1287 908l-123 -381h-367l-118 -361h-414l117 361h-358l123 381h360l119 363h415l-119 -363h365z" glyph-name="plus" horiz-adv-x="1310" unicode="+"/><glyph d="M541 399l-2 -5v2zM-147 0l127 394h559q-191 -567 -391 -804h-254q101 224 150 410h-191z" glyph-name="comma" horiz-adv-x="728" unicode=","/><glyph d="M0 512l131 394h990l-131 -394h-990z" glyph-name="hyphen" horiz-adv-x="1126" unicode="-"/><glyph d="M96 -27q-89 0 -143.5 55.5t-54.5 142.5q0 113 80 189.5t189 76.5q89 0 143.5 -55.5t54.5 -142.5q0 -113 -80 -189.5t-189 -76.5z" glyph-name="period" horiz-adv-x="585" unicode="."/><glyph d="M-215 0l1123 1434h556l-1123 -1434h-556z" glyph-name="slash" horiz-adv-x="1249" unicode="/"/><glyph d="M563 -38q-364 0 -498.5 210t-8.5 594q113 346 347 525.5t570 179.5q364 0 497.5 -210t9.5 -594q-111 -346 -346 -525.5t-571 -179.5zM638 343q147 0 255.5 107.5t168.5 308.5q48 162 6 247t-170 85q-147 0 -254.5 -107t-169.5 -310q-49 -162 -6.5 -246.5t170.5 -84.5z " glyph-name="zero" horiz-adv-x="1527" unicode="0"/><glyph d="M1169 1434l-350 -1076h302l-116 -358h-1169l116 358h394l197 606q-140 -82 -393 -70l126 386q203 0 420 154h473z" glyph-name="one" horiz-adv-x="1297" unicode="1"/><glyph d="M1454 1118q0 -128 -71 -232t-191 -178.5t-240.5 -129t-260.5 -115t-210 -105.5h748l-116 -358h-1302l68 215q31 96 108.5 178.5t178 142.5t214 113.5t221 96t195.5 83.5t142 86.5t54 91.5q0 92 -149 92q-212 0 -266 -152h-439q55 247 257 385.5t511 138.5 q266 0 407 -90.5t141 -262.5z" glyph-name="two" horiz-adv-x="1397" unicode="2"/><glyph d="M497 -38q-328 0 -475 127.5t-56 390.5h406q-14 -84 44 -114.5t164 -30.5q131 0 213.5 39t82.5 107q0 113 -226 113h-87l84 266h80q131 0 212.5 36t81.5 106q0 97 -183 97q-119 0 -187.5 -36.5t-99.5 -113.5h-401q29 140 101 243t175 163t224 88t263 28q259 0 403.5 -88.5 t144.5 -239.5q0 -130 -87 -233t-246 -156l-8 -27q84 -31 140 -102.5t56 -170.5q0 -125 -70 -221t-188 -154.5t-261 -87.5t-300 -29z" glyph-name="three" horiz-adv-x="1464" unicode="3"/><glyph d="M1533 1434l-272 -833h217l-114 -359h-217l-79 -242h-486l84 242h-763l117 359l949 833h564zM466 601h322l139 401z" glyph-name="four" horiz-adv-x="1568" unicode="4"/><glyph d="M474 -38q-312 0 -449.5 137t-55.5 377h406q-5 -80 46.5 -112.5t138.5 -32.5q145 0 226 63t81 147q0 135 -189 135q-172 0 -274 -96h-402l283 854h1154l-116 -357h-753l-67 -188q3 2 42.5 15.5t60 18.5t62.5 14.5t88 14t99 4.5q198 0 319 -95t121 -272 q0 -278 -223.5 -452.5t-597.5 -174.5z" glyph-name="five" horiz-adv-x="1409" unicode="5"/><glyph d="M1471 988h-374q14 67 -35.5 102.5t-134.5 35.5q-299 0 -398 -293q137 75 360 75q471 0 471 -350q0 -184 -105 -321.5t-280 -206t-395 -68.5q-276 0 -412.5 140t-136.5 372q0 152 38.5 295.5t118.5 271.5t194.5 223.5t275.5 151t352 55.5q273 0 409 -136.5t52 -346.5z M925 514q0 58 -48.5 87.5t-128.5 29.5q-128 0 -205 -63t-77 -150q0 -53 45 -85.5t132 -32.5q121 0 201.5 62.5t80.5 151.5z" glyph-name="six" horiz-adv-x="1493" unicode="6"/><glyph d="M278 1434h1246l-123 -371l-1022 -1063h-507l1038 1063h-755z" glyph-name="seven" horiz-adv-x="1322" unicode="7"/><glyph d="M543 -38q-309 0 -455 106t-146 275q0 147 97.5 262t279.5 178l10 23q-89 79 -88 211q0 201 181.5 327.5t485.5 126.5q256 0 384 -87t128 -235q0 -118 -71.5 -203.5t-184.5 -136.5l-9 -22q79 -51 126 -133t47 -183q0 -241 -222.5 -375t-562.5 -134zM783 908 q90 0 149.5 37.5t59.5 102.5q0 106 -144 106q-89 0 -147 -40.5t-58 -101.5q0 -104 140 -104zM591 311q130 0 207.5 52.5t77.5 133.5q0 70 -56.5 100.5t-135.5 30.5q-131 0 -207 -53.5t-76 -135.5q1 -128 190 -128z" glyph-name="eight" horiz-adv-x="1464" unicode="8"/><glyph d="M913 1471q276 0 413 -140t137 -372q0 -152 -38.5 -295t-119 -271t-194.5 -224t-275.5 -151.5t-352.5 -55.5q-273 0 -408.5 137t-52.5 346h374q-14 -67 35.5 -102.5t135.5 -35.5q299 0 397 294q-137 -75 -360 -75q-471 0 -471 350q0 184 105 321.5t280 205.5t395 68z M568 920q0 -58 49 -88t129 -30q128 0 204.5 63t76.5 150q0 53 -45 85.5t-132 32.5q-121 0 -201.5 -62t-80.5 -151z" glyph-name="nine" horiz-adv-x="1493" unicode="9"/><glyph d="M377 840q-89 0 -143.5 55.5t-54.5 142.5q0 113 80.5 189.5t189.5 76.5q89 0 143.5 -55.5t54.5 -142.5q0 -113 -80.5 -189.5t-189.5 -76.5zM142 113q-89 0 -143.5 55.5t-54.5 142.5q0 113 80 189.5t189 76.5q89 0 143.5 -55.5t54.5 -142.5q0 -113 -80 -189.5t-189 -76.5z " glyph-name="colon" horiz-adv-x="587" unicode=":"/><glyph d="M449 1304q89 0 143.5 -55.5t54.5 -142.5q0 -113 -80.5 -189.5t-189.5 -76.5q-89 0 -143.5 55.5t-54.5 142.5q0 113 80.5 189.5t189.5 76.5zM567 548v2l1 3zM-119 154l126 394h560q-191 -567 -391 -804h-255q101 224 151 410h-191z" glyph-name="semicolon" horiz-adv-x="674" unicode=";"/><glyph d="M934 116l-924 347l156 501l1153 354l-126 -400l-722 -177l-14 -45l603 -177z" glyph-name="less" horiz-adv-x="1215" unicode="&lt;"/><glyph d="M99 763l130 394h1071l-129 -394h-1072zM-58 278l130 394h1071l-129 -394h-1072z" glyph-name="equal" horiz-adv-x="1242" unicode="="/><glyph d="M280 1318l923 -347l-155 -502l-1154 -353l126 399l722 178l14 44l-602 178z" glyph-name="greater" horiz-adv-x="1213" unicode=">"/><glyph d="M418 526q20 109 90.5 185.5t153 113.5t163 63.5t134 55.5t53.5 71q0 36 -51 60t-137 24q-227 0 -305 -186h-425q39 200 159.5 328t282.5 179t374 51q270 0 435 -93t165 -270q0 -94 -43.5 -170t-108 -122t-143 -87t-147 -67.5t-119.5 -62.5t-62 -73h-469zM538 -27 q-89 0 -143.5 55.5t-54.5 142.5q0 113 80 189.5t189 76.5q89 0 143.5 -55.5t54.5 -142.5q0 -113 -80 -189.5t-189 -76.5z" glyph-name="question" horiz-adv-x="1426" unicode="?"/><glyph d="M1463 340q-138 -183 -344 -285.5t-459 -102.5q-299 0 -471 154.5t-172 420.5q0 184 79.5 357.5t214 305t326.5 211.5t406 80q295 0 471 -151t176 -395q0 -183 -100 -315t-283 -132q-99 0 -129.5 40t1.5 144l173 424h-145l-57 -75h-20q-61 99 -215 99q-215 0 -369.5 -171 t-154.5 -372q0 -133 73.5 -205t199.5 -72q97 0 181.5 37t137.5 98h21q15 -61 75.5 -98t157.5 -37q125 0 210 52zM876 935q126 0 129 -136q0 -111 -82.5 -212.5t-192.5 -101.5q-126 0 -129 138q0 113 83.5 212.5t191.5 99.5z" glyph-name="at" horiz-adv-x="1682" unicode="@"/><glyph d="M1012 0l-3 189h-605l-124 -189h-504l975 1434h666l64 -1434h-469zM635 539h370l-7 451h-68z" glyph-name="A" unicode="A"/><glyph d="M1562 1133q0 -114 -72.5 -210.5t-216.5 -145.5l-12 -28q53 -29 86.5 -55.5t62.5 -86t29 -141.5q0 -162 -101.5 -269t-264.5 -152t-385 -45h-860l462 1434h816q456 -1 456 -301zM910 857q85 0 135.5 38.5t50.5 89.5q0 85 -121 85h-326l-70 -213h331zM794 364 q85 0 139.5 38t54.5 103q0 36 -27 65t-99 29h-367l-77 -235h376z" glyph-name="B" horiz-adv-x="1570" unicode="B"/><glyph d="M681 -48q-312 0 -485.5 159t-173.5 439q0 183 77.5 352.5t211 297.5t327 204.5t413.5 76.5q329 0 510.5 -185t116.5 -449h-454q-3 109 -76 167.5t-187 58.5q-201 0 -334.5 -139t-133.5 -318q0 -123 78 -189.5t200 -66.5q247 0 379 220h456q-49 -145 -133.5 -258.5 t-178 -181.5t-205 -111.5t-209.5 -60t-199 -16.5z" glyph-name="C" horiz-adv-x="1686" unicode="C"/><glyph d="M-169 0l461 1434h662q333 0 493.5 -142.5t160.5 -398.5q0 -276 -136 -481t-364.5 -308.5t-516.5 -103.5h-760zM430 396h244q193 0 324.5 123.5t131.5 306.5q0 114 -75 163t-229 49h-188z" glyph-name="D" horiz-adv-x="1633" unicode="D"/><glyph d="M1466 1056h-824l-60 -184h819l-99 -302h-817l-63 -193h822l-123 -377h-1293l462 1434h1299z" glyph-name="E" horiz-adv-x="1413" unicode="E"/><glyph d="M1451 1039h-816l-65 -201h773l-121 -374h-775l-150 -464h-469l462 1434h1289z" glyph-name="F" horiz-adv-x="1406" unicode="F"/><glyph d="M961 1073q-201 0 -334.5 -139t-133.5 -318q0 -123 78 -189.5t200 -66.5q39 0 78.5 6t95 24t106 60.5t82.5 104.5h-345l79 239h809l-256 -794h-242l47 174q-96 -102 -240.5 -162t-318.5 -60q-304 0 -474 153.5t-170 433.5q0 186 77.5 357.5t211 301.5t327 206.5 t413.5 76.5q305 0 486.5 -162t153.5 -394h-474q-27 68 -95.5 108t-160.5 40z" glyph-name="G" horiz-adv-x="1701" unicode="G"/><glyph d="M1314 1434h473l-461 -1434h-473l162 502h-549l-162 -502h-473l461 1434h473l-174 -540h549z" glyph-name="H" horiz-adv-x="1617" unicode="H"/><glyph d="M-172 0l462 1434h473l-463 -1434h-472z" glyph-name="I" horiz-adv-x="590" unicode="I"/><glyph d="M497 -48q-693 0 -497 632h469q-72 -230 122 -231q184 0 259 227l275 854h472l-273 -850q-58 -183 -139.5 -307.5t-188.5 -194.5t-227 -100t-272 -30z" glyph-name="J" horiz-adv-x="1425" unicode="J"/><glyph d="M1809 1434l-771 -651l460 -783h-471l-322 548h-39l-255 -200l-112 -348h-471l467 1434h471l-162 -497h58l606 497h541z" glyph-name="K" horiz-adv-x="1679" unicode="K"/><glyph d="M-172 0l466 1434h472l-339 -1040h792l-127 -394h-1264z" glyph-name="L" horiz-adv-x="1382" unicode="L"/><glyph d="M-169 0l461 1434h573l-32 -808h41l486 806h623l-459 -1432h-454l205 633h-44l-369 -633h-350l19 633h-45l-204 -633h-451z" glyph-name="M" horiz-adv-x="1815" unicode="M"/><glyph d="M-172 0l467 1434h524l234 -789h50l259 789h461l-466 -1434h-512l-249 778h-50l-258 -778h-460z" glyph-name="N" horiz-adv-x="1650" unicode="N"/><glyph d="M681 -48q-312 0 -486.5 157t-174.5 434q0 246 131.5 461t366.5 346t518 131q312 0 486 -157t174 -433q0 -246 -131 -461t-366 -346.5t-518 -131.5zM758 360q200 0 332 142.5t135 313.5q0 125 -76 191t-190 66q-200 0 -332 -142.5t-135 -312.5q0 -125 76 -191.5t190 -66.5 z" glyph-name="O" horiz-adv-x="1716" unicode="O"/><glyph d="M1021 1434q271 0 408.5 -103.5t137.5 -330.5q0 -328 -217 -515.5t-550 -187.5h-402l-98 -297h-472l467 1434h726zM819 686q114 0 188.5 62.5t74.5 164.5q0 128 -162 128h-278l-118 -357z" glyph-name="P" horiz-adv-x="1559" unicode="P"/><glyph d="M1696 891q0 -184 -77.5 -355.5t-215.5 -303.5l113 -164q-154 -142 -349 -268l-155 203q-162 -51 -331 -51q-312 0 -486.5 157t-174.5 434q0 246 131.5 461t366.5 346t518 131q312 0 486 -157t174 -433zM492 618q0 -125 75.5 -191.5t190.5 -66.5q200 0 332 142.5 t135 313.5q0 125 -76 191t-190 66q-200 0 -332 -142t-135 -313z" glyph-name="Q" horiz-adv-x="1730" unicode="Q"/><glyph d="M1579 1015q0 -184 -96.5 -327.5t-253.5 -226.5l106 -461h-454l-81 369h-378l-118 -369h-473l461 1434h747q540 -1 540 -419zM638 1041l-104 -326l328 2q87 0 161 53t74 145q0 70 -40 98t-125 28h-294z" glyph-name="R" horiz-adv-x="1575" unicode="R"/><glyph d="M556 -48q-140 0 -248 17t-194.5 54.5t-130 98.5t-53.5 148.5t34 203.5h401q-17 -82 56.5 -121t201.5 -39q137 0 226.5 34t89.5 104q0 87 -166 111l-114 19q-49 7 -75 11t-87.5 18t-99 29t-89.5 44t-82 63.5t-52 86.5t-22 113q0 251 216 392.5t567 141.5q222 0 375 -60.5 t207.5 -175.5t-19.5 -282h-387q12 63 -47 110t-195 47q-121 0 -194 -38t-73 -101q0 -77 137 -100l84 -16q24 -5 83.5 -15t95.5 -17t94 -22.5t95.5 -30.5t81 -43.5t69 -61t42.5 -78.5t17 -102q0 -148 -67.5 -256t-187.5 -169t-266.5 -89.5t-323.5 -28.5z" glyph-name="S" horiz-adv-x="1525" unicode="S"/><glyph d="M1778 1434l-128 -395h-505l-339 -1039h-473l339 1039h-517l127 395h1496z" glyph-name="T" horiz-adv-x="1597" unicode="T"/><glyph d="M623 -48q-396 0 -547 177.5t-40 515.5l259 789h480l-273 -825q-43 -126 3 -195t184 -69q142 0 228.5 75t138.5 237l253 777h480l-272 -833q-114 -352 -323 -500.5t-571 -148.5z" glyph-name="U" horiz-adv-x="1616" unicode="U"/><glyph d="M305 0l-64 1434h464l15 -990h55l640 990h515l-974 -1434h-651z" glyph-name="V" horiz-adv-x="1706" unicode="V"/><glyph d="M72 0l186 1434h472l-146 -929h42l500 929h374l-90 -929h42l449 929h490l-741 -1434h-636l89 689h-41l-354 -689h-636z" glyph-name="W" horiz-adv-x="2193" unicode="W"/><glyph d="M-225 0l711 712l17 41l-262 681h474l150 -419h45l372 419h522l-688 -692l-17 -41l271 -701h-496l-140 403h-45l-384 -403h-530z" glyph-name="X" horiz-adv-x="1611" unicode="X"/><glyph d="M1852 1434l-900 -994l-141 -440h-473l148 466l-254 968h476l127 -528h37l459 528h521z" glyph-name="Y" horiz-adv-x="1636" unicode="Y"/><glyph d="M-186 0l125 387l923 618l15 38h-713l130 391h1344l-126 -388l-923 -618l-16 -37h714l-130 -391h-1343z" glyph-name="Z" horiz-adv-x="1448" unicode="Z"/><glyph d="M-247 -230l614 1894h833l-128 -394h-360l-359 -1106h360l-128 -394h-832z" glyph-name="bracketleft" horiz-adv-x="952" unicode="["/><glyph d="M894 0l-662 1434h539l663 -1434h-540z" glyph-name="backslash" horiz-adv-x="1665" unicode="\"/><glyph d="M1200 1664l-615 -1894h-832l128 394h360l358 1106h-360l128 394h833z" glyph-name="bracketright" horiz-adv-x="952" unicode="]"/><glyph d="M-2 454l635 1038h536l14 -1038h-381l41 686h-51l-403 -686h-391z" glyph-name="asciicircum" horiz-adv-x="1355" unicode="^"/><glyph d="M-276 -394l129 394h1058l-129 -394h-1058z" glyph-name="underscore" horiz-adv-x="1228" unicode="_"/><glyph d="M845 1161h-430l-176 298h430z" glyph-name="grave" horiz-adv-x="701" unicode="`"/><glyph d="M1012 0l-3 189h-605l-124 -189h-504l975 1434h666l64 -1434h-469zM635 539h370l-7 451h-68z" glyph-name="a" unicode="a"/><glyph d="M1562 1133q0 -114 -72.5 -210.5t-216.5 -145.5l-12 -28q53 -29 86.5 -55.5t62.5 -86t29 -141.5q0 -162 -101.5 -269t-264.5 -152t-385 -45h-860l462 1434h816q456 -1 456 -301zM910 857q85 0 135.5 38.5t50.5 89.5q0 85 -121 85h-326l-70 -213h331zM794 364 q85 0 139.5 38t54.5 103q0 36 -27 65t-99 29h-367l-77 -235h376z" glyph-name="b" horiz-adv-x="1570" unicode="b"/><glyph d="M681 -48q-312 0 -485.5 159t-173.5 439q0 183 77.5 352.5t211 297.5t327 204.5t413.5 76.5q329 0 510.5 -185t116.5 -449h-454q-3 109 -76 167.5t-187 58.5q-201 0 -334.5 -139t-133.5 -318q0 -123 78 -189.5t200 -66.5q247 0 379 220h456q-49 -145 -133.5 -258.5 t-178 -181.5t-205 -111.5t-209.5 -60t-199 -16.5z" glyph-name="c" horiz-adv-x="1686" unicode="c"/><glyph d="M-169 0l461 1434h662q333 0 493.5 -142.5t160.5 -398.5q0 -276 -136 -481t-364.5 -308.5t-516.5 -103.5h-760zM430 396h244q193 0 324.5 123.5t131.5 306.5q0 114 -75 163t-229 49h-188z" glyph-name="d" horiz-adv-x="1633" unicode="d"/><glyph d="M1466 1056h-824l-60 -184h819l-99 -302h-817l-63 -193h822l-123 -377h-1293l462 1434h1299z" glyph-name="e" horiz-adv-x="1413" unicode="e"/><glyph d="M1451 1039h-816l-65 -201h773l-121 -374h-775l-150 -464h-469l462 1434h1289z" glyph-name="f" horiz-adv-x="1406" unicode="f"/><glyph d="M961 1073q-201 0 -334.5 -139t-133.5 -318q0 -123 78 -189.5t200 -66.5q39 0 78.5 6t95 24t106 60.5t82.5 104.5h-345l79 239h809l-256 -794h-242l47 174q-96 -102 -240.5 -162t-318.5 -60q-304 0 -474 153.5t-170 433.5q0 186 77.5 357.5t211 301.5t327 206.5 t413.5 76.5q305 0 486.5 -162t153.5 -394h-474q-27 68 -95.5 108t-160.5 40z" glyph-name="g" horiz-adv-x="1701" unicode="g"/><glyph d="M1314 1434h473l-461 -1434h-473l162 502h-549l-162 -502h-473l461 1434h473l-174 -540h549z" glyph-name="h" horiz-adv-x="1617" unicode="h"/><glyph d="M-172 0l462 1434h473l-463 -1434h-472z" glyph-name="i" horiz-adv-x="590" unicode="i"/><glyph d="M497 -48q-693 0 -497 632h469q-72 -230 122 -231q184 0 259 227l275 854h472l-273 -850q-58 -183 -139.5 -307.5t-188.5 -194.5t-227 -100t-272 -30z" glyph-name="j" horiz-adv-x="1425" unicode="j"/><glyph d="M1809 1434l-771 -651l460 -783h-471l-322 548h-39l-255 -200l-112 -348h-471l467 1434h471l-162 -497h58l606 497h541z" glyph-name="k" horiz-adv-x="1679" unicode="k"/><glyph d="M-172 0l466 1434h472l-339 -1040h792l-127 -394h-1264z" glyph-name="l" horiz-adv-x="1382" unicode="l"/><glyph d="M-169 0l461 1434h573l-32 -808h41l486 806h623l-459 -1432h-454l205 633h-44l-369 -633h-350l19 633h-45l-204 -633h-451z" glyph-name="m" horiz-adv-x="1815" unicode="m"/><glyph d="M-172 0l467 1434h524l234 -789h50l259 789h461l-466 -1434h-512l-249 778h-50l-258 -778h-460z" glyph-name="n" horiz-adv-x="1650" unicode="n"/><glyph d="M681 -48q-312 0 -486.5 157t-174.5 434q0 246 131.5 461t366.5 346t518 131q312 0 486 -157t174 -433q0 -246 -131 -461t-366 -346.5t-518 -131.5zM758 360q200 0 332 142.5t135 313.5q0 125 -76 191t-190 66q-200 0 -332 -142.5t-135 -312.5q0 -125 76 -191.5t190 -66.5 z" glyph-name="o" horiz-adv-x="1716" unicode="o"/><glyph d="M1021 1434q271 0 408.5 -103.5t137.5 -330.5q0 -328 -217 -515.5t-550 -187.5h-402l-98 -297h-472l467 1434h726zM819 686q114 0 188.5 62.5t74.5 164.5q0 128 -162 128h-278l-118 -357z" glyph-name="p" horiz-adv-x="1559" unicode="p"/><glyph d="M1696 891q0 -184 -77.5 -355.5t-215.5 -303.5l113 -164q-154 -142 -349 -268l-155 203q-162 -51 -331 -51q-312 0 -486.5 157t-174.5 434q0 246 131.5 461t366.5 346t518 131q312 0 486 -157t174 -433zM492 618q0 -125 75.5 -191.5t190.5 -66.5q200 0 332 142.5 t135 313.5q0 125 -76 191t-190 66q-200 0 -332 -142t-135 -313z" glyph-name="q" horiz-adv-x="1730" unicode="q"/><glyph d="M1579 1015q0 -184 -96.5 -327.5t-253.5 -226.5l106 -461h-454l-81 369h-378l-118 -369h-473l461 1434h747q540 -1 540 -419zM638 1041l-104 -326l328 2q87 0 161 53t74 145q0 70 -40 98t-125 28h-294z" glyph-name="r" horiz-adv-x="1575" unicode="r"/><glyph d="M556 -48q-140 0 -248 17t-194.5 54.5t-130 98.5t-53.5 148.5t34 203.5h401q-17 -82 56.5 -121t201.5 -39q137 0 226.5 34t89.5 104q0 87 -166 111l-114 19q-49 7 -75 11t-87.5 18t-99 29t-89.5 44t-82 63.5t-52 86.5t-22 113q0 251 216 392.5t567 141.5q222 0 375 -60.5 t207.5 -175.5t-19.5 -282h-387q12 63 -47 110t-195 47q-121 0 -194 -38t-73 -101q0 -77 137 -100l84 -16q24 -5 83.5 -15t95.5 -17t94 -22.5t95.5 -30.5t81 -43.5t69 -61t42.5 -78.5t17 -102q0 -148 -67.5 -256t-187.5 -169t-266.5 -89.5t-323.5 -28.5z" glyph-name="s" horiz-adv-x="1525" unicode="s"/><glyph d="M1778 1434l-128 -395h-505l-339 -1039h-473l339 1039h-517l127 395h1496z" glyph-name="t" horiz-adv-x="1597" unicode="t"/><glyph d="M623 -48q-396 0 -547 177.5t-40 515.5l259 789h480l-273 -825q-43 -126 3 -195t184 -69q142 0 228.5 75t138.5 237l253 777h480l-272 -833q-114 -352 -323 -500.5t-571 -148.5z" glyph-name="u" horiz-adv-x="1616" unicode="u"/><glyph d="M305 0l-64 1434h464l15 -990h55l640 990h515l-974 -1434h-651z" glyph-name="v" horiz-adv-x="1706" unicode="v"/><glyph d="M72 0l186 1434h472l-146 -929h42l500 929h374l-90 -929h42l449 929h490l-741 -1434h-636l89 689h-41l-354 -689h-636z" glyph-name="w" horiz-adv-x="2193" unicode="w"/><glyph d="M-225 0l711 712l17 41l-262 681h474l150 -419h45l372 419h522l-688 -692l-17 -41l271 -701h-496l-140 403h-45l-384 -403h-530z" glyph-name="x" horiz-adv-x="1611" unicode="x"/><glyph d="M1852 1434l-900 -994l-141 -440h-473l148 466l-254 968h476l127 -528h37l459 528h521z" glyph-name="y" horiz-adv-x="1636" unicode="y"/><glyph d="M-186 0l125 387l923 618l15 38h-713l130 391h1344l-126 -388l-923 -618l-16 -37h714l-130 -391h-1343z" glyph-name="z" horiz-adv-x="1448" unicode="z"/><glyph d="M251 -230q-41 0 -79.5 11t-76 41.5t-43.5 84.5t18 139l138 410l-126 244l3 41l280 237l156 457q20 65 51.5 111t59.5 68.5t69 34.5t65 13.5t62 1.5h611l-128 -394h-282q-32 0 -69.5 -25.5t-48.5 -56.5l-61 -213l-285 -250l-7 -41l111 -225l-78 -261q-3 -10 -4.5 -17 t-1.5 -11t6 -5t8.5 -2t14.5 0t19 1h319l-128 -394h-573z" glyph-name="braceleft" horiz-adv-x="1208" unicode="{"/><glyph d="M-229 -171l577 1775h473l-577 -1775h-473z" glyph-name="bar" horiz-adv-x="592" unicode="|"/><glyph d="M956 1664q41 0 79 -11t76 -42t44 -84.5t-18 -138.5l-139 -410l127 -244l-4 -41l-280 -237l-155 -458q-20 -65 -52 -111t-60 -68t-69 -34t-65 -13.5t-61 -1.5h-611l128 394h281q32 0 70 25.5t48 56.5l62 213l285 249l7 41l-111 226l78 261q3 10 4 17t1 11t-6 5t-8.5 1.5 t-14.5 0t-19 -0.5h-319l128 394h574z" glyph-name="braceright" horiz-adv-x="1206" unicode="}"/><glyph d="M737 527q-90 2 -202 63.5t-177 61.5q-119 0 -163 -102h-161q36 183 170 278t291 95q89 0 200 -61.5t175 -62.5q123 5 168 102h160q-36 -181 -171 -276t-290 -98z" glyph-name="asciitilde" horiz-adv-x="1225" unicode="~"/><glyph d="M379 1092q89 0 143.5 -55.5t54.5 -142.5q0 -113 -80.5 -189.5t-189.5 -76.5q-89 0 -143.5 55.5t-54.5 142.5q0 113 80.5 189.5t189.5 76.5zM401 522l-212 -891h-488l407 891h293z" glyph-name="exclamdown" horiz-adv-x="593" unicode="¡"/><glyph d="M1118 835q-2 87 -56 141l-451 -570q46 -14 96 -13q225 0 344 199h413q-44 -131 -121 -234.5t-161.5 -165t-186 -101.5t-191 -54.5t-179.5 -14.5q-160 0 -279 46l-54 -68h-154l98 125q-210 142 -210 440q0 166 70 320t192 270t297.5 186t375.5 70q138 0 258 -41l49 64h154 l-91 -116q128 -79 182 -206t18 -277h-413zM454 625q0 -96 55 -156l443 564q-38 9 -73 8q-184 0 -304.5 -127t-120.5 -289z" glyph-name="cent" horiz-adv-x="1541" unicode="¢"/><glyph d="M1398 905h-442q36 94 -8.5 136.5t-131.5 42.5q-113 0 -175 -52t-62 -138q0 -32 13.5 -80.5t16.5 -72.5h521l-65 -197h-483q-53 -108 -164 -172v-14h811l-116 -358h-1311l116 358q82 24 155.5 73.5t103.5 112.5h-191l65 197h120q-36 118 -36 208q0 157 101.5 277.5 t272 182.5t378.5 62q205 0 344 -62t192.5 -188.5t-25.5 -315.5z" glyph-name="sterling" horiz-adv-x="1375" unicode="£"/><glyph d="M1239 975q0 -79 -27 -158l95 -97l-210 -208l-73 73q-113 -70 -244 -70q-133 0 -242 67l-72 -70l-210 208l90 91q-29 79 -29 164q0 92 35 174l-96 97l210 208l82 -82q108 61 232 62q128 0 234 -64l83 84l210 -208l-99 -103q31 -86 31 -168zM780 792q60 0 101.5 23t58 58 t22.5 59t6 42.5t-6 43.5t-22.5 60t-58 59t-101.5 24q-61 0 -103 -23.5t-59 -60t-22 -60.5t-5 -42q0 -20 5 -43.5t22 -58.5t59 -58t103 -23z" glyph-name="currency" horiz-adv-x="1390" unicode="¤"/><glyph d="M1852 1434l-746 -825h351l-63 -186h-447l-22 -68h451l-64 -188h-447l-54 -167h-473l53 167h-447l63 188h444l22 68h-447l63 186h360l-217 825h476l127 -528h37l459 528h521z" glyph-name="yen" horiz-adv-x="1636" unicode="¥"/><glyph d="M80 780l268 824h473l-268 -824h-473zM-229 -171l268 825h473l-268 -825h-473z" glyph-name="brokenbar" horiz-adv-x="592" unicode="¦"/><glyph d="M1597 1166h-421q14 77 -40 117.5t-185 40.5q-220 0 -260 -112q-29 -87 103 -111l138 -26q32 -7 89.5 -16t96.5 -16t92 -19t89.5 -25.5t76 -36.5t62.5 -50.5t38.5 -67.5t15.5 -88q0 -280 -256 -425q67 -70 66 -177q0 -181 -131.5 -315t-333.5 -198t-439 -63 q-360 2 -507 130t-46 401h428q-24 -79 32.5 -119.5t204.5 -42.5q130 -2 208.5 30.5t93.5 85.5q12 41 -13.5 72.5t-117.5 45.5l-167 29q-225 39 -314 82q-172 82 -173 264q0 241 297 360q-102 82 -102 239q0 263 234.5 400.5t616.5 137.5q90 0 168 -10t152.5 -34t124.5 -64 t83.5 -99t30.5 -137.5t-35 -182.5zM1009 647q0 97 -137 119l-162 28q-84 5 -150.5 -44t-66.5 -122q0 -89 121 -113l122 -23q109 -17 191 29t82 126z" glyph-name="section" horiz-adv-x="1534" unicode="§"/><glyph d="M341 1166q-61 0 -101 41t-40 99q0 73 60.5 130t133.5 57q61 0 101.5 -41t40.5 -99q0 -73 -61 -130t-134 -57zM870 1166q-61 0 -101 41t-40 99q0 73 60.5 130t133.5 57q61 0 101.5 -41t40.5 -99q0 -73 -61 -130t-134 -57z" glyph-name="dieresis" horiz-adv-x="865" unicode="¨"/><glyph d="M507 544q-166 0 -265.5 97.5t-99.5 263.5q0 229 164.5 397.5t412.5 168.5q166 0 265.5 -97t99.5 -263q0 -229 -165 -398t-412 -169zM539 713q90 0 180 43.5t141 148.5h-153q-53 -68 -137 -69q-56 0 -86 34.5t-30 90.5q0 85 63 153.5t149 68.5q41 0 71.5 -19t35.5 -55h154 q-2 97 -70.5 147.5t-167.5 50.5q-166 0 -273 -115t-107 -258q0 -104 59.5 -162.5t170.5 -58.5z" glyph-name="copyright" horiz-adv-x="1035" unicode="©"/><glyph d="M881 1434h220l-239 -739h-207l-15 47q-90 -48 -177 -47q-128 0 -207 80t-79 210q0 191 134 325t315 134q125 0 197 -84zM456 1051q0 -87 94 -87q56 0 92 37.5t36 87.5q0 48 -28.5 68.5t-64.5 20.5q-55 0 -92 -39.5t-37 -87.5z" glyph-name="ordfeminine" horiz-adv-x="936" unicode="ª"/><glyph d="M1104 1229l-496 -510l186 -514h-511l-181 514l500 510h502zM1727 1229l-496 -510l186 -514h-511l-181 514l500 510h502z" glyph-name="guillemotleft" horiz-adv-x="1682" unicode="«"/><glyph d="M777 468l58 177h-772l103 321h1163l-160 -498h-392z" glyph-name="logicalnot" horiz-adv-x="1334" unicode="¬"/><glyph d="M0 512l131 394h990l-131 -394h-990z" glyph-name="uni00AD" horiz-adv-x="1126" unicode="­"/><glyph d="M507 544q-166 0 -265.5 97.5t-99.5 263.5q0 229 164.5 397.5t412.5 168.5q166 0 265.5 -97t99.5 -263q0 -229 -165 -398t-412 -169zM312 739h135l51 164h128l45 -164h140l-57 189q143 65 144 193q0 67 -47 109.5t-153 42.5h-213zM534 1014l46 143h108q38 0 55.5 -18 t17.5 -43q0 -36 -30 -59t-72 -23h-125z" glyph-name="registered" horiz-adv-x="1035" unicode="®"/><glyph d="M147 1167l112 343h785l-112 -343h-785z" glyph-name="macron" horiz-adv-x="788" unicode="¯"/><glyph d="M497 666q-143 0 -226 80t-83 215q0 198 144 340.5t347 142.5q143 0 226 -81t83 -216q0 -196 -144 -338.5t-347 -142.5zM558 959q51 0 88 39.5t37 81.5q0 70 -69 70q-53 0 -88.5 -39t-35.5 -84q0 -68 68 -68z" glyph-name="degree" horiz-adv-x="959" unicode="°"/><glyph d="M1036 1254h365l-123 -380h-367l-117 -362h-415l118 362h-359l123 380h360l120 364h414zM-82 0l130 394h1072l-130 -394h-1072z" glyph-name="plusminus" horiz-adv-x="1309" unicode="±"/><glyph d="M143 1161l176 298h430l-176 -298h-430z" glyph-name="acute" horiz-adv-x="510" unicode="´"/><glyph d="M1024 1161h473l-376 -1161h-464l41 152h-39q-152 -176 -369 -179l-73 -229h-473l459 1417h473l-213 -661q-15 -58 -14.5 -93t21 -53t37.5 -23t36 -5q92 0 169.5 62.5t103.5 128.5z" glyph-name="uni00B5" horiz-adv-x="1413" unicode="µ"/><glyph d="M746 0l106 328h-232q-539 0 -540 411q0 324 240 509.5t622 185.5h741l-464 -1434h-473zM1425 0l464 1434h473l-464 -1434h-473z" glyph-name="paragraph" horiz-adv-x="2189" unicode="¶"/><glyph d="M336 485q-89 0 -143.5 55.5t-54.5 142.5q0 113 80.5 189.5t189.5 76.5q89 0 143.5 -55.5t54.5 -142.5q0 -113 -80.5 -189.5t-189.5 -76.5z" glyph-name="periodcentered" horiz-adv-x="744" unicode="·"/><glyph d="M-2 -60q58 -14 95 -59t37 -120q0 -102 -72 -166t-183 -72.5t-245 26.5l51 168q65 -22 139 -13t74 49q0 15 -22 26t-65.5 13.5t-108.5 -10.5l29 95l177 123h195z" glyph-name="cedilla" horiz-adv-x="452" unicode="¸"/><glyph d="M473 698q-131 0 -214 83t-83 211q0 181 135.5 316.5t325.5 135.5q133 0 214 -82t81 -212q0 -183 -136.5 -317.5t-322.5 -134.5zM534 964q55 0 90.5 38.5t35.5 88.5q0 43 -25.5 65t-61.5 22q-55 0 -90.5 -40.5t-35.5 -89.5q0 -84 87 -84z" glyph-name="ordmasculine" horiz-adv-x="877" unicode="º"/><glyph d="M-44 205l496 510l-186 514h511l180 -514l-500 -510h-501zM579 205l496 510l-186 514h510l181 -514l-500 -510h-501z" glyph-name="guillemotright" horiz-adv-x="1682" unicode="»"/><glyph d="M722 1092q89 0 143.5 -55.5t54.5 -142.5q0 -113 -80.5 -189.5t-189.5 -76.5q-89 0 -143.5 55.5t-54.5 142.5q0 113 80.5 189.5t189.5 76.5zM841 539q-20 -109 -90 -186t-153 -113.5t-163 -63t-134 -55.5t-54 -72q0 -36 51.5 -59.5t136.5 -23.5q227 0 306 186h425 q-39 -200 -159.5 -328t-283 -179t-373.5 -51q-270 0 -435.5 93t-165.5 270q0 94 43.5 170t108.5 122t143.5 87t146.5 67.5t119.5 62.5t61.5 73h469z" glyph-name="questiondown" horiz-adv-x="1396" unicode="¿"/><glyph d="M1333 1519h-430l-176 299h430zM1012 0l-3 189h-605l-124 -189h-504l975 1434h666l64 -1434h-469zM635 539h370l-7 451h-68z" glyph-name="Agrave" unicode="À"/><glyph d="M1504 1818l-176 -299h-430l175 299h431zM751 1434h666l64 -1434h-469l-3 189h-605l-124 -189h-504zM635 539h370l-7 451h-68z" glyph-name="Aacute" unicode="Á"/><glyph d="M1111 1647l-109 -128h-423l298 299h601l131 -299h-389l-48 128h-61zM751 1434h666l64 -1434h-469l-3 189h-605l-124 -189h-504zM635 539h370l-7 451h-68z" glyph-name="Acircumflex" unicode="Â"/><glyph d="M1558 1749q22 -143 -54.5 -215.5t-192.5 -72.5q-84 0 -193 49.5t-159 49.5q-43 0 -72.5 -19t-33.5 -53h-128q-22 142 55.5 215.5t192.5 73.5q82 0 192 -49.5t159 -49.5q43 0 73 18.5t33 52.5h128zM751 1434h666l64 -1434h-469l-3 189h-605l-124 -189h-504zM635 539h370 l-7 451h-68z" glyph-name="Atilde" unicode="Ã"/><glyph d="M858 1524q-61 0 -101 41t-40 99q0 73 60.5 130.5t133.5 57.5q61 0 101.5 -41t40.5 -99q0 -73 -61 -130.5t-134 -57.5zM1440 1852q61 0 101.5 -41t40.5 -99q0 -73 -60.5 -130.5t-133.5 -57.5q-61 0 -101.5 41t-40.5 99q0 73 60.5 130.5t133.5 57.5zM751 1434h666l64 -1434 h-469l-3 189h-605l-124 -189h-504zM635 539h370l-7 451h-68z" glyph-name="Adieresis" unicode="Ä"/><glyph d="M1012 0l-3 189h-605l-124 -189h-504l975 1434h234q-97 55 -98 175q0 123 85.5 203.5t198.5 80.5q90 0 144.5 -55.5t54.5 -142.5q0 -85 -45 -156t-120 -105h212l64 -1434h-469zM1142 1702q-26 0 -43 -19t-17 -45q0 -14 10.5 -24.5t28.5 -10.5q26 0 43 18.5t17 44.5 q0 14 -10 25t-29 11zM635 539h370l-7 451h-68z" glyph-name="Aring" unicode="Å"/><glyph d="M2502 1056h-824l-60 -184h819l-99 -302h-817l-64 -193h823l-123 -377h-1293l73 227h-490l-171 -227h-500l1134 1434h1715zM708 573h340l150 466h-138z" glyph-name="AE" horiz-adv-x="2449" unicode="Æ"/><glyph d="M961 1073q-201 0 -334.5 -139t-133.5 -318q0 -123 78 -189.5t200 -66.5q247 0 379 220h456q-49 -145 -133.5 -258.5t-178 -181.5t-205 -111.5t-209.5 -60t-199 -16.5h-27l-21 -12q58 -14 95 -59t37 -120q0 -102 -72 -166t-183 -72.5t-245 26.5l51 168q65 -22 139 -13 t74 49q0 15 -22 26t-65.5 13.5t-108.5 -10.5l29 95l133 92q-227 43 -350 195t-123 386q0 183 77.5 352.5t211 297.5t327 204.5t413.5 76.5q329 0 510.5 -185t116.5 -449h-454q-3 109 -76 167.5t-187 58.5z" glyph-name="Ccedilla" horiz-adv-x="1686" unicode="Ç"/><glyph d="M1167 1519h-430l-176 299h431zM1466 1056h-824l-60 -184h819l-99 -302h-817l-63 -193h822l-123 -377h-1293l462 1434h1299z" glyph-name="Egrave" horiz-adv-x="1413" unicode="È"/><glyph d="M1338 1818l-176 -299h-430l176 299h430zM1466 1056h-824l-60 -184h819l-99 -302h-817l-63 -193h822l-123 -377h-1293l462 1434h1299z" glyph-name="Eacute" horiz-adv-x="1413" unicode="É"/><glyph d="M945 1647l-109 -128h-423l299 299h600l132 -299h-389l-48 128h-62zM1466 1056h-824l-60 -184h819l-99 -302h-817l-63 -193h822l-123 -377h-1293l462 1434h1299z" glyph-name="Ecircumflex" horiz-adv-x="1413" unicode="Ê"/><glyph d="M693 1524q-61 0 -101.5 41t-40.5 99q0 73 60.5 130.5t134.5 57.5q61 0 101 -41t40 -99q0 -73 -60.5 -130.5t-133.5 -57.5zM1222 1524q-61 0 -101.5 41t-40.5 99q0 73 60.5 130.5t134.5 57.5q61 0 101.5 -41t40.5 -99q0 -73 -61 -130.5t-134 -57.5zM1466 1056h-824 l-60 -184h819l-99 -302h-817l-63 -193h822l-123 -377h-1293l462 1434h1299z" glyph-name="Edieresis" horiz-adv-x="1413" unicode="Ë"/><glyph d="M751 1519h-430l-176 299h430zM-172 0l462 1434h473l-463 -1434h-472z" glyph-name="Igrave" horiz-adv-x="590" unicode="Ì"/><glyph d="M316 1519l176 299h430l-176 -299h-430zM-172 0l462 1434h473l-463 -1434h-472z" glyph-name="Iacute" horiz-adv-x="590" unicode="Í"/><glyph d="M-3 1519l298 299h601l131 -299h-389l-47 128h-62l-109 -128h-423zM-172 0l462 1434h473l-463 -1434h-472z" glyph-name="Icircumflex" horiz-adv-x="590" unicode="Î"/><glyph d="M276 1524q-61 0 -101 41t-40 99q0 73 60.5 130.5t133.5 57.5q61 0 101.5 -41t40.5 -99q0 -73 -61 -130.5t-134 -57.5zM806 1524q-61 0 -101.5 41t-40.5 99q0 73 60.5 130.5t133.5 57.5q61 0 101.5 -41t40.5 -99q0 -73 -60.5 -130.5t-133.5 -57.5zM-172 0l462 1434h473 l-463 -1434h-472z" glyph-name="Idieresis" horiz-adv-x="590" unicode="Ï"/><glyph d="M1082 1434q333 0 493.5 -142.5t160.5 -398.5q0 -276 -136 -481t-364.5 -308.5t-516.5 -103.5h-760l174 541h-172l112 343h171l176 550h662zM802 396q193 0 324.5 123.5t131.5 306.5q0 114 -75 163t-229 49h-188l-49 -154h227l-113 -343h-225l-48 -145h244z" glyph-name="Eth" horiz-adv-x="1761" unicode="Ð"/><glyph d="M1265 1461q-84 0 -193 49.5t-159 49.5q-97 0 -106 -72h-128q-22 142 55.5 215.5t192.5 73.5q82 0 192 -49.5t159 -49.5q97 0 106 71h128q22 -143 -54.5 -215.5t-192.5 -72.5zM-172 0l467 1434h524l234 -789h50l259 789h461l-466 -1434h-512l-249 778h-50l-258 -778h-460z " glyph-name="Ntilde" horiz-adv-x="1650" unicode="Ñ"/><glyph d="M1316 1526h-430l-176 298h430zM681 -48q-312 0 -486.5 157t-174.5 434q0 246 131.5 461t366.5 346t518 131q312 0 486 -157t174 -433q0 -246 -131 -461t-366 -346.5t-518 -131.5zM758 360q200 0 332 142.5t135 313.5q0 125 -76 191t-190 66q-200 0 -332 -142.5 t-135 -312.5q0 -125 76 -191.5t190 -66.5z" glyph-name="Ograve" horiz-adv-x="1716" unicode="Ò"/><glyph d="M881 1526l175 298h431l-176 -298h-430zM681 -48q-312 0 -486.5 157t-174.5 434q0 246 131.5 461t366.5 346t518 131q312 0 486 -157t174 -433q0 -246 -131 -461t-366 -346.5t-518 -131.5zM758 360q200 0 332 142.5t135 313.5q0 125 -76 191t-190 66q-200 0 -332 -142.5 t-135 -312.5q0 -125 76 -191.5t190 -66.5z" glyph-name="Oacute" horiz-adv-x="1716" unicode="Ó"/><glyph d="M561 1526l299 298h601l131 -298h-389l-48 128h-61l-109 -128h-424zM681 -48q-312 0 -486.5 157t-174.5 434q0 246 131.5 461t366.5 346t518 131q312 0 486 -157t174 -433q0 -246 -131 -461t-366 -346.5t-518 -131.5zM758 360q200 0 332 142.5t135 313.5q0 125 -76 191 t-190 66q-200 0 -332 -142.5t-135 -312.5q0 -125 76 -191.5t190 -66.5z" glyph-name="Ocircumflex" horiz-adv-x="1716" unicode="Ô"/><glyph d="M1294 1468q-84 0 -193 49.5t-159 49.5q-43 0 -72.5 -19t-33.5 -53h-128q-22 142 55.5 215t192.5 73q82 0 192 -49.5t159 -49.5q43 0 73 19t33 53h128q22 -143 -54.5 -215.5t-192.5 -72.5zM681 -48q-312 0 -486.5 157t-174.5 434q0 246 131.5 461t366.5 346t518 131 q312 0 486 -157t174 -433q0 -246 -131 -461t-366 -346.5t-518 -131.5zM758 360q200 0 332 142.5t135 313.5q0 125 -76 191t-190 66q-200 0 -332 -142.5t-135 -312.5q0 -125 76 -191.5t190 -66.5z" glyph-name="Otilde" horiz-adv-x="1716" unicode="Õ"/><glyph d="M841 1531q-61 0 -101 41t-40 99q0 73 60.5 130.5t133.5 57.5q61 0 101.5 -41t40.5 -99q0 -73 -61 -130.5t-134 -57.5zM1370 1531q-61 0 -101 41t-40 99q0 73 60.5 130.5t133.5 57.5q61 0 101.5 -41t40.5 -99q0 -73 -61 -130.5t-134 -57.5zM681 -48q-312 0 -486.5 157 t-174.5 434q0 246 131.5 461t366.5 346t518 131q312 0 486 -157t174 -433q0 -246 -131 -461t-366 -346.5t-518 -131.5zM758 360q200 0 332 142.5t135 313.5q0 125 -76 191t-190 66q-200 0 -332 -142.5t-135 -312.5q0 -125 76 -191.5t190 -66.5z" glyph-name="Odieresis" horiz-adv-x="1716" unicode="Ö"/><glyph d="M1210 959l-346 -261l165 -244l-336 -251l-164 242l-340 -257l-186 275l342 257l-178 261l336 251l176 -259l347 261z" glyph-name="multiply" horiz-adv-x="1216" unicode="×"/><glyph d="M1493 1348q203 -155 203 -457q0 -246 -131 -461t-366 -346.5t-518 -131.5q-123 0 -237 28l-51 -67h-285l126 164q-213 159 -214 466q0 246 131.5 461t366.5 346t518 131q138 0 249 -30l56 71h285zM492 618q0 -87 40 -150l465 604q-14 2 -38 1q-200 0 -332 -142t-135 -313 zM758 360q200 0 332 142.5t135 313.5q0 80 -34 138l-455 -594h22z" glyph-name="Oslash" horiz-adv-x="1716" unicode="Ø"/><glyph d="M1270 1519h-430l-176 299h430zM623 -48q-396 0 -547 177.5t-40 515.5l259 789h480l-273 -825q-43 -126 3 -195t184 -69q142 0 228.5 75t138.5 237l253 777h480l-272 -833q-114 -352 -323 -500.5t-571 -148.5z" glyph-name="Ugrave" horiz-adv-x="1616" unicode="Ù"/><glyph d="M835 1519l175 299h430l-175 -299h-430zM623 -48q-396 0 -547 177.5t-40 515.5l259 789h480l-273 -825q-43 -126 3 -195t184 -69q142 0 228.5 75t138.5 237l253 777h480l-272 -833q-114 -352 -323 -500.5t-571 -148.5z" glyph-name="Uacute" horiz-adv-x="1616" unicode="Ú"/><glyph d="M515 1519l299 299h601l131 -299h-389l-48 128h-61l-109 -128h-424zM623 -48q-396 0 -547 177.5t-40 515.5l259 789h480l-273 -825q-43 -126 3 -195t184 -69q142 0 228.5 75t138.5 237l253 777h480l-272 -833q-114 -352 -323 -500.5t-571 -148.5z" glyph-name="Ucircumflex" horiz-adv-x="1616" unicode="Û"/><glyph d="M795 1524q-61 0 -101 41t-40 99q0 73 60.5 130.5t133.5 57.5q61 0 101.5 -41t40.5 -99q0 -73 -61 -130.5t-134 -57.5zM1324 1524q-61 0 -101 41t-40 99q0 73 60.5 130.5t133.5 57.5q61 0 101.5 -41t40.5 -99q0 -73 -61 -130.5t-134 -57.5zM623 -48q-396 0 -547 177.5 t-40 515.5l259 789h480l-273 -825q-43 -126 3 -195t184 -69q142 0 228.5 75t138.5 237l253 777h480l-272 -833q-114 -352 -323 -500.5t-571 -148.5z" glyph-name="Udieresis" horiz-adv-x="1616" unicode="Ü"/><glyph d="M1437 1818l-176 -299h-430l176 299h430zM1852 1434l-900 -994l-141 -440h-473l148 466l-254 968h476l127 -528h37l459 528h521z" glyph-name="Yacute" horiz-adv-x="1636" unicode="Ý"/><glyph d="M942 1270q328 0 467 -152t43 -451q-166 -503 -826 -503h-269l-53 -164h-473l461 1434h473l-53 -164h230zM1000 766q22 61 -10.5 86t-120.5 25h-284l-102 -321h237q92 0 170.5 54.5t109.5 155.5z" glyph-name="Thorn" horiz-adv-x="1498" unicode="Þ"/><glyph d="M-172 0l317 980q48 145 130.5 245.5t192 151.5t220.5 72.5t244 21.5q297 0 431 -98t134 -248q0 -113 -70 -202.5t-195 -137.5l-10 -34q164 -89 164 -287q0 -157 -103.5 -264.5t-268 -153.5t-379.5 -46h-241l115 357h198q109 0 178 40t69 115q0 92 -138 92h-225l85 261 h153q89 0 146.5 30t57.5 86q0 89 -166 89q-220 0 -273 -162l-294 -908h-472z" glyph-name="germandbls" horiz-adv-x="1515" unicode="ß"/><glyph d="M1333 1519h-430l-176 299h430zM1012 0l-3 189h-605l-124 -189h-504l975 1434h666l64 -1434h-469zM635 539h370l-7 451h-68z" glyph-name="agrave" unicode="à"/><glyph d="M1504 1818l-176 -299h-430l175 299h431zM751 1434h666l64 -1434h-469l-3 189h-605l-124 -189h-504zM635 539h370l-7 451h-68z" glyph-name="aacute" unicode="á"/><glyph d="M1111 1647l-109 -128h-423l298 299h601l131 -299h-389l-48 128h-61zM751 1434h666l64 -1434h-469l-3 189h-605l-124 -189h-504zM635 539h370l-7 451h-68z" glyph-name="acircumflex" unicode="â"/><glyph d="M1558 1749q22 -143 -54.5 -215.5t-192.5 -72.5q-84 0 -193 49.5t-159 49.5q-43 0 -72.5 -19t-33.5 -53h-128q-22 142 55.5 215.5t192.5 73.5q82 0 192 -49.5t159 -49.5q43 0 73 18.5t33 52.5h128zM751 1434h666l64 -1434h-469l-3 189h-605l-124 -189h-504zM635 539h370 l-7 451h-68z" glyph-name="atilde" unicode="ã"/><glyph d="M858 1524q-61 0 -101 41t-40 99q0 73 60.5 130.5t133.5 57.5q61 0 101.5 -41t40.5 -99q0 -73 -61 -130.5t-134 -57.5zM1440 1852q61 0 101.5 -41t40.5 -99q0 -73 -60.5 -130.5t-133.5 -57.5q-61 0 -101.5 41t-40.5 99q0 73 60.5 130.5t133.5 57.5zM751 1434h666l64 -1434 h-469l-3 189h-605l-124 -189h-504zM635 539h370l-7 451h-68z" glyph-name="adieresis" unicode="ä"/><glyph d="M1012 0l-3 189h-605l-124 -189h-504l975 1434h234q-97 55 -98 175q0 123 85.5 203.5t198.5 80.5q90 0 144.5 -55.5t54.5 -142.5q0 -85 -45 -156t-120 -105h212l64 -1434h-469zM1142 1702q-26 0 -43 -19t-17 -45q0 -14 10.5 -24.5t28.5 -10.5q26 0 43 18.5t17 44.5 q0 14 -10 25t-29 11zM635 539h370l-7 451h-68z" glyph-name="aring" unicode="å"/><glyph d="M2502 1056h-824l-60 -184h819l-99 -302h-817l-64 -193h823l-123 -377h-1293l73 227h-490l-171 -227h-500l1134 1434h1715zM708 573h340l150 466h-138z" glyph-name="ae" horiz-adv-x="2449" unicode="æ"/><glyph d="M961 1073q-201 0 -334.5 -139t-133.5 -318q0 -123 78 -189.5t200 -66.5q247 0 379 220h456q-49 -145 -133.5 -258.5t-178 -181.5t-205 -111.5t-209.5 -60t-199 -16.5h-27l-21 -12q58 -14 95 -59t37 -120q0 -102 -72 -166t-183 -72.5t-245 26.5l51 168q65 -22 139 -13 t74 49q0 15 -22 26t-65.5 13.5t-108.5 -10.5l29 95l133 92q-227 43 -350 195t-123 386q0 183 77.5 352.5t211 297.5t327 204.5t413.5 76.5q329 0 510.5 -185t116.5 -449h-454q-3 109 -76 167.5t-187 58.5z" glyph-name="ccedilla" horiz-adv-x="1686" unicode="ç"/><glyph d="M1167 1519h-430l-176 299h431zM1466 1056h-824l-60 -184h819l-99 -302h-817l-63 -193h822l-123 -377h-1293l462 1434h1299z" glyph-name="egrave" horiz-adv-x="1413" unicode="è"/><glyph d="M1338 1818l-176 -299h-430l176 299h430zM1466 1056h-824l-60 -184h819l-99 -302h-817l-63 -193h822l-123 -377h-1293l462 1434h1299z" glyph-name="eacute" horiz-adv-x="1413" unicode="é"/><glyph d="M945 1647l-109 -128h-423l299 299h600l132 -299h-389l-48 128h-62zM1466 1056h-824l-60 -184h819l-99 -302h-817l-63 -193h822l-123 -377h-1293l462 1434h1299z" glyph-name="ecircumflex" horiz-adv-x="1413" unicode="ê"/><glyph d="M693 1524q-61 0 -101.5 41t-40.5 99q0 73 60.5 130.5t134.5 57.5q61 0 101 -41t40 -99q0 -73 -60.5 -130.5t-133.5 -57.5zM1222 1524q-61 0 -101.5 41t-40.5 99q0 73 60.5 130.5t134.5 57.5q61 0 101.5 -41t40.5 -99q0 -73 -61 -130.5t-134 -57.5zM1466 1056h-824 l-60 -184h819l-99 -302h-817l-63 -193h822l-123 -377h-1293l462 1434h1299z" glyph-name="edieresis" horiz-adv-x="1413" unicode="ë"/><glyph d="M751 1519h-430l-176 299h430zM-172 0l462 1434h473l-463 -1434h-472z" glyph-name="igrave" horiz-adv-x="590" unicode="ì"/><glyph d="M316 1519l176 299h430l-176 -299h-430zM-172 0l462 1434h473l-463 -1434h-472z" glyph-name="iacute" horiz-adv-x="590" unicode="í"/><glyph d="M-3 1519l298 299h601l131 -299h-389l-47 128h-62l-109 -128h-423zM-172 0l462 1434h473l-463 -1434h-472z" glyph-name="icircumflex" horiz-adv-x="590" unicode="î"/><glyph d="M276 1524q-61 0 -101 41t-40 99q0 73 60.5 130.5t133.5 57.5q61 0 101.5 -41t40.5 -99q0 -73 -61 -130.5t-134 -57.5zM806 1524q-61 0 -101.5 41t-40.5 99q0 73 60.5 130.5t133.5 57.5q61 0 101.5 -41t40.5 -99q0 -73 -60.5 -130.5t-133.5 -57.5zM-172 0l462 1434h473 l-463 -1434h-472z" glyph-name="idieresis" horiz-adv-x="590" unicode="ï"/><glyph d="M1082 1434q333 0 493.5 -142.5t160.5 -398.5q0 -276 -136 -481t-364.5 -308.5t-516.5 -103.5h-760l174 541h-172l112 343h171l176 550h662zM802 396q193 0 324.5 123.5t131.5 306.5q0 114 -75 163t-229 49h-188l-49 -154h227l-113 -343h-225l-48 -145h244z" glyph-name="eth" horiz-adv-x="1761" unicode="ð"/><glyph d="M1265 1461q-84 0 -193 49.5t-159 49.5q-97 0 -106 -72h-128q-22 142 55.5 215.5t192.5 73.5q82 0 192 -49.5t159 -49.5q97 0 106 71h128q22 -143 -54.5 -215.5t-192.5 -72.5zM-172 0l467 1434h524l234 -789h50l259 789h461l-466 -1434h-512l-249 778h-50l-258 -778h-460z " glyph-name="ntilde" horiz-adv-x="1650" unicode="ñ"/><glyph d="M1316 1526h-430l-176 298h430zM681 -48q-312 0 -486.5 157t-174.5 434q0 246 131.5 461t366.5 346t518 131q312 0 486 -157t174 -433q0 -246 -131 -461t-366 -346.5t-518 -131.5zM758 360q200 0 332 142.5t135 313.5q0 125 -76 191t-190 66q-200 0 -332 -142.5 t-135 -312.5q0 -125 76 -191.5t190 -66.5z" glyph-name="ograve" horiz-adv-x="1716" unicode="ò"/><glyph d="M881 1526l175 298h431l-176 -298h-430zM681 -48q-312 0 -486.5 157t-174.5 434q0 246 131.5 461t366.5 346t518 131q312 0 486 -157t174 -433q0 -246 -131 -461t-366 -346.5t-518 -131.5zM758 360q200 0 332 142.5t135 313.5q0 125 -76 191t-190 66q-200 0 -332 -142.5 t-135 -312.5q0 -125 76 -191.5t190 -66.5z" glyph-name="oacute" horiz-adv-x="1716" unicode="ó"/><glyph d="M561 1526l299 298h601l131 -298h-389l-48 128h-61l-109 -128h-424zM681 -48q-312 0 -486.5 157t-174.5 434q0 246 131.5 461t366.5 346t518 131q312 0 486 -157t174 -433q0 -246 -131 -461t-366 -346.5t-518 -131.5zM758 360q200 0 332 142.5t135 313.5q0 125 -76 191 t-190 66q-200 0 -332 -142.5t-135 -312.5q0 -125 76 -191.5t190 -66.5z" glyph-name="ocircumflex" horiz-adv-x="1716" unicode="ô"/><glyph d="M1294 1468q-84 0 -193 49.5t-159 49.5q-43 0 -72.5 -19t-33.5 -53h-128q-22 142 55.5 215t192.5 73q82 0 192 -49.5t159 -49.5q43 0 73 19t33 53h128q22 -143 -54.5 -215.5t-192.5 -72.5zM681 -48q-312 0 -486.5 157t-174.5 434q0 246 131.5 461t366.5 346t518 131 q312 0 486 -157t174 -433q0 -246 -131 -461t-366 -346.5t-518 -131.5zM758 360q200 0 332 142.5t135 313.5q0 125 -76 191t-190 66q-200 0 -332 -142.5t-135 -312.5q0 -125 76 -191.5t190 -66.5z" glyph-name="otilde" horiz-adv-x="1716" unicode="õ"/><glyph d="M841 1531q-61 0 -101 41t-40 99q0 73 60.5 130.5t133.5 57.5q61 0 101.5 -41t40.5 -99q0 -73 -61 -130.5t-134 -57.5zM1370 1531q-61 0 -101 41t-40 99q0 73 60.5 130.5t133.5 57.5q61 0 101.5 -41t40.5 -99q0 -73 -61 -130.5t-134 -57.5zM681 -48q-312 0 -486.5 157 t-174.5 434q0 246 131.5 461t366.5 346t518 131q312 0 486 -157t174 -433q0 -246 -131 -461t-366 -346.5t-518 -131.5zM758 360q200 0 332 142.5t135 313.5q0 125 -76 191t-190 66q-200 0 -332 -142.5t-135 -312.5q0 -125 76 -191.5t190 -66.5z" glyph-name="odieresis" horiz-adv-x="1716" unicode="ö"/><glyph d="M732 992q-75 0 -123 47.5t-48 122.5q0 97 69.5 164t163.5 67q77 0 123.5 -48t46.5 -123q0 -97 -68 -163.5t-164 -66.5zM34 555l103 326h1071l-102 -326h-1072zM427 32q-75 0 -123 48t-48 123q0 97 69 163.5t163 66.5q77 0 124 -47.5t47 -122.5q0 -97 -68 -164t-164 -67z " glyph-name="divide" horiz-adv-x="1242" unicode="÷"/><glyph d="M1493 1348q203 -155 203 -457q0 -246 -131 -461t-366 -346.5t-518 -131.5q-123 0 -237 28l-51 -67h-285l126 164q-213 159 -214 466q0 246 131.5 461t366.5 346t518 131q138 0 249 -30l56 71h285zM492 618q0 -87 40 -150l465 604q-14 2 -38 1q-200 0 -332 -142t-135 -313 zM758 360q200 0 332 142.5t135 313.5q0 80 -34 138l-455 -594h22z" glyph-name="oslash" horiz-adv-x="1716" unicode="ø"/><glyph d="M1270 1519h-430l-176 299h430zM623 -48q-396 0 -547 177.5t-40 515.5l259 789h480l-273 -825q-43 -126 3 -195t184 -69q142 0 228.5 75t138.5 237l253 777h480l-272 -833q-114 -352 -323 -500.5t-571 -148.5z" glyph-name="ugrave" horiz-adv-x="1616" unicode="ù"/><glyph d="M835 1519l175 299h430l-175 -299h-430zM623 -48q-396 0 -547 177.5t-40 515.5l259 789h480l-273 -825q-43 -126 3 -195t184 -69q142 0 228.5 75t138.5 237l253 777h480l-272 -833q-114 -352 -323 -500.5t-571 -148.5z" glyph-name="uacute" horiz-adv-x="1616" unicode="ú"/><glyph d="M515 1519l299 299h601l131 -299h-389l-48 128h-61l-109 -128h-424zM623 -48q-396 0 -547 177.5t-40 515.5l259 789h480l-273 -825q-43 -126 3 -195t184 -69q142 0 228.5 75t138.5 237l253 777h480l-272 -833q-114 -352 -323 -500.5t-571 -148.5z" glyph-name="ucircumflex" horiz-adv-x="1616" unicode="û"/><glyph d="M795 1524q-61 0 -101 41t-40 99q0 73 60.5 130.5t133.5 57.5q61 0 101.5 -41t40.5 -99q0 -73 -61 -130.5t-134 -57.5zM1324 1524q-61 0 -101 41t-40 99q0 73 60.5 130.5t133.5 57.5q61 0 101.5 -41t40.5 -99q0 -73 -61 -130.5t-134 -57.5zM623 -48q-396 0 -547 177.5 t-40 515.5l259 789h480l-273 -825q-43 -126 3 -195t184 -69q142 0 228.5 75t138.5 237l253 777h480l-272 -833q-114 -352 -323 -500.5t-571 -148.5z" glyph-name="udieresis" horiz-adv-x="1616" unicode="ü"/><glyph d="M1437 1818l-176 -299h-430l176 299h430zM1852 1434l-900 -994l-141 -440h-473l148 466l-254 968h476l127 -528h37l459 528h521z" glyph-name="yacute" horiz-adv-x="1636" unicode="ý"/><glyph d="M942 1270q328 0 467 -152t43 -451q-166 -503 -826 -503h-269l-53 -164h-473l461 1434h473l-53 -164h230zM1000 766q22 61 -10.5 86t-120.5 25h-284l-102 -321h237q92 0 170.5 54.5t109.5 155.5z" glyph-name="thorn" horiz-adv-x="1498" unicode="þ"/><glyph d="M792 1524q-61 0 -101.5 41t-40.5 99q0 73 60.5 130.5t134.5 57.5q61 0 101 -41t40 -99q0 -73 -60.5 -130.5t-133.5 -57.5zM1321 1524q-61 0 -101.5 41t-40.5 99q0 73 60.5 130.5t134.5 57.5q61 0 101.5 -41t40.5 -99q0 -73 -61 -130.5t-134 -57.5zM1852 1434l-900 -994 l-141 -440h-473l148 466l-254 968h476l127 -528h37l459 528h521z" glyph-name="ydieresis" horiz-adv-x="1636" unicode="ÿ"/><glyph d="M853 1869h785l-112 -343h-785zM751 1434h666l64 -1434h-469l-3 189h-605l-124 -189h-504zM635 539h370l-7 451h-68z" glyph-name="Amacron" unicode="Ā"/><glyph d="M853 1869h785l-112 -343h-785zM751 1434h666l64 -1434h-469l-3 189h-605l-124 -189h-504zM635 539h370l-7 451h-68z" glyph-name="amacron" unicode="ā"/><glyph d="M1331 1818h266q-38 -167 -151 -233t-291 -66q-195 0 -285 66.5t-47 232.5h268q-20 -99 92 -99q53 0 93.5 25t54.5 74zM751 1434h666l64 -1434h-469l-3 189h-605l-124 -189h-504zM635 539h370l-7 451h-68z" glyph-name="Abreve" unicode="Ă"/><glyph d="M1331 1818h266q-38 -167 -151 -233t-291 -66q-195 0 -285 66.5t-47 232.5h268q-20 -99 92 -99q53 0 93.5 25t54.5 74zM751 1434h666l64 -1434h-469l-3 189h-605l-124 -189h-504zM635 539h370l-7 451h-68z" glyph-name="abreve" unicode="ă"/><glyph d="M1017 0q-73 0 -103 -25.5t-30 -59.5q0 -75 87 -74v-256q-67 0 -130.5 12t-127.5 39.5t-103.5 82t-39.5 129.5q0 258 440 270l-1 71h-605l-124 -189h-504l975 1434h666l64 -1434h-464zM635 539h370l-7 451h-68z" glyph-name="Aogonek" unicode="Ą"/><glyph d="M1017 0q-73 0 -103 -25.5t-30 -59.5q0 -75 87 -74v-256q-67 0 -130.5 12t-127.5 39.5t-103.5 82t-39.5 129.5q0 258 440 270l-1 71h-605l-124 -189h-504l975 1434h666l64 -1434h-464zM635 539h370l-7 451h-68z" glyph-name="aogonek" unicode="ą"/><glyph d="M913 1519l176 299h430l-176 -299h-430zM681 -48q-312 0 -485.5 159t-173.5 439q0 183 77.5 352.5t211 297.5t327 204.5t413.5 76.5q329 0 510.5 -185t116.5 -449h-454q-3 109 -76 167.5t-187 58.5q-201 0 -334.5 -139t-133.5 -318q0 -123 78 -189.5t200 -66.5 q247 0 379 220h456q-49 -145 -133.5 -258.5t-178 -181.5t-205 -111.5t-209.5 -60t-199 -16.5z" glyph-name="Cacute" horiz-adv-x="1686" unicode="Ć"/><glyph d="M913 1519l176 299h430l-176 -299h-430zM681 -48q-312 0 -485.5 159t-173.5 439q0 183 77.5 352.5t211 297.5t327 204.5t413.5 76.5q329 0 510.5 -185t116.5 -449h-454q-3 109 -76 167.5t-187 58.5q-201 0 -334.5 -139t-133.5 -318q0 -123 78 -189.5t200 -66.5 q247 0 379 220h456q-49 -145 -133.5 -258.5t-178 -181.5t-205 -111.5t-209.5 -60t-199 -16.5z" glyph-name="cacute" horiz-adv-x="1686" unicode="ć"/><glyph d="M1174 1524q-61 0 -101 41t-40 99q0 73 60.5 130.5t133.5 57.5q61 0 101.5 -41t40.5 -99q0 -73 -61 -130.5t-134 -57.5zM681 -48q-312 0 -485.5 159t-173.5 439q0 183 77.5 352.5t211 297.5t327 204.5t413.5 76.5q329 0 510.5 -185t116.5 -449h-454q-3 109 -76 167.5 t-187 58.5q-201 0 -334.5 -139t-133.5 -318q0 -123 78 -189.5t200 -66.5q247 0 379 220h456q-49 -145 -133.5 -258.5t-178 -181.5t-205 -111.5t-209.5 -60t-199 -16.5z" glyph-name="Cdotaccent" horiz-adv-x="1686" unicode="Ċ"/><glyph d="M1174 1524q-61 0 -101 41t-40 99q0 73 60.5 130.5t133.5 57.5q61 0 101.5 -41t40.5 -99q0 -73 -61 -130.5t-134 -57.5zM681 -48q-312 0 -485.5 159t-173.5 439q0 183 77.5 352.5t211 297.5t327 204.5t413.5 76.5q329 0 510.5 -185t116.5 -449h-454q-3 109 -76 167.5 t-187 58.5q-201 0 -334.5 -139t-133.5 -318q0 -123 78 -189.5t200 -66.5q247 0 379 220h456q-49 -145 -133.5 -258.5t-178 -181.5t-205 -111.5t-209.5 -60t-199 -16.5z" glyph-name="cdotaccent" horiz-adv-x="1686" unicode="ċ"/><glyph d="M1213 1468q258 -44 389.5 -218.5t75.5 -402.5h-454q-3 109 -76 167.5t-187 58.5q-201 0 -334.5 -139t-133.5 -318q0 -123 78 -189.5t200 -66.5q247 0 379 220h456q-49 -145 -133.5 -258.5t-178 -181.5t-205 -111.5t-209.5 -60t-199 -16.5q-312 0 -485.5 159t-173.5 439 q0 335 238 597.5t612 320.5h-72l-131 298h389l48 -128h61l110 128h423l-299 -298h-188z" glyph-name="Ccaron" horiz-adv-x="1686" unicode="Č"/><glyph d="M1213 1468q258 -44 389.5 -218.5t75.5 -402.5h-454q-3 109 -76 167.5t-187 58.5q-201 0 -334.5 -139t-133.5 -318q0 -123 78 -189.5t200 -66.5q247 0 379 220h456q-49 -145 -133.5 -258.5t-178 -181.5t-205 -111.5t-209.5 -60t-199 -16.5q-312 0 -485.5 159t-173.5 439 q0 335 238 597.5t612 320.5h-72l-131 298h389l48 -128h61l110 128h423l-299 -298h-188z" glyph-name="ccaron" horiz-adv-x="1686" unicode="č"/><glyph d="M1608 1766l-299 -298h-601l-131 298h389l48 -128h61l109 128h424zM-169 0l461 1434h662q333 0 493.5 -142.5t160.5 -398.5q0 -276 -136 -481t-364.5 -308.5t-516.5 -103.5h-760zM430 396h244q193 0 324.5 123.5t131.5 306.5q0 114 -75 163t-229 49h-188z" glyph-name="Dcaron" horiz-adv-x="1633" unicode="Ď"/><glyph d="M1608 1766l-299 -298h-601l-131 298h389l48 -128h61l109 128h424zM-169 0l461 1434h662q333 0 493.5 -142.5t160.5 -398.5q0 -276 -136 -481t-364.5 -308.5t-516.5 -103.5h-760zM430 396h244q193 0 324.5 123.5t131.5 306.5q0 114 -75 163t-229 49h-188z" glyph-name="dcaron" horiz-adv-x="1633" unicode="ď"/><glyph d="M1082 1434q333 0 493.5 -142.5t160.5 -398.5q0 -276 -136 -481t-364.5 -308.5t-516.5 -103.5h-760l174 541h-172l112 343h171l176 550h662zM802 396q193 0 324.5 123.5t131.5 306.5q0 114 -75 163t-229 49h-188l-49 -154h227l-113 -343h-225l-48 -145h244z" glyph-name="Dcroat" horiz-adv-x="1761" unicode="Đ"/><glyph d="M1082 1434q333 0 493.5 -142.5t160.5 -398.5q0 -276 -136 -481t-364.5 -308.5t-516.5 -103.5h-760l174 541h-172l112 343h171l176 550h662zM802 396q193 0 324.5 123.5t131.5 306.5q0 114 -75 163t-229 49h-188l-49 -154h227l-113 -343h-225l-48 -145h244z" glyph-name="dcroat" horiz-adv-x="1761" unicode="đ"/><glyph d="M1473 1869l-113 -343h-785l113 343h785zM1466 1056h-824l-60 -184h819l-99 -302h-817l-63 -193h822l-123 -377h-1293l462 1434h1299z" glyph-name="Emacron" horiz-adv-x="1413" unicode="Ē"/><glyph d="M1473 1869l-113 -343h-785l113 343h785zM1466 1056h-824l-60 -184h819l-99 -302h-817l-63 -193h822l-123 -377h-1293l462 1434h1299z" glyph-name="emacron" horiz-adv-x="1413" unicode="ē"/><glyph d="M993 1524q-61 0 -101 41t-40 99q0 73 60.5 130.5t133.5 57.5q61 0 101.5 -41t40.5 -99q0 -73 -61 -130.5t-134 -57.5zM1466 1056h-824l-60 -184h819l-99 -302h-817l-63 -193h822l-123 -377h-1293l462 1434h1299z" glyph-name="Edotaccent" horiz-adv-x="1413" unicode="Ė"/><glyph d="M993 1524q-61 0 -101 41t-40 99q0 73 60.5 130.5t133.5 57.5q61 0 101.5 -41t40.5 -99q0 -73 -61 -130.5t-134 -57.5zM1466 1056h-824l-60 -184h819l-99 -302h-817l-63 -193h822l-123 -377h-1293l462 1434h1299z" glyph-name="edotaccent" horiz-adv-x="1413" unicode="ė"/><glyph d="M1466 1056h-824l-60 -184h819l-99 -302h-817l-63 -193h822l-121 -372v-5q-73 0 -103 -25.5t-30 -59.5q0 -75 87 -74v-256q-67 0 -131 12t-128 39.5t-103 82t-39 129.5q0 89 54 152h-902l462 1434h1299z" glyph-name="Eogonek" horiz-adv-x="1413" unicode="Ę"/><glyph d="M1466 1056h-824l-60 -184h819l-99 -302h-817l-63 -193h822l-121 -372v-5q-73 0 -103 -25.5t-30 -59.5q0 -75 87 -74v-256q-67 0 -131 12t-128 39.5t-103 82t-39 129.5q0 89 54 152h-902l462 1434h1299z" glyph-name="eogonek" horiz-adv-x="1413" unicode="ę"/><glyph d="M1220 1468h-600l-132 298h389l48 -128h61l110 128h423zM1466 1056h-824l-60 -184h819l-99 -302h-817l-63 -193h822l-123 -377h-1293l462 1434h1299z" glyph-name="Ecaron" horiz-adv-x="1413" unicode="Ě"/><glyph d="M1220 1468h-600l-132 298h389l48 -128h61l110 128h423zM1466 1056h-824l-60 -184h819l-99 -302h-817l-63 -193h822l-123 -377h-1293l462 1434h1299z" glyph-name="ecaron" horiz-adv-x="1413" unicode="ě"/><glyph d="M1080 1519q-195 0 -285 66.5t-47 232.5h267q-20 -99 93 -99q53 0 93.5 24.5t54.5 74.5h266q-38 -167 -151.5 -233t-290.5 -66zM961 1073q-201 0 -334.5 -139t-133.5 -318q0 -123 78 -189.5t200 -66.5q39 0 78.5 6t95 24t106 60.5t82.5 104.5h-345l79 239h809l-256 -794 h-242l47 174q-96 -102 -240.5 -162t-318.5 -60q-304 0 -474 153.5t-170 433.5q0 186 77.5 357.5t211 301.5t327 206.5t413.5 76.5q305 0 486.5 -162t153.5 -394h-474q-27 68 -95.5 108t-160.5 40z" glyph-name="Gbreve" horiz-adv-x="1701" unicode="Ğ"/><glyph d="M1080 1519q-195 0 -285 66.5t-47 232.5h267q-20 -99 93 -99q53 0 93.5 24.5t54.5 74.5h266q-38 -167 -151.5 -233t-290.5 -66zM961 1073q-201 0 -334.5 -139t-133.5 -318q0 -123 78 -189.5t200 -66.5q39 0 78.5 6t95 24t106 60.5t82.5 104.5h-345l79 239h809l-256 -794 h-242l47 174q-96 -102 -240.5 -162t-318.5 -60q-304 0 -474 153.5t-170 433.5q0 186 77.5 357.5t211 301.5t327 206.5t413.5 76.5q305 0 486.5 -162t153.5 -394h-474q-27 68 -95.5 108t-160.5 40z" glyph-name="gbreve" horiz-adv-x="1701" unicode="ğ"/><glyph d="M1084 1524q-61 0 -101.5 41t-40.5 99q0 73 60.5 130.5t134.5 57.5q61 0 101 -41t40 -99q0 -73 -60.5 -130.5t-133.5 -57.5zM961 1073q-201 0 -334.5 -139t-133.5 -318q0 -123 78 -189.5t200 -66.5q39 0 78.5 6t95 24t106 60.5t82.5 104.5h-345l79 239h809l-256 -794h-242 l47 174q-96 -102 -240.5 -162t-318.5 -60q-304 0 -474 153.5t-170 433.5q0 186 77.5 357.5t211 301.5t327 206.5t413.5 76.5q305 0 486.5 -162t153.5 -394h-474q-27 68 -95.5 108t-160.5 40z" glyph-name="Gdotaccent" horiz-adv-x="1701" unicode="Ġ"/><glyph d="M1084 1524q-61 0 -101.5 41t-40.5 99q0 73 60.5 130.5t134.5 57.5q61 0 101 -41t40 -99q0 -73 -60.5 -130.5t-133.5 -57.5zM961 1073q-201 0 -334.5 -139t-133.5 -318q0 -123 78 -189.5t200 -66.5q39 0 78.5 6t95 24t106 60.5t82.5 104.5h-345l79 239h809l-256 -794h-242 l47 174q-96 -102 -240.5 -162t-318.5 -60q-304 0 -474 153.5t-170 433.5q0 186 77.5 357.5t211 301.5t327 206.5t413.5 76.5q305 0 486.5 -162t153.5 -394h-474q-27 68 -95.5 108t-160.5 40z" glyph-name="gdotaccent" horiz-adv-x="1701" unicode="ġ"/><glyph d="M961 1073q-201 0 -334.5 -139t-133.5 -318q0 -123 78 -189.5t200 -66.5q39 0 78.5 6t95 24t106 60.5t82.5 104.5h-345l79 239h809l-256 -794h-242l47 174q-96 -102 -240.5 -162t-318.5 -60q-304 0 -474 153.5t-170 433.5q0 186 77.5 357.5t211 301.5t327 206.5 t413.5 76.5q305 0 486.5 -162t153.5 -394h-474q-27 68 -95.5 108t-160.5 40zM913 -113l2 5v-3zM323 -452l109 339h481q-164 -486 -336 -693h-219q89 201 128 354h-163z" glyph-name="Gcommaaccent" horiz-adv-x="1701" unicode="Ģ"/><glyph d="M961 1073q-201 0 -334.5 -139t-133.5 -318q0 -123 78 -189.5t200 -66.5q39 0 78.5 6t95 24t106 60.5t82.5 104.5h-345l79 239h809l-256 -794h-242l47 174q-96 -102 -240.5 -162t-318.5 -60q-304 0 -474 153.5t-170 433.5q0 186 77.5 357.5t211 301.5t327 206.5 t413.5 76.5q305 0 486.5 -162t153.5 -394h-474q-27 68 -95.5 108t-160.5 40zM913 -113l2 5v-3zM323 -452l109 339h481q-164 -486 -336 -693h-219q89 201 128 354h-163z" glyph-name="gcommaaccent" horiz-adv-x="1701" unicode="ģ"/><glyph d="M1314 1434h473l-461 -1434h-473l162 502h-549l-162 -502h-473l461 1434h473l-40 -122h550zM591 894h549l31 94h-550z" glyph-name="Hbar" horiz-adv-x="1617" unicode="Ħ"/><glyph d="M1314 1434h473l-461 -1434h-473l162 502h-549l-162 -502h-473l461 1434h473l-40 -122h550zM591 894h549l31 94h-550z" glyph-name="hbar" horiz-adv-x="1617" unicode="ħ"/><glyph d="M159 1526l112 343h785l-112 -343h-785zM-172 0l462 1434h473l-463 -1434h-472z" glyph-name="Imacron" horiz-adv-x="590" unicode="Ī"/><glyph d="M159 1526l112 343h785l-112 -343h-785zM-172 0l462 1434h473l-463 -1434h-472z" glyph-name="imacron" horiz-adv-x="590" unicode="ī"/><glyph d="M300 0q-73 0 -103 -25.5t-30 -59.5q0 -75 87 -74v-256q-67 0 -130.5 12t-127.5 39.5t-103.5 82t-39.5 129.5q0 89 55 152h-80l462 1434h473z" glyph-name="Iogonek" horiz-adv-x="590" unicode="Į"/><glyph d="M300 0q-73 0 -103 -25.5t-30 -59.5q0 -75 87 -74v-256q-67 0 -130.5 12t-127.5 39.5t-103.5 82t-39.5 129.5q0 89 55 152h-80l462 1434h473z" glyph-name="iogonek" horiz-adv-x="590" unicode="į"/><glyph d="M577 1524q-61 0 -101.5 41t-40.5 99q0 73 60.5 130.5t134.5 57.5q61 0 101 -41t40 -99q0 -73 -60.5 -130.5t-133.5 -57.5zM-172 0l462 1434h473l-463 -1434h-472z" glyph-name="Idotaccent" horiz-adv-x="590" unicode="İ"/><glyph d="M-172 0l462 1434h473l-463 -1434h-472z" glyph-name="dotlessi" horiz-adv-x="590" unicode="ı"/><glyph d="M-172 0l462 1434h473l-463 -1434h-472zM1084 -48q-693 0 -497 632h469q-72 -230 122 -231q184 0 259 227l275 854h473l-274 -850q-58 -183 -139.5 -307.5t-188.5 -194.5t-227 -100t-272 -30z" glyph-name="IJ" horiz-adv-x="2012" unicode="Ĳ"/><glyph d="M1809 1434l-771 -651l460 -783h-471l-322 548h-39l-255 -200l-112 -348h-471l467 1434h471l-162 -497h58l606 497h541zM817 -113l2 5v-3zM227 -452l109 339h481q-164 -486 -336 -693h-218q89 201 128 354h-164z" glyph-name="Kcommaaccent" horiz-adv-x="1679" unicode="Ķ"/><glyph d="M1809 1434l-771 -651l460 -783h-471l-322 548h-39l-255 -200l-112 -348h-471l467 1434h471l-162 -497h58l606 497h541zM817 -113l2 5v-3zM227 -452l109 339h481q-164 -486 -336 -693h-218q89 201 128 354h-164z" glyph-name="kcommaaccent" horiz-adv-x="1679" unicode="ķ"/><glyph d="M324 1502l176 299h430l-176 -299h-430zM-172 0l466 1434h472l-339 -1040h792l-127 -394h-1264z" glyph-name="Lacute" horiz-adv-x="1382" unicode="Ĺ"/><glyph d="M324 1502l176 299h430l-176 -299h-430zM-172 0l466 1434h472l-339 -1040h792l-127 -394h-1264z" glyph-name="lacute" horiz-adv-x="1382" unicode="ĺ"/><glyph d="M427 394h792l-127 -394h-1264l466 1434h472zM669 -113l2 5q0 -2 -2 -3v-2zM79 -452l109 339h481q-164 -486 -336 -693h-219q89 201 128 354h-163z" glyph-name="Lcommaaccent" horiz-adv-x="1382" unicode="Ļ"/><glyph d="M427 394h792l-127 -394h-1264l466 1434h472zM669 -113l2 5q0 -2 -2 -3v-2zM79 -452l109 339h481q-164 -486 -336 -693h-219q89 201 128 354h-163z" glyph-name="lcommaaccent" horiz-adv-x="1382" unicode="ļ"/><glyph d="M1459 1439q0 -2 -2 -4v-1zM766 1434l-339 -1040h792l-127 -394h-1264l466 1434h472zM771 1039l127 395h559q-191 -567 -390 -804h-255q101 224 151 409h-192z" glyph-name="Lcaron" horiz-adv-x="1382" unicode="Ľ"/><glyph d="M1459 1439q0 -2 -2 -4v-1zM766 1434l-339 -1040h792l-127 -394h-1264l466 1434h472zM771 1039l127 395h559q-191 -567 -390 -804h-255q101 224 151 409h-192z" glyph-name="lcaron" horiz-adv-x="1382" unicode="ľ"/><glyph d="M-172 0l466 1434h472l-339 -1040h792l-127 -394h-1264zM1092 669q-89 0 -143.5 55.5t-54.5 142.5q0 113 80.5 189.5t189.5 76.5q89 0 143.5 -55.5t54.5 -142.5q0 -113 -80.5 -189.5t-189.5 -76.5z" glyph-name="Ldot" horiz-adv-x="1382" unicode="Ŀ"/><glyph d="M488 394h792l-126 -394h-1265l99 305l-72 -40l29 337l171 99l239 733h473l-130 -400l237 137l-29 -338l-338 -195z" glyph-name="Lslash" horiz-adv-x="1443" unicode="Ł"/><glyph d="M488 394h792l-126 -394h-1265l99 305l-72 -40l29 337l171 99l239 733h473l-130 -400l237 137l-29 -338l-338 -195z" glyph-name="lslash" horiz-adv-x="1443" unicode="ł"/><glyph d="M852 1519l175 299h430l-175 -299h-430zM-172 0l467 1434h524l234 -789h50l259 789h461l-466 -1434h-512l-249 778h-50l-258 -778h-460z" glyph-name="Nacute" horiz-adv-x="1650" unicode="Ń"/><glyph d="M852 1519l175 299h430l-175 -299h-430zM-172 0l467 1434h524l234 -789h50l259 789h461l-466 -1434h-512l-249 778h-50l-258 -778h-460z" glyph-name="nacute" horiz-adv-x="1650" unicode="ń"/><glyph d="M1362 1434h461l-466 -1434h-512l-249 778h-50l-258 -778h-460l467 1434h524l234 -789h50zM819 -113l2 5q0 -2 -2 -3v-2zM229 -452l109 339h481q-164 -486 -336 -693h-218q89 201 128 354h-164z" glyph-name="Ncommaaccent" horiz-adv-x="1650" unicode="Ņ"/><glyph d="M1362 1434h461l-466 -1434h-512l-249 778h-50l-258 -778h-460l467 1434h524l234 -789h50zM819 -113l2 5q0 -2 -2 -3v-2zM229 -452l109 339h481q-164 -486 -336 -693h-218q89 201 128 354h-164z" glyph-name="ncommaaccent" horiz-adv-x="1650" unicode="ņ"/><glyph d="M1638 1766l-298 -298h-601l-131 298h389l47 -128h62l109 128h423zM-172 0l467 1434h524l234 -789h50l259 789h461l-466 -1434h-512l-249 778h-50l-258 -778h-460z" glyph-name="Ncaron" horiz-adv-x="1650" unicode="Ň"/><glyph d="M1638 1766l-298 -298h-601l-131 298h389l47 -128h62l109 128h423zM-172 0l467 1434h524l234 -789h50l259 789h461l-466 -1434h-512l-249 778h-50l-258 -778h-460z" glyph-name="ncaron" horiz-adv-x="1650" unicode="ň"/><glyph d="M1823 1434l-466 -1434l-7 -20q-84 -258 -281 -372.5t-511 -114.5l96 396q67 0 138.5 25t101.5 86h-49l-249 778h-50l-258 -778h-460l467 1434h524l234 -789h50l59 179l41 130h2l157 480h461z" glyph-name="Eng" horiz-adv-x="1650" unicode="Ŋ"/><glyph d="M1823 1434l-466 -1434l-7 -20q-84 -258 -281 -372.5t-511 -114.5l96 396q67 0 138.5 25t101.5 86h-49l-249 778h-50l-258 -778h-460l467 1434h524l234 -789h50l59 179l41 130h2l157 480h461z" glyph-name="eng" horiz-adv-x="1650" unicode="ŋ"/><glyph d="M724 1533l112 343h785l-112 -343h-785zM681 -48q-312 0 -486.5 157t-174.5 434q0 246 131.5 461t366.5 346t518 131q312 0 486 -157t174 -433q0 -246 -131 -461t-366 -346.5t-518 -131.5zM758 360q200 0 332 142.5t135 313.5q0 125 -76 191t-190 66q-200 0 -332 -142.5 t-135 -312.5q0 -125 76 -191.5t190 -66.5z" glyph-name="Omacron" horiz-adv-x="1716" unicode="Ō"/><glyph d="M724 1533l112 343h785l-112 -343h-785zM681 -48q-312 0 -486.5 157t-174.5 434q0 246 131.5 461t366.5 346t518 131q312 0 486 -157t174 -433q0 -246 -131 -461t-366 -346.5t-518 -131.5zM758 360q200 0 332 142.5t135 313.5q0 125 -76 191t-190 66q-200 0 -332 -142.5 t-135 -312.5q0 -125 76 -191.5t190 -66.5z" glyph-name="omacron" horiz-adv-x="1716" unicode="ō"/><glyph d="M652 1526l176 298h430l-176 -298h-430zM1161 1526l175 298h430l-175 -298h-430zM681 -48q-312 0 -486.5 157t-174.5 434q0 246 131.5 461t366.5 346t518 131q312 0 486 -157t174 -433q0 -246 -131 -461t-366 -346.5t-518 -131.5zM758 360q200 0 332 142.5t135 313.5 q0 125 -76 191t-190 66q-200 0 -332 -142.5t-135 -312.5q0 -125 76 -191.5t190 -66.5z" glyph-name="Ohungarumlaut" horiz-adv-x="1716" unicode="Ő"/><glyph d="M652 1526l176 298h430l-176 -298h-430zM1161 1526l175 298h430l-175 -298h-430zM681 -48q-312 0 -486.5 157t-174.5 434q0 246 131.5 461t366.5 346t518 131q312 0 486 -157t174 -433q0 -246 -131 -461t-366 -346.5t-518 -131.5zM758 360q200 0 332 142.5t135 313.5 q0 125 -76 191t-190 66q-200 0 -332 -142.5t-135 -312.5q0 -125 76 -191.5t190 -66.5z" glyph-name="ohungarumlaut" horiz-adv-x="1716" unicode="ő"/><glyph d="M2621 1056h-824l-60 -184h820l-99 -302h-818l-63 -193h823l-123 -377h-1275q-157 -48 -321 -48q-312 0 -486.5 157t-174.5 434q0 246 131.5 461t366.5 346t518 131q234 0 396 -90l14 43h1298zM492 618q0 -125 75.5 -191.5t190.5 -66.5q200 0 332 142.5t135 313.5 q0 125 -76 191t-190 66q-200 0 -332 -142t-135 -313z" glyph-name="OE" horiz-adv-x="2568" unicode="Œ"/><glyph d="M2621 1056h-824l-60 -184h820l-99 -302h-818l-63 -193h823l-123 -377h-1275q-157 -48 -321 -48q-312 0 -486.5 157t-174.5 434q0 246 131.5 461t366.5 346t518 131q234 0 396 -90l14 43h1298zM492 618q0 -125 75.5 -191.5t190.5 -66.5q200 0 332 142.5t135 313.5 q0 125 -76 191t-190 66q-200 0 -332 -142t-135 -313z" glyph-name="oe" horiz-adv-x="2568" unicode="œ"/><glyph d="M1406 1818l-175 -299h-431l176 299h430zM1579 1015q0 -184 -96.5 -327.5t-253.5 -226.5l106 -461h-454l-81 369h-378l-118 -369h-473l461 1434h747q540 -1 540 -419zM638 1041l-104 -326l328 2q87 0 161 53t74 145q0 70 -40 98t-125 28h-294z" glyph-name="Racute" horiz-adv-x="1575" unicode="Ŕ"/><glyph d="M1406 1818l-175 -299h-431l176 299h430zM1579 1015q0 -184 -96.5 -327.5t-253.5 -226.5l106 -461h-454l-81 369h-378l-118 -369h-473l461 1434h747q540 -1 540 -419zM638 1041l-104 -326l328 2q87 0 161 53t74 145q0 70 -40 98t-125 28h-294z" glyph-name="racute" horiz-adv-x="1575" unicode="ŕ"/><glyph d="M1579 1015q0 -184 -96.5 -327.5t-253.5 -226.5l106 -461h-454l-81 369h-378l-118 -369h-473l461 1434h747q540 -1 540 -419zM638 1041l-104 -326l328 2q87 0 161 53t74 145q0 70 -40 98t-125 28h-294zM768 -113l2 5q0 -2 -2 -3v-2zM177 -452l110 339h481 q-164 -486 -336 -693h-219q89 201 128 354h-164z" glyph-name="Rcommaaccent" horiz-adv-x="1575" unicode="Ŗ"/><glyph d="M1579 1015q0 -184 -96.5 -327.5t-253.5 -226.5l106 -461h-454l-81 369h-378l-118 -369h-473l461 1434h747q540 -1 540 -419zM638 1041l-104 -326l328 2q87 0 161 53t74 145q0 70 -40 98t-125 28h-294zM768 -113l2 5q0 -2 -2 -3v-2zM177 -452l110 339h481 q-164 -486 -336 -693h-219q89 201 128 354h-164z" glyph-name="rcommaaccent" horiz-adv-x="1575" unicode="ŗ"/><glyph d="M1289 1468h-601l-132 298h389l48 -128h62l109 128h423zM1039 1434q539 0 540 -419q0 -184 -96.5 -327.5t-253.5 -226.5l106 -461h-454l-81 369h-378l-118 -369h-473l461 1434h747zM638 1041l-104 -326l328 2q87 0 161 53t74 145q0 70 -40 98t-125 28h-294z" glyph-name="Rcaron" horiz-adv-x="1575" unicode="Ř"/><glyph d="M1289 1468h-601l-132 298h389l48 -128h62l109 128h423zM1039 1434q539 0 540 -419q0 -184 -96.5 -327.5t-253.5 -226.5l106 -461h-454l-81 369h-378l-118 -369h-473l461 1434h747zM638 1041l-104 -326l328 2q87 0 161 53t74 145q0 70 -40 98t-125 28h-294z" glyph-name="rcaron" horiz-adv-x="1575" unicode="ř"/><glyph d="M794 1519l175 299h430l-175 -299h-430zM556 -48q-140 0 -248 17t-194.5 54.5t-130 98.5t-53.5 148.5t34 203.5h401q-17 -82 56.5 -121t201.5 -39q137 0 226.5 34t89.5 104q0 87 -166 111l-114 19q-49 7 -75 11t-87.5 18t-99 29t-89.5 44t-82 63.5t-52 86.5t-22 113 q0 251 216 392.5t567 141.5q222 0 375 -60.5t207.5 -175.5t-19.5 -282h-387q12 63 -47 110t-195 47q-121 0 -194 -38t-73 -101q0 -77 137 -100l84 -16q24 -5 83.5 -15t95.5 -17t94 -22.5t95.5 -30.5t81 -43.5t69 -61t42.5 -78.5t17 -102q0 -148 -67.5 -256t-187.5 -169 t-266.5 -89.5t-323.5 -28.5z" glyph-name="Sacute" horiz-adv-x="1525" unicode="Ś"/><glyph d="M794 1519l175 299h430l-175 -299h-430zM556 -48q-140 0 -248 17t-194.5 54.5t-130 98.5t-53.5 148.5t34 203.5h401q-17 -82 56.5 -121t201.5 -39q137 0 226.5 34t89.5 104q0 87 -166 111l-114 19q-49 7 -75 11t-87.5 18t-99 29t-89.5 44t-82 63.5t-52 86.5t-22 113 q0 251 216 392.5t567 141.5q222 0 375 -60.5t207.5 -175.5t-19.5 -282h-387q12 63 -47 110t-195 47q-121 0 -194 -38t-73 -101q0 -77 137 -100l84 -16q24 -5 83.5 -15t95.5 -17t94 -22.5t95.5 -30.5t81 -43.5t69 -61t42.5 -78.5t17 -102q0 -148 -67.5 -256t-187.5 -169 t-266.5 -89.5t-323.5 -28.5z" glyph-name="sacute" horiz-adv-x="1525" unicode="ś"/><glyph d="M1498 963h-387q12 63 -47 110t-195 47q-121 0 -194 -38t-73 -101q0 -77 137 -100l84 -16q24 -5 83.5 -15t95.5 -17t94 -22.5t95.5 -30.5t81 -43.5t69 -61t42.5 -78.5t17 -102q0 -145 -65.5 -252.5t-183.5 -169t-260.5 -90.5t-316.5 -31l-20 -12q58 -14 94.5 -59 t36.5 -120q0 -102 -71.5 -166t-182.5 -72.5t-246 26.5l51 168q65 -22 139.5 -13t74.5 49q0 15 -22.5 26t-66 13.5t-108.5 -10.5l29 95l118 82q-601 49 -437 515h401q-17 -82 56.5 -121t201.5 -39q137 0 226.5 34t89.5 104q0 87 -166 111l-114 19q-49 7 -75 11t-87.5 18 t-99 29t-89.5 44t-82 63.5t-52 86.5t-22 113q0 251 216 392.5t567 141.5q222 0 375 -60.5t207 -175.5t-19 -282z" glyph-name="Scedilla" horiz-adv-x="1525" unicode="Ş"/><glyph d="M1498 963h-387q12 63 -47 110t-195 47q-121 0 -194 -38t-73 -101q0 -77 137 -100l84 -16q24 -5 83.5 -15t95.5 -17t94 -22.5t95.5 -30.5t81 -43.5t69 -61t42.5 -78.5t17 -102q0 -145 -65.5 -252.5t-183.5 -169t-260.5 -90.5t-316.5 -31l-20 -12q58 -14 94.5 -59 t36.5 -120q0 -102 -71.5 -166t-182.5 -72.5t-246 26.5l51 168q65 -22 139.5 -13t74.5 49q0 15 -22.5 26t-66 13.5t-108.5 -10.5l29 95l118 82q-601 49 -437 515h401q-17 -82 56.5 -121t201.5 -39q137 0 226.5 34t89.5 104q0 87 -166 111l-114 19q-49 7 -75 11t-87.5 18 t-99 29t-89.5 44t-82 63.5t-52 86.5t-22 113q0 251 216 392.5t567 141.5q222 0 375 -60.5t207 -175.5t-19 -282z" glyph-name="scedilla" horiz-adv-x="1525" unicode="ş"/><glyph d="M1130 1468q251 -38 356 -170t12 -335h-387q12 63 -47 110t-195 47q-121 0 -194 -38t-73 -101q0 -77 137 -100l84 -16q24 -5 83.5 -15t95.5 -17t94 -22.5t95.5 -30.5t81 -43.5t69 -61t42.5 -78.5t17 -102q0 -148 -67.5 -256t-187.5 -169t-266 -89.5t-324 -28.5 q-140 0 -248 17t-194.5 54.5t-130 98.5t-53.5 148.5t34 203.5h401q-17 -82 56.5 -121t201.5 -39q137 0 226.5 34t89.5 104q0 87 -166 111l-114 19q-49 7 -75 11t-87.5 18t-99 29t-89.5 44t-82 63.5t-52 86.5t-22 113q0 212 156 347.5t424 173.5h-51l-131 298h389l47 -128h62 l109 128h423l-298 -298h-152z" glyph-name="Scaron" horiz-adv-x="1525" unicode="Š"/><glyph d="M1130 1468q251 -38 356 -170t12 -335h-387q12 63 -47 110t-195 47q-121 0 -194 -38t-73 -101q0 -77 137 -100l84 -16q24 -5 83.5 -15t95.5 -17t94 -22.5t95.5 -30.5t81 -43.5t69 -61t42.5 -78.5t17 -102q0 -148 -67.5 -256t-187.5 -169t-266 -89.5t-324 -28.5 q-140 0 -248 17t-194.5 54.5t-130 98.5t-53.5 148.5t34 203.5h401q-17 -82 56.5 -121t201.5 -39q137 0 226.5 34t89.5 104q0 87 -166 111l-114 19q-49 7 -75 11t-87.5 18t-99 29t-89.5 44t-82 63.5t-52 86.5t-22 113q0 212 156 347.5t424 173.5h-51l-131 298h389l47 -128h62 l109 128h423l-298 -298h-152z" glyph-name="scaron" horiz-adv-x="1525" unicode="š"/><glyph d="M1778 1434l-128 -395h-505l-339 -1039h-118l-101 -60q58 -14 95 -59t37 -120q0 -102 -72 -166t-183 -72.5t-246 26.5l52 168q65 -22 139 -13t74 49q0 15 -22 26t-65.5 13.5t-108.5 -10.5l29 95l177 123h-160l339 1039h-517l127 395h1496z" glyph-name="Tcommaaccent" horiz-adv-x="1597" unicode="Ţ"/><glyph d="M1778 1434l-128 -395h-505l-339 -1039h-118l-101 -60q58 -14 95 -59t37 -120q0 -102 -72 -166t-183 -72.5t-246 26.5l52 168q65 -22 139 -13t74 49q0 15 -22 26t-65.5 13.5t-108.5 -10.5l29 95l177 123h-160l339 1039h-517l127 395h1496z" glyph-name="tcommaaccent" horiz-adv-x="1597" unicode="ţ"/><glyph d="M1314 1468h-601l-131 298h389l48 -128h61l110 128h423zM1778 1434l-128 -395h-505l-339 -1039h-473l339 1039h-517l127 395h1496z" glyph-name="Tcaron" horiz-adv-x="1597" unicode="Ť"/><glyph d="M1314 1468h-601l-131 298h389l48 -128h61l110 128h423zM1778 1434l-128 -395h-505l-339 -1039h-473l339 1039h-517l127 395h1496z" glyph-name="tcaron" horiz-adv-x="1597" unicode="ť"/><glyph d="M1650 1039h-505l-63 -191h401l-130 -387h-397l-150 -461h-473l150 461h-386l130 387h382l63 191h-517l127 395h1496z" glyph-name="Tbar" horiz-adv-x="1597" unicode="Ŧ"/><glyph d="M1650 1039h-505l-63 -191h401l-130 -387h-397l-150 -461h-473l150 461h-386l130 387h382l63 191h-517l127 395h1496z" glyph-name="tbar" horiz-adv-x="1597" unicode="ŧ"/><glyph d="M678 1526l112 343h785l-112 -343h-785zM623 -48q-396 0 -547 177.5t-40 515.5l259 789h480l-273 -825q-43 -126 3 -195t184 -69q142 0 228.5 75t138.5 237l253 777h480l-272 -833q-114 -352 -323 -500.5t-571 -148.5z" glyph-name="Umacron" horiz-adv-x="1616" unicode="Ū"/><glyph d="M678 1526l112 343h785l-112 -343h-785zM623 -48q-396 0 -547 177.5t-40 515.5l259 789h480l-273 -825q-43 -126 3 -195t184 -69q142 0 228.5 75t138.5 237l253 777h480l-272 -833q-114 -352 -323 -500.5t-571 -148.5z" glyph-name="umacron" horiz-adv-x="1616" unicode="ū"/><glyph d="M1092 1519q-195 0 -285 66.5t-48 232.5h268q-20 -99 93 -99q53 0 93.5 24.5t54.5 74.5h266q-38 -167 -151.5 -233t-290.5 -66zM623 -48q-396 0 -547 177.5t-40 515.5l259 789h480l-273 -825q-43 -126 3 -195t184 -69q142 0 228.5 75t138.5 237l253 777h480l-272 -833 q-114 -352 -323 -500.5t-571 -148.5z" glyph-name="Ubreve" horiz-adv-x="1616" unicode="Ŭ"/><glyph d="M1092 1519q-195 0 -285 66.5t-48 232.5h268q-20 -99 93 -99q53 0 93.5 24.5t54.5 74.5h266q-38 -167 -151.5 -233t-290.5 -66zM623 -48q-396 0 -547 177.5t-40 515.5l259 789h480l-273 -825q-43 -126 3 -195t184 -69q142 0 228.5 75t138.5 237l253 777h480l-272 -833 q-114 -352 -323 -500.5t-571 -148.5z" glyph-name="ubreve" horiz-adv-x="1616" unicode="ŭ"/><glyph d="M1027 1408q-92 0 -147.5 56.5t-55.5 144.5q0 123 85.5 203.5t198.5 80.5q90 0 144.5 -55.5t54.5 -142.5q0 -118 -82 -202.5t-198 -84.5zM1058 1603q26 0 43 18.5t17 44.5q0 14 -10.5 25t-28.5 11q-26 0 -43 -19t-17 -45q0 -14 10 -24.5t29 -10.5zM623 -48 q-396 0 -547 177.5t-40 515.5l259 789h480l-273 -825q-43 -126 3 -195t184 -69q142 0 228.5 75t138.5 237l253 777h480l-272 -833q-114 -352 -323 -500.5t-571 -148.5z" glyph-name="Uring" horiz-adv-x="1616" unicode="Ů"/><glyph d="M1027 1408q-92 0 -147.5 56.5t-55.5 144.5q0 123 85.5 203.5t198.5 80.5q90 0 144.5 -55.5t54.5 -142.5q0 -118 -82 -202.5t-198 -84.5zM1058 1603q26 0 43 18.5t17 44.5q0 14 -10.5 25t-28.5 11q-26 0 -43 -19t-17 -45q0 -14 10 -24.5t29 -10.5zM623 -48 q-396 0 -547 177.5t-40 515.5l259 789h480l-273 -825q-43 -126 3 -195t184 -69q142 0 228.5 75t138.5 237l253 777h480l-272 -833q-114 -352 -323 -500.5t-571 -148.5z" glyph-name="uring" horiz-adv-x="1616" unicode="ů"/><glyph d="M606 1519l176 299h430l-176 -299h-430zM1114 1519l176 299h430l-175 -299h-431zM623 -48q-396 0 -547 177.5t-40 515.5l259 789h480l-273 -825q-43 -126 3 -195t184 -69q142 0 228.5 75t138.5 237l253 777h480l-272 -833q-114 -352 -323 -500.5t-571 -148.5z" glyph-name="Uhungarumlaut" horiz-adv-x="1616" unicode="Ű"/><glyph d="M606 1519l176 299h430l-176 -299h-430zM1114 1519l176 299h430l-175 -299h-431zM623 -48q-396 0 -547 177.5t-40 515.5l259 789h480l-273 -825q-43 -126 3 -195t184 -69q142 0 228.5 75t138.5 237l253 777h480l-272 -833q-114 -352 -323 -500.5t-571 -148.5z" glyph-name="uhungarumlaut" horiz-adv-x="1616" unicode="ű"/><glyph d="M1309 1434h480l-272 -833q-99 -304 -265.5 -453.5t-435.5 -183.5v-2q-166 -14 -166 -64q0 -7 2.5 -14t9.5 -18t26.5 -18t48.5 -7v-256q-67 0 -130.5 12t-127.5 38.5t-103.5 80.5t-39.5 127q0 80 50 130q-263 49 -352 219t2 453l259 789h480l-273 -825q-43 -126 3 -195 t184 -69q142 0 228.5 75t138.5 237z" glyph-name="Uogonek" horiz-adv-x="1616" unicode="Ų"/><glyph d="M1309 1434h480l-272 -833q-99 -304 -265.5 -453.5t-435.5 -183.5v-2q-166 -14 -166 -64q0 -7 2.5 -14t9.5 -18t26.5 -18t48.5 -7v-256q-67 0 -130.5 12t-127.5 38.5t-103.5 80.5t-39.5 127q0 80 50 130q-263 49 -352 219t2 453l259 789h480l-273 -825q-43 -126 3 -195 t184 -69q142 0 228.5 75t138.5 237z" glyph-name="uogonek" horiz-adv-x="1616" unicode="ų"/><glyph d="M797 1519l299 299h600l132 -299h-389l-48 128h-62l-109 -128h-423zM72 0l186 1434h472l-146 -929h42l500 929h374l-90 -929h42l449 929h490l-741 -1434h-636l89 689h-41l-354 -689h-636z" glyph-name="Wcircumflex" horiz-adv-x="2193" unicode="Ŵ"/><glyph d="M797 1519l299 299h600l132 -299h-389l-48 128h-62l-109 -128h-423zM72 0l186 1434h472l-146 -929h42l500 929h374l-90 -929h42l449 929h490l-741 -1434h-636l89 689h-41l-354 -689h-636z" glyph-name="wcircumflex" horiz-adv-x="2193" unicode="ŵ"/><glyph d="M1044 1647l-109 -128h-423l299 299h600l132 -299h-389l-48 128h-62zM1852 1434l-900 -994l-141 -440h-473l148 466l-254 968h476l127 -528h37l459 528h521z" glyph-name="Ycircumflex" horiz-adv-x="1636" unicode="Ŷ"/><glyph d="M1044 1647l-109 -128h-423l299 299h600l132 -299h-389l-48 128h-62zM1852 1434l-900 -994l-141 -440h-473l148 466l-254 968h476l127 -528h37l459 528h521z" glyph-name="ycircumflex" horiz-adv-x="1636" unicode="ŷ"/><glyph d="M792 1524q-61 0 -101.5 41t-40.5 99q0 73 60.5 130.5t134.5 57.5q61 0 101 -41t40 -99q0 -73 -60.5 -130.5t-133.5 -57.5zM1321 1524q-61 0 -101.5 41t-40.5 99q0 73 60.5 130.5t134.5 57.5q61 0 101.5 -41t40.5 -99q0 -73 -61 -130.5t-134 -57.5zM1852 1434l-900 -994 l-141 -440h-473l148 466l-254 968h476l127 -528h37l459 528h521z" glyph-name="Ydieresis" horiz-adv-x="1636" unicode="Ÿ"/><glyph d="M748 1519l175 299h430l-175 -299h-430zM-186 0l125 387l923 618l15 38h-713l130 391h1344l-126 -388l-923 -618l-16 -37h714l-130 -391h-1343z" glyph-name="Zacute" horiz-adv-x="1448" unicode="Ź"/><glyph d="M748 1519l175 299h430l-175 -299h-430zM-186 0l125 387l923 618l15 38h-713l130 391h1344l-126 -388l-923 -618l-16 -37h714l-130 -391h-1343z" glyph-name="zacute" horiz-adv-x="1448" unicode="ź"/><glyph d="M1009 1524q-61 0 -101.5 41t-40.5 99q0 73 60.5 130.5t134.5 57.5q61 0 101 -41t40 -99q0 -73 -60.5 -130.5t-133.5 -57.5zM-186 0l125 387l923 618l15 38h-713l130 391h1344l-126 -388l-923 -618l-16 -37h714l-130 -391h-1343z" glyph-name="Zdotaccent" horiz-adv-x="1448" unicode="Ż"/><glyph d="M1009 1524q-61 0 -101.5 41t-40.5 99q0 73 60.5 130.5t134.5 57.5q61 0 101 -41t40 -99q0 -73 -60.5 -130.5t-133.5 -57.5zM-186 0l125 387l923 618l15 38h-713l130 391h1344l-126 -388l-923 -618l-16 -37h714l-130 -391h-1343z" glyph-name="zdotaccent" horiz-adv-x="1448" unicode="ż"/><glyph d="M1534 1766l-298 -298h-601l-132 298h390l47 -128h62l109 128h423zM-186 0l125 387l923 618l15 38h-713l130 391h1344l-126 -388l-923 -618l-16 -37h714l-130 -391h-1343z" glyph-name="Zcaron" horiz-adv-x="1448" unicode="Ž"/><glyph d="M1534 1766l-298 -298h-601l-132 298h390l47 -128h62l109 128h423zM-186 0l125 387l923 618l15 38h-713l130 391h1344l-126 -388l-923 -618l-16 -37h714l-130 -391h-1343z" glyph-name="zcaron" horiz-adv-x="1448" unicode="ž"/><glyph d="M1198 1164q-166 0 -217 -154l-22 -71h374l-118 -360h-372l-53 -166q-73 -222 -244.5 -331t-385.5 -109q-208 0 -295 65l109 341q121 -46 192 -46q166 0 216 153l29 93h-365l118 360h363l46 145q73 222 245 331t385 109q208 0 295 -65l-109 -341q-121 46 -191 46z" glyph-name="florin" horiz-adv-x="1343" unicode="ƒ"/><glyph d="M1386 1468h-601l-131 298h389l48 -128h61l109 128h423zM751 1434h666l64 -1434h-469l-3 189h-605l-124 -189h-504zM635 539h370l-7 451h-68z" glyph-name="uni01CD" unicode="Ǎ"/><glyph d="M1386 1468h-601l-131 298h389l48 -128h61l109 128h423zM751 1434h666l64 -1434h-469l-3 189h-605l-124 -189h-504zM635 539h370l-7 451h-68z" glyph-name="uni01CE" unicode="ǎ"/><glyph d="M1103 1766l-299 -298h-601l-131 298h389l48 -128h61l109 128h424zM-172 0l462 1434h473l-463 -1434h-472z" glyph-name="uni01CF" horiz-adv-x="590" unicode="Ǐ"/><glyph d="M1103 1766l-299 -298h-601l-131 298h389l48 -128h61l109 128h424zM-172 0l462 1434h473l-463 -1434h-472z" glyph-name="uni01D0" horiz-adv-x="590" unicode="ǐ"/><glyph d="M1159 1475q256 -29 396.5 -183t140.5 -401q0 -246 -131 -461t-366 -346.5t-518 -131.5q-312 0 -486.5 157t-174.5 434q0 348 254.5 618.5t638.5 313.5h-145l-131 298h389l47 -128h62l109 128h423l-298 -298h-210zM758 360q200 0 332 142.5t135 313.5q0 125 -76 191 t-190 66q-200 0 -332 -142.5t-135 -312.5q0 -125 76 -191.5t190 -66.5z" glyph-name="uni01D1" horiz-adv-x="1716" unicode="Ǒ"/><glyph d="M1159 1475q256 -29 396.5 -183t140.5 -401q0 -246 -131 -461t-366 -346.5t-518 -131.5q-312 0 -486.5 157t-174.5 434q0 348 254.5 618.5t638.5 313.5h-145l-131 298h389l47 -128h62l109 128h423l-298 -298h-210zM758 360q200 0 332 142.5t135 313.5q0 125 -76 191 t-190 66q-200 0 -332 -142.5t-135 -312.5q0 -125 76 -191.5t190 -66.5z" glyph-name="uni01D2" horiz-adv-x="1716" unicode="ǒ"/><glyph d="M1621 1766l-298 -298h-601l-131 298h389l47 -128h62l109 128h423zM623 -48q-396 0 -547 177.5t-40 515.5l259 789h480l-273 -825q-43 -126 3 -195t184 -69q142 0 228.5 75t138.5 237l253 777h480l-272 -833q-114 -352 -323 -500.5t-571 -148.5z" glyph-name="uni01D3" horiz-adv-x="1616" unicode="Ǔ"/><glyph d="M1621 1766l-298 -298h-601l-131 298h389l47 -128h62l109 128h423zM623 -48q-396 0 -547 177.5t-40 515.5l259 789h480l-273 -825q-43 -126 3 -195t184 -69q142 0 228.5 75t138.5 237l253 777h480l-272 -833q-114 -352 -323 -500.5t-571 -148.5z" glyph-name="uni01D4" horiz-adv-x="1616" unicode="ǔ"/><glyph d="M1696 891q0 -350 -256 -620.5t-641 -311.5q-12 -19 -12 -41q0 -75 87 -73v-256q-67 0 -131 12t-128 39t-103 81.5t-39 130.5q0 67 29 116q-232 43 -357 192t-125 383q0 246 131.5 461t366.5 346t518 131q312 0 486 -157t174 -433zM959 1073q-200 0 -332 -142.5 t-135 -312.5q0 -125 75.5 -191.5t190.5 -66.5q200 0 332 142.5t135 313.5q0 125 -76 191t-190 66z" glyph-name="uni01EA" horiz-adv-x="1716" unicode="Ǫ"/><glyph d="M1498 963h-387q12 63 -47 110t-195 47q-121 0 -194 -38t-73 -101q0 -77 137 -100l84 -16q24 -5 83.5 -15t95.5 -17t94 -22.5t95.5 -30.5t81 -43.5t69 -61t42.5 -78.5t17 -102q0 -148 -67.5 -256t-187.5 -169t-266 -89.5t-324 -28.5q-140 0 -248 17t-194.5 54.5t-130 98.5 t-53.5 148.5t34 203.5h401q-17 -82 56.5 -121t201.5 -39q137 0 226.5 34t89.5 104q0 87 -166 111l-114 19q-49 7 -75 11t-87.5 18t-99 29t-89.5 44t-82 63.5t-52 86.5t-22 113q0 251 216 392.5t567 141.5q222 0 375 -60.5t207 -175.5t-19 -282zM761 -113l2 5q0 -2 -2 -3v-2z M171 -452l109 339h481q-164 -486 -336 -693h-218q89 201 128 354h-164z" glyph-name="Scommaaccent" horiz-adv-x="1525" unicode="Ș"/><glyph d="M1498 963h-387q12 63 -47 110t-195 47q-121 0 -194 -38t-73 -101q0 -77 137 -100l84 -16q24 -5 83.5 -15t95.5 -17t94 -22.5t95.5 -30.5t81 -43.5t69 -61t42.5 -78.5t17 -102q0 -148 -67.5 -256t-187.5 -169t-266 -89.5t-324 -28.5q-140 0 -248 17t-194.5 54.5t-130 98.5 t-53.5 148.5t34 203.5h401q-17 -82 56.5 -121t201.5 -39q137 0 226.5 34t89.5 104q0 87 -166 111l-114 19q-49 7 -75 11t-87.5 18t-99 29t-89.5 44t-82 63.5t-52 86.5t-22 113q0 251 216 392.5t567 141.5q222 0 375 -60.5t207 -175.5t-19 -282zM761 -113l2 5q0 -2 -2 -3v-2z M171 -452l109 339h481q-164 -486 -336 -693h-218q89 201 128 354h-164z" glyph-name="scommaaccent" horiz-adv-x="1525" unicode="ș"/><glyph d="M1778 1434l-128 -395h-505l-339 -1039h-473l339 1039h-517l127 395h1496zM794 -113l1 5v-3zM203 -452l109 339h482q-164 -486 -337 -693h-218q89 201 128 354h-164z" glyph-name="uni021A" horiz-adv-x="1597" unicode="Ț"/><glyph d="M1778 1434l-128 -395h-505l-339 -1039h-473l339 1039h-517l127 395h1496zM794 -113l1 5v-3zM203 -452l109 339h482q-164 -486 -337 -693h-218q89 201 128 354h-164z" glyph-name="uni021B" horiz-adv-x="1597" unicode="ț"/><glyph d="M143 1161l299 298h601l131 -298h-389l-48 128h-61l-109 -128h-424z" glyph-name="circumflex" horiz-adv-x="1030" unicode="ˆ"/><glyph d="M1256 1408l-299 -299h-600l-132 299h389l48 -128h62l109 128h423z" glyph-name="caron" horiz-adv-x="1030" unicode="ˇ"/><glyph d="M572 1161q-195 0 -285.5 66.5t-47.5 231.5h268q-20 -99 92 -99q53 0 94 25t55 74h266q-38 -167 -151.5 -232.5t-290.5 -65.5z" glyph-name="breve" horiz-adv-x="774" unicode="˘"/><glyph d="M341 1166q-61 0 -101 41t-40 99q0 73 60.5 130t133.5 57q61 0 101.5 -41t40.5 -99q0 -73 -61 -130t-134 -57z" glyph-name="dotaccent" horiz-adv-x="336" unicode="˙"/><glyph d="M393 1050q-92 0 -148 56t-56 145q0 123 85.5 203t198.5 80q90 0 144.5 -55.5t54.5 -142.5q0 -118 -81.5 -202t-197.5 -84zM423 1244q26 0 43 19t17 44q0 14 -10 25t-29 11q-26 0 -43 -18.5t-17 -44.5q0 -14 10 -25t29 -11z" glyph-name="ring" horiz-adv-x="484" unicode="˚"/><glyph d="M133 -415q-67 0 -130.5 12t-127.5 39.5t-103.5 82t-39.5 129.5q0 258 447 270v-118q-73 0 -103 -25.5t-30 -59.5q0 -75 87 -74v-256z" glyph-name="ogonek" horiz-adv-x="500" unicode="˛"/><glyph d="M773 1157q-84 0 -193 49.5t-158 49.5q-97 0 -106 -72h-128q-22 142 55.5 215.5t191.5 73.5q82 0 192 -49.5t160 -49.5q97 0 106 72h128q22 -143 -55 -216t-193 -73z" glyph-name="tilde" horiz-adv-x="820" unicode="˜"/><glyph d="M143 1161l176 298h430l-176 -298h-430zM652 1161l176 298h430l-176 -298h-430z" glyph-name="hungarumlaut" horiz-adv-x="1018" unicode="˝"/><glyph d="M-283 -108v-3l-2 -2zM-876 -452l110 339h481q-164 -486 -336 -693h-219q89 201 128 354h-164z" glyph-name="uni0326" horiz-adv-x="0" unicode="̦"/><glyph d="M1401 1434l65 -1434h-1690l975 1434h650zM538 379h459l-11 611h-54z" glyph-name="Delta" horiz-adv-x="1681" unicode="Δ"/><glyph d="M-198 0l118 364h213l19 63q-82 99 -82 240q0 227 137.5 416.5t356 293.5t458.5 104q294 0 457 -129.5t163 -330.5q0 -162 -91.5 -317.5t-244.5 -259.5l-28 -80h202l-118 -364h-700l142 490q145 39 250 154t105 249q0 181 -234 180q-162 0 -285 -112.5t-123 -262.5 q0 -140 126 -208l-141 -490h-700z" glyph-name="Omega" horiz-adv-x="1628" unicode="Ω"/><glyph d="M1024 1161h473l-376 -1161h-464l41 152h-39q-152 -176 -369 -179l-73 -229h-473l459 1417h473l-213 -661q-15 -58 -14.5 -93t21 -53t37.5 -23t36 -5q92 0 169.5 62.5t103.5 128.5z" glyph-name="mu" horiz-adv-x="1413" unicode="μ"/><glyph d="M1485 826l-128 -393q-3 -10 -4 -18.5t-2 -13.5t1.5 -9.5t3.5 -6t7 -2.5t8.5 -1h11h10.5q26 0 50.5 4.5t39 7t21.5 0.5l-76 -343q-77 -65 -268 -65t-275.5 96.5t-15.5 304.5l143 439h-300l-268 -826h-473l268 826h-142l106 335h1531l-106 -335h-143z" glyph-name="pi" horiz-adv-x="1703" unicode="π"/><glyph d="M1551 1519h-430l-176 299h431zM72 0l186 1434h472l-146 -929h42l500 929h374l-90 -929h42l449 929h490l-741 -1434h-636l89 689h-41l-354 -689h-636z" glyph-name="Wgrave" horiz-adv-x="2193" unicode="Ẁ"/><glyph d="M1551 1519h-430l-176 299h431zM72 0l186 1434h472l-146 -929h42l500 929h374l-90 -929h42l449 929h490l-741 -1434h-636l89 689h-41l-354 -689h-636z" glyph-name="wgrave" horiz-adv-x="2193" unicode="ẁ"/><glyph d="M1116 1519l176 299h430l-176 -299h-430zM72 0l186 1434h472l-146 -929h42l500 929h374l-90 -929h42l449 929h490l-741 -1434h-636l89 689h-41l-354 -689h-636z" glyph-name="Wacute" horiz-adv-x="2193" unicode="Ẃ"/><glyph d="M1116 1519l176 299h430l-176 -299h-430zM72 0l186 1434h472l-146 -929h42l500 929h374l-90 -929h42l449 929h490l-741 -1434h-636l89 689h-41l-354 -689h-636z" glyph-name="wacute" horiz-adv-x="2193" unicode="ẃ"/><glyph d="M1077 1524q-61 0 -101.5 41t-40.5 99q0 73 60.5 130.5t134.5 57.5q61 0 101 -41t40 -99q0 -73 -60.5 -130.5t-133.5 -57.5zM1606 1524q-61 0 -101.5 41t-40.5 99q0 73 60.5 130.5t134.5 57.5q61 0 101.5 -41t40.5 -99q0 -73 -61 -130.5t-134 -57.5zM72 0l186 1434h472 l-146 -929h42l500 929h374l-90 -929h42l449 929h490l-741 -1434h-636l89 689h-41l-354 -689h-636z" glyph-name="Wdieresis" horiz-adv-x="2193" unicode="Ẅ"/><glyph d="M1077 1524q-61 0 -101.5 41t-40.5 99q0 73 60.5 130.5t134.5 57.5q61 0 101 -41t40 -99q0 -73 -60.5 -130.5t-133.5 -57.5zM1606 1524q-61 0 -101.5 41t-40.5 99q0 73 60.5 130.5t134.5 57.5q61 0 101.5 -41t40.5 -99q0 -73 -61 -130.5t-134 -57.5zM72 0l186 1434h472 l-146 -929h42l500 929h374l-90 -929h42l449 929h490l-741 -1434h-636l89 689h-41l-354 -689h-636z" glyph-name="wdieresis" horiz-adv-x="2193" unicode="ẅ"/><glyph d="M1270 816q164 10 263.5 -70t99.5 -208q0 -266 -193.5 -421t-494.5 -155q-302 0 -401 118t-25 314h387q-10 -65 31 -94.5t80 -29.5q72 0 125.5 48.5t53.5 114.5q0 51 -32 78.5t-84 27.5q-67 0 -116 -46h-389l487 546h-243q-73 0 -140.5 -52t-94.5 -147l-273 -840h-480 l317 990q46 140 104.5 228.5t143 135.5t178 63.5t235.5 16.5h1046z" glyph-name="uni1E9E" horiz-adv-x="1756" unicode="ẞ"/><glyph d="M1266 1519h-430l-176 299h431zM1852 1434l-900 -994l-141 -440h-473l148 466l-254 968h476l127 -528h37l459 528h521z" glyph-name="Ygrave" horiz-adv-x="1636" unicode="Ỳ"/><glyph d="M1266 1519h-430l-176 299h431zM1852 1434l-900 -994l-141 -440h-473l148 466l-254 968h476l127 -528h37l459 528h521z" glyph-name="ygrave" horiz-adv-x="1636" unicode="ỳ"/><glyph d="M-7 488l128 394h1400l-128 -394h-1400z" glyph-name="endash" horiz-adv-x="1536" unicode="–"/><glyph d="M-7 488l128 394h1536l-128 -394h-1536z" glyph-name="emdash" horiz-adv-x="1672" unicode="—"/><glyph d="M744 1027l-126 -394h-560q191 567 391 804h254q-101 -224 -150 -410h191zM56 628l2 5v-2z" glyph-name="quoteleft" horiz-adv-x="730" unicode="‘"/><glyph d="M877 1439v-4l-1 -1zM189 1039l127 395h560q-191 -567 -391 -804h-255q101 224 151 409h-192z" glyph-name="quoteright" horiz-adv-x="728" unicode="’"/><glyph d="M541 399l-2 -5v2zM-147 0l127 394h559q-191 -567 -391 -804h-254q101 224 150 410h-191z" glyph-name="quotesinglbase" horiz-adv-x="728" unicode="‚"/><glyph d="M642 1437q-87 -215 -133 -410h169l-111 -394h-499l-1 -5q167 567 349 809h226zM1239 1437q-87 -215 -133 -410h169l-111 -394h-498l-2 -5q167 567 350 809h225z" glyph-name="quotedblleft" horiz-adv-x="1273" unicode="“"/><glyph d="M241 630q87 215 133 409h-169l111 395h498l2 5q-167 -567 -350 -809h-225zM838 630q87 215 133 409h-169l111 395h498l2 5q-167 -567 -350 -809h-225z" glyph-name="quotedblright" horiz-adv-x="1271" unicode="”"/><glyph d="M-116 -473q87 215 133 410h-169l111 394h498l2 5q-167 -567 -350 -809h-225zM481 -473q87 215 133 410h-169l111 394h499l1 5q-167 -567 -349 -809h-226z" glyph-name="quotedblbase" horiz-adv-x="1276" unicode="„"/><glyph d="M1381 1193l-123 -381h-367l-118 -361h-415l118 361h-358l123 381h360l119 363h415l-120 -363h366z" glyph-name="dagger" horiz-adv-x="1314" unicode="†"/><glyph d="M1258 812h-362l-114 -346h365l-123 -381h-367l-118 -361h-414l117 361h-358l123 381h357l112 346h-358l123 381h360l119 363h415l-120 -363h366z" glyph-name="daggerdbl" horiz-adv-x="1314" unicode="‡"/><glyph d="M452 357q-130 0 -207.5 79t-77.5 202q0 176 136.5 307.5t302.5 131.5q130 0 207.5 -79.5t77.5 -202.5q0 -176 -136 -307t-303 -131z" glyph-name="bullet" horiz-adv-x="1058" unicode="•"/><glyph d="M96 -27q-89 0 -143.5 55.5t-54.5 142.5q0 113 80 189.5t189 76.5q89 0 143.5 -55.5t54.5 -142.5q0 -113 -80 -189.5t-189 -76.5zM708 -27q-89 0 -143.5 55.5t-54.5 142.5q0 113 80.5 189.5t189.5 76.5q89 0 143.5 -55.5t54.5 -142.5q0 -113 -80.5 -189.5t-189.5 -76.5z M1321 -27q-89 0 -143.5 55.5t-54.5 142.5q0 113 80 189.5t190 76.5q89 0 143.5 -55.5t54.5 -142.5q0 -113 -80.5 -189.5t-189.5 -76.5z" glyph-name="ellipsis" horiz-adv-x="1810" unicode="…"/><glyph d="M406 -49l-172 133l1374 1408l169 -133zM514 691q-147 0 -233 76t-86 214q0 184 142.5 328.5t341.5 144.5q143 0 231 -77t88 -216q0 -189 -139.5 -329.5t-344.5 -140.5zM568 963q55 0 97 40.5t42 95.5q0 84 -84 84q-53 0 -95 -42t-42 -95q0 -83 82 -83zM1335 -20 q-147 0 -233.5 75.5t-86.5 214.5q0 184 142.5 328t342.5 144q143 0 231 -76.5t88 -216.5q0 -189 -139.5 -329t-344.5 -140zM2186 -20q-147 0 -233 75.5t-86 214.5q0 184 142.5 328t342.5 144q143 0 231 -76.5t88 -216.5q0 -189 -140 -329t-345 -140zM1389 251q55 0 96.5 41 t41.5 95q0 84 -83 84q-55 0 -96 -41t-41 -95q0 -84 82 -84zM2241 251q55 0 96.5 41t41.5 95q0 84 -84 84q-53 0 -94.5 -41t-41.5 -95q0 -84 82 -84z" glyph-name="perthousand" horiz-adv-x="2867" unicode="‰"/><glyph d="M1104 1229l-496 -510l186 -514h-511l-181 514l500 510h502z" glyph-name="guilsinglleft" horiz-adv-x="1059" unicode="‹"/><glyph d="M-44 205l496 510l-186 514h511l180 -514l-500 -510h-501z" glyph-name="guilsinglright" horiz-adv-x="1059" unicode="›"/><glyph d="M1019 1073q-111 0 -203 -50t-152 -134h295l-51 -155h-319q-10 -44 -12 -65h309l-51 -157h-244q29 -73 94.5 -112.5t152.5 -39.5q237 0 362 220h433q-48 -145 -127 -258.5t-168.5 -181.5t-196.5 -111.5t-200 -60t-188 -16.5q-287 0 -451.5 148.5t-176.5 411.5h-156l51 157 h113q0 10 2 20.5t4.5 23t3.5 21.5h-100l51 155h97q109 263 353 427.5t562 164.5q312 0 485.5 -185t110.5 -449h-432q-3 109 -72.5 167.5t-178.5 58.5z" glyph-name="Euro" horiz-adv-x="1713" unicode="€"/><glyph d="M1626 715q-133 0 -210.5 74.5t-77.5 202.5q0 184 136.5 318t327.5 134q133 0 211 -76t78 -202q0 -183 -137 -317t-328 -134zM-172 0l464 1434h418l-19 -673h41l217 673h427l-465 -1434h-418l17 674h-41l-215 -674h-426zM1681 966q63 0 106 45t43 97q0 82 -84 82 q-63 0 -106.5 -45.5t-43.5 -98.5q0 -80 85 -80zM1085 137l122 373h641l-121 -373h-642z" glyph-name="afii61352" horiz-adv-x="2000" unicode="№"/><glyph d="M1357 1434h292l-210 -649h-200l118 367h-19l-174 -367h-201l68 367h-29l-118 -367h-200l151 466h-176l-150 -466h-221l152 466h-216l59 183h900l-70 -437h30z" glyph-name="trademark" horiz-adv-x="1467" unicode="™"/><glyph d="M968 1471q234 0 359 -90.5t138 -255t-64 -398.5q-261 -765 -942 -765q-256 0 -384 90t-128 257q0 177 108.5 313t289.5 206t404 70q184 0 260 -45q119 266 -161 267q-85 0 -163.5 -31t-112.5 -96h-386q79 234 287 356t495 122zM577 311q126 0 214 58t88 145 q0 118 -181 117q-126 0 -214 -54.5t-88 -139.5q0 -126 181 -126z" glyph-name="partialdiff" horiz-adv-x="1450" unicode="∂"/><glyph d="M1457 1536l-126 -394h-2l-453 -1398h-473l454 1398h-186l-454 -1398h-473l507 1562h2l73 230h1131z" glyph-name="product" horiz-adv-x="1250" unicode="∏"/><glyph d="M-249 -256l119 394l709 487l-366 517l120 394h1106l-127 -394h-597l358 -493l-3 -48l-667 -463h580l-126 -394h-1106z" glyph-name="summation" horiz-adv-x="1232" unicode="∑"/><glyph d="M20 521l130 394h1072l-130 -394h-1072z" glyph-name="minus" horiz-adv-x="1242" unicode="−"/><glyph d="M177 -256l38 705h-217l127 394h472l-39 -657h33l670 1350h386l-927 -1792h-543z" glyph-name="radical" horiz-adv-x="1466" unicode="√"/><glyph d="M1191 1084q227 0 227 -217q0 -196 -143 -357.5t-336 -161.5q-108 0 -166 49.5t-95 143.5q-102 -94 -194.5 -143.5t-198.5 -49.5q-232 0 -232 215q0 198 146 359.5t339 161.5q106 0 163.5 -50.5t95.5 -144.5q104 94 195 144.5t199 50.5zM358 681q0 -27 16.5 -44t43.5 -17 q72 0 196 100q-38 58 -64 77.5t-62 19.5q-49 0 -89.5 -44t-40.5 -92zM988 620q49 0 88.5 44t39.5 90q0 27 -15.5 45t-42.5 18q-68 0 -194 -97q32 -60 61 -80t63 -20z" glyph-name="infinity" horiz-adv-x="1474" unicode="∞"/><glyph d="M70 -256q-208 0 -295 65l109 341q121 -46 191 -46q166 0 217 154l264 826q38 118 104.5 205t151 137t177.5 74t197 24q208 0 295 -65l-109 -341q-121 46 -191 46q-166 0 -217 -154l-264 -826q-48 -150 -148.5 -251.5t-222 -145t-259.5 -43.5z" glyph-name="integral" horiz-adv-x="1309" unicode="∫"/><glyph d="M804 736q-90 2 -202 63t-177 61q-119 0 -164 -102h-160q36 183 169.5 278.5t290.5 95.5q89 0 200 -61.5t176 -63.5q123 5 167 102h161q-36 -181 -171 -275.5t-290 -97.5zM666 299q-90 2 -202 63t-177 61q-119 0 -164 -102h-161q36 183 170 278.5t291 95.5q89 0 200 -61.5 t176 -63.5q123 5 167 102h160q-36 -181 -170.5 -275.5t-289.5 -97.5z" glyph-name="approxequal" horiz-adv-x="1227" unicode="≈"/><glyph d="M1413 1432l-222 -275h109l-129 -394h-295l-74 -91h341l-129 -394h-529l-168 -208h-488l168 208h-55l130 394h242l73 91h-288l130 394h474l222 275h488z" glyph-name="notequal" horiz-adv-x="1242" unicode="≠"/><glyph d="M1084 502l-951 346l161 502l1187 353l-129 -399l-744 -178l-14 -44l619 -177zM-147 0l130 394h1072l-130 -394h-1072z" glyph-name="lessequal" horiz-adv-x="1244" unicode="≤"/><glyph d="M401 1693l923 -346l-155 -502l-1154 -353l127 399l722 177l13 45l-602 177zM-152 0l130 394h1072l-130 -394h-1072z" glyph-name="greaterequal" horiz-adv-x="1239" unicode="≥"/><glyph d="M198 0q-14 0 -25 18t-6 30l-82 669l519 717q3 12 7.5 6t13.5 -6h478q14 0 24.5 -18t5.5 -30l82 -669l-519 -717q-3 -5 -5 -6t-2 1t-3 3.5t-10 1.5h-478zM517 331l307 389l-41 383l-307 -390z" glyph-name="lozenge" horiz-adv-x="1300" unicode="◊"/><glyph d="M961 1073q-201 0 -334.5 -139t-133.5 -318q0 -123 78.5 -189.5t201.5 -66.5q38 0 77 6t97 23t110 60t85 106h-354l79 239h797q-68 -423 -333.5 -632.5t-663.5 -209.5q-302 0 -473.5 159t-171.5 439q0 183 77.5 352.5t211 297.5t327 204.5t413.5 76.5q305 0 484.5 -162 t148.5 -394h-474q-24 68 -90.5 108t-158.5 40z" glyph-name="G.aalt" horiz-adv-x="1704"/><glyph d="M577 1524q-61 0 -101.5 41t-40.5 99q0 73 60.5 130.5t134.5 57.5q61 0 101 -41t40 -99q0 -73 -60.5 -130.5t-133.5 -57.5zM-172 0l462 1434h473l-463 -1434h-472z" glyph-name="i.aalt" horiz-adv-x="590"/><glyph d="M961 1073q-201 0 -334.5 -139t-133.5 -318q0 -123 78.5 -189.5t201.5 -66.5q38 0 77 6t97 23t110 60t85 106h-354l79 239h797q-68 -423 -333.5 -632.5t-663.5 -209.5q-302 0 -473.5 159t-171.5 439q0 183 77.5 352.5t211 297.5t327 204.5t413.5 76.5q305 0 484.5 -162 t148.5 -394h-474q-24 68 -90.5 108t-158.5 40z" glyph-name="g.aalt" horiz-adv-x="1704"/></font>
</defs>
</svg>
