<?xml version="1.0" standalone="no"?>
<!DOCTYPE svg PUBLIC "-//W3C//DTD SVG 1.1//EN" "http://www.w3.org/Graphics/SVG/1.1/DTD/svg11.dtd">
<svg xmlns="http://www.w3.org/2000/svg"><metadata>This SVG WebFont was generated by YouWorkForThem.
Â© 2017 Connary Fagen</metadata><defs><font horiz-adv-x="1725" id="ywftsvg"><font-face ascent="1638" bbox="-922 -836 2743 1910" cap-height="1434" descent="-410" font-family="" font-stretch="normal" font-weight="800" panose-1="0 0 9 0 0 0 0 0 0 0" underline-position="0" underline-thickness="0" unicode-range="U+0020-25CA" units-per-em="2048" x-height="1434"/><missing-glyph d="M736 1536v-1792h-569v1792h569zM597 1417h-297v-60h118v-67h-119v-58h298v58h-119v67h119v60zM478 1184h-179v-186h298v62h-119v124zM418 1125v-65h-60v65h60zM597 951h-298v-60h119v-67h-119v-58h179v125h119v60zM597 843h-59v-119h-239v-60h298v179zM597 625h-179v-101 h60v41h60v-84h-180v144h-59v-203h298v203zM597 314h-298v-203h298v203zM538 254v-83h-180v83h180zM597 70h-298v-60h126l-126 -83v-60h298v60h-182l124 83h58v60z" horiz-adv-x="896"/><glyph d="M736 1536v-1792h-569v1792h569zM597 1417h-297v-60h118v-67h-119v-58h298v58h-119v67h119v60zM478 1184h-179v-186h298v62h-119v124zM418 1125v-65h-60v65h60zM597 951h-298v-60h119v-67h-119v-58h179v125h119v60zM597 843h-59v-119h-239v-60h298v179zM597 625h-179v-101 h60v41h60v-84h-180v144h-59v-203h298v203zM597 314h-298v-203h298v203zM538 254v-83h-180v83h180zM597 70h-298v-60h126l-126 -83v-60h298v60h-182l124 83h58v60z" glyph-name=".notdef" horiz-adv-x="896"/><glyph glyph-name="glyph1" horiz-adv-x="0"/><glyph glyph-name="glyph2" horiz-adv-x="682"/><glyph glyph-name="space" horiz-adv-x="448" unicode=" "/><glyph d="M82 558l196 876h534l-411 -876h-319zM114 -27q-94 0 -153.5 59.5t-59.5 153.5q0 121 87 204t205 83q94 0 152.5 -60t58.5 -154q0 -121 -86 -203.5t-204 -82.5z" glyph-name="exclam" horiz-adv-x="626" unicode="!"/><glyph d="M140 782l177 652h446l-248 -652h-375zM654 782l177 652h446l-248 -652h-375z" glyph-name="quotedbl" horiz-adv-x="1128" unicode="&quot;"/><glyph d="M1435 799h-179l-44 -137h177l-123 -384h-179l-90 -278h-432l90 278h-138l-90 -278h-434l91 278h-180l123 384h181l45 137h-180l116 356h180l90 279h432l-91 -279h139l90 279h432l-91 -279h180zM780 662l44 137h-138l-44 -137h138z" glyph-name="numbersign" horiz-adv-x="1455" unicode="#"/><glyph d="M1355 901h-444q32 99 -51 118l-54 -166q61 -7 102 -12.5t104 -20t106 -37t84.5 -54t63 -79.5t21.5 -109q0 -200 -210 -327t-524 -142l-34 -103h-152l32 103q-568 26 -425 455h456q-38 -96 82 -111l51 159q-60 10 -95 17t-97 23t-101.5 38.5t-80.5 55t-61 80t-20 107.5 q0 191 206.5 321.5t504.5 142.5l36 113h152l-38 -114q536 -33 386 -458zM592 939q0 -38 70 -60l46 143q-49 -9 -82.5 -30.5t-33.5 -52.5zM788 485q0 34 -83 59l-41 -128q124 13 124 69z" glyph-name="dollar" horiz-adv-x="1382" unicode="$"/><glyph d="M439 -49l-185 143l1367 1398l181 -142zM521 676q-150 0 -239 76.5t-89 218.5q0 188 145 335.5t348 147.5q145 0 236.5 -77.5t91.5 -221.5q0 -195 -142.5 -337t-350.5 -142zM580 969q46 0 82 35t36 83q0 73 -73 74q-46 0 -81 -35t-35 -83q-1 -74 71 -74zM1376 -20 q-150 0 -240 76.5t-90 218.5q0 188 145 335.5t348 147.5q147 0 238.5 -78t91.5 -221q0 -195 -142.5 -337t-350.5 -142zM1435 273q46 0 82 35t36 83q0 75 -75 75q-44 0 -80 -36t-36 -82q0 -75 73 -75z" glyph-name="percent" horiz-adv-x="2061" unicode="%"/><glyph d="M1746 766q-82 -251 -232 -426l118 -104l-309 -299l-151 140q-251 -123 -583 -123q-314 0 -479.5 106t-165.5 304q0 171 125.5 298.5t328.5 194.5q-41 90 -41 182q0 198 200.5 315t515.5 117q145 0 259.5 -34t190.5 -104t95 -176t-27 -247h-432q32 96 -18 139t-148 43 q-79 0 -131.5 -25.5t-52.5 -64.5q0 -27 24.5 -53.5t100.5 -93.5q22 -19 35 -31l244 -216q75 85 99 158h434zM686 352q84 0 166 23l-268 248q-111 -51 -111 -140q0 -131 213 -131z" glyph-name="ampersand" horiz-adv-x="1826" unicode="&amp;"/><glyph d="M140 782l177 652h446l-248 -652h-375z" glyph-name="quotesingle" horiz-adv-x="616" unicode="'"/><glyph d="M652 -247q-341 0 -497.5 169.5t-156.5 470.5q0 201 50.5 388.5t155.5 350.5t253.5 284.5t359 191.5t458.5 70l-126 -424q-131 0 -245 -50t-192.5 -132t-135.5 -187t-83.5 -213.5t-26.5 -210.5q0 -159 72.5 -222t244.5 -63z" glyph-name="parenleft" horiz-adv-x="1025" unicode="("/><glyph d="M374 1678q341 0 497 -170t156 -470q0 -201 -50 -389t-155 -351t-253.5 -284.5t-359.5 -191t-458 -69.5l126 423q131 0 245 50t192.5 132t135.5 187t83.5 213.5t26.5 210.5q0 159 -72.5 222t-245.5 63z" glyph-name="parenright" horiz-adv-x="1029" unicode=")"/><glyph d="M1167 1068l-268 -112l205 -109l-220 -256l-176 157l-65 -268h-293l101 250l-243 -139l-73 256l268 112l-205 109l220 255l176 -157l65 268h293l-102 -251l244 140z" glyph-name="asterisk" horiz-adv-x="1150" unicode="*"/><glyph d="M1338 925l-133 -415h-370l-120 -365h-454l120 365h-362l133 415h363l122 369h454l-122 -369h369z" glyph-name="plus" horiz-adv-x="1356" unicode="+"/><glyph d="M596 442l-4 -12q1 5 4 12zM-147 0l138 430h601q-201 -599 -413 -845h-276q99 220 152 415h-202z" glyph-name="comma" horiz-adv-x="769" unicode=","/><glyph d="M-7 492l144 431h989l-143 -431h-990z" glyph-name="hyphen" horiz-adv-x="1126" unicode="-"/><glyph d="M114 -27q-94 0 -153.5 59.5t-59.5 153.5q0 121 87 204t205 83q94 0 152.5 -60t58.5 -154q0 -121 -86 -203.5t-204 -82.5z" glyph-name="period" horiz-adv-x="617" unicode="."/><glyph d="M-215 0l1123 1434h609l-1123 -1434h-609z" glyph-name="slash" horiz-adv-x="1302" unicode="/"/><glyph d="M577 -38q-374 0 -512 213.5t-12 594.5q111 343 347.5 522t580.5 179q374 0 511.5 -211.5t12.5 -595.5q-109 -343 -346 -522.5t-582 -179.5zM662 377q137 0 235 101.5t151 284.5q43 137 4.5 215t-156.5 78q-138 0 -234.5 -100.5t-151.5 -284.5q-43 -137 -4.5 -215.5 t156.5 -78.5z" glyph-name="zero" horiz-adv-x="1549" unicode="0"/><glyph d="M1215 1434l-339 -1043h305l-126 -391h-1224l126 391h401l174 534q-143 -80 -397 -65l138 420q208 0 427 154h515z" glyph-name="one" horiz-adv-x="1341" unicode="1"/><glyph d="M1485 1111q0 -104 -48.5 -193.5t-123 -150t-180.5 -118.5t-199 -95t-203 -83t-171 -80h715l-126 -391h-1344l74 229q36 111 134 205.5t218.5 155t253.5 118t242 97.5t180 87.5t71 95.5q0 36 -33.5 57.5t-96.5 21.5q-191 0 -239 -133h-479q53 253 261 395t525 142 q275 0 422 -91.5t147 -268.5z" glyph-name="two" horiz-adv-x="1426" unicode="2"/><glyph d="M515 -38q-166 0 -286 30t-198.5 94t-94 165t29.5 244h444q-3 -32 6 -56t27 -37t47 -20.5t56 -10t63 -2.5q121 0 191 29.5t70 86.5q0 17 -4 29t-21 29.5t-61.5 27t-112.5 9.5h-94l89 287h88q258 0 258 113q0 87 -169 87q-113 0 -173.5 -31.5t-89.5 -100.5h-438 q60 283 269 409.5t516 126.5q268 0 418 -89.5t150 -243.5q0 -130 -84.5 -231t-241.5 -154l-8 -29q82 -31 136.5 -102.5t54.5 -169.5q0 -126 -72 -223.5t-192 -153.5t-265.5 -84.5t-307.5 -28.5z" glyph-name="three" horiz-adv-x="1496" unicode="3"/><glyph d="M1574 1434l-267 -818h224l-125 -389h-223l-74 -227h-530l78 227h-765l128 389l939 818h615zM505 616h287l121 352z" glyph-name="four" horiz-adv-x="1611" unicode="4"/><glyph d="M485 -38q-321 0 -462.5 140t-56.5 388h444q-2 -70 45 -98t125 -28q135 0 205 52t70 122q0 119 -172 119q-164 0 -251 -87h-437l287 864h1186l-127 -388h-749l-53 -145q2 0 66 19t126.5 28t145.5 9q200 0 323 -94.5t123 -271.5q0 -282 -227 -455.5t-611 -173.5z" glyph-name="five" horiz-adv-x="1431" unicode="5"/><glyph d="M1495 978h-406q12 56 -35 87.5t-122 31.5q-58 0 -104 -9t-97.5 -35t-91.5 -78.5t-66 -131.5q128 61 337 62q478 0 478 -350q0 -186 -106 -322.5t-282.5 -203.5t-402.5 -67q-148 0 -259 41t-176 113.5t-96.5 164t-31.5 202.5q0 193 62.5 368t182 315t312 222.5t433.5 82.5 q282 0 421 -140.5t50 -352.5zM913 507q0 48 -44.5 74.5t-115.5 26.5q-114 0 -178.5 -53t-64.5 -127q0 -44 38.5 -71.5t120.5 -27.5q108 0 176 51.5t68 126.5z" glyph-name="six" horiz-adv-x="1522" unicode="6"/><glyph d="M275 1434h1270l-135 -403l-1000 -1031h-555l1019 1031h-734z" glyph-name="seven" horiz-adv-x="1338" unicode="7"/><glyph d="M558 -38q-321 0 -470 107.5t-149 278.5q0 145 96 258.5t277 176.5l11 23q-85 77 -86 209q0 201 183.5 328.5t494.5 127.5q265 0 396 -88.5t131 -239.5q0 -217 -249 -332l-9 -24q75 -51 122 -134t47 -184q0 -164 -108 -280.5t-285.5 -171.5t-401.5 -55zM797 916 q77 0 127.5 31t50.5 86q0 96 -125 95q-77 0 -125.5 -34t-48.5 -85q0 -93 121 -93zM609 341q118 0 183.5 44.5t65.5 111.5q0 63 -51 90t-119 27q-119 0 -183.5 -45t-64.5 -115q0 -113 169 -113z" glyph-name="eight" horiz-adv-x="1486" unicode="8"/><glyph d="M925 1471q148 0 259 -41t176 -113.5t96.5 -163.5t31.5 -202q0 -193 -62 -368t-181.5 -315t-312.5 -223t-434 -83q-282 0 -420.5 141t-50.5 353h406q-12 -56 35 -88t123 -32q58 0 104 9.5t97 35t91 78.5t66 132q-128 -61 -336 -62q-478 0 -478 350q0 186 105.5 322.5 t282.5 203t402 66.5zM609 927q0 -48 44.5 -74.5t116.5 -26.5q114 0 178 53t64 126q0 44 -38.5 71.5t-120.5 27.5q-108 0 -176 -51t-68 -126z" glyph-name="nine" horiz-adv-x="1522" unicode="9"/><glyph d="M389 817q-94 0 -153.5 60t-59.5 154q0 121 87 204t205 83q94 0 152.5 -60t58.5 -154q0 -121 -86 -204t-204 -83zM157 101q-94 0 -153.5 59.5t-59.5 153.5q0 121 87 204t205 83q94 0 152.5 -60t58.5 -154q0 -121 -86 -203.5t-204 -82.5z" glyph-name="colon" horiz-adv-x="619" unicode=":"/><glyph d="M389 817q-94 0 -153.5 60t-59.5 154q0 121 87 204t205 83q94 0 152.5 -60t58.5 -154q0 -121 -86 -204t-204 -83zM614 572q0 5 4 12zM-125 142l139 430h600q-201 -599 -413 -845h-276q99 220 152 415h-202z" glyph-name="semicolon" horiz-adv-x="711" unicode=";"/><glyph d="M961 94l-958 345l171 549l1186 352l-138 -434l-720 -162l-16 -48l611 -162z" glyph-name="less" horiz-adv-x="1249" unicode="&lt;"/><glyph d="M99 763l142 432h1109l-142 -432h-1109zM-70 242l142 430h1109l-142 -430h-1109z" glyph-name="equal" horiz-adv-x="1280" unicode="="/><glyph d="M287 1340l957 -345l-171 -550l-1186 -351l139 433l720 162l15 48l-611 162z" glyph-name="greater" horiz-adv-x="1247" unicode=">"/><glyph d="M425 539q19 92 71 160.5t114 102t132 59.5t126.5 40.5t93 38t36.5 55.5q0 31 -46.5 51.5t-122.5 20.5q-207 0 -279 -169h-465q29 155 105 267.5t189.5 178.5t247.5 96.5t296 30.5q276 0 449 -96.5t173 -278.5q0 -94 -42 -170t-105 -120.5t-139 -83.5t-142.5 -63 t-117 -55.5t-60.5 -64.5h-514zM563 -27q-94 0 -153.5 59.5t-59.5 153.5q0 121 87 204t205 83q94 0 152.5 -60t58.5 -154q0 -121 -86 -203.5t-204 -82.5z" glyph-name="question" horiz-adv-x="1460" unicode="?"/><glyph d="M1463 333q-135 -179 -341 -280t-460 -101q-302 0 -475 154.5t-173 420.5q0 184 79 357.5t214 306t328.5 211.5t408.5 79q297 0 474.5 -151t177.5 -395q0 -181 -98 -311.5t-284 -130.5q-99 0 -129.5 39.5t1.5 145.5l171 419h-149l-56 -73h-20q-67 97 -217 97 q-215 0 -369.5 -170.5t-154.5 -373.5q0 -135 73.5 -206.5t199.5 -71.5q97 0 182.5 36.5t138.5 97.5h20q17 -61 78.5 -97.5t160.5 -36.5q119 0 202 47zM876 932q125 0 128 -135q0 -109 -82 -209t-190 -100q-123 0 -126 137q0 111 82 209t188 98z" glyph-name="at" horiz-adv-x="1686" unicode="@"/><glyph d="M1519 0h-514v172h-572l-110 -172h-552l965 1434h728zM679 553h326v396h-71z" glyph-name="A" horiz-adv-x="1730" unicode="A"/><glyph d="M1594 1130q0 -113 -70 -209.5t-212 -143.5l-13 -29q39 -24 61 -41.5t52 -51.5t44.5 -81.5t14.5 -110.5q0 -125 -57 -215.5t-161 -144.5t-238 -78.5t-302 -24.5h-890l462 1434h852q457 0 457 -304zM939 860q68 0 107 32.5t39 73.5q0 72 -97 72h-310l-58 -178h319zM828 396 q67 0 109.5 30.5t42.5 82.5q0 10 -2.5 20t-11.5 24.5t-32 24t-55 9.5h-348l-63 -191h360z" glyph-name="B" horiz-adv-x="1600" unicode="B"/><glyph d="M689 -48q-319 0 -494.5 159.5t-175.5 444.5q0 181 77.5 349t211.5 296t328.5 204t414.5 76q227 0 392 -89.5t230.5 -241.5t16.5 -329h-497q0 102 -65.5 158.5t-175.5 56.5q-183 0 -299.5 -124t-116.5 -284q0 -111 71.5 -170.5t180.5 -59.5q232 0 349 206h496 q-48 -152 -132 -269.5t-180.5 -187.5t-212 -115.5t-216.5 -62.5t-203 -17z" glyph-name="C" horiz-adv-x="1701" unicode="C"/><glyph d="M-174 0l462 1434h678q340 0 502 -143.5t162 -403.5q0 -278 -135.5 -482t-363.5 -304.5t-517 -100.5h-788zM481 432h224q169 0 286 110t117 274q0 104 -70 145t-214 41h-157z" glyph-name="D" horiz-adv-x="1653" unicode="D"/><glyph d="M1480 1022h-811l-44 -140h807l-106 -324h-807l-46 -147h807l-135 -411h-1322l462 1434h1330z" glyph-name="E" horiz-adv-x="1433" unicode="E"/><glyph d="M1463 1004h-801l-51 -156h761l-131 -408h-761l-144 -440h-513l462 1434h1318z" glyph-name="F" horiz-adv-x="1425" unicode="F"/><glyph d="M952 1036q-183 0 -299.5 -124t-116.5 -284q0 -111 71.5 -170.5t180.5 -59.5q224 0 315 157h-309l82 251h817l-259 -806h-255l45 167q-96 -99 -239.5 -157t-313.5 -58q-309 0 -480.5 154.5t-171.5 437.5q0 186 77.5 357t211.5 299t328.5 204.5t414.5 76.5 q317 0 501.5 -169t152.5 -402h-521q-27 56 -87.5 91t-144.5 35z" glyph-name="G" horiz-adv-x="1708" unicode="G"/><glyph d="M1302 1434h516l-461 -1434h-516l156 481h-499l-155 -481h-517l462 1434h516l-167 -523h498z" glyph-name="H" horiz-adv-x="1645" unicode="H"/><glyph d="M-177 0l462 1434h517l-462 -1434h-517z" glyph-name="I" horiz-adv-x="626" unicode="I"/><glyph d="M517 -48q-717 0 -517 647h514q-14 -43 -16.5 -78t1.5 -56t17 -36.5t24 -22.5t31 -11t27.5 -4h21.5q157 0 223 198l271 845h518l-270 -840q-60 -186 -143.5 -314t-193 -199t-230.5 -100t-278 -29z" glyph-name="J" horiz-adv-x="1454" unicode="J"/><glyph d="M1848 1434l-763 -652l465 -782h-514l-312 524h-46l-227 -179l-113 -345h-515l469 1434h515l-147 -449h64l537 449h587z" glyph-name="K" unicode="K"/><glyph d="M-177 0l467 1434h516l-328 -1004h775l-139 -430h-1291z" glyph-name="L" horiz-adv-x="1404" unicode="L"/><glyph d="M-174 0l462 1434h623l-53 -743h45l426 741h678l-459 -1432h-495l181 556h-48l-302 -556h-375l37 556h-46l-181 -556h-493z" glyph-name="M" horiz-adv-x="1836" unicode="M"/><glyph d="M-177 0l469 1434h572l191 -727h53l240 727h504l-466 -1434h-558l-210 715h-53l-237 -715h-505z" glyph-name="N" horiz-adv-x="1674" unicode="N"/><glyph d="M689 -48q-319 0 -495.5 158t-176.5 438q0 184 77.5 354.5t211.5 298t325.5 204t404.5 76.5q319 0 495.5 -157.5t176.5 -436.5q0 -184 -77.5 -354.5t-211.5 -298.5t-325.5 -205t-404.5 -77zM773 398q181 0 299 127t121 279q0 113 -69 172.5t-172 59.5q-181 0 -297.5 -127 t-120.5 -279q0 -113 69 -172.5t170 -59.5z" glyph-name="O" unicode="O"/><glyph d="M1029 1434q278 0 420 -106t142 -338q0 -227 -104.5 -392t-276.5 -246t-391 -81h-391l-88 -271h-517l469 1434h737zM835 696q99 0 162 52t63 145q0 113 -144 112h-245l-103 -310z" glyph-name="P" horiz-adv-x="1585" unicode="P"/><glyph d="M1708 887q0 -181 -74 -348t-207 -297l114 -165q-166 -154 -380 -292l-163 210q-152 -43 -309 -43q-319 0 -495.5 158t-176.5 438q0 184 77.5 354.5t211.5 298t325.5 204t404.5 76.5q319 0 495.5 -158t176.5 -436zM534 630q0 -113 69 -172.5t170 -59.5q181 0 299 127 t121 279q0 113 -69 172.5t-172 59.5q-181 0 -298 -127t-120 -279z" glyph-name="Q" horiz-adv-x="1740" unicode="Q"/><glyph d="M1604 1005q0 -183 -92 -325t-242 -228l100 -452h-494l-74 350h-346l-113 -350h-517l462 1434h762q280 0 417 -106t137 -323zM667 1005l-90 -280l305 4q67 0 131 42.5t64 121.5q0 61 -35 86.5t-112 25.5h-263z" glyph-name="R" horiz-adv-x="1604" unicode="R"/><glyph d="M568 -48q-118 0 -215 12t-178 37t-135.5 67.5t-85.5 100.5t-28.5 138t38.5 179h437q-14 -72 55.5 -106t185.5 -34q123 0 204 26.5t81 84.5q0 14 -3.5 25t-16.5 26.5t-44.5 26.5t-80.5 16l-115 17q-46 5 -74 8.5t-88.5 16.5t-102.5 28.5t-95 44.5t-85.5 64t-55.5 88.5 t-23 116.5q0 258 220.5 402t583.5 144q230 0 386.5 -61t213 -180t-22.5 -289h-423q10 49 -43.5 93.5t-181.5 44.5q-109 0 -175 -32.5t-66 -83.5q0 -67 118 -84l80 -12q26 -5 98.5 -16t114 -19.5t110 -26.5t110 -42.5t84.5 -60.5t63.5 -89t20.5 -118q0 -123 -46.5 -218.5 t-125.5 -157.5t-191 -102.5t-236 -57.5t-267 -17z" glyph-name="S" horiz-adv-x="1551" unicode="S"/><glyph d="M1802 1434l-140 -430h-496l-328 -1004h-517l328 1004h-509l136 430h1526z" glyph-name="T" horiz-adv-x="1617" unicode="T"/><glyph d="M643 -48q-410 0 -566 179.5t-41 523.5l256 779h524l-272 -816q-39 -111 3 -174t168 -63q130 0 206 68t125 220l249 765h524l-268 -825q-118 -358 -327 -507.5t-581 -149.5z" glyph-name="U" horiz-adv-x="1643" unicode="U"/><glyph d="M292 0l-55 1434h507l2 -949h58l599 949h563l-962 -1434h-712z" glyph-name="V" horiz-adv-x="1739" unicode="V"/><glyph d="M55 0l201 1434h517l-157 -881h48l461 881h404l-99 -881h46l410 881h536l-727 -1434h-697l96 618h-43l-300 -618h-696z" glyph-name="W" horiz-adv-x="2220" unicode="W"/><glyph d="M-229 0l705 710l19 46l-256 678h517l135 -395h48l338 395h568l-679 -690l-19 -44l264 -700h-541l-122 375h-48l-350 -375h-579z" glyph-name="X" horiz-adv-x="1650" unicode="X"/><glyph d="M1886 1434l-900 -1001l-139 -433h-516l147 464l-249 970h520l111 -492h38l421 492h567z" glyph-name="Y" horiz-adv-x="1667" unicode="Y"/><glyph d="M-189 0l134 423l866 543l17 41h-681l141 427h1371l-137 -424l-865 -542l-17 -41h679l-141 -427h-1367z" glyph-name="Z" horiz-adv-x="1466" unicode="Z"/><glyph d="M-253 -230l617 1894h865l-140 -430h-350l-335 -1034h350l-140 -430h-867z" glyph-name="bracketleft" horiz-adv-x="977" unicode="["/><glyph d="M894 0l-662 1434h592l663 -1434h-593z" glyph-name="backslash" horiz-adv-x="1718" unicode="\"/><glyph d="M1231 1664l-617 -1894h-865l140 430h350l334 1034h-349l140 430h867z" glyph-name="bracketright" horiz-adv-x="977" unicode="]"/><glyph d="M-14 422l639 1070h587v-1070h-413l56 691h-55l-390 -691h-424z" glyph-name="asciicircum" horiz-adv-x="1396" unicode="^"/><glyph d="M-288 -430l141 430h1063l-141 -430h-1063z" glyph-name="underscore" horiz-adv-x="1233" unicode="_"/><glyph d="M884 1161h-469l-174 305h467z" glyph-name="grave" horiz-adv-x="740" unicode="`"/><glyph d="M1519 0h-514v172h-572l-110 -172h-552l965 1434h728zM679 553h326v396h-71z" glyph-name="a" horiz-adv-x="1730" unicode="a"/><glyph d="M1594 1130q0 -113 -70 -209.5t-212 -143.5l-13 -29q39 -24 61 -41.5t52 -51.5t44.5 -81.5t14.5 -110.5q0 -125 -57 -215.5t-161 -144.5t-238 -78.5t-302 -24.5h-890l462 1434h852q457 0 457 -304zM939 860q68 0 107 32.5t39 73.5q0 72 -97 72h-310l-58 -178h319zM828 396 q67 0 109.5 30.5t42.5 82.5q0 10 -2.5 20t-11.5 24.5t-32 24t-55 9.5h-348l-63 -191h360z" glyph-name="b" horiz-adv-x="1600" unicode="b"/><glyph d="M689 -48q-319 0 -494.5 159.5t-175.5 444.5q0 181 77.5 349t211.5 296t328.5 204t414.5 76q227 0 392 -89.5t230.5 -241.5t16.5 -329h-497q0 102 -65.5 158.5t-175.5 56.5q-183 0 -299.5 -124t-116.5 -284q0 -111 71.5 -170.5t180.5 -59.5q232 0 349 206h496 q-48 -152 -132 -269.5t-180.5 -187.5t-212 -115.5t-216.5 -62.5t-203 -17z" glyph-name="c" horiz-adv-x="1701" unicode="c"/><glyph d="M-174 0l462 1434h678q340 0 502 -143.5t162 -403.5q0 -278 -135.5 -482t-363.5 -304.5t-517 -100.5h-788zM481 432h224q169 0 286 110t117 274q0 104 -70 145t-214 41h-157z" glyph-name="d" horiz-adv-x="1653" unicode="d"/><glyph d="M1480 1022h-811l-44 -140h807l-106 -324h-807l-46 -147h807l-135 -411h-1322l462 1434h1330z" glyph-name="e" horiz-adv-x="1433" unicode="e"/><glyph d="M1463 1004h-801l-51 -156h761l-131 -408h-761l-144 -440h-513l462 1434h1318z" glyph-name="f" horiz-adv-x="1425" unicode="f"/><glyph d="M952 1036q-183 0 -299.5 -124t-116.5 -284q0 -111 71.5 -170.5t180.5 -59.5q224 0 315 157h-309l82 251h817l-259 -806h-255l45 167q-96 -99 -239.5 -157t-313.5 -58q-309 0 -480.5 154.5t-171.5 437.5q0 186 77.5 357t211.5 299t328.5 204.5t414.5 76.5 q317 0 501.5 -169t152.5 -402h-521q-27 56 -87.5 91t-144.5 35z" glyph-name="g" horiz-adv-x="1708" unicode="g"/><glyph d="M1302 1434h516l-461 -1434h-516l156 481h-499l-155 -481h-517l462 1434h516l-167 -523h498z" glyph-name="h" horiz-adv-x="1645" unicode="h"/><glyph d="M-177 0l462 1434h517l-462 -1434h-517z" glyph-name="i" horiz-adv-x="626" unicode="i"/><glyph d="M517 -48q-717 0 -517 647h514q-14 -43 -16.5 -78t1.5 -56t17 -36.5t24 -22.5t31 -11t27.5 -4h21.5q157 0 223 198l271 845h518l-270 -840q-60 -186 -143.5 -314t-193 -199t-230.5 -100t-278 -29z" glyph-name="j" horiz-adv-x="1454" unicode="j"/><glyph d="M1848 1434l-763 -652l465 -782h-514l-312 524h-46l-227 -179l-113 -345h-515l469 1434h515l-147 -449h64l537 449h587z" glyph-name="k" unicode="k"/><glyph d="M-177 0l467 1434h516l-328 -1004h775l-139 -430h-1291z" glyph-name="l" horiz-adv-x="1404" unicode="l"/><glyph d="M-174 0l462 1434h623l-53 -743h45l426 741h678l-459 -1432h-495l181 556h-48l-302 -556h-375l37 556h-46l-181 -556h-493z" glyph-name="m" horiz-adv-x="1836" unicode="m"/><glyph d="M-177 0l469 1434h572l191 -727h53l240 727h504l-466 -1434h-558l-210 715h-53l-237 -715h-505z" glyph-name="n" horiz-adv-x="1674" unicode="n"/><glyph d="M689 -48q-319 0 -495.5 158t-176.5 438q0 184 77.5 354.5t211.5 298t325.5 204t404.5 76.5q319 0 495.5 -157.5t176.5 -436.5q0 -184 -77.5 -354.5t-211.5 -298.5t-325.5 -205t-404.5 -77zM773 398q181 0 299 127t121 279q0 113 -69 172.5t-172 59.5q-181 0 -297.5 -127 t-120.5 -279q0 -113 69 -172.5t170 -59.5z" glyph-name="o" unicode="o"/><glyph d="M1029 1434q278 0 420 -106t142 -338q0 -227 -104.5 -392t-276.5 -246t-391 -81h-391l-88 -271h-517l469 1434h737zM835 696q99 0 162 52t63 145q0 113 -144 112h-245l-103 -310z" glyph-name="p" horiz-adv-x="1585" unicode="p"/><glyph d="M1708 887q0 -181 -74 -348t-207 -297l114 -165q-166 -154 -380 -292l-163 210q-152 -43 -309 -43q-319 0 -495.5 158t-176.5 438q0 184 77.5 354.5t211.5 298t325.5 204t404.5 76.5q319 0 495.5 -158t176.5 -436zM534 630q0 -113 69 -172.5t170 -59.5q181 0 299 127 t121 279q0 113 -69 172.5t-172 59.5q-181 0 -298 -127t-120 -279z" glyph-name="q" horiz-adv-x="1740" unicode="q"/><glyph d="M1604 1005q0 -183 -92 -325t-242 -228l100 -452h-494l-74 350h-346l-113 -350h-517l462 1434h762q280 0 417 -106t137 -323zM667 1005l-90 -280l305 4q67 0 131 42.5t64 121.5q0 61 -35 86.5t-112 25.5h-263z" glyph-name="r" horiz-adv-x="1604" unicode="r"/><glyph d="M568 -48q-118 0 -215 12t-178 37t-135.5 67.5t-85.5 100.5t-28.5 138t38.5 179h437q-14 -72 55.5 -106t185.5 -34q123 0 204 26.5t81 84.5q0 14 -3.5 25t-16.5 26.5t-44.5 26.5t-80.5 16l-115 17q-46 5 -74 8.5t-88.5 16.5t-102.5 28.5t-95 44.5t-85.5 64t-55.5 88.5 t-23 116.5q0 258 220.5 402t583.5 144q230 0 386.5 -61t213 -180t-22.5 -289h-423q10 49 -43.5 93.5t-181.5 44.5q-109 0 -175 -32.5t-66 -83.5q0 -67 118 -84l80 -12q26 -5 98.5 -16t114 -19.5t110 -26.5t110 -42.5t84.5 -60.5t63.5 -89t20.5 -118q0 -123 -46.5 -218.5 t-125.5 -157.5t-191 -102.5t-236 -57.5t-267 -17z" glyph-name="s" horiz-adv-x="1551" unicode="s"/><glyph d="M1802 1434l-140 -430h-496l-328 -1004h-517l328 1004h-509l136 430h1526z" glyph-name="t" horiz-adv-x="1617" unicode="t"/><glyph d="M643 -48q-410 0 -566 179.5t-41 523.5l256 779h524l-272 -816q-39 -111 3 -174t168 -63q130 0 206 68t125 220l249 765h524l-268 -825q-118 -358 -327 -507.5t-581 -149.5z" glyph-name="u" horiz-adv-x="1643" unicode="u"/><glyph d="M292 0l-55 1434h507l2 -949h58l599 949h563l-962 -1434h-712z" glyph-name="v" horiz-adv-x="1739" unicode="v"/><glyph d="M55 0l201 1434h517l-157 -881h48l461 881h404l-99 -881h46l410 881h536l-727 -1434h-697l96 618h-43l-300 -618h-696z" glyph-name="w" horiz-adv-x="2220" unicode="w"/><glyph d="M-229 0l705 710l19 46l-256 678h517l135 -395h48l338 395h568l-679 -690l-19 -44l264 -700h-541l-122 375h-48l-350 -375h-579z" glyph-name="x" horiz-adv-x="1650" unicode="x"/><glyph d="M1886 1434l-900 -1001l-139 -433h-516l147 464l-249 970h520l111 -492h38l421 492h567z" glyph-name="y" horiz-adv-x="1667" unicode="y"/><glyph d="M-189 0l134 423l866 543l17 41h-681l141 427h1371l-137 -424l-865 -542l-17 -41h679l-141 -427h-1367z" glyph-name="z" horiz-adv-x="1466" unicode="z"/><glyph d="M265 -230q-34 0 -66 6.5t-67.5 24.5t-53.5 50.5t-24 83.5t21 125l133 396l-126 244l3 42l280 236l152 447q19 58 43.5 101.5t55.5 69t55 40t62 20.5t54.5 7t52.5 1h638l-140 -430h-276q-32 0 -70 -25.5t-48 -56.5l-50 -174l-285 -253l-8 -42l111 -226l-67 -227 q-3 -14 -5 -19.5t2.5 -9t8 -3.5t16 1t21.5 1h316l-140 -430h-599z" glyph-name="braceleft" horiz-adv-x="1247" unicode="{"/><glyph d="M-234 -171l579 1775h515l-577 -1775h-517z" glyph-name="bar" horiz-adv-x="628" unicode="|"/><glyph d="M981 1664q34 0 66 -7t67.5 -24.5t53.5 -50t24 -84t-21 -124.5l-133 -396l126 -244l-3 -43l-280 -235l-152 -447q-19 -58 -44 -102t-55.5 -69.5t-54.5 -40t-62.5 -20.5t-54.5 -6.5t-52 -0.5h-638l140 430h276q32 0 70 25.5t48 56.5l50 174l285 252l8 43l-111 225l67 227 q3 14 5 20t-2.5 9.5t-8 3.5t-16 -1t-21.5 -1h-316l140 430h599z" glyph-name="braceright" horiz-adv-x="1245" unicode="}"/><glyph d="M751 522q-89 2 -205 60t-182 58q-125 0 -166 -102h-167q24 130 103 222t176.5 131t201.5 39q87 0 203 -58t181 -60q125 5 169 103h167q-34 -189 -176.5 -289.5t-304.5 -103.5z" glyph-name="asciitilde" horiz-adv-x="1254" unicode="~"/><glyph d="M393 1092q94 0 153.5 -59.5t59.5 -153.5q0 -121 -87 -204t-205 -83q-94 0 -153 60t-59 154q0 121 86.5 203.5t204.5 82.5zM425 507l-196 -876h-534l411 876h319z" glyph-name="exclamdown" horiz-adv-x="626" unicode="¡"/><glyph d="M1089 811q0 80 -48 133l-398 -507q36 -10 79 -10q210 0 316 187h452q-44 -138 -121 -244.5t-164 -170.5t-192 -105t-196.5 -56.5t-185.5 -15.5q-157 0 -279 45l-53 -67h-157l97 123q-217 142 -217 447q0 220 118.5 412t336.5 310.5t484 118.5q138 0 261 -41l49 64h157 l-92 -116q138 -82 193.5 -217t11.5 -290h-452zM492 637q0 -84 46 -135l392 500q-27 5 -60 5q-166 0 -272 -112.5t-106 -257.5z" glyph-name="cent" horiz-adv-x="1554" unicode="¢"/><glyph d="M1415 882h-483q36 90 -5 129t-115 39q-99 0 -151 -45.5t-52 -117.5q0 -31 14 -77.5t17 -63.5h507l-68 -208h-475q-43 -75 -141 -134v-13h802l-127 -391h-1341l126 391q172 43 243 147h-185l68 208h113q-36 118 -36 206q0 155 104.5 275t276.5 182t382 62t354.5 -65 t200 -196.5t-28.5 -327.5z" glyph-name="sterling" horiz-adv-x="1396" unicode="£"/><glyph d="M1242 975q0 -73 -20 -139l97 -100l-227 -224l-70 70q-109 -67 -239 -67q-126 0 -237 65l-68 -68l-227 224l94 93q-24 68 -24 146q0 80 27 158l-97 99l227 225l82 -80q102 56 223 57q123 0 226 -58l83 81l227 -225l-102 -106q25 -71 25 -151zM783 814q48 0 83 16.5 t50.5 35t24 48.5t8.5 38.5v22v22t-8.5 38.5t-24 49.5t-50.5 36.5t-83 17q-49 0 -84 -17t-50.5 -35.5t-24 -49.5t-8.5 -39.5v-21.5q0 -142 133 -159q15 -2 34 -2z" glyph-name="currency" horiz-adv-x="1397" unicode="¤"/><glyph d="M1886 1434l-739 -821h350l-67 -195h-449l-20 -63h452l-66 -198h-449l-51 -157h-516l50 157h-451l67 198h447l20 63h-450l66 195h360l-211 821h520l111 -492h38l421 492h567z" glyph-name="yen" horiz-adv-x="1667" unicode="¥"/><glyph d="M73 771l272 833h515l-269 -833h-518zM-234 -171l272 833h517l-272 -833h-517z" glyph-name="brokenbar" horiz-adv-x="628" unicode="¦"/><glyph d="M1621 1145h-460q12 68 -38.5 103t-173.5 35q-196 0 -227 -90q-24 -70 82 -89l136 -25q38 -7 106 -17.5t114.5 -19t107.5 -22t101.5 -35t78 -50.5t56 -74t18.5 -102q0 -276 -237 -419q55 -65 55 -168q0 -186 -134 -321.5t-340.5 -199.5t-450.5 -62q-372 2 -522.5 131.5 t-44.5 410.5h468q-22 -68 29 -104t193 -37q116 -2 186 25.5t82 68.5q5 10 3 23.5t-8.5 26.5t-34 25t-71.5 18l-169 30q-222 36 -308 71q-198 84 -198 282q0 230 282 346q-92 80 -92 234q0 181 115 306.5t308 182.5t451 57q92 0 171.5 -10t155.5 -33t129.5 -65t87 -100 t32.5 -143.5t-39 -189.5zM995 640q0 89 -114 106l-169 27h-4q-72 3 -125.5 -36t-53.5 -100q0 -80 104 -101l125 -24h3q99 -14 166.5 22t67.5 106z" glyph-name="section" horiz-adv-x="1561" unicode="§"/><glyph d="M352 1162q-65 0 -108 43.5t-43 103.5q0 79 65 139.5t142 60.5q65 0 107.5 -43.5t42.5 -105.5q0 -79 -64.5 -138.5t-141.5 -59.5zM901 1162q-65 0 -107.5 43.5t-42.5 103.5q0 79 65 139.5t141 60.5q65 0 108 -43.5t43 -105.5q0 -79 -65 -138.5t-142 -59.5z" glyph-name="dieresis" horiz-adv-x="904" unicode="¨"/><glyph d="M503 544q-166 0 -265.5 97.5t-99.5 263.5q0 229 165 397.5t412 168.5q166 0 265.5 -97t99.5 -263q0 -230 -165 -398.5t-412 -168.5zM536 713q92 0 183.5 44.5t140.5 150.5h-160q-51 -67 -130 -67q-56 0 -84.5 33.5t-28.5 89.5q0 82 61 148t142 66q39 0 69 -19t34 -53h162 q-2 101 -71 152t-170 51q-166 0 -273 -115t-107 -259q0 -104 60.5 -163t171.5 -59z" glyph-name="copyright" horiz-adv-x="1029" unicode="©"/><glyph d="M869 1434h235l-239 -739h-220l-17 44q-85 -44 -169 -44q-128 0 -206.5 81t-78.5 210q0 191 132.5 324.5t311.5 133.5q121 0 193 -80zM474 1060q0 -75 79 -75q46 0 72.5 28t26.5 67q0 43 -24 60t-53 17q-43 0 -72 -30.5t-29 -66.5z" glyph-name="ordfeminine" horiz-adv-x="935" unicode="ª"/><glyph d="M1154 1237l-500 -517l187 -524h-558l-181 524l506 517h546zM1828 1237l-500 -517l188 -524h-559l-180 524l505 517h546z" glyph-name="guillemotleft" horiz-adv-x="1783" unicode="«"/><glyph d="M761 454l60 183h-761l111 344h1184l-169 -527h-425z" glyph-name="logicalnot" horiz-adv-x="1356" unicode="¬"/><glyph d="M-7 492l144 431h989l-143 -431h-990z" glyph-name="uni00AD" horiz-adv-x="1126" unicode="­"/><glyph d="M503 544q-166 0 -265.5 97.5t-99.5 263.5q0 229 165 397.5t412 168.5q166 0 265.5 -97t99.5 -263q0 -230 -165 -398.5t-412 -168.5zM309 739h142l51 164h116l44 -164h147l-56 189q142 68 141 195q0 67 -48.5 109.5t-156.5 42.5h-208zM539 1019l43 133h101q34 0 50 -17 t16 -41q0 -32 -27 -53.5t-65 -21.5h-118z" glyph-name="registered" horiz-adv-x="1029" unicode="®"/><glyph d="M147 1167l123 374h819l-123 -374h-819z" glyph-name="macron" horiz-adv-x="822" unicode="¯"/><glyph d="M500 657q-145 0 -228.5 82t-83.5 218q0 201 143 344t352 143q145 0 228.5 -82t83.5 -220q0 -200 -144 -342.5t-351 -142.5zM568 973q43 0 70.5 30.5t27.5 64.5q0 58 -55 58q-43 0 -70 -30.5t-27 -64.5q-1 -58 54 -58z" glyph-name="degree" horiz-adv-x="969" unicode="°"/><glyph d="M1096 1307h368l-133 -414h-370l-120 -366h-454l120 366h-362l133 414h364l121 369h454zM-73 0l141 430h1110l-142 -430h-1109z" glyph-name="plusminus" horiz-adv-x="1355" unicode="±"/><glyph d="M143 1161l176 305h468l-174 -305h-470z" glyph-name="acute" horiz-adv-x="546" unicode="´"/><glyph d="M1021 1161h515l-375 -1161h-507l39 150h-41q-137 -159 -323 -177l-73 -229h-517l461 1417h515l-210 -646h2q-17 -44 -13.5 -74t10 -47t23.5 -25.5t26.5 -10t18.5 -1.5q80 0 147.5 53.5t96.5 118.5z" glyph-name="uni00B5" horiz-adv-x="1448" unicode="µ"/><glyph d="M730 0l99 307h-201q-555 0 -555 420q0 333 244 520t639 187h756l-464 -1434h-518zM1464 0l465 1434h517l-465 -1434h-517z" glyph-name="paragraph" horiz-adv-x="2269" unicode="¶"/><glyph d="M352 468q-94 0 -154 59.5t-60 153.5q0 121 87 204t205 83q94 0 153 -60t59 -154q0 -121 -86 -203.5t-204 -82.5z" glyph-name="periodcentered" horiz-adv-x="779" unicode="·"/><glyph d="M14 -56q58 -15 94.5 -62.5t36.5 -123.5q0 -160 -157 -219.5t-360 7.5l55 178q65 -24 138 -18t73 43q0 15 -22 25.5t-65.5 12t-110.5 -11.5l29 99l185 126h203z" glyph-name="cedilla" horiz-adv-x="469" unicode="¸"/><glyph d="M471 698q-133 0 -216 83.5t-83 213.5q0 181 135 315t323 134q133 0 215 -83t82 -214q0 -183 -135 -316t-321 -133zM538 985q44 0 70.5 29.5t26.5 69.5q0 36 -22 54.5t-52 18.5q-43 0 -70 -31.5t-27 -70.5q1 -70 74 -70z" glyph-name="ordmasculine" horiz-adv-x="868" unicode="º"/><glyph d="M-44 196l500 517l-188 524h558l181 -524l-505 -517h-546zM630 196l500 517l-188 524h558l181 -524l-505 -517h-546z" glyph-name="guillemotright" horiz-adv-x="1783" unicode="»"/><glyph d="M730 1092q94 0 154 -59.5t60 -153.5q0 -121 -87 -204t-205 -83q-94 0 -153 60t-59 154q0 121 86 203.5t204 82.5zM869 526q-19 -92 -71 -160.5t-114.5 -102t-132.5 -60t-126 -41t-93 -37.5t-37 -55q0 -31 47 -51.5t122 -20.5q207 0 280 169h464q-29 -155 -105 -267.5 t-189.5 -178.5t-247.5 -96.5t-296 -30.5q-276 0 -448.5 96.5t-172.5 278.5q0 94 42 170t105 120.5t139 83.5t142.5 63t117 55.5t60.5 64.5h514z" glyph-name="questiondown" horiz-adv-x="1435" unicode="¿"/><glyph d="M1370 1519h-469l-174 305h468zM1519 0h-514v172h-572l-110 -172h-552l965 1434h728zM679 553h326v396h-71z" glyph-name="Agrave" horiz-adv-x="1730" unicode="À"/><glyph d="M1541 1824l-174 -305h-469l175 305h468zM736 1434h728l55 -1434h-514v172h-572l-110 -172h-552zM679 553h326v396h-71z" glyph-name="Aacute" horiz-adv-x="1730" unicode="Á"/><glyph d="M1128 1644l-99 -125h-457l298 305h652l127 -305h-420l-41 125h-60zM736 1434h728l55 -1434h-514v172h-572l-110 -172h-552zM679 553h326v396h-71z" glyph-name="Acircumflex" horiz-adv-x="1730" unicode="Â"/><glyph d="M1587 1758q26 -150 -54.5 -227t-199.5 -77q-84 0 -196.5 47t-163.5 47q-44 0 -74 -18t-34 -52h-133q-26 148 56 225t200 77q84 0 196.5 -47t163.5 -47q43 0 73.5 18t34.5 54h131zM736 1434h728l55 -1434h-514v172h-572l-110 -172h-552zM679 553h326v396h-71z" glyph-name="Atilde" horiz-adv-x="1730" unicode="Ã"/><glyph d="M867 1521q-65 0 -107.5 43.5t-42.5 102.5q0 79 65 139.5t141 60.5q65 0 107.5 -43.5t42.5 -104.5q0 -79 -64.5 -138.5t-141.5 -59.5zM1473 1867q65 0 107.5 -43.5t42.5 -104.5q0 -79 -65 -138.5t-141 -59.5q-65 0 -108 43.5t-43 102.5q0 79 65 139.5t142 60.5zM736 1434 h728l55 -1434h-514v172h-572l-110 -172h-552zM679 553h326v396h-71z" glyph-name="Adieresis" horiz-adv-x="1730" unicode="Ä"/><glyph d="M1519 0h-514v172h-572l-110 -172h-552l965 1434h264q-102 55 -102 184q0 128 87.5 210t204.5 82q94 0 151 -56.5t57 -148.5q0 -89 -47 -163t-124 -108h237zM1161 1707q-24 0 -40.5 -17t-16.5 -41q0 -14 10.5 -24t27.5 -10q26 0 40 17t14 42q0 12 -9 22.5t-26 10.5z M679 553h326v396h-71z" glyph-name="Aring" horiz-adv-x="1730" unicode="Å"/><glyph d="M2540 1022h-811l-45 -140h808l-106 -324h-807l-46 -147h807l-135 -411h-1323l70 215h-476l-159 -215h-546l1123 1434h1780zM754 592h319l134 412h-149z" glyph-name="AE" horiz-adv-x="2491" unicode="Æ"/><glyph d="M952 1036q-183 0 -299.5 -124t-116.5 -284q0 -111 71.5 -170.5t180.5 -59.5q232 0 349 206h496q-48 -152 -132 -269.5t-180.5 -187.5t-212 -115.5t-216 -62.5t-203.5 -17h-30l-17 -8q58 -15 94.5 -62.5t36.5 -123.5q0 -160 -157 -219.5t-360 7.5l55 178q65 -24 138 -18 t73 43q0 15 -22 25.5t-65.5 12t-110.5 -11.5l29 99l140 97q-229 44 -351.5 196t-122.5 389q0 181 77.5 349t211.5 296t328.5 204t414.5 76q227 0 392 -89.5t230.5 -241.5t16.5 -329h-497q0 102 -66 158.5t-175 56.5z" glyph-name="Ccedilla" horiz-adv-x="1701" unicode="Ç"/><glyph d="M1196 1519h-469l-174 305h468zM1480 1022h-811l-44 -140h807l-106 -324h-807l-46 -147h807l-135 -411h-1322l462 1434h1330z" glyph-name="Egrave" horiz-adv-x="1433" unicode="È"/><glyph d="M1367 1824l-174 -305h-469l175 305h468zM1480 1022h-811l-44 -140h807l-106 -324h-807l-46 -147h807l-135 -411h-1322l462 1434h1330z" glyph-name="Eacute" horiz-adv-x="1433" unicode="É"/><glyph d="M954 1644l-99 -125h-457l298 305h652l127 -305h-420l-41 125h-60zM1480 1022h-811l-44 -140h807l-106 -324h-807l-46 -147h807l-135 -411h-1322l462 1434h1330z" glyph-name="Ecircumflex" horiz-adv-x="1433" unicode="Ê"/><glyph d="M693 1521q-65 0 -107.5 43.5t-42.5 102.5q0 79 64.5 139.5t141.5 60.5q65 0 107.5 -43.5t42.5 -104.5q0 -79 -64.5 -138.5t-141.5 -59.5zM1242 1521q-65 0 -107.5 43.5t-42.5 102.5q0 79 65 139.5t142 60.5q65 0 107.5 -43.5t42.5 -104.5q0 -79 -65 -138.5t-142 -59.5z M1480 1022h-811l-44 -140h807l-106 -324h-807l-46 -147h807l-135 -411h-1322l462 1434h1330z" glyph-name="Edieresis" horiz-adv-x="1433" unicode="Ë"/><glyph d="M787 1519h-470l-174 305h468zM-177 0l462 1434h517l-462 -1434h-517z" glyph-name="Igrave" horiz-adv-x="626" unicode="Ì"/><glyph d="M314 1519l176 305h467l-174 -305h-469zM-177 0l462 1434h517l-462 -1434h-517z" glyph-name="Iacute" horiz-adv-x="626" unicode="Í"/><glyph d="M-12 1519l299 305h652l126 -305h-420l-41 125h-60l-99 -125h-457zM-177 0l462 1434h517l-462 -1434h-517z" glyph-name="Icircumflex" horiz-adv-x="626" unicode="Î"/><glyph d="M283 1521q-65 0 -107.5 43.5t-42.5 102.5q0 79 65 139.5t142 60.5q65 0 107.5 -43.5t42.5 -104.5q0 -79 -65 -138.5t-142 -59.5zM833 1521q-65 0 -107.5 43.5t-42.5 102.5q0 79 64.5 139.5t141.5 60.5q65 0 107.5 -43.5t42.5 -104.5q0 -79 -64.5 -138.5t-141.5 -59.5z M-177 0l462 1434h517l-462 -1434h-517z" glyph-name="Idieresis" horiz-adv-x="626" unicode="Ï"/><glyph d="M1101 1434q340 0 502 -143.5t162 -403.5q0 -278 -136 -482t-363.5 -304.5t-516.5 -100.5h-788l169 524h-174l123 374h172l172 536h678zM840 432q169 0 285.5 110t116.5 274q0 104 -69.5 145t-213.5 41h-157l-34 -104h224l-123 -374h-222l-31 -92h224z" glyph-name="Eth" horiz-adv-x="1788" unicode="Ð"/><glyph d="M1280 1454q-84 0 -196.5 47t-163.5 47q-44 0 -74 -18t-34 -52h-133q-26 148 56 225t200 77q84 0 196.5 -47t163.5 -47q43 0 73.5 18t34.5 54h131q26 -150 -54.5 -227t-199.5 -77zM-177 0l469 1434h572l191 -727h53l240 727h504l-466 -1434h-558l-210 715h-53l-237 -715 h-505z" glyph-name="Ntilde" horiz-adv-x="1674" unicode="Ñ"/><glyph d="M1341 1526h-469l-174 305h468zM689 -48q-319 0 -495.5 158t-176.5 438q0 184 77.5 354.5t211.5 298t325.5 204t404.5 76.5q319 0 495.5 -157.5t176.5 -436.5q0 -184 -77.5 -354.5t-211.5 -298.5t-325.5 -205t-404.5 -77zM773 398q181 0 299 127t121 279q0 113 -69 172.5 t-172 59.5q-181 0 -297.5 -127t-120.5 -279q0 -113 69 -172.5t170 -59.5z" glyph-name="Ograve" unicode="Ò"/><glyph d="M869 1526l175 305h468l-174 -305h-469zM689 -48q-319 0 -495.5 158t-176.5 438q0 184 77.5 354.5t211.5 298t325.5 204t404.5 76.5q319 0 495.5 -157.5t176.5 -436.5q0 -184 -77.5 -354.5t-211.5 -298.5t-325.5 -205t-404.5 -77zM773 398q181 0 299 127t121 279 q0 113 -69 172.5t-172 59.5q-181 0 -297.5 -127t-120.5 -279q0 -113 69 -172.5t170 -59.5z" glyph-name="Oacute" unicode="Ó"/><glyph d="M543 1526l298 305h652l127 -305h-420l-41 124h-60l-99 -124h-457zM689 -48q-319 0 -495.5 158t-176.5 438q0 184 77.5 354.5t211.5 298t325.5 204t404.5 76.5q319 0 495.5 -157.5t176.5 -436.5q0 -184 -77.5 -354.5t-211.5 -298.5t-325.5 -205t-404.5 -77zM773 398 q181 0 299 127t121 279q0 113 -69 172.5t-172 59.5q-181 0 -297.5 -127t-120.5 -279q0 -113 69 -172.5t170 -59.5z" glyph-name="Ocircumflex" unicode="Ô"/><glyph d="M1304 1461q-84 0 -196.5 47t-163.5 47q-44 0 -74 -18t-34 -52h-133q-26 148 56 225t200 77q84 0 196.5 -47t163.5 -47q43 0 73.5 18t34.5 54h131q26 -150 -54.5 -227t-199.5 -77zM689 -48q-319 0 -495.5 158t-176.5 438q0 184 77.5 354.5t211.5 298t325.5 204t404.5 76.5 q319 0 495.5 -157.5t176.5 -436.5q0 -184 -77.5 -354.5t-211.5 -298.5t-325.5 -205t-404.5 -77zM773 398q181 0 299 127t121 279q0 113 -69 172.5t-172 59.5q-181 0 -297.5 -127t-120.5 -279q0 -113 69 -172.5t170 -59.5z" glyph-name="Otilde" unicode="Õ"/><glyph d="M838 1527q-65 0 -107.5 44t-42.5 103q0 79 64.5 139.5t141.5 60.5q65 0 107.5 -43.5t42.5 -105.5q0 -79 -64.5 -138.5t-141.5 -59.5zM1388 1527q-65 0 -108 44t-43 103q0 79 65 139.5t142 60.5q65 0 107.5 -43.5t42.5 -105.5q0 -79 -64.5 -138.5t-141.5 -59.5zM689 -48 q-319 0 -495.5 158t-176.5 438q0 184 77.5 354.5t211.5 298t325.5 204t404.5 76.5q319 0 495.5 -157.5t176.5 -436.5q0 -184 -77.5 -354.5t-211.5 -298.5t-325.5 -205t-404.5 -77zM773 398q181 0 299 127t121 279q0 113 -69 172.5t-172 59.5q-181 0 -297.5 -127t-120.5 -279 q0 -113 69 -172.5t170 -59.5z" glyph-name="Odieresis" unicode="Ö"/><glyph d="M1263 961l-350 -265l166 -245l-367 -274l-164 243l-343 -260l-202 299l343 260l-180 266l366 273l180 -265l351 267z" glyph-name="multiply" horiz-adv-x="1268" unicode="×"/><glyph d="M1505 1345q203 -157 203 -458q0 -184 -77.5 -354.5t-211.5 -298.5t-325 -205t-405 -77q-126 0 -232 26l-49 -65h-306l128 167q-213 159 -213 468q0 184 77.5 354.5t211.5 298t325.5 204t404.5 76.5q133 0 246 -29l54 70h306zM534 630q0 -67 27 -118l402 524h-11 q-181 0 -298 -127t-120 -279zM780 398q119 2 215.5 65t145.5 154t52 187q0 60 -21 106z" glyph-name="Oslash" unicode="Ø"/><glyph d="M1302 1519h-469l-174 305h467zM643 -48q-410 0 -566 179.5t-41 523.5l256 779h524l-272 -816q-39 -111 3 -174t168 -63q130 0 206 68t125 220l249 765h524l-268 -825q-118 -358 -327 -507.5t-581 -149.5z" glyph-name="Ugrave" horiz-adv-x="1643" unicode="Ù"/><glyph d="M829 1519l176 305h468l-174 -305h-470zM643 -48q-410 0 -566 179.5t-41 523.5l256 779h524l-272 -816q-39 -111 3 -174t168 -63q130 0 206 68t125 220l249 765h524l-268 -825q-118 -358 -327 -507.5t-581 -149.5z" glyph-name="Uacute" horiz-adv-x="1643" unicode="Ú"/><glyph d="M503 1519l299 305h652l126 -305h-419l-41 125h-60l-99 -125h-458zM643 -48q-410 0 -566 179.5t-41 523.5l256 779h524l-272 -816q-39 -111 3 -174t168 -63q130 0 206 68t125 220l249 765h524l-268 -825q-118 -358 -327 -507.5t-581 -149.5z" glyph-name="Ucircumflex" horiz-adv-x="1643" unicode="Û"/><glyph d="M799 1521q-65 0 -107.5 43.5t-42.5 102.5q0 79 64.5 139.5t141.5 60.5q65 0 107.5 -43.5t42.5 -104.5q0 -79 -64.5 -138.5t-141.5 -59.5zM1348 1521q-65 0 -107.5 43.5t-42.5 102.5q0 79 65 139.5t142 60.5q65 0 107.5 -43.5t42.5 -104.5q0 -79 -65 -138.5t-142 -59.5z M643 -48q-410 0 -566 179.5t-41 523.5l256 779h524l-272 -816q-39 -111 3 -174t168 -63q130 0 206 68t125 220l249 765h524l-268 -825q-118 -358 -327 -507.5t-581 -149.5z" glyph-name="Udieresis" horiz-adv-x="1643" unicode="Ü"/><glyph d="M1471 1824l-174 -305h-469l176 305h467zM1886 1434l-900 -1001l-139 -433h-516l147 464l-249 970h520l111 -492h38l421 492h567z" glyph-name="Yacute" horiz-adv-x="1667" unicode="Ý"/><glyph d="M954 1280q336 0 479.5 -154.5t46.5 -461.5q-89 -268 -300 -389t-545 -121h-242l-50 -154h-517l462 1434h516l-50 -154h200zM985 770q19 48 -8.5 65t-102.5 17h-258l-85 -270h206q79 0 150 49.5t98 138.5z" glyph-name="Thorn" horiz-adv-x="1522" unicode="Þ"/><glyph d="M-177 0l315 969q39 123 106.5 215.5t143 146t172.5 86t186 43.5t193 11q305 0 442.5 -100t137.5 -251q0 -111 -67.5 -199t-188.5 -136l-10 -36q70 -44 113.5 -110t43.5 -180q0 -119 -59 -209t-164 -143.5t-240 -80t-297 -26.5h-225l125 389h179q96 0 153 31t57 92 q0 79 -115 79h-208l92 281h139q72 0 117.5 22t45.5 65q0 75 -141 75q-193 0 -241 -143l-288 -891h-517z" glyph-name="germandbls" horiz-adv-x="1536" unicode="ß"/><glyph d="M1370 1519h-469l-174 305h468zM1519 0h-514v172h-572l-110 -172h-552l965 1434h728zM679 553h326v396h-71z" glyph-name="agrave" horiz-adv-x="1730" unicode="à"/><glyph d="M1541 1824l-174 -305h-469l175 305h468zM736 1434h728l55 -1434h-514v172h-572l-110 -172h-552zM679 553h326v396h-71z" glyph-name="aacute" horiz-adv-x="1730" unicode="á"/><glyph d="M1128 1644l-99 -125h-457l298 305h652l127 -305h-420l-41 125h-60zM736 1434h728l55 -1434h-514v172h-572l-110 -172h-552zM679 553h326v396h-71z" glyph-name="acircumflex" horiz-adv-x="1730" unicode="â"/><glyph d="M1587 1758q26 -150 -54.5 -227t-199.5 -77q-84 0 -196.5 47t-163.5 47q-44 0 -74 -18t-34 -52h-133q-26 148 56 225t200 77q84 0 196.5 -47t163.5 -47q43 0 73.5 18t34.5 54h131zM736 1434h728l55 -1434h-514v172h-572l-110 -172h-552zM679 553h326v396h-71z" glyph-name="atilde" horiz-adv-x="1730" unicode="ã"/><glyph d="M867 1521q-65 0 -107.5 43.5t-42.5 102.5q0 79 65 139.5t141 60.5q65 0 107.5 -43.5t42.5 -104.5q0 -79 -64.5 -138.5t-141.5 -59.5zM1473 1867q65 0 107.5 -43.5t42.5 -104.5q0 -79 -65 -138.5t-141 -59.5q-65 0 -108 43.5t-43 102.5q0 79 65 139.5t142 60.5zM736 1434 h728l55 -1434h-514v172h-572l-110 -172h-552zM679 553h326v396h-71z" glyph-name="adieresis" horiz-adv-x="1730" unicode="ä"/><glyph d="M1519 0h-514v172h-572l-110 -172h-552l965 1434h264q-102 55 -102 184q0 128 87.5 210t204.5 82q94 0 151 -56.5t57 -148.5q0 -89 -47 -163t-124 -108h237zM1161 1707q-24 0 -40.5 -17t-16.5 -41q0 -14 10.5 -24t27.5 -10q26 0 40 17t14 42q0 12 -9 22.5t-26 10.5z M679 553h326v396h-71z" glyph-name="aring" horiz-adv-x="1730" unicode="å"/><glyph d="M2540 1022h-811l-45 -140h808l-106 -324h-807l-46 -147h807l-135 -411h-1323l70 215h-476l-159 -215h-546l1123 1434h1780zM754 592h319l134 412h-149z" glyph-name="ae" horiz-adv-x="2491" unicode="æ"/><glyph d="M952 1036q-183 0 -299.5 -124t-116.5 -284q0 -111 71.5 -170.5t180.5 -59.5q232 0 349 206h496q-48 -152 -132 -269.5t-180.5 -187.5t-212 -115.5t-216 -62.5t-203.5 -17h-30l-17 -8q58 -15 94.5 -62.5t36.5 -123.5q0 -160 -157 -219.5t-360 7.5l55 178q65 -24 138 -18 t73 43q0 15 -22 25.5t-65.5 12t-110.5 -11.5l29 99l140 97q-229 44 -351.5 196t-122.5 389q0 181 77.5 349t211.5 296t328.5 204t414.5 76q227 0 392 -89.5t230.5 -241.5t16.5 -329h-497q0 102 -66 158.5t-175 56.5z" glyph-name="ccedilla" horiz-adv-x="1701" unicode="ç"/><glyph d="M1196 1519h-469l-174 305h468zM1480 1022h-811l-44 -140h807l-106 -324h-807l-46 -147h807l-135 -411h-1322l462 1434h1330z" glyph-name="egrave" horiz-adv-x="1433" unicode="è"/><glyph d="M1367 1824l-174 -305h-469l175 305h468zM1480 1022h-811l-44 -140h807l-106 -324h-807l-46 -147h807l-135 -411h-1322l462 1434h1330z" glyph-name="eacute" horiz-adv-x="1433" unicode="é"/><glyph d="M954 1644l-99 -125h-457l298 305h652l127 -305h-420l-41 125h-60zM1480 1022h-811l-44 -140h807l-106 -324h-807l-46 -147h807l-135 -411h-1322l462 1434h1330z" glyph-name="ecircumflex" horiz-adv-x="1433" unicode="ê"/><glyph d="M693 1521q-65 0 -107.5 43.5t-42.5 102.5q0 79 64.5 139.5t141.5 60.5q65 0 107.5 -43.5t42.5 -104.5q0 -79 -64.5 -138.5t-141.5 -59.5zM1242 1521q-65 0 -107.5 43.5t-42.5 102.5q0 79 65 139.5t142 60.5q65 0 107.5 -43.5t42.5 -104.5q0 -79 -65 -138.5t-142 -59.5z M1480 1022h-811l-44 -140h807l-106 -324h-807l-46 -147h807l-135 -411h-1322l462 1434h1330z" glyph-name="edieresis" horiz-adv-x="1433" unicode="ë"/><glyph d="M787 1519h-470l-174 305h468zM-177 0l462 1434h517l-462 -1434h-517z" glyph-name="igrave" horiz-adv-x="626" unicode="ì"/><glyph d="M314 1519l176 305h467l-174 -305h-469zM-177 0l462 1434h517l-462 -1434h-517z" glyph-name="iacute" horiz-adv-x="626" unicode="í"/><glyph d="M-12 1519l299 305h652l126 -305h-420l-41 125h-60l-99 -125h-457zM-177 0l462 1434h517l-462 -1434h-517z" glyph-name="icircumflex" horiz-adv-x="626" unicode="î"/><glyph d="M283 1521q-65 0 -107.5 43.5t-42.5 102.5q0 79 65 139.5t142 60.5q65 0 107.5 -43.5t42.5 -104.5q0 -79 -65 -138.5t-142 -59.5zM833 1521q-65 0 -107.5 43.5t-42.5 102.5q0 79 64.5 139.5t141.5 60.5q65 0 107.5 -43.5t42.5 -104.5q0 -79 -64.5 -138.5t-141.5 -59.5z M-177 0l462 1434h517l-462 -1434h-517z" glyph-name="idieresis" horiz-adv-x="626" unicode="ï"/><glyph d="M1101 1434q340 0 502 -143.5t162 -403.5q0 -278 -136 -482t-363.5 -304.5t-516.5 -100.5h-788l169 524h-174l123 374h172l172 536h678zM840 432q169 0 285.5 110t116.5 274q0 104 -69.5 145t-213.5 41h-157l-34 -104h224l-123 -374h-222l-31 -92h224z" glyph-name="eth" horiz-adv-x="1788" unicode="ð"/><glyph d="M1280 1454q-84 0 -196.5 47t-163.5 47q-44 0 -74 -18t-34 -52h-133q-26 148 56 225t200 77q84 0 196.5 -47t163.5 -47q43 0 73.5 18t34.5 54h131q26 -150 -54.5 -227t-199.5 -77zM-177 0l469 1434h572l191 -727h53l240 727h504l-466 -1434h-558l-210 715h-53l-237 -715 h-505z" glyph-name="ntilde" horiz-adv-x="1674" unicode="ñ"/><glyph d="M1341 1526h-469l-174 305h468zM689 -48q-319 0 -495.5 158t-176.5 438q0 184 77.5 354.5t211.5 298t325.5 204t404.5 76.5q319 0 495.5 -157.5t176.5 -436.5q0 -184 -77.5 -354.5t-211.5 -298.5t-325.5 -205t-404.5 -77zM773 398q181 0 299 127t121 279q0 113 -69 172.5 t-172 59.5q-181 0 -297.5 -127t-120.5 -279q0 -113 69 -172.5t170 -59.5z" glyph-name="ograve" unicode="ò"/><glyph d="M869 1526l175 305h468l-174 -305h-469zM689 -48q-319 0 -495.5 158t-176.5 438q0 184 77.5 354.5t211.5 298t325.5 204t404.5 76.5q319 0 495.5 -157.5t176.5 -436.5q0 -184 -77.5 -354.5t-211.5 -298.5t-325.5 -205t-404.5 -77zM773 398q181 0 299 127t121 279 q0 113 -69 172.5t-172 59.5q-181 0 -297.5 -127t-120.5 -279q0 -113 69 -172.5t170 -59.5z" glyph-name="oacute" unicode="ó"/><glyph d="M543 1526l298 305h652l127 -305h-420l-41 124h-60l-99 -124h-457zM689 -48q-319 0 -495.5 158t-176.5 438q0 184 77.5 354.5t211.5 298t325.5 204t404.5 76.5q319 0 495.5 -157.5t176.5 -436.5q0 -184 -77.5 -354.5t-211.5 -298.5t-325.5 -205t-404.5 -77zM773 398 q181 0 299 127t121 279q0 113 -69 172.5t-172 59.5q-181 0 -297.5 -127t-120.5 -279q0 -113 69 -172.5t170 -59.5z" glyph-name="ocircumflex" unicode="ô"/><glyph d="M1304 1461q-84 0 -196.5 47t-163.5 47q-44 0 -74 -18t-34 -52h-133q-26 148 56 225t200 77q84 0 196.5 -47t163.5 -47q43 0 73.5 18t34.5 54h131q26 -150 -54.5 -227t-199.5 -77zM689 -48q-319 0 -495.5 158t-176.5 438q0 184 77.5 354.5t211.5 298t325.5 204t404.5 76.5 q319 0 495.5 -157.5t176.5 -436.5q0 -184 -77.5 -354.5t-211.5 -298.5t-325.5 -205t-404.5 -77zM773 398q181 0 299 127t121 279q0 113 -69 172.5t-172 59.5q-181 0 -297.5 -127t-120.5 -279q0 -113 69 -172.5t170 -59.5z" glyph-name="otilde" unicode="õ"/><glyph d="M838 1527q-65 0 -107.5 44t-42.5 103q0 79 64.5 139.5t141.5 60.5q65 0 107.5 -43.5t42.5 -105.5q0 -79 -64.5 -138.5t-141.5 -59.5zM1388 1527q-65 0 -108 44t-43 103q0 79 65 139.5t142 60.5q65 0 107.5 -43.5t42.5 -105.5q0 -79 -64.5 -138.5t-141.5 -59.5zM689 -48 q-319 0 -495.5 158t-176.5 438q0 184 77.5 354.5t211.5 298t325.5 204t404.5 76.5q319 0 495.5 -157.5t176.5 -436.5q0 -184 -77.5 -354.5t-211.5 -298.5t-325.5 -205t-404.5 -77zM773 398q181 0 299 127t121 279q0 113 -69 172.5t-172 59.5q-181 0 -297.5 -127t-120.5 -279 q0 -113 69 -172.5t170 -59.5z" glyph-name="odieresis" unicode="ö"/><glyph d="M754 1000q-80 0 -130.5 51.5t-50.5 131.5q0 102 73.5 173t174.5 71q80 0 130.5 -51.5t50.5 -131.5q0 -102 -74.5 -173t-173.5 -71zM31 541l111 353h1109l-111 -353h-1109zM433 -5q-80 0 -130 51t-50 131q0 102 73 173.5t174 71.5q80 0 130.5 -51.5t50.5 -131.5 q0 -102 -74.5 -173t-173.5 -71z" glyph-name="divide" horiz-adv-x="1280" unicode="÷"/><glyph d="M1505 1345q203 -157 203 -458q0 -184 -77.5 -354.5t-211.5 -298.5t-325 -205t-405 -77q-126 0 -232 26l-49 -65h-306l128 167q-213 159 -213 468q0 184 77.5 354.5t211.5 298t325.5 204t404.5 76.5q133 0 246 -29l54 70h306zM534 630q0 -67 27 -118l402 524h-11 q-181 0 -298 -127t-120 -279zM780 398q119 2 215.5 65t145.5 154t52 187q0 60 -21 106z" glyph-name="oslash" unicode="ø"/><glyph d="M1302 1519h-469l-174 305h467zM643 -48q-410 0 -566 179.5t-41 523.5l256 779h524l-272 -816q-39 -111 3 -174t168 -63q130 0 206 68t125 220l249 765h524l-268 -825q-118 -358 -327 -507.5t-581 -149.5z" glyph-name="ugrave" horiz-adv-x="1643" unicode="ù"/><glyph d="M829 1519l176 305h468l-174 -305h-470zM643 -48q-410 0 -566 179.5t-41 523.5l256 779h524l-272 -816q-39 -111 3 -174t168 -63q130 0 206 68t125 220l249 765h524l-268 -825q-118 -358 -327 -507.5t-581 -149.5z" glyph-name="uacute" horiz-adv-x="1643" unicode="ú"/><glyph d="M503 1519l299 305h652l126 -305h-419l-41 125h-60l-99 -125h-458zM643 -48q-410 0 -566 179.5t-41 523.5l256 779h524l-272 -816q-39 -111 3 -174t168 -63q130 0 206 68t125 220l249 765h524l-268 -825q-118 -358 -327 -507.5t-581 -149.5z" glyph-name="ucircumflex" horiz-adv-x="1643" unicode="û"/><glyph d="M799 1521q-65 0 -107.5 43.5t-42.5 102.5q0 79 64.5 139.5t141.5 60.5q65 0 107.5 -43.5t42.5 -104.5q0 -79 -64.5 -138.5t-141.5 -59.5zM1348 1521q-65 0 -107.5 43.5t-42.5 102.5q0 79 65 139.5t142 60.5q65 0 107.5 -43.5t42.5 -104.5q0 -79 -65 -138.5t-142 -59.5z M643 -48q-410 0 -566 179.5t-41 523.5l256 779h524l-272 -816q-39 -111 3 -174t168 -63q130 0 206 68t125 220l249 765h524l-268 -825q-118 -358 -327 -507.5t-581 -149.5z" glyph-name="udieresis" horiz-adv-x="1643" unicode="ü"/><glyph d="M1471 1824l-174 -305h-469l176 305h467zM1886 1434l-900 -1001l-139 -433h-516l147 464l-249 970h520l111 -492h38l421 492h567z" glyph-name="yacute" horiz-adv-x="1667" unicode="ý"/><glyph d="M954 1280q336 0 479.5 -154.5t46.5 -461.5q-89 -268 -300 -389t-545 -121h-242l-50 -154h-517l462 1434h516l-50 -154h200zM985 770q19 48 -8.5 65t-102.5 17h-258l-85 -270h206q79 0 150 49.5t98 138.5z" glyph-name="thorn" horiz-adv-x="1522" unicode="þ"/><glyph d="M797 1521q-65 0 -107.5 43.5t-42.5 102.5q0 79 65 139.5t141 60.5q65 0 108 -43.5t43 -104.5q0 -79 -65 -138.5t-142 -59.5zM1347 1521q-65 0 -108 43.5t-43 102.5q0 79 65 139.5t142 60.5q65 0 107.5 -43.5t42.5 -104.5q0 -79 -64.5 -138.5t-141.5 -59.5zM1886 1434 l-900 -1001l-139 -433h-516l147 464l-249 970h520l111 -492h38l421 492h567z" glyph-name="ydieresis" horiz-adv-x="1667" unicode="ÿ"/><glyph d="M865 1900h819l-122 -374h-820zM736 1434h728l55 -1434h-514v172h-572l-110 -172h-552zM679 553h326v396h-71z" glyph-name="Amacron" horiz-adv-x="1730" unicode="Ā"/><glyph d="M865 1900h819l-122 -374h-820zM736 1434h728l55 -1434h-514v172h-572l-110 -172h-552zM679 553h326v396h-71z" glyph-name="amacron" horiz-adv-x="1730" unicode="ā"/><glyph d="M1343 1824h287q-38 -174 -153 -239.5t-299 -65.5q-203 0 -299 66.5t-51 238.5h290q-20 -94 87 -93q49 0 88.5 22.5t49.5 70.5zM736 1434h728l55 -1434h-514v172h-572l-110 -172h-552zM679 553h326v396h-71z" glyph-name="Abreve" horiz-adv-x="1730" unicode="Ă"/><glyph d="M1343 1824h287q-38 -174 -153 -239.5t-299 -65.5q-203 0 -299 66.5t-51 238.5h290q-20 -94 87 -93q49 0 88.5 22.5t49.5 70.5zM736 1434h728l55 -1434h-514v172h-572l-110 -172h-552zM679 553h326v396h-71z" glyph-name="abreve" horiz-adv-x="1730" unicode="ă"/><glyph d="M1012 0q-125 0 -125 -75v-2q0 -14 2 -25t20.5 -24.5t53.5 -13.5v-276q-68 0 -134 11.5t-132.5 40t-107.5 84t-41 132.5q0 53 20.5 96t47 70.5t74 48t81 31t89.5 17t78.5 7.5t66.5 3v47h-572l-110 -172h-552l965 1434h728l55 -1434h-507zM679 553h326v396h-71z" glyph-name="Aogonek" horiz-adv-x="1730" unicode="Ą"/><glyph d="M1012 0q-125 0 -125 -75v-2q0 -14 2 -25t20.5 -24.5t53.5 -13.5v-276q-68 0 -134 11.5t-132.5 40t-107.5 84t-41 132.5q0 53 20.5 96t47 70.5t74 48t81 31t89.5 17t78.5 7.5t66.5 3v47h-572l-110 -172h-552l965 1434h728l55 -1434h-507zM679 553h326v396h-71z" glyph-name="aogonek" horiz-adv-x="1730" unicode="ą"/><glyph d="M899 1519l176 305h468l-174 -305h-470zM689 -48q-319 0 -494.5 159.5t-175.5 444.5q0 181 77.5 349t211.5 296t328.5 204t414.5 76q227 0 392 -89.5t230.5 -241.5t16.5 -329h-497q0 102 -65.5 158.5t-175.5 56.5q-183 0 -299.5 -124t-116.5 -284q0 -111 71.5 -170.5 t180.5 -59.5q232 0 349 206h496q-48 -152 -132 -269.5t-180.5 -187.5t-212 -115.5t-216.5 -62.5t-203 -17z" glyph-name="Cacute" horiz-adv-x="1701" unicode="Ć"/><glyph d="M899 1519l176 305h468l-174 -305h-470zM689 -48q-319 0 -494.5 159.5t-175.5 444.5q0 181 77.5 349t211.5 296t328.5 204t414.5 76q227 0 392 -89.5t230.5 -241.5t16.5 -329h-497q0 102 -65.5 158.5t-175.5 56.5q-183 0 -299.5 -124t-116.5 -284q0 -111 71.5 -170.5 t180.5 -59.5q232 0 349 206h496q-48 -152 -132 -269.5t-180.5 -187.5t-212 -115.5t-216.5 -62.5t-203 -17z" glyph-name="cacute" horiz-adv-x="1701" unicode="ć"/><glyph d="M1179 1521q-65 0 -107.5 43.5t-42.5 102.5q0 79 65 139.5t142 60.5q65 0 107.5 -43.5t42.5 -104.5q0 -79 -65 -138.5t-142 -59.5zM689 -48q-319 0 -494.5 159.5t-175.5 444.5q0 181 77.5 349t211.5 296t328.5 204t414.5 76q227 0 392 -89.5t230.5 -241.5t16.5 -329h-497 q0 102 -65.5 158.5t-175.5 56.5q-183 0 -299.5 -124t-116.5 -284q0 -111 71.5 -170.5t180.5 -59.5q232 0 349 206h496q-48 -152 -132 -269.5t-180.5 -187.5t-212 -115.5t-216.5 -62.5t-203 -17z" glyph-name="Cdotaccent" horiz-adv-x="1701" unicode="Ċ"/><glyph d="M1179 1521q-65 0 -107.5 43.5t-42.5 102.5q0 79 65 139.5t142 60.5q65 0 107.5 -43.5t42.5 -104.5q0 -79 -65 -138.5t-142 -59.5zM689 -48q-319 0 -494.5 159.5t-175.5 444.5q0 181 77.5 349t211.5 296t328.5 204t414.5 76q227 0 392 -89.5t230.5 -241.5t16.5 -329h-497 q0 102 -65.5 158.5t-175.5 56.5q-183 0 -299.5 -124t-116.5 -284q0 -111 71.5 -170.5t180.5 -59.5q232 0 349 206h496q-48 -152 -132 -269.5t-180.5 -187.5t-212 -115.5t-216.5 -62.5t-203 -17z" glyph-name="cdotaccent" horiz-adv-x="1701" unicode="ċ"/><glyph d="M1251 1461q256 -55 379 -234t60 -406h-497q0 102 -65.5 158.5t-175.5 56.5q-183 0 -299.5 -124t-116.5 -284q0 -111 71.5 -170.5t180.5 -59.5q232 0 349 206h496q-48 -152 -132 -269.5t-180.5 -187.5t-212 -115.5t-216 -62.5t-203.5 -17q-319 0 -494.5 159.5 t-175.5 444.5q0 323 226 580t584 325h-56l-126 305h420l41 -124h59l99 124h458l-299 -305h-174z" glyph-name="Ccaron" horiz-adv-x="1701" unicode="Č"/><glyph d="M1251 1461q256 -55 379 -234t60 -406h-497q0 102 -65.5 158.5t-175.5 56.5q-183 0 -299.5 -124t-116.5 -284q0 -111 71.5 -170.5t180.5 -59.5q232 0 349 206h496q-48 -152 -132 -269.5t-180.5 -187.5t-212 -115.5t-216 -62.5t-203.5 -17q-319 0 -494.5 159.5 t-175.5 444.5q0 323 226 580t584 325h-56l-126 305h420l41 -124h59l99 124h458l-299 -305h-174z" glyph-name="ccaron" horiz-adv-x="1701" unicode="č"/><glyph d="M1642 1766l-299 -305h-652l-126 305h420l41 -124h59l99 124h458zM-174 0l462 1434h678q340 0 502 -143.5t162 -403.5q0 -278 -135.5 -482t-363.5 -304.5t-517 -100.5h-788zM481 432h224q169 0 286 110t117 274q0 104 -70 145t-214 41h-157z" glyph-name="Dcaron" horiz-adv-x="1653" unicode="Ď"/><glyph d="M1642 1766l-299 -305h-652l-126 305h420l41 -124h59l99 124h458zM-174 0l462 1434h678q340 0 502 -143.5t162 -403.5q0 -278 -135.5 -482t-363.5 -304.5t-517 -100.5h-788zM481 432h224q169 0 286 110t117 274q0 104 -70 145t-214 41h-157z" glyph-name="dcaron" horiz-adv-x="1653" unicode="ď"/><glyph d="M1101 1434q340 0 502 -143.5t162 -403.5q0 -278 -136 -482t-363.5 -304.5t-516.5 -100.5h-788l169 524h-174l123 374h172l172 536h678zM840 432q169 0 285.5 110t116.5 274q0 104 -69.5 145t-213.5 41h-157l-34 -104h224l-123 -374h-222l-31 -92h224z" glyph-name="Dcroat" horiz-adv-x="1788" unicode="Đ"/><glyph d="M1101 1434q340 0 502 -143.5t162 -403.5q0 -278 -136 -482t-363.5 -304.5t-516.5 -100.5h-788l169 524h-174l123 374h172l172 536h678zM840 432q169 0 285.5 110t116.5 274q0 104 -69.5 145t-213.5 41h-157l-34 -104h224l-123 -374h-222l-31 -92h224z" glyph-name="dcroat" horiz-adv-x="1788" unicode="đ"/><glyph d="M1510 1900l-122 -374h-820l123 374h819zM1480 1022h-811l-44 -140h807l-106 -324h-807l-46 -147h807l-135 -411h-1322l462 1434h1330z" glyph-name="Emacron" horiz-adv-x="1433" unicode="Ē"/><glyph d="M1510 1900l-122 -374h-820l123 374h819zM1480 1022h-811l-44 -140h807l-106 -324h-807l-46 -147h807l-135 -411h-1322l462 1434h1330z" glyph-name="emacron" horiz-adv-x="1433" unicode="ē"/><glyph d="M1004 1521q-65 0 -108 43.5t-43 102.5q0 79 65 139.5t142 60.5q65 0 107.5 -43.5t42.5 -104.5q0 -79 -64.5 -138.5t-141.5 -59.5zM1480 1022h-811l-44 -140h807l-106 -324h-807l-46 -147h807l-135 -411h-1322l462 1434h1330z" glyph-name="Edotaccent" horiz-adv-x="1433" unicode="Ė"/><glyph d="M1004 1521q-65 0 -108 43.5t-43 102.5q0 79 65 139.5t142 60.5q65 0 107.5 -43.5t42.5 -104.5q0 -79 -64.5 -138.5t-141.5 -59.5zM1480 1022h-811l-44 -140h807l-106 -324h-807l-46 -147h807l-135 -411h-1322l462 1434h1330z" glyph-name="edotaccent" horiz-adv-x="1433" unicode="ė"/><glyph d="M1480 1022h-811l-44 -140h807l-106 -324h-807l-46 -147h807l-133 -406v-5q-125 0 -125 -75v-2q0 -14 2 -25t20.5 -24.5t52.5 -13.5v-276q-68 0 -133.5 11.5t-132 40t-107.5 84t-41 132.5q0 89 51 148h-911l462 1434h1330z" glyph-name="Eogonek" horiz-adv-x="1433" unicode="Ę"/><glyph d="M1480 1022h-811l-44 -140h807l-106 -324h-807l-46 -147h807l-133 -406v-5q-125 0 -125 -75v-2q0 -14 2 -25t20.5 -24.5t52.5 -13.5v-276q-68 0 -133.5 11.5t-132 40t-107.5 84t-41 132.5q0 89 51 148h-911l462 1434h1330z" glyph-name="eogonek" horiz-adv-x="1433" unicode="ę"/><glyph d="M1249 1461h-652l-126 305h420l41 -124h60l99 124h457zM1480 1022h-811l-44 -140h807l-106 -324h-807l-46 -147h807l-135 -411h-1322l462 1434h1330z" glyph-name="Ecaron" horiz-adv-x="1433" unicode="Ě"/><glyph d="M1249 1461h-652l-126 305h420l41 -124h60l99 124h457zM1480 1022h-811l-44 -140h807l-106 -324h-807l-46 -147h807l-135 -411h-1322l462 1434h1330z" glyph-name="ecaron" horiz-adv-x="1433" unicode="ě"/><glyph d="M1084 1519q-203 0 -299 66.5t-51 238.5h290q-20 -94 87 -93q49 0 88.5 23t49.5 70h287q-38 -174 -153 -239.5t-299 -65.5zM952 1036q-183 0 -299.5 -124t-116.5 -284q0 -111 71.5 -170.5t180.5 -59.5q224 0 315 157h-309l82 251h817l-259 -806h-255l45 167 q-96 -99 -239.5 -157t-313.5 -58q-309 0 -480.5 154.5t-171.5 437.5q0 186 77.5 357t211.5 299t328.5 204.5t414.5 76.5q317 0 501.5 -169t152.5 -402h-521q-27 56 -87.5 91t-144.5 35z" glyph-name="Gbreve" horiz-adv-x="1708" unicode="Ğ"/><glyph d="M1084 1519q-203 0 -299 66.5t-51 238.5h290q-20 -94 87 -93q49 0 88.5 23t49.5 70h287q-38 -174 -153 -239.5t-299 -65.5zM952 1036q-183 0 -299.5 -124t-116.5 -284q0 -111 71.5 -170.5t180.5 -59.5q224 0 315 157h-309l82 251h817l-259 -806h-255l45 167 q-96 -99 -239.5 -157t-313.5 -58q-309 0 -480.5 154.5t-171.5 437.5q0 186 77.5 357t211.5 299t328.5 204.5t414.5 76.5q317 0 501.5 -169t152.5 -402h-521q-27 56 -87.5 91t-144.5 35z" glyph-name="gbreve" horiz-adv-x="1708" unicode="ğ"/><glyph d="M1084 1521q-65 0 -107.5 43.5t-42.5 102.5q0 79 64.5 139.5t141.5 60.5q65 0 107.5 -43.5t42.5 -104.5q0 -79 -64.5 -138.5t-141.5 -59.5zM952 1036q-183 0 -299.5 -124t-116.5 -284q0 -111 71.5 -170.5t180.5 -59.5q224 0 315 157h-309l82 251h817l-259 -806h-255 l45 167q-96 -99 -239.5 -157t-313.5 -58q-309 0 -480.5 154.5t-171.5 437.5q0 186 77.5 357t211.5 299t328.5 204.5t414.5 76.5q317 0 501.5 -169t152.5 -402h-521q-27 56 -87.5 91t-144.5 35z" glyph-name="Gdotaccent" horiz-adv-x="1708" unicode="Ġ"/><glyph d="M1084 1521q-65 0 -107.5 43.5t-42.5 102.5q0 79 64.5 139.5t141.5 60.5q65 0 107.5 -43.5t42.5 -104.5q0 -79 -64.5 -138.5t-141.5 -59.5zM952 1036q-183 0 -299.5 -124t-116.5 -284q0 -111 71.5 -170.5t180.5 -59.5q224 0 315 157h-309l82 251h817l-259 -806h-255 l45 167q-96 -99 -239.5 -157t-313.5 -58q-309 0 -480.5 154.5t-171.5 437.5q0 186 77.5 357t211.5 299t328.5 204.5t414.5 76.5q317 0 501.5 -169t152.5 -402h-521q-27 56 -87.5 91t-144.5 35z" glyph-name="gdotaccent" horiz-adv-x="1708" unicode="ġ"/><glyph d="M952 1036q-183 0 -299.5 -124t-116.5 -284q0 -111 71.5 -170.5t180.5 -59.5q224 0 315 157h-309l82 251h817l-259 -806h-255l45 167q-96 -99 -239.5 -157t-313.5 -58q-309 0 -480.5 154.5t-171.5 437.5q0 186 77.5 357t211.5 299t328.5 204.5t414.5 76.5 q317 0 501.5 -169t152.5 -402h-521q-27 56 -87.5 91t-144.5 35zM928 -118q0 2 2 5.5t2 4.5zM300 -483l118 365h510q-171 -510 -351 -718h-234q80 179 128 353h-171z" glyph-name="Gcommaaccent" horiz-adv-x="1708" unicode="Ģ"/><glyph d="M952 1036q-183 0 -299.5 -124t-116.5 -284q0 -111 71.5 -170.5t180.5 -59.5q224 0 315 157h-309l82 251h817l-259 -806h-255l45 167q-96 -99 -239.5 -157t-313.5 -58q-309 0 -480.5 154.5t-171.5 437.5q0 186 77.5 357t211.5 299t328.5 204.5t414.5 76.5 q317 0 501.5 -169t152.5 -402h-521q-27 56 -87.5 91t-144.5 35zM928 -118q0 2 2 5.5t2 4.5zM300 -483l118 365h510q-171 -510 -351 -718h-234q80 179 128 353h-171z" glyph-name="gcommaaccent" horiz-adv-x="1708" unicode="ģ"/><glyph d="M1302 1434h516l-461 -1434h-516l156 481h-499l-155 -481h-517l462 1434h516l-31 -96h498zM637 911h498l24 75h-499z" glyph-name="Hbar" horiz-adv-x="1645" unicode="Ħ"/><glyph d="M1302 1434h516l-461 -1434h-516l156 481h-499l-155 -481h-517l462 1434h516l-31 -96h498zM637 911h498l24 75h-499z" glyph-name="hbar" horiz-adv-x="1645" unicode="ħ"/><glyph d="M159 1526l123 374h819l-123 -374h-819zM-177 0l462 1434h517l-462 -1434h-517z" glyph-name="Imacron" horiz-adv-x="626" unicode="Ī"/><glyph d="M159 1526l123 374h819l-123 -374h-819zM-177 0l462 1434h517l-462 -1434h-517z" glyph-name="imacron" horiz-adv-x="626" unicode="ī"/><glyph d="M340 0q-125 0 -125 -75v-2q0 -14 1.5 -25t20.5 -24.5t53 -13.5v-276q-68 0 -134 11.5t-132.5 40t-107.5 84t-41 132.5q0 89 52 148h-104l462 1434h517z" glyph-name="Iogonek" horiz-adv-x="626" unicode="Į"/><glyph d="M340 0q-125 0 -125 -75v-2q0 -14 1.5 -25t20.5 -24.5t53 -13.5v-276q-68 0 -134 11.5t-132.5 40t-107.5 84t-41 132.5q0 89 52 148h-104l462 1434h517z" glyph-name="iogonek" horiz-adv-x="626" unicode="į"/><glyph d="M594 1521q-65 0 -107.5 43.5t-42.5 102.5q0 79 64.5 139.5t141.5 60.5q65 0 107.5 -43.5t42.5 -104.5q0 -79 -64.5 -138.5t-141.5 -59.5zM-177 0l462 1434h517l-462 -1434h-517z" glyph-name="Idotaccent" horiz-adv-x="626" unicode="İ"/><glyph d="M-177 0l462 1434h517l-462 -1434h-517z" glyph-name="dotlessi" horiz-adv-x="626" unicode="ı"/><glyph d="M-177 0l462 1434h517l-462 -1434h-517zM1145 -48q-717 0 -517 647h514q-14 -43 -16.5 -78t2 -56t17 -36.5t23.5 -22.5t31 -11t27.5 -4h21.5q157 0 223 198l272 845h517l-270 -840q-60 -186 -143.5 -314t-192.5 -199t-230.5 -100t-278.5 -29z" glyph-name="IJ" horiz-adv-x="2082" unicode="Ĳ"/><glyph d="M1848 1434l-763 -652l465 -782h-514l-312 524h-46l-227 -179l-113 -345h-515l469 1434h515l-147 -449h64l537 449h587zM847 -118q0 2 1.5 5.5t1.5 4.5zM218 -483l118 365h511q-171 -510 -352 -718h-234q80 179 128 353h-171z" glyph-name="Kcommaaccent" unicode="Ķ"/><glyph d="M1848 1434l-763 -652l465 -782h-514l-312 524h-46l-227 -179l-113 -345h-515l469 1434h515l-147 -449h64l537 449h587zM847 -118q0 2 1.5 5.5t1.5 4.5zM218 -483l118 365h511q-171 -510 -352 -718h-234q80 179 128 353h-171z" glyph-name="kcommaaccent" unicode="ķ"/><glyph d="M321 1502l176 305h467l-174 -305h-469zM-177 0l467 1434h516l-328 -1004h775l-139 -430h-1291z" glyph-name="Lacute" horiz-adv-x="1404" unicode="Ĺ"/><glyph d="M321 1502l176 305h467l-174 -305h-469zM-177 0l467 1434h516l-328 -1004h775l-139 -430h-1291z" glyph-name="lacute" horiz-adv-x="1404" unicode="ĺ"/><glyph d="M478 430h775l-139 -430h-1291l467 1434h516zM691 -118l4 10q-2 -2 -2 -5t-2 -5zM63 -483l118 365h510q-171 -510 -351 -718h-234q80 179 128 353h-171z" glyph-name="Lcommaaccent" horiz-adv-x="1404" unicode="Ļ"/><glyph d="M478 430h775l-139 -430h-1291l467 1434h516zM691 -118l4 10q-2 -2 -2 -5t-2 -5zM63 -483l118 365h510q-171 -510 -351 -718h-234q80 179 128 353h-171z" glyph-name="lcommaaccent" horiz-adv-x="1404" unicode="ļ"/><glyph d="M1527 1446l-3 -12q0 5 3 12zM806 1434l-328 -1004h775l-139 -430h-1291l467 1434h516zM785 1004l138 430h601q-201 -599 -413 -845h-276q99 220 151 415h-201z" glyph-name="Lcaron" horiz-adv-x="1404" unicode="Ľ"/><glyph d="M1527 1446l-3 -12q0 5 3 12zM806 1434l-328 -1004h775l-139 -430h-1291l467 1434h516zM785 1004l138 430h601q-201 -599 -413 -845h-276q99 220 151 415h-201z" glyph-name="lcaron" horiz-adv-x="1404" unicode="ľ"/><glyph d="M-177 0l467 1434h516l-328 -1004h775l-139 -430h-1291zM1128 654q-94 0 -153.5 59.5t-59.5 153.5q0 121 87 204t205 83q94 0 152.5 -60t58.5 -154q0 -121 -86 -203.5t-204 -82.5z" glyph-name="Ldot" horiz-adv-x="1404" unicode="Ŀ"/><glyph d="M544 430h775l-138 -430h-1292l92 283l-70 -39l31 364l177 99l238 727h515l-121 -374l230 130l-30 -364l-340 -189z" glyph-name="Lslash" horiz-adv-x="1471" unicode="Ł"/><glyph d="M544 430h775l-138 -430h-1292l92 283l-70 -39l31 364l177 99l238 727h515l-121 -374l230 130l-30 -364l-340 -189z" glyph-name="lslash" horiz-adv-x="1471" unicode="ł"/><glyph d="M845 1519l176 305h467l-174 -305h-469zM-177 0l469 1434h572l191 -727h53l240 727h504l-466 -1434h-558l-210 715h-53l-237 -715h-505z" glyph-name="Nacute" horiz-adv-x="1674" unicode="Ń"/><glyph d="M845 1519l176 305h467l-174 -305h-469zM-177 0l469 1434h572l191 -727h53l240 727h504l-466 -1434h-558l-210 715h-53l-237 -715h-505z" glyph-name="nacute" horiz-adv-x="1674" unicode="ń"/><glyph d="M1348 1434h504l-466 -1434h-558l-210 715h-53l-237 -715h-505l469 1434h572l191 -727h53zM843 -118q0 2 2 5.5t2 4.5zM215 -483l118 365h510q-171 -510 -351 -718h-234q80 179 128 353h-171z" glyph-name="Ncommaaccent" horiz-adv-x="1674" unicode="Ņ"/><glyph d="M1348 1434h504l-466 -1434h-558l-210 715h-53l-237 -715h-505l469 1434h572l191 -727h53zM843 -118q0 2 2 5.5t2 4.5zM215 -483l118 365h510q-171 -510 -351 -718h-234q80 179 128 353h-171z" glyph-name="ncommaaccent" horiz-adv-x="1674" unicode="ņ"/><glyph d="M1669 1766l-299 -305h-651l-127 305h420l41 -124h60l99 124h457zM-177 0l469 1434h572l191 -727h53l240 727h504l-466 -1434h-558l-210 715h-53l-237 -715h-505z" glyph-name="Ncaron" horiz-adv-x="1674" unicode="Ň"/><glyph d="M1669 1766l-299 -305h-651l-127 305h420l41 -124h60l99 124h457zM-177 0l469 1434h572l191 -727h53l240 727h504l-466 -1434h-558l-210 715h-53l-237 -715h-505z" glyph-name="ncaron" horiz-adv-x="1674" unicode="ň"/><glyph d="M1852 1434l-395 -1212l-78 -244q-84 -258 -284.5 -371.5t-522.5 -113.5l104 432q157 0 203 75h-51l-210 715h-53l-237 -715h-505l469 1434h572l191 -727h53l240 727h504z" glyph-name="Eng" horiz-adv-x="1674" unicode="Ŋ"/><glyph d="M1852 1434l-395 -1212l-78 -244q-84 -258 -284.5 -371.5t-522.5 -113.5l104 432q157 0 203 75h-51l-210 715h-53l-237 -715h-505l469 1434h572l191 -727h53l240 727h504z" glyph-name="eng" horiz-adv-x="1674" unicode="ŋ"/><glyph d="M713 1533l123 373h819l-122 -373h-820zM689 -48q-319 0 -495.5 158t-176.5 438q0 184 77.5 354.5t211.5 298t325.5 204t404.5 76.5q319 0 495.5 -157.5t176.5 -436.5q0 -184 -77.5 -354.5t-211.5 -298.5t-325.5 -205t-404.5 -77zM773 398q181 0 299 127t121 279 q0 113 -69 172.5t-172 59.5q-181 0 -297.5 -127t-120.5 -279q0 -113 69 -172.5t170 -59.5z" glyph-name="Omacron" unicode="Ō"/><glyph d="M713 1533l123 373h819l-122 -373h-820zM689 -48q-319 0 -495.5 158t-176.5 438q0 184 77.5 354.5t211.5 298t325.5 204t404.5 76.5q319 0 495.5 -157.5t176.5 -436.5q0 -184 -77.5 -354.5t-211.5 -298.5t-325.5 -205t-404.5 -77zM773 398q181 0 299 127t121 279 q0 113 -69 172.5t-172 59.5q-181 0 -297.5 -127t-120.5 -279q0 -113 69 -172.5t170 -59.5z" glyph-name="omacron" unicode="ō"/><glyph d="M631 1526l176 305h468l-174 -305h-470zM1167 1526l176 305h468l-174 -305h-470zM689 -48q-319 0 -495.5 158t-176.5 438q0 184 77.5 354.5t211.5 298t325.5 204t404.5 76.5q319 0 495.5 -157.5t176.5 -436.5q0 -184 -77.5 -354.5t-211.5 -298.5t-325.5 -205t-404.5 -77z M773 398q181 0 299 127t121 279q0 113 -69 172.5t-172 59.5q-181 0 -297.5 -127t-120.5 -279q0 -113 69 -172.5t170 -59.5z" glyph-name="Ohungarumlaut" unicode="Ő"/><glyph d="M631 1526l176 305h468l-174 -305h-470zM1167 1526l176 305h468l-174 -305h-470zM689 -48q-319 0 -495.5 158t-176.5 438q0 184 77.5 354.5t211.5 298t325.5 204t404.5 76.5q319 0 495.5 -157.5t176.5 -436.5q0 -184 -77.5 -354.5t-211.5 -298.5t-325.5 -205t-404.5 -77z M773 398q181 0 299 127t121 279q0 113 -69 172.5t-172 59.5q-181 0 -297.5 -127t-120.5 -279q0 -113 69 -172.5t170 -59.5z" glyph-name="ohungarumlaut" unicode="ő"/><glyph d="M2608 1022h-811l-44 -140h807l-106 -324h-807l-46 -147h807l-135 -411h-1259q-157 -48 -325 -48q-319 0 -495.5 158t-176.5 438q0 184 77.5 354.5t211.5 298t325.5 204t404.5 76.5t369 -73l8 26h1330zM534 630q0 -113 69 -172.5t170 -59.5q181 0 299 127t121 279 q0 113 -69 172.5t-172 59.5q-181 0 -298 -127t-120 -279z" glyph-name="OE" horiz-adv-x="2561" unicode="Œ"/><glyph d="M2608 1022h-811l-44 -140h807l-106 -324h-807l-46 -147h807l-135 -411h-1259q-157 -48 -325 -48q-319 0 -495.5 158t-176.5 438q0 184 77.5 354.5t211.5 298t325.5 204t404.5 76.5t369 -73l8 26h1330zM534 630q0 -113 69 -172.5t170 -59.5q181 0 299 127t121 279 q0 113 -69 172.5t-172 59.5q-181 0 -298 -127t-120 -279z" glyph-name="oe" horiz-adv-x="2561" unicode="œ"/><glyph d="M1440 1824l-174 -305h-469l176 305h467zM1604 1005q0 -183 -92 -325t-242 -228l100 -452h-494l-74 350h-346l-113 -350h-517l462 1434h762q280 0 417 -106t137 -323zM667 1005l-90 -280l305 4q67 0 131 42.5t64 121.5q0 61 -35 86.5t-112 25.5h-263z" glyph-name="Racute" horiz-adv-x="1604" unicode="Ŕ"/><glyph d="M1440 1824l-174 -305h-469l176 305h467zM1604 1005q0 -183 -92 -325t-242 -228l100 -452h-494l-74 350h-346l-113 -350h-517l462 1434h762q280 0 417 -106t137 -323zM667 1005l-90 -280l305 4q67 0 131 42.5t64 121.5q0 61 -35 86.5t-112 25.5h-263z" glyph-name="racute" horiz-adv-x="1604" unicode="ŕ"/><glyph d="M1604 1005q0 -183 -92 -325t-242 -228l100 -452h-494l-74 350h-346l-113 -350h-517l462 1434h762q280 0 417 -106t137 -323zM667 1005l-90 -280l305 4q67 0 131 42.5t64 121.5q0 61 -35 86.5t-112 25.5h-263zM795 -118q0 2 2 5.5t2 4.5zM167 -483l118 365h510 q-171 -510 -351 -718h-234q80 179 128 353h-171z" glyph-name="Rcommaaccent" horiz-adv-x="1604" unicode="Ŗ"/><glyph d="M1604 1005q0 -183 -92 -325t-242 -228l100 -452h-494l-74 350h-346l-113 -350h-517l462 1434h762q280 0 417 -106t137 -323zM667 1005l-90 -280l305 4q67 0 131 42.5t64 121.5q0 61 -35 86.5t-112 25.5h-263zM795 -118q0 2 2 5.5t2 4.5zM167 -483l118 365h510 q-171 -510 -351 -718h-234q80 179 128 353h-171z" glyph-name="rcommaaccent" horiz-adv-x="1604" unicode="ŗ"/><glyph d="M1323 1461h-652l-127 305h420l41 -124h60l99 124h457zM1050 1434q280 0 417 -106t137 -323q0 -183 -92 -325t-242 -228l100 -452h-494l-74 350h-346l-113 -350h-517l462 1434h762zM667 1005l-90 -280l305 4q67 0 131 42.5t64 121.5q0 61 -35 86.5t-112 25.5h-263z" glyph-name="Rcaron" horiz-adv-x="1604" unicode="Ř"/><glyph d="M1323 1461h-652l-127 305h420l41 -124h60l99 124h457zM1050 1434q280 0 417 -106t137 -323q0 -183 -92 -325t-242 -228l100 -452h-494l-74 350h-346l-113 -350h-517l462 1434h762zM667 1005l-90 -280l305 4q67 0 131 42.5t64 121.5q0 61 -35 86.5t-112 25.5h-263z" glyph-name="rcaron" horiz-adv-x="1604" unicode="ř"/><glyph d="M790 1519l176 305h468l-174 -305h-470zM568 -48q-118 0 -215 12t-178 37t-135.5 67.5t-85.5 100.5t-28.5 138t38.5 179h437q-14 -72 55.5 -106t185.5 -34q123 0 204 26.5t81 84.5q0 14 -3.5 25t-16.5 26.5t-44.5 26.5t-80.5 16l-115 17q-46 5 -74 8.5t-88.5 16.5 t-102.5 28.5t-95 44.5t-85.5 64t-55.5 88.5t-23 116.5q0 258 220.5 402t583.5 144q230 0 386.5 -61t213 -180t-22.5 -289h-423q10 49 -43.5 93.5t-181.5 44.5q-109 0 -175 -32.5t-66 -83.5q0 -67 118 -84l80 -12q26 -5 98.5 -16t114 -19.5t110 -26.5t110 -42.5t84.5 -60.5 t63.5 -89t20.5 -118q0 -123 -46.5 -218.5t-125.5 -157.5t-191 -102.5t-236 -57.5t-267 -17z" glyph-name="Sacute" horiz-adv-x="1551" unicode="Ś"/><glyph d="M790 1519l176 305h468l-174 -305h-470zM568 -48q-118 0 -215 12t-178 37t-135.5 67.5t-85.5 100.5t-28.5 138t38.5 179h437q-14 -72 55.5 -106t185.5 -34q123 0 204 26.5t81 84.5q0 14 -3.5 25t-16.5 26.5t-44.5 26.5t-80.5 16l-115 17q-46 5 -74 8.5t-88.5 16.5 t-102.5 28.5t-95 44.5t-85.5 64t-55.5 88.5t-23 116.5q0 258 220.5 402t583.5 144q230 0 386.5 -61t213 -180t-22.5 -289h-423q10 49 -43.5 93.5t-181.5 44.5q-109 0 -175 -32.5t-66 -83.5q0 -67 118 -84l80 -12q26 -5 98.5 -16t114 -19.5t110 -26.5t110 -42.5t84.5 -60.5 t63.5 -89t20.5 -118q0 -123 -46.5 -218.5t-125.5 -157.5t-191 -102.5t-236 -57.5t-267 -17z" glyph-name="sacute" horiz-adv-x="1551" unicode="ś"/><glyph d="M1524 951h-423q10 49 -43.5 93.5t-181.5 44.5q-109 0 -175 -32.5t-66 -83.5q0 -67 118 -84l80 -12q26 -5 98.5 -16t114 -19.5t110 -26.5t110 -42.5t84.5 -60.5t63.5 -89t20.5 -118q0 -121 -45.5 -215.5t-121.5 -156t-185 -102.5t-229.5 -59t-260.5 -20l-15 -8 q58 -15 94.5 -62.5t36.5 -123.5q0 -160 -157 -219.5t-360 7.5l55 178q65 -24 138 -18t73 43q0 15 -22 25.5t-65.5 12t-110.5 -11.5l29 99l123 83q-620 51 -447 529h437q-14 -72 55.5 -106t185.5 -34q123 0 204 26.5t81 84.5q0 14 -3.5 25t-16.5 26.5t-44.5 26.5t-80.5 16 l-115 17q-46 5 -74 8.5t-88.5 16.5t-102.5 28.5t-95 44.5t-85.5 64t-55.5 88.5t-23 116.5q0 258 220.5 402t583.5 144q230 0 386.5 -61t213 -179.5t-22.5 -289.5z" glyph-name="Scedilla" horiz-adv-x="1551" unicode="Ş"/><glyph d="M1524 951h-423q10 49 -43.5 93.5t-181.5 44.5q-109 0 -175 -32.5t-66 -83.5q0 -67 118 -84l80 -12q26 -5 98.5 -16t114 -19.5t110 -26.5t110 -42.5t84.5 -60.5t63.5 -89t20.5 -118q0 -121 -45.5 -215.5t-121.5 -156t-185 -102.5t-229.5 -59t-260.5 -20l-15 -8 q58 -15 94.5 -62.5t36.5 -123.5q0 -160 -157 -219.5t-360 7.5l55 178q65 -24 138 -18t73 43q0 15 -22 25.5t-65.5 12t-110.5 -11.5l29 99l123 83q-620 51 -447 529h437q-14 -72 55.5 -106t185.5 -34q123 0 204 26.5t81 84.5q0 14 -3.5 25t-16.5 26.5t-44.5 26.5t-80.5 16 l-115 17q-46 5 -74 8.5t-88.5 16.5t-102.5 28.5t-95 44.5t-85.5 64t-55.5 88.5t-23 116.5q0 258 220.5 402t583.5 144q230 0 386.5 -61t213 -179.5t-22.5 -289.5z" glyph-name="scedilla" horiz-adv-x="1551" unicode="ş"/><glyph d="M1186 1461q241 -46 337.5 -178.5t0.5 -331.5h-423q10 49 -43.5 93.5t-181.5 44.5q-109 0 -175 -32.5t-66 -83.5q0 -67 118 -84l80 -12q26 -5 98.5 -16t114 -19.5t110 -26.5t110 -42.5t84.5 -60.5t63.5 -89t20.5 -118q0 -123 -46.5 -218.5t-125.5 -157.5t-191 -102.5 t-235.5 -57.5t-267.5 -17q-118 0 -215 12t-178 37t-135.5 67.5t-85.5 100.5t-28.5 138t38.5 179h437q-14 -72 55.5 -106t185.5 -34q123 0 204 26.5t81 84.5q0 14 -3.5 25t-16.5 26.5t-44.5 26.5t-80.5 16l-115 17q-46 5 -74 8.5t-88.5 16.5t-102.5 28.5t-95 44.5t-85.5 64 t-55.5 88.5t-23 116.5q0 210 148 346t405 180h-32l-126 305h419l41 -124h60l99 124h458l-299 -305h-130z" glyph-name="Scaron" horiz-adv-x="1551" unicode="Š"/><glyph d="M1186 1461q241 -46 337.5 -178.5t0.5 -331.5h-423q10 49 -43.5 93.5t-181.5 44.5q-109 0 -175 -32.5t-66 -83.5q0 -67 118 -84l80 -12q26 -5 98.5 -16t114 -19.5t110 -26.5t110 -42.5t84.5 -60.5t63.5 -89t20.5 -118q0 -123 -46.5 -218.5t-125.5 -157.5t-191 -102.5 t-235.5 -57.5t-267.5 -17q-118 0 -215 12t-178 37t-135.5 67.5t-85.5 100.5t-28.5 138t38.5 179h437q-14 -72 55.5 -106t185.5 -34q123 0 204 26.5t81 84.5q0 14 -3.5 25t-16.5 26.5t-44.5 26.5t-80.5 16l-115 17q-46 5 -74 8.5t-88.5 16.5t-102.5 28.5t-95 44.5t-85.5 64 t-55.5 88.5t-23 116.5q0 210 148 346t405 180h-32l-126 305h419l41 -124h60l99 124h458l-299 -305h-130z" glyph-name="scaron" horiz-adv-x="1551" unicode="š"/><glyph d="M1802 1434l-140 -430h-496l-328 -1004h-135l-99 -56q58 -15 95 -62.5t37 -123.5q0 -160 -157 -219.5t-361 7.5l55 178q65 -24 138.5 -18t73.5 43q0 15 -22.5 25.5t-66 12t-109.5 -11.5l29 99l184 126h-179l328 1004h-509l136 430h1526z" glyph-name="Tcommaaccent" horiz-adv-x="1617" unicode="Ţ"/><glyph d="M1802 1434l-140 -430h-496l-328 -1004h-135l-99 -56q58 -15 95 -62.5t37 -123.5q0 -160 -157 -219.5t-361 7.5l55 178q65 -24 138.5 -18t73.5 43q0 15 -22.5 25.5t-66 12t-109.5 -11.5l29 99l184 126h-179l328 1004h-509l136 430h1526z" glyph-name="tcommaaccent" horiz-adv-x="1617" unicode="ţ"/><glyph d="M1343 1461h-652l-126 305h420l41 -124h59l99 124h458zM1802 1434l-140 -430h-496l-328 -1004h-517l328 1004h-509l136 430h1526z" glyph-name="Tcaron" horiz-adv-x="1617" unicode="Ť"/><glyph d="M1343 1461h-652l-126 305h420l41 -124h59l99 124h458zM1802 1434l-140 -430h-496l-328 -1004h-517l328 1004h-509l136 430h1526z" glyph-name="tcaron" horiz-adv-x="1617" unicode="ť"/><glyph d="M1662 1004h-496l-50 -154h415l-142 -423h-411l-140 -427h-517l140 427h-401l141 423h398l50 154h-509l136 430h1526z" glyph-name="Tbar" horiz-adv-x="1617" unicode="Ŧ"/><glyph d="M1662 1004h-496l-50 -154h415l-142 -423h-411l-140 -427h-517l140 427h-401l141 423h398l50 154h-509l136 430h1526z" glyph-name="tbar" horiz-adv-x="1617" unicode="ŧ"/><glyph d="M674 1526l123 374h819l-123 -374h-819zM643 -48q-410 0 -566 179.5t-41 523.5l256 779h524l-272 -816q-39 -111 3 -174t168 -63q130 0 206 68t125 220l249 765h524l-268 -825q-118 -358 -327 -507.5t-581 -149.5z" glyph-name="Umacron" horiz-adv-x="1643" unicode="Ū"/><glyph d="M674 1526l123 374h819l-123 -374h-819zM643 -48q-410 0 -566 179.5t-41 523.5l256 779h524l-272 -816q-39 -111 3 -174t168 -63q130 0 206 68t125 220l249 765h524l-268 -825q-118 -358 -327 -507.5t-581 -149.5z" glyph-name="umacron" horiz-adv-x="1643" unicode="ū"/><glyph d="M1109 1519q-203 0 -298.5 66.5t-51.5 238.5h291q-20 -94 87 -93q49 0 88.5 23t49.5 70h287q-38 -174 -153.5 -239.5t-299.5 -65.5zM643 -48q-410 0 -566 179.5t-41 523.5l256 779h524l-272 -816q-39 -111 3 -174t168 -63q130 0 206 68t125 220l249 765h524l-268 -825 q-118 -358 -327 -507.5t-581 -149.5z" glyph-name="Ubreve" horiz-adv-x="1643" unicode="Ŭ"/><glyph d="M1109 1519q-203 0 -298.5 66.5t-51.5 238.5h291q-20 -94 87 -93q49 0 88.5 23t49.5 70h287q-38 -174 -153.5 -239.5t-299.5 -65.5zM643 -48q-410 0 -566 179.5t-41 523.5l256 779h524l-272 -816q-39 -111 3 -174t168 -63q130 0 206 68t125 220l249 765h524l-268 -825 q-118 -358 -327 -507.5t-581 -149.5z" glyph-name="ubreve" horiz-adv-x="1643" unicode="ŭ"/><glyph d="M1041 1408q-96 0 -154 59t-58 151q0 128 88 210t204 82q94 0 151 -56.5t57 -148.5q0 -123 -84.5 -210t-203.5 -87zM1073 1615q26 0 40.5 17t14.5 42q0 12 -9.5 22.5t-26.5 10.5q-24 0 -40 -17t-16 -41q0 -14 10 -24t27 -10zM643 -48q-410 0 -566 179.5t-41 523.5l256 779 h524l-272 -816q-39 -111 3 -174t168 -63q130 0 206 68t125 220l249 765h524l-268 -825q-118 -358 -327 -507.5t-581 -149.5z" glyph-name="Uring" horiz-adv-x="1643" unicode="Ů"/><glyph d="M1041 1408q-96 0 -154 59t-58 151q0 128 88 210t204 82q94 0 151 -56.5t57 -148.5q0 -123 -84.5 -210t-203.5 -87zM1073 1615q26 0 40.5 17t14.5 42q0 12 -9.5 22.5t-26.5 10.5q-24 0 -40 -17t-16 -41q0 -14 10 -24t27 -10zM643 -48q-410 0 -566 179.5t-41 523.5l256 779 h524l-272 -816q-39 -111 3 -174t168 -63q130 0 206 68t125 220l249 765h524l-268 -825q-118 -358 -327 -507.5t-581 -149.5z" glyph-name="uring" horiz-adv-x="1643" unicode="ů"/><glyph d="M592 1519l176 305h468l-174 -305h-470zM1128 1519l176 305h468l-175 -305h-469zM643 -48q-410 0 -566 179.5t-41 523.5l256 779h524l-272 -816q-39 -111 3 -174t168 -63q130 0 206 68t125 220l249 765h524l-268 -825q-118 -358 -327 -507.5t-581 -149.5z" glyph-name="Uhungarumlaut" horiz-adv-x="1643" unicode="Ű"/><glyph d="M592 1519l176 305h468l-174 -305h-470zM1128 1519l176 305h468l-175 -305h-469zM643 -48q-410 0 -566 179.5t-41 523.5l256 779h524l-272 -816q-39 -111 3 -174t168 -63q130 0 206 68t125 220l249 765h524l-268 -825q-118 -358 -327 -507.5t-581 -149.5z" glyph-name="uhungarumlaut" horiz-adv-x="1643" unicode="ű"/><glyph d="M1295 1434h524l-268 -825q-102 -311 -269.5 -461.5t-443.5 -185.5v-1q-89 -7 -124.5 -19t-35.5 -34q-2 -49 75 -48v-276q-68 0 -135 11.5t-133.5 39t-107.5 83t-41 130.5q0 77 48 128q-265 53 -352.5 224.5t4.5 454.5l256 779h524l-272 -816q-39 -111 3 -174t168 -63 q130 0 206 68t125 220z" glyph-name="Uogonek" horiz-adv-x="1643" unicode="Ų"/><glyph d="M1295 1434h524l-268 -825q-102 -311 -269.5 -461.5t-443.5 -185.5v-1q-89 -7 -124.5 -19t-35.5 -34q-2 -49 75 -48v-276q-68 0 -135 11.5t-133.5 39t-107.5 83t-41 130.5q0 77 48 128q-265 53 -352.5 224.5t4.5 454.5l256 779h524l-272 -816q-39 -111 3 -174t168 -63 q130 0 206 68t125 220z" glyph-name="uogonek" horiz-adv-x="1643" unicode="ų"/><glyph d="M785 1519l299 305h652l126 -305h-420l-41 125h-60l-99 -125h-457zM55 0l201 1434h517l-157 -881h48l461 881h404l-99 -881h46l410 881h536l-727 -1434h-697l96 618h-43l-300 -618h-696z" glyph-name="Wcircumflex" horiz-adv-x="2220" unicode="Ŵ"/><glyph d="M785 1519l299 305h652l126 -305h-420l-41 125h-60l-99 -125h-457zM55 0l201 1434h517l-157 -881h48l461 881h404l-99 -881h46l410 881h536l-727 -1434h-697l96 618h-43l-300 -618h-696z" glyph-name="wcircumflex" horiz-adv-x="2220" unicode="ŵ"/><glyph d="M1058 1644l-99 -125h-457l298 305h652l127 -305h-420l-41 125h-60zM1886 1434l-900 -1001l-139 -433h-516l147 464l-249 970h520l111 -492h38l421 492h567z" glyph-name="Ycircumflex" horiz-adv-x="1667" unicode="Ŷ"/><glyph d="M1058 1644l-99 -125h-457l298 305h652l127 -305h-420l-41 125h-60zM1886 1434l-900 -1001l-139 -433h-516l147 464l-249 970h520l111 -492h38l421 492h567z" glyph-name="ycircumflex" horiz-adv-x="1667" unicode="ŷ"/><glyph d="M797 1521q-65 0 -107.5 43.5t-42.5 102.5q0 79 65 139.5t141 60.5q65 0 108 -43.5t43 -104.5q0 -79 -65 -138.5t-142 -59.5zM1347 1521q-65 0 -108 43.5t-43 102.5q0 79 65 139.5t142 60.5q65 0 107.5 -43.5t42.5 -104.5q0 -79 -64.5 -138.5t-141.5 -59.5zM1886 1434 l-900 -1001l-139 -433h-516l147 464l-249 970h520l111 -492h38l421 492h567z" glyph-name="Ydieresis" horiz-adv-x="1667" unicode="Ÿ"/><glyph d="M737 1519l176 305h468l-174 -305h-470zM-189 0l134 423l866 543l17 41h-681l141 427h1371l-137 -424l-865 -542l-17 -41h679l-141 -427h-1367z" glyph-name="Zacute" horiz-adv-x="1466" unicode="Ź"/><glyph d="M737 1519l176 305h468l-174 -305h-470zM-189 0l134 423l866 543l17 41h-681l141 427h1371l-137 -424l-865 -542l-17 -41h679l-141 -427h-1367z" glyph-name="zacute" horiz-adv-x="1466" unicode="ź"/><glyph d="M1017 1521q-65 0 -107.5 43.5t-42.5 102.5q0 79 65 139.5t141 60.5q65 0 108 -43.5t43 -104.5q0 -79 -65 -138.5t-142 -59.5zM-189 0l134 423l866 543l17 41h-681l141 427h1371l-137 -424l-865 -542l-17 -41h679l-141 -427h-1367z" glyph-name="Zdotaccent" horiz-adv-x="1466" unicode="Ż"/><glyph d="M1017 1521q-65 0 -107.5 43.5t-42.5 102.5q0 79 65 139.5t141 60.5q65 0 108 -43.5t43 -104.5q0 -79 -65 -138.5t-142 -59.5zM-189 0l134 423l866 543l17 41h-681l141 427h1371l-137 -424l-865 -542l-17 -41h679l-141 -427h-1367z" glyph-name="zdotaccent" horiz-adv-x="1466" unicode="ż"/><glyph d="M1562 1766l-299 -305h-652l-126 305h420l40 -124h60l99 124h458zM-189 0l134 423l866 543l17 41h-681l141 427h1371l-137 -424l-865 -542l-17 -41h679l-141 -427h-1367z" glyph-name="Zcaron" horiz-adv-x="1466" unicode="Ž"/><glyph d="M1562 1766l-299 -305h-652l-126 305h420l40 -124h60l99 124h458zM-189 0l134 423l866 543l17 41h-681l141 427h1371l-137 -424l-865 -542l-17 -41h679l-141 -427h-1367z" glyph-name="zcaron" horiz-adv-x="1466" unicode="ž"/><glyph d="M1203 1135q-70 0 -124.5 -34t-76.5 -103l-19 -56h362l-128 -392h-359l-42 -134q-75 -222 -251 -333.5t-398 -111.5q-218 0 -304 63l120 372q116 -43 188 -42q70 0 124.5 34t76.5 100l17 52h-351l128 392h348l44 138q75 222 251 334t398 112q218 0 303 -63l-119 -372 q-120 44 -188 44z" glyph-name="florin" horiz-adv-x="1353" unicode="ƒ"/><glyph d="M1423 1461h-652l-126 305h420l41 -124h60l99 124h457zM736 1434h728l55 -1434h-514v172h-572l-110 -172h-552zM679 553h326v396h-71z" glyph-name="uni01CD" horiz-adv-x="1730" unicode="Ǎ"/><glyph d="M1423 1461h-652l-126 305h420l41 -124h60l99 124h457zM736 1434h728l55 -1434h-514v172h-572l-110 -172h-552zM679 553h326v396h-71z" glyph-name="uni01CE" horiz-adv-x="1730" unicode="ǎ"/><glyph d="M1138 1766l-298 -305h-652l-127 305h420l41 -124h60l99 124h457zM-177 0l462 1434h517l-462 -1434h-517z" glyph-name="uni01CF" horiz-adv-x="626" unicode="Ǐ"/><glyph d="M1138 1766l-298 -305h-652l-127 305h420l41 -124h60l99 124h457zM-177 0l462 1434h517l-462 -1434h-517z" glyph-name="uni01D0" horiz-adv-x="626" unicode="ǐ"/><glyph d="M1208 1468q241 -41 370.5 -192t129.5 -389q0 -184 -77.5 -354.5t-211.5 -298.5t-325 -205t-405 -77q-319 0 -495.5 158t-176.5 438q0 336 238 599t605 321h-118l-126 305h420l41 -124h60l99 124h457l-299 -305h-186zM773 398q181 0 299 127t121 279q0 113 -69 172.5 t-172 59.5q-181 0 -297.5 -127t-120.5 -279q0 -113 69 -172.5t170 -59.5z" glyph-name="uni01D1" unicode="Ǒ"/><glyph d="M1208 1468q241 -41 370.5 -192t129.5 -389q0 -184 -77.5 -354.5t-211.5 -298.5t-325 -205t-405 -77q-319 0 -495.5 158t-176.5 438q0 336 238 599t605 321h-118l-126 305h420l41 -124h60l99 124h457l-299 -305h-186zM773 398q181 0 299 127t121 279q0 113 -69 172.5 t-172 59.5q-181 0 -297.5 -127t-120.5 -279q0 -113 69 -172.5t170 -59.5z" glyph-name="uni01D2" unicode="ǒ"/><glyph d="M1654 1766l-299 -305h-652l-126 305h420l41 -124h59l99 124h458zM643 -48q-410 0 -566 179.5t-41 523.5l256 779h524l-272 -816q-39 -111 3 -174t168 -63q130 0 206 68t125 220l249 765h524l-268 -825q-118 -358 -327 -507.5t-581 -149.5z" glyph-name="uni01D3" horiz-adv-x="1643" unicode="Ǔ"/><glyph d="M1654 1766l-299 -305h-652l-126 305h420l41 -124h59l99 124h458zM643 -48q-410 0 -566 179.5t-41 523.5l256 779h524l-272 -816q-39 -111 3 -174t168 -63q130 0 206 68t125 220l249 765h524l-268 -825q-118 -358 -327 -507.5t-581 -149.5z" glyph-name="uni01D4" horiz-adv-x="1643" unicode="ǔ"/><glyph d="M809 -41q-7 -15 -7 -31v-1q0 -14 2 -25t20.5 -25t52.5 -14v-276q-68 0 -133.5 12t-132.5 40t-107.5 83.5t-40.5 132.5q0 67 29 116q-229 44 -352 194.5t-123 382.5q0 184 77.5 354.5t211.5 298t325.5 204t404.5 76.5q319 0 495.5 -157.5t176.5 -436.5q0 -352 -256 -619.5 t-643 -308.5zM952 1036q-181 0 -297.5 -127t-120.5 -279q0 -113 69 -172.5t170 -59.5q181 0 299 127t121 279q0 113 -69.5 172.5t-171.5 59.5z" glyph-name="uni01EA" unicode="Ǫ"/><glyph d="M1524 951h-423q10 49 -43.5 93.5t-181.5 44.5q-109 0 -175 -32.5t-66 -83.5q0 -67 118 -84l80 -12q26 -5 98.5 -16t114 -19.5t110 -26.5t110 -42.5t84.5 -60.5t63.5 -89t20.5 -118q0 -123 -46.5 -218.5t-125.5 -157.5t-191 -102.5t-235.5 -57.5t-267.5 -17 q-118 0 -215 12t-178 37t-135.5 67.5t-85.5 100.5t-28.5 138t38.5 179h437q-14 -72 55.5 -106t185.5 -34q123 0 204 26.5t81 84.5q0 14 -3.5 25t-16.5 26.5t-44.5 26.5t-80.5 16l-115 17q-46 5 -74 8.5t-88.5 16.5t-102.5 28.5t-95 44.5t-85.5 64t-55.5 88.5t-23 116.5 q0 258 220.5 402t583.5 144q230 0 386.5 -61t213 -179.5t-22.5 -289.5zM788 -118q0 2 2 5.5t2 4.5zM160 -483l118 365h510q-171 -510 -351 -718h-234q80 179 128 353h-171z" glyph-name="Scommaaccent" horiz-adv-x="1551" unicode="Ș"/><glyph d="M1524 951h-423q10 49 -43.5 93.5t-181.5 44.5q-109 0 -175 -32.5t-66 -83.5q0 -67 118 -84l80 -12q26 -5 98.5 -16t114 -19.5t110 -26.5t110 -42.5t84.5 -60.5t63.5 -89t20.5 -118q0 -123 -46.5 -218.5t-125.5 -157.5t-191 -102.5t-235.5 -57.5t-267.5 -17 q-118 0 -215 12t-178 37t-135.5 67.5t-85.5 100.5t-28.5 138t38.5 179h437q-14 -72 55.5 -106t185.5 -34q123 0 204 26.5t81 84.5q0 14 -3.5 25t-16.5 26.5t-44.5 26.5t-80.5 16l-115 17q-46 5 -74 8.5t-88.5 16.5t-102.5 28.5t-95 44.5t-85.5 64t-55.5 88.5t-23 116.5 q0 258 220.5 402t583.5 144q230 0 386.5 -61t213 -179.5t-22.5 -289.5zM788 -118q0 2 2 5.5t2 4.5zM160 -483l118 365h510q-171 -510 -351 -718h-234q80 179 128 353h-171z" glyph-name="scommaaccent" horiz-adv-x="1551" unicode="ș"/><glyph d="M1802 1434l-140 -430h-496l-328 -1004h-517l328 1004h-509l136 430h1526zM816 -118q0 2 1.5 5.5t1.5 4.5zM188 -483l117 365h511q-171 -510 -352 -718h-234q80 179 128 353h-170z" glyph-name="uni021A" horiz-adv-x="1617" unicode="Ț"/><glyph d="M1802 1434l-140 -430h-496l-328 -1004h-517l328 1004h-509l136 430h1526zM816 -118q0 2 1.5 5.5t1.5 4.5zM188 -483l117 365h511q-171 -510 -352 -718h-234q80 179 128 353h-170z" glyph-name="uni021B" horiz-adv-x="1617" unicode="ț"/><glyph d="M143 1161l299 305h652l126 -305h-420l-41 124h-59l-99 -124h-458z" glyph-name="circumflex" horiz-adv-x="1076" unicode="ˆ"/><glyph d="M1302 1408l-298 -305h-652l-127 305h420l41 -125h60l99 125h457z" glyph-name="caron" horiz-adv-x="1076" unicode="ˇ"/><glyph d="M591 1161q-203 0 -299 66.5t-51 238.5h290q-20 -94 87 -94q49 0 88.5 23t49.5 71h287q-38 -174 -153 -239.5t-299 -65.5z" glyph-name="breve" horiz-adv-x="802" unicode="˘"/><glyph d="M352 1162q-65 0 -108 43.5t-43 103.5q0 79 65 139.5t142 60.5q65 0 107.5 -43.5t42.5 -105.5q0 -79 -64.5 -138.5t-141.5 -59.5z" glyph-name="dotaccent" horiz-adv-x="354" unicode="˙"/><glyph d="M404 1050q-96 0 -153.5 58.5t-57.5 151.5q0 128 88 209.5t204 81.5q94 0 151 -56t57 -148q0 -123 -85 -210t-204 -87zM437 1256q26 0 40.5 17t14.5 43q0 12 -9.5 22t-26.5 10q-24 0 -40.5 -17t-16.5 -41q0 -14 10.5 -24t27.5 -10z" glyph-name="ring" horiz-adv-x="501" unicode="˚"/><glyph d="M148 -416q-68 0 -133.5 11.5t-132 40t-107.5 84t-41 132.5q0 72 35 124.5t84.5 80t117 42.5t115 19.5t98.5 6.5h14v-125q-125 0 -125 -75v-2q0 -14 2 -25t20.5 -24.5t52.5 -13.5v-276z" glyph-name="ogonek" horiz-adv-x="517" unicode="˛"/><glyph d="M790 1157q-84 0 -196.5 47t-163.5 47q-44 0 -74 -18t-33 -52h-134q-26 148 56.5 225t199.5 77q84 0 196.5 -47t164.5 -47q43 0 73.5 18t33.5 54h131q26 -150 -54.5 -227t-199.5 -77z" glyph-name="tilde" horiz-adv-x="844" unicode="˜"/><glyph d="M143 1161l176 305h468l-174 -305h-470zM679 1161l176 305h468l-174 -305h-470z" glyph-name="hungarumlaut" horiz-adv-x="1082" unicode="˝"/><glyph d="M-290 -108l-4 -10q0 2 2 5t2 5zM-922 -483l118 365h510q-171 -510 -351 -718h-234q80 179 128 353h-171z" glyph-name="uni0326" horiz-adv-x="0" unicode="̦"/><glyph d="M1447 1434l55 -1434h-1729l963 1434h711zM597 413h398l-2 536h-58z" glyph-name="Delta" horiz-adv-x="1713" unicode="Δ"/><glyph d="M-203 0l130 396h210l17 60q-82 87 -82 227q0 225 137 411t354 286.5t458 100.5q297 0 460.5 -127t163.5 -323q0 -155 -88 -306.5t-234 -248.5l-28 -80h197l-128 -396h-744l150 521q138 29 242 134.5t104 230.5q0 150 -203 150q-140 0 -246 -94.5t-106 -221.5 q0 -137 132 -199l-150 -521h-746z" glyph-name="Omega" horiz-adv-x="1624" unicode="Ω"/><glyph d="M1021 1161h515l-375 -1161h-507l39 150h-41q-137 -159 -323 -177l-73 -229h-517l461 1417h515l-210 -646h2q-17 -44 -13.5 -74t10 -47t23.5 -25.5t26.5 -10t18.5 -1.5q80 0 147.5 53.5t96.5 118.5z" glyph-name="mu" horiz-adv-x="1448" unicode="μ"/><glyph d="M1521 799l-110 -333q-3 -10 -4 -18.5t-1 -14t2 -8t4.5 -4t6.5 -2.5t7.5 0t10.5 1h10q27 0 53.5 4t34.5 6t21 -2l-81 -372q-82 -70 -287 -70q-201 0 -291.5 102.5t-19.5 322.5l127 388h-263l-261 -799h-518l262 799h-139l115 362h1575l-114 -362h-140z" glyph-name="pi" horiz-adv-x="1742" unicode="π"/><glyph d="M1584 1519h-470l-174 305h468zM55 0l201 1434h517l-157 -881h48l461 881h404l-99 -881h46l410 881h536l-727 -1434h-697l96 618h-43l-300 -618h-696z" glyph-name="Wgrave" horiz-adv-x="2220" unicode="Ẁ"/><glyph d="M1584 1519h-470l-174 305h468zM55 0l201 1434h517l-157 -881h48l461 881h404l-99 -881h46l410 881h536l-727 -1434h-697l96 618h-43l-300 -618h-696z" glyph-name="wgrave" horiz-adv-x="2220" unicode="ẁ"/><glyph d="M1111 1519l176 305h467l-174 -305h-469zM55 0l201 1434h517l-157 -881h48l461 881h404l-99 -881h46l410 881h536l-727 -1434h-697l96 618h-43l-300 -618h-696z" glyph-name="Wacute" horiz-adv-x="2220" unicode="Ẃ"/><glyph d="M1111 1519l176 305h467l-174 -305h-469zM55 0l201 1434h517l-157 -881h48l461 881h404l-99 -881h46l410 881h536l-727 -1434h-697l96 618h-43l-300 -618h-696z" glyph-name="wacute" horiz-adv-x="2220" unicode="ẃ"/><glyph d="M1080 1521q-65 0 -107.5 43.5t-42.5 102.5q0 79 65 139.5t142 60.5q65 0 107.5 -43.5t42.5 -104.5q0 -79 -65 -138.5t-142 -59.5zM1630 1521q-65 0 -107.5 43.5t-42.5 102.5q0 79 64.5 139.5t141.5 60.5q65 0 107.5 -43.5t42.5 -104.5q0 -79 -64.5 -138.5t-141.5 -59.5z M55 0l201 1434h517l-157 -881h48l461 881h404l-99 -881h46l410 881h536l-727 -1434h-697l96 618h-43l-300 -618h-696z" glyph-name="Wdieresis" horiz-adv-x="2220" unicode="Ẅ"/><glyph d="M1080 1521q-65 0 -107.5 43.5t-42.5 102.5q0 79 65 139.5t142 60.5q65 0 107.5 -43.5t42.5 -104.5q0 -79 -65 -138.5t-142 -59.5zM1630 1521q-65 0 -107.5 43.5t-42.5 102.5q0 79 64.5 139.5t141.5 60.5q65 0 107.5 -43.5t42.5 -104.5q0 -79 -64.5 -138.5t-141.5 -59.5z M55 0l201 1434h517l-157 -881h48l461 881h404l-99 -881h46l410 881h536l-727 -1434h-697l96 618h-43l-300 -618h-696z" glyph-name="wdieresis" horiz-adv-x="2220" unicode="ẅ"/><glyph d="M1333 817q160 7 258.5 -71.5t98.5 -202.5q0 -273 -195 -427t-503 -154q-314 0 -415 117t-26 312h422q-3 -26 6 -45.5t22.5 -29t31 -14.5t26 -6t13.5 -1q58 0 99 37.5t41 94.5q0 44 -28.5 67t-70.5 23q-61 0 -103 -44h-421l462 531h-215q-65 0 -129.5 -49.5t-90.5 -140.5 l-264 -814h-526l316 983q39 118 86.5 199t102.5 130.5t133.5 77t158.5 36t198 8.5h1089z" glyph-name="uni1E9E" horiz-adv-x="1807" unicode="ẞ"/><glyph d="M1300 1519h-469l-174 305h468zM1886 1434l-900 -1001l-139 -433h-516l147 464l-249 970h520l111 -492h38l421 492h567z" glyph-name="Ygrave" horiz-adv-x="1667" unicode="Ỳ"/><glyph d="M1300 1519h-469l-174 305h468zM1886 1434l-900 -1001l-139 -433h-516l147 464l-249 970h520l111 -492h38l421 492h567z" glyph-name="ygrave" horiz-adv-x="1667" unicode="ỳ"/><glyph d="M-15 466l141 430h1400l-140 -430h-1401z" glyph-name="endash" horiz-adv-x="1536" unicode="–"/><glyph d="M-15 466l141 430h1536l-140 -430h-1537z" glyph-name="emdash" horiz-adv-x="1672" unicode="—"/><glyph d="M783 1024l-138 -430h-601q201 599 413 845h277q-99 -220 -152 -415h201zM41 582l3 12q0 -5 -3 -12z" glyph-name="quoteleft" horiz-adv-x="771" unicode="‘"/><glyph d="M920 1446l-4 -12q1 5 4 12zM177 1004l139 430h600q-201 -599 -413 -845h-276q99 220 152 415h-202z" glyph-name="quoteright" horiz-adv-x="769" unicode="’"/><glyph d="M596 442l-4 -12q1 5 4 12zM-147 0l138 430h601q-201 -599 -413 -845h-276q99 220 152 415h-202z" glyph-name="quotesinglbase" horiz-adv-x="769" unicode="‚"/><glyph d="M713 1022l-122 -430h-531q177 597 365 845h244q-90 -230 -133 -415h177zM1347 1022l-123 -430h-531q177 597 365 845h244q-90 -230 -133 -415h178zM56 580l4 12q-2 -2 -2 -6t-2 -6zM689 580q0 2 2 6.5t2 5.5z" glyph-name="quotedblleft" horiz-adv-x="1346" unicode="“"/><glyph d="M852 1446q-2 -2 -2 -6.5t-2 -5.5zM1485 1446l-4 -12q0 2 2 6t2 6zM317 1434h531q-177 -597 -365 -845h-244q90 230 133 415h-177zM828 1004l123 430h530q-177 -597 -365 -845h-244q90 230 133 415h-177z" glyph-name="quotedblright" horiz-adv-x="1344" unicode="”"/><glyph d="M503 367q-2 -2 -1.5 -6t-1.5 -6zM1137 367l-4 -12q0 2 2 6t2 6zM-31 355h531q-177 -597 -365 -845h-244q90 230 133 415h-178zM480 -75l122 430h531q-177 -597 -365 -845h-244q90 230 133 415h-177z" glyph-name="quotedblbase" horiz-adv-x="1351" unicode="„"/><glyph d="M1427 1191l-133 -414h-371l-119 -366h-454l119 366h-361l133 414h363l121 369h454l-121 -369h369z" glyph-name="dagger" horiz-adv-x="1360" unicode="†"/><glyph d="M1294 777h-367l-91 -277h369l-133 -415h-371l-119 -365h-454l119 365h-361l133 415h360l90 277h-361l133 414h363l121 369h454l-121 -369h369z" glyph-name="daggerdbl" horiz-adv-x="1360" unicode="‡"/><glyph d="M469 335q-137 0 -219.5 84t-82.5 216q0 186 144.5 325t319.5 139q138 0 220.5 -84.5t82.5 -214.5q0 -188 -144.5 -326.5t-320.5 -138.5z" glyph-name="bullet" horiz-adv-x="1100" unicode="•"/><glyph d="M114 -27q-94 0 -153.5 59.5t-59.5 153.5q0 121 87 204t205 83q94 0 152.5 -60t58.5 -154q0 -121 -86 -203.5t-204 -82.5zM765 -27q-94 0 -154 59.5t-60 153.5q0 121 87 204t205 83q94 0 153 -60t59 -154q0 -121 -86 -203.5t-204 -82.5zM1413 -27q-94 0 -153.5 59.5 t-59.5 153.5q0 121 87 204t205 83q94 0 152.5 -60t58.5 -154q0 -121 -86 -203.5t-204 -82.5z" glyph-name="ellipsis" horiz-adv-x="1916" unicode="…"/><glyph d="M439 -49l-185 143l1367 1398l181 -142zM521 676q-150 0 -239 76.5t-89 218.5q0 188 145 335.5t348 147.5q145 0 236.5 -77.5t91.5 -221.5q0 -195 -142.5 -337t-350.5 -142zM580 969q46 0 82 35t36 83q0 73 -73 74q-46 0 -81 -35t-35 -83q-1 -74 71 -74zM1376 -20 q-150 0 -240 76.5t-90 218.5q0 188 145 335.5t348 147.5q147 0 238.5 -78t91.5 -221q0 -195 -142.5 -337t-350.5 -142zM2241 -20q-150 0 -240 76.5t-90 218.5q0 188 145.5 335.5t348.5 147.5q147 0 238 -78t91 -221q0 -195 -142.5 -337t-350.5 -142zM1435 273q46 0 82 35 t36 83q0 75 -75 75q-44 0 -80 -36t-36 -82q0 -75 73 -75zM2299 273q48 0 83.5 35t35.5 83q0 75 -75 75q-44 0 -80 -36t-36 -82q0 -75 72 -75z" glyph-name="perthousand" horiz-adv-x="2926" unicode="‰"/><glyph d="M1154 1237l-500 -517l187 -524h-558l-181 524l506 517h546z" glyph-name="guilsinglleft" horiz-adv-x="1109" unicode="‹"/><glyph d="M-44 196l500 517l-188 524h558l181 -524l-505 -517h-546z" glyph-name="guilsinglright" horiz-adv-x="1109" unicode="›"/><glyph d="M1010 1036q-184 0 -302 -143h278l-52 -161h-306q-5 -20 -12 -61h295l-53 -164h-215q61 -109 212 -109q222 0 331 206h473q-46 -152 -126.5 -269.5t-171.5 -187.5t-200.5 -115.5t-206 -62.5t-193.5 -17q-290 0 -457 146t-181 409h-159l53 164h111q7 41 12 61h-102l54 161 h96q109 259 354.5 423.5t563.5 164.5q328 0 503.5 -194.5t103.5 -465.5h-472q0 101 -63.5 158t-167.5 57z" glyph-name="Euro" horiz-adv-x="1727" unicode="€"/><glyph d="M1678 695q-138 0 -217.5 76.5t-79.5 208.5q0 191 139 327.5t337 136.5q137 0 217 -78.5t80 -210.5q0 -188 -139 -324t-337 -136zM-177 0l465 1434h449l-22 -613h43l198 613h464l-464 -1434h-449l20 614h-44l-195 -614h-465zM1737 964q60 0 98.5 41t38.5 87q0 79 -79 79 q-60 0 -99 -42t-39 -90q0 -75 80 -75zM1111 70l131 408h661l-131 -408h-661z" glyph-name="afii61352" horiz-adv-x="2063" unicode="№"/><glyph d="M1360 1434h307l-211 -654h-210l114 358h-20l-164 -358h-208l71 358h-30l-115 -358h-211l148 461h-171l-148 -461h-232l150 461h-213l63 193h918l-75 -430h34z" glyph-name="trademark" horiz-adv-x="1483" unicode="™"/><glyph d="M980 1471q355 0 465.5 -195.5t-17.5 -545.5q-55 -160 -127 -287t-184 -240.5t-275.5 -177t-368.5 -63.5q-265 0 -395.5 90t-130.5 257q0 179 108.5 313t291 202.5t411.5 68.5q166 0 239 -31q113 227 -147 227q-75 0 -147 -25t-101 -81h-419q79 241 290.5 364.5 t506.5 123.5zM601 341q113 0 189.5 46t76.5 120q0 101 -162 101q-113 0 -190.5 -43.5t-77.5 -115.5q0 -108 164 -108z" glyph-name="partialdiff" horiz-adv-x="1477" unicode="∂"/><glyph d="M1476 1536l-138 -430h-2l-442 -1362h-517l442 1362h-121l-442 -1362h-517l503 1546h2l79 246h1153z" glyph-name="product" horiz-adv-x="1264" unicode="∏"/><glyph d="M-253 -256l130 430l693 451l-372 481l131 430h1120l-138 -430h-562l364 -457l-4 -48l-648 -427h544l-138 -430h-1120z" glyph-name="summation" horiz-adv-x="1239" unicode="∑"/><glyph d="M15 503l142 431h1109l-141 -431h-1110z" glyph-name="minus" horiz-adv-x="1280" unicode="−"/><glyph d="M167 -256l40 689h-214l138 431h492l-43 -642h36l638 1314h419l-915 -1792h-591z" glyph-name="radical" horiz-adv-x="1491" unicode="√"/><glyph d="M1201 1087q234 0 234 -222q0 -198 -146 -359t-342 -161q-108 0 -166.5 47.5t-97.5 138.5q-101 -90 -193 -138t-198 -48q-239 0 -239 220q0 198 149.5 360t343.5 162q106 0 165.5 -48.5t97.5 -139.5q208 188 392 188zM382 691q0 -24 14.5 -39t38.5 -15q73 0 179 83 q-36 51 -61.5 66.5t-57.5 15.5q-43 0 -78 -36t-35 -75zM1000 637q43 0 76 35t33 74q0 22 -13.5 39t-37.5 17q-68 0 -177 -82q17 -29 33 -47t32.5 -25.5t26.5 -9t27 -1.5z" glyph-name="infinity" horiz-adv-x="1491" unicode="∞"/><glyph d="M73 -256q-218 0 -303 63l119 372q116 -43 188 -42q157 0 201 136l260 807q49 157 152.5 259.5t227 144.5t268.5 42q218 0 302 -63l-118 -372q-119 44 -187 44q-157 0 -202 -137l-259 -809q-70 -222 -248.5 -333.5t-400.5 -111.5z" glyph-name="integral" horiz-adv-x="1310" unicode="∫"/><glyph d="M819 736q-89 2 -205 59.5t-182 57.5q-125 0 -166 -102h-167q24 130 103.5 222t176.5 131t201 39q87 0 203 -58t181 -59q125 5 169 102h167q-34 -189 -176.5 -289t-304.5 -103zM678 287q-89 2 -205 59.5t-183 57.5q-125 0 -165 -102h-168q24 130 103.5 222t177 131.5 t201.5 39.5q87 0 203 -58t181 -60q125 5 169 102h167q-34 -189 -176.5 -289t-304.5 -103z" glyph-name="approxequal" horiz-adv-x="1256" unicode="≈"/><glyph d="M1468 1449l-205 -254h87l-142 -432h-295l-73 -91h341l-142 -430h-546l-145 -179h-536l145 179h-27l142 430h232l73 91h-278l142 432h486l205 254h536z" glyph-name="notequal" horiz-adv-x="1280" unicode="≠"/><glyph d="M1135 529l-993 345l177 549l1229 352l-143 -434l-746 -162l-17 -47l635 -163zM-147 0l142 430h1109l-141 -430h-1110z" glyph-name="lessequal" horiz-adv-x="1280" unicode="≤"/><glyph d="M423 1763l958 -345l-171 -549l-1186 -352l138 434l720 162l16 48l-611 162zM-154 0l142 430h1109l-141 -430h-1110z" glyph-name="greaterequal" horiz-adv-x="1274" unicode="≥"/><glyph d="M193 0q-14 0 -26 19t-5 30l-77 668l514 718q3 7 5 4q3 -5 14 -5h522q14 0 26 -19t5 -31l77 -667l-512 -719q-5 -7 -7 -3q-3 5 -12 5h-524zM543 358l283 362l-34 355l-283 -362z" glyph-name="lozenge" horiz-adv-x="1332" unicode="◊"/><glyph d="M952 1036q-183 0 -299.5 -124t-116.5 -284q0 -111 72.5 -170.5t181.5 -59.5q229 0 321 157h-317l82 251h803q-32 -218 -121.5 -384t-223.5 -267.5t-299.5 -152t-362.5 -50.5q-307 0 -480 160.5t-173 443.5q0 181 77.5 349t211.5 296t328.5 204t414.5 76q317 0 500 -169 t145 -402h-518q-24 56 -84 91t-142 35z" glyph-name="G.aalt" horiz-adv-x="1713"/><glyph d="M594 1521q-65 0 -107.5 43.5t-42.5 102.5q0 79 64.5 139.5t141.5 60.5q65 0 107.5 -43.5t42.5 -104.5q0 -79 -64.5 -138.5t-141.5 -59.5zM-177 0l462 1434h517l-462 -1434h-517z" glyph-name="i.aalt" horiz-adv-x="626"/><glyph d="M952 1036q-183 0 -299.5 -124t-116.5 -284q0 -111 72.5 -170.5t181.5 -59.5q229 0 321 157h-317l82 251h803q-32 -218 -121.5 -384t-223.5 -267.5t-299.5 -152t-362.5 -50.5q-307 0 -480 160.5t-173 443.5q0 181 77.5 349t211.5 296t328.5 204t414.5 76q317 0 500 -169 t145 -402h-518q-24 56 -84 91t-142 35z" glyph-name="g.aalt" horiz-adv-x="1713"/></font>
</defs>
</svg>
