<?xml version="1.0" standalone="no"?>
<!DOCTYPE svg PUBLIC "-//W3C//DTD SVG 1.1//EN" "http://www.w3.org/Graphics/SVG/1.1/DTD/svg11.dtd">
<svg xmlns="http://www.w3.org/2000/svg"><metadata>This SVG WebFont was generated by YouWorkForThem.
Â© 2017 Connary Fagen</metadata><defs><font horiz-adv-x="1662" id="ywftsvg"><font-face ascent="1638" bbox="-833 -778 2748 1876" cap-height="1434" descent="-410" font-family="" font-stretch="normal" font-weight="600" panose-1="0 0 7 0 0 0 0 0 0 0" underline-position="0" underline-thickness="0" unicode-range="U+0020-25CA" units-per-em="2048" x-height="1434"/><missing-glyph d="M736 1536v-1792h-569v1792h569zM597 1417h-297v-60h118v-67h-119v-58h298v58h-119v67h119v60zM478 1184h-179v-186h298v62h-119v124zM418 1125v-65h-60v65h60zM597 951h-298v-60h119v-67h-119v-58h179v125h119v60zM597 843h-59v-119h-239v-60h298v179zM597 625h-179v-101 h60v41h60v-84h-180v144h-59v-203h298v203zM597 314h-298v-203h298v203zM538 254v-83h-180v83h180zM597 70h-298v-60h126l-126 -83v-60h298v60h-182l124 83h58v60z" horiz-adv-x="896"/><glyph d="M736 1536v-1792h-569v1792h569zM597 1417h-297v-60h118v-67h-119v-58h298v58h-119v67h119v60zM478 1184h-179v-186h298v62h-119v124zM418 1125v-65h-60v65h60zM597 951h-298v-60h119v-67h-119v-58h179v125h119v60zM597 843h-59v-119h-239v-60h298v179zM597 625h-179v-101 h60v41h60v-84h-180v144h-59v-203h298v203zM597 314h-298v-203h298v203zM538 254v-83h-180v83h180zM597 70h-298v-60h126l-126 -83v-60h298v60h-182l124 83h58v60z" glyph-name=".notdef" horiz-adv-x="896"/><glyph glyph-name="glyph1" horiz-adv-x="0"/><glyph glyph-name="glyph2" horiz-adv-x="682"/><glyph glyph-name="space" horiz-adv-x="440" unicode=" "/><glyph d="M65 527l227 907h444l-403 -907h-268zM77 -27q-82 0 -132.5 51t-50.5 133q0 104 74.5 175t174.5 71q82 0 132.5 -51.5t50.5 -133.5q0 -104 -74 -174.5t-175 -70.5z" glyph-name="exclam" horiz-adv-x="563" unicode="!"/><glyph d="M143 811l174 623h374l-232 -623h-316zM604 811l174 623h374l-232 -623h-316z" glyph-name="quotedbl" horiz-adv-x="1005" unicode="&quot;"/><glyph d="M1394 833h-179l-68 -212h177l-102 -322h-179l-98 -299h-363l97 299h-216l-98 -299h-362l98 299h-181l104 322h181l68 212h-179l97 302h179l98 299h361l-97 -299h217l97 299h364l-98 -299h180zM783 621l69 212h-217l-68 -212h216z" glyph-name="numbersign" horiz-adv-x="1413" unicode="#"/><glyph d="M1318 925h-369q17 68 -6 103t-90 45l-76 -238q75 -10 121.5 -19.5t117.5 -33t112 -53t72.5 -81.5t31.5 -121q0 -196 -201.5 -318t-501.5 -137l-34 -104h-142l34 104q-254 12 -366.5 118.5t-44.5 314.5h379q-41 -125 126 -143l79 240q-68 12 -114.5 23.5t-111 36 t-105 55.5t-69.5 82t-29 116q0 186 195.5 309.5t479.5 135.5l35 113h142l-38 -114q85 -5 152 -21.5t126 -49t87 -81t35 -119.5t-27 -163zM534 952q0 -60 109 -92l70 217q-77 -10 -128 -43.5t-51 -81.5zM819 478q0 32 -30 54.5t-98 40.5l-68 -211q87 9 141.5 38.5t54.5 77.5z " glyph-name="dollar" horiz-adv-x="1341" unicode="$"/><glyph d="M374 -51l-161 126l1381 1417l157 -125zM507 707q-142 0 -225.5 75t-83.5 210q0 181 140 321.5t336 140.5q138 0 223.5 -76t85.5 -211q0 -188 -138 -324t-338 -136zM556 957q63 0 111 47t48 109q0 92 -92 92q-63 0 -110 -48t-47 -107q0 -93 90 -93zM1294 -20 q-142 0 -225.5 75t-83.5 210q0 181 140.5 321.5t335.5 140.5q138 0 223.5 -76t85.5 -212q0 -186 -138 -322.5t-338 -136.5zM1345 229q61 0 109 47.5t48 107.5q0 94 -92 94q-61 0 -109 -48t-48 -107q0 -94 92 -94z" glyph-name="percent" horiz-adv-x="1969" unicode="%"/><glyph d="M1681 756q-85 -265 -249 -447l123 -114l-260 -250l-146 142q-253 -133 -584 -133q-294 0 -454 104t-160 297q0 172 128.5 302t333.5 191q-46 92 -46 191q0 198 193 315t490 117q288 0 430.5 -139t55.5 -395h-360q36 111 -18.5 164t-171.5 53q-106 0 -174 -39.5 t-68 -102.5q0 -41 31.5 -79.5t129.5 -128.5l281 -265q96 106 133 217h362zM642 287q128 0 254 48l-323 314q-186 -63 -186 -198q0 -90 74.5 -127t180.5 -37z" glyph-name="ampersand" horiz-adv-x="1771" unicode="&amp;"/><glyph d="M143 811l174 623h374l-232 -623h-316z" glyph-name="quotesingle" horiz-adv-x="544" unicode="'"/><glyph d="M608 -247q-609 0 -610 607q0 200 50.5 391t153.5 359t247.5 294.5t346 200t435.5 73.5l-106 -352q-137 0 -257 -58t-206.5 -152.5t-149.5 -214t-94 -244.5t-31 -241q0 -167 77 -239.5t253 -72.5z" glyph-name="parenleft" horiz-adv-x="988" unicode="("/><glyph d="M381 1678q609 0 609 -608q0 -200 -50.5 -391t-153.5 -359t-247.5 -294.5t-346 -199.5t-434.5 -73l105 351q137 0 257.5 58t206.5 153t149 214.5t94 244t31 240.5q0 167 -77 239.5t-253 72.5z" glyph-name="parenright" horiz-adv-x="991" unicode=")"/><glyph d="M1140 1091l-293 -127l220 -123l-190 -220l-191 167l-75 -291h-253l110 278l-273 -154l-64 220l296 127l-222 123l189 218l193 -167l75 292h253l-109 -277l271 152z" glyph-name="asterisk" horiz-adv-x="1114" unicode="*"/><glyph d="M1236 891l-113 -347h-362l-116 -358h-377l118 358h-357l113 347h356l118 360h376l-118 -360h362z" glyph-name="plus" horiz-adv-x="1264" unicode="+"/><glyph d="M-114 -406q102 227 150 406h-183l115 358h518v-1q-176 -529 -368 -763h-232z" glyph-name="comma" horiz-adv-x="687" unicode=","/><glyph d="M7 532l119 359h990l-119 -359h-990z" glyph-name="hyphen" horiz-adv-x="1126" unicode="-"/><glyph d="M77 -27q-82 0 -132.5 51t-50.5 133q0 104 74.5 175t174.5 71q82 0 132.5 -51.5t50.5 -133.5q0 -104 -74 -174.5t-175 -70.5z" glyph-name="period" horiz-adv-x="554" unicode="."/><glyph d="M-215 0l1123 1434h503l-1123 -1434h-503z" glyph-name="slash" horiz-adv-x="1196" unicode="/"/><glyph d="M550 -38q-355 0 -486 208.5t-4 592.5q114 350 345.5 529t558.5 179q355 0 485.5 -207.5t4.5 -592.5q-113 -350 -344.5 -529.5t-559.5 -179.5zM614 309q157 0 276 113.5t185 333.5q55 188 9 278.5t-185 90.5q-157 0 -275.5 -113.5t-184.5 -333.5q-56 -188 -9.5 -278.5 t184.5 -90.5z" glyph-name="zero" horiz-adv-x="1505" unicode="0"/><glyph d="M1123 1434l-360 -1106h299l-106 -328h-1116l105 328h390l220 676q-143 -85 -389 -74l114 350q198 0 415 154h428z" glyph-name="one" horiz-adv-x="1252" unicode="1"/><glyph d="M1425 1126q0 -131 -77 -239.5t-203 -184.5t-255 -134.5t-269.5 -122.5t-210.5 -117h773l-106 -328h-1263l65 201q34 109 134.5 205t223.5 159t260.5 126t249 111t185 107t73.5 118q0 104 -165 105q-234 0 -296 -169h-397q55 241 252 374.5t497 133.5q256 0 392.5 -89 t136.5 -256z" glyph-name="two" horiz-adv-x="1368" unicode="2"/><glyph d="M478 -38q-317 0 -458 125t-54 379h369q-17 -92 43.5 -128t172.5 -36q143 0 236.5 48.5t93.5 129.5q0 128 -251 128h-80l78 245h72q142 0 235.5 45.5t93.5 125.5q0 109 -196 109q-242 0 -309 -169h-365q39 177 150 293.5t258.5 165t333.5 48.5q249 0 387.5 -87t138.5 -234 q0 -131 -89.5 -236t-250.5 -158l-8 -26q87 -31 144 -102.5t57 -171.5q0 -160 -120.5 -275.5t-297 -167t-384.5 -51.5z" glyph-name="three" horiz-adv-x="1431" unicode="3"/><glyph d="M1492 1434l-277 -849h212l-106 -326h-210l-84 -259h-440l89 259h-763l107 326l961 849h511zM427 585h360l153 451z" glyph-name="four" horiz-adv-x="1525" unicode="4"/><glyph d="M464 -38q-302 0 -436 133.5t-57 367.5h370q-17 -164 198 -164q157 0 248.5 73t91.5 172q0 150 -205 151q-188 0 -295 -104h-370l279 843h1122l-106 -326h-756l-80 -231q189 77 365 77q196 0 315.5 -94.5t119.5 -272.5q0 -276 -220 -450.5t-584 -174.5z" glyph-name="five" horiz-adv-x="1387" unicode="5"/><glyph d="M1447 998h-339q14 77 -39.5 117t-146.5 40q-324 0 -437 -336q147 92 384 92q218 0 341 -83.5t123 -264.5q0 -183 -103.5 -321t-277.5 -209t-389 -71q-266 0 -401 137t-135 367q0 189 62.5 366.5t180 321t306.5 230.5t421 87q265 0 397 -133t53 -340zM742 657 q-140 0 -229.5 -74t-89.5 -173q0 -65 50.5 -102t144.5 -37q135 0 227 74.5t92 176.5q0 67 -53 101t-142 34z" glyph-name="six" horiz-adv-x="1464" unicode="6"/><glyph d="M282 1434h1222l-111 -338l-1043 -1096h-461l1055 1096h-773z" glyph-name="seven" horiz-adv-x="1307" unicode="7"/><glyph d="M529 -38q-297 0 -441 104.5t-144 271.5q0 148 99.5 265t282.5 180l10 23q-92 79 -92 213q0 200 181 326t476 126q249 0 373.5 -86t124.5 -231q0 -118 -73 -205t-191 -142l-7 -20q174 -111 174 -313q0 -160 -105.5 -278.5t-279 -176t-388.5 -57.5zM770 899q102 0 171 44.5 t69 119.5q0 118 -162 118q-102 0 -169.5 -47t-67.5 -119q0 -116 159 -116zM572 280q143 0 232 62t89 155q0 77 -61 111t-151 34q-143 0 -231 -62.5t-88 -156.5q0 -143 210 -143z" glyph-name="eight" horiz-adv-x="1442" unicode="8"/><glyph d="M901 1471q266 0 401 -136.5t135 -366.5q0 -189 -62.5 -367t-180 -321t-306 -230.5t-420.5 -87.5q-265 0 -397 133.5t-54 339.5h340q-14 -77 39 -117t147 -40q324 0 437 336q-147 -92 -384 -92q-218 0 -341.5 83.5t-123.5 264.5q0 183 103.5 321t277.5 209t389 71z M722 777q140 0 229.5 74t89.5 173q0 65 -50.5 101.5t-143.5 36.5q-135 0 -227.5 -74t-92.5 -177q0 -67 53 -100.5t142 -33.5z" glyph-name="nine" horiz-adv-x="1464" unicode="9"/><glyph d="M365 862q-82 0 -132 51t-50 133q0 104 74 175t175 71q82 0 132 -51t50 -133q0 -104 -74 -175t-175 -71zM128 126q-82 0 -132.5 51.5t-50.5 133.5q0 104 74.5 174.5t175.5 70.5q82 0 132 -51t50 -133q0 -104 -74 -175t-175 -71z" glyph-name="colon" horiz-adv-x="556" unicode=":"/><glyph d="M365 862q-82 0 -132 51t-50 133q0 104 74 175t175 71q82 0 132 -51t50 -133q0 -104 -74 -175t-175 -71zM-82 -241q102 227 150 407h-182l114 358h519v-2q-176 -529 -369 -763h-232z" glyph-name="semicolon" horiz-adv-x="636" unicode=";"/><glyph d="M908 138l-891 350l142 452l1119 355l-114 -365l-722 -191l-14 -43l594 -191z" glyph-name="less" horiz-adv-x="1181" unicode="&lt;"/><glyph d="M99 763l118 358h1034l-118 -358h-1034zM-46 314l118 358h1034l-118 -358h-1034z" glyph-name="equal" horiz-adv-x="1204" unicode="="/><glyph d="M271 1295l891 -350l-141 -452l-1120 -355l114 365l722 192l14 42l-594 191z" glyph-name="greater" horiz-adv-x="1179" unicode=">"/><glyph d="M413 512q19 111 89.5 189.5t157 118.5t170 71t140 65t56.5 82q0 43 -55.5 69t-151.5 26q-249 0 -331 -205h-386q116 543 794 543q263 0 421.5 -90.5t158.5 -260.5q0 -111 -62 -196.5t-152.5 -136.5t-182 -93t-162 -87.5t-81.5 -94.5h-423zM514 -27q-82 0 -132.5 51 t-50.5 133q0 104 74.5 175t174.5 71q82 0 132.5 -51.5t50.5 -133.5q0 -104 -74 -174.5t-175 -70.5z" glyph-name="question" horiz-adv-x="1392" unicode="?"/><glyph d="M1463 346q-140 -186 -346 -290t-458 -104q-295 0 -466 154.5t-171 420.5q0 184 79.5 357.5t213.5 305t325 211.5t401 80q292 0 467 -151t175 -393q0 -186 -101 -320t-282 -134q-97 0 -128.5 42.5t0.5 143.5l175 425h-142l-56 -77h-21q-58 101 -213 101 q-213 0 -367.5 -170t-154.5 -371q0 -133 72.5 -204t198.5 -71q198 0 317 137h21q14 -63 73.5 -100t155.5 -37q125 0 218 55zM876 939q128 0 131 -139q0 -114 -84.5 -216.5t-193.5 -102.5q-130 0 -133 140q0 114 85.5 216t194.5 102z" glyph-name="at" horiz-adv-x="1681" unicode="@"/><glyph d="M1019 0l-5 207h-637l-138 -207h-459l986 1434h603l75 -1434h-425zM591 526h414l-13 505h-64z" glyph-name="A" unicode="A"/><glyph d="M1529 1137q0 -116 -75 -213.5t-220 -145.5l-10 -25q85 -43 133.5 -105.5t48.5 -178.5q0 -236 -204.5 -352.5t-537.5 -116.5h-833l464 1434h780q454 0 454 -297zM881 855q102 0 164.5 42.5t62.5 106.5q0 99 -147 99h-341l-81 -248h342zM759 331q104 0 171.5 46t67.5 126 q0 108 -153 108h-386l-90 -280h390z" glyph-name="B" horiz-adv-x="1541" unicode="B"/><glyph d="M672 -48q-305 0 -475.5 157t-170.5 435q0 183 77.5 353.5t210.5 299.5t327 206.5t410 77.5q314 0 491.5 -175.5t124.5 -433.5h-411q-7 116 -85.5 177.5t-201.5 61.5q-222 0 -369.5 -155.5t-147.5 -351.5q0 -135 84 -208t218 -73q265 0 410 233h415q-53 -140 -135 -248 t-173.5 -174t-199.5 -108.5t-204 -58t-195 -15.5z" glyph-name="C" horiz-adv-x="1670" unicode="C"/><glyph d="M-166 0l463 1434h647q328 0 484.5 -141t156.5 -395q0 -273 -134.5 -479.5t-364 -312.5t-518.5 -106h-734zM379 360h264q217 0 363 138.5t146 339.5q0 125 -80 180t-244 55h-217z" glyph-name="D" horiz-adv-x="1612" unicode="D"/><glyph d="M1452 1091h-839l-74 -229h831l-90 -280h-831l-77 -239h838l-113 -343h-1266l464 1434h1270z" glyph-name="E" horiz-adv-x="1394" unicode="E"/><glyph d="M1440 1075h-832l-81 -247h787l-111 -340h-787l-158 -488h-427l464 1434h1261z" glyph-name="F" horiz-adv-x="1387" unicode="F"/><glyph d="M969 1111q-222 0 -369.5 -155.5t-147.5 -351.5q0 -135 84 -208t218 -73q48 0 97.5 8.5t110 31.5t114.5 72.5t88 119.5h-381l75 227h801l-253 -782h-230l51 177q-97 -104 -244 -164.5t-323 -60.5q-299 0 -466.5 153t-167.5 429q0 186 77.5 359.5t210.5 303t326 207 t411 77.5q294 0 471.5 -155t156.5 -386h-430q-27 80 -102.5 125.5t-177.5 45.5z" glyph-name="G" horiz-adv-x="1694" unicode="G"/><glyph d="M1328 1434h428l-461 -1434h-428l167 522h-602l-167 -522h-431l463 1434h428l-177 -555h602z" glyph-name="H" horiz-adv-x="1590" unicode="H"/><glyph d="M-169 0l464 1434h429l-463 -1434h-430z" glyph-name="I" horiz-adv-x="556" unicode="I"/><glyph d="M478 -48q-314 0 -446.5 147.5t-31.5 470.5h425q-79 -253 136 -253q212 0 297 256l277 861h428l-276 -861q-108 -343 -306.5 -482t-502.5 -139z" glyph-name="J" horiz-adv-x="1396" unicode="J"/><glyph d="M1770 1434l-778 -649l455 -785h-426l-332 572h-35l-280 -220l-115 -352h-428l468 1434h428l-177 -545h51l674 545h495z" glyph-name="K" horiz-adv-x="1633" unicode="K"/><glyph d="M-169 0l468 1434h428l-352 -1076h811l-116 -358h-1239z" glyph-name="L" horiz-adv-x="1361" unicode="L"/><glyph d="M-166 0l463 1434h522l-12 -871h38l546 869h568l-459 -1432h-413l231 710h-43l-435 -710h-325v710h-41l-230 -710h-410z" glyph-name="M" horiz-adv-x="1795" unicode="M"/><glyph d="M-169 0l468 1434h476l276 -850h46l279 850h418l-466 -1434h-464l-291 841h-46l-276 -841h-420z" glyph-name="N" horiz-adv-x="1626" unicode="N"/><glyph d="M672 -48q-307 0 -477.5 156.5t-170.5 430.5q0 183 77.5 355.5t210.5 301t322.5 207t401.5 78.5q307 0 477.5 -155t170.5 -430q0 -184 -77.5 -356.5t-210.5 -301.5t-322.5 -207.5t-401.5 -78.5zM742 323q218 0 366 157t152 348q0 135 -83 209t-211 74q-218 0 -366 -157 t-149 -348q0 -137 81.5 -210t209.5 -73z" glyph-name="O" horiz-adv-x="1708" unicode="O"/><glyph d="M1014 1434q263 0 396 -101.5t133 -320.5q0 -319 -215 -504t-545 -185h-416l-106 -323h-430l468 1434h715zM804 676q130 0 216 71.5t86 186.5q0 143 -183 143h-310l-132 -403z" glyph-name="P" horiz-adv-x="1534" unicode="P"/><glyph d="M1684 896q0 -188 -81 -363.5t-224 -308.5l113 -164q-130 -121 -318 -244l-148 196q-166 -60 -354 -60q-307 0 -477.5 156.5t-170.5 430.5q0 183 77.5 355.5t210.5 301t322.5 207t401.5 78.5q307 0 477.5 -155t170.5 -430zM451 606q0 -137 81.5 -210t209.5 -73 q218 0 366 157t152 348q0 135 -83 209t-211 74q-218 0 -365.5 -157t-149.5 -348z" glyph-name="Q" horiz-adv-x="1720" unicode="Q"/><glyph d="M1553 1026q0 -186 -100.5 -329.5t-264.5 -225.5l111 -471h-412l-87 387h-411l-124 -387h-431l463 1434h732q524 0 524 -408zM611 1077l-119 -372l351 2q106 0 190.5 63t84.5 167q0 77 -44.5 108.5t-139.5 31.5h-323z" glyph-name="R" horiz-adv-x="1546" unicode="R"/><glyph d="M544 -48q-352 0 -511 121.5t-69 389.5h365q-19 -92 58 -136t219 -44q148 0 246.5 41t98.5 123q0 48 -41 78.5t-145 49.5l-115 21q-46 9 -65.5 12t-73.5 15t-83.5 24t-76.5 32.5t-75.5 46t-57.5 58.5t-42.5 78.5t-13.5 96.5q0 246 211 384t550 138q331 0 491.5 -135.5 t58.5 -370.5h-352q14 77 -50 127t-207 50q-133 0 -213.5 -44.5t-80.5 -117.5q0 -89 155 -118l87 -17q24 -5 82 -16t93 -19t91.5 -23t91.5 -31.5t77.5 -43.5t66.5 -59.5t40 -78t16 -99.5q0 -143 -66.5 -249t-183 -166t-260.5 -89t-316 -29z" glyph-name="S" horiz-adv-x="1501" unicode="S"/><glyph d="M1754 1434l-116 -359h-513l-350 -1075h-430l350 1075h-523l115 359h1467z" glyph-name="T" horiz-adv-x="1578" unicode="T"/><glyph d="M602 -48q-381 0 -527.5 175t-36.5 508l261 799h435l-275 -833q-46 -140 4.5 -216t200.5 -76q154 0 250 82t153 254l256 789h435l-275 -842q-113 -345 -321 -492.5t-560 -147.5z" glyph-name="U" horiz-adv-x="1588" unicode="U"/><glyph d="M319 0l-73 1434h420l29 -1031h51l681 1031h467l-984 -1434h-591z" glyph-name="V" horiz-adv-x="1674" unicode="V"/><glyph d="M89 0l170 1434h429l-137 -977h40l537 977h345l-84 -977h39l490 977h444l-754 -1434h-579l82 761h-38l-407 -761h-577z" glyph-name="W" horiz-adv-x="2165" unicode="W"/><glyph d="M-222 0l719 713l15 38l-270 683h434l165 -442h40l406 442h476l-696 -693l-16 -38l278 -703h-452l-157 432h-39l-420 -432h-483z" glyph-name="X" horiz-adv-x="1571" unicode="X"/><glyph d="M1818 1434l-900 -989l-143 -445h-429l151 471l-260 963h432l140 -564h38l496 564h475z" glyph-name="Y" horiz-adv-x="1607" unicode="Y"/><glyph d="M-183 0l113 352l983 692l14 35h-746l118 355h1319l-114 -352l-983 -693l-14 -34h747l-117 -355h-1320z" glyph-name="Z" horiz-adv-x="1431" unicode="Z"/><glyph d="M-244 -230l616 1894h799l-116 -358h-371l-382 -1178h370l-116 -358h-800z" glyph-name="bracketleft" horiz-adv-x="928" unicode="["/><glyph d="M894 0l-662 1434h488l662 -1434h-488z" glyph-name="backslash" horiz-adv-x="1614" unicode="\"/><glyph d="M1172 1664l-616 -1894h-798l116 358h370l382 1178h-370l116 358h800z" glyph-name="bracketright" horiz-adv-x="928" unicode="]"/><glyph d="M10 488l632 1004h486l26 -1004h-347l24 679h-48l-414 -679h-359z" glyph-name="asciicircum" horiz-adv-x="1315" unicode="^"/><glyph d="M-265 -358l118 358h1055l-118 -358h-1055z" glyph-name="underscore" horiz-adv-x="1225" unicode="_"/><glyph d="M806 1161h-393l-176 291h393z" glyph-name="grave" horiz-adv-x="662" unicode="`"/><glyph d="M1019 0l-5 207h-637l-138 -207h-459l986 1434h603l75 -1434h-425zM591 526h414l-13 505h-64z" glyph-name="a" unicode="a"/><glyph d="M1529 1137q0 -116 -75 -213.5t-220 -145.5l-10 -25q85 -43 133.5 -105.5t48.5 -178.5q0 -236 -204.5 -352.5t-537.5 -116.5h-833l464 1434h780q454 0 454 -297zM881 855q102 0 164.5 42.5t62.5 106.5q0 99 -147 99h-341l-81 -248h342zM759 331q104 0 171.5 46t67.5 126 q0 108 -153 108h-386l-90 -280h390z" glyph-name="b" horiz-adv-x="1541" unicode="b"/><glyph d="M672 -48q-305 0 -475.5 157t-170.5 435q0 183 77.5 353.5t210.5 299.5t327 206.5t410 77.5q314 0 491.5 -175.5t124.5 -433.5h-411q-7 116 -85.5 177.5t-201.5 61.5q-222 0 -369.5 -155.5t-147.5 -351.5q0 -135 84 -208t218 -73q265 0 410 233h415q-53 -140 -135 -248 t-173.5 -174t-199.5 -108.5t-204 -58t-195 -15.5z" glyph-name="c" horiz-adv-x="1670" unicode="c"/><glyph d="M-166 0l463 1434h647q328 0 484.5 -141t156.5 -395q0 -273 -134.5 -479.5t-364 -312.5t-518.5 -106h-734zM379 360h264q217 0 363 138.5t146 339.5q0 125 -80 180t-244 55h-217z" glyph-name="d" horiz-adv-x="1612" unicode="d"/><glyph d="M1452 1091h-839l-74 -229h831l-90 -280h-831l-77 -239h838l-113 -343h-1266l464 1434h1270z" glyph-name="e" horiz-adv-x="1394" unicode="e"/><glyph d="M1440 1075h-832l-81 -247h787l-111 -340h-787l-158 -488h-427l464 1434h1261z" glyph-name="f" horiz-adv-x="1387" unicode="f"/><glyph d="M969 1111q-222 0 -369.5 -155.5t-147.5 -351.5q0 -135 84 -208t218 -73q48 0 97.5 8.5t110 31.5t114.5 72.5t88 119.5h-381l75 227h801l-253 -782h-230l51 177q-97 -104 -244 -164.5t-323 -60.5q-299 0 -466.5 153t-167.5 429q0 186 77.5 359.5t210.5 303t326 207 t411 77.5q294 0 471.5 -155t156.5 -386h-430q-27 80 -102.5 125.5t-177.5 45.5z" glyph-name="g" horiz-adv-x="1694" unicode="g"/><glyph d="M1328 1434h428l-461 -1434h-428l167 522h-602l-167 -522h-431l463 1434h428l-177 -555h602z" glyph-name="h" horiz-adv-x="1590" unicode="h"/><glyph d="M-169 0l464 1434h429l-463 -1434h-430z" glyph-name="i" horiz-adv-x="556" unicode="i"/><glyph d="M478 -48q-314 0 -446.5 147.5t-31.5 470.5h425q-79 -253 136 -253q212 0 297 256l277 861h428l-276 -861q-108 -343 -306.5 -482t-502.5 -139z" glyph-name="j" horiz-adv-x="1396" unicode="j"/><glyph d="M1770 1434l-778 -649l455 -785h-426l-332 572h-35l-280 -220l-115 -352h-428l468 1434h428l-177 -545h51l674 545h495z" glyph-name="k" horiz-adv-x="1633" unicode="k"/><glyph d="M-169 0l468 1434h428l-352 -1076h811l-116 -358h-1239z" glyph-name="l" horiz-adv-x="1361" unicode="l"/><glyph d="M-166 0l463 1434h522l-12 -871h38l546 869h568l-459 -1432h-413l231 710h-43l-435 -710h-325v710h-41l-230 -710h-410z" glyph-name="m" horiz-adv-x="1795" unicode="m"/><glyph d="M-169 0l468 1434h476l276 -850h46l279 850h418l-466 -1434h-464l-291 841h-46l-276 -841h-420z" glyph-name="n" horiz-adv-x="1626" unicode="n"/><glyph d="M672 -48q-307 0 -477.5 156.5t-170.5 430.5q0 183 77.5 355.5t210.5 301t322.5 207t401.5 78.5q307 0 477.5 -155t170.5 -430q0 -184 -77.5 -356.5t-210.5 -301.5t-322.5 -207.5t-401.5 -78.5zM742 323q218 0 366 157t152 348q0 135 -83 209t-211 74q-218 0 -366 -157 t-149 -348q0 -137 81.5 -210t209.5 -73z" glyph-name="o" horiz-adv-x="1708" unicode="o"/><glyph d="M1014 1434q263 0 396 -101.5t133 -320.5q0 -319 -215 -504t-545 -185h-416l-106 -323h-430l468 1434h715zM804 676q130 0 216 71.5t86 186.5q0 143 -183 143h-310l-132 -403z" glyph-name="p" horiz-adv-x="1534" unicode="p"/><glyph d="M1684 896q0 -188 -81 -363.5t-224 -308.5l113 -164q-130 -121 -318 -244l-148 196q-166 -60 -354 -60q-307 0 -477.5 156.5t-170.5 430.5q0 183 77.5 355.5t210.5 301t322.5 207t401.5 78.5q307 0 477.5 -155t170.5 -430zM451 606q0 -137 81.5 -210t209.5 -73 q218 0 366 157t152 348q0 135 -83 209t-211 74q-218 0 -365.5 -157t-149.5 -348z" glyph-name="q" horiz-adv-x="1720" unicode="q"/><glyph d="M1553 1026q0 -186 -100.5 -329.5t-264.5 -225.5l111 -471h-412l-87 387h-411l-124 -387h-431l463 1434h732q524 0 524 -408zM611 1077l-119 -372l351 2q106 0 190.5 63t84.5 167q0 77 -44.5 108.5t-139.5 31.5h-323z" glyph-name="r" horiz-adv-x="1546" unicode="r"/><glyph d="M544 -48q-352 0 -511 121.5t-69 389.5h365q-19 -92 58 -136t219 -44q148 0 246.5 41t98.5 123q0 48 -41 78.5t-145 49.5l-115 21q-46 9 -65.5 12t-73.5 15t-83.5 24t-76.5 32.5t-75.5 46t-57.5 58.5t-42.5 78.5t-13.5 96.5q0 246 211 384t550 138q331 0 491.5 -135.5 t58.5 -370.5h-352q14 77 -50 127t-207 50q-133 0 -213.5 -44.5t-80.5 -117.5q0 -89 155 -118l87 -17q24 -5 82 -16t93 -19t91.5 -23t91.5 -31.5t77.5 -43.5t66.5 -59.5t40 -78t16 -99.5q0 -143 -66.5 -249t-183 -166t-260.5 -89t-316 -29z" glyph-name="s" horiz-adv-x="1501" unicode="s"/><glyph d="M1754 1434l-116 -359h-513l-350 -1075h-430l350 1075h-523l115 359h1467z" glyph-name="t" horiz-adv-x="1578" unicode="t"/><glyph d="M602 -48q-381 0 -527.5 175t-36.5 508l261 799h435l-275 -833q-46 -140 4.5 -216t200.5 -76q154 0 250 82t153 254l256 789h435l-275 -842q-113 -345 -321 -492.5t-560 -147.5z" glyph-name="u" horiz-adv-x="1588" unicode="u"/><glyph d="M319 0l-73 1434h420l29 -1031h51l681 1031h467l-984 -1434h-591z" glyph-name="v" horiz-adv-x="1674" unicode="v"/><glyph d="M89 0l170 1434h429l-137 -977h40l537 977h345l-84 -977h39l490 977h444l-754 -1434h-579l82 761h-38l-407 -761h-577z" glyph-name="w" horiz-adv-x="2165" unicode="w"/><glyph d="M-222 0l719 713l15 38l-270 683h434l165 -442h40l406 442h476l-696 -693l-16 -38l278 -703h-452l-157 432h-39l-420 -432h-483z" glyph-name="x" horiz-adv-x="1571" unicode="x"/><glyph d="M1818 1434l-900 -989l-143 -445h-429l151 471l-260 963h432l140 -564h38l496 564h475z" glyph-name="y" horiz-adv-x="1607" unicode="y"/><glyph d="M-183 0l113 352l983 692l14 35h-746l118 355h1319l-114 -352l-983 -693l-14 -34h747l-117 -355h-1320z" glyph-name="z" horiz-adv-x="1431" unicode="z"/><glyph d="M237 -230q-39 0 -75.5 11.5t-71.5 41t-40.5 80.5t17.5 129l141 424l-126 244l3 39l282 239l157 468q24 75 60 122t80 66.5t76.5 24.5t76.5 5h582l-116 -358h-286q-32 0 -69 -26t-47 -56l-75 -251l-284 -248l-7 -39l111 -223l-90 -297q-2 -7 -3.5 -12.5t-1.5 -9.5v-6.5 t3.5 -5t4 -3.5t6.5 -1h8.5h11h14.5h322l-116 -358h-548z" glyph-name="braceleft" horiz-adv-x="1169" unicode="{"/><glyph d="M-225 -171l578 1775h429l-577 -1775h-430z" glyph-name="bar" horiz-adv-x="556" unicode="|"/><glyph d="M930 1664q39 0 76 -12t72 -41t40 -80t-17 -130l-142 -423l126 -244l-3 -39l-282 -239l-157 -468q-24 -75 -59.5 -122t-80 -66.5t-77 -24.5t-76.5 -5h-582l116 358h287q32 0 68.5 25.5t47.5 56.5l75 251l283 247l7 40l-111 223l90 297q2 7 4 12t2 9.5v7t-3.5 5t-4.5 3.5 t-7 1h-8.5h-11h-13.5h-323l116 358h548z" glyph-name="braceright" horiz-adv-x="1167" unicode="}"/><glyph d="M724 532q-73 2 -137.5 34.5t-120.5 65t-111 32.5q-118 0 -162 -103h-155q38 174 164.5 264.5t277.5 90.5q72 0 134 -32t118 -64.5t113 -34.5q121 5 165 102h154q-36 -172 -164 -262t-276 -93z" glyph-name="asciitilde" horiz-adv-x="1196" unicode="~"/><glyph d="M367 1092q82 0 132.5 -51t50.5 -133q0 -104 -74.5 -175t-175.5 -71q-82 0 -132 51.5t-50 133.5q0 104 74 174.5t175 70.5zM379 538l-227 -907h-444l403 907h268z" glyph-name="exclamdown" horiz-adv-x="563" unicode="¡"/><glyph d="M1147 858q-5 94 -67 151l-498 -634q46 -17 109 -17q241 0 372 212h377q-58 -157 -156 -269.5t-215 -170.5t-228 -83t-225 -25q-157 0 -275 46l-54 -68h-150l99 125q-207 143 -207 435q0 166 70 321t192 272t297 187.5t373 70.5q135 0 254 -41l50 64h150l-91 -116 q119 -75 173 -195.5t24 -264.5h-374zM480 437l495 628q-41 10 -89 10q-201 0 -335.5 -140.5t-134.5 -320.5q1 -109 64 -177z" glyph-name="cent" horiz-adv-x="1527" unicode="¢"/><glyph d="M1381 928h-401q38 97 -11 144.5t-150 47.5q-126 0 -198.5 -60t-72.5 -159q0 -34 13.5 -87t17.5 -77h534l-62 -186h-495q-51 -130 -182 -210v-13h819l-106 -328h-1282l106 328q90 29 169.5 89.5t108.5 133.5h-198l62 186h128q-38 128 -38 208q0 237 212 381.5t531 144.5 q148 0 262.5 -34t187 -101.5t85.5 -169t-40 -238.5z" glyph-name="sterling" horiz-adv-x="1355" unicode="£"/><glyph d="M1236 975q0 -90 -35 -175l94 -95l-192 -193l-77 77q-114 -73 -249 -74q-138 0 -248 72l-75 -75l-193 193l89 89q-36 90 -36 181q0 97 41 189l-94 96l193 192l84 -83q111 65 239 65q131 0 240 -67l86 85l192 -192l-97 -101q38 -88 38 -184zM777 770q61 0 106 23.5 t65.5 59.5t29 66t8.5 56q0 24 -8.5 54.5t-29 67t-65.5 61.5t-106 25q-63 0 -107.5 -25t-65 -61.5t-29 -66.5t-8.5 -55.5t8.5 -55.5t29 -66t65 -59.5t107.5 -23.5z" glyph-name="currency" horiz-adv-x="1384" unicode="¤"/><glyph d="M1818 1434l-755 -828h355l-59 -178h-448l-22 -71h449l-60 -180h-447l-56 -177h-429l57 177h-447l61 180h442l24 71h-445l59 178h362l-222 828h432l140 -564h38l496 564h475z" glyph-name="yen" horiz-adv-x="1607" unicode="¥"/><glyph d="M87 788l266 816h429l-267 -816h-428zM-225 -171l266 816h428l-264 -816h-430z" glyph-name="brokenbar" horiz-adv-x="556" unicode="¦"/><glyph d="M1574 1186h-383q15 87 -42 133t-197 46q-121 0 -195 -36.5t-95 -97.5q-34 -102 121 -134l140 -25q31 -7 88 -17.5t93 -16t89 -19.5t86 -27.5t71 -36.5t60 -49.5t36.5 -66t14.5 -85.5q0 -285 -275 -430q80 -72 80 -189q0 -133 -75 -243t-199.5 -180t-282.5 -107t-328 -37 q-346 2 -490 128.5t-50 390.5h389q-24 -87 37 -135t218 -48q140 -2 227 37t107 103q17 51 -16 87t-136 53l-165 29q-73 14 -111.5 22.5t-103.5 26.5t-102 41t-76 57t-57 83.5t-18 111.5q0 249 314 372q-114 85 -114 244q0 172 110 293t295 179.5t426 58.5q106 0 195.5 -15.5 t169 -52.5t121 -96.5t54.5 -146.5t-31 -205zM1022 654q0 108 -157 134l-150 26q-94 9 -176 -50t-82 -143q0 -99 140 -126l110 -22q123 -20 219 34.5t96 146.5z" glyph-name="section" horiz-adv-x="1506" unicode="§"/><glyph d="M331 1169q-58 0 -95.5 39.5t-37.5 93.5q0 70 57 123t126 53q60 0 97 -38.5t37 -92.5q0 -70 -57 -124t-127 -54zM841 1169q-58 0 -95.5 39.5t-37.5 93.5q0 70 57.5 123t125.5 53q60 0 97.5 -38.5t37.5 -92.5q0 -70 -57.5 -124t-127.5 -54z" glyph-name="dieresis" horiz-adv-x="826" unicode="¨"/><glyph d="M510 544q-166 0 -265.5 97.5t-99.5 263.5q0 227 165.5 396.5t411.5 169.5q166 0 265.5 -97t99.5 -263q0 -229 -165 -398t-412 -169zM543 713q89 0 177.5 43t139.5 145h-147q-53 -70 -141 -70q-58 0 -89 34t-31 92q0 89 66 160t154 71q41 0 73 -19.5t38 -55.5h145 q-2 96 -69 144.5t-164 48.5q-164 0 -272.5 -114.5t-108.5 -259.5q0 -102 60 -160.5t169 -58.5z" glyph-name="copyright" horiz-adv-x="1044" unicode="©"/><glyph d="M893 1434h204l-239 -739h-192l-14 51q-94 -51 -186 -51q-128 0 -206.5 80t-78.5 208q0 191 135.5 326t318.5 135q128 0 200 -85zM439 1043q0 -51 31.5 -75t75.5 -24q68 0 112.5 47t44.5 106q0 51 -32.5 76t-74.5 25q-65 0 -111 -48.5t-46 -106.5z" glyph-name="ordfeminine" horiz-adv-x="938" unicode="ª"/><glyph d="M1055 1220l-494 -503l185 -504h-463l-181 504l495 503h458zM1628 1220l-493 -503l184 -504h-462l-181 504l495 503h457z" glyph-name="guillemotleft" horiz-adv-x="1583" unicode="«"/><glyph d="M792 483l56 172h-781l93 297h1144l-152 -469h-360z" glyph-name="logicalnot" horiz-adv-x="1314" unicode="¬"/><glyph d="M7 532l119 359h990l-119 -359h-990z" glyph-name="uni00AD" horiz-adv-x="1126" unicode="­"/><glyph d="M510 544q-166 0 -265.5 97.5t-99.5 263.5q0 227 165.5 396.5t411.5 169.5q166 0 265.5 -97t99.5 -263q0 -229 -165 -398t-412 -169zM317 739h127l53 164h140l44 -164h133l-56 189q145 65 145 193q0 67 -47 109.5t-149 42.5h-217zM531 1009l49 153h115q79 0 78 -65 q0 -38 -32.5 -63t-78.5 -25h-131z" glyph-name="registered" horiz-adv-x="1044" unicode="®"/><glyph d="M147 1167l102 314h751l-102 -314h-751z" glyph-name="macron" horiz-adv-x="754" unicode="¯"/><glyph d="M493 676q-142 0 -223 78.5t-81 211.5q0 195 143.5 336.5t345.5 141.5q142 0 222.5 -79.5t80.5 -212.5q0 -193 -143.5 -334.5t-344.5 -141.5zM548 945q63 0 107.5 48t44.5 101q0 80 -82 80q-63 0 -107.5 -47.5t-44.5 -102.5q0 -38 23 -58.5t59 -20.5z" glyph-name="degree" horiz-adv-x="948" unicode="°"/><glyph d="M976 1201h362l-113 -346h-361l-116 -358h-378l118 358h-357l113 346h357l118 361h375zM-89 0l118 357h1034l-118 -357h-1034z" glyph-name="plusminus" horiz-adv-x="1262" unicode="±"/><glyph d="M143 1161l176 291h393l-176 -291h-393z" glyph-name="acute" horiz-adv-x="474" unicode="´"/><glyph d="M1029 1161h428l-375 -1161h-420l41 155h-36q-155 -181 -384 -181h-30l-76 -230h-430l461 1417h429l-219 -676q-36 -106 -1 -148t97 -42q101 0 184.5 65t113.5 133z" glyph-name="uni00B5" horiz-adv-x="1377" unicode="µ"/><glyph d="M761 0l113 350h-263q-524 0 -524 401q0 316 234.5 499.5t606.5 183.5h726l-464 -1434h-429zM1386 0l464 1434h428l-464 -1434h-428z" glyph-name="paragraph" horiz-adv-x="2111" unicode="¶"/><glyph d="M321 502q-82 0 -132.5 51t-50.5 133q0 104 74.5 175t174.5 71q82 0 132.5 -51.5t50.5 -132.5q0 -104 -74 -175t-175 -71z" glyph-name="periodcentered" horiz-adv-x="708" unicode="·"/><glyph d="M-14 -61q128 -32 128 -175q0 -101 -69 -164t-176.5 -72t-237.5 23l48 159q67 -22 140 -8.5t73 54.5q0 17 -21 28t-64 13.5t-107 -10.5l29 94l170 119h186z" glyph-name="cedilla" horiz-adv-x="435" unicode="¸"/><glyph d="M474 698q-131 0 -213 81t-82 209q0 183 137.5 319.5t326.5 136.5q133 0 214.5 -81t81.5 -209q0 -183 -138.5 -319.5t-326.5 -136.5zM531 944q67 0 111 47t44 106q0 48 -29 74.5t-72 26.5q-65 0 -110 -48.5t-45 -108.5q0 -48 29 -72.5t72 -24.5z" glyph-name="ordmasculine" horiz-adv-x="887" unicode="º"/><glyph d="M-44 213l493 504l-184 503h462l181 -503l-495 -504h-457zM529 213l493 504l-184 503h462l181 -503l-495 -504h-457z" glyph-name="guillemotright" horiz-adv-x="1583" unicode="»"/><glyph d="M712 1092q82 0 132 -51t50 -133q0 -104 -74 -175t-175 -71q-82 0 -132 51.5t-50 133.5q0 104 74 174.5t175 70.5zM812 553q-19 -111 -89.5 -189.5t-156.5 -118.5t-170 -71t-140 -65t-56 -82q0 -43 55.5 -69t150.5 -26q249 0 331 205h386q-116 -543 -794 -543 q-263 0 -421.5 90.5t-158.5 260.5q0 111 62.5 196.5t153 136.5t181.5 93t162 87t81 95h423z" glyph-name="questiondown" horiz-adv-x="1356" unicode="¿"/><glyph d="M1297 1519h-392l-176 292h392zM1019 0l-5 207h-637l-138 -207h-459l986 1434h603l75 -1434h-425zM591 526h414l-13 505h-64z" glyph-name="Agrave" unicode="À"/><glyph d="M1468 1811l-176 -292h-393l176 292h393zM766 1434h603l75 -1434h-425l-5 207h-637l-138 -207h-459zM591 526h414l-13 505h-64z" glyph-name="Aacute" unicode="Á"/><glyph d="M1097 1650l-121 -131h-389l300 292h548l137 -292h-357l-54 131h-64zM766 1434h603l75 -1434h-425l-5 207h-637l-138 -207h-459zM591 526h414l-13 505h-64z" glyph-name="Acircumflex" unicode="Â"/><glyph d="M1531 1743q19 -137 -54.5 -206t-184.5 -69q-84 0 -189.5 52t-155.5 52q-43 0 -71.5 -19.5t-32.5 -54.5h-123q-19 137 55.5 206t183.5 69q82 0 188.5 -52t156.5 -52q43 0 71 19.5t33 54.5h123zM766 1434h603l75 -1434h-425l-5 207h-637l-138 -207h-459zM591 526h414 l-13 505h-64z" glyph-name="Atilde" unicode="Ã"/><glyph d="M852 1527q-58 0 -95.5 39.5t-37.5 94.5q0 70 57 122.5t125 52.5q60 0 97.5 -38t37.5 -93q0 -70 -57 -124t-127 -54zM1411 1836q60 0 97.5 -38t37.5 -93q0 -70 -57 -124t-127 -54q-58 0 -95.5 39.5t-37.5 94.5q0 70 57 122.5t125 52.5zM766 1434h603l75 -1434h-425l-5 207 h-637l-138 -207h-459zM591 526h414l-13 505h-64z" glyph-name="Adieresis" unicode="Ä"/><glyph d="M1019 0l-5 207h-637l-138 -207h-459l986 1434h207q-94 51 -94 168.5t82.5 195.5t192.5 78q87 0 139 -53t52 -137q0 -82 -45.5 -151t-116.5 -101h186l75 -1434h-425zM1126 1696q-27 0 -45.5 -20.5t-18.5 -45.5q0 -15 11.5 -27t30.5 -12q27 0 45 20.5t18 47.5q0 15 -11 26 t-30 11zM591 526h414l-13 505h-64z" glyph-name="Aring" unicode="Å"/><glyph d="M2466 1091h-840l-73 -229h831l-90 -280h-831l-77 -239h838l-113 -343h-1266l77 239h-502l-184 -239h-456l1145 1434h1654zM664 556h362l167 519h-130z" glyph-name="AE" horiz-adv-x="2406" unicode="Æ"/><glyph d="M969 1111q-222 0 -369.5 -155.5t-147.5 -351.5q0 -135 84 -208t218 -73q265 0 410 233h415q-53 -140 -135 -248t-173.5 -174t-199.5 -108.5t-204 -58t-195 -15.5h-22l-22 -13q128 -32 128 -175q0 -101 -69 -164t-176.5 -72t-237.5 23l48 159q67 -22 140 -8.5t73 54.5 q0 17 -21 28t-64 13.5t-108 -10.5l29 94l125 87q-225 44 -347 193.5t-122 382.5q0 183 77.5 353.5t210.5 299.5t327 206.5t410 77.5q314 0 491.5 -175.5t124.5 -433.5h-411q-7 116 -85.5 177.5t-201.5 61.5z" glyph-name="Ccedilla" horiz-adv-x="1670" unicode="Ç"/><glyph d="M1140 1519h-392l-176 292h392zM1452 1091h-839l-74 -229h831l-90 -280h-831l-77 -239h838l-113 -343h-1266l464 1434h1270z" glyph-name="Egrave" horiz-adv-x="1394" unicode="È"/><glyph d="M1311 1811l-176 -292h-393l176 292h393zM1452 1091h-839l-74 -229h831l-90 -280h-831l-77 -239h838l-113 -343h-1266l464 1434h1270z" glyph-name="Eacute" horiz-adv-x="1394" unicode="É"/><glyph d="M940 1650l-121 -131h-389l300 292h548l137 -292h-357l-54 131h-64zM1452 1091h-839l-74 -229h831l-90 -280h-831l-77 -239h838l-113 -343h-1266l464 1434h1270z" glyph-name="Ecircumflex" horiz-adv-x="1394" unicode="Ê"/><glyph d="M695 1527q-58 0 -96 39.5t-38 94.5q0 70 57.5 122.5t125.5 52.5q60 0 97.5 -38t37.5 -93q0 -70 -57 -124t-127 -54zM1205 1527q-58 0 -95.5 39.5t-37.5 94.5q0 70 57 122.5t125 52.5q60 0 97.5 -38t37.5 -93q0 -70 -57 -124t-127 -54zM1452 1091h-839l-74 -229h831 l-90 -280h-831l-77 -239h838l-113 -343h-1266l464 1434h1270z" glyph-name="Edieresis" horiz-adv-x="1394" unicode="Ë"/><glyph d="M715 1519h-392l-176 292h392zM-169 0l464 1434h429l-463 -1434h-430z" glyph-name="Igrave" horiz-adv-x="556" unicode="Ì"/><glyph d="M317 1519l176 292h393l-176 -292h-393zM-169 0l464 1434h429l-463 -1434h-430z" glyph-name="Iacute" horiz-adv-x="556" unicode="Í"/><glyph d="M5 1519l300 292h548l137 -292h-357l-54 131h-64l-121 -131h-389zM-169 0l464 1434h429l-463 -1434h-430z" glyph-name="Icircumflex" horiz-adv-x="556" unicode="Î"/><glyph d="M270 1527q-58 0 -95.5 39.5t-37.5 94.5q0 70 57 122.5t125 52.5q60 0 97.5 -38t37.5 -93q0 -70 -57 -124t-127 -54zM780 1527q-58 0 -95.5 39.5t-37.5 94.5q0 70 57 122.5t125 52.5q60 0 97.5 -38t37.5 -93q0 -70 -57 -124t-127 -54zM-169 0l464 1434h429l-463 -1434 h-430z" glyph-name="Idieresis" horiz-adv-x="556" unicode="Ï"/><glyph d="M1065 1434q328 0 485 -141t157 -395q0 -273 -135 -479.5t-364.5 -312.5t-518.5 -106h-733l179 558h-169l102 312h169l181 564h647zM765 360q217 0 362.5 138.5t145.5 339.5q0 125 -80 180t-244 55h-217l-66 -203h230l-102 -312h-229l-65 -198h265z" glyph-name="Eth" horiz-adv-x="1733" unicode="Ð"/><glyph d="M1251 1468q-84 0 -189.5 52t-155.5 52q-43 0 -71.5 -19.5t-32.5 -54.5h-123q-19 137 55.5 206t183.5 69q82 0 188.5 -52t156.5 -52q43 0 71 19.5t33 54.5h123q19 -137 -54.5 -206t-184.5 -69zM-169 0l468 1434h476l276 -850h46l279 850h418l-466 -1434h-464l-291 841h-46 l-276 -841h-420z" glyph-name="Ntilde" horiz-adv-x="1626" unicode="Ñ"/><glyph d="M1292 1526h-393l-175 292h392zM672 -48q-307 0 -477.5 156.5t-170.5 430.5q0 183 77.5 355.5t210.5 301t322.5 207t401.5 78.5q307 0 477.5 -155t170.5 -430q0 -184 -77.5 -356.5t-210.5 -301.5t-322.5 -207.5t-401.5 -78.5zM742 323q218 0 366 157t152 348 q0 135 -83 209t-211 74q-218 0 -366 -157t-149 -348q0 -137 81.5 -210t209.5 -73z" glyph-name="Ograve" horiz-adv-x="1708" unicode="Ò"/><glyph d="M894 1526l176 292h393l-176 -292h-393zM672 -48q-307 0 -477.5 156.5t-170.5 430.5q0 183 77.5 355.5t210.5 301t322.5 207t401.5 78.5q307 0 477.5 -155t170.5 -430q0 -184 -77.5 -356.5t-210.5 -301.5t-322.5 -207.5t-401.5 -78.5zM742 323q218 0 366 157t152 348 q0 135 -83 209t-211 74q-218 0 -366 -157t-149 -348q0 -137 81.5 -210t209.5 -73z" glyph-name="Oacute" horiz-adv-x="1708" unicode="Ó"/><glyph d="M582 1526l300 292h548l137 -292h-357l-55 131h-63l-121 -131h-389zM672 -48q-307 0 -477.5 156.5t-170.5 430.5q0 183 77.5 355.5t210.5 301t322.5 207t401.5 78.5q307 0 477.5 -155t170.5 -430q0 -184 -77.5 -356.5t-210.5 -301.5t-322.5 -207.5t-401.5 -78.5zM742 323 q218 0 366 157t152 348q0 135 -83 209t-211 74q-218 0 -366 -157t-149 -348q0 -137 81.5 -210t209.5 -73z" glyph-name="Ocircumflex" horiz-adv-x="1708" unicode="Ô"/><glyph d="M1287 1475q-84 0 -189.5 52t-155.5 52q-43 0 -72 -20t-32 -54h-123q-19 137 55.5 206t183.5 69q82 0 188.5 -52t156.5 -52q43 0 71 19.5t33 53.5h123q19 -137 -54.5 -205.5t-184.5 -68.5zM672 -48q-307 0 -477.5 156.5t-170.5 430.5q0 183 77.5 355.5t210.5 301 t322.5 207t401.5 78.5q307 0 477.5 -155t170.5 -430q0 -184 -77.5 -356.5t-210.5 -301.5t-322.5 -207.5t-401.5 -78.5zM742 323q218 0 366 157t152 348q0 135 -83 209t-211 74q-218 0 -366 -157t-149 -348q0 -137 81.5 -210t209.5 -73z" glyph-name="Otilde" horiz-adv-x="1708" unicode="Õ"/><glyph d="M847 1534q-58 0 -96 39.5t-38 93.5q0 70 57.5 123t125.5 53q60 0 97.5 -38.5t37.5 -92.5q0 -70 -57 -124t-127 -54zM1357 1534q-58 0 -95.5 39.5t-37.5 93.5q0 70 57 123t125 53q60 0 97.5 -38.5t37.5 -92.5q0 -70 -57 -124t-127 -54zM672 -48q-307 0 -477.5 156.5 t-170.5 430.5q0 183 77.5 355.5t210.5 301t322.5 207t401.5 78.5q307 0 477.5 -155t170.5 -430q0 -184 -77.5 -356.5t-210.5 -301.5t-322.5 -207.5t-401.5 -78.5zM742 323q218 0 366 157t152 348q0 135 -83 209t-211 74q-218 0 -366 -157t-149 -348q0 -137 81.5 -210 t209.5 -73z" glyph-name="Odieresis" horiz-adv-x="1708" unicode="Ö"/><glyph d="M1159 957l-342 -257l164 -243l-305 -228l-164 242l-338 -256l-169 251l338 254l-174 260l305 227l175 -256l341 257z" glyph-name="multiply" horiz-adv-x="1165" unicode="×"/><glyph d="M1481 1353q203 -155 203 -457q0 -184 -77.5 -356.5t-210.5 -301.5t-322.5 -207.5t-401.5 -78.5q-135 0 -242 31l-53 -70h-264l123 160q-212 159 -212 466q0 183 77.5 355.5t210.5 301t322.5 207t401.5 78.5q140 0 253 -34l58 75h264zM451 606q0 -108 54 -181l522 681 q-31 5 -61 5q-218 0 -365.5 -157t-149.5 -348zM742 323q218 0 366 157t152 348q0 101 -50 172l-517 -674q34 -3 49 -3z" glyph-name="Oslash" horiz-adv-x="1708" unicode="Ø"/><glyph d="M1237 1519h-392l-176 292h393zM602 -48q-381 0 -527.5 175t-36.5 508l261 799h435l-275 -833q-46 -140 4.5 -216t200.5 -76q154 0 250 82t153 254l256 789h435l-275 -842q-113 -345 -321 -492.5t-560 -147.5z" glyph-name="Ugrave" horiz-adv-x="1588" unicode="Ù"/><glyph d="M840 1519l175 292h393l-176 -292h-392zM602 -48q-381 0 -527.5 175t-36.5 508l261 799h435l-275 -833q-46 -140 4.5 -216t200.5 -76q154 0 250 82t153 254l256 789h435l-275 -842q-113 -345 -321 -492.5t-560 -147.5z" glyph-name="Uacute" horiz-adv-x="1588" unicode="Ú"/><glyph d="M527 1519l301 292h548l136 -292h-357l-54 131h-63l-122 -131h-389zM602 -48q-381 0 -527.5 175t-36.5 508l261 799h435l-275 -833q-46 -140 4.5 -216t200.5 -76q154 0 250 82t153 254l256 789h435l-275 -842q-113 -345 -321 -492.5t-560 -147.5z" glyph-name="Ucircumflex" horiz-adv-x="1588" unicode="Û"/><glyph d="M792 1527q-58 0 -95.5 39.5t-37.5 94.5q0 70 57 122.5t125 52.5q60 0 97.5 -38t37.5 -93q0 -70 -57 -124t-127 -54zM1302 1527q-58 0 -95.5 39.5t-37.5 94.5q0 70 57 122.5t126 52.5q60 0 97.5 -38t37.5 -93q0 -70 -57.5 -124t-127.5 -54zM602 -48q-381 0 -527.5 175 t-36.5 508l261 799h435l-275 -833q-46 -140 4.5 -216t200.5 -76q154 0 250 82t153 254l256 789h435l-275 -842q-113 -345 -321 -492.5t-560 -147.5z" glyph-name="Udieresis" horiz-adv-x="1588" unicode="Ü"/><glyph d="M1405 1811l-176 -292h-393l176 292h393zM1818 1434l-900 -989l-143 -445h-429l151 471l-260 963h432l140 -564h38l496 564h475z" glyph-name="Yacute" horiz-adv-x="1607" unicode="Ý"/><glyph d="M930 1260q321 0 454 -150.5t41 -438.5q-166 -497 -807 -497h-297l-56 -174h-431l463 1434h428l-56 -174h261zM1015 763q27 75 -11 107.5t-140 32.5h-309l-120 -372h268q106 0 193 60.5t119 171.5z" glyph-name="Thorn" horiz-adv-x="1474" unicode="Þ"/><glyph d="M-169 0l323 990q44 138 123.5 235.5t184.5 149.5t216.5 74t246.5 22q288 0 419 -94.5t131 -244.5q0 -116 -72 -207.5t-202 -139.5l-10 -31q171 -84 171 -285q0 -232 -207.5 -350.5t-534.5 -118.5h-255l104 326h217q123 0 204 49.5t81 136.5q0 106 -164 106h-242l78 242 h171q102 0 171.5 37.5t69.5 106.5q0 104 -190 104q-246 0 -305 -183l-299 -925h-430z" glyph-name="germandbls" horiz-adv-x="1495" unicode="ß"/><glyph d="M1297 1519h-392l-176 292h392zM1019 0l-5 207h-637l-138 -207h-459l986 1434h603l75 -1434h-425zM591 526h414l-13 505h-64z" glyph-name="agrave" unicode="à"/><glyph d="M1468 1811l-176 -292h-393l176 292h393zM766 1434h603l75 -1434h-425l-5 207h-637l-138 -207h-459zM591 526h414l-13 505h-64z" glyph-name="aacute" unicode="á"/><glyph d="M1097 1650l-121 -131h-389l300 292h548l137 -292h-357l-54 131h-64zM766 1434h603l75 -1434h-425l-5 207h-637l-138 -207h-459zM591 526h414l-13 505h-64z" glyph-name="acircumflex" unicode="â"/><glyph d="M1531 1743q19 -137 -54.5 -206t-184.5 -69q-84 0 -189.5 52t-155.5 52q-43 0 -71.5 -19.5t-32.5 -54.5h-123q-19 137 55.5 206t183.5 69q82 0 188.5 -52t156.5 -52q43 0 71 19.5t33 54.5h123zM766 1434h603l75 -1434h-425l-5 207h-637l-138 -207h-459zM591 526h414 l-13 505h-64z" glyph-name="atilde" unicode="ã"/><glyph d="M852 1527q-58 0 -95.5 39.5t-37.5 94.5q0 70 57 122.5t125 52.5q60 0 97.5 -38t37.5 -93q0 -70 -57 -124t-127 -54zM1411 1836q60 0 97.5 -38t37.5 -93q0 -70 -57 -124t-127 -54q-58 0 -95.5 39.5t-37.5 94.5q0 70 57 122.5t125 52.5zM766 1434h603l75 -1434h-425l-5 207 h-637l-138 -207h-459zM591 526h414l-13 505h-64z" glyph-name="adieresis" unicode="ä"/><glyph d="M1019 0l-5 207h-637l-138 -207h-459l986 1434h207q-94 51 -94 168.5t82.5 195.5t192.5 78q87 0 139 -53t52 -137q0 -82 -45.5 -151t-116.5 -101h186l75 -1434h-425zM1126 1696q-27 0 -45.5 -20.5t-18.5 -45.5q0 -15 11.5 -27t30.5 -12q27 0 45 20.5t18 47.5q0 15 -11 26 t-30 11zM591 526h414l-13 505h-64z" glyph-name="aring" unicode="å"/><glyph d="M2466 1091h-840l-73 -229h831l-90 -280h-831l-77 -239h838l-113 -343h-1266l77 239h-502l-184 -239h-456l1145 1434h1654zM664 556h362l167 519h-130z" glyph-name="ae" horiz-adv-x="2406" unicode="æ"/><glyph d="M969 1111q-222 0 -369.5 -155.5t-147.5 -351.5q0 -135 84 -208t218 -73q265 0 410 233h415q-53 -140 -135 -248t-173.5 -174t-199.5 -108.5t-204 -58t-195 -15.5h-22l-22 -13q128 -32 128 -175q0 -101 -69 -164t-176.5 -72t-237.5 23l48 159q67 -22 140 -8.5t73 54.5 q0 17 -21 28t-64 13.5t-108 -10.5l29 94l125 87q-225 44 -347 193.5t-122 382.5q0 183 77.5 353.5t210.5 299.5t327 206.5t410 77.5q314 0 491.5 -175.5t124.5 -433.5h-411q-7 116 -85.5 177.5t-201.5 61.5z" glyph-name="ccedilla" horiz-adv-x="1670" unicode="ç"/><glyph d="M1140 1519h-392l-176 292h392zM1452 1091h-839l-74 -229h831l-90 -280h-831l-77 -239h838l-113 -343h-1266l464 1434h1270z" glyph-name="egrave" horiz-adv-x="1394" unicode="è"/><glyph d="M1311 1811l-176 -292h-393l176 292h393zM1452 1091h-839l-74 -229h831l-90 -280h-831l-77 -239h838l-113 -343h-1266l464 1434h1270z" glyph-name="eacute" horiz-adv-x="1394" unicode="é"/><glyph d="M940 1650l-121 -131h-389l300 292h548l137 -292h-357l-54 131h-64zM1452 1091h-839l-74 -229h831l-90 -280h-831l-77 -239h838l-113 -343h-1266l464 1434h1270z" glyph-name="ecircumflex" horiz-adv-x="1394" unicode="ê"/><glyph d="M695 1527q-58 0 -96 39.5t-38 94.5q0 70 57.5 122.5t125.5 52.5q60 0 97.5 -38t37.5 -93q0 -70 -57 -124t-127 -54zM1205 1527q-58 0 -95.5 39.5t-37.5 94.5q0 70 57 122.5t125 52.5q60 0 97.5 -38t37.5 -93q0 -70 -57 -124t-127 -54zM1452 1091h-839l-74 -229h831 l-90 -280h-831l-77 -239h838l-113 -343h-1266l464 1434h1270z" glyph-name="edieresis" horiz-adv-x="1394" unicode="ë"/><glyph d="M715 1519h-392l-176 292h392zM-169 0l464 1434h429l-463 -1434h-430z" glyph-name="igrave" horiz-adv-x="556" unicode="ì"/><glyph d="M317 1519l176 292h393l-176 -292h-393zM-169 0l464 1434h429l-463 -1434h-430z" glyph-name="iacute" horiz-adv-x="556" unicode="í"/><glyph d="M5 1519l300 292h548l137 -292h-357l-54 131h-64l-121 -131h-389zM-169 0l464 1434h429l-463 -1434h-430z" glyph-name="icircumflex" horiz-adv-x="556" unicode="î"/><glyph d="M270 1527q-58 0 -95.5 39.5t-37.5 94.5q0 70 57 122.5t125 52.5q60 0 97.5 -38t37.5 -93q0 -70 -57 -124t-127 -54zM780 1527q-58 0 -95.5 39.5t-37.5 94.5q0 70 57 122.5t125 52.5q60 0 97.5 -38t37.5 -93q0 -70 -57 -124t-127 -54zM-169 0l464 1434h429l-463 -1434 h-430z" glyph-name="idieresis" horiz-adv-x="556" unicode="ï"/><glyph d="M1065 1434q328 0 485 -141t157 -395q0 -273 -135 -479.5t-364.5 -312.5t-518.5 -106h-733l179 558h-169l102 312h169l181 564h647zM765 360q217 0 362.5 138.5t145.5 339.5q0 125 -80 180t-244 55h-217l-66 -203h230l-102 -312h-229l-65 -198h265z" glyph-name="eth" horiz-adv-x="1733" unicode="ð"/><glyph d="M1251 1468q-84 0 -189.5 52t-155.5 52q-43 0 -71.5 -19.5t-32.5 -54.5h-123q-19 137 55.5 206t183.5 69q82 0 188.5 -52t156.5 -52q43 0 71 19.5t33 54.5h123q19 -137 -54.5 -206t-184.5 -69zM-169 0l468 1434h476l276 -850h46l279 850h418l-466 -1434h-464l-291 841h-46 l-276 -841h-420z" glyph-name="ntilde" horiz-adv-x="1626" unicode="ñ"/><glyph d="M1292 1526h-393l-175 292h392zM672 -48q-307 0 -477.5 156.5t-170.5 430.5q0 183 77.5 355.5t210.5 301t322.5 207t401.5 78.5q307 0 477.5 -155t170.5 -430q0 -184 -77.5 -356.5t-210.5 -301.5t-322.5 -207.5t-401.5 -78.5zM742 323q218 0 366 157t152 348 q0 135 -83 209t-211 74q-218 0 -366 -157t-149 -348q0 -137 81.5 -210t209.5 -73z" glyph-name="ograve" horiz-adv-x="1708" unicode="ò"/><glyph d="M894 1526l176 292h393l-176 -292h-393zM672 -48q-307 0 -477.5 156.5t-170.5 430.5q0 183 77.5 355.5t210.5 301t322.5 207t401.5 78.5q307 0 477.5 -155t170.5 -430q0 -184 -77.5 -356.5t-210.5 -301.5t-322.5 -207.5t-401.5 -78.5zM742 323q218 0 366 157t152 348 q0 135 -83 209t-211 74q-218 0 -366 -157t-149 -348q0 -137 81.5 -210t209.5 -73z" glyph-name="oacute" horiz-adv-x="1708" unicode="ó"/><glyph d="M582 1526l300 292h548l137 -292h-357l-55 131h-63l-121 -131h-389zM672 -48q-307 0 -477.5 156.5t-170.5 430.5q0 183 77.5 355.5t210.5 301t322.5 207t401.5 78.5q307 0 477.5 -155t170.5 -430q0 -184 -77.5 -356.5t-210.5 -301.5t-322.5 -207.5t-401.5 -78.5zM742 323 q218 0 366 157t152 348q0 135 -83 209t-211 74q-218 0 -366 -157t-149 -348q0 -137 81.5 -210t209.5 -73z" glyph-name="ocircumflex" horiz-adv-x="1708" unicode="ô"/><glyph d="M1287 1475q-84 0 -189.5 52t-155.5 52q-43 0 -72 -20t-32 -54h-123q-19 137 55.5 206t183.5 69q82 0 188.5 -52t156.5 -52q43 0 71 19.5t33 53.5h123q19 -137 -54.5 -205.5t-184.5 -68.5zM672 -48q-307 0 -477.5 156.5t-170.5 430.5q0 183 77.5 355.5t210.5 301 t322.5 207t401.5 78.5q307 0 477.5 -155t170.5 -430q0 -184 -77.5 -356.5t-210.5 -301.5t-322.5 -207.5t-401.5 -78.5zM742 323q218 0 366 157t152 348q0 135 -83 209t-211 74q-218 0 -366 -157t-149 -348q0 -137 81.5 -210t209.5 -73z" glyph-name="otilde" horiz-adv-x="1708" unicode="õ"/><glyph d="M847 1534q-58 0 -96 39.5t-38 93.5q0 70 57.5 123t125.5 53q60 0 97.5 -38.5t37.5 -92.5q0 -70 -57 -124t-127 -54zM1357 1534q-58 0 -95.5 39.5t-37.5 93.5q0 70 57 123t125 53q60 0 97.5 -38.5t37.5 -92.5q0 -70 -57 -124t-127 -54zM672 -48q-307 0 -477.5 156.5 t-170.5 430.5q0 183 77.5 355.5t210.5 301t322.5 207t401.5 78.5q307 0 477.5 -155t170.5 -430q0 -184 -77.5 -356.5t-210.5 -301.5t-322.5 -207.5t-401.5 -78.5zM742 323q218 0 366 157t152 348q0 135 -83 209t-211 74q-218 0 -366 -157t-149 -348q0 -137 81.5 -210 t209.5 -73z" glyph-name="odieresis" horiz-adv-x="1708" unicode="ö"/><glyph d="M712 983q-72 0 -115.5 44.5t-43.5 115.5q0 90 64 153t153 63q72 0 116 -45.5t44 -115.5q0 -90 -64.5 -152.5t-153.5 -62.5zM39 568l94 299h1034l-94 -299h-1034zM420 70q-72 0 -115.5 44.5t-43.5 115.5q0 90 64 152.5t153 62.5q72 0 116 -45t44 -115q0 -90 -64.5 -152.5 t-153.5 -62.5z" glyph-name="divide" horiz-adv-x="1204" unicode="÷"/><glyph d="M1481 1353q203 -155 203 -457q0 -184 -77.5 -356.5t-210.5 -301.5t-322.5 -207.5t-401.5 -78.5q-135 0 -242 31l-53 -70h-264l123 160q-212 159 -212 466q0 183 77.5 355.5t210.5 301t322.5 207t401.5 78.5q140 0 253 -34l58 75h264zM451 606q0 -108 54 -181l522 681 q-31 5 -61 5q-218 0 -365.5 -157t-149.5 -348zM742 323q218 0 366 157t152 348q0 101 -50 172l-517 -674q34 -3 49 -3z" glyph-name="oslash" horiz-adv-x="1708" unicode="ø"/><glyph d="M1237 1519h-392l-176 292h393zM602 -48q-381 0 -527.5 175t-36.5 508l261 799h435l-275 -833q-46 -140 4.5 -216t200.5 -76q154 0 250 82t153 254l256 789h435l-275 -842q-113 -345 -321 -492.5t-560 -147.5z" glyph-name="ugrave" horiz-adv-x="1588" unicode="ù"/><glyph d="M840 1519l175 292h393l-176 -292h-392zM602 -48q-381 0 -527.5 175t-36.5 508l261 799h435l-275 -833q-46 -140 4.5 -216t200.5 -76q154 0 250 82t153 254l256 789h435l-275 -842q-113 -345 -321 -492.5t-560 -147.5z" glyph-name="uacute" horiz-adv-x="1588" unicode="ú"/><glyph d="M527 1519l301 292h548l136 -292h-357l-54 131h-63l-122 -131h-389zM602 -48q-381 0 -527.5 175t-36.5 508l261 799h435l-275 -833q-46 -140 4.5 -216t200.5 -76q154 0 250 82t153 254l256 789h435l-275 -842q-113 -345 -321 -492.5t-560 -147.5z" glyph-name="ucircumflex" horiz-adv-x="1588" unicode="û"/><glyph d="M792 1527q-58 0 -95.5 39.5t-37.5 94.5q0 70 57 122.5t125 52.5q60 0 97.5 -38t37.5 -93q0 -70 -57 -124t-127 -54zM1302 1527q-58 0 -95.5 39.5t-37.5 94.5q0 70 57 122.5t126 52.5q60 0 97.5 -38t37.5 -93q0 -70 -57.5 -124t-127.5 -54zM602 -48q-381 0 -527.5 175 t-36.5 508l261 799h435l-275 -833q-46 -140 4.5 -216t200.5 -76q154 0 250 82t153 254l256 789h435l-275 -842q-113 -345 -321 -492.5t-560 -147.5z" glyph-name="udieresis" horiz-adv-x="1588" unicode="ü"/><glyph d="M1405 1811l-176 -292h-393l176 292h393zM1818 1434l-900 -989l-143 -445h-429l151 471l-260 963h432l140 -564h38l496 564h475z" glyph-name="yacute" horiz-adv-x="1607" unicode="ý"/><glyph d="M930 1260q321 0 454 -150.5t41 -438.5q-166 -497 -807 -497h-297l-56 -174h-431l463 1434h428l-56 -174h261zM1015 763q27 75 -11 107.5t-140 32.5h-309l-120 -372h268q106 0 193 60.5t119 171.5z" glyph-name="thorn" horiz-adv-x="1474" unicode="þ"/><glyph d="M788 1527q-58 0 -95.5 39.5t-37.5 94.5q0 70 57.5 122.5t125.5 52.5q60 0 97.5 -38t37.5 -93q0 -70 -57.5 -124t-127.5 -54zM1299 1527q-58 0 -95.5 39.5t-37.5 94.5q0 70 57 122.5t125 52.5q60 0 97.5 -38t37.5 -93q0 -70 -57 -124t-127 -54zM1818 1434l-900 -989 l-143 -445h-429l151 471l-260 963h432l140 -564h38l496 564h475z" glyph-name="ydieresis" horiz-adv-x="1607" unicode="ÿ"/><glyph d="M843 1840h751l-102 -314h-751zM766 1434h603l75 -1434h-425l-5 207h-637l-138 -207h-459zM591 526h414l-13 505h-64z" glyph-name="Amacron" unicode="Ā"/><glyph d="M843 1840h751l-102 -314h-751zM766 1434h603l75 -1434h-425l-5 207h-637l-138 -207h-459zM591 526h414l-13 505h-64z" glyph-name="amacron" unicode="ā"/><glyph d="M1321 1811h246q-38 -162 -149 -227t-283 -65q-186 0 -272 66.5t-44 225.5h248q-20 -104 95 -104q56 0 100.5 26.5t58.5 77.5zM766 1434h603l75 -1434h-425l-5 207h-637l-138 -207h-459zM591 526h414l-13 505h-64z" glyph-name="Abreve" unicode="Ă"/><glyph d="M1321 1811h246q-38 -162 -149 -227t-283 -65q-186 0 -272 66.5t-44 225.5h248q-20 -104 95 -104q56 0 100.5 26.5t58.5 77.5zM766 1434h603l75 -1434h-425l-5 207h-637l-138 -207h-459zM591 526h414l-13 505h-64z" glyph-name="abreve" unicode="ă"/><glyph d="M1024 0q-77 0 -109.5 -29t-32.5 -67q0 -84 99 -81v-236q-49 0 -98.5 6t-103.5 24t-93 46t-65.5 75t-26.5 107q0 251 421 268l-1 94h-637l-138 -207h-459l986 1434h603l75 -1434h-420zM591 526h414l-13 505h-64z" glyph-name="Aogonek" unicode="Ą"/><glyph d="M1024 0q-77 0 -109.5 -29t-32.5 -67q0 -84 99 -81v-236q-49 0 -98.5 6t-103.5 24t-93 46t-65.5 75t-26.5 107q0 251 421 268l-1 94h-637l-138 -207h-459l986 1434h603l75 -1434h-420zM591 526h414l-13 505h-64z" glyph-name="aogonek" unicode="ą"/><glyph d="M927 1519l176 292h392l-176 -292h-392zM672 -48q-305 0 -475.5 157t-170.5 435q0 183 77.5 353.5t210.5 299.5t327 206.5t410 77.5q314 0 491.5 -175.5t124.5 -433.5h-411q-7 116 -85.5 177.5t-201.5 61.5q-222 0 -369.5 -155.5t-147.5 -351.5q0 -135 84 -208t218 -73 q265 0 410 233h415q-53 -140 -135 -248t-173.5 -174t-199.5 -108.5t-204 -58t-195 -15.5z" glyph-name="Cacute" horiz-adv-x="1670" unicode="Ć"/><glyph d="M927 1519l176 292h392l-176 -292h-392zM672 -48q-305 0 -475.5 157t-170.5 435q0 183 77.5 353.5t210.5 299.5t327 206.5t410 77.5q314 0 491.5 -175.5t124.5 -433.5h-411q-7 116 -85.5 177.5t-201.5 61.5q-222 0 -369.5 -155.5t-147.5 -351.5q0 -135 84 -208t218 -73 q265 0 410 233h415q-53 -140 -135 -248t-173.5 -174t-199.5 -108.5t-204 -58t-195 -15.5z" glyph-name="cacute" horiz-adv-x="1670" unicode="ć"/><glyph d="M1169 1527q-58 0 -95.5 39.5t-37.5 94.5q0 70 57 122.5t126 52.5q60 0 97 -38t37 -93q0 -70 -57 -124t-127 -54zM672 -48q-305 0 -475.5 157t-170.5 435q0 183 77.5 353.5t210.5 299.5t327 206.5t410 77.5q314 0 491.5 -175.5t124.5 -433.5h-411q-7 116 -85.5 177.5 t-201.5 61.5q-222 0 -369.5 -155.5t-147.5 -351.5q0 -135 84 -208t218 -73q265 0 410 233h415q-53 -140 -135 -248t-173.5 -174t-199.5 -108.5t-204 -58t-195 -15.5z" glyph-name="Cdotaccent" horiz-adv-x="1670" unicode="Ċ"/><glyph d="M1169 1527q-58 0 -95.5 39.5t-37.5 94.5q0 70 57 122.5t126 52.5q60 0 97 -38t37 -93q0 -70 -57 -124t-127 -54zM672 -48q-305 0 -475.5 157t-170.5 435q0 183 77.5 353.5t210.5 299.5t327 206.5t410 77.5q314 0 491.5 -175.5t124.5 -433.5h-411q-7 116 -85.5 177.5 t-201.5 61.5q-222 0 -369.5 -155.5t-147.5 -351.5q0 -135 84 -208t218 -73q265 0 410 233h415q-53 -140 -135 -248t-173.5 -174t-199.5 -108.5t-204 -58t-195 -15.5z" glyph-name="cdotaccent" horiz-adv-x="1670" unicode="ċ"/><glyph d="M969 1111q-222 0 -369.5 -155.5t-147.5 -351.5q0 -135 84 -208t218 -73q265 0 410 233h415q-53 -140 -135 -248t-173.5 -174t-199.5 -108.5t-204 -58t-195 -15.5q-305 0 -475.5 157t-170.5 435q0 227 113.5 429.5t320.5 337.5t465 164h-97l-137 291h357l55 -131h63 l121 131h389l-300 -291h-210q266 -32 407.5 -201.5t93.5 -401.5h-411q-7 116 -85.5 177.5t-201.5 61.5z" glyph-name="Ccaron" horiz-adv-x="1670" unicode="Č"/><glyph d="M969 1111q-222 0 -369.5 -155.5t-147.5 -351.5q0 -135 84 -208t218 -73q265 0 410 233h415q-53 -140 -135 -248t-173.5 -174t-199.5 -108.5t-204 -58t-195 -15.5q-305 0 -475.5 157t-170.5 435q0 227 113.5 429.5t320.5 337.5t465 164h-97l-137 291h357l55 -131h63 l121 131h389l-300 -291h-210q266 -32 407.5 -201.5t93.5 -401.5h-411q-7 116 -85.5 177.5t-201.5 61.5z" glyph-name="ccaron" horiz-adv-x="1670" unicode="č"/><glyph d="M1574 1766l-301 -291h-548l-136 291h356l55 -131h63l121 131h390zM-166 0l463 1434h647q328 0 484.5 -141t156.5 -395q0 -273 -134.5 -479.5t-364 -312.5t-518.5 -106h-734zM379 360h264q217 0 363 138.5t146 339.5q0 125 -80 180t-244 55h-217z" glyph-name="Dcaron" horiz-adv-x="1612" unicode="Ď"/><glyph d="M1574 1766l-301 -291h-548l-136 291h356l55 -131h63l121 131h390zM-166 0l463 1434h647q328 0 484.5 -141t156.5 -395q0 -273 -134.5 -479.5t-364 -312.5t-518.5 -106h-734zM379 360h264q217 0 363 138.5t146 339.5q0 125 -80 180t-244 55h-217z" glyph-name="dcaron" horiz-adv-x="1612" unicode="ď"/><glyph d="M1065 1434q328 0 485 -141t157 -395q0 -273 -135 -479.5t-364.5 -312.5t-518.5 -106h-733l179 558h-169l102 312h169l181 564h647zM765 360q217 0 362.5 138.5t145.5 339.5q0 125 -80 180t-244 55h-217l-66 -203h230l-102 -312h-229l-65 -198h265z" glyph-name="Dcroat" horiz-adv-x="1733" unicode="Đ"/><glyph d="M1065 1434q328 0 485 -141t157 -395q0 -273 -135 -479.5t-364.5 -312.5t-518.5 -106h-733l179 558h-169l102 312h169l181 564h647zM765 360q217 0 362.5 138.5t145.5 339.5q0 125 -80 180t-244 55h-217l-66 -203h230l-102 -312h-229l-65 -198h265z" glyph-name="dcroat" horiz-adv-x="1733" unicode="đ"/><glyph d="M1437 1840l-102 -314h-751l102 314h751zM1452 1091h-839l-74 -229h831l-90 -280h-831l-77 -239h838l-113 -343h-1266l464 1434h1270z" glyph-name="Emacron" horiz-adv-x="1394" unicode="Ē"/><glyph d="M1437 1840l-102 -314h-751l102 314h751zM1452 1091h-839l-74 -229h831l-90 -280h-831l-77 -239h838l-113 -343h-1266l464 1434h1270z" glyph-name="emacron" horiz-adv-x="1394" unicode="ē"/><glyph d="M985 1527q-58 0 -95.5 39.5t-37.5 94.5q0 70 57 122.5t125 52.5q60 0 97.5 -38t37.5 -93q0 -70 -57 -124t-127 -54zM1452 1091h-839l-74 -229h831l-90 -280h-831l-77 -239h838l-113 -343h-1266l464 1434h1270z" glyph-name="Edotaccent" horiz-adv-x="1394" unicode="Ė"/><glyph d="M985 1527q-58 0 -95.5 39.5t-37.5 94.5q0 70 57 122.5t125 52.5q60 0 97.5 -38t37.5 -93q0 -70 -57 -124t-127 -54zM1452 1091h-839l-74 -229h831l-90 -280h-831l-77 -239h838l-113 -343h-1266l464 1434h1270z" glyph-name="edotaccent" horiz-adv-x="1394" unicode="ė"/><glyph d="M1452 1091h-839l-74 -229h831l-90 -280h-831l-77 -239h838l-111 -338v-5q-77 0 -109.5 -29t-32.5 -67q0 -84 99 -81v-236q-49 0 -98.5 6t-103.5 24t-93 46t-65.5 75t-26.5 107q0 94 58 155h-896l464 1434h1270z" glyph-name="Eogonek" horiz-adv-x="1394" unicode="Ę"/><glyph d="M1452 1091h-839l-74 -229h831l-90 -280h-831l-77 -239h838l-111 -338v-5q-77 0 -109.5 -29t-32.5 -67q0 -84 99 -81v-236q-49 0 -98.5 6t-103.5 24t-93 46t-65.5 75t-26.5 107q0 94 58 155h-896l464 1434h1270z" glyph-name="eogonek" horiz-adv-x="1394" unicode="ę"/><glyph d="M1191 1475h-548l-136 291h357l54 -131h63l122 131h389zM1452 1091h-839l-74 -229h831l-90 -280h-831l-77 -239h838l-113 -343h-1266l464 1434h1270z" glyph-name="Ecaron" horiz-adv-x="1394" unicode="Ě"/><glyph d="M1191 1475h-548l-136 291h357l54 -131h63l122 131h389zM1452 1091h-839l-74 -229h831l-90 -280h-831l-77 -239h838l-113 -343h-1266l464 1434h1270z" glyph-name="ecaron" horiz-adv-x="1394" unicode="ě"/><glyph d="M1077 1519q-186 0 -272 66.5t-44 225.5h248q-20 -104 95 -104q56 0 100.5 26.5t58.5 77.5h246q-38 -162 -149 -227t-283 -65zM969 1111q-222 0 -369.5 -155.5t-147.5 -351.5q0 -135 84 -208t218 -73q48 0 97.5 8.5t110 31.5t114.5 72.5t88 119.5h-381l75 227h801 l-253 -782h-230l51 177q-97 -104 -244 -164.5t-323 -60.5q-299 0 -466.5 153t-167.5 429q0 186 77.5 359.5t210.5 303t326 207t411 77.5q294 0 471.5 -155t156.5 -386h-430q-27 80 -102.5 125.5t-177.5 45.5z" glyph-name="Gbreve" horiz-adv-x="1694" unicode="Ğ"/><glyph d="M1077 1519q-186 0 -272 66.5t-44 225.5h248q-20 -104 95 -104q56 0 100.5 26.5t58.5 77.5h246q-38 -162 -149 -227t-283 -65zM969 1111q-222 0 -369.5 -155.5t-147.5 -351.5q0 -135 84 -208t218 -73q48 0 97.5 8.5t110 31.5t114.5 72.5t88 119.5h-381l75 227h801 l-253 -782h-230l51 177q-97 -104 -244 -164.5t-323 -60.5q-299 0 -466.5 153t-167.5 429q0 186 77.5 359.5t210.5 303t326 207t411 77.5q294 0 471.5 -155t156.5 -386h-430q-27 80 -102.5 125.5t-177.5 45.5z" glyph-name="gbreve" horiz-adv-x="1694" unicode="ğ"/><glyph d="M1084 1527q-58 0 -95.5 39.5t-37.5 94.5q0 70 57 122.5t125 52.5q60 0 97.5 -38t37.5 -93q0 -70 -57 -124t-127 -54zM969 1111q-222 0 -369.5 -155.5t-147.5 -351.5q0 -135 84 -208t218 -73q48 0 97.5 8.5t110 31.5t114.5 72.5t88 119.5h-381l75 227h801l-253 -782h-230 l51 177q-97 -104 -244 -164.5t-323 -60.5q-299 0 -466.5 153t-167.5 429q0 186 77.5 359.5t210.5 303t326 207t411 77.5q294 0 471.5 -155t156.5 -386h-430q-27 80 -102.5 125.5t-177.5 45.5z" glyph-name="Gdotaccent" horiz-adv-x="1694" unicode="Ġ"/><glyph d="M1084 1527q-58 0 -95.5 39.5t-37.5 94.5q0 70 57 122.5t125 52.5q60 0 97.5 -38t37.5 -93q0 -70 -57 -124t-127 -54zM969 1111q-222 0 -369.5 -155.5t-147.5 -351.5q0 -135 84 -208t218 -73q48 0 97.5 8.5t110 31.5t114.5 72.5t88 119.5h-381l75 227h801l-253 -782h-230 l51 177q-97 -104 -244 -164.5t-323 -60.5q-299 0 -466.5 153t-167.5 429q0 186 77.5 359.5t210.5 303t326 207t411 77.5q294 0 471.5 -155t156.5 -386h-430q-27 80 -102.5 125.5t-177.5 45.5z" glyph-name="gdotaccent" horiz-adv-x="1694" unicode="ġ"/><glyph d="M969 1111q-222 0 -369.5 -155.5t-147.5 -351.5q0 -135 84 -208t218 -73q48 0 97.5 8.5t110 31.5t114.5 72.5t88 119.5h-381l75 227h801l-253 -782h-230l51 177q-97 -104 -244 -164.5t-323 -60.5q-299 0 -466.5 153t-167.5 429q0 186 77.5 359.5t210.5 303t326 207 t411 77.5q294 0 471.5 -155t156.5 -386h-430q-27 80 -102.5 125.5t-177.5 45.5zM345 -423l99 312h454v-2q-154 -459 -323 -665h-201q89 201 129 355h-158z" glyph-name="Gcommaaccent" horiz-adv-x="1694" unicode="Ģ"/><glyph d="M969 1111q-222 0 -369.5 -155.5t-147.5 -351.5q0 -135 84 -208t218 -73q48 0 97.5 8.5t110 31.5t114.5 72.5t88 119.5h-381l75 227h801l-253 -782h-230l51 177q-97 -104 -244 -164.5t-323 -60.5q-299 0 -466.5 153t-167.5 429q0 186 77.5 359.5t210.5 303t326 207 t411 77.5q294 0 471.5 -155t156.5 -386h-430q-27 80 -102.5 125.5t-177.5 45.5zM345 -423l99 312h454v-2q-154 -459 -323 -665h-201q89 201 129 355h-158z" glyph-name="gcommaaccent" horiz-adv-x="1694" unicode="ģ"/><glyph d="M1328 1434h428l-461 -1434h-428l167 522h-602l-167 -522h-431l463 1434h428l-47 -147h602zM548 879h602l34 111h-602z" glyph-name="Hbar" horiz-adv-x="1590" unicode="Ħ"/><glyph d="M1328 1434h428l-461 -1434h-428l167 522h-602l-167 -522h-431l463 1434h428l-47 -147h602zM548 879h602l34 111h-602z" glyph-name="hbar" horiz-adv-x="1590" unicode="ħ"/><glyph d="M159 1526l102 314h751l-102 -314h-751zM-169 0l464 1434h429l-463 -1434h-430z" glyph-name="Imacron" horiz-adv-x="556" unicode="Ī"/><glyph d="M159 1526l102 314h751l-102 -314h-751zM-169 0l464 1434h429l-463 -1434h-430z" glyph-name="imacron" horiz-adv-x="556" unicode="ī"/><glyph d="M261 0q-77 0 -109.5 -29t-32.5 -67q0 -84 99 -81v-236q-49 0 -98.5 6t-103.5 24t-93 46t-65.5 75t-26.5 107q0 94 58 155h-58l464 1434h429z" glyph-name="Iogonek" horiz-adv-x="556" unicode="Į"/><glyph d="M261 0q-77 0 -109.5 -29t-32.5 -67q0 -84 99 -81v-236q-49 0 -98.5 6t-103.5 24t-93 46t-65.5 75t-26.5 107q0 94 58 155h-58l464 1434h429z" glyph-name="iogonek" horiz-adv-x="556" unicode="į"/><glyph d="M560 1527q-58 0 -95.5 39.5t-37.5 94.5q0 70 57 122.5t125 52.5q60 0 97.5 -38t37.5 -93q0 -70 -57 -124t-127 -54zM-169 0l464 1434h429l-463 -1434h-430z" glyph-name="Idotaccent" horiz-adv-x="556" unicode="İ"/><glyph d="M-169 0l464 1434h429l-463 -1434h-430z" glyph-name="dotlessi" horiz-adv-x="556" unicode="ı"/><glyph d="M-169 0l464 1434h429l-463 -1434h-430zM1024 -48q-314 0 -446.5 147.5t-31.5 470.5h425q-79 -253 137 -253q212 0 297 256l276 861h428l-276 -861q-108 -343 -306.5 -482t-502.5 -139z" glyph-name="IJ" horiz-adv-x="1942" unicode="Ĳ"/><glyph d="M1770 1434l-778 -649l455 -785h-426l-332 572h-35l-280 -220l-115 -352h-428l468 1434h428l-177 -545h51l674 545h495zM234 -423l99 312h454v-2q-154 -459 -323 -665h-201q89 201 130 355h-159z" glyph-name="Kcommaaccent" horiz-adv-x="1633" unicode="Ķ"/><glyph d="M1770 1434l-778 -649l455 -785h-426l-332 572h-35l-280 -220l-115 -352h-428l468 1434h428l-177 -545h51l674 545h495zM234 -423l99 312h454v-2q-154 -459 -323 -665h-201q89 201 130 355h-159z" glyph-name="kcommaaccent" horiz-adv-x="1633" unicode="ķ"/><glyph d="M328 1502l175 292h393l-176 -292h-392zM-169 0l468 1434h428l-352 -1076h811l-116 -358h-1239z" glyph-name="Lacute" horiz-adv-x="1361" unicode="Ĺ"/><glyph d="M328 1502l175 292h393l-176 -292h-392zM-169 0l468 1434h428l-352 -1076h811l-116 -358h-1239z" glyph-name="lacute" horiz-adv-x="1361" unicode="ĺ"/><glyph d="M-169 0l468 1434h428l-352 -1076h811l-116 -358h-1239zM123 -778q89 201 130 355h-159l99 312h454v-2q-154 -459 -323 -665h-201z" glyph-name="Lcommaaccent" horiz-adv-x="1361" unicode="Ļ"/><glyph d="M-169 0l468 1434h428l-352 -1076h811l-116 -358h-1239zM123 -778q89 201 130 355h-159l99 312h454v-2q-154 -459 -323 -665h-201z" glyph-name="lcommaaccent" horiz-adv-x="1361" unicode="ļ"/><glyph d="M-169 0l468 1434h428l-352 -1076h811l-116 -358h-1239zM790 669q102 227 150 406h-182l114 359h519v-2q-176 -529 -369 -763h-232z" glyph-name="Lcaron" horiz-adv-x="1361" unicode="Ľ"/><glyph d="M-169 0l468 1434h428l-352 -1076h811l-116 -358h-1239zM790 669q102 227 150 406h-182l114 359h519v-2q-176 -529 -369 -763h-232z" glyph-name="lcaron" horiz-adv-x="1361" unicode="ľ"/><glyph d="M-169 0l468 1434h428l-352 -1076h811l-116 -358h-1239zM1058 686q-82 0 -132 51t-50 133q0 104 74 175t175 71q82 0 132 -51t50 -133q0 -104 -74 -175t-175 -71z" glyph-name="Ldot" horiz-adv-x="1361" unicode="Ŀ"/><glyph d="M432 358h810l-116 -358h-1239l108 328l-74 -43l26 312l167 99l241 738h428l-138 -425l244 145l-27 -314l-338 -200z" glyph-name="Lslash" horiz-adv-x="1418" unicode="Ł"/><glyph d="M432 358h810l-116 -358h-1239l108 328l-74 -43l26 312l167 99l241 738h428l-138 -425l244 145l-27 -314l-338 -200z" glyph-name="lslash" horiz-adv-x="1418" unicode="ł"/><glyph d="M858 1519l176 292h393l-176 -292h-393zM-169 0l468 1434h476l276 -850h46l279 850h418l-466 -1434h-464l-291 841h-46l-276 -841h-420z" glyph-name="Nacute" horiz-adv-x="1626" unicode="Ń"/><glyph d="M858 1519l176 292h393l-176 -292h-393zM-169 0l468 1434h476l276 -850h46l279 850h418l-466 -1434h-464l-291 841h-46l-276 -841h-420z" glyph-name="nacute" horiz-adv-x="1626" unicode="ń"/><glyph d="M-169 0l468 1434h476l276 -850h46l279 850h418l-466 -1434h-464l-291 841h-46l-276 -841h-420zM270 -778q89 201 129 355h-158l99 312h454v-2q-154 -459 -323 -665h-201z" glyph-name="Ncommaaccent" horiz-adv-x="1626" unicode="Ņ"/><glyph d="M-169 0l468 1434h476l276 -850h46l279 850h418l-466 -1434h-464l-291 841h-46l-276 -841h-420zM270 -778q89 201 129 355h-158l99 312h454v-2q-154 -459 -323 -665h-201z" glyph-name="ncommaaccent" horiz-adv-x="1626" unicode="ņ"/><glyph d="M1608 1766l-301 -291h-548l-136 291h357l54 -131h63l122 131h389zM-169 0l468 1434h476l276 -850h46l279 850h418l-466 -1434h-464l-291 841h-46l-276 -841h-420z" glyph-name="Ncaron" horiz-adv-x="1626" unicode="Ň"/><glyph d="M1608 1766l-301 -291h-548l-136 291h357l54 -131h63l122 131h389zM-169 0l468 1434h476l276 -850h46l279 850h418l-466 -1434h-464l-291 841h-46l-276 -841h-420z" glyph-name="ncaron" horiz-adv-x="1626" unicode="ň"/><glyph d="M1794 1434l-471 -1453q-84 -258 -278.5 -373t-498.5 -115l85 360q80 0 162.5 35t116.5 112h-46l-291 841h-46l-276 -841h-420l468 1434h476l276 -850h46l118 360l4 10l157 480h418z" glyph-name="Eng" horiz-adv-x="1626" unicode="Ŋ"/><glyph d="M1794 1434l-471 -1453q-84 -258 -278.5 -373t-498.5 -115l85 360q80 0 162.5 35t116.5 112h-46l-291 841h-46l-276 -841h-420l468 1434h476l276 -850h46l118 360l4 10l157 480h418z" glyph-name="eng" horiz-adv-x="1626" unicode="ŋ"/><glyph d="M736 1533l102 314h751l-102 -314h-751zM672 -48q-307 0 -477.5 156.5t-170.5 430.5q0 183 77.5 355.5t210.5 301t322.5 207t401.5 78.5q307 0 477.5 -155t170.5 -430q0 -184 -77.5 -356.5t-210.5 -301.5t-322.5 -207.5t-401.5 -78.5zM742 323q218 0 366 157t152 348 q0 135 -83 209t-211 74q-218 0 -366 -157t-149 -348q0 -137 81.5 -210t209.5 -73z" glyph-name="Omacron" horiz-adv-x="1708" unicode="Ō"/><glyph d="M736 1533l102 314h751l-102 -314h-751zM672 -48q-307 0 -477.5 156.5t-170.5 430.5q0 183 77.5 355.5t210.5 301t322.5 207t401.5 78.5q307 0 477.5 -155t170.5 -430q0 -184 -77.5 -356.5t-210.5 -301.5t-322.5 -207.5t-401.5 -78.5zM742 323q218 0 366 157t152 348 q0 135 -83 209t-211 74q-218 0 -366 -157t-149 -348q0 -137 81.5 -210t209.5 -73z" glyph-name="omacron" horiz-adv-x="1708" unicode="ō"/><glyph d="M674 1526l176 292h392l-175 -292h-393zM1157 1526l176 292h392l-175 -292h-393zM672 -48q-307 0 -477.5 156.5t-170.5 430.5q0 183 77.5 355.5t210.5 301t322.5 207t401.5 78.5q307 0 477.5 -155t170.5 -430q0 -184 -77.5 -356.5t-210.5 -301.5t-322.5 -207.5 t-401.5 -78.5zM742 323q218 0 366 157t152 348q0 135 -83 209t-211 74q-218 0 -366 -157t-149 -348q0 -137 81.5 -210t209.5 -73z" glyph-name="Ohungarumlaut" horiz-adv-x="1708" unicode="Ő"/><glyph d="M674 1526l176 292h392l-175 -292h-393zM1157 1526l176 292h392l-175 -292h-393zM672 -48q-307 0 -477.5 156.5t-170.5 430.5q0 183 77.5 355.5t210.5 301t322.5 207t401.5 78.5q307 0 477.5 -155t170.5 -430q0 -184 -77.5 -356.5t-210.5 -301.5t-322.5 -207.5 t-401.5 -78.5zM742 323q218 0 366 157t152 348q0 135 -83 209t-211 74q-218 0 -366 -157t-149 -348q0 -137 81.5 -210t209.5 -73z" glyph-name="ohungarumlaut" horiz-adv-x="1708" unicode="ő"/><glyph d="M2635 1091h-840l-73 -229h831l-90 -280h-831l-77 -239h838l-113 -343h-1266l3 9q-169 -56 -345 -57q-307 0 -477.5 156.5t-170.5 430.5q0 183 77.5 355.5t210.5 301t322.5 207t401.5 78.5q256 0 421 -111l21 64h1270zM451 606q0 -137 81.5 -210t209.5 -73q218 0 366 157 t152 348q0 135 -83 209t-211 74q-218 0 -365.5 -157t-149.5 -348z" glyph-name="OE" horiz-adv-x="2577" unicode="Œ"/><glyph d="M2635 1091h-840l-73 -229h831l-90 -280h-831l-77 -239h838l-113 -343h-1266l3 9q-169 -56 -345 -57q-307 0 -477.5 156.5t-170.5 430.5q0 183 77.5 355.5t210.5 301t322.5 207t401.5 78.5q256 0 421 -111l21 64h1270zM451 606q0 -137 81.5 -210t209.5 -73q218 0 366 157 t152 348q0 135 -83 209t-211 74q-218 0 -365.5 -157t-149.5 -348z" glyph-name="oe" horiz-adv-x="2577" unicode="œ"/><glyph d="M1372 1811l-176 -292h-392l176 292h392zM1553 1026q0 -186 -100.5 -329.5t-264.5 -225.5l111 -471h-412l-87 387h-411l-124 -387h-431l463 1434h732q524 0 524 -408zM611 1077l-119 -372l351 2q106 0 190.5 63t84.5 167q0 77 -44.5 108.5t-139.5 31.5h-323z" glyph-name="Racute" horiz-adv-x="1546" unicode="Ŕ"/><glyph d="M1372 1811l-176 -292h-392l176 292h392zM1553 1026q0 -186 -100.5 -329.5t-264.5 -225.5l111 -471h-412l-87 387h-411l-124 -387h-431l463 1434h732q524 0 524 -408zM611 1077l-119 -372l351 2q106 0 190.5 63t84.5 167q0 77 -44.5 108.5t-139.5 31.5h-323z" glyph-name="racute" horiz-adv-x="1546" unicode="ŕ"/><glyph d="M1553 1026q0 -186 -100.5 -329.5t-264.5 -225.5l111 -471h-412l-87 387h-411l-124 -387h-431l463 1434h732q524 0 524 -408zM611 1077l-119 -372l351 2q106 0 190.5 63t84.5 167q0 77 -44.5 108.5t-139.5 31.5h-323zM186 -423l99 312h454v-2q-154 -459 -323 -665h-201 q89 201 130 355h-159z" glyph-name="Rcommaaccent" horiz-adv-x="1546" unicode="Ŗ"/><glyph d="M1553 1026q0 -186 -100.5 -329.5t-264.5 -225.5l111 -471h-412l-87 387h-411l-124 -387h-431l463 1434h732q524 0 524 -408zM611 1077l-119 -372l351 2q106 0 190.5 63t84.5 167q0 77 -44.5 108.5t-139.5 31.5h-323zM186 -423l99 312h454v-2q-154 -459 -323 -665h-201 q89 201 130 355h-159z" glyph-name="rcommaaccent" horiz-adv-x="1546" unicode="ŗ"/><glyph d="M1253 1475h-548l-137 291h357l55 -131h63l121 131h389zM1029 1434q524 0 524 -408q0 -186 -100.5 -329.5t-264.5 -225.5l111 -471h-412l-87 387h-411l-124 -387h-431l463 1434h732zM611 1077l-119 -372l351 2q106 0 190.5 63t84.5 167q0 77 -44.5 108.5t-139.5 31.5h-323 z" glyph-name="Rcaron" horiz-adv-x="1546" unicode="Ř"/><glyph d="M1253 1475h-548l-137 291h357l55 -131h63l121 131h389zM1029 1434q524 0 524 -408q0 -186 -100.5 -329.5t-264.5 -225.5l111 -471h-412l-87 387h-411l-124 -387h-431l463 1434h732zM611 1077l-119 -372l351 2q106 0 190.5 63t84.5 167q0 77 -44.5 108.5t-139.5 31.5h-323 z" glyph-name="rcaron" horiz-adv-x="1546" unicode="ř"/><glyph d="M797 1519l176 292h392l-175 -292h-393zM544 -48q-352 0 -511 121.5t-69 389.5h365q-19 -92 58 -136t219 -44q148 0 246.5 41t98.5 123q0 48 -41 78.5t-145 49.5l-115 21q-46 9 -65.5 12t-73.5 15t-83.5 24t-76.5 32.5t-75.5 46t-57.5 58.5t-42.5 78.5t-13.5 96.5 q0 246 211 384t550 138q331 0 491.5 -135.5t58.5 -370.5h-352q14 77 -50 127t-207 50q-133 0 -213.5 -44.5t-80.5 -117.5q0 -89 155 -118l87 -17q24 -5 82 -16t93 -19t91.5 -23t91.5 -31.5t77.5 -43.5t66.5 -59.5t40 -78t16 -99.5q0 -143 -66.5 -249t-183 -166t-260.5 -89 t-316 -29z" glyph-name="Sacute" horiz-adv-x="1501" unicode="Ś"/><glyph d="M797 1519l176 292h392l-175 -292h-393zM544 -48q-352 0 -511 121.5t-69 389.5h365q-19 -92 58 -136t219 -44q148 0 246.5 41t98.5 123q0 48 -41 78.5t-145 49.5l-115 21q-46 9 -65.5 12t-73.5 15t-83.5 24t-76.5 32.5t-75.5 46t-57.5 58.5t-42.5 78.5t-13.5 96.5 q0 246 211 384t550 138q331 0 491.5 -135.5t58.5 -370.5h-352q14 77 -50 127t-207 50q-133 0 -213.5 -44.5t-80.5 -117.5q0 -89 155 -118l87 -17q24 -5 82 -16t93 -19t91.5 -23t91.5 -31.5t77.5 -43.5t66.5 -59.5t40 -78t16 -99.5q0 -143 -66.5 -249t-183 -166t-260.5 -89 t-316 -29z" glyph-name="sacute" horiz-adv-x="1501" unicode="ś"/><glyph d="M1473 975h-352q14 77 -50 127t-207 50q-133 0 -213.5 -44.5t-80.5 -117.5q0 -89 155 -118l87 -17q24 -5 82 -16t93 -19t91.5 -23t91.5 -31.5t77.5 -43.5t66.5 -59.5t40 -78t16 -99.5q0 -142 -64.5 -247t-180 -165.5t-256 -89.5t-311.5 -31l-22 -13q128 -32 128 -175 q0 -101 -69 -164t-176.5 -72t-237.5 23l48 159q67 -22 140 -8.5t73 54.5q0 17 -21.5 28t-64 13.5t-107.5 -10.5l29 94l111 78q-580 51 -425 504h365q-19 -92 58 -136t219 -44q148 0 246.5 41t98.5 123q0 48 -41 78.5t-145 49.5l-115 21q-46 9 -65.5 12t-73.5 15t-83.5 24 t-76.5 32.5t-75.5 46t-57.5 58.5t-42.5 78.5t-13.5 96.5q0 246 211 384t550 138q331 0 491.5 -135t58.5 -371z" glyph-name="Scedilla" horiz-adv-x="1501" unicode="Ş"/><glyph d="M1473 975h-352q14 77 -50 127t-207 50q-133 0 -213.5 -44.5t-80.5 -117.5q0 -89 155 -118l87 -17q24 -5 82 -16t93 -19t91.5 -23t91.5 -31.5t77.5 -43.5t66.5 -59.5t40 -78t16 -99.5q0 -142 -64.5 -247t-180 -165.5t-256 -89.5t-311.5 -31l-22 -13q128 -32 128 -175 q0 -101 -69 -164t-176.5 -72t-237.5 23l48 159q67 -22 140 -8.5t73 54.5q0 17 -21.5 28t-64 13.5t-107.5 -10.5l29 94l111 78q-580 51 -425 504h365q-19 -92 58 -136t219 -44q148 0 246.5 41t98.5 123q0 48 -41 78.5t-145 49.5l-115 21q-46 9 -65.5 12t-73.5 15t-83.5 24 t-76.5 32.5t-75.5 46t-57.5 58.5t-42.5 78.5t-13.5 96.5q0 246 211 384t550 138q331 0 491.5 -135t58.5 -371z" glyph-name="scedilla" horiz-adv-x="1501" unicode="ş"/><glyph d="M1060 1475q268 -27 386.5 -159t26.5 -341h-352q14 77 -50 127t-207 50q-133 0 -213.5 -44.5t-80.5 -117.5q0 -89 155 -118l87 -17q24 -5 82 -16t93 -19t91.5 -23t91.5 -31.5t77.5 -43.5t66.5 -59.5t40 -78t16 -99.5q0 -143 -66.5 -249t-183 -166t-260 -89t-316.5 -29 q-352 0 -511 121.5t-69 389.5h365q-19 -92 58 -136t219 -44q148 0 246.5 41t98.5 123q0 48 -41 78.5t-145 49.5l-115 21q-46 9 -65.5 12t-73.5 15t-83.5 24t-76.5 32.5t-75.5 46t-57.5 58.5t-42.5 78.5t-13.5 96.5q0 218 169 353t451 163h-84l-137 291h357l55 -131h63 l121 131h389l-300 -291h-186z" glyph-name="Scaron" horiz-adv-x="1501" unicode="Š"/><glyph d="M1060 1475q268 -27 386.5 -159t26.5 -341h-352q14 77 -50 127t-207 50q-133 0 -213.5 -44.5t-80.5 -117.5q0 -89 155 -118l87 -17q24 -5 82 -16t93 -19t91.5 -23t91.5 -31.5t77.5 -43.5t66.5 -59.5t40 -78t16 -99.5q0 -143 -66.5 -249t-183 -166t-260 -89t-316.5 -29 q-352 0 -511 121.5t-69 389.5h365q-19 -92 58 -136t219 -44q148 0 246.5 41t98.5 123q0 48 -41 78.5t-145 49.5l-115 21q-46 9 -65.5 12t-73.5 15t-83.5 24t-76.5 32.5t-75.5 46t-57.5 58.5t-42.5 78.5t-13.5 96.5q0 218 169 353t451 163h-84l-137 291h357l55 -131h63 l121 131h389l-300 -291h-186z" glyph-name="scaron" horiz-adv-x="1501" unicode="š"/><glyph d="M1754 1434l-116 -359h-513l-350 -1075h-103l-99 -61q128 -32 128 -175q0 -101 -69 -164t-176.5 -72t-237.5 23l48 159q67 -22 140.5 -8.5t73.5 54.5q0 17 -21.5 28t-64 13.5t-107.5 -10.5l29 94l170 119h-141l350 1075h-523l115 359h1467z" glyph-name="Tcommaaccent" horiz-adv-x="1578" unicode="Ţ"/><glyph d="M1754 1434l-116 -359h-513l-350 -1075h-103l-99 -61q128 -32 128 -175q0 -101 -69 -164t-176.5 -72t-237.5 23l48 159q67 -22 140.5 -8.5t73.5 54.5q0 17 -21.5 28t-64 13.5t-107.5 -10.5l29 94l170 119h-141l350 1075h-523l115 359h1467z" glyph-name="tcommaaccent" horiz-adv-x="1578" unicode="ţ"/><glyph d="M1283 1475h-547l-137 291h357l54 -131h63l122 131h389zM1754 1434l-116 -359h-513l-350 -1075h-430l350 1075h-523l115 359h1467z" glyph-name="Tcaron" horiz-adv-x="1578" unicode="Ť"/><glyph d="M1283 1475h-547l-137 291h357l54 -131h63l122 131h389zM1754 1434l-116 -359h-513l-350 -1075h-430l350 1075h-523l115 359h1467z" glyph-name="tcaron" horiz-adv-x="1578" unicode="ť"/><glyph d="M1638 1075h-513l-74 -227h384l-117 -353h-383l-160 -495h-430l160 495h-370l118 353h368l74 227h-523l115 359h1467z" glyph-name="Tbar" horiz-adv-x="1578" unicode="Ŧ"/><glyph d="M1638 1075h-513l-74 -227h384l-117 -353h-383l-160 -495h-430l160 495h-370l118 353h368l74 227h-523l115 359h1467z" glyph-name="tbar" horiz-adv-x="1578" unicode="ŧ"/><glyph d="M681 1526l102 314h751l-102 -314h-751zM602 -48q-381 0 -527.5 175t-36.5 508l261 799h435l-275 -833q-46 -140 4.5 -216t200.5 -76q154 0 250 82t153 254l256 789h435l-275 -842q-113 -345 -321 -492.5t-560 -147.5z" glyph-name="Umacron" horiz-adv-x="1588" unicode="Ū"/><glyph d="M681 1526l102 314h751l-102 -314h-751zM602 -48q-381 0 -527.5 175t-36.5 508l261 799h435l-275 -833q-46 -140 4.5 -216t200.5 -76q154 0 250 82t153 254l256 789h435l-275 -842q-113 -345 -321 -492.5t-560 -147.5z" glyph-name="umacron" horiz-adv-x="1588" unicode="ū"/><glyph d="M1075 1519q-186 0 -272 66.5t-44 225.5h248q-20 -104 96 -104q56 0 100.5 26.5t57.5 77.5h246q-38 -162 -149 -227t-283 -65zM602 -48q-381 0 -527.5 175t-36.5 508l261 799h435l-275 -833q-46 -140 4.5 -216t200.5 -76q154 0 250 82t153 254l256 789h435l-275 -842 q-113 -345 -321 -492.5t-560 -147.5z" glyph-name="Ubreve" horiz-adv-x="1588" unicode="Ŭ"/><glyph d="M1075 1519q-186 0 -272 66.5t-44 225.5h248q-20 -104 96 -104q56 0 100.5 26.5t57.5 77.5h246q-38 -162 -149 -227t-283 -65zM602 -48q-381 0 -527.5 175t-36.5 508l261 799h435l-275 -833q-46 -140 4.5 -216t200.5 -76q154 0 250 82t153 254l256 789h435l-275 -842 q-113 -345 -321 -492.5t-560 -147.5z" glyph-name="ubreve" horiz-adv-x="1588" unicode="ŭ"/><glyph d="M1014 1410q-89 0 -142 53.5t-53 139.5q0 118 83 195.5t192 77.5q87 0 139 -53t52 -137q0 -113 -79 -194.5t-192 -81.5zM1044 1591q27 0 45.5 20.5t18.5 47.5q0 15 -11.5 26t-29.5 11q-27 0 -46 -20.5t-19 -45.5q0 -15 11 -27t31 -12zM602 -48q-381 0 -527.5 175 t-36.5 508l261 799h435l-275 -833q-46 -140 4.5 -216t200.5 -76q154 0 250 82t153 254l256 789h435l-275 -842q-113 -345 -321 -492.5t-560 -147.5z" glyph-name="Uring" horiz-adv-x="1588" unicode="Ů"/><glyph d="M1014 1410q-89 0 -142 53.5t-53 139.5q0 118 83 195.5t192 77.5q87 0 139 -53t52 -137q0 -113 -79 -194.5t-192 -81.5zM1044 1591q27 0 45.5 20.5t18.5 47.5q0 15 -11.5 26t-29.5 11q-27 0 -46 -20.5t-19 -45.5q0 -15 11 -27t31 -12zM602 -48q-381 0 -527.5 175 t-36.5 508l261 799h435l-275 -833q-46 -140 4.5 -216t200.5 -76q154 0 250 82t153 254l256 789h435l-275 -842q-113 -345 -321 -492.5t-560 -147.5z" glyph-name="uring" horiz-adv-x="1588" unicode="ů"/><glyph d="M620 1519l175 292h393l-176 -292h-392zM1103 1519l175 292h393l-176 -292h-392zM602 -48q-381 0 -527.5 175t-36.5 508l261 799h435l-275 -833q-46 -140 4.5 -216t200.5 -76q154 0 250 82t153 254l256 789h435l-275 -842q-113 -345 -321 -492.5t-560 -147.5z" glyph-name="Uhungarumlaut" horiz-adv-x="1588" unicode="Ű"/><glyph d="M620 1519l175 292h393l-176 -292h-392zM1103 1519l175 292h393l-176 -292h-392zM602 -48q-381 0 -527.5 175t-36.5 508l261 799h435l-275 -833q-46 -140 4.5 -216t200.5 -76q154 0 250 82t153 254l256 789h435l-275 -842q-113 -345 -321 -492.5t-560 -147.5z" glyph-name="uhungarumlaut" horiz-adv-x="1588" unicode="ű"/><glyph d="M1323 1434h435l-275 -842q-97 -295 -261 -444.5t-427 -183.5v-2q-171 -15 -170 -75q0 -14 6 -26.5t29.5 -25t63.5 -12.5v-236q-65 0 -126.5 11t-124 37.5t-100 78.5t-37.5 124q0 82 53 131q-263 46 -353.5 215t2.5 451l261 799h435l-275 -833q-46 -140 4.5 -216 t200.5 -76q154 0 250 82t153 254z" glyph-name="Uogonek" horiz-adv-x="1588" unicode="Ų"/><glyph d="M1323 1434h435l-275 -842q-97 -295 -261 -444.5t-427 -183.5v-2q-171 -15 -170 -75q0 -14 6 -26.5t29.5 -25t63.5 -12.5v-236q-65 0 -126.5 11t-124 37.5t-100 78.5t-37.5 124q0 82 53 131q-263 46 -353.5 215t2.5 451l261 799h435l-275 -833q-46 -140 4.5 -216 t200.5 -76q154 0 250 82t153 254z" glyph-name="uogonek" horiz-adv-x="1588" unicode="ų"/><glyph d="M809 1519l300 292h548l137 -292h-357l-55 131h-63l-121 -131h-389zM89 0l170 1434h429l-137 -977h40l537 977h345l-84 -977h39l490 977h444l-754 -1434h-579l82 761h-38l-407 -761h-577z" glyph-name="Wcircumflex" horiz-adv-x="2165" unicode="Ŵ"/><glyph d="M809 1519l300 292h548l137 -292h-357l-55 131h-63l-121 -131h-389zM89 0l170 1434h429l-137 -977h40l537 977h345l-84 -977h39l490 977h444l-754 -1434h-579l82 761h-38l-407 -761h-577z" glyph-name="wcircumflex" horiz-adv-x="2165" unicode="ŵ"/><glyph d="M1034 1650l-121 -131h-389l300 292h548l137 -292h-357l-55 131h-63zM1818 1434l-900 -989l-143 -445h-429l151 471l-260 963h432l140 -564h38l496 564h475z" glyph-name="Ycircumflex" horiz-adv-x="1607" unicode="Ŷ"/><glyph d="M1034 1650l-121 -131h-389l300 292h548l137 -292h-357l-55 131h-63zM1818 1434l-900 -989l-143 -445h-429l151 471l-260 963h432l140 -564h38l496 564h475z" glyph-name="ycircumflex" horiz-adv-x="1607" unicode="ŷ"/><glyph d="M788 1527q-58 0 -95.5 39.5t-37.5 94.5q0 70 57.5 122.5t125.5 52.5q60 0 97.5 -38t37.5 -93q0 -70 -57.5 -124t-127.5 -54zM1299 1527q-58 0 -95.5 39.5t-37.5 94.5q0 70 57 122.5t125 52.5q60 0 97.5 -38t37.5 -93q0 -70 -57 -124t-127 -54zM1818 1434l-900 -989 l-143 -445h-429l151 471l-260 963h432l140 -564h38l496 564h475z" glyph-name="Ydieresis" horiz-adv-x="1607" unicode="Ÿ"/><glyph d="M758 1519l176 292h392l-176 -292h-392zM-183 0l113 352l983 692l14 35h-746l118 355h1319l-114 -352l-983 -693l-14 -34h747l-117 -355h-1320z" glyph-name="Zacute" horiz-adv-x="1431" unicode="Ź"/><glyph d="M758 1519l176 292h392l-176 -292h-392zM-183 0l113 352l983 692l14 35h-746l118 355h1319l-114 -352l-983 -693l-14 -34h747l-117 -355h-1320z" glyph-name="zacute" horiz-adv-x="1431" unicode="ź"/><glyph d="M1000 1527q-58 0 -95.5 39.5t-37.5 94.5q0 70 57 122.5t126 52.5q60 0 97 -38t37 -93q0 -70 -57 -124t-127 -54zM-183 0l113 352l983 692l14 35h-746l118 355h1319l-114 -352l-983 -693l-14 -34h747l-117 -355h-1320z" glyph-name="Zdotaccent" horiz-adv-x="1431" unicode="Ż"/><glyph d="M1000 1527q-58 0 -95.5 39.5t-37.5 94.5q0 70 57 122.5t126 52.5q60 0 97 -38t37 -93q0 -70 -57 -124t-127 -54zM-183 0l113 352l983 692l14 35h-746l118 355h1319l-114 -352l-983 -693l-14 -34h747l-117 -355h-1320z" glyph-name="zdotaccent" horiz-adv-x="1431" unicode="ż"/><glyph d="M1507 1766l-300 -291h-548l-137 291h357l55 -131h63l121 131h389zM-183 0l113 352l983 692l14 35h-746l118 355h1319l-114 -352l-983 -693l-14 -34h747l-117 -355h-1320z" glyph-name="Zcaron" horiz-adv-x="1431" unicode="Ž"/><glyph d="M1507 1766l-300 -291h-548l-137 291h357l55 -131h63l121 131h389zM-183 0l113 352l983 692l14 35h-746l118 355h1319l-114 -352l-983 -693l-14 -34h747l-117 -355h-1320z" glyph-name="zcaron" horiz-adv-x="1431" unicode="ž"/><glyph d="M1193 1195q-176 0 -232 -173l-27 -85h387l-108 -329h-385l-63 -198q-73 -222 -239 -329t-372 -107q-198 0 -289 67l101 311q121 -48 194 -48q176 0 233 170l42 134h-380l107 329h379l48 150q73 222 238.5 328.5t372.5 106.5q200 0 287 -66l-99 -311q-125 50 -195 50z" glyph-name="florin" horiz-adv-x="1332" unicode="ƒ"/><glyph d="M1348 1475h-548l-136 291h357l54 -131h63l122 131h389zM766 1434h603l75 -1434h-425l-5 207h-637l-138 -207h-459zM591 526h414l-13 505h-64z" glyph-name="uni01CD" unicode="Ǎ"/><glyph d="M1348 1475h-548l-136 291h357l54 -131h63l122 131h389zM766 1434h603l75 -1434h-425l-5 207h-637l-138 -207h-459zM591 526h414l-13 505h-64z" glyph-name="uni01CE" unicode="ǎ"/><glyph d="M1067 1766l-301 -291h-548l-136 291h357l54 -131h63l122 131h389zM-169 0l464 1434h429l-463 -1434h-430z" glyph-name="uni01CF" horiz-adv-x="556" unicode="Ǐ"/><glyph d="M1067 1766l-301 -291h-548l-136 291h357l54 -131h63l122 131h389zM-169 0l464 1434h429l-463 -1434h-430z" glyph-name="uni01D0" horiz-adv-x="556" unicode="ǐ"/><glyph d="M1644 1773l-301 -292h-548l-136 292h356l55 -131h63l121 131h390zM672 -48q-307 0 -477.5 156.5t-170.5 430.5q0 183 77.5 355.5t210.5 301t322.5 207t401.5 78.5q307 0 477.5 -155t170.5 -430q0 -184 -77.5 -356.5t-210.5 -301.5t-322.5 -207.5t-401.5 -78.5zM742 323 q218 0 366 157t152 348q0 135 -83 209t-211 74q-218 0 -366 -157t-149 -348q0 -137 81.5 -210t209.5 -73z" glyph-name="uni01D1" horiz-adv-x="1708" unicode="Ǒ"/><glyph d="M1644 1773l-301 -292h-548l-136 292h356l55 -131h63l121 131h390zM672 -48q-307 0 -477.5 156.5t-170.5 430.5q0 183 77.5 355.5t210.5 301t322.5 207t401.5 78.5q307 0 477.5 -155t170.5 -430q0 -184 -77.5 -356.5t-210.5 -301.5t-322.5 -207.5t-401.5 -78.5zM742 323 q218 0 366 157t152 348q0 135 -83 209t-211 74q-218 0 -366 -157t-149 -348q0 -137 81.5 -210t209.5 -73z" glyph-name="uni01D2" horiz-adv-x="1708" unicode="ǒ"/><glyph d="M1589 1766l-300 -291h-548l-137 291h357l54 -131h64l121 131h389zM602 -48q-381 0 -527.5 175t-36.5 508l261 799h435l-275 -833q-46 -140 4.5 -216t200.5 -76q154 0 250 82t153 254l256 789h435l-275 -842q-113 -345 -321 -492.5t-560 -147.5z" glyph-name="uni01D3" horiz-adv-x="1588" unicode="Ǔ"/><glyph d="M1589 1766l-300 -291h-548l-137 291h357l54 -131h64l121 131h389zM602 -48q-381 0 -527.5 175t-36.5 508l261 799h435l-275 -833q-46 -140 4.5 -216t200.5 -76q154 0 250 82t153 254l256 789h435l-275 -842q-113 -345 -321 -492.5t-560 -147.5z" glyph-name="uni01D4" horiz-adv-x="1588" unicode="ǔ"/><glyph d="M1684 896q0 -229 -115 -433.5t-321.5 -340.5t-459.5 -163q-17 -22 -17 -51q0 -84 99 -82v-236q-49 0 -98.5 6t-103.5 24t-93 46.5t-65.5 75t-26.5 106.5q0 68 29 116q-234 38 -361 188t-127 387q0 183 77.5 355.5t210.5 301t322.5 207t401.5 78.5q307 0 477.5 -155 t170.5 -430zM966 1111q-218 0 -366 -157t-149 -348q0 -137 81.5 -210t209.5 -73q218 0 366 157t152 348q0 135 -83 209t-211 74z" glyph-name="uni01EA" horiz-adv-x="1708" unicode="Ǫ"/><glyph d="M544 -48q-352 0 -511 121.5t-69 389.5h365q-19 -92 58 -136t219 -44q148 0 246.5 41t98.5 123q0 48 -41 78.5t-145 49.5l-115 21q-46 9 -65.5 12t-73.5 15t-83.5 24t-76.5 32.5t-75.5 46t-57.5 58.5t-42.5 78.5t-13.5 96.5q0 246 211 384t550 138q331 0 491.5 -135.5 t58.5 -370.5h-352q14 77 -50 127t-207 50q-133 0 -213.5 -44.5t-80.5 -117.5q0 -89 155 -118l87 -17q24 -5 82 -16t93 -19t91.5 -23t91.5 -31.5t77.5 -43.5t66.5 -59.5t40 -78t16 -99.5q0 -143 -66.5 -249t-183 -166t-260.5 -89t-316 -29zM208 -778q89 201 130 355h-159 l99 312h454v-2q-154 -459 -322 -665h-202z" glyph-name="Scommaaccent" horiz-adv-x="1501" unicode="Ș"/><glyph d="M544 -48q-352 0 -511 121.5t-69 389.5h365q-19 -92 58 -136t219 -44q148 0 246.5 41t98.5 123q0 48 -41 78.5t-145 49.5l-115 21q-46 9 -65.5 12t-73.5 15t-83.5 24t-76.5 32.5t-75.5 46t-57.5 58.5t-42.5 78.5t-13.5 96.5q0 246 211 384t550 138q331 0 491.5 -135.5 t58.5 -370.5h-352q14 77 -50 127t-207 50q-133 0 -213.5 -44.5t-80.5 -117.5q0 -89 155 -118l87 -17q24 -5 82 -16t93 -19t91.5 -23t91.5 -31.5t77.5 -43.5t66.5 -59.5t40 -78t16 -99.5q0 -143 -66.5 -249t-183 -166t-260.5 -89t-316 -29zM208 -778q89 201 130 355h-159 l99 312h454v-2q-154 -459 -322 -665h-202z" glyph-name="scommaaccent" horiz-adv-x="1501" unicode="ș"/><glyph d="M1754 1434l-116 -359h-513l-350 -1075h-430l350 1075h-523l115 359h1467zM217 -423l99 312h454v-2q-154 -459 -323 -665h-201q89 201 129 355h-158z" glyph-name="uni021A" horiz-adv-x="1578" unicode="Ț"/><glyph d="M1754 1434l-116 -359h-513l-350 -1075h-430l350 1075h-523l115 359h1467zM217 -423l99 312h454v-2q-154 -459 -323 -665h-201q89 201 129 355h-158z" glyph-name="uni021B" horiz-adv-x="1578" unicode="ț"/><glyph d="M143 1161l301 291h548l136 -291h-357l-54 131h-63l-122 -131h-389z" glyph-name="circumflex" horiz-adv-x="984" unicode="ˆ"/><glyph d="M1210 1408l-300 -292h-548l-137 292h357l55 -131h63l121 131h389z" glyph-name="caron" horiz-adv-x="984" unicode="ˇ"/><glyph d="M553 1161q-186 0 -272 66.5t-44 224.5h248q-20 -104 95 -104q56 0 100.5 26.5t58.5 77.5h246q-38 -162 -149 -226.5t-283 -64.5z" glyph-name="breve" horiz-adv-x="747" unicode="˘"/><glyph d="M331 1169q-58 0 -95.5 39.5t-37.5 93.5q0 70 57 123t126 53q60 0 97 -38.5t37 -92.5q0 -70 -57 -124t-127 -54z" glyph-name="dotaccent" horiz-adv-x="317" unicode="˙"/><glyph d="M381 1051q-89 0 -142 54t-53 139q0 118 83 195.5t192 77.5q87 0 139 -53t52 -136q0 -113 -79 -195t-192 -82zM411 1232q27 0 45 20.5t18 47.5q0 15 -11 26.5t-30 11.5q-27 0 -45.5 -20.5t-18.5 -46.5q0 -15 11.5 -27t30.5 -12z" glyph-name="ring" horiz-adv-x="467" unicode="˚"/><glyph d="M118 -413q-49 0 -99 6t-103.5 24t-93 46t-66 75t-26.5 107q0 256 430 268v-113q-77 0 -109 -29t-32 -67q0 -84 99 -81v-236z" glyph-name="ogonek" horiz-adv-x="484" unicode="˛"/><glyph d="M758 1157q-84 0 -189.5 52t-155.5 52q-43 0 -72 -19.5t-32 -53.5h-123q-19 137 55.5 206t183.5 69q82 0 188.5 -52t156.5 -52q43 0 71 19.5t33 53.5h123q19 -137 -54.5 -206t-184.5 -69z" glyph-name="tilde" horiz-adv-x="798" unicode="˜"/><glyph d="M143 1161l176 291h393l-176 -291h-393zM626 1161l176 291h393l-176 -291h-393z" glyph-name="hungarumlaut" horiz-adv-x="955" unicode="˝"/><glyph d="M-804 -778q89 201 130 355h-159l99 312h454v-2q-154 -459 -322 -665h-202z" glyph-name="uni0326" horiz-adv-x="0" unicode="̦"/><glyph d="M1355 1434l73 -1434h-1648l985 1434h590zM474 345h524l-18 686h-52z" glyph-name="Delta" horiz-adv-x="1648" unicode="Δ"/><glyph d="M-195 0l108 331h218l21 67q-84 109 -84 254q0 171 81 327t214.5 265t307.5 173t355 64q292 0 452 -131t160 -338q0 -169 -94.5 -327.5t-254.5 -273.5l-26 -80h205l-106 -331h-655l133 459q148 49 255.5 174.5t107.5 265.5q0 97 -64 154.5t-202 57.5q-184 0 -324 -131.5 t-140 -301.5q0 -143 123 -219l-133 -459h-658z" glyph-name="Omega" horiz-adv-x="1631" unicode="Ω"/><glyph d="M1029 1161h428l-375 -1161h-420l41 155h-36q-155 -181 -384 -181h-30l-76 -230h-430l461 1417h429l-219 -676q-36 -106 -1 -148t97 -42q101 0 184.5 65t113.5 133z" glyph-name="mu" horiz-adv-x="1377" unicode="μ"/><glyph d="M1451 853l-149 -450q-3 -15 -5.5 -25.5t0.5 -16.5t4 -9.5t10.5 -4.5t11 -1h15.5q32 0 69 8t45 6l-68 -314q-73 -60 -251 -60q-179 0 -257.5 91.5t-15.5 286.5l161 489h-337l-276 -853h-430l278 853h-145l97 308h1485l-97 -308h-145z" glyph-name="pi" horiz-adv-x="1664" unicode="π"/><glyph d="M1519 1519h-393l-175 292h392zM89 0l170 1434h429l-137 -977h40l537 977h345l-84 -977h39l490 977h444l-754 -1434h-579l82 761h-38l-407 -761h-577z" glyph-name="Wgrave" horiz-adv-x="2165" unicode="Ẁ"/><glyph d="M1519 1519h-393l-175 292h392zM89 0l170 1434h429l-137 -977h40l537 977h345l-84 -977h39l490 977h444l-754 -1434h-579l82 761h-38l-407 -761h-577z" glyph-name="wgrave" horiz-adv-x="2165" unicode="ẁ"/><glyph d="M1121 1519l176 292h393l-176 -292h-393zM89 0l170 1434h429l-137 -977h40l537 977h345l-84 -977h39l490 977h444l-754 -1434h-579l82 761h-38l-407 -761h-577z" glyph-name="Wacute" horiz-adv-x="2165" unicode="Ẃ"/><glyph d="M1121 1519l176 292h393l-176 -292h-393zM89 0l170 1434h429l-137 -977h40l537 977h345l-84 -977h39l490 977h444l-754 -1434h-579l82 761h-38l-407 -761h-577z" glyph-name="wacute" horiz-adv-x="2165" unicode="ẃ"/><glyph d="M1073 1527q-58 0 -95.5 39.5t-37.5 94.5q0 70 57.5 122.5t125.5 52.5q60 0 97.5 -38t37.5 -93q0 -70 -57.5 -124t-127.5 -54zM1584 1527q-58 0 -95.5 39.5t-37.5 94.5q0 70 57 122.5t125 52.5q60 0 97.5 -38t37.5 -93q0 -70 -57 -124t-127 -54zM89 0l170 1434h429 l-137 -977h40l537 977h345l-84 -977h39l490 977h444l-754 -1434h-579l82 761h-38l-407 -761h-577z" glyph-name="Wdieresis" horiz-adv-x="2165" unicode="Ẅ"/><glyph d="M1073 1527q-58 0 -95.5 39.5t-37.5 94.5q0 70 57.5 122.5t125.5 52.5q60 0 97.5 -38t37.5 -93q0 -70 -57.5 -124t-127.5 -54zM1584 1527q-58 0 -95.5 39.5t-37.5 94.5q0 70 57 122.5t125 52.5q60 0 97.5 -38t37.5 -93q0 -70 -57 -124t-127 -54zM89 0l170 1434h429 l-137 -977h40l537 977h345l-84 -977h39l490 977h444l-754 -1434h-579l82 761h-38l-407 -761h-577z" glyph-name="wdieresis" horiz-adv-x="2165" unicode="ẅ"/><glyph d="M1207 814q167 14 268.5 -67t101.5 -213q0 -261 -192 -416.5t-484 -155.5t-390 118t-25 318h354q-12 -73 29 -112.5t94 -39.5q87 0 152.5 58t65.5 138q0 58 -36.5 89.5t-94.5 31.5q-73 0 -130 -48h-359l509 560h-268q-82 0 -152 -55.5t-99 -154.5l-281 -865h-436l321 998 q44 133 100.5 219.5t138.5 133.5t175 65t228 18h1004z" glyph-name="uni1E9E" horiz-adv-x="1704" unicode="ẞ"/><glyph d="M1234 1519h-393l-175 292h392zM1818 1434l-900 -989l-143 -445h-429l151 471l-260 963h432l140 -564h38l496 564h475z" glyph-name="Ygrave" horiz-adv-x="1607" unicode="Ỳ"/><glyph d="M1234 1519h-393l-175 292h392zM1818 1434l-900 -989l-143 -445h-429l151 471l-260 963h432l140 -564h38l496 564h475z" glyph-name="ygrave" horiz-adv-x="1607" unicode="ỳ"/><glyph d="M2 512l116 357h1399l-116 -357h-1399z" glyph-name="endash" horiz-adv-x="1536" unicode="–"/><glyph d="M2 512l116 357h1536l-116 -357h-1536z" glyph-name="emdash" horiz-adv-x="1672" unicode="—"/><glyph d="M672 1439q-102 -227 -150 -406h183l-114 -359h-519v2q176 529 368 763h232z" glyph-name="quoteleft" horiz-adv-x="689" unicode="‘"/><glyph d="M234 669q102 227 150 406h-183l115 359h519v-2q-176 -529 -369 -763h-232z" glyph-name="quoteright" horiz-adv-x="687" unicode="’"/><glyph d="M-114 -406q102 227 150 406h-183l115 358h518v-1q-176 -529 -368 -763h-232z" glyph-name="quotesinglbase" horiz-adv-x="687" unicode="‚"/><glyph d="M616 1439q-92 -230 -135 -406h164l-102 -359h-464v2q160 531 329 763h208zM1176 1439q-92 -230 -135 -406h164l-102 -359h-465v2q160 531 330 763h208z" glyph-name="quotedblleft" horiz-adv-x="1199" unicode="“"/><glyph d="M244 669q92 230 135 406h-164l102 359h465v-2q-160 -531 -330 -763h-208zM804 669q92 230 135 406h-164l102 359h464v-2q-160 -531 -329 -763h-208z" glyph-name="quotedblright" horiz-adv-x="1198" unicode="”"/><glyph d="M-121 -457q92 230 135 406h-164l102 358h464v-2q-160 -531 -329 -762h-208zM439 -457q92 230 134 406h-163l102 358h464v-2q-160 -531 -329 -762h-208z" glyph-name="quotedblbase" horiz-adv-x="1203" unicode="„"/><glyph d="M1336 1195l-112 -347h-362l-116 -358h-377l117 358h-356l112 347h357l118 360h375l-117 -360h361z" glyph-name="dagger" horiz-adv-x="1268" unicode="†"/><glyph d="M1224 848h-362l-19 -58h2l-118 -360h362l-113 -346h-362l-116 -359h-377l118 359h-357l113 346h357l18 60h-1l117 358h-356l112 347h357l118 360h375l-117 -360h361z" glyph-name="daggerdbl" horiz-adv-x="1268" unicode="‡"/><glyph d="M435 379q-123 0 -195.5 74t-72.5 190q0 164 128 288t285 124q121 0 194.5 -74.5t73.5 -188.5q0 -166 -128 -289.5t-285 -123.5z" glyph-name="bullet" horiz-adv-x="1015" unicode="•"/><glyph d="M77 -27q-82 0 -132.5 51t-50.5 133q0 104 74.5 175t174.5 71q82 0 132.5 -51.5t50.5 -133.5q0 -104 -74 -174.5t-175 -70.5zM654 -27q-82 0 -132.5 51t-50.5 133q0 104 74.5 175t174.5 71q82 0 132.5 -51.5t50.5 -133.5q0 -104 -74 -174.5t-175 -70.5zM1229 -27 q-82 0 -132.5 51t-50.5 133q0 104 74.5 175t174.5 71q82 0 132.5 -51.5t50.5 -133.5q0 -104 -74 -174.5t-175 -70.5z" glyph-name="ellipsis" horiz-adv-x="1706" unicode="…"/><glyph d="M374 -51l-161 126l1381 1417l157 -125zM507 707q-142 0 -225.5 75t-83.5 210q0 181 140 321.5t336 140.5q138 0 223.5 -76t85.5 -211q0 -188 -138 -324t-338 -136zM556 957q63 0 111 47t48 109q0 92 -92 92q-63 0 -110 -48t-47 -107q0 -93 90 -93zM1294 -20 q-142 0 -225.5 75t-83.5 210q0 181 140.5 321.5t335.5 140.5q138 0 223.5 -76t85.5 -212q0 -186 -138 -322.5t-338 -136.5zM2133 -20q-143 0 -226.5 75t-83.5 210q0 181 140.5 321.5t335.5 140.5q140 0 225 -76t85 -212q0 -186 -138 -322.5t-338 -136.5zM1345 229 q61 0 109 47.5t48 107.5q0 94 -92 94q-61 0 -109 -48t-48 -107q0 -94 92 -94zM2183 229q63 0 111 47.5t48 107.5q0 94 -94 94q-63 0 -110 -48t-47 -107q0 -94 92 -94z" glyph-name="perthousand" horiz-adv-x="2807" unicode="‰"/><glyph d="M1055 1220l-494 -503l185 -504h-463l-181 504l495 503h458z" glyph-name="guilsinglleft" horiz-adv-x="1010" unicode="‹"/><glyph d="M-44 213l493 504l-184 503h462l181 -503l-495 -504h-457z" glyph-name="guilsinglright" horiz-adv-x="1010" unicode="›"/><glyph d="M1027 1111q-128 0 -233.5 -61.5t-173.5 -163.5h312l-48 -149h-331q-10 -32 -15 -70h322l-49 -150h-267q24 -94 98.5 -144t180.5 -50q253 0 390 233h395q-49 -140 -128 -248t-166 -174t-190 -108.5t-194.5 -58t-185.5 -15.5q-282 0 -444.5 150.5t-171.5 414.5h-154l50 150 h113q7 43 11 70h-100l49 149h99q108 263 352 429t558 166q299 0 468 -175.5t117 -433.5h-391q-7 116 -82 177.5t-191 61.5z" glyph-name="Euro" horiz-adv-x="1699" unicode="€"/><glyph d="M1575 737q-130 0 -205 72.5t-75 194.5q0 179 134 309.5t319 130.5q130 0 205 -73.5t75 -194.5q0 -177 -134.5 -308t-318.5 -131zM-169 0l466 1434h386l-14 -733h38l235 733h389l-464 -1434h-387l13 734h-37l-236 -734h-389zM1625 969q70 0 116 49t46 105q0 43 -25 64 t-66 21q-67 0 -114.5 -49.5t-47.5 -105.5q1 -84 91 -84zM1062 203l109 341h623l-110 -341h-622z" glyph-name="afii61352" horiz-adv-x="1937" unicode="№"/><glyph d="M1353 1434h277l-208 -644h-190l121 376h-17l-184 -376h-195l65 376h-27l-119 -376h-190l152 471h-181l-152 -471h-206l153 471h-220l56 173h879l-64 -444h27z" glyph-name="trademark" horiz-adv-x="1452" unicode="™"/><glyph d="M956 1471q230 0 352 -92t132.5 -257.5t-66.5 -397.5q-261 -761 -929 -762q-247 0 -372.5 90t-125.5 257q0 266 228.5 430t566.5 164q203 0 277 -60q128 307 -172 307q-96 0 -181.5 -36.5t-124.5 -109.5h-352q79 227 284 347t483 120zM553 282q138 0 238 69t100 170 q0 137 -198 136q-140 0 -239 -66.5t-99 -165.5q0 -68 51 -105.5t147 -37.5z" glyph-name="partialdiff" horiz-adv-x="1425" unicode="∂"/><glyph d="M1439 1536l-115 -358h-1l-466 -1434h-429l466 1434h-251l-466 -1434h-430l514 1577l70 215h1108z" glyph-name="product" horiz-adv-x="1237" unicode="∏"/><glyph d="M-246 -256l109 358l724 523l-358 553l107 358h1092l-114 -358h-631l351 -529l-3 -48l-686 -499h616l-114 -358h-1093z" glyph-name="summation" horiz-adv-x="1227" unicode="∑"/><glyph d="M27 539l118 357h1034l-117 -357h-1035z" glyph-name="minus" horiz-adv-x="1204" unicode="−"/><glyph d="M188 -256l36 720h-221l115 359h455l-37 -673h29l703 1386h353l-937 -1792h-496z" glyph-name="radical" horiz-adv-x="1440" unicode="√"/><glyph d="M1181 1080q220 0 220 -211q0 -195 -140.5 -355.5t-330.5 -160.5q-106 0 -163 51.5t-95 148.5q-104 -97 -196 -148.5t-198 -51.5q-225 0 -225 208q0 196 143.5 357.5t332.5 161.5q106 0 162.5 -51t93.5 -150q104 99 196 150t200 51zM335 672q0 -31 17.5 -50.5t48.5 -19.5 q72 0 213 118q-38 65 -65.5 90t-67.5 25q-56 0 -101 -53.5t-45 -109.5zM978 602q56 0 100.5 53t44.5 108q0 32 -17 52t-48 20q-68 0 -211 -115q34 -67 63.5 -92.5t67.5 -25.5z" glyph-name="infinity" horiz-adv-x="1457" unicode="∞"/><glyph d="M67 -256q-201 0 -289 65l101 312q125 -49 194 -49q176 0 232 172l272 843q38 118 102.5 204t147.5 135.5t172.5 72.5t188.5 23q198 0 287 -66l-101 -311q-125 49 -193 50q-177 0 -232 -173l-271 -843q-72 -222 -238 -328.5t-373 -106.5z" glyph-name="integral" horiz-adv-x="1307" unicode="∫"/><glyph d="M788 736q-73 2 -137 34t-120.5 64.5t-110.5 32.5q-118 0 -162 -102h-156q38 174 165 264.5t277 90.5q72 0 134.5 -32.5t118.5 -65t113 -34.5q121 5 165 103h154q-36 -172 -164.5 -262t-276.5 -93zM654 311q-73 2 -137.5 34t-120.5 64.5t-111 32.5q-118 0 -162 -102h-155 q38 174 164.5 264.5t277.5 90.5q72 0 134 -32.5t118.5 -65t112.5 -34.5q121 5 165 103h154q-36 -172 -164 -262t-276 -93z" glyph-name="approxequal" horiz-adv-x="1198" unicode="≈"/><glyph d="M1359 1415l-236 -294h128l-118 -358h-297l-73 -91h343l-118 -358h-512l-189 -235h-441l190 235h-82l118 358h251l73 91h-297l118 358h466l235 294h441z" glyph-name="notequal" horiz-adv-x="1204" unicode="≠"/><glyph d="M1036 474l-911 350l145 453l1145 355l-118 -366l-737 -191l-14 -42l606 -192zM-145 0l118 357h1034l-118 -357h-1034z" glyph-name="lessequal" horiz-adv-x="1208" unicode="≤"/><glyph d="M379 1625l891 -350l-142 -452l-1119 -355l114 365l722 191l13 43l-593 191zM-148 0l117 357h1035l-118 -357h-1034z" glyph-name="greaterequal" horiz-adv-x="1203" unicode="≥"/><glyph d="M203 0q-14 0 -24 17t-7 29l-87 671l526 715q3 5 5 6.5t3 0t4 -3t10 -1.5h432q14 0 24 -17.5t7 -28.5l87 -671l-524 -715q-7 -9 -10 -5q-5 3 -12 3h-434zM493 304l331 416l-47 410l-332 -417z" glyph-name="lozenge" horiz-adv-x="1268" unicode="◊"/><glyph d="M969 1111q-222 0 -369.5 -155.5t-147.5 -351.5q0 -135 84.5 -208t221.5 -73q44 0 93.5 8.5t112 30.5t118.5 72.5t90 120.5h-389l75 227h791q-48 -280 -188 -468.5t-341.5 -275t-457.5 -86.5q-299 0 -467.5 158t-168.5 434q0 183 77.5 353.5t210.5 299.5t327 206.5 t410 77.5q294 0 469.5 -155t152.5 -386h-429q-26 80 -99.5 125.5t-175.5 45.5z" glyph-name="G.aalt" horiz-adv-x="1696"/><glyph d="M560 1527q-58 0 -95.5 39.5t-37.5 94.5q0 70 57 122.5t125 52.5q60 0 97.5 -38t37.5 -93q0 -70 -57 -124t-127 -54zM-169 0l464 1434h429l-463 -1434h-430z" glyph-name="i.aalt" horiz-adv-x="556"/><glyph d="M969 1111q-222 0 -369.5 -155.5t-147.5 -351.5q0 -135 84.5 -208t221.5 -73q44 0 93.5 8.5t112 30.5t118.5 72.5t90 120.5h-389l75 227h791q-48 -280 -188 -468.5t-341.5 -275t-457.5 -86.5q-299 0 -467.5 158t-168.5 434q0 183 77.5 353.5t210.5 299.5t327 206.5 t410 77.5q294 0 469.5 -155t152.5 -386h-429q-26 80 -99.5 125.5t-175.5 45.5z" glyph-name="g.aalt" horiz-adv-x="1696"/></font>
</defs>
</svg>
