<?xml version="1.0" standalone="no"?>
<!DOCTYPE svg PUBLIC "-//W3C//DTD SVG 1.1//EN" "http://www.w3.org/Graphics/SVG/1.1/DTD/svg11.dtd">
<svg xmlns="http://www.w3.org/2000/svg"><metadata>This SVG WebFont was generated by YouWorkForThem.
Â© 2017 Connary Fagen</metadata><defs><font horiz-adv-x="1708" id="ywftsvg"><font-face ascent="1638" bbox="-561 -860 2877 1935" cap-height="1434" descent="-410" font-family="" font-stretch="normal" font-weight="900" panose-1="0 0 10 0 0 0 0 0 0 0" underline-position="0" underline-thickness="0" unicode-range="U+0020-25CA" units-per-em="2048" x-height="1434"/><missing-glyph d="M736 1536v-1792h-569v1792h569zM597 1417h-297v-60h118v-67h-119v-58h298v58h-119v67h119v60zM478 1184h-179v-186h298v62h-119v124zM418 1125v-65h-60v65h60zM597 951h-298v-60h119v-67h-119v-58h179v125h119v60zM597 843h-59v-119h-239v-60h298v179zM597 625h-179v-101 h60v41h60v-84h-180v144h-59v-203h298v203zM597 314h-298v-203h298v203zM538 254v-83h-180v83h180zM597 70h-298v-60h126l-126 -83v-60h298v60h-182l124 83h58v60z" horiz-adv-x="896"/><glyph d="M736 1536v-1792h-569v1792h569zM597 1417h-297v-60h118v-67h-119v-58h298v58h-119v67h119v60zM478 1184h-179v-186h298v62h-119v124zM418 1125v-65h-60v65h60zM597 951h-298v-60h119v-67h-119v-58h179v125h119v60zM597 843h-59v-119h-239v-60h298v179zM597 625h-179v-101 h60v41h60v-84h-180v144h-59v-203h298v203zM597 314h-298v-203h298v203zM538 254v-83h-180v83h180zM597 70h-298v-60h126l-126 -83v-60h298v60h-182l124 83h58v60z" glyph-name=".notdef" horiz-adv-x="896"/><glyph glyph-name="glyph1" horiz-adv-x="0"/><glyph glyph-name="glyph2" horiz-adv-x="682"/><glyph glyph-name="space" horiz-adv-x="452" unicode=" "/><glyph d="M148 573l-110 861h578l-109 -861h-359zM328 -27q-111 0 -191.5 79t-80.5 188.5t80.5 188t191.5 78.5t191 -78.5t80 -188t-80 -188.5t-191 -79z" glyph-name="exclam" horiz-adv-x="653" unicode="!"/><glyph d="M123 766l-38 668h482l-38 -668h-406zM662 766l-37 668h481l-38 -668h-406z" glyph-name="quotedbl" horiz-adv-x="1191" unicode="&quot;"/><glyph d="M1451 799h-183v-133h183v-403h-183v-263h-459v263h-125v-263h-457v263h-184v403h184v133h-184v372h184v263h457v-263h125v263h459v-263h183v-372zM809 666v133h-125v-133h125z" glyph-name="numbersign" horiz-adv-x="1493" unicode="#"/><glyph d="M1364 480q0 -193 -156.5 -294t-441.5 -114v-101h-155v101q-592 26 -594 466h493q0 -48 26.5 -67t74.5 -24v114q-218 31 -304 59q-278 89 -278 332q0 183 154.5 291.5t427.5 118.5v113h155v-116q118 -7 211 -31t174 -75.5t124.5 -143.5t38.5 -220h-481q0 85 -67 101v-126 q55 -3 79.5 -6t83.5 -10t90.5 -14.5t84.5 -23t84 -34t68.5 -47t58 -63.5t35 -82.5t14.5 -103.5zM539 944q0 -29 46 -48q12 -5 26 -9v108q-72 -8 -72 -51zM766 444q79 5 79 44q0 26 -79 44v-88z" glyph-name="dollar" horiz-adv-x="1385" unicode="$"/><glyph d="M696 -48l-225 150l918 1391l226 -150zM484.5 660q-206.5 0 -307 112t-100.5 286q0 172 100.5 284t307 112t306.5 -111.5t100 -284t-100 -285.5t-306.5 -113zM484.5 997q32.5 0 48 19.5t15.5 41.5q0 24 -14.5 42t-48.5 18t-48.5 -18t-14.5 -42q0 -22 15 -41.5t47.5 -19.5z M1599.5 -20q-206.5 0 -306.5 112.5t-100 286.5q0 172 100 284t306.5 112t307 -112t100.5 -284q0 -174 -100.5 -286.5t-307 -112.5zM1599.5 317q32.5 0 47.5 20t15 42q0 58 -63 58t-63 -58q0 -22 15.5 -42t48 -20z" glyph-name="percent" horiz-adv-x="2085" unicode="%"/><glyph d="M1761 276l-223 -320l-171 119q-230 -123 -560 -123q-362 0 -567.5 130t-205.5 355q0 271 289 391q-99 114 -99 239q0 164 170.5 284t477.5 120q317 0 498 -137.5t178 -435.5h-485q3 97 -49.5 131t-141.5 34q-135 0 -135 -59q0 -19 30 -43t180 -128l295 -203q29 75 26 141 h490q-5 -244 -106 -419zM865 382q20 0 55 4l-300 208q-24 -27 -24 -65q0 -77 76.5 -112t192.5 -35z" glyph-name="ampersand" horiz-adv-x="1795" unicode="&amp;"/><glyph d="M123 766l-38 668h482l-38 -668h-406z" glyph-name="quotesingle" horiz-adv-x="651" unicode="'"/><glyph d="M939 -247q-145 0 -267 23.5t-209.5 62t-158 99t-115 119.5t-77 138.5t-48.5 141t-25.5 141.5t-11 127t-1.5 112q0 63 1.5 110t11 127t25.5 141.5t48.5 140t77 137.5t115 119.5t158 99t209.5 62.5t267 24v-459q-106 0 -179.5 -26t-115.5 -66t-65 -110t-29.5 -135.5 t-6.5 -164.5q0 -101 6.5 -167.5t29.5 -136.5t65 -110t115.5 -65.5t179.5 -25.5v-459z" glyph-name="parenleft" horiz-adv-x="989" unicode="("/><glyph d="M51 -247v459q106 0 179.5 25.5t115 65.5t64.5 110t30 136.5t7 167.5q0 99 -7 164.5t-30 135.5t-64.5 110t-115 66t-179.5 26v459q145 0 267 -24t209 -62.5t158 -99t115.5 -119.5t77 -137.5t48.5 -140t25.5 -141.5t11 -127t1.5 -110q0 -65 -1.5 -112t-11 -127 t-25.5 -141.5t-48.5 -141t-77 -138.5t-115.5 -119.5t-158 -99t-209 -62t-267 -23.5z" glyph-name="parenright" horiz-adv-x="989" unicode=")"/><glyph d="M1072 1056l-225 -104l225 -104l-157 -273l-200 144l21 -248h-314l22 248l-202 -144l-157 273l226 104l-226 104l157 273l202 -141l-22 246h314l-21 -246l200 141z" glyph-name="asterisk" horiz-adv-x="1157" unicode="*"/><glyph d="M1403 939v-441h-427v-425h-466v425h-425v441h425v426h466v-426h427z" glyph-name="plus" horiz-adv-x="1488" unicode="+"/><glyph d="M227 -415q22 183 19 415h-203v468h638v-101q0 -305 -36 -509t-77 -273h-341z" glyph-name="comma" horiz-adv-x="723" unicode=","/><glyph d="M68 473v466h990v-466h-990z" glyph-name="hyphen" horiz-adv-x="1126" unicode="-"/><glyph d="M328 -27q-111 0 -191.5 79t-80.5 188.5t80.5 188t191.5 78.5t191 -78.5t80 -188t-80 -188.5t-191 -79z" glyph-name="period" horiz-adv-x="653" unicode="."/><glyph d="M17 0l662 1434h644l-663 -1434h-643z" glyph-name="slash" horiz-adv-x="1339" unicode="/"/><glyph d="M787 -38q-369 0 -565 197.5t-196 557.5q0 362 196 558t564.5 196t564 -196t195.5 -558q0 -360 -196 -557.5t-563 -197.5zM787 433q207 0 206 284q0 285 -206 285q-208 0 -208 -285q0 -284 208 -284z" glyph-name="zero" horiz-adv-x="1571" unicode="0"/><glyph d="M1026 422h310v-422h-1276v422h406v483q-114 -92 -367 -93v468q205 0 367 154h560v-1012z" glyph-name="one" horiz-adv-x="1396" unicode="1"/><glyph d="M1418 986q0 -130 -53 -220t-139 -138t-174.5 -78.5t-183.5 -62t-139 -65.5h688v-422h-1383v241q0 121 46 218t119.5 156t163 103.5t179 72.5t163 52t119.5 52t46 62q0 72 -117 72q-104 0 -139 -44q-22 -29 -20 -77h-546q0 563 681 563q328 0 508.5 -121.5t180.5 -363.5z " glyph-name="two" horiz-adv-x="1452" unicode="2"/><glyph d="M737 -38q-365 0 -535 127.5t-168 419.5h500q5 -65 50.5 -86.5t139.5 -21.5q193 0 192 72q0 65 -85 85q-38 10 -92 10h-96v306h96q55 0 94 7.5t57 17t27.5 24t9.5 18.5v13q0 79 -179 79q-90 0 -137.5 -24t-45.5 -89h-497q-2 288 169 419.5t516 131.5q338 0 508.5 -109 t170.5 -306q0 -113 -50.5 -181t-137.5 -114v-25q102 -34 165.5 -120.5t63.5 -216.5q0 -208 -194 -322.5t-542 -114.5z" glyph-name="three" horiz-adv-x="1506" unicode="3"/><glyph d="M1376 631h228v-421h-228v-210h-560v210h-765v421l668 803h657v-803zM524 631h292v350z" glyph-name="four" horiz-adv-x="1646" unicode="4"/><glyph d="M715.5 -38q-351.5 0 -515.5 131t-157 404h496q29 -101 171 -101q104 0 146.5 39t42.5 89q0 123 -175 123q-27 0 -51 -3.5t-41.5 -9.5t-30 -11t-23.5 -14.5t-16.5 -14.5t-12 -13.5t-8.5 -10.5h-486l177 864h1070v-419h-655l-34 -110q102 51 278 51q145 0 262.5 -48 t193.5 -155.5t76 -260.5q0 -251 -178 -390.5t-529.5 -139.5z" glyph-name="five" horiz-adv-x="1457" unicode="5"/><glyph d="M838 913q254 0 417 -110t163 -340q0 -232 -171.5 -366.5t-509.5 -134.5q-172 0 -302 45.5t-205.5 117t-122 175.5t-61.5 206t-15 224q0 200 57 347.5t160.5 231.5t229.5 123t281 39q305 0 473.5 -123.5t155.5 -374.5h-441q-17 87 -188 87q-92 0 -152.5 -39.5 t-50.5 -143.5q101 36 282 36zM730 370q94 0 140 31.5t46 76.5q0 46 -46.5 75t-139.5 29q-177 0 -177 -104q0 -44 42.5 -76t134.5 -32z" glyph-name="six" horiz-adv-x="1447" unicode="6"/><glyph d="M34 1434h1304v-449l-676 -985h-592l679 985h-715v449z" glyph-name="seven" horiz-adv-x="1363" unicode="7"/><glyph d="M756 -38q-203 0 -350.5 39.5t-225.5 107.5t-112 144t-34 167q0 242 242 370v31q-60 36 -96.5 106.5t-36.5 147.5q0 179 154 287.5t459.5 108.5t460.5 -108.5t155 -287.5q0 -75 -39 -146.5t-99 -107.5v-31q242 -128 242 -370q0 -90 -34 -166.5t-111.5 -144.5 t-224.5 -107.5t-350 -39.5zM756 922q125 0 125 85q0 90 -125 90q-126 0 -126 -90q0 -85 126 -85zM756 381q104 0 140 30.5t36 81.5q0 118 -176 118q-177 0 -177 -118q0 -51 35.5 -81.5t141.5 -30.5z" glyph-name="eight" horiz-adv-x="1510" unicode="8"/><glyph d="M710 1471q172 0 302 -45t206 -117t122 -176t61.5 -205.5t15.5 -224.5q0 -200 -57.5 -347.5t-160.5 -231t-229.5 -123t-281.5 -39.5q-305 0 -473.5 124t-154.5 375h440q17 -87 188 -87q92 0 152.5 39t50.5 143q-101 -36 -282 -35q-254 0 -417 110t-163 340 q0 232 171.5 366t509.5 134zM717 852q177 0 177 104q0 44 -42.5 75.5t-134.5 31.5q-94 0 -140 -31.5t-46 -75.5q0 -46 47 -75t139 -29z" glyph-name="nine" horiz-adv-x="1447" unicode="9"/><glyph d="M328 795q-111 0 -191.5 79.5t-80.5 188.5t80.5 187.5t191.5 78.5t191 -78.5t80 -187.5t-80 -188.5t-191 -79.5zM328 87q-111 0 -191.5 79.5t-80.5 188.5t80.5 187.5t191.5 78.5t191 -78.5t80 -187.5t-80 -188.5t-191 -79.5z" glyph-name="colon" horiz-adv-x="653" unicode=":"/><glyph d="M386 795q-111 0 -191.5 79.5t-80.5 188.5t80.5 187.5t191.5 78.5t191 -78.5t80 -187.5t-80 -188.5t-191 -79.5zM241 -285q22 183 18 415h-203v467h639v-100q0 -305 -36 -509.5t-77 -272.5h-341z" glyph-name="semicolon" horiz-adv-x="749" unicode=";"/><glyph d="M1190 72l-1105 317v647l1105 328v-478l-698 -149v-49l698 -149v-467z" glyph-name="less" horiz-adv-x="1274" unicode="&lt;"/><glyph d="M85 765v466h1147v-466h-1147zM85 207v465h1147v-465h-1147z" glyph-name="equal" horiz-adv-x="1317" unicode="="/><glyph d="M128 72v467l698 149v49l-698 149v478l1104 -328v-647z" glyph-name="greater" horiz-adv-x="1317" unicode=">"/><glyph d="M461 556q-14 89 8.5 150.5t66.5 89.5t98 49.5t102.5 31t81 30.5t32.5 54q0 29 -40 48.5t-100 19.5q-188 0 -188 -150h-505q-17 295 161.5 443.5t526.5 148.5q329 0 516 -108.5t187 -333.5q0 -90 -30 -155t-74 -95t-97 -55.5t-97.5 -41.5t-75 -48t-32.5 -78h-541z M730.5 -27q-110.5 0 -191 79t-80.5 188.5t80.5 188t191 78.5t191 -78.5t80.5 -188t-80.5 -188.5t-191 -79z" glyph-name="question" horiz-adv-x="1425" unicode="?"/><glyph d="M1545 340q-68 -167 -259.5 -277.5t-454.5 -110.5q-362 0 -583.5 213.5t-221.5 551.5t221.5 551t583.5 213q358 0 582 -212.5t224 -531.5q0 -125 -64 -182t-192 -57q-118 0 -163.5 47t-39.5 136l37 420h-150l-34 -74h-22q-58 58 -114.5 78t-133.5 20q-152 0 -260 -112 t-108 -301.5t109 -302t273 -112.5q181 0 264 133h24q34 -60 102.5 -96.5t162.5 -36.5q68 0 128.5 14.5t84.5 31.5zM787 928q80 0 127 -59.5t47 -160.5q0 -99 -47 -157t-127 -58q-82 0 -131.5 57.5t-49.5 158t49.5 160t131.5 59.5z" glyph-name="at" horiz-adv-x="1662" unicode="@"/><glyph d="M1224 0l-46 155h-552l-47 -155h-579l509 1434h785l508 -1434h-578zM751 567h302l-104 343h-94z" glyph-name="A" horiz-adv-x="1802" unicode="A"/><glyph d="M1398 730q102 -60 155 -136.5t53 -189.5q0 -184 -148.5 -294t-477.5 -110h-929v1434h966q160 0 274.5 -34.5t173.5 -93t84 -122.5t25 -140q0 -79 -29 -137.5t-60 -84t-87 -61.5v-31zM952 1009h-339v-147h339q36 0 57.5 16t25 29t3.5 27q-1 75 -86 75zM957 427q36 0 56 18 t23 31.5t3 25.5q0 14 -3 26.5t-23 29.5t-56 17h-344v-148h344z" glyph-name="B" horiz-adv-x="1640" unicode="B"/><glyph d="M845 -48q-372 0 -595.5 208.5t-223.5 556.5t223.5 556t595.5 208q118 0 222.5 -20.5t206.5 -70.5t176 -127t123.5 -197.5t59.5 -273.5h-532q-38 207 -256 206q-111 0 -186 -75.5t-75 -205.5t75 -206t186 -76q218 0 256 212h532q-12 -191 -82.5 -331t-184 -217 t-242.5 -112t-279 -35z" glyph-name="C" horiz-adv-x="1658" unicode="C"/><glyph d="M812 1434q802 0 802.5 -717t-802.5 -717h-761v1434h761zM814 469q237 0 237 248q0 249 -237 249h-200v-497h200z" glyph-name="D" horiz-adv-x="1648" unicode="D"/><glyph d="M51 0v1434h1348v-446h-786v-95h756v-354h-756v-94h786v-445h-1348z" glyph-name="E" horiz-adv-x="1450" unicode="E"/><glyph d="M51 0v1434h1345v-466h-783v-99h754v-398h-754v-471h-562z" glyph-name="F" horiz-adv-x="1447" unicode="F"/><glyph d="M1630 816v-816h-280l-9 164h-10q-176 -212 -519 -212q-222 0 -400 93t-282 269t-104 403q0 350 225 557t613 207q138 0 266 -35t236.5 -102t180 -181.5t86.5 -259.5h-556q-12 31 -66.5 63t-133.5 32q-133 0 -213 -75t-80 -206q0 -130 78.5 -206t195.5 -76q186 0 233 125 h-248v256h787z" glyph-name="G" horiz-adv-x="1689" unicode="G"/><glyph d="M1065 1434h561v-1434h-561v481h-452v-481h-562v1434h562v-482h452v482z" glyph-name="H" horiz-adv-x="1677" unicode="H"/><glyph d="M51 0v1434h562v-1434h-562z" glyph-name="I" horiz-adv-x="663" unicode="I"/><glyph d="M715 -48q-160 0 -278 28.5t-213.5 96.5t-144 196t-45.5 312h560q-2 -55 11 -89.5t37 -48.5t41.5 -17t43.5 -3q12 0 16.5 0.5t25.5 4t33 16.5t28.5 32.5t24 57t7.5 87.5v809h560v-780q0 -198 -47 -336.5t-141 -218t-219.5 -113.5t-299.5 -34z" glyph-name="J" horiz-adv-x="1472" unicode="J"/><glyph d="M1702 0h-569l-329 457h-31l-162 -175v-282h-560v1434h560v-489h34l427 489h619l-573 -639z" glyph-name="K" horiz-adv-x="1687" unicode="K"/><glyph d="M51 0v1434h562v-966h723v-468h-1285z" glyph-name="L" horiz-adv-x="1396" unicode="L"/><glyph d="M51 0v1434h703l152 -692h41l152 692h703v-1434h-534v483h-43l-93 -483h-410l-94 483h-43v-483h-534z" glyph-name="M" horiz-adv-x="1853" unicode="M"/><glyph d="M51 0v1434h642l350 -649h49v649h546v-1434h-626l-363 649h-52v-649h-546z" glyph-name="N" horiz-adv-x="1689" unicode="N"/><glyph d="M855 -48q-382 0 -605.5 207.5t-223.5 557.5t223.5 557t605.5 207q381 0 604.5 -207t223.5 -557t-223.5 -557.5t-604.5 -207.5zM855 435q114 0 192.5 73.5t78.5 208.5q0 137 -78.5 209t-192.5 72q-116 0 -193.5 -72.5t-77.5 -208.5q0 -135 78.5 -208.5t192.5 -73.5z" glyph-name="O" unicode="O"/><glyph d="M51 0v1434h857q645 0 645 -582q0 -584 -642 -584h-298v-268h-562zM613 732h242q60 0 95.5 31t35.5 89t-35 87.5t-93 29.5h-245v-237z" glyph-name="P" horiz-adv-x="1587" unicode="P"/><glyph d="M1683 739q0 -266 -198 -464l186 -190q-126 -162 -311 -317l-251 227q-131 -43 -254 -43q-382 0 -605.5 207.5t-223.5 557.5t223.5 557t605.5 207q379 0 603.5 -203.5t224.5 -538.5zM584 717q0 -135 78.5 -208.5t192.5 -73.5t192.5 73.5t78.5 208.5q0 137 -78.5 209 t-192.5 72q-116 0 -193.5 -72t-77.5 -209z" glyph-name="Q" unicode="Q"/><glyph d="M1618 0h-550l-167 333h-288v-333h-562v1434h867q314 0 479 -136.5t165 -433.5q0 -256 -186 -405zM613 969v-221h263q123 0 122.5 110.5t-122.5 110.5h-263z" glyph-name="R" horiz-adv-x="1646" unicode="R"/><glyph d="M768 -48q-406 2 -585.5 130t-165.5 421h504q0 -114 247 -116q108 -2 160 18t52 51v5v5t-1 7t-2.5 8.5t-5 8.5t-9.5 9t-14 8.5t-19 8t-25.5 7t-31.5 4.5l-189 29q-26 3 -83 11t-88 13t-85.5 15.5t-86 20.5t-77 29t-71.5 41t-57 53.5t-48 69.5t-28 88t-11 110 q0 225 181.5 349.5t541.5 124.5q176 0 302.5 -23.5t229 -82.5t151 -169t43.5 -272h-500q-22 114 -238 114q-172 0 -172 -70q0 -9 1 -14t7 -18.5t24.5 -22t47.5 -12.5l150 -24q41 -7 114.5 -16t123 -15t118 -21.5t115.5 -33.5t98 -51t81.5 -75t50.5 -104t20 -139 q0 -247 -189.5 -365t-580.5 -115z" glyph-name="S" horiz-adv-x="1559" unicode="S"/><glyph d="M1606 1434v-466h-502v-968h-560v968h-501v466h1563z" glyph-name="T" horiz-adv-x="1648" unicode="T"/><glyph d="M827.5 -48q-397.5 0 -587 166.5t-189.5 524.5v791h565v-777q0 -236 212 -235q217 0 216 235v777h560v-785q0 -362 -189.5 -529.5t-587 -167.5z" glyph-name="U" horiz-adv-x="1655" unicode="U"/><glyph d="M509 0l-509 1434h579l295 -908h56l294 908h578l-508 -1434h-785z" glyph-name="V" horiz-adv-x="1802" unicode="V"/><glyph d="M280 0l-249 1434h570l104 -833h48l158 833h436l158 -833h48l104 833h570l-249 -1434h-758l-68 546h-46l-68 -546h-758z" glyph-name="W" horiz-adv-x="2257" unicode="W"/><glyph d="M-9 0l485 715v27l-473 692h601l198 -326h53l200 326h599l-468 -692v-27l480 -715h-606l-205 346h-53l-205 -346h-606z" glyph-name="X" horiz-adv-x="1657" unicode="X"/><glyph d="M1717 1434l-584 -999v-435h-560v440l-582 994h588l256 -471h39l258 471h585z" glyph-name="Y" unicode="Y"/><glyph d="M26 0v451l662 474v43h-649v466h1383v-449l-674 -476v-41h663v-468h-1385z" glyph-name="Z" horiz-adv-x="1447" unicode="Z"/><glyph d="M51 -230v1894h900v-466h-338v-961h338v-467h-900z" glyph-name="bracketleft" horiz-adv-x="1001" unicode="["/><glyph d="M1323 0h-644l-662 1434h643z" glyph-name="backslash" horiz-adv-x="1339" unicode="\"/><glyph d="M951 -230h-900v467h338v961h-338v466h900v-1894z" glyph-name="bracketright" horiz-adv-x="1001" unicode="]"/><glyph d="M60 387l317 1105h647l328 -1105h-478l-149 698h-49l-149 -698h-467z" glyph-name="asciicircum" horiz-adv-x="1411" unicode="^"/><glyph d="M85 -468v468h1067v-468h-1067z" glyph-name="underscore" horiz-adv-x="1237" unicode="_"/><glyph d="M618 1161h-493l-125 312h493z" glyph-name="grave" horiz-adv-x="617" unicode="`"/><glyph d="M1224 0l-46 155h-552l-47 -155h-579l509 1434h785l508 -1434h-578zM751 567h302l-104 343h-94z" glyph-name="a" horiz-adv-x="1802" unicode="a"/><glyph d="M1398 730q102 -60 155 -136.5t53 -189.5q0 -184 -148.5 -294t-477.5 -110h-929v1434h966q160 0 274.5 -34.5t173.5 -93t84 -122.5t25 -140q0 -79 -29 -137.5t-60 -84t-87 -61.5v-31zM952 1009h-339v-147h339q36 0 57.5 16t25 29t3.5 27q-1 75 -86 75zM957 427q36 0 56 18 t23 31.5t3 25.5q0 14 -3 26.5t-23 29.5t-56 17h-344v-148h344z" glyph-name="b" horiz-adv-x="1640" unicode="b"/><glyph d="M845 -48q-372 0 -595.5 208.5t-223.5 556.5t223.5 556t595.5 208q118 0 222.5 -20.5t206.5 -70.5t176 -127t123.5 -197.5t59.5 -273.5h-532q-38 207 -256 206q-111 0 -186 -75.5t-75 -205.5t75 -206t186 -76q218 0 256 212h532q-12 -191 -82.5 -331t-184 -217 t-242.5 -112t-279 -35z" glyph-name="c" horiz-adv-x="1658" unicode="c"/><glyph d="M812 1434q802 0 802.5 -717t-802.5 -717h-761v1434h761zM814 469q237 0 237 248q0 249 -237 249h-200v-497h200z" glyph-name="d" horiz-adv-x="1648" unicode="d"/><glyph d="M51 0v1434h1348v-446h-786v-95h756v-354h-756v-94h786v-445h-1348z" glyph-name="e" horiz-adv-x="1450" unicode="e"/><glyph d="M51 0v1434h1345v-466h-783v-99h754v-398h-754v-471h-562z" glyph-name="f" horiz-adv-x="1447" unicode="f"/><glyph d="M1630 816v-816h-280l-9 164h-10q-176 -212 -519 -212q-222 0 -400 93t-282 269t-104 403q0 350 225 557t613 207q138 0 266 -35t236.5 -102t180 -181.5t86.5 -259.5h-556q-12 31 -66.5 63t-133.5 32q-133 0 -213 -75t-80 -206q0 -130 78.5 -206t195.5 -76q186 0 233 125 h-248v256h787z" glyph-name="g" horiz-adv-x="1689" unicode="g"/><glyph d="M1065 1434h561v-1434h-561v481h-452v-481h-562v1434h562v-482h452v482z" glyph-name="h" horiz-adv-x="1677" unicode="h"/><glyph d="M51 0v1434h562v-1434h-562z" glyph-name="i" horiz-adv-x="663" unicode="i"/><glyph d="M715 -48q-160 0 -278 28.5t-213.5 96.5t-144 196t-45.5 312h560q-2 -55 11 -89.5t37 -48.5t41.5 -17t43.5 -3q12 0 16.5 0.5t25.5 4t33 16.5t28.5 32.5t24 57t7.5 87.5v809h560v-780q0 -198 -47 -336.5t-141 -218t-219.5 -113.5t-299.5 -34z" glyph-name="j" horiz-adv-x="1472" unicode="j"/><glyph d="M1702 0h-569l-329 457h-31l-162 -175v-282h-560v1434h560v-489h34l427 489h619l-573 -639z" glyph-name="k" horiz-adv-x="1687" unicode="k"/><glyph d="M51 0v1434h562v-966h723v-468h-1285z" glyph-name="l" horiz-adv-x="1396" unicode="l"/><glyph d="M51 0v1434h703l152 -692h41l152 692h703v-1434h-534v483h-43l-93 -483h-410l-94 483h-43v-483h-534z" glyph-name="m" horiz-adv-x="1853" unicode="m"/><glyph d="M51 0v1434h642l350 -649h49v649h546v-1434h-626l-363 649h-52v-649h-546z" glyph-name="n" horiz-adv-x="1689" unicode="n"/><glyph d="M855 -48q-382 0 -605.5 207.5t-223.5 557.5t223.5 557t605.5 207q381 0 604.5 -207t223.5 -557t-223.5 -557.5t-604.5 -207.5zM855 435q114 0 192.5 73.5t78.5 208.5q0 137 -78.5 209t-192.5 72q-116 0 -193.5 -72.5t-77.5 -208.5q0 -135 78.5 -208.5t192.5 -73.5z" glyph-name="o" unicode="o"/><glyph d="M51 0v1434h857q645 0 645 -582q0 -584 -642 -584h-298v-268h-562zM613 732h242q60 0 95.5 31t35.5 89t-35 87.5t-93 29.5h-245v-237z" glyph-name="p" horiz-adv-x="1587" unicode="p"/><glyph d="M1683 739q0 -266 -198 -464l186 -190q-126 -162 -311 -317l-251 227q-131 -43 -254 -43q-382 0 -605.5 207.5t-223.5 557.5t223.5 557t605.5 207q379 0 603.5 -203.5t224.5 -538.5zM584 717q0 -135 78.5 -208.5t192.5 -73.5t192.5 73.5t78.5 208.5q0 137 -78.5 209 t-192.5 72q-116 0 -193.5 -72t-77.5 -209z" glyph-name="q" unicode="q"/><glyph d="M1618 0h-550l-167 333h-288v-333h-562v1434h867q314 0 479 -136.5t165 -433.5q0 -256 -186 -405zM613 969v-221h263q123 0 122.5 110.5t-122.5 110.5h-263z" glyph-name="r" horiz-adv-x="1646" unicode="r"/><glyph d="M768 -48q-406 2 -585.5 130t-165.5 421h504q0 -114 247 -116q108 -2 160 18t52 51v5v5t-1 7t-2.5 8.5t-5 8.5t-9.5 9t-14 8.5t-19 8t-25.5 7t-31.5 4.5l-189 29q-26 3 -83 11t-88 13t-85.5 15.5t-86 20.5t-77 29t-71.5 41t-57 53.5t-48 69.5t-28 88t-11 110 q0 225 181.5 349.5t541.5 124.5q176 0 302.5 -23.5t229 -82.5t151 -169t43.5 -272h-500q-22 114 -238 114q-172 0 -172 -70q0 -9 1 -14t7 -18.5t24.5 -22t47.5 -12.5l150 -24q41 -7 114.5 -16t123 -15t118 -21.5t115.5 -33.5t98 -51t81.5 -75t50.5 -104t20 -139 q0 -247 -189.5 -365t-580.5 -115z" glyph-name="s" horiz-adv-x="1559" unicode="s"/><glyph d="M1606 1434v-466h-502v-968h-560v968h-501v466h1563z" glyph-name="t" horiz-adv-x="1648" unicode="t"/><glyph d="M827.5 -48q-397.5 0 -587 166.5t-189.5 524.5v791h565v-777q0 -236 212 -235q217 0 216 235v777h560v-785q0 -362 -189.5 -529.5t-587 -167.5z" glyph-name="u" horiz-adv-x="1655" unicode="u"/><glyph d="M509 0l-509 1434h579l295 -908h56l294 908h578l-508 -1434h-785z" glyph-name="v" horiz-adv-x="1802" unicode="v"/><glyph d="M280 0l-249 1434h570l104 -833h48l158 833h436l158 -833h48l104 833h570l-249 -1434h-758l-68 546h-46l-68 -546h-758z" glyph-name="w" horiz-adv-x="2257" unicode="w"/><glyph d="M-9 0l485 715v27l-473 692h601l198 -326h53l200 326h599l-468 -692v-27l480 -715h-606l-205 346h-53l-205 -346h-606z" glyph-name="x" horiz-adv-x="1657" unicode="x"/><glyph d="M1717 1434l-584 -999v-435h-560v440l-582 994h588l256 -471h39l258 471h585z" glyph-name="y" unicode="y"/><glyph d="M26 0v451l662 474v43h-649v466h1383v-449l-674 -476v-41h663v-468h-1385z" glyph-name="z" horiz-adv-x="1447" unicode="z"/><glyph d="M563 -230q-38 0 -67.5 3t-72 19.5t-70 43.5t-48 82t-20.5 130v409l-208 238v44l208 239v410q0 276 278 276h645v-466h-292q-72 0 -71 -55v-163l-193 -241v-44l193 -241v-162q0 -55 71 -55h292v-467h-645z" glyph-name="braceleft" horiz-adv-x="1285" unicode="{"/><glyph d="M51 -171v1775h562v-1775h-562z" glyph-name="bar" horiz-adv-x="663" unicode="|"/><glyph d="M722 -230h-645v467h292q72 0 71 55v162l193 241v44l-193 241v163q0 55 -71 55h-292v466h645q278 0 278 -276v-410l208 -239v-44l-208 -238v-409q0 -75 -20.5 -130t-47.5 -82t-70 -43.5t-72.5 -19.5t-67.5 -3z" glyph-name="braceright" horiz-adv-x="1285" unicode="}"/><glyph d="M829 517q-89 3 -227 58t-206 55q-60 0 -95.5 -28.5t-37.5 -75.5h-173q-19 104 4.5 186t78 129.5t125.5 72.5t149 25q87 0 225.5 -55.5t204.5 -57.5q60 3 96.5 29.5t40.5 74.5h172q19 -104 -5 -185t-79.5 -129t-125.5 -72.5t-147 -26.5z" glyph-name="asciitilde" horiz-adv-x="1276" unicode="~"/><glyph d="M329 1092q111 0 191.5 -79t80.5 -188.5t-80.5 -188t-191.5 -78.5t-191 78.5t-80 188t80 188.5t191 79zM150 492h359l109 -861h-579z" glyph-name="exclamdown" horiz-adv-x="959" unicode="¡"/><glyph d="M771 461q200 0 233 193h484q-9 -140 -53 -251t-112.5 -181t-159.5 -116t-187.5 -65t-204.5 -19q-118 0 -235 27l-22 -49h-171l48 102q-174 84 -269 242.5t-95 372.5q0 317 203 505.5t541 188.5q113 0 214 -22l20 45h171l-43 -91q329 -147 355 -558h-484q-15 84 -67 133 l-208 -454q27 -3 42 -3zM534 717q0 -108 58 -176l200 432h-21q-101 0 -169 -70t-68 -186z" glyph-name="cent" horiz-adv-x="1513" unicode="¢"/><glyph d="M539 437v-15h854v-422h-1367v422q113 46 182 133h-182v218h138q-99 131 -99 254q0 203 185 323.5t480 120.5q323 0 510.5 -149.5t150.5 -413.5h-531q-22 106 -143 106q-49 0 -87 -28.5t-38 -75.5q0 -27 8 -48t28.5 -51.5t23.5 -37.5h519v-218h-516q-29 -72 -116 -118z " glyph-name="sterling" horiz-adv-x="1421" unicode="£"/><glyph d="M1188 975q0 -70 -21 -135l87 -87l-242 -241l-65 63q-109 -60 -232 -60q-126 0 -235 62l-67 -65l-242 241l92 92q-19 65 -19 130q0 73 24 145l-97 99l242 240l82 -80q99 55 220 55q113 0 219 -52l78 77l242 -240l-92 -94q26 -71 26 -150zM715 836q44 0 76.5 14t47 32.5 t22.5 40t8.5 34t-0.5 18.5q2 5 1 18.5t-9 35.5t-22.5 41t-47 33.5t-76.5 14.5t-76.5 -14.5t-47 -33.5t-23 -41t-9.5 -35.5t1 -18.5q-2 -5 -1 -18t9.5 -34.5t23 -40t47 -32.5t76.5 -14z" glyph-name="currency" horiz-adv-x="1425" unicode="¤"/><glyph d="M1717 1434l-478 -818h346v-203h-452v-60h452v-206h-452v-147h-560v147h-450v206h450v60h-450v203h348l-480 818h588l256 -471h39l258 471h585z" glyph-name="yen" unicode="¥"/><glyph d="M51 765v839h562v-839h-562zM51 -171v842h562v-842h-562z" glyph-name="brokenbar" horiz-adv-x="663" unicode="¦"/><glyph d="M1541 628q0 -177 -97 -276q97 -101 97 -273q0 -247 -187.5 -365t-582.5 -115q-406 2 -587 130.5t-167 425.5h507q2 -60 58 -89.5t189 -31.5q108 -2 161 18t53 50q0 43 -60 62q-22 7 -53 10l-181 29q-24 3 -79.5 11t-87 12t-84.5 13.5t-86 20t-78.5 27.5t-73.5 37.5 t-59.5 49.5t-48.5 64t-29 81t-12 101q0 177 143 267q-143 102 -143 316q0 225 181 350t543 125q176 0 301 -24t227.5 -83t152 -170.5t42.5 -275.5h-498q-20 119 -239 119q-172 0 -172 -70v-2q0 -9 1.5 -14.5t7.5 -16.5t25.5 -19.5t50.5 -13.5l141 -24q44 -9 130.5 -19 t143 -19.5t133 -28.5t126 -48t97.5 -73t71 -111.5t23 -156.5zM681 558l136 -24h2q90 -5 128 26.5t38 70.5v10.5t-5 20t-15.5 26.5t-34.5 21t-58 15l-148 24q-133 0 -133 -101q0 -56 56 -80q15 -6 34 -9z" glyph-name="section" horiz-adv-x="1563" unicode="§"/><glyph d="M193 1159q-80 0 -136.5 52t-56.5 130.5t56.5 130.5t136.5 52t136.5 -51t56.5 -131.5t-56.5 -131.5t-136.5 -51zM751 1159q-80 0 -136.5 51t-56.5 131.5t56.5 131.5t136.5 51t136.5 -52t56.5 -130.5t-56.5 -130.5t-136.5 -52z" glyph-name="dieresis" horiz-adv-x="943" unicode="¨"/><glyph d="M529 553q-210 0 -339.5 126.5t-129.5 329.5t130.5 332.5t338.5 129.5q212 0 343.5 -129.5t131.5 -332.5t-131 -329.5t-344 -126.5zM538 748q96 0 169 51t85 157l-150 -2q-10 -26 -18 -38.5t-34.5 -29.5t-63.5 -17q-51 0 -87 35t-36 105q0 68 36.5 103t86.5 35 q38 0 64 -15.5t33.5 -28t18.5 -35.5h150q-12 104 -86.5 156.5t-167.5 52.5q-125 0 -202 -72.5t-77 -195.5q0 -121 76.5 -191t202.5 -70z" glyph-name="copyright" horiz-adv-x="1063" unicode="©"/><glyph d="M630 1434h244v-739h-244l-38 56q-82 -56 -177 -56q-143 0 -249 109t-106 264.5t105.5 265.5t249.5 110q101 0 186 -63zM445 1009q29 0 46.5 17t17.5 42.5t-17.5 45t-46.5 19.5t-47.5 -19.5t-18.5 -45t18.5 -42.5t47.5 -17z" glyph-name="ordfeminine" horiz-adv-x="933" unicode="ª"/><glyph d="M1012 188h-579l-331 529l331 529h579l-331 -529zM1729 188h-579l-331 529l331 529h579l-331 -529z" glyph-name="guillemotleft" horiz-adv-x="1831" unicode="«"/><glyph d="M708 439v187h-751v369h1207v-556h-456z" glyph-name="logicalnot" horiz-adv-x="1249" unicode="¬"/><glyph d="M68 473v466h990v-466h-990z" glyph-name="uni00AD" horiz-adv-x="1126" unicode="­"/><glyph d="M529 553q-210 0 -339.5 126.5t-129.5 329.5t130.5 332.5t338.5 129.5q212 0 343.5 -129.5t131.5 -332.5t-131 -329.5t-344 -126.5zM305 739h151v162h99l90 -162h164l-116 193q99 49 99 157q0 89 -60 136.5t-169 47.5h-258v-534zM456 1022v132h111q29 0 47.5 -17t18.5 -48 q0 -27 -19.5 -47t-46.5 -20h-111z" glyph-name="registered" horiz-adv-x="1063" unicode="®"/><glyph d="M0 1167v403h853v-403h-853z" glyph-name="macron" horiz-adv-x="853" unicode="¯"/><glyph d="M452.5 647q-172.5 0 -287 113.5t-114.5 286t114.5 285t287 112.5t286 -112.5t113.5 -285t-113.5 -286t-286 -113.5zM452 992q17 0 30 6t18 12.5t8.5 16t3.5 13v6.5q0 5 -1.5 14.5t-16 24t-42 14.5t-42 -13.5t-16.5 -27.5l-1 -12v-6.5t3 -13t8.5 -16t18 -12.5t29.5 -6z " glyph-name="degree" horiz-adv-x="902" unicode="°"/><glyph d="M975 1357h426v-441h-426v-424h-466v424h-425v441h425v426h466v-426zM84 0v468h1147v-468h-1147z" glyph-name="plusminus" horiz-adv-x="1315" unicode="±"/><glyph d="M0 1161l125 312h493l-125 -312h-493z" glyph-name="acute" horiz-adv-x="617" unicode="´"/><glyph d="M872 1161h562v-1161h-553l-9 147h-49q-77 -109 -210 -156v-247h-562v1417h562v-606q0 -137 138 -133h5q116 0 116 117v622z" glyph-name="uni00B5" horiz-adv-x="1484" unicode="µ"/><glyph d="M934 0v285h-193q-715 0 -715 575q0 573 718 574h751v-1434h-561zM1722 0v1434h562v-1434h-562z" glyph-name="paragraph" horiz-adv-x="2334" unicode="¶"/><glyph d="M410 451q-111 0 -191.5 79t-80.5 188.5t80.5 188t191.5 78.5t191 -78.5t80 -188t-80 -188.5t-191 -79z" glyph-name="periodcentered" horiz-adv-x="815" unicode="·"/><glyph d="M266 -53q82 -5 144.5 -56t62.5 -145q0 -137 -137.5 -193t-335.5 -16v200q65 -14 112 -14.5t62 4.5t15 8q0 7 -17 15.5t-59.5 13t-112.5 -12.5v119l181 130h164z" glyph-name="cedilla" horiz-adv-x="472" unicode="¸"/><glyph d="M430 698q-154 0 -262 108.5t-108 261.5q0 157 108 266.5t262 109.5t261.5 -109.5t107.5 -266.5q0 -154 -108.5 -262t-260.5 -108zM430.5 1009q61.5 0 61.5 59q0 29 -18 47t-44 18q-27 0 -44 -18t-17 -47q0 -59 61.5 -59z" glyph-name="ordmasculine" horiz-adv-x="858" unicode="º"/><glyph d="M102 188l331 529l-331 529h579l331 -529l-331 -529h-579zM819 188l331 529l-331 529h579l331 -529l-331 -529h-579z" glyph-name="guillemotright" horiz-adv-x="1831" unicode="»"/><glyph d="M683 1092q111 0 191 -79t80 -188.5t-80 -188t-191 -78.5t-191.5 78.5t-80.5 188t80.5 188.5t191.5 79zM952 509q14 -89 -8 -150.5t-66.5 -89.5t-98.5 -49.5t-102.5 -31t-81 -30.5t-32.5 -54q0 -29 40 -48.5t100 -19.5q188 0 188 150h505q17 -295 -161.5 -443.5 t-526.5 -148.5q-329 0 -516 108.5t-187 333.5q0 90 30 155t74.5 95t97 55.5t97 41.5t75.5 48t32 78h541z" glyph-name="questiondown" horiz-adv-x="1413" unicode="¿"/><glyph d="M1152 1519h-493l-125 312h493zM1224 0l-46 155h-552l-47 -155h-579l509 1434h785l508 -1434h-578zM751 567h302l-104 343h-94z" glyph-name="Agrave" horiz-adv-x="1802" unicode="À"/><glyph d="M1268 1831l-125 -312h-493l125 312h493zM1224 0l-46 155h-552l-47 -155h-579l509 1434h785l508 -1434h-578zM751 567h302l-104 343h-94z" glyph-name="Aacute" horiz-adv-x="1802" unicode="Á"/><glyph d="M850 1585l-51 -66h-454l220 312h671l220 -312h-454l-51 66h-101zM1224 0l-46 155h-552l-47 -155h-579l509 1434h785l508 -1434h-578zM751 567h302l-104 343h-94z" glyph-name="Acircumflex" horiz-adv-x="1802" unicode="Â"/><glyph d="M597 1522h-136q-31 160 58.5 245t226.5 85q68 0 179 -44.5t166 -44.5q48 0 77.5 22t31.5 62h138q29 -160 -60.5 -245t-224.5 -85q-72 0 -182 44.5t-164 44.5q-46 0 -76.5 -22.5t-33.5 -61.5zM1224 0l-46 155h-552l-47 -155h-579l509 1434h785l508 -1434h-578zM751 567 h302l-104 343h-94z" glyph-name="Atilde" horiz-adv-x="1802" unicode="Ã"/><glyph d="M621 1517q-80 0 -136.5 52t-56.5 130.5t56.5 130.5t136.5 52t136.5 -51t56.5 -131t-56.5 -131.5t-136.5 -51.5zM1179.5 1517q-80.5 0 -137 51.5t-56.5 131.5t56.5 131t137 51t136.5 -52t56 -130.5t-56 -130.5t-136.5 -52zM1224 0l-46 155h-552l-47 -155h-579l509 1434 h785l508 -1434h-578zM751 567h302l-104 343h-94z" glyph-name="Adieresis" horiz-adv-x="1802" unicode="Ä"/><glyph d="M1224 0l-46 155h-552l-47 -155h-579l509 1434h274q-67 32 -106 94.5t-39 137.5q0 109 76 186t187 77t184.5 -77t73.5 -186q0 -75 -37.5 -137.5t-102.5 -94.5h275l508 -1434h-578zM901 1715q-46 0 -46 -46t46 -46q51 0 44 46q-5 46 -44 46zM751 567h302l-104 343h-94z" glyph-name="Aring" horiz-adv-x="1802" unicode="Å"/><glyph d="M2403 988h-787v-95h756v-354h-756v-94h787v-445h-1348v160h-425l-67 -160h-563l613 1434h1790v-446zM799 567h256v401h-89z" glyph-name="AE" horiz-adv-x="2454" unicode="Æ"/><glyph d="M845 435q218 0 256 212h532q-9 -145 -53 -262t-111.5 -194t-159.5 -129t-189.5 -77.5t-208.5 -30.5l-10 -7q82 -5 144.5 -56t62.5 -145q0 -137 -137.5 -193t-335.5 -16v200q65 -14 112 -14.5t62 4.5t15 8q0 7 -17 15.5t-59.5 13t-112.5 -12.5v119l119 86 q-335 26 -531.5 230.5t-196.5 530.5q0 348 223.5 556t595.5 208q118 0 222.5 -20.5t206.5 -70.5t176 -127t123.5 -197.5t59.5 -273.5h-532q-38 207 -256 206q-111 0 -186 -75.5t-75 -205.5t75 -206t186 -76z" glyph-name="Ccedilla" horiz-adv-x="1658" unicode="Ç"/><glyph d="M961 1519h-493l-125 312h493zM51 0v1434h1348v-446h-786v-95h756v-354h-756v-94h786v-445h-1348z" glyph-name="Egrave" horiz-adv-x="1450" unicode="È"/><glyph d="M459 1519l125 312h493l-125 -312h-493zM51 0v1434h1348v-446h-786v-95h756v-354h-756v-94h786v-445h-1348z" glyph-name="Eacute" horiz-adv-x="1450" unicode="É"/><glyph d="M154 1519l220 312h670l221 -312h-454l-52 66h-100l-51 -66h-454zM51 0v1434h1348v-446h-786v-95h756v-354h-756v-94h786v-445h-1348z" glyph-name="Ecircumflex" horiz-adv-x="1450" unicode="Ê"/><glyph d="M430 1517q-80 0 -136.5 52t-56.5 130.5t56.5 130.5t136.5 52t136.5 -51t56.5 -131t-56.5 -131.5t-136.5 -51.5zM988 1517q-80 0 -136.5 51.5t-56.5 131.5t56.5 131t136.5 51t136.5 -52t56.5 -130.5t-56.5 -130.5t-136.5 -52zM51 0v1434h1348v-446h-786v-95h756v-354h-756 v-94h786v-445h-1348z" glyph-name="Edieresis" horiz-adv-x="1450" unicode="Ë"/><glyph d="M582 1519h-493l-125 312h493zM51 0v1434h562v-1434h-562z" glyph-name="Igrave" horiz-adv-x="663" unicode="Ì"/><glyph d="M80 1519l125 312h493l-125 -312h-493zM51 0v1434h562v-1434h-562z" glyph-name="Iacute" horiz-adv-x="663" unicode="Í"/><glyph d="M-225 1519l220 312h671l220 -312h-454l-51 66h-101l-51 -66h-454zM51 0v1434h562v-1434h-562z" glyph-name="Icircumflex" horiz-adv-x="663" unicode="Î"/><glyph d="M51 1517q-80 0 -136.5 52t-56.5 130.5t56.5 130.5t136.5 52t136.5 -51t56.5 -131t-56.5 -131.5t-136.5 -51.5zM609 1517q-80 0 -136.5 51.5t-56.5 131.5t56.5 131t136.5 51t136.5 -52t56.5 -130.5t-56.5 -130.5t-136.5 -52zM51 0v1434h562v-1434h-562z" glyph-name="Idieresis" horiz-adv-x="663" unicode="Ï"/><glyph d="M916 1434q802 0 802.5 -717t-802.5 -717h-761v509h-146v402h146v523h761zM918 469q237 0 237 248q0 249 -237 249h-199v-55h242v-402h-242v-40h199z" glyph-name="Eth" horiz-adv-x="1752" unicode="Ð"/><glyph d="M997 1517q-72 0 -182 44.5t-165 44.5q-46 0 -76 -22t-33 -62h-137q-31 160 59 245t226 85q68 0 179.5 -44.5t165.5 -44.5q48 0 78 22t31 62h139q29 -160 -60.5 -245t-224.5 -85zM51 0v1434h642l350 -649h49v649h546v-1434h-626l-363 649h-52v-649h-546z" glyph-name="Ntilde" horiz-adv-x="1689" unicode="Ñ"/><glyph d="M1106 1526h-493l-125 312h493zM855 -48q-382 0 -605.5 207.5t-223.5 557.5t223.5 557t605.5 207q381 0 604.5 -207t223.5 -557t-223.5 -557.5t-604.5 -207.5zM855 435q114 0 192.5 73.5t78.5 208.5q0 137 -78.5 209t-192.5 72q-116 0 -193.5 -72.5t-77.5 -208.5 q0 -135 78.5 -208.5t192.5 -73.5z" glyph-name="Ograve" unicode="Ò"/><glyph d="M604 1526l125 312h493l-125 -312h-493zM855 -48q-382 0 -605.5 207.5t-223.5 557.5t223.5 557t605.5 207q381 0 604.5 -207t223.5 -557t-223.5 -557.5t-604.5 -207.5zM855 435q114 0 192.5 73.5t78.5 208.5q0 137 -78.5 209t-192.5 72q-116 0 -193.5 -72.5t-77.5 -208.5 q0 -135 78.5 -208.5t192.5 -73.5z" glyph-name="Oacute" unicode="Ó"/><glyph d="M299 1526l220 312h671l220 -312h-454l-51 66h-101l-51 -66h-454zM855 -48q-382 0 -605.5 207.5t-223.5 557.5t223.5 557t605.5 207q381 0 604.5 -207t223.5 -557t-223.5 -557.5t-604.5 -207.5zM855 435q114 0 192.5 73.5t78.5 208.5q0 137 -78.5 209t-192.5 72 q-116 0 -193.5 -72.5t-77.5 -208.5q0 -135 78.5 -208.5t192.5 -73.5z" glyph-name="Ocircumflex" unicode="Ô"/><glyph d="M1007 1524q-72 0 -182 44.5t-165 44.5q-46 0 -75.5 -22.5t-33.5 -61.5h-136q-31 160 58.5 245t226.5 85q68 0 179 -44.5t165 -44.5q48 0 78 22t32 61h138q29 -160 -60.5 -244.5t-224.5 -84.5zM855 -48q-382 0 -605.5 207.5t-223.5 557.5t223.5 557t605.5 207 q381 0 604.5 -207t223.5 -557t-223.5 -557.5t-604.5 -207.5zM855 435q114 0 192.5 73.5t78.5 208.5q0 137 -78.5 209t-192.5 72q-116 0 -193.5 -72.5t-77.5 -208.5q0 -135 78.5 -208.5t192.5 -73.5z" glyph-name="Otilde" unicode="Õ"/><glyph d="M575 1524q-80 0 -136.5 52t-56.5 130.5t56.5 130.5t136.5 52t136.5 -51t56.5 -131.5t-56.5 -131.5t-136.5 -51zM1133 1524q-80 0 -136.5 51t-56.5 131.5t56.5 131.5t136.5 51t136.5 -52t56.5 -130.5t-56.5 -130.5t-136.5 -52zM855 -48q-382 0 -605.5 207.5t-223.5 557.5 t223.5 557t605.5 207q381 0 604.5 -207t223.5 -557t-223.5 -557.5t-604.5 -207.5zM855 435q114 0 192.5 73.5t78.5 208.5q0 137 -78.5 209t-192.5 72q-116 0 -193.5 -72.5t-77.5 -208.5q0 -135 78.5 -208.5t192.5 -73.5z" glyph-name="Odieresis" unicode="Ö"/><glyph d="M1326 947l-300 -300l300 -302l-311 -313l-302 303l-300 -301l-329 330l300 300l-300 300l310 313l302 -301l301 301z" glyph-name="multiply" horiz-adv-x="1413" unicode="×"/><glyph d="M1312 1377q177 -94 274 -263.5t97 -396.5q0 -350 -223.5 -557.5t-604.5 -207.5q-104 0 -193 16l-25 -55h-326l70 152q-171 97 -263 264.5t-92 387.5q0 350 223.5 557t605.5 207q96 0 174 -12l24 53h326zM584 717q0 -79 30 -144l197 422q-99 -14 -163 -85.5t-64 -192.5z M877 435q108 9 178.5 81.5t70.5 200.5q0 96 -42 165z" glyph-name="Oslash" unicode="Ø"/><glyph d="M1079 1519h-494l-124 312h493zM827.5 -48q-397.5 0 -587 166.5t-189.5 524.5v791h565v-777q0 -236 212 -235q217 0 216 235v777h560v-785q0 -362 -189.5 -529.5t-587 -167.5z" glyph-name="Ugrave" horiz-adv-x="1655" unicode="Ù"/><glyph d="M577 1519l124 312h494l-125 -312h-493zM827.5 -48q-397.5 0 -587 166.5t-189.5 524.5v791h565v-777q0 -236 212 -235q217 0 216 235v777h560v-785q0 -362 -189.5 -529.5t-587 -167.5z" glyph-name="Uacute" horiz-adv-x="1655" unicode="Ú"/><glyph d="M271 1519l221 312h670l220 -312h-454l-51 66h-100l-52 -66h-454zM827.5 -48q-397.5 0 -587 166.5t-189.5 524.5v791h565v-777q0 -236 212 -235q217 0 216 235v777h560v-785q0 -362 -189.5 -529.5t-587 -167.5z" glyph-name="Ucircumflex" horiz-adv-x="1655" unicode="Û"/><glyph d="M548 1517q-80 0 -136.5 52t-56.5 130.5t56.5 130.5t136.5 52t136.5 -51t56.5 -131t-56.5 -131.5t-136.5 -51.5zM1106 1517q-80 0 -136.5 51.5t-56.5 131.5t56.5 131t136.5 51t136.5 -52t56.5 -130.5t-56.5 -130.5t-136.5 -52zM827.5 -48q-397.5 0 -587 166.5 t-189.5 524.5v791h565v-777q0 -236 212 -235q217 0 216 235v777h560v-785q0 -362 -189.5 -529.5t-587 -167.5z" glyph-name="Udieresis" horiz-adv-x="1655" unicode="Ü"/><glyph d="M1222 1831l-125 -312h-493l125 312h493zM1717 1434l-584 -999v-435h-560v440l-582 994h588l256 -471h39l258 471h585z" glyph-name="Yacute" unicode="Ý"/><glyph d="M802 1292q719 0 719 -575q0 -573 -715 -574h-193v-143h-562v1434h562v-142h189zM814 608q140 0 140 109q0 56 -38.5 83.5t-99.5 27.5h-203v-220h201z" glyph-name="Thorn" horiz-adv-x="1554" unicode="Þ"/><glyph d="M51 0v932q0 128 42 226t108.5 156t160.5 95t186 49.5t198 12.5q154 0 275 -25.5t196 -65.5t123.5 -96.5t67.5 -112t19 -115.5q0 -56 -14 -101t-42 -78.5t-45 -48t-46 -36.5v-36q246 -106 246 -343q0 -181 -153.5 -297t-495.5 -116h-191v420h174q111 0 111 80 q0 82 -111 82h-174v292h140q36 0 55.5 15.5t21.5 24.5t2 16q0 67 -125 67q-121 0 -152 -45q-15 -20 -15 -51v-901h-562z" glyph-name="germandbls" horiz-adv-x="1559" unicode="ß"/><glyph d="M1152 1519h-493l-125 312h493zM1224 0l-46 155h-552l-47 -155h-579l509 1434h785l508 -1434h-578zM751 567h302l-104 343h-94z" glyph-name="agrave" horiz-adv-x="1802" unicode="à"/><glyph d="M1268 1831l-125 -312h-493l125 312h493zM1224 0l-46 155h-552l-47 -155h-579l509 1434h785l508 -1434h-578zM751 567h302l-104 343h-94z" glyph-name="aacute" horiz-adv-x="1802" unicode="á"/><glyph d="M850 1585l-51 -66h-454l220 312h671l220 -312h-454l-51 66h-101zM1224 0l-46 155h-552l-47 -155h-579l509 1434h785l508 -1434h-578zM751 567h302l-104 343h-94z" glyph-name="acircumflex" horiz-adv-x="1802" unicode="â"/><glyph d="M597 1522h-136q-31 160 58.5 245t226.5 85q68 0 179 -44.5t166 -44.5q48 0 77.5 22t31.5 62h138q29 -160 -60.5 -245t-224.5 -85q-72 0 -182 44.5t-164 44.5q-46 0 -76.5 -22.5t-33.5 -61.5zM1224 0l-46 155h-552l-47 -155h-579l509 1434h785l508 -1434h-578zM751 567 h302l-104 343h-94z" glyph-name="atilde" horiz-adv-x="1802" unicode="ã"/><glyph d="M621 1517q-80 0 -136.5 52t-56.5 130.5t56.5 130.5t136.5 52t136.5 -51t56.5 -131t-56.5 -131.5t-136.5 -51.5zM1179.5 1517q-80.5 0 -137 51.5t-56.5 131.5t56.5 131t137 51t136.5 -52t56 -130.5t-56 -130.5t-136.5 -52zM1224 0l-46 155h-552l-47 -155h-579l509 1434 h785l508 -1434h-578zM751 567h302l-104 343h-94z" glyph-name="adieresis" horiz-adv-x="1802" unicode="ä"/><glyph d="M1224 0l-46 155h-552l-47 -155h-579l509 1434h274q-67 32 -106 94.5t-39 137.5q0 109 76 186t187 77t184.5 -77t73.5 -186q0 -75 -37.5 -137.5t-102.5 -94.5h275l508 -1434h-578zM901 1715q-46 0 -46 -46t46 -46q51 0 44 46q-5 46 -44 46zM751 567h302l-104 343h-94z" glyph-name="aring" horiz-adv-x="1802" unicode="å"/><glyph d="M2403 988h-787v-95h756v-354h-756v-94h787v-445h-1348v160h-425l-67 -160h-563l613 1434h1790v-446zM799 567h256v401h-89z" glyph-name="ae" horiz-adv-x="2454" unicode="æ"/><glyph d="M845 435q218 0 256 212h532q-9 -145 -53 -262t-111.5 -194t-159.5 -129t-189.5 -77.5t-208.5 -30.5l-10 -7q82 -5 144.5 -56t62.5 -145q0 -137 -137.5 -193t-335.5 -16v200q65 -14 112 -14.5t62 4.5t15 8q0 7 -17 15.5t-59.5 13t-112.5 -12.5v119l119 86 q-335 26 -531.5 230.5t-196.5 530.5q0 348 223.5 556t595.5 208q118 0 222.5 -20.5t206.5 -70.5t176 -127t123.5 -197.5t59.5 -273.5h-532q-38 207 -256 206q-111 0 -186 -75.5t-75 -205.5t75 -206t186 -76z" glyph-name="ccedilla" horiz-adv-x="1658" unicode="ç"/><glyph d="M961 1519h-493l-125 312h493zM51 0v1434h1348v-446h-786v-95h756v-354h-756v-94h786v-445h-1348z" glyph-name="egrave" horiz-adv-x="1450" unicode="è"/><glyph d="M459 1519l125 312h493l-125 -312h-493zM51 0v1434h1348v-446h-786v-95h756v-354h-756v-94h786v-445h-1348z" glyph-name="eacute" horiz-adv-x="1450" unicode="é"/><glyph d="M154 1519l220 312h670l221 -312h-454l-52 66h-100l-51 -66h-454zM51 0v1434h1348v-446h-786v-95h756v-354h-756v-94h786v-445h-1348z" glyph-name="ecircumflex" horiz-adv-x="1450" unicode="ê"/><glyph d="M430 1517q-80 0 -136.5 52t-56.5 130.5t56.5 130.5t136.5 52t136.5 -51t56.5 -131t-56.5 -131.5t-136.5 -51.5zM988 1517q-80 0 -136.5 51.5t-56.5 131.5t56.5 131t136.5 51t136.5 -52t56.5 -130.5t-56.5 -130.5t-136.5 -52zM51 0v1434h1348v-446h-786v-95h756v-354h-756 v-94h786v-445h-1348z" glyph-name="edieresis" horiz-adv-x="1450" unicode="ë"/><glyph d="M582 1519h-493l-125 312h493zM51 0v1434h562v-1434h-562z" glyph-name="igrave" horiz-adv-x="663" unicode="ì"/><glyph d="M80 1519l125 312h493l-125 -312h-493zM51 0v1434h562v-1434h-562z" glyph-name="iacute" horiz-adv-x="663" unicode="í"/><glyph d="M-225 1519l220 312h671l220 -312h-454l-51 66h-101l-51 -66h-454zM51 0v1434h562v-1434h-562z" glyph-name="icircumflex" horiz-adv-x="663" unicode="î"/><glyph d="M51 1517q-80 0 -136.5 52t-56.5 130.5t56.5 130.5t136.5 52t136.5 -51t56.5 -131t-56.5 -131.5t-136.5 -51.5zM609 1517q-80 0 -136.5 51.5t-56.5 131.5t56.5 131t136.5 51t136.5 -52t56.5 -130.5t-56.5 -130.5t-136.5 -52zM51 0v1434h562v-1434h-562z" glyph-name="idieresis" horiz-adv-x="663" unicode="ï"/><glyph d="M916 1434q802 0 802.5 -717t-802.5 -717h-761v509h-146v402h146v523h761zM918 469q237 0 237 248q0 249 -237 249h-199v-55h242v-402h-242v-40h199z" glyph-name="eth" horiz-adv-x="1752" unicode="ð"/><glyph d="M997 1517q-72 0 -182 44.5t-165 44.5q-46 0 -76 -22t-33 -62h-137q-31 160 59 245t226 85q68 0 179.5 -44.5t165.5 -44.5q48 0 78 22t31 62h139q29 -160 -60.5 -245t-224.5 -85zM51 0v1434h642l350 -649h49v649h546v-1434h-626l-363 649h-52v-649h-546z" glyph-name="ntilde" horiz-adv-x="1689" unicode="ñ"/><glyph d="M1106 1526h-493l-125 312h493zM855 -48q-382 0 -605.5 207.5t-223.5 557.5t223.5 557t605.5 207q381 0 604.5 -207t223.5 -557t-223.5 -557.5t-604.5 -207.5zM855 435q114 0 192.5 73.5t78.5 208.5q0 137 -78.5 209t-192.5 72q-116 0 -193.5 -72.5t-77.5 -208.5 q0 -135 78.5 -208.5t192.5 -73.5z" glyph-name="ograve" unicode="ò"/><glyph d="M604 1526l125 312h493l-125 -312h-493zM855 -48q-382 0 -605.5 207.5t-223.5 557.5t223.5 557t605.5 207q381 0 604.5 -207t223.5 -557t-223.5 -557.5t-604.5 -207.5zM855 435q114 0 192.5 73.5t78.5 208.5q0 137 -78.5 209t-192.5 72q-116 0 -193.5 -72.5t-77.5 -208.5 q0 -135 78.5 -208.5t192.5 -73.5z" glyph-name="oacute" unicode="ó"/><glyph d="M299 1526l220 312h671l220 -312h-454l-51 66h-101l-51 -66h-454zM855 -48q-382 0 -605.5 207.5t-223.5 557.5t223.5 557t605.5 207q381 0 604.5 -207t223.5 -557t-223.5 -557.5t-604.5 -207.5zM855 435q114 0 192.5 73.5t78.5 208.5q0 137 -78.5 209t-192.5 72 q-116 0 -193.5 -72.5t-77.5 -208.5q0 -135 78.5 -208.5t192.5 -73.5z" glyph-name="ocircumflex" unicode="ô"/><glyph d="M1007 1524q-72 0 -182 44.5t-165 44.5q-46 0 -75.5 -22.5t-33.5 -61.5h-136q-31 160 58.5 245t226.5 85q68 0 179 -44.5t165 -44.5q48 0 78 22t32 61h138q29 -160 -60.5 -244.5t-224.5 -84.5zM855 -48q-382 0 -605.5 207.5t-223.5 557.5t223.5 557t605.5 207 q381 0 604.5 -207t223.5 -557t-223.5 -557.5t-604.5 -207.5zM855 435q114 0 192.5 73.5t78.5 208.5q0 137 -78.5 209t-192.5 72q-116 0 -193.5 -72.5t-77.5 -208.5q0 -135 78.5 -208.5t192.5 -73.5z" glyph-name="otilde" unicode="õ"/><glyph d="M575 1524q-80 0 -136.5 52t-56.5 130.5t56.5 130.5t136.5 52t136.5 -51t56.5 -131.5t-56.5 -131.5t-136.5 -51zM1133 1524q-80 0 -136.5 51t-56.5 131.5t56.5 131.5t136.5 51t136.5 -52t56.5 -130.5t-56.5 -130.5t-136.5 -52zM855 -48q-382 0 -605.5 207.5t-223.5 557.5 t223.5 557t605.5 207q381 0 604.5 -207t223.5 -557t-223.5 -557.5t-604.5 -207.5zM855 435q114 0 192.5 73.5t78.5 208.5q0 137 -78.5 209t-192.5 72q-116 0 -193.5 -72.5t-77.5 -208.5q0 -135 78.5 -208.5t192.5 -73.5z" glyph-name="odieresis" unicode="ö"/><glyph d="M650 1010q-92 0 -159.5 66.5t-67.5 157.5q0 92 67.5 157.5t159.5 65.5t159.5 -65.5t67.5 -157.5q0 -90 -67.5 -157t-159.5 -67zM85 527v383h1147v-383h-1147zM650 -43q-92 0 -159.5 66.5t-67.5 157.5q0 92 67.5 157.5t159.5 65.5t159.5 -65.5t67.5 -157.5 q0 -90 -67.5 -157t-159.5 -67z" glyph-name="divide" horiz-adv-x="1317" unicode="÷"/><glyph d="M1312 1377q177 -94 274 -263.5t97 -396.5q0 -350 -223.5 -557.5t-604.5 -207.5q-104 0 -193 16l-25 -55h-326l70 152q-171 97 -263 264.5t-92 387.5q0 350 223.5 557t605.5 207q96 0 174 -12l24 53h326zM584 717q0 -79 30 -144l197 422q-99 -14 -163 -85.5t-64 -192.5z M877 435q108 9 178.5 81.5t70.5 200.5q0 96 -42 165z" glyph-name="oslash" unicode="ø"/><glyph d="M1079 1519h-494l-124 312h493zM827.5 -48q-397.5 0 -587 166.5t-189.5 524.5v791h565v-777q0 -236 212 -235q217 0 216 235v777h560v-785q0 -362 -189.5 -529.5t-587 -167.5z" glyph-name="ugrave" horiz-adv-x="1655" unicode="ù"/><glyph d="M577 1519l124 312h494l-125 -312h-493zM827.5 -48q-397.5 0 -587 166.5t-189.5 524.5v791h565v-777q0 -236 212 -235q217 0 216 235v777h560v-785q0 -362 -189.5 -529.5t-587 -167.5z" glyph-name="uacute" horiz-adv-x="1655" unicode="ú"/><glyph d="M271 1519l221 312h670l220 -312h-454l-51 66h-100l-52 -66h-454zM827.5 -48q-397.5 0 -587 166.5t-189.5 524.5v791h565v-777q0 -236 212 -235q217 0 216 235v777h560v-785q0 -362 -189.5 -529.5t-587 -167.5z" glyph-name="ucircumflex" horiz-adv-x="1655" unicode="û"/><glyph d="M548 1517q-80 0 -136.5 52t-56.5 130.5t56.5 130.5t136.5 52t136.5 -51t56.5 -131t-56.5 -131.5t-136.5 -51.5zM1106 1517q-80 0 -136.5 51.5t-56.5 131.5t56.5 131t136.5 51t136.5 -52t56.5 -130.5t-56.5 -130.5t-136.5 -52zM827.5 -48q-397.5 0 -587 166.5 t-189.5 524.5v791h565v-777q0 -236 212 -235q217 0 216 235v777h560v-785q0 -362 -189.5 -529.5t-587 -167.5z" glyph-name="udieresis" horiz-adv-x="1655" unicode="ü"/><glyph d="M1222 1831l-125 -312h-493l125 312h493zM1717 1434l-584 -999v-435h-560v440l-582 994h588l256 -471h39l258 471h585z" glyph-name="yacute" unicode="ý"/><glyph d="M802 1292q719 0 719 -575q0 -573 -715 -574h-193v-143h-562v1434h562v-142h189zM814 608q140 0 140 109q0 56 -38.5 83.5t-99.5 27.5h-203v-220h201z" glyph-name="thorn" horiz-adv-x="1554" unicode="þ"/><glyph d="M575 1517q-80 0 -136.5 52t-56.5 130.5t56.5 130.5t136.5 52t136.5 -51t56.5 -131t-56.5 -131.5t-136.5 -51.5zM1133 1517q-80 0 -136.5 51.5t-56.5 131.5t56.5 131t136.5 51t136.5 -52t56.5 -130.5t-56.5 -130.5t-136.5 -52zM1717 1434l-584 -999v-435h-560v440 l-582 994h588l256 -471h39l258 471h585z" glyph-name="ydieresis" unicode="ÿ"/><glyph d="M1328 1929v-403h-854v403h854zM1224 0l-46 155h-552l-47 -155h-579l509 1434h785l508 -1434h-578zM751 567h302l-104 343h-94z" glyph-name="Amacron" horiz-adv-x="1802" unicode="Ā"/><glyph d="M1328 1929v-403h-854v403h854zM1224 0l-46 155h-552l-47 -155h-579l509 1434h785l508 -1434h-578zM751 567h302l-104 343h-94z" glyph-name="amacron" horiz-adv-x="1802" unicode="ā"/><glyph d="M901 1519q-249 0 -340.5 65.5t-84.5 246.5h328q-10 -97 97.5 -97t96.5 97h328q7 -181 -83.5 -246.5t-341.5 -65.5zM1224 0l-46 155h-552l-47 -155h-579l509 1434h785l508 -1434h-578zM751 567h302l-104 343h-94z" glyph-name="Abreve" horiz-adv-x="1802" unicode="Ă"/><glyph d="M901 1519q-249 0 -340.5 65.5t-84.5 246.5h328q-10 -97 97.5 -97t96.5 97h328q7 -181 -83.5 -246.5t-341.5 -65.5zM1224 0l-46 155h-552l-47 -155h-579l509 1434h785l508 -1434h-578zM751 567h302l-104 343h-94z" glyph-name="abreve" horiz-adv-x="1802" unicode="ă"/><glyph d="M1224 0q-116 0 -116 -65q-9 -60 63 -56v-297q-72 0 -140 12t-137.5 40t-111 85t-41.5 136q0 265 443 275l-6 25h-552l-47 -155h-579l509 1434h785l508 -1434h-578zM751 567h302l-104 343h-94z" glyph-name="Aogonek" horiz-adv-x="1802" unicode="Ą"/><glyph d="M1224 0q-116 0 -116 -65q-9 -60 63 -56v-297q-72 0 -140 12t-137.5 40t-111 85t-41.5 136q0 265 443 275l-6 25h-552l-47 -155h-579l509 1434h785l508 -1434h-578zM751 567h302l-104 343h-94z" glyph-name="aogonek" horiz-adv-x="1802" unicode="ą"/><glyph d="M599 1519l125 312h493l-125 -312h-493zM845 -48q-372 0 -595.5 208.5t-223.5 556.5t223.5 556t595.5 208q118 0 222.5 -20.5t206.5 -70.5t176 -127t123.5 -197.5t59.5 -273.5h-532q-38 207 -256 206q-111 0 -186 -75.5t-75 -205.5t75 -206t186 -76q218 0 256 212h532 q-12 -191 -82.5 -331t-184 -217t-242.5 -112t-279 -35z" glyph-name="Cacute" horiz-adv-x="1658" unicode="Ć"/><glyph d="M599 1519l125 312h493l-125 -312h-493zM845 -48q-372 0 -595.5 208.5t-223.5 556.5t223.5 556t595.5 208q118 0 222.5 -20.5t206.5 -70.5t176 -127t123.5 -197.5t59.5 -273.5h-532q-38 207 -256 206q-111 0 -186 -75.5t-75 -205.5t75 -206t186 -76q218 0 256 212h532 q-12 -191 -82.5 -331t-184 -217t-242.5 -112t-279 -35z" glyph-name="cacute" horiz-adv-x="1658" unicode="ć"/><glyph d="M850 1517q-80 0 -136.5 52t-56.5 130.5t56.5 130.5t136.5 52t136.5 -51t56.5 -131t-56.5 -131.5t-136.5 -51.5zM845 -48q-372 0 -595.5 208.5t-223.5 556.5t223.5 556t595.5 208q118 0 222.5 -20.5t206.5 -70.5t176 -127t123.5 -197.5t59.5 -273.5h-532q-38 207 -256 206 q-111 0 -186 -75.5t-75 -205.5t75 -206t186 -76q218 0 256 212h532q-12 -191 -82.5 -331t-184 -217t-242.5 -112t-279 -35z" glyph-name="Cdotaccent" horiz-adv-x="1658" unicode="Ċ"/><glyph d="M850 1517q-80 0 -136.5 52t-56.5 130.5t56.5 130.5t136.5 52t136.5 -51t56.5 -131t-56.5 -131.5t-136.5 -51.5zM845 -48q-372 0 -595.5 208.5t-223.5 556.5t223.5 556t595.5 208q118 0 222.5 -20.5t206.5 -70.5t176 -127t123.5 -197.5t59.5 -273.5h-532q-38 207 -256 206 q-111 0 -186 -75.5t-75 -205.5t75 -206t186 -76q218 0 256 212h532q-12 -191 -82.5 -331t-184 -217t-242.5 -112t-279 -35z" glyph-name="cdotaccent" horiz-adv-x="1658" unicode="ċ"/><glyph d="M845 435q218 0 256 212h532q-12 -191 -82.5 -331t-184 -217t-242.5 -112t-279 -35q-372 0 -595.5 208.5t-223.5 556.5q0 285 152.5 479.5t420.5 257.5h-80l-220 312h454l51 -66h101l51 66h454l-220 -312h-94q229 -53 374 -214t163 -448h-532q-38 207 -256 206 q-111 0 -186 -75.5t-75 -205.5t75 -206t186 -76z" glyph-name="Ccaron" horiz-adv-x="1658" unicode="Č"/><glyph d="M845 435q218 0 256 212h532q-12 -191 -82.5 -331t-184 -217t-242.5 -112t-279 -35q-372 0 -595.5 208.5t-223.5 556.5q0 285 152.5 479.5t420.5 257.5h-80l-220 312h454l51 -66h101l51 66h454l-220 -312h-94q229 -53 374 -214t163 -448h-532q-38 207 -256 206 q-111 0 -186 -75.5t-75 -205.5t75 -206t186 -76z" glyph-name="ccaron" horiz-adv-x="1658" unicode="č"/><glyph d="M1162 1454h-670l-221 312h454l52 -66h100l51 66h454zM812 1434q802 0 802.5 -717t-802.5 -717h-761v1434h761zM814 469q237 0 237 248q0 249 -237 249h-200v-497h200z" glyph-name="Dcaron" horiz-adv-x="1648" unicode="Ď"/><glyph d="M1162 1454h-670l-221 312h454l52 -66h100l51 66h454zM812 1434q802 0 802.5 -717t-802.5 -717h-761v1434h761zM814 469q237 0 237 248q0 249 -237 249h-200v-497h200z" glyph-name="dcaron" horiz-adv-x="1648" unicode="ď"/><glyph d="M916 1434q802 0 802.5 -717t-802.5 -717h-761v509h-146v402h146v523h761zM918 469q237 0 237 248q0 249 -237 249h-199v-55h242v-402h-242v-40h199z" glyph-name="Dcroat" horiz-adv-x="1752" unicode="Đ"/><glyph d="M916 1434q802 0 802.5 -717t-802.5 -717h-761v509h-146v402h146v523h761zM918 469q237 0 237 248q0 249 -237 249h-199v-55h242v-402h-242v-40h199z" glyph-name="dcroat" horiz-adv-x="1752" unicode="đ"/><glyph d="M283 1526v403h854v-403h-854zM51 0v1434h1348v-446h-786v-95h756v-354h-756v-94h786v-445h-1348z" glyph-name="Emacron" horiz-adv-x="1450" unicode="Ē"/><glyph d="M283 1526v403h854v-403h-854zM51 0v1434h1348v-446h-786v-95h756v-354h-756v-94h786v-445h-1348z" glyph-name="emacron" horiz-adv-x="1450" unicode="ē"/><glyph d="M710 1517q-80 0 -136.5 52t-56.5 130.5t56.5 130.5t136.5 52t136.5 -51t56.5 -131t-56.5 -131.5t-136.5 -51.5zM51 0v1434h1348v-446h-786v-95h756v-354h-756v-94h786v-445h-1348z" glyph-name="Edotaccent" horiz-adv-x="1450" unicode="Ė"/><glyph d="M710 1517q-80 0 -136.5 52t-56.5 130.5t56.5 130.5t136.5 52t136.5 -51t56.5 -131t-56.5 -131.5t-136.5 -51.5zM51 0v1434h1348v-446h-786v-95h756v-354h-756v-94h786v-445h-1348z" glyph-name="edotaccent" horiz-adv-x="1450" unicode="ė"/><glyph d="M1399 988h-786v-95h756v-354h-756v-94h786v-445q-116 0 -116 -65q-9 -60 64 -56v-297q-72 0 -140.5 12t-137.5 40t-111 85t-42 136q0 84 48 145h-913v1434h1348v-446z" glyph-name="Eogonek" horiz-adv-x="1450" unicode="Ę"/><glyph d="M1399 988h-786v-95h756v-354h-756v-94h786v-445q-116 0 -116 -65q-9 -60 64 -56v-297q-72 0 -140.5 12t-137.5 40t-111 85t-42 136q0 84 48 145h-913v1434h1348v-446z" glyph-name="eogonek" horiz-adv-x="1450" unicode="ę"/><glyph d="M159 1766h454l51 -66h101l51 66h454l-220 -312h-671zM51 0v1434h1348v-446h-786v-95h756v-354h-756v-94h786v-445h-1348z" glyph-name="Ecaron" horiz-adv-x="1450" unicode="Ě"/><glyph d="M159 1766h454l51 -66h101l51 66h454l-220 -312h-671zM51 0v1434h1348v-446h-786v-95h756v-354h-756v-94h786v-445h-1348z" glyph-name="ecaron" horiz-adv-x="1450" unicode="ě"/><glyph d="M853 1519q-249 0 -340 65.5t-85 246.5h328q-10 -97 97.5 -97t97.5 97h327q7 -181 -83.5 -246.5t-341.5 -65.5zM1630 816v-816h-280l-9 164h-10q-176 -212 -519 -212q-222 0 -400 93t-282 269t-104 403q0 350 225 557t613 207q138 0 266 -35t236.5 -102t180 -181.5 t86.5 -259.5h-556q-12 31 -66.5 63t-133.5 32q-133 0 -213 -75t-80 -206q0 -130 78.5 -206t195.5 -76q186 0 233 125h-248v256h787z" glyph-name="Gbreve" horiz-adv-x="1689" unicode="Ğ"/><glyph d="M853 1519q-249 0 -340 65.5t-85 246.5h328q-10 -97 97.5 -97t97.5 97h327q7 -181 -83.5 -246.5t-341.5 -65.5zM1630 816v-816h-280l-9 164h-10q-176 -212 -519 -212q-222 0 -400 93t-282 269t-104 403q0 350 225 557t613 207q138 0 266 -35t236.5 -102t180 -181.5 t86.5 -259.5h-556q-12 31 -66.5 63t-133.5 32q-133 0 -213 -75t-80 -206q0 -130 78.5 -206t195.5 -76q186 0 233 125h-248v256h787z" glyph-name="gbreve" horiz-adv-x="1689" unicode="ğ"/><glyph d="M853.5 1517q-80.5 0 -137 52t-56.5 130.5t56.5 130.5t137 52t136.5 -51t56 -131t-56 -131.5t-136.5 -51.5zM1630 816v-816h-280l-9 164h-10q-176 -212 -519 -212q-222 0 -400 93t-282 269t-104 403q0 350 225 557t613 207q138 0 266 -35t236.5 -102t180 -181.5 t86.5 -259.5h-556q-12 31 -66.5 63t-133.5 32q-133 0 -213 -75t-80 -206q0 -130 78.5 -206t195.5 -76q186 0 233 125h-248v256h787z" glyph-name="Gdotaccent" horiz-adv-x="1689" unicode="Ġ"/><glyph d="M853.5 1517q-80.5 0 -137 52t-56.5 130.5t56.5 130.5t137 52t136.5 -51t56 -131t-56 -131.5t-136.5 -51.5zM1630 816v-816h-280l-9 164h-10q-176 -212 -519 -212q-222 0 -400 93t-282 269t-104 403q0 350 225 557t613 207q138 0 266 -35t236.5 -102t180 -181.5 t86.5 -259.5h-556q-12 31 -66.5 63t-133.5 32q-133 0 -213 -75t-80 -206q0 -130 78.5 -206t195.5 -76q186 0 233 125h-248v256h787z" glyph-name="gdotaccent" horiz-adv-x="1689" unicode="ġ"/><glyph d="M1630 816v-816h-280l-9 164h-10q-176 -212 -519 -212q-222 0 -400 93t-282 269t-104 403q0 350 225 557t613 207q138 0 266 -35t236.5 -102t180 -181.5t86.5 -259.5h-556q-12 31 -66.5 63t-133.5 32q-133 0 -213 -75t-80 -206q0 -130 78.5 -206t195.5 -76q186 0 233 125 h-248v256h787zM585 -512v393h536v-86q0 -256 -29.5 -426.5t-65.5 -228.5h-285q19 160 15 348h-171z" glyph-name="Gcommaaccent" horiz-adv-x="1689" unicode="Ģ"/><glyph d="M1630 816v-816h-280l-9 164h-10q-176 -212 -519 -212q-222 0 -400 93t-282 269t-104 403q0 350 225 557t613 207q138 0 266 -35t236.5 -102t180 -181.5t86.5 -259.5h-556q-12 31 -66.5 63t-133.5 32q-133 0 -213 -75t-80 -206q0 -130 78.5 -206t195.5 -76q186 0 233 125 h-248v256h787zM585 -512v393h536v-86q0 -256 -29.5 -426.5t-65.5 -228.5h-285q19 160 15 348h-171z" glyph-name="gcommaaccent" horiz-adv-x="1689" unicode="ģ"/><glyph d="M1065 1434h561v-1434h-561v481h-452v-481h-562v1434h562v-70h430v-379h-430v-33h452v482z" glyph-name="Hbar" horiz-adv-x="1677" unicode="Ħ"/><glyph d="M1065 1434h561v-1434h-561v481h-452v-481h-562v1434h562v-70h430v-379h-430v-33h452v482z" glyph-name="hbar" horiz-adv-x="1677" unicode="ħ"/><glyph d="M-96 1526v403h854v-403h-854zM51 0v1434h562v-1434h-562z" glyph-name="Imacron" horiz-adv-x="663" unicode="Ī"/><glyph d="M-96 1526v403h854v-403h-854zM51 0v1434h562v-1434h-562z" glyph-name="imacron" horiz-adv-x="663" unicode="ī"/><glyph d="M51 1434h562v-1434q-116 0 -116 -65q-9 -60 63 -56v-297q-72 0 -140 12t-137.5 40t-111 85t-41.5 136q0 84 47 145h-126v1434z" glyph-name="Iogonek" horiz-adv-x="663" unicode="Į"/><glyph d="M51 1434h562v-1434q-116 0 -116 -65q-9 -60 63 -56v-297q-72 0 -140 12t-137.5 40t-111 85t-41.5 136q0 84 47 145h-126v1434z" glyph-name="iogonek" horiz-adv-x="663" unicode="į"/><glyph d="M331 1517q-80 0 -136.5 52t-56.5 130.5t56.5 130.5t136.5 52t136.5 -51t56.5 -131t-56.5 -131.5t-136.5 -51.5zM51 0v1434h562v-1434h-562z" glyph-name="Idotaccent" horiz-adv-x="663" unicode="İ"/><glyph d="M51 0v1434h562v-1434h-562z" glyph-name="dotlessi" horiz-adv-x="663" unicode="ı"/><glyph d="M51 0v1434h562v-1434h-562zM1384 -48q-160 0 -278 28.5t-213.5 96.5t-144 196t-45.5 312h560q-2 -55 11 -89.5t37 -48.5t41.5 -17t43.5 -3q12 0 16.5 0.5t25.5 4t33 16.5t28.5 32.5t24 57t7.5 87.5v809h560v-780q0 -198 -47 -336.5t-141 -218t-219.5 -113.5t-299.5 -34z " glyph-name="IJ" horiz-adv-x="2141" unicode="Ĳ"/><glyph d="M1118 795l584 -795h-569l-329 457h-31l-162 -175v-282h-560v1434h560v-489h34l427 489h619zM585 -512v393h536v-86q0 -256 -29.5 -426.5t-65.5 -228.5h-285q19 160 15 348h-171z" glyph-name="Kcommaaccent" horiz-adv-x="1687" unicode="Ķ"/><glyph d="M1118 795l584 -795h-569l-329 457h-31l-162 -175v-282h-560v1434h560v-489h34l427 489h619zM585 -512v393h536v-86q0 -256 -29.5 -426.5t-65.5 -228.5h-285q19 160 15 348h-171z" glyph-name="kcommaaccent" horiz-adv-x="1687" unicode="ķ"/><glyph d="M51 1502l125 312h493l-125 -312h-493zM51 0v1434h562v-966h723v-468h-1285z" glyph-name="Lacute" horiz-adv-x="1396" unicode="Ĺ"/><glyph d="M51 1502l125 312h493l-125 -312h-493zM51 0v1434h562v-966h723v-468h-1285z" glyph-name="lacute" horiz-adv-x="1396" unicode="ĺ"/><glyph d="M51 0v1434h562v-966h723v-468h-1285zM584 -860q19 160 15 348h-171v393h536v-86q0 -256 -29.5 -426.5t-65.5 -228.5h-285z" glyph-name="Lcommaaccent" horiz-adv-x="1396" unicode="Ļ"/><glyph d="M51 0v1434h562v-966h723v-468h-1285zM584 -860q19 160 15 348h-171v393h536v-86q0 -256 -29.5 -426.5t-65.5 -228.5h-285z" glyph-name="lcommaaccent" horiz-adv-x="1396" unicode="ļ"/><glyph d="M947 553q22 183 19 415h-203v467h638v-100q0 -305 -36 -509.5t-76 -272.5h-342zM51 0v1434h562v-966h723v-468h-1285z" glyph-name="Lcaron" horiz-adv-x="1396" unicode="Ľ"/><glyph d="M947 553q22 183 19 415h-203v467h638v-100q0 -305 -36 -509.5t-76 -272.5h-342zM51 0v1434h562v-966h723v-468h-1285z" glyph-name="lcaron" horiz-adv-x="1396" unicode="ľ"/><glyph d="M51 0v1434h562v-966h723v-468h-1285zM1015.5 637q-110.5 0 -191 79t-80.5 188.5t80.5 188t191 78.5t191 -78.5t80.5 -188t-80.5 -188.5t-191 -79z" glyph-name="Ldot" horiz-adv-x="1396" unicode="Ŀ"/><glyph d="M684 468h724v-468h-1285v317l-123 -92v388l123 92v729h561v-309l224 167v-387l-224 -168v-269z" glyph-name="Lslash" horiz-adv-x="1467" unicode="Ł"/><glyph d="M684 468h724v-468h-1285v317l-123 -92v388l123 92v729h561v-309l224 167v-387l-224 -168v-269z" glyph-name="lslash" horiz-adv-x="1467" unicode="ł"/><glyph d="M594 1519l125 312h493l-125 -312h-493zM51 0v1434h642l350 -649h49v649h546v-1434h-626l-363 649h-52v-649h-546z" glyph-name="Nacute" horiz-adv-x="1689" unicode="Ń"/><glyph d="M594 1519l125 312h493l-125 -312h-493zM51 0v1434h642l350 -649h49v649h546v-1434h-626l-363 649h-52v-649h-546z" glyph-name="nacute" horiz-adv-x="1689" unicode="ń"/><glyph d="M51 0v1434h642l350 -649h49v649h546v-1434h-626l-363 649h-52v-649h-546zM732 -860q19 160 16 348h-171v393h536v-86q0 -256 -30 -426.5t-66 -228.5h-285z" glyph-name="Ncommaaccent" horiz-adv-x="1689" unicode="Ņ"/><glyph d="M51 0v1434h642l350 -649h49v649h546v-1434h-626l-363 649h-52v-649h-546zM732 -860q19 160 16 348h-171v393h536v-86q0 -256 -30 -426.5t-66 -228.5h-285z" glyph-name="ncommaaccent" horiz-adv-x="1689" unicode="ņ"/><glyph d="M294 1766h454l51 -66h100l52 66h454l-221 -312h-670zM51 0v1434h642l350 -649h49v649h546v-1434h-626l-363 649h-52v-649h-546z" glyph-name="Ncaron" horiz-adv-x="1689" unicode="Ň"/><glyph d="M294 1766h454l51 -66h100l52 66h454l-221 -312h-670zM51 0v1434h642l350 -649h49v649h546v-1434h-626l-363 649h-52v-649h-546z" glyph-name="ncaron" horiz-adv-x="1689" unicode="ň"/><glyph d="M1092 1434h546v-1434q-2 -507 -686 -507l9 468q2 0 27.5 -4.5t46 -6t39 9.5t18.5 35v5h-80l-363 649h-52v-649h-546v1434h642l350 -649h49v649z" glyph-name="Eng" horiz-adv-x="1689" unicode="Ŋ"/><glyph d="M1092 1434h546v-1434q-2 -507 -686 -507l9 468q2 0 27.5 -4.5t46 -6t39 9.5t18.5 35v5h-80l-363 649h-52v-649h-546v1434h642l350 -649h49v649z" glyph-name="eng" horiz-adv-x="1689" unicode="ŋ"/><glyph d="M428 1533v402h854v-402h-854zM855 -48q-382 0 -605.5 207.5t-223.5 557.5t223.5 557t605.5 207q381 0 604.5 -207t223.5 -557t-223.5 -557.5t-604.5 -207.5zM855 435q114 0 192.5 73.5t78.5 208.5q0 137 -78.5 209t-192.5 72q-116 0 -193.5 -72.5t-77.5 -208.5 q0 -135 78.5 -208.5t192.5 -73.5z" glyph-name="Omacron" unicode="Ō"/><glyph d="M428 1533v402h854v-402h-854zM855 -48q-382 0 -605.5 207.5t-223.5 557.5t223.5 557t605.5 207q381 0 604.5 -207t223.5 -557t-223.5 -557.5t-604.5 -207.5zM855 435q114 0 192.5 73.5t78.5 208.5q0 137 -78.5 209t-192.5 72q-116 0 -193.5 -72.5t-77.5 -208.5 q0 -135 78.5 -208.5t192.5 -73.5z" glyph-name="omacron" unicode="ō"/><glyph d="M300 1536l125 312h493l-124 -312h-494zM840 1536l124 312h493l-124 -312h-493zM855 -48q-382 0 -605.5 207.5t-223.5 557.5t223.5 557t605.5 207q381 0 604.5 -207t223.5 -557t-223.5 -557.5t-604.5 -207.5zM855 435q114 0 192.5 73.5t78.5 208.5q0 137 -78.5 209 t-192.5 72q-116 0 -193.5 -72.5t-77.5 -208.5q0 -135 78.5 -208.5t192.5 -73.5z" glyph-name="Ohungarumlaut" unicode="Ő"/><glyph d="M300 1536l125 312h493l-124 -312h-494zM840 1536l124 312h493l-124 -312h-493zM855 -48q-382 0 -605.5 207.5t-223.5 557.5t223.5 557t605.5 207q381 0 604.5 -207t223.5 -557t-223.5 -557.5t-604.5 -207.5zM855 435q114 0 192.5 73.5t78.5 208.5q0 137 -78.5 209 t-192.5 72q-116 0 -193.5 -72.5t-77.5 -208.5q0 -135 78.5 -208.5t192.5 -73.5z" glyph-name="ohungarumlaut" unicode="ő"/><glyph d="M2471 988h-787v-95h757v-354h-757v-94h787v-445h-1292q-148 -48 -324 -48q-382 0 -605.5 207.5t-223.5 557.5t223.5 557t605.5 207q174 0 326 -47h1290v-446zM855 435q102 0 177.5 60t90.5 171v102q-15 113 -90.5 171.5t-177.5 58.5q-116 0 -193.5 -72.5t-77.5 -208.5 q0 -135 78.5 -208.5t192.5 -73.5z" glyph-name="OE" horiz-adv-x="2522" unicode="Œ"/><glyph d="M2471 988h-787v-95h757v-354h-757v-94h787v-445h-1292q-148 -48 -324 -48q-382 0 -605.5 207.5t-223.5 557.5t223.5 557t605.5 207q174 0 326 -47h1290v-446zM855 435q102 0 177.5 60t90.5 171v102q-15 113 -90.5 171.5t-177.5 58.5q-116 0 -193.5 -72.5t-77.5 -208.5 q0 -135 78.5 -208.5t192.5 -73.5z" glyph-name="oe" horiz-adv-x="2522" unicode="œ"/><glyph d="M1174 1831l-124 -312h-494l125 312h493zM1618 0h-550l-167 333h-288v-333h-562v1434h867q314 0 479 -136.5t165 -433.5q0 -256 -186 -405zM613 969v-221h263q123 0 122.5 110.5t-122.5 110.5h-263z" glyph-name="Racute" horiz-adv-x="1646" unicode="Ŕ"/><glyph d="M1174 1831l-124 -312h-494l125 312h493zM1618 0h-550l-167 333h-288v-333h-562v1434h867q314 0 479 -136.5t165 -433.5q0 -256 -186 -405zM613 969v-221h263q123 0 122.5 110.5t-122.5 110.5h-263z" glyph-name="racute" horiz-adv-x="1646" unicode="ŕ"/><glyph d="M613 333v-333h-562v1434h867q314 0 479 -136.5t165 -433.5q0 -256 -186 -405l242 -459h-550l-167 333h-288zM613 969v-221h263q123 0 122.5 110.5t-122.5 110.5h-263zM539 -512v393h536v-86q0 -256 -30 -426.5t-65 -228.5h-285q19 160 15 348h-171z" glyph-name="Rcommaaccent" horiz-adv-x="1646" unicode="Ŗ"/><glyph d="M613 333v-333h-562v1434h867q314 0 479 -136.5t165 -433.5q0 -256 -186 -405l242 -459h-550l-167 333h-288zM613 969v-221h263q123 0 122.5 110.5t-122.5 110.5h-263zM539 -512v393h536v-86q0 -256 -30 -426.5t-65 -228.5h-285q19 160 15 348h-171z" glyph-name="rcommaaccent" horiz-adv-x="1646" unicode="ŗ"/><glyph d="M1147 1454h-671l-220 312h454l51 -66h101l51 66h454zM1618 0h-550l-167 333h-288v-333h-562v1434h867q314 0 479 -136.5t165 -433.5q0 -256 -186 -405zM613 969v-221h263q123 0 122.5 110.5t-122.5 110.5h-263z" glyph-name="Rcaron" horiz-adv-x="1646" unicode="Ř"/><glyph d="M1147 1454h-671l-220 312h454l51 -66h101l51 66h454zM1618 0h-550l-167 333h-288v-333h-562v1434h867q314 0 479 -136.5t165 -433.5q0 -256 -186 -405zM613 969v-221h263q123 0 122.5 110.5t-122.5 110.5h-263z" glyph-name="rcaron" horiz-adv-x="1646" unicode="ř"/><glyph d="M538 1519l124 312h493l-124 -312h-493zM768 -48q-406 2 -585.5 130t-165.5 421h504q0 -114 247 -116q108 -2 160 18t52 51v5v5t-1 7t-2.5 8.5t-5 8.5t-9.5 9t-14 8.5t-19 8t-25.5 7t-31.5 4.5l-189 29q-26 3 -83 11t-88 13t-85.5 15.5t-86 20.5t-77 29t-71.5 41t-57 53.5 t-48 69.5t-28 88t-11 110q0 225 181.5 349.5t541.5 124.5q176 0 302.5 -23.5t229 -82.5t151 -169t43.5 -272h-500q-22 114 -238 114q-172 0 -172 -70q0 -9 1 -14t7 -18.5t24.5 -22t47.5 -12.5l150 -24q41 -7 114.5 -16t123 -15t118 -21.5t115.5 -33.5t98 -51t81.5 -75 t50.5 -104t20 -139q0 -247 -189.5 -365t-580.5 -115z" glyph-name="Sacute" horiz-adv-x="1559" unicode="Ś"/><glyph d="M538 1519l124 312h493l-124 -312h-493zM768 -48q-406 2 -585.5 130t-165.5 421h504q0 -114 247 -116q108 -2 160 18t52 51v5v5t-1 7t-2.5 8.5t-5 8.5t-9.5 9t-14 8.5t-19 8t-25.5 7t-31.5 4.5l-189 29q-26 3 -83 11t-88 13t-85.5 15.5t-86 20.5t-77 29t-71.5 41t-57 53.5 t-48 69.5t-28 88t-11 110q0 225 181.5 349.5t541.5 124.5q176 0 302.5 -23.5t229 -82.5t151 -169t43.5 -272h-500q-22 114 -238 114q-172 0 -172 -70q0 -9 1 -14t7 -18.5t24.5 -22t47.5 -12.5l150 -24q41 -7 114.5 -16t123 -15t118 -21.5t115.5 -33.5t98 -51t81.5 -75 t50.5 -104t20 -139q0 -247 -189.5 -365t-580.5 -115z" glyph-name="sacute" horiz-adv-x="1559" unicode="ś"/><glyph d="M1538 432q0 -236 -170 -353t-520 -127l-8 -5q82 -5 144 -56t62 -145q0 -137 -137.5 -193t-335.5 -16v200q65 -14 112 -14.5t62.5 4.5t15.5 8q0 7 -17 15.5t-60 13t-113 -12.5v119l116 84q-364 12 -524 141t-148 408h504q0 -114 247 -116q108 -2 160 18t52 51v5v5t-1 7 t-2.5 8.5t-5 8.5t-9.5 9t-14 8.5t-19 8t-25.5 7t-31.5 4.5l-189 29q-26 3 -83 11t-88 13t-85.5 15.5t-86 20.5t-77 29t-71.5 41t-57 53.5t-48 69.5t-28 88t-11 110q0 225 181.5 349.5t541.5 124.5q176 0 302.5 -23.5t229 -82.5t151 -169t43.5 -272h-500q-22 114 -238 114 q-172 0 -172 -70q0 -9 1 -14t7 -18.5t24.5 -22t47.5 -12.5l150 -24q41 -7 114.5 -16t123 -15t118 -21.5t115.5 -33.5t98 -51t81.5 -75t50.5 -104t20 -139z" glyph-name="Scedilla" horiz-adv-x="1559" unicode="Ş"/><glyph d="M1538 432q0 -236 -170 -353t-520 -127l-8 -5q82 -5 144 -56t62 -145q0 -137 -137.5 -193t-335.5 -16v200q65 -14 112 -14.5t62.5 4.5t15.5 8q0 7 -17 15.5t-60 13t-113 -12.5v119l116 84q-364 12 -524 141t-148 408h504q0 -114 247 -116q108 -2 160 18t52 51v5v5t-1 7 t-2.5 8.5t-5 8.5t-9.5 9t-14 8.5t-19 8t-25.5 7t-31.5 4.5l-189 29q-26 3 -83 11t-88 13t-85.5 15.5t-86 20.5t-77 29t-71.5 41t-57 53.5t-48 69.5t-28 88t-11 110q0 225 181.5 349.5t541.5 124.5q176 0 302.5 -23.5t229 -82.5t151 -169t43.5 -272h-500q-22 114 -238 114 q-172 0 -172 -70q0 -9 1 -14t7 -18.5t24.5 -22t47.5 -12.5l150 -24q41 -7 114.5 -16t123 -15t118 -21.5t115.5 -33.5t98 -51t81.5 -75t50.5 -104t20 -139z" glyph-name="scedilla" horiz-adv-x="1559" unicode="ş"/><glyph d="M817 887q41 -7 114.5 -16t123 -15t118 -21.5t115.5 -33.5t98 -51t81.5 -75t50.5 -104t20 -139q0 -247 -189.5 -365t-580.5 -115q-406 2 -585.5 130t-165.5 421h504q0 -114 247 -116q108 -2 160 18t52 51v5v5t-1 7t-2.5 8.5t-5 8.5t-9.5 9t-14 8.5t-19 8t-25.5 7 t-31.5 4.5l-189 29q-26 3 -83 11t-88 13t-85.5 15.5t-86 20.5t-77 29t-71.5 41t-57 53.5t-48 69.5t-28 88t-11 110q0 172 107.5 286.5t320.5 160.5h-19l-220 312h454l51 -66h101l51 66h454l-220 -312h-34q203 -43 307 -165.5t96 -354.5h-500q-22 114 -238 114 q-172 0 -172 -70q0 -9 1 -14t7 -18.5t24.5 -22t47.5 -12.5z" glyph-name="Scaron" horiz-adv-x="1559" unicode="Š"/><glyph d="M817 887q41 -7 114.5 -16t123 -15t118 -21.5t115.5 -33.5t98 -51t81.5 -75t50.5 -104t20 -139q0 -247 -189.5 -365t-580.5 -115q-406 2 -585.5 130t-165.5 421h504q0 -114 247 -116q108 -2 160 18t52 51v5v5t-1 7t-2.5 8.5t-5 8.5t-9.5 9t-14 8.5t-19 8t-25.5 7 t-31.5 4.5l-189 29q-26 3 -83 11t-88 13t-85.5 15.5t-86 20.5t-77 29t-71.5 41t-57 53.5t-48 69.5t-28 88t-11 110q0 172 107.5 286.5t320.5 160.5h-19l-220 312h454l51 -66h101l51 66h454l-220 -312h-34q203 -43 307 -165.5t96 -354.5h-500q-22 114 -238 114 q-172 0 -172 -70q0 -9 1 -14t7 -18.5t24.5 -22t47.5 -12.5z" glyph-name="scaron" horiz-adv-x="1559" unicode="š"/><glyph d="M1606 1434v-466h-502v-968h-148l-79 -53q82 -5 144.5 -56t62.5 -145q0 -137 -137.5 -193t-335.5 -16v200q65 -14 112 -14.5t62 4.5t15 8q0 7 -17 15.5t-59.5 13t-112.5 -12.5v119l181 130h-248v968h-501v466h1563z" glyph-name="Tcommaaccent" horiz-adv-x="1648" unicode="Ţ"/><glyph d="M1606 1434v-466h-502v-968h-148l-79 -53q82 -5 144.5 -56t62.5 -145q0 -137 -137.5 -193t-335.5 -16v200q65 -14 112 -14.5t62 4.5t15 8q0 7 -17 15.5t-59.5 13t-112.5 -12.5v119l181 130h-248v968h-501v466h1563z" glyph-name="tcommaaccent" horiz-adv-x="1648" unicode="ţ"/><glyph d="M1166 1454h-671l-220 312h454l51 -66h101l51 66h454zM1606 1434v-466h-502v-968h-560v968h-501v466h1563z" glyph-name="Tcaron" horiz-adv-x="1648" unicode="Ť"/><glyph d="M1166 1454h-671l-220 312h454l51 -66h101l51 66h454zM1606 1434v-466h-502v-968h-560v968h-501v466h1563z" glyph-name="tcaron" horiz-adv-x="1648" unicode="ť"/><glyph d="M1606 968h-502v-161h386v-403h-386v-404h-560v404h-378v403h378v161h-501v466h1563v-466z" glyph-name="Tbar" horiz-adv-x="1648" unicode="Ŧ"/><glyph d="M1606 968h-502v-161h386v-403h-386v-404h-560v404h-378v403h378v161h-501v466h1563v-466z" glyph-name="tbar" horiz-adv-x="1648" unicode="ŧ"/><glyph d="M401 1526v403h853v-403h-853zM827.5 -48q-397.5 0 -587 166.5t-189.5 524.5v791h565v-777q0 -236 212 -235q217 0 216 235v777h560v-785q0 -362 -189.5 -529.5t-587 -167.5z" glyph-name="Umacron" horiz-adv-x="1655" unicode="Ū"/><glyph d="M401 1526v403h853v-403h-853zM827.5 -48q-397.5 0 -587 166.5t-189.5 524.5v791h565v-777q0 -236 212 -235q217 0 216 235v777h560v-785q0 -362 -189.5 -529.5t-587 -167.5z" glyph-name="umacron" horiz-adv-x="1655" unicode="ū"/><glyph d="M828 1519q-249 0 -340.5 65.5t-84.5 246.5h327q-10 -97 97.5 -97t97.5 97h328q7 -181 -83.5 -246.5t-341.5 -65.5zM827.5 -48q-397.5 0 -587 166.5t-189.5 524.5v791h565v-777q0 -236 212 -235q217 0 216 235v777h560v-785q0 -362 -189.5 -529.5t-587 -167.5z" glyph-name="Ubreve" horiz-adv-x="1655" unicode="Ŭ"/><glyph d="M828 1519q-249 0 -340.5 65.5t-84.5 246.5h327q-10 -97 97.5 -97t97.5 97h328q7 -181 -83.5 -246.5t-341.5 -65.5zM827.5 -48q-397.5 0 -587 166.5t-189.5 524.5v791h565v-777q0 -236 212 -235q217 0 216 235v777h560v-785q0 -362 -189.5 -529.5t-587 -167.5z" glyph-name="ubreve" horiz-adv-x="1655" unicode="ŭ"/><glyph d="M828 1406q-111 0 -187 76t-76 184q0 109 76 186t187 77t184 -77t73 -186q0 -108 -74 -184t-183 -76zM828 1623q51 0 44 46q-5 46 -44 46q-46 0 -46 -46t46 -46zM827.5 -48q-397.5 0 -587 166.5t-189.5 524.5v791h565v-777q0 -236 212 -235q217 0 216 235v777h560v-785 q0 -362 -189.5 -529.5t-587 -167.5z" glyph-name="Uring" horiz-adv-x="1655" unicode="Ů"/><glyph d="M828 1406q-111 0 -187 76t-76 184q0 109 76 186t187 77t184 -77t73 -186q0 -108 -74 -184t-183 -76zM828 1623q51 0 44 46q-5 46 -44 46q-46 0 -46 -46t46 -46zM827.5 -48q-397.5 0 -587 166.5t-189.5 524.5v791h565v-777q0 -236 212 -235q217 0 216 235v777h560v-785 q0 -362 -189.5 -529.5t-587 -167.5z" glyph-name="uring" horiz-adv-x="1655" unicode="ů"/><glyph d="M273 1529l125 312h493l-125 -312h-493zM812 1529l125 312h493l-124 -312h-494zM827.5 -48q-397.5 0 -587 166.5t-189.5 524.5v791h565v-777q0 -236 212 -235q217 0 216 235v777h560v-785q0 -362 -189.5 -529.5t-587 -167.5z" glyph-name="Uhungarumlaut" horiz-adv-x="1655" unicode="Ű"/><glyph d="M273 1529l125 312h493l-125 -312h-493zM812 1529l125 312h493l-124 -312h-494zM827.5 -48q-397.5 0 -587 166.5t-189.5 524.5v791h565v-777q0 -236 212 -235q217 0 216 235v777h560v-785q0 -362 -189.5 -529.5t-587 -167.5z" glyph-name="uhungarumlaut" horiz-adv-x="1655" unicode="ű"/><glyph d="M1044 1434h560v-785q0 -316 -145 -483.5t-445 -203.5v-1q-89 -5 -122.5 -14.5t-33.5 -28.5q0 -32 38 -37q10 -2 26 -2v-297q-72 0 -140.5 12t-137.5 40t-110.5 84.5t-41.5 133.5q0 79 46 128q-247 55 -367 216.5t-120 446.5v791h565v-777q0 -236 212 -235q217 0 216 235 v777z" glyph-name="Uogonek" horiz-adv-x="1655" unicode="Ų"/><glyph d="M1044 1434h560v-785q0 -316 -145 -483.5t-445 -203.5v-1q-89 -5 -122.5 -14.5t-33.5 -28.5q0 -32 38 -37q10 -2 26 -2v-297q-72 0 -140.5 12t-137.5 40t-110.5 84.5t-41.5 133.5q0 79 46 128q-247 55 -367 216.5t-120 446.5v791h565v-777q0 -236 212 -235q217 0 216 235 v777z" glyph-name="uogonek" horiz-adv-x="1655" unicode="ų"/><glyph d="M575 1519l220 312h671l220 -312h-454l-51 66h-101l-51 -66h-454zM280 0l-249 1434h570l104 -833h48l158 833h436l158 -833h48l104 833h570l-249 -1434h-758l-68 546h-46l-68 -546h-758z" glyph-name="Wcircumflex" horiz-adv-x="2257" unicode="Ŵ"/><glyph d="M575 1519l220 312h671l220 -312h-454l-51 66h-101l-51 -66h-454zM280 0l-249 1434h570l104 -833h48l158 833h436l158 -833h48l104 833h570l-249 -1434h-758l-68 546h-46l-68 -546h-758z" glyph-name="wcircumflex" horiz-adv-x="2257" unicode="ŵ"/><glyph d="M804 1585l-51 -66h-454l220 312h671l220 -312h-454l-51 66h-101zM1717 1434l-584 -999v-435h-560v440l-582 994h588l256 -471h39l258 471h585z" glyph-name="Ycircumflex" unicode="Ŷ"/><glyph d="M804 1585l-51 -66h-454l220 312h671l220 -312h-454l-51 66h-101zM1717 1434l-584 -999v-435h-560v440l-582 994h588l256 -471h39l258 471h585z" glyph-name="ycircumflex" unicode="ŷ"/><glyph d="M575 1517q-80 0 -136.5 52t-56.5 130.5t56.5 130.5t136.5 52t136.5 -51t56.5 -131t-56.5 -131.5t-136.5 -51.5zM1133 1517q-80 0 -136.5 51.5t-56.5 131.5t56.5 131t136.5 51t136.5 -52t56.5 -130.5t-56.5 -130.5t-136.5 -52zM1717 1434l-584 -999v-435h-560v440 l-582 994h588l256 -471h39l258 471h585z" glyph-name="Ydieresis" unicode="Ÿ"/><glyph d="M471 1519l125 312h493l-125 -312h-493zM26 0v451l662 474v43h-649v466h1383v-449l-674 -476v-41h663v-468h-1385z" glyph-name="Zacute" horiz-adv-x="1447" unicode="Ź"/><glyph d="M471 1519l125 312h493l-125 -312h-493zM26 0v451l662 474v43h-649v466h1383v-449l-674 -476v-41h663v-468h-1385z" glyph-name="zacute" horiz-adv-x="1447" unicode="ź"/><glyph d="M722 1517q-80 0 -136.5 52t-56.5 130.5t56.5 130.5t136.5 52t136.5 -51t56.5 -131t-56.5 -131.5t-136.5 -51.5zM26 0v451l662 474v43h-649v466h1383v-449l-674 -476v-41h663v-468h-1385z" glyph-name="Zdotaccent" horiz-adv-x="1447" unicode="Ż"/><glyph d="M722 1517q-80 0 -136.5 52t-56.5 130.5t56.5 130.5t136.5 52t136.5 -51t56.5 -131t-56.5 -131.5t-136.5 -51.5zM26 0v451l662 474v43h-649v466h1383v-449l-674 -476v-41h663v-468h-1385z" glyph-name="zdotaccent" horiz-adv-x="1447" unicode="ż"/><glyph d="M171 1766h454l51 -66h101l51 66h454l-220 -312h-671zM26 0v451l662 474v43h-649v466h1383v-449l-674 -476v-41h663v-468h-1385z" glyph-name="Zcaron" horiz-adv-x="1447" unicode="Ž"/><glyph d="M171 1766h454l51 -66h101l51 66h454l-220 -312h-671zM26 0v451l662 474v43h-649v466h1383v-449l-674 -476v-41h663v-468h-1385z" glyph-name="zcaron" horiz-adv-x="1447" unicode="ž"/><glyph d="M1058 1092q-61 0 -104 -26.5t-43 -79.5v-25h343v-423h-343v-118q0 -222 -145 -337t-372 -115t-334 64v401q73 -27 196 -27q63 0 105 25.5t42 80.5v26h-343v423h343v116q0 222 144 337t373 115q225 0 334 -63v-401q-78 27 -196 27z" glyph-name="florin" horiz-adv-x="1314" unicode="ƒ"/><glyph d="M1241 1454h-671l-220 312h454l51 -66h101l51 66h454zM1224 0l-46 155h-552l-47 -155h-579l509 1434h785l508 -1434h-578zM751 567h302l-104 343h-94z" glyph-name="uni01CD" horiz-adv-x="1802" unicode="Ǎ"/><glyph d="M1241 1454h-671l-220 312h454l51 -66h101l51 66h454zM1224 0l-46 155h-552l-47 -155h-579l509 1434h785l508 -1434h-578zM751 567h302l-104 343h-94z" glyph-name="uni01CE" horiz-adv-x="1802" unicode="ǎ"/><glyph d="M-220 1766h454l51 -66h101l51 66h454l-220 -312h-671zM51 0v1434h562v-1434h-562z" glyph-name="uni01CF" horiz-adv-x="663" unicode="Ǐ"/><glyph d="M-220 1766h454l51 -66h101l51 66h454l-220 -312h-671zM51 0v1434h562v-1434h-562z" glyph-name="uni01D0" horiz-adv-x="663" unicode="ǐ"/><glyph d="M1075 1461q285 -56 446.5 -252.5t161.5 -491.5q0 -350 -223.5 -557.5t-604.5 -207.5q-382 0 -605.5 207.5t-223.5 557.5q0 295 161 491.5t448 252.5h-111l-220 312h454l51 -66h101l51 66h454l-220 -312h-120zM855 435q114 0 192.5 73.5t78.5 208.5q0 137 -78.5 209 t-192.5 72q-116 0 -193.5 -72.5t-77.5 -208.5q0 -135 78.5 -208.5t192.5 -73.5z" glyph-name="uni01D1" unicode="Ǒ"/><glyph d="M1075 1461q285 -56 446.5 -252.5t161.5 -491.5q0 -350 -223.5 -557.5t-604.5 -207.5q-382 0 -605.5 207.5t-223.5 557.5q0 295 161 491.5t448 252.5h-111l-220 312h454l51 -66h101l51 66h454l-220 -312h-120zM855 435q114 0 192.5 73.5t78.5 208.5q0 137 -78.5 209 t-192.5 72q-116 0 -193.5 -72.5t-77.5 -208.5q0 -135 78.5 -208.5t192.5 -73.5z" glyph-name="uni01D2" unicode="ǒ"/><glyph d="M276 1766h454l52 -66h100l52 66h454l-221 -312h-670zM827.5 -48q-397.5 0 -587 166.5t-189.5 524.5v791h565v-777q0 -236 212 -235q217 0 216 235v777h560v-785q0 -362 -189.5 -529.5t-587 -167.5z" glyph-name="uni01D3" horiz-adv-x="1655" unicode="Ǔ"/><glyph d="M276 1766h454l52 -66h100l52 66h454l-221 -312h-670zM827.5 -48q-397.5 0 -587 166.5t-189.5 524.5v791h565v-777q0 -236 212 -235q217 0 216 235v777h560v-785q0 -362 -189.5 -529.5t-587 -167.5z" glyph-name="uni01D4" horiz-adv-x="1655" unicode="ǔ"/><glyph d="M1041 -34q-9 -12 -8 -27q-9 -60 63 -57v-297q-72 0 -140.5 12t-137.5 40t-110.5 85.5t-41.5 135.5q0 56 22 106q-309 44 -485.5 244t-176.5 509q0 350 223.5 557t605.5 207q381 0 604.5 -207t223.5 -557q0 -302 -171 -502t-471 -249zM584 717q0 -135 78.5 -208.5 t192.5 -73.5t192.5 73.5t78.5 208.5q0 137 -78.5 209t-192.5 72q-116 0 -193.5 -72t-77.5 -209z" glyph-name="uni01EA" unicode="Ǫ"/><glyph d="M768 -48q-406 2 -585.5 130t-165.5 421h504q0 -114 247 -116q108 -2 160 18t52 51v5v5t-1 7t-2.5 8.5t-5 8.5t-9.5 9t-14 8.5t-19 8t-25.5 7t-31.5 4.5l-189 29q-26 3 -83 11t-88 13t-85.5 15.5t-86 20.5t-77 29t-71.5 41t-57 53.5t-48 69.5t-28 88t-11 110 q0 225 181.5 349.5t541.5 124.5q176 0 302.5 -23.5t229 -82.5t151 -169t43.5 -272h-500q-22 114 -238 114q-172 0 -172 -70q0 -9 1 -14t7 -18.5t24.5 -22t47.5 -12.5l150 -24q41 -7 114.5 -16t123 -15t118 -21.5t115.5 -33.5t98 -51t81.5 -75t50.5 -104t20 -139 q0 -247 -189.5 -365t-580.5 -115zM676 -860q19 160 15 348h-170v393h535v-86q0 -256 -29.5 -426.5t-65.5 -228.5h-285z" glyph-name="Scommaaccent" horiz-adv-x="1559" unicode="Ș"/><glyph d="M768 -48q-406 2 -585.5 130t-165.5 421h504q0 -114 247 -116q108 -2 160 18t52 51v5v5t-1 7t-2.5 8.5t-5 8.5t-9.5 9t-14 8.5t-19 8t-25.5 7t-31.5 4.5l-189 29q-26 3 -83 11t-88 13t-85.5 15.5t-86 20.5t-77 29t-71.5 41t-57 53.5t-48 69.5t-28 88t-11 110 q0 225 181.5 349.5t541.5 124.5q176 0 302.5 -23.5t229 -82.5t151 -169t43.5 -272h-500q-22 114 -238 114q-172 0 -172 -70q0 -9 1 -14t7 -18.5t24.5 -22t47.5 -12.5l150 -24q41 -7 114.5 -16t123 -15t118 -21.5t115.5 -33.5t98 -51t81.5 -75t50.5 -104t20 -139 q0 -247 -189.5 -365t-580.5 -115zM676 -860q19 160 15 348h-170v393h535v-86q0 -256 -29.5 -426.5t-65.5 -228.5h-285z" glyph-name="scommaaccent" horiz-adv-x="1559" unicode="ș"/><glyph d="M1606 1434v-466h-502v-968h-560v968h-501v466h1563zM558 -512v393h536v-86q0 -256 -30 -426.5t-66 -228.5h-285q19 160 16 348h-171z" glyph-name="uni021A" horiz-adv-x="1648" unicode="Ț"/><glyph d="M1606 1434v-466h-502v-968h-560v968h-501v466h1563zM558 -512v393h536v-86q0 -256 -30 -426.5t-66 -228.5h-285q19 160 16 348h-171z" glyph-name="uni021B" horiz-adv-x="1648" unicode="ț"/><glyph d="M0 1161l220 312h671l220 -312h-454l-51 66h-101l-51 -66h-454z" glyph-name="circumflex" horiz-adv-x="1111" unicode="ˆ"/><glyph d="M0 1408h454l51 -67h101l51 67h454l-220 -312h-671z" glyph-name="caron" horiz-adv-x="1111" unicode="ˇ"/><glyph d="M425 1161q-249 0 -340.5 65.5t-84.5 246.5h328q-10 -97 97 -97t97 97h328q7 -181 -83.5 -246.5t-341.5 -65.5z" glyph-name="breve" horiz-adv-x="849" unicode="˘"/><glyph d="M193 1159q-80 0 -136.5 52t-56.5 130.5t56.5 130.5t136.5 52t136.5 -51t56.5 -131.5t-56.5 -131.5t-136.5 -51z" glyph-name="dotaccent" horiz-adv-x="385" unicode="˙"/><glyph d="M263 1048q-111 0 -187 76t-76 183q0 109 76 186t187 77t184.5 -76.5t73.5 -186.5q0 -108 -74.5 -183.5t-183.5 -75.5zM263 1265q51 0 44 46q-5 46 -44 46q-46 0 -46 -46t46 -46z" glyph-name="ring" horiz-adv-x="520" unicode="˚"/><glyph d="M430 -418q-72 0 -140 12t-137 40t-111 85t-42 136q0 275 483 275v-130q-116 0 -116 -65q-9 -60 63 -56v-297z" glyph-name="ogonek" horiz-adv-x="482" unicode="˛"/><glyph d="M597 1159q-72 0 -182 44.5t-164 44.5q-46 0 -76 -22.5t-33 -61.5h-137q-31 160 59 244.5t226 84.5q68 0 179 -44t166 -44q48 0 77.5 22t31.5 61h138q29 -160 -60.5 -244.5t-224.5 -84.5z" glyph-name="tilde" horiz-adv-x="885" unicode="˜"/><glyph d="M0 1161l125 312h493l-125 -312h-493zM539 1161l125 312h493l-124 -312h-494z" glyph-name="hungarumlaut" horiz-adv-x="1109" unicode="˝"/><glyph d="M-406 -860q19 160 15 348h-170v393h535v-86q0 -256 -29.5 -426.5t-65.5 -228.5h-285z" glyph-name="uni0326" horiz-adv-x="0" unicode="̦"/><glyph d="M1294 1434l508 -1434h-1802l509 1434h785zM724 447h355l-149 461h-56z" glyph-name="Delta" horiz-adv-x="1802" unicode="Δ"/><glyph d="M1411 428h185v-428h-1570v428h186v33q-77 65 -125 179t-48 244q0 258 206.5 427.5t565 169.5t565 -169.5t206.5 -427.5q0 -130 -47 -244t-124 -179v-33zM811 572q82 9 146.5 65t64.5 170q0 73 -55.5 132t-155.5 59q-99 0 -155.5 -58.5t-56.5 -132.5q0 -114 65 -170 t147 -65z" glyph-name="Omega" horiz-adv-x="1621" unicode="Ω"/><glyph d="M872 1161h562v-1161h-553l-9 147h-49q-77 -109 -210 -156v-247h-562v1417h562v-606q0 -137 138 -133h5q116 0 116 117v622z" glyph-name="mu" horiz-adv-x="1484" unicode="μ"/><glyph d="M1630 456q20 0 51.5 7.5t33.5 -0.5v-379q-73 -97 -309 -98q-94 0 -167 20t-134.5 66t-94 130.5t-32.5 205.5v363h-229v-771h-561v771h-137v390h1622v-390h-135v-247q0 -68 92 -68z" glyph-name="pi" horiz-adv-x="1766" unicode="π"/><glyph d="M1382 1519h-493l-124 312h493zM280 0l-249 1434h570l104 -833h48l158 833h436l158 -833h48l104 833h570l-249 -1434h-758l-68 546h-46l-68 -546h-758z" glyph-name="Wgrave" horiz-adv-x="2257" unicode="Ẁ"/><glyph d="M1382 1519h-493l-124 312h493zM280 0l-249 1434h570l104 -833h48l158 833h436l158 -833h48l104 833h570l-249 -1434h-758l-68 546h-46l-68 -546h-758z" glyph-name="wgrave" horiz-adv-x="2257" unicode="ẁ"/><glyph d="M881 1519l124 312h493l-124 -312h-493zM280 0l-249 1434h570l104 -833h48l158 833h436l158 -833h48l104 833h570l-249 -1434h-758l-68 546h-46l-68 -546h-758z" glyph-name="Wacute" horiz-adv-x="2257" unicode="Ẃ"/><glyph d="M881 1519l124 312h493l-124 -312h-493zM280 0l-249 1434h570l104 -833h48l158 833h436l158 -833h48l104 833h570l-249 -1434h-758l-68 546h-46l-68 -546h-758z" glyph-name="wacute" horiz-adv-x="2257" unicode="ẃ"/><glyph d="M851.5 1517q-80.5 0 -136.5 52t-56 130.5t56 130.5t136.5 52t136.5 -51t56 -131t-56 -131.5t-136.5 -51.5zM1409.5 1517q-80.5 0 -136.5 51.5t-56 131.5t56 131t136.5 51t137 -52t56.5 -130.5t-56.5 -130.5t-137 -52zM280 0l-249 1434h570l104 -833h48l158 833h436 l158 -833h48l104 833h570l-249 -1434h-758l-68 546h-46l-68 -546h-758z" glyph-name="Wdieresis" horiz-adv-x="2257" unicode="Ẅ"/><glyph d="M851.5 1517q-80.5 0 -136.5 52t-56 130.5t56 130.5t136.5 52t136.5 -51t56 -131t-56 -131.5t-136.5 -51.5zM1409.5 1517q-80.5 0 -136.5 51.5t-56 131.5t56 131t136.5 51t137 -52t56.5 -130.5t-56.5 -130.5t-137 -52zM280 0l-249 1434h570l104 -833h48l158 833h436 l158 -833h48l104 833h570l-249 -1434h-758l-68 546h-46l-68 -546h-758z" glyph-name="wdieresis" horiz-adv-x="2257" unicode="ẅ"/><glyph d="M1377 869q195 -5 305 -140t110 -311q0 -225 -145 -340.5t-413 -115.5q-160 0 -270.5 29t-172 87.5t-87.5 131.5t-26 174h454q7 -60 93 -60q17 0 35 5.5t38 27.5t20 61q0 41 -26.5 66.5t-66.5 25.5q-58 0 -90 -37h-446l274 495h-210q-60 0 -96 -32.5t-36 -119.5v-816h-570 v947q0 123 25 210t68.5 141t117.5 83.5t157.5 41t203.5 11.5h1101z" glyph-name="uni1E9E" horiz-adv-x="1817" unicode="ẞ"/><glyph d="M1106 1519h-493l-125 312h493zM1717 1434l-584 -999v-435h-560v440l-582 994h588l256 -471h39l258 471h585z" glyph-name="Ygrave" unicode="Ỳ"/><glyph d="M1106 1519h-493l-125 312h493zM1717 1434l-584 -999v-435h-560v440l-582 994h588l256 -471h39l258 471h585z" glyph-name="ygrave" unicode="ỳ"/><glyph d="M68 442v468h1400v-468h-1400z" glyph-name="endash" horiz-adv-x="1536" unicode="–"/><glyph d="M68 442v468h1536v-468h-1536z" glyph-name="emdash" horiz-adv-x="1672" unicode="—"/><glyph d="M497 1434q-22 -183 -19 -415h203v-468h-638v101q0 305 35.5 509t76.5 273h342z" glyph-name="quoteleft" horiz-adv-x="723" unicode="‘"/><glyph d="M227 553q22 183 19 415h-203v467h638v-100q0 -305 -36 -509.5t-77 -272.5h-341z" glyph-name="quoteright" horiz-adv-x="723" unicode="’"/><glyph d="M227 -415q22 183 19 415h-203v468h638v-101q0 -305 -36 -509t-77 -273h-341z" glyph-name="quotesinglbase" horiz-adv-x="723" unicode="‚"/><glyph d="M454 1434q-20 -186 -17 -415h179v-468h-561v101q0 305 31.5 509t67.5 273h300zM1096 1434q-20 -186 -17 -415h179v-468h-562v101q0 305 31.5 509t67.5 273h301z" glyph-name="quotedblleft" horiz-adv-x="1302" unicode="“"/><glyph d="M207 553q20 186 17 415h-180v467h562v-100q0 -305 -31.5 -509.5t-67.5 -272.5h-300zM848 553q20 186 17 415h-179v467h562v-100q0 -305 -32 -509.5t-67 -272.5h-301z" glyph-name="quotedblright" horiz-adv-x="1302" unicode="”"/><glyph d="M207 -502q20 186 17 415h-180v468h562v-101q0 -305 -31.5 -509t-67.5 -273h-300zM848 -502q20 186 17 415h-179v468h562v-101q0 -305 -32 -509t-67 -273h-301z" glyph-name="quotedblbase" horiz-adv-x="1302" unicode="„"/><glyph d="M1403 1186v-440h-427v-425h-466v425h-425v440h425v427h466v-427h427z" glyph-name="dagger" horiz-adv-x="1488" unicode="†"/><glyph d="M1403 746h-427v-214h427v-440h-427v-425h-466v425h-425v440h425v214h-425v440h425v427h466v-427h427v-440z" glyph-name="daggerdbl" horiz-adv-x="1488" unicode="‡"/><glyph d="M572 314q-164 0 -282.5 119.5t-118.5 283.5q0 166 118.5 285t282.5 119q166 0 284.5 -119.5t118.5 -284.5q0 -164 -118.5 -283.5t-284.5 -119.5z" glyph-name="bullet" horiz-adv-x="1145" unicode="•"/><glyph d="M328 -27q-111 0 -191.5 79t-80.5 188.5t80.5 188t191.5 78.5t191 -78.5t80 -188t-80 -188.5t-191 -79zM1014 -27q-111 0 -191.5 79t-80.5 188.5t80.5 188t191.5 78.5t191 -78.5t80 -188t-80 -188.5t-191 -79zM1700 -27q-111 0 -191.5 79t-80.5 188.5t80.5 188t191.5 78.5 t191 -78.5t80 -188t-80 -188.5t-191 -79z" glyph-name="ellipsis" horiz-adv-x="2025" unicode="…"/><glyph d="M696 -48l-225 150l918 1391l226 -150zM484.5 660q-206.5 0 -307 112t-100.5 286q0 172 100.5 284t307 112t306.5 -111.5t100 -284t-100 -285.5t-306.5 -113zM484.5 997q32.5 0 48 19.5t15.5 41.5q0 24 -14.5 42t-48.5 18t-48.5 -18t-14.5 -42q0 -22 15 -41.5t47.5 -19.5z M1599.5 -20q-206.5 0 -306.5 112.5t-100 286.5q0 172 100 284t306.5 112t307 -112t100.5 -284q0 -174 -100.5 -286.5t-307 -112.5zM2469.5 -20q-206.5 0 -306.5 112.5t-100 286.5q0 172 100 284t306.5 112t307 -112t100.5 -284q0 -174 -100.5 -286.5t-307 -112.5z M1599.5 317q32.5 0 47.5 20t15 42q0 58 -63 58t-63 -58q0 -22 15.5 -42t48 -20zM2469.5 317q32.5 0 48 20t15.5 42q0 58 -63.5 58t-63.5 -58q0 -22 15.5 -42t48 -20z" glyph-name="perthousand" horiz-adv-x="2955" unicode="‰"/><glyph d="M1012 188h-579l-331 529l331 529h579l-331 -529z" glyph-name="guilsinglleft" horiz-adv-x="1114" unicode="‹"/><glyph d="M102 188l331 529l-331 529h579l331 -529l-331 -529h-579z" glyph-name="guilsinglright" horiz-adv-x="1114" unicode="›"/><glyph d="M908 435q208 0 244 212h507q-9 -154 -56 -276t-117.5 -198.5t-167 -128t-197 -72t-213.5 -20.5q-297 0 -497.5 149.5t-260.5 410.5h-124v166h102v39v17h-102v164h119q53 271 256 427t507 156q142 0 264.5 -35t231 -110.5t177 -215t78.5 -328.5h-507q-36 207 -244 206 q-125 0 -196 -100h239v-164h-291v-17q0 -27 2 -39h289v-166h-221q69 -77 178 -77z" glyph-name="Euro" horiz-adv-x="1686" unicode="€"/><glyph d="M1752.5 587q-187.5 0 -309.5 124.5t-122 305.5t122 304t309.5 123t310 -123t122.5 -304t-122.5 -305.5t-310 -124.5zM51 0v1434h418l231 -490h48v490h486v-1434h-418l-231 492h-47v-492h-487zM1753 925q43 0 68.5 25.5t25.5 66.5q0 39 -26 64t-68 25q-41 0 -66.5 -25 t-25.5 -64q0 -41 25.5 -66.5t66.5 -25.5zM1353 -2v442h799v-442h-799z" glyph-name="afii61352" horiz-adv-x="2210" unicode="№"/><glyph d="M1135 1434h321v-659h-222v350h-27l-40 -350h-215l-39 350h-29v-350h-220v457h-166v-457h-247v457h-208v202h942l56 -424h36z" glyph-name="trademark" horiz-adv-x="1498" unicode="™"/><glyph d="M688 1471q155 0 281.5 -39t229.5 -123t160.5 -231.5t57.5 -347.5q0 -123 -15.5 -224.5t-61.5 -205.5t-122 -175.5t-206 -117t-302 -45.5q-338 0 -509.5 134t-171.5 367q0 230 163 340t417 110q181 0 282 -36q10 104 -50.5 143.5t-152.5 39.5q-171 0 -188 -87h-440 q-14 251 154.5 374.5t473.5 123.5zM717 370q92 0 134.5 31.5t42.5 76.5q0 104 -177 104q-92 0 -139 -29t-47 -75q0 -44 46 -76t140 -32z" glyph-name="partialdiff" horiz-adv-x="1447" unicode="∂"/><glyph d="M51 1536h1178v-1792h-562v1326h-54v-1326h-562v1792z" glyph-name="product" horiz-adv-x="1280" unicode="∏"/><glyph d="M51 -256v468l529 413l-529 445v466h1135v-466h-517l507 -420v-49l-507 -389h517v-468h-1135z" glyph-name="summation" horiz-adv-x="1237" unicode="∑"/><glyph d="M85 485v467h1147v-467h-1147z" glyph-name="minus" horiz-adv-x="1317" unicode="−"/><glyph d="M464 -256l-174 674h-205v466h516l160 -625h33l192 1277h439l-307 -1792h-654z" glyph-name="radical" horiz-adv-x="1510" unicode="√"/><glyph d="M1084 1092q172 0 255.5 -108t83.5 -265q0 -164 -83.5 -271.5t-255.5 -107.5q-109 0 -184.5 47.5t-143.5 136.5q-68 -89 -144 -136.5t-185 -47.5q-174 0 -258 107.5t-84 271.5q0 157 84.5 265t257.5 108q109 0 185 -48.5t144 -137.5q70 90 144.5 138t183.5 48zM480 654 h13.5h15t14.5 1.5t19.5 6.5t20.5 12t26.5 19t30.5 29q-36 32 -65 46.5t-39.5 15.5t-35.5 1q-39 0 -57.5 -22t-18.5 -41q0 -27 17.5 -47.5t58.5 -20.5zM1031 654q41 0 58 20.5t17 47.5q0 10 -5 23t-24 26.5t-46 13.5q-49 0 -84 -22q-24 -14 -53 -41q15 -17 29 -29t26 -19 t19.5 -12t18.5 -6.5t14.5 -1.5h15.5h14z" glyph-name="infinity" horiz-adv-x="1508" unicode="∞"/><glyph d="M437 -256q-225 0 -335 63v401q79 -27 197 -27q61 0 103.5 26.5t42.5 79.5v790q0 222 144.5 337t373.5 115q225 0 334 -63v-401q-79 27 -196 27q-61 0 -104 -26.5t-43 -79.5v-790q0 -222 -144 -337t-373 -115z" glyph-name="integral" horiz-adv-x="1399" unicode="∫"/><glyph d="M829 736q-89 3 -227 57.5t-206 54.5q-60 0 -95.5 -28t-37.5 -76h-173q-19 104 4.5 186t78 130t125.5 72.5t149 24.5q87 0 225.5 -55.5t204.5 -57.5q60 3 96.5 30t40.5 75h172q19 -104 -5 -185.5t-79.5 -129t-125.5 -72t-147 -26.5zM829 273q-89 3 -227 58t-206 55 q-60 0 -95.5 -28.5t-37.5 -75.5h-173q-19 104 4.5 186t78 129.5t125.5 72.5t149 25q87 0 225.5 -55.5t204.5 -57.5q60 3 96.5 29.5t40.5 74.5h172q19 -104 -5 -185t-79.5 -129t-125.5 -72.5t-147 -26.5z" glyph-name="approxequal" horiz-adv-x="1276" unicode="≈"/><glyph d="M1261 1468l-104 -237h75v-466h-280l-41 -93h321v-465h-525l-67 -152h-584l67 152h-38v465h243l41 93h-284v466h488l105 237h583z" glyph-name="notequal" horiz-adv-x="1317" unicode="≠"/><glyph d="M1237 556l-1153 318v647l1153 327v-478l-728 -148v-50l728 -148v-468zM85 0v468h1147v-468h-1147z" glyph-name="lessequal" horiz-adv-x="1317" unicode="≤"/><glyph d="M181 556v468l729 148v50l-729 148v478l1154 -327v-647zM1333 0h-1147v468h1147v-468z" glyph-name="greaterequal" horiz-adv-x="1418" unicode="≥"/><glyph d="M416 0q-29 0 -34 22l-290 674q-10 20 0 41l290 674q5 22 34 23h569q27 0 34 -23l288 -674q10 -20 0 -41l-288 -674q-7 -22 -34 -22h-569zM700 386l133 331l-133 333l-133 -333z" glyph-name="lozenge" horiz-adv-x="1399" unicode="◊"/><glyph d="M1644 816q44 -411 -172 -637.5t-614 -226.5q-384 0 -608 208.5t-224 556.5q0 350 226 557t606 207q140 0 269 -35t238.5 -102t181 -181.5t86.5 -259.5h-556q-15 29 -68 62t-137 33q-126 0 -207 -75.5t-81 -205.5q0 -133 73 -207.5t201 -74.5q188 0 238 125h-253v256h801z " glyph-name="G.aalt" horiz-adv-x="1682"/><glyph d="M331 1517q-80 0 -136.5 52t-56.5 130.5t56.5 130.5t136.5 52t136.5 -51t56.5 -131t-56.5 -131.5t-136.5 -51.5zM51 0v1434h562v-1434h-562z" glyph-name="i.aalt" horiz-adv-x="663"/><glyph d="M1644 816q44 -411 -172 -637.5t-614 -226.5q-384 0 -608 208.5t-224 556.5q0 350 226 557t606 207q140 0 269 -35t238.5 -102t181 -181.5t86.5 -259.5h-556q-15 29 -68 62t-137 33q-126 0 -207 -75.5t-81 -205.5q0 -133 73 -207.5t201 -74.5q188 0 238 125h-253v256h801z " glyph-name="g.aalt" horiz-adv-x="1682"/></font>
</defs>
</svg>
