<?xml version="1.0" encoding="UTF-8"?>
<svg width="102px" height="26px" viewBox="0 0 102 26" version="1.1" xmlns="http://www.w3.org/2000/svg" xmlns:xlink="http://www.w3.org/1999/xlink">
    <!-- Generator: Sketch 50.2 (55047) - http://www.bohemiancoding.com/sketch -->
    <title>logo_saalbach</title>
    <desc>Created with Sketch.</desc>
    <defs></defs>
    <g id="Layout---Desktop" stroke="none" stroke-width="1" fill="none" fill-rule="evenodd">
        <g id="Home_v2" transform="translate(-1274.000000, -53.000000)">
            <g id="Group-19" transform="translate(826.000000, 53.000000)">
                <g id="logo_saalbach" transform="translate(448.000000, 0.000000)">
                    <path d="M0,25.4673347 L0,0 L101.869518,0 L101.869518,25.4673347 L0,25.4673347 Z" id="Fill-1" fill="#FFFFFF"></path>
                    <path d="M25.095114,16.3726794 C24.7316081,16.5370926 24.4751954,16.4973819 23.7701053,16.7194745 C22.7300796,17.0470431 21.9917475,18.2967631 19.7769311,18.1679278 C19.7179939,18.1645138 19.665166,18.2070995 19.6592364,18.265857 C19.6489942,18.3677393 19.6276115,18.4160749 19.5323777,18.5118479 C19.4092924,18.6356519 17.7164653,19.1324852 16.7012363,19.2052583 C14.8775975,19.3353513 13.0133495,18.6670971 12.5202896,18.5727616 C11.0953752,18.3005365 9.57540663,18.4114031 7.877189,15.0659988 C7.8638922,15.040124 7.84017357,15.0198194 7.81250184,15.010835 C5.97520683,14.4158929 6.0264175,13.3411876 4.68487768,12.5259497 C4.54184719,12.4389814 4.06891218,12.4007082 3.63119573,12.1272252 C3.60514118,12.1108738 3.58717252,12.0848192 3.58088349,12.0546319 C3.55069615,11.9107029 3.51080574,11.4463929 3.96595178,10.6396002 C4.39288703,9.88294017 4.74381487,9.55842625 4.88522819,9.44755964 C4.92368111,9.4173723 4.97812614,9.41629418 5.01747749,9.44522372 C5.8125905,10.0295644 5.06850848,10.5576632 5.25322625,11.1759646 C5.4530377,11.8451173 6.38597029,12.4650359 7.33830903,12.9947519 C7.38035568,13.0181112 7.42707419,13.0407517 7.47558956,13.0664468 C7.46732397,12.7970967 7.50685502,12.5998009 7.55770631,12.564762 C7.64683084,12.5031295 7.95517297,12.8864009 7.95517297,12.8864009 C7.95517297,12.8864009 8.01698514,12.7974561 8.08544572,12.7836202 C8.1539063,12.7701437 8.55155264,13.3927576 8.578865,13.4132419 C8.60635704,13.4339058 8.64067717,13.2353522 8.68182539,13.2148679 C8.72279393,13.1943837 8.96285516,13.5296788 9.01065179,13.4748744 C9.0586281,13.42007 8.68865348,12.9548615 8.80509037,12.9341975 C8.86654317,12.9234163 9.02107361,13.0172127 9.18386963,13.1171185 C9.28754877,13.1810869 9.40380597,13.0556657 9.33139229,12.9577365 C9.05395625,12.5827306 8.73105951,12.1171628 9.44944635,12.4758171 C9.95939679,12.7302533 10.4449099,13.1755166 10.8109314,13.5677723 C10.8835247,13.6453969 11.015235,13.5884363 11.0033757,13.4829603 C10.912634,12.6774255 10.3658478,11.5946343 9.2176507,10.8510913 L9.21657258,10.8505523 C7.94259491,10.080236 6.87938957,9.04542114 6.13872159,8.30169849 C6.03989399,8.20610524 5.95238664,8.12165256 5.87386361,8.0463639 L5.52994355,7.72903744 C5.26670275,7.50335113 5.15134398,7.47280441 4.94883723,7.50676517 C4.86833766,7.52994474 4.78586153,7.54701496 4.70392446,7.55779615 C4.36952778,7.60163967 4.05076383,7.54683527 3.95570965,7.42213281 C3.76039036,7.16554041 4.95907936,7.2458603 5.00454006,6.69332414 C5.06455537,5.96110143 4.4173244,5.41880741 4.63420607,5.28709717 C4.70446352,5.24451146 4.88576725,5.35555775 5.07407876,5.55536919 C5.08989118,5.57208004 5.11037544,5.58483779 5.13319564,5.58843152 C5.18242975,5.59615804 5.24280443,5.61736106 5.3033588,5.66767329 C5.36211631,5.71654803 5.44207682,5.80423507 5.51772486,5.91312512 C5.52994355,5.93055472 5.5466544,5.94403121 5.56624023,5.95229679 C5.64045078,5.98392163 5.71717694,6.03028076 5.75185644,6.09478823 C5.81618423,6.21481885 5.9180665,6.52873126 5.83828567,6.87390913 C5.86847302,6.89619026 5.89830098,6.91811202 5.92669146,6.93931503 L6.28822081,7.22160261 C6.33278307,7.25807898 6.37321255,7.29203974 6.4098686,7.3233052 C6.4794073,7.38296114 6.58470362,7.33606295 6.59207077,7.24496186 C6.60932068,7.03400985 6.66879693,6.92601823 6.70078113,6.98100232 C6.73078879,7.03221298 6.88352236,7.25143058 7.02583411,7.44549206 C7.09734936,7.54324154 7.25457509,7.47190598 7.22366901,7.35493003 C7.22277057,7.35223474 7.22205183,7.34935975 7.22133308,7.34666445 C7.19312229,7.24352437 7.30866075,7.1615873 7.39419155,7.22537603 C7.65114332,7.4169219 7.80782999,7.66704558 8.00314928,8.08266058 C8.06406302,7.96101278 8.0509459,7.85823207 8.03082101,7.76048259 C8.00961799,7.65788156 8.1298283,7.586546 8.21068725,7.6533894 C8.4385298,7.84223997 8.67481762,8.16477733 8.67481762,8.16477733 C8.67481762,8.16477733 8.71794239,8.12740253 8.69997374,8.02318433 C8.68344257,7.92687234 8.78262955,7.85481803 8.86672286,7.90495058 C9.03958132,8.00773129 9.1975258,8.15615238 9.38134515,8.33745611 C9.46238379,8.41741663 9.59499246,8.33781549 9.56534418,8.228027 C9.50856323,8.01815311 9.48466492,7.81402918 9.50371169,7.67441273 C9.51539132,7.59067879 9.61493767,7.55294462 9.68196075,7.60469434 C9.93711566,7.80163081 10.4370037,8.35398728 11.2247495,9.41701293 C11.5021855,9.79147971 11.8266995,10.1677434 12.0387296,10.3991796 C12.0459171,10.4070858 12.051667,10.4157108 12.0561592,10.4254139 C12.3736653,11.1071447 12.8191083,11.5265331 13.216575,11.4449554 C13.5403701,11.378651 13.7621033,10.9935828 13.8452982,10.4467966 C13.8458373,10.4426638 13.8469154,10.4383513 13.8479935,10.4342185 C13.9257978,10.1808605 13.9647898,9.97116626 13.9716179,9.77890165 C13.9759303,9.65581636 13.9807819,9.52949671 13.9861725,9.40227863 C13.9872506,9.37442722 13.9782663,9.34639611 13.9602976,9.32501341 C13.6949006,9.01056194 13.3278009,8.81632078 12.9375217,8.82548479 C12.5700627,8.83410975 12.2284786,9.01397599 12.005847,9.30452915 C11.946191,9.38251311 11.8187933,9.34352113 11.8099886,9.24577164 C11.7997465,9.1300535 11.7932778,9.01217912 11.7909418,8.89232819 C11.7638092,7.4636404 11.8824023,6.01267148 12.5567659,5.95553115 C13.1394894,5.90629704 13.7355097,7.67800646 13.9471805,8.79709432 C13.9682038,8.90760155 13.9849147,9.0164916 13.9987505,9.12394416 C14.0079145,8.94156231 14.0185161,8.7598992 14.0323519,8.58524387 C14.0521174,8.33619831 14.0643361,8.00701254 14.2165306,7.79534178 C14.5024119,7.39751575 14.5496695,7.55941333 14.4700684,7.86200549 C14.4132874,8.07726998 15.0641121,8.38740897 15.0290732,8.71911035 C15.0076905,8.92323428 15.0287139,9.17066266 15.2240331,9.17066266 C15.0921432,8.61435309 15.2434393,8.54265816 15.1007682,8.32901084 C14.8607069,7.96981742 15.04812,8.00126257 15.4297742,8.19550374 C15.6878041,8.32703429 15.8718032,9.17066266 16.1391768,8.99618702 C16.4065504,8.82171138 15.5016489,7.82606818 15.8204128,7.87745853 C16.0320836,7.91141929 16.4476986,8.15363677 16.7030332,8.31265937 C16.7824546,8.36207317 16.88254,8.29738601 16.8710401,8.20466775 C16.8624151,8.13405093 16.858462,8.05894195 16.8669073,7.99461417 C16.8780479,7.91159898 16.9775942,7.87278668 17.0440783,7.92399735 C17.1004998,7.9674815 17.1687807,8.0222859 17.2395772,8.086434 C17.3049831,8.08481682 17.3490063,8.08068403 17.3845843,8.06091851 C17.4555605,8.02174684 17.5396538,8.00000476 17.6296767,7.99102044 C17.6521376,7.98868451 17.6738796,7.97987987 17.6909498,7.96514557 C17.7320981,7.92974732 17.7703713,7.89650531 17.8005586,7.8699117 C17.8386522,7.83631031 17.8463787,7.78186529 17.8246366,7.73604522 C17.7053248,7.48538247 17.710356,7.23166506 17.7313793,7.12295469 C17.743598,7.05970503 17.795168,7.00076784 17.8492537,6.95458839 C17.8654255,6.94075253 17.8774645,6.92296356 17.8839332,6.90265898 C17.9195111,6.79125331 17.9640734,6.6965585 18.0009092,6.63977755 C18.0478073,6.56772324 18.1062055,6.53286405 18.1511271,6.51597351 C18.2623531,6.27717008 18.3965789,6.11940529 18.4711489,6.13809269 C18.6912649,6.19325646 18.2982904,6.82126097 18.5281095,7.43650773 C18.7437334,8.0142 19.5097371,7.51089796 19.4109095,7.78150591 C19.3629332,7.91303647 19.3110038,8.04420766 19.0143413,8.09505895 C18.9410292,8.10745732 18.8659202,8.11464479 18.7911706,8.11626196 C18.6883899,8.13009783 18.6147184,8.15435551 18.5403282,8.21994111 C18.5573984,8.23431603 18.5692577,8.24779252 18.574828,8.25983152 C18.8876623,8.93114049 17.7565354,10.4254139 16.4345815,11.2853937 C16.4236206,11.2927609 16.4130191,11.300128 16.4015191,11.3074952 C15.9310997,11.6190717 14.5969271,12.3665677 14.5969271,14.3005341 C14.5969271,14.4033148 14.6028567,14.5026815 14.6143567,14.5989935 C14.6235207,14.6762587 14.7041999,14.7222584 14.7742777,14.688118 C15.301478,14.431885 15.8373034,14.0867071 15.9061233,14.0142934 C16.0024353,13.9127705 16.243395,13.6899592 16.0022556,14.9360854 C15.9839276,15.0302412 16.0863489,15.1026549 16.1677469,15.0519833 C16.5885728,14.790719 17.1211638,14.6151653 17.3317564,14.6654775 C17.6179971,14.7337584 17.1867494,14.881281 17.084328,15.5069496 C17.0690547,15.6003866 17.168601,15.6720816 17.2498194,15.6232068 C17.5703802,15.4305828 17.9328079,15.049827 18.0240887,14.9871164 C18.1336975,14.9118278 18.2503141,14.952976 18.1473537,15.2129824 C18.044573,15.4729889 18.1446584,15.7525811 18.1872441,15.7701904 C18.2296501,15.7877997 18.7505615,15.3087554 18.839686,15.3224115 C18.9155137,15.3340912 19.0060757,15.5337229 19.0400365,15.8877054 C19.0479427,15.9716191 19.140661,16.0170798 19.2112778,15.97108 C19.4509796,15.8152918 19.7501578,15.7058626 19.7170954,15.9588613 C19.689244,16.1721492 19.7084705,16.4012496 19.7239235,16.5266708 C19.7312907,16.5872252 19.7859154,16.6299906 19.8466494,16.6226234 C19.921399,16.6136391 20.0160939,16.5958501 20.0910231,16.5936939 C20.8246834,16.573569 22.206473,16.1221964 23.1746241,15.7209563 C23.974409,15.3896143 22.7710481,14.2096127 23.8486284,13.5388428 C23.8822298,13.5179992 23.9258936,13.5165617 23.9603934,13.5361475 C24.1167207,13.6249127 24.4421331,14.0221996 24.8552324,15.0823503 C25.0825359,15.6663316 25.1434497,16.0612826 25.158723,16.2646878 C25.1621371,16.3103282 25.1368013,16.353992 25.095114,16.3726794 Z M2.24563271,23.2255652 L26.2826624,23.2255652 L26.2826624,2.24194914 L2.24563271,2.24194914 L2.24563271,23.2255652 Z" id="Fill-2" fill="#111111"></path>
                    <path d="M73.9482584,14.7599746 C73.4726281,14.9804501 73.3195352,15.3367685 73.3195352,15.9475231 C73.3195352,16.5582777 73.6082914,16.9483772 74.0672109,16.9483772 C74.7467854,16.9483772 75.0188309,16.4395049 75.0188309,15.4386508 L75.0188309,14.3360941 L74.9848701,14.3360941 C74.8148867,14.57346 74.3901076,14.5565695 73.9482584,14.7599746" id="Fill-4" fill="#000000"></path>
                    <path d="M52.2335696,14.7599746 C51.7577596,14.9804501 51.6048463,15.3367685 51.6048463,15.9475231 C51.6048463,16.5582777 51.8936026,16.9483772 52.3523424,16.9483772 C53.0320966,16.9483772 53.3039624,16.4395049 53.3039624,15.4386508 L53.3039624,14.3360941 L53.2700016,14.3360941 C53.1000181,14.57346 52.6752391,14.5565695 52.2335696,14.7599746" id="Fill-6" fill="#000000"></path>
                    <path d="M43.7378456,14.7599746 C43.2620356,14.9804501 43.1089426,15.3367685 43.1089426,15.9475231 C43.1089426,16.5582777 43.3978786,16.9483772 43.8567981,16.9483772 C44.5363726,16.9483772 44.808418,16.4395049 44.808418,15.4386508 L44.808418,14.3360941 L44.7742776,14.3360941 C44.6044738,14.57346 44.1795151,14.5565695 43.7378456,14.7599746" id="Fill-8" fill="#000000"></path>
                    <path d="M82.9197924,17.0331713 C83.4804145,17.0331713 83.8033112,16.6770325 83.8033112,15.5232652 L83.8033112,14.9297605 L86.5559295,14.9297605 C86.5559295,16.3715654 86.3352744,17.3727789 85.7403323,18.0342051 C85.1457495,18.6956313 84.1943092,19.0010984 82.9197924,19.0010984 C80.5748829,19.0010984 78.9605789,18.2886412 78.9605789,14.3360761 C78.9605789,9.99341146 80.7790068,9.3486961 83.0728854,9.3486961 C85.7913633,9.3486961 86.5559295,10.8922036 86.5559295,13.1824884 L83.8033112,13.1824884 C83.8033112,12.4360705 83.7353897,11.99494 83.599367,11.7065431 C83.4635239,11.4181461 83.2428689,11.3164436 82.9197924,11.3164436 C82.222968,11.3164436 82.0192034,11.9270185 82.0192034,14.1831628 C82.0192034,16.4394869 82.222968,17.0331713 82.9197924,17.0331713 Z M75.205669,18.7635528 C75.1037867,18.4411951 75.0696463,18.1019469 75.018795,17.7287379 L74.9848342,17.7287379 C74.6448672,18.5430774 73.82927,19.0010984 72.9117904,19.0010984 C71.0766516,19.0010984 70.3629367,17.8816512 70.3629367,16.3038236 C70.3629367,14.6074028 70.9576991,13.8101336 72.9117904,13.3519328 L74.1182059,13.0635359 C74.78089,12.910982 75.018795,12.6225851 75.018795,12.0628615 C75.018795,11.5029582 74.7638197,11.2145613 74.2371584,11.2145613 C73.6594662,11.2145613 73.3876004,11.4689974 73.3705302,12.4360705 L70.7197941,12.4360705 C70.7197941,9.80653744 72.8438689,9.3486961 74.2371584,9.3486961 C76.3781237,9.3486961 77.8732956,9.90841972 77.8732956,12.3002274 L77.8732956,16.7787351 C77.8732956,17.627215 77.9072563,18.2886412 78.1620518,18.7635528 L75.205669,18.7635528 Z M53.4909083,18.7635528 C53.389026,18.4411951 53.3550652,18.1019469 53.3040343,17.7287379 L53.2698938,17.7287379 C52.9301065,18.5430774 52.1145093,19.0010984 51.1970297,19.0010984 C49.3618909,19.0010984 48.648176,17.8816512 48.648176,16.3038236 C48.648176,14.6074028 49.2429384,13.8101336 51.1970297,13.3519328 L52.4034452,13.0635359 C53.0661293,12.910982 53.3040343,12.6225851 53.3040343,12.0628615 C53.3040343,11.5029582 53.0492387,11.2145613 52.5223977,11.2145613 C51.9447055,11.2145613 51.6728397,11.4689974 51.6557695,12.4360705 L49.0050335,12.4360705 C49.0050335,9.80653744 51.1291082,9.3486961 52.5223977,9.3486961 C54.663363,9.3486961 56.1585349,9.90841972 56.1585349,12.3002274 L56.1585349,16.7787351 C56.1585349,17.627215 56.1926753,18.2886412 56.4474708,18.7635528 L53.4909083,18.7635528 Z M44.9951483,18.7635528 C44.893266,18.4411951 44.8593053,18.1019469 44.8082743,17.7287379 L44.7743135,17.7287379 C44.4343466,18.5430774 43.6187493,19.0010984 42.7012698,19.0010984 C40.866131,19.0010984 40.1525957,17.8816512 40.1525957,16.3038236 C40.1525957,14.6074028 40.7471785,13.8101336 42.7012698,13.3519328 L43.9076853,13.0635359 C44.5703693,12.910982 44.8082743,12.6225851 44.8082743,12.0628615 C44.8082743,11.5029582 44.5534788,11.2145613 44.0266378,11.2145613 C43.4489455,11.2145613 43.1770798,11.4689974 43.1601892,12.4360705 L40.5094532,12.4360705 C40.5094532,9.80653744 42.6333482,9.3486961 44.0266378,9.3486961 C46.1676031,9.3486961 47.6631343,9.90841972 47.6631343,12.3002274 L47.6631343,16.7787351 C47.6631343,17.627215 47.6969153,18.2886412 47.9517109,18.7635528 L44.9951483,18.7635528 Z M35.938946,19.0010984 C33.373022,19.0010984 32.3365899,17.9154323 32.3365899,15.9135444 L35.0212867,15.9135444 C35.0212867,16.2698628 35.0892083,16.609111 35.2421215,16.8126959 C35.3952145,17.0162807 35.6160492,17.1350536 35.887915,17.1350536 C36.3635453,17.1350536 36.7714338,16.8466566 36.7714338,16.3546748 C36.7714338,14.7259959 32.3365899,15.693069 32.3365899,12.2154154 C32.3365899,10.6041661 33.5090447,9.3486961 35.9897973,9.3486961 C38.2836758,9.3486961 39.4392401,10.3157691 39.4392401,12.2326653 L36.788504,12.2326653 C36.788504,11.4521069 36.4824978,11.2145613 35.9729067,11.2145613 C35.5139873,11.2145613 35.1910905,11.4860677 35.1910905,11.9270185 C35.1910905,13.4369246 39.6261141,12.4191799 39.6261141,15.9306146 C39.6261141,17.7118474 38.2497151,19.0010984 35.938946,19.0010984 Z M90.463573,2.2419132 L90.463573,10.6041661 L90.4977135,10.6041661 C91.0074842,9.63709302 91.8741125,9.3486961 92.6217882,9.3486961 C93.8788754,9.3486961 95.0175491,9.92548994 95.0175491,11.8423861 L95.0175491,18.7635528 L91.9592839,18.7635528 L91.9592839,12.7075769 C91.9592839,11.9442684 91.75516,11.6219107 91.2114285,11.6219107 C90.667697,11.6219107 90.463573,11.9442684 90.463573,12.7075769 L90.463573,18.7635528 L87.4053079,18.7635528 L87.4053079,2.2419132 L65.0109726,2.2419132 L65.0109726,10.6208769 L65.0449334,10.6208769 C65.3509396,9.68794432 66.0986153,9.3486961 66.9650639,9.3486961 C68.7322812,9.3486961 69.7857834,10.4343623 69.7857834,13.9797577 C69.7857834,17.3727789 69.088959,19.0010984 67.0331651,19.0010984 C65.9455224,19.0010984 65.3167992,18.5260072 64.9430511,17.5082625 L64.90927,17.5082625 L64.90927,18.7635528 L61.9525278,18.7635528 L61.9525278,2.2419132 L60.6273395,2.2419132 L60.6273395,18.7635528 L57.5687149,18.7635528 L57.5687149,2.2419132 L28.5283131,2.2419132 L28.5283131,23.2255293 L99.6239936,23.2255293 L99.6239936,2.2419132 L90.463573,2.2419132 Z" id="Fill-10" fill="#111111"></path>
                    <path d="M66.7272847,14.1831808 C66.7272847,12.1987225 66.5741918,11.6219287 65.8606564,11.6219287 C65.1640117,11.6219287 65.0109187,12.1987225 65.0109187,14.1831808 C65.0109187,16.1512876 65.1640117,16.7280815 65.8606564,16.7280815 C66.5741918,16.7280815 66.7272847,16.1512876 66.7272847,14.1831808" id="Fill-12" fill="#000000"></path>
                </g>
            </g>
        </g>
    </g>
</svg>