<?xml version="1.0" encoding="UTF-8"?>
<svg width="342px" height="57px" viewBox="0 0 342 57" version="1.1" xmlns="http://www.w3.org/2000/svg" xmlns:xlink="http://www.w3.org/1999/xlink">
    <!-- Generator: Sketch 50.2 (55047) - http://www.bohemiancoding.com/sketch -->
    <title>Logo</title>
    <desc>Created with Sketch.</desc>
    <defs></defs>
    <g id="Layout---Desktop" stroke="none" stroke-width="1" fill="none" fill-rule="evenodd">
        <g id="Home_v2" transform="translate(-56.000000, -31.000000)">
            <g id="Logo" transform="translate(56.000000, 31.000000)">
                <g id="Group-2">
                    <path d="M122.527369,20.5482015 L119.714705,20.5482015 L119.714705,15.1667492 L119.714705,15.1153983 C119.714705,13.5727899 118.462463,12.3218102 116.901722,12.3218102 C115.358111,12.3218102 114.106028,13.5727899 114.106028,15.1153983 L114.106028,20.5482015 L111.293204,20.5482015 L111.293044,16.1515358 C110.805723,18.7595565 108.513359,20.7368083 105.763132,20.7368083 C102.67591,20.7368083 100.154614,18.217412 100.154614,15.1153983 C100.154614,12.0132246 102.67591,9.51094527 105.763132,9.51094527 C108.513359,9.51094527 110.805723,11.4747594 111.293044,14.0797406 L111.293204,9.68243507 L114.123158,9.68243507 L114.123158,10.3507974 C114.963643,9.73378603 115.889778,9.51094527 116.901722,9.51094527 C120.006074,9.51094527 122.527369,12.0303416 122.527369,15.1153983 L122.527369,20.5482015 Z M108.575956,15.1153983 C108.575956,13.5727899 107.323873,12.3218102 105.763132,12.3218102 C104.219521,12.3218102 102.967278,13.5727899 102.967278,15.1153983 C102.967278,16.6749636 104.219521,17.9259433 105.763132,17.9259433 C107.323873,17.9259433 108.575956,16.6749636 108.575956,15.1153983 Z M94.6117348,19.8006531 L86.2177693,23.3209931 C87.1061221,24.1475676 88.3008918,24.6374013 89.5875545,24.6374013 C92.3140884,24.6374013 94.5198417,22.4945787 94.6117348,19.8006531 Z M92.3140884,15.4231841 C91.5176287,14.9027957 90.5985381,14.6271642 89.5875545,14.6271642 C87.1980152,14.6271642 85.2067857,16.2803131 84.7165828,18.5149596 L92.3140884,15.4231841 Z M99.635915,19.6475601 C99.6051772,25.1883443 95.1325154,29.6576372 89.5875545,29.6576372 C84.0733314,29.6576372 79.5699319,25.1577897 79.5699319,19.6170055 C79.5699319,19.0513451 79.616999,18.4968827 79.706971,17.9571378 L74.9176463,29.3208965 L69.1890595,29.3208965 L64.1282181,17.3130912 C64.3027188,18.052481 64.3949321,18.8237052 64.3949321,19.6170055 L64.3949321,19.6781147 L64.3949321,29.3208965 L59.3709119,29.3208965 L59.3709119,28.1271867 C57.8697254,29.2597873 56.2154905,29.6576372 54.4080471,29.6576372 C49.4984931,29.6576372 45.3815566,26.1300984 44.502329,21.4757181 C44.0644763,23.7940298 42.8232798,25.8328708 41.080834,27.2954932 L42.3602925,29.4933461 L36.8622388,29.4933461 L33.9447146,24.58781 C34.177489,24.6204443 34.4157065,24.6374013 34.6580864,24.6374013 C37.415198,24.6374013 39.651689,22.4025949 39.651689,19.6170055 C39.651689,16.8619707 37.415198,14.6271642 34.6580864,14.6271642 C31.8758404,14.6271642 29.6419108,16.8518924 29.6329457,19.5992486 L29.6339062,29.3208965 L24.6098861,29.3208965 L24.6098861,19.6781147 L24.6098861,19.6170055 C24.6098861,14.0762213 29.1131256,9.60692837 34.6580864,9.60692837 C39.5383436,9.60692837 43.6267836,13.1074319 44.502329,17.7533337 C45.3780345,13.1074319 49.4664746,9.60692837 54.3467317,9.60692837 C57.9228761,9.60692837 61.0656502,11.465801 62.8466783,14.2721868 L61.0094578,9.91295447 L66.707467,9.91295447 L72.0686417,23.014967 L77.3990787,9.91295447 L83.097248,9.91295447 L81.4921615,13.7215637 C83.317215,11.2252034 86.2694792,9.60692837 89.5875545,9.60692837 C94.489104,9.60692837 98.563616,13.0967138 99.4519688,17.7496543 L94.9487293,19.6475601 L99.635915,19.6475601 Z M59.3709119,19.6170055 C59.3709119,16.8619707 57.1344209,14.6271642 54.3467317,14.6271642 C51.5896202,14.6271642 49.3532893,16.8619707 49.3532893,19.6170055 C49.3532893,22.4025949 51.5896202,24.6374013 54.3467317,24.6374013 C57.1344209,24.6374013 59.3709119,22.4025949 59.3709119,19.6170055 Z M99.3219737,41.3874114 C99.3219737,46.9281956 94.8491518,51.4282031 89.3043511,51.4282031 C86.3019779,51.4282031 83.6367594,50.111795 81.7985783,48.0300816 C79.9605573,50.111795 77.2646011,51.4282031 74.2625482,51.4282031 C69.3617992,51.4282031 65.2595912,47.8739491 64.4072592,43.1936533 C63.5547671,47.8739491 59.4495173,51.4282031 54.5215526,51.4282031 C49.6385739,51.4282031 45.5482128,47.8995446 44.6757091,43.2442044 L44.6757091,51.0913025 L39.651689,51.0913025 L39.651689,41.4792353 L39.651689,41.3874114 C39.651689,38.6323766 37.415198,36.3977302 34.6275088,36.3977302 C31.8703972,36.3977302 29.6339062,38.6323766 29.6339062,41.3874114 L29.6339062,51.0913025 L24.6098861,51.0913025 L24.6098861,43.2360459 C24.4798911,43.9328831 24.2738521,44.626521 23.9871266,45.3057614 C21.811951,50.3874264 15.9299956,52.7751659 10.8446601,50.6321833 L12.8053119,46.0099573 C15.3480597,47.0812887 18.2889573,45.8874189 19.3610962,43.3465864 C20.4333952,40.8057539 19.2386255,37.8670714 16.6960378,36.7957401 C14.15329,35.6935342 11.2123924,36.8875639 10.1400934,39.4282365 L5.17722856,51.0913025 L0,51.0913025 L5.51422309,37.4690615 C7.59734558,32.3568418 13.571194,29.9998169 18.6566896,32.1731942 C21.8859137,33.5452725 24.0167437,36.392931 24.6098861,39.5848489 L24.6098861,31.6835204 L29.664644,31.6835204 L29.664644,32.8773901 C31.1656704,31.7753442 32.8200654,31.3773343 34.6275088,31.3773343 C39.724531,31.3773343 43.9413652,35.1795447 44.5894193,40.0737228 C45.2344316,35.1571487 49.4506254,31.3773343 54.5215526,31.3773343 C59.4498375,31.3773343 63.5554074,34.9079125 64.4075794,39.5834091 C65.2571898,34.927909 69.3334628,31.3773343 74.2318104,31.3773343 L74.2318104,36.3977302 C71.4745388,36.3977302 69.2689456,38.6323766 69.2689456,41.3874114 C69.2689456,44.1731608 71.5052765,46.4078073 74.2625482,46.4078073 C77.0502374,46.4078073 79.2864082,44.1731608 79.2864082,41.3874114 L79.2864082,31.6835204 L84.3105884,31.6835204 L84.3105884,41.3874114 C84.3105884,44.1731608 86.5470794,46.4078073 89.3043511,46.4078073 C92.0613025,46.4078073 94.3283712,44.1731608 94.3283712,41.3874114 C94.3283712,38.6323766 92.0920403,36.3977302 89.3349287,36.3977302 L89.3349287,31.3773343 C94.8491518,31.3773343 99.3219737,35.8773418 99.3219737,41.3874114 Z M59.5457329,41.3874114 C59.5457329,38.6323766 57.3094019,36.3977302 54.5215526,36.3977302 C51.764281,36.3977302 49.5281102,38.6323766 49.5281102,41.3874114 C49.5281102,44.1731608 51.764281,46.4078073 54.5215526,46.4078073 C57.3094019,46.4078073 59.5457329,44.1731608 59.5457329,41.3874114 Z" id="Logo" fill="#FEFEFE"></path>
                    <rect id="Rectangle-4" fill="#414141" x="140.070285" y="0.72049023" width="1" height="55.3364088"></rect>
                </g>
                <g id="logo" transform="translate(152.633650, 4.646314)">
                    <g id="Page-1" transform="translate(0.102678, 0.016772)" fill="#00FF00">
                        <path d="M29.6732093,3.15167299 L31.2601624,3.40345618 L31.1057879,4.37609148 L27.9162576,3.86996716 L28.0043333,3.31468913 C28.2236239,1.93250863 30.1325304,2.36867012 30.1962021,1.96700611 C30.2118262,1.8685604 30.1633638,1.79223732 29.9507792,1.75850031 C29.8719673,1.74605633 29.5759388,1.6787897 29.540197,1.98007228 L28.2801749,1.78006987 C28.4163673,0.921573529 29.0061428,0.563117775 30.0574517,0.729867105 C31.0419779,0.886108186 31.5921401,1.33671852 31.4708804,2.10064062 C31.3028176,3.15989984 30.1412412,2.8988528 29.6732093,3.15167299" id="Fill-1"></path>
                        <path d="M31.5210366,3.28480975 L32.6283434,3.63130546 C32.6239189,3.80538291 32.7406158,3.91288507 32.938475,3.97482843 C33.2847633,4.08316019 33.4145264,3.93576816 33.45013,3.82169835 C33.4929926,3.68460717 33.4483325,3.5202775 33.143939,3.42501192 C32.8472192,3.33216601 32.7344629,3.4389077 32.6833043,3.46884239 L31.5988806,3.12953653 L32.5969569,1.32799391 L34.9827444,2.07456357 L34.6910713,3.00682507 L33.2299407,2.54957794 L33.0763958,2.77315478 C33.1731823,2.7573924 33.3670319,2.7386573 33.732401,2.85300365 C34.3563283,3.04823586 34.8182765,3.54786166 34.5956675,4.25944991 C34.3682883,4.98617833 33.7167077,5.27944146 32.6475624,4.94483667 C31.5973597,4.6163156 31.2495504,4.08557986 31.5210366,3.28480975" id="Fill-3"></path>
                        <polygon id="Fill-5" points="37.9432709 6.08828633 37.4497288 6.97740869 36.3059888 6.34269658 36.8053381 5.44306597 36.7426343 2.75371451 37.9420957 3.41946744 37.9311035 4.67223055 38.0111597 4.71668321 39.0719399 4.04650576 40.2679446 4.71032295"></polygon>
                        <polygon id="Fill-7" points="40.6678181 5.01901661 43.146728 6.96193667 42.5047569 7.78081968 41.0582134 6.64710398 40.9205692 6.82284063 42.3106308 7.91231107 41.8015338 8.56181769 40.4114721 7.47234725 40.2761093 7.64490377 41.7227219 8.77875774 41.0808891 9.59770988 38.60191 7.65478982"></polygon>
                        <path d="M43.7063753,10.4319266 L44.1294706,9.70906967 L43.9806268,9.54812753 L43.2271438,9.91391141 L43.7063753,10.4319266 Z M43.19873,11.2980968 L42.3241948,10.3527691 L41.9820545,10.517237 L41.0641035,9.5251753 L44.3294039,8.12273877 L45.5749771,9.46896999 L43.9234536,12.6157068 L43.0055718,11.623576 L43.19873,11.2980968 Z" id="Fill-9"></path>
                        <path d="M46.0758058,12.7755014 L46.4096502,13.2910278 C46.5179819,13.4583302 46.6527226,13.4756826 46.783177,13.3910636 C46.9138387,13.3065828 46.9531064,13.1766815 46.8447055,13.0092408 L46.5109303,12.4937835 L46.0758058,12.7755014 Z M45.1884809,14.6185931 L45.6287904,13.8679445 L45.2624535,13.3022274 L44.6097667,13.7249079 L43.8967267,12.6237539 L46.7082365,10.8029923 L47.8093905,12.5033239 C48.3251935,13.3000151 48.3051448,13.9733036 47.5085919,14.4891065 C47.1436376,14.7254039 46.7829696,14.7405441 46.4790599,14.6379504 L45.8864499,15.69638 L45.1884809,14.6185931 Z" id="Fill-11"></path>
                        <path d="M46.8880521,15.0942365 L47.3675601,16.1682211 C47.2146374,16.2365248 47.1837348,16.4119157 47.3556692,16.8067356 C47.4946961,17.1376072 47.6263949,17.227273 47.7027871,17.1931211 C47.7246332,17.1833734 47.8380117,17.1633939 47.7533926,16.8955026 L47.6348291,16.4637657 C47.4637935,15.8458529 47.1320923,15.0638871 47.99128,14.6803359 C48.6138938,14.4023513 49.2244093,14.7236825 49.6925103,15.7720878 C50.1086232,16.7040727 50.1794847,17.4496745 49.2146615,17.8411068 L48.7384719,16.7744504 C48.8783284,16.6770416 48.9059125,16.4943917 48.7564465,16.1594412 C48.6296562,15.8755111 48.5158629,15.8258734 48.4429965,15.8585043 C48.4211504,15.8680447 48.3196628,15.9047544 48.377389,16.0928659 L48.4695436,16.4360432 C48.6454877,17.1040776 49.089876,18.0016342 48.1833321,18.4063401 C47.4770671,18.7216567 46.9157745,18.3347872 46.4273483,17.2211201 C45.9221918,16.0800071 46.025546,15.4313301 46.8880521,15.0942365" id="Fill-13"></path>
                        <path d="M49.5830379,20.7455386 L49.7128009,21.3456841 C49.7549031,21.5405707 49.8747801,21.6043807 50.026804,21.5714732 C50.1786897,21.5387041 50.2615804,21.4310637 50.2194092,21.2361771 L50.0897152,20.6359625 L49.5830379,20.7455386 Z M48.101029,22.1550959 L48.7783272,21.6088743 L48.6359819,20.9502421 L47.8761386,21.1145718 L47.5989144,19.8322888 L50.8725798,19.1246411 L51.3005836,21.1044783 C51.50107,22.0319696 51.2440326,22.6545834 50.3164031,22.8550698 C49.8916486,22.9469478 49.5489552,22.8333619 49.3009743,22.629972 L48.3721695,23.4100021 L48.101029,22.1550959 Z" id="Fill-15"></path>
                        <path d="M49.8043402,25.6905896 L50.5948786,25.413711 L50.5856148,25.1946279 L49.7745438,24.9854999 L49.8043402,25.6905896 Z M48.8563855,26.0219451 L48.8021159,24.7351685 L48.4348111,24.6388659 L48.3778453,23.2883484 L51.7744988,24.3343341 L51.8518588,26.1669866 L48.5555177,27.4953815 L48.4984137,26.144864 L48.8563855,26.0219451 Z" id="Fill-17"></path>
                        <polygon id="Fill-19" points="51.9146595 26.929927 51.7768078 28.2747756 49.5960695 28.744605 49.5825885 28.8755433 51.6229173 29.7743443 51.4851348 31.1190546 48.274104 29.5952201 48.4612476 27.7704487"></polygon>
                        <polygon id="Fill-21" points="51.3459972 31.6398282 50.5226897 34.6803765 49.518184 34.4084755 49.9985907 32.6341022 49.7830334 32.5757538 49.3213617 34.2807864 48.5246013 34.0650908 48.986273 32.359989 48.7746562 32.3026776 48.2941112 34.0770508 47.2895363 33.8050116 48.112913 30.7644634"></polygon>
                        <path d="M47.2671372,37.8768754 C47.6654828,38.0788135 47.990962,37.9042522 48.1407046,37.6089842 C48.2921063,37.3102595 48.2388737,36.9479323 47.8405281,36.7460633 C47.4458465,36.5458535 47.1185699,36.7151607 46.967099,37.0138854 C46.8174256,37.3090843 46.8723865,37.6766656 47.2671372,37.8768754 M48.4302345,35.5831042 C49.4010723,36.0753328 49.6861777,37.0559875 49.1470077,38.1193256 C48.6097043,39.1790688 47.6501352,39.5284681 46.6792974,39.0362395 C45.7119853,38.5457393 45.423285,37.5634254 45.9606575,36.5036822 C46.4997584,35.440275 47.4629224,35.0926732 48.4302345,35.5831042" id="Fill-23"></path>
                        <polygon id="Fill-25" points="47.8407286 40.3159093 46.9457299 41.5185508 45.2420799 41.2697403 45.173085 41.3625171 46.3886544 42.2670562 45.6268754 43.2906427 42.9398745 41.2909642 43.8135802 40.117013 45.5362418 40.3403824 45.6075873 40.2443564 44.392087 39.3397482 45.1538659 38.3161617"></polygon>
                        <path d="M42.9968126,42.9475691 L42.1156406,43.7268387 C42.0046126,43.6013619 41.8281847,43.6244524 41.5029128,43.9067925 C41.2287305,44.1385962 41.1826186,44.2911732 41.2382017,44.3538771 C41.2539641,44.3718517 41.3071276,44.4738923 41.5373412,44.3129502 L41.9137716,44.0704309 C42.4520428,43.7220685 43.0989915,43.1713533 43.7223658,43.8763739 C44.1740823,44.387061 44.0505412,45.0660875 43.1903165,45.8267603 C42.4255648,46.5031598 41.7353387,46.7941415 41.0726968,45.9906752 L41.9479925,45.2166597 C42.0828023,45.3209817 42.2653831,45.2925679 42.5401877,45.0495647 C42.7732358,44.8436168 42.7863711,44.7200757 42.7334842,44.6603446 C42.7177218,44.6424391 42.6523909,44.5563683 42.4901352,44.6679493 L42.1903045,44.8586187 C41.6055065,45.2267531 40.8821656,45.9196754 40.224363,45.1758019 C39.7118093,44.5963964 39.9129179,43.9448849 40.8292096,43.1450827 C41.7668635,42.3212221 42.4167849,42.2254726 42.9968126,42.9475691" id="Fill-27"></path>
                        <polygon id="Fill-29" points="41.3078396 47.2874278 40.0395215 48.0867461 38.5402985 47.2406937 38.442475 47.3022914 39.2502276 48.5841596 38.1709197 49.2644305 36.3852777 46.4308672 37.6231772 45.650837 39.1493622 46.4798135 39.2506424 46.4160727 38.4428207 45.1342045 39.5222668 44.4540718"></polygon>
                        <path d="M34.610227,48.9899025 C34.7809169,49.4025587 35.1417232,49.4819928 35.4474994,49.3554099 C35.7570088,49.2273751 35.9525176,48.9177966 35.7817585,48.5051404 C35.6125204,48.0961482 35.2539955,48.0115983 34.9444861,48.1395639 C34.6386407,48.2661468 34.441058,48.5809795 34.610227,48.9899025 M36.9865432,48.0066207 C37.402656,49.0124399 36.9804595,49.9422126 35.8789598,50.398008 C34.7811243,50.8522824 33.8253575,50.4926513 33.4091755,49.4869012 C32.9945836,48.4847461 33.4151901,47.5513093 34.5130256,47.0970349 C35.6145944,46.6411704 36.5718821,47.0046038 36.9865432,48.0066207" id="Fill-31"></path>
                        <polygon id="Fill-33" points="33.6443875 51.2210735 32.339567 51.4863377 31.7135657 49.628175 31.6041969 49.6503667 31.6284627 51.6308953 30.6321839 51.8334556 29.8811897 50.0007339 29.7718209 50.0229257 29.9211487 51.9780132 28.61619 52.2432774 28.5194035 48.8454486 30.2540943 48.4928001 30.6645382 49.711204 30.7701046 49.6898418 30.672212 48.4079045 32.4069028 48.0551177"></polygon>
                        <path d="M26.642955,50.5786185 C26.6434389,50.9175787 26.3526646,51.201094 26.0097638,51.2015088 C25.6667939,51.2019928 25.3753282,50.9192379 25.3748443,50.5802086 C25.3743604,50.2413175 25.6651347,49.9537925 26.0081046,49.9533777 C26.3510054,49.9528937 26.6425402,50.2397275 26.642955,50.5786185" id="Fill-35"></path>
                        <path d="M22.2856056,49.5977218 L20.6980994,49.3487731 L20.8506764,48.3757921 L24.0414511,48.8760401 L23.9544124,49.4314564 C23.7376798,50.8141208 21.8277362,50.3816234 21.7647559,50.7833565 C21.7493392,50.8818023 21.7979398,50.9580562 22.0106627,50.9914475 C22.0894746,51.0037533 22.3857105,51.0704668 22.4208302,50.7691842 L23.6813362,50.9668361 C23.5467338,51.8255399 22.9576496,52.1851709 21.9058568,52.0203573 C20.921054,51.8660519 20.369924,51.4163403 20.4897319,50.6520726 C20.655859,49.5924677 21.8180576,49.8513025 22.2856056,49.5977218" id="Fill-37"></path>
                        <path d="M20.438995,49.4682975 L19.3309969,49.1239449 C19.3350066,48.9497983 19.2181023,48.8425036 19.0201048,48.7809059 C18.6736091,48.6731963 18.5441917,48.820934 18.5086572,48.935073 C18.4660711,49.0721641 18.5110768,49.2364938 18.8156778,49.3312063 C19.1126741,49.4235683 19.225223,49.3165501 19.2763125,49.286408 L20.3614967,49.6236398 L19.3666696,51.4271873 L16.9793612,50.6852496 L17.2693059,49.7523659 L18.7314736,50.2068477 L18.8844654,49.9829943 C18.7876789,49.998895 18.5938984,50.0179066 18.2282528,49.9043899 C17.6039107,49.7102638 17.1409947,49.2115367 17.362221,48.4994645 C17.5882866,47.7722522 18.2393833,47.4776755 19.3092199,47.8102754 C20.360114,48.1368608 20.7088911,48.6669743 20.438995,49.4682975" id="Fill-39"></path>
                        <polygon id="Fill-41" points="14.0126403 46.6779908 14.5043158 45.7879006 15.6493002 46.4203313 15.1518176 47.3209989 15.2198447 50.0099355 14.019208 49.3466714 14.0277114 48.0939774 13.9474477 48.0497322 12.8881885 48.7218454 11.6909394 48.060517"></polygon>
                        <polygon id="Fill-43" points="11.2868764 47.7510421 8.80437156 45.8121318 9.44496 44.9919352 10.8936467 46.1233695 11.0310835 45.9474255 9.63894782 44.8602364 10.147077 44.2096237 11.5390744 45.2970201 11.6741607 45.1241871 10.2254049 43.9927528 10.8659934 43.172418 13.3485674 45.1113974"></polygon>
                        <path d="M8.23866824,42.3435314 L7.81688645,43.0672179 L7.96614508,43.2279527 L8.71893673,42.860717 L8.23866824,42.3435314 Z M8.74465429,41.4763934 L9.62112527,42.420131 L9.96298905,42.2550408 L10.8828757,43.2454434 L7.61999504,44.6540328 L6.37186386,43.3099447 L8.01751106,40.1600968 L8.93732858,41.1505685 L8.74465429,41.4763934 Z" id="Fill-45"></path>
                        <path d="M5.86660371,40.006704 L5.53179151,39.4920072 C5.42311409,39.3248431 5.28837344,39.3079054 5.15805732,39.3926628 C5.02767206,39.4774892 4.98861179,39.6075288 5.09728922,39.7746238 L5.43217054,40.2893207 L5.86660371,40.006704 Z M6.74991888,38.1620223 L6.31133772,38.9135004 L6.67878079,39.4783188 L7.33049967,39.054463 L8.04575198,40.1540269 L5.23832099,41.9802501 L4.13391777,40.2823382 C3.61638648,39.4869605 3.63512158,38.8137412 4.43056843,38.2962099 C4.79483137,38.0592212 5.15556852,38.0434588 5.45961643,38.145292 L6.04994501,37.0858254 L6.74991888,38.1620223 Z" id="Fill-47"></path>
                        <path d="M5.04962877,37.6896626 L4.56790848,36.6165076 C4.7206929,36.5477892 4.75118065,36.3723982 4.578555,35.9779241 C4.43883676,35.6472599 4.30693057,35.5578706 4.23046923,35.5921607 C4.20869226,35.6020467 4.09545205,35.6222336 4.18062418,35.8899866 L4.29994812,36.3215162 C4.47229724,36.9390833 4.80565763,37.7204961 3.94702302,38.1059138 C3.32496229,38.3851428 2.71361721,38.065056 2.24330391,37.0173421 C1.82525532,36.0860484 1.75287283,35.3405849 2.71707388,34.9471477 L3.19561404,36.0130437 C3.05582666,36.1106599 3.02865731,36.2934481 3.17874553,36.628122 C3.30615806,36.9117756 3.42015874,36.961275 3.49288689,36.9285059 C3.51473299,36.9188272 3.61628969,36.8819101 3.55801038,36.6938677 L3.4652336,36.3509669 C3.28790689,35.6830709 2.84165194,34.7863439 3.74750454,34.3797023 C4.45314734,34.0628647 5.01540783,34.4486281 5.50618457,35.5616038 C6.01362241,36.701818 5.91158178,37.3508407 5.04962877,37.6896626" id="Fill-49"></path>
                        <path d="M2.34317376,32.0422043 L2.21223544,31.4422662 C2.16978764,31.247518 2.04977237,31.1839154 1.89788668,31.2170993 C1.74586273,31.2502833 1.66331766,31.358062 1.70583459,31.5528103 L1.83677291,32.1527484 L2.34317376,32.0422043 Z M3.8224173,30.6298126 L3.146087,31.1773477 L3.28974583,31.8357034 L4.0494508,31.6699911 L4.32916382,32.9515827 L1.05674277,33.6655215 L0.62493667,31.686583 C0.422721997,30.7594374 0.678514917,30.1363397 1.60566055,29.934125 C2.03034593,29.8414174 2.37331584,29.9543119 2.62157324,30.157287 L3.54878801,29.3754594 L3.8224173,30.6298126 Z" id="Fill-51"></path>
                        <path d="M2.11207523,27.0993173 L1.32215904,27.377855 L1.33190682,27.5968691 L2.14332344,27.804407 L2.11207523,27.0993173 Z M3.05913123,26.766026 L3.11623527,28.0526644 L3.48367834,28.1481374 L3.54354771,29.4985166 L0.144820273,28.4599282 L0.063519604,26.627483 L3.35702628,25.2919674 L3.41682652,26.6423467 L3.05913123,26.766026 Z" id="Fill-53"></path>
                        <polygon id="Fill-55" points="0 25.864909 0.135017182 24.5199913 2.31458026 24.04553 2.32771557 23.9145917 0.285589338 23.0202843 0.420675653 21.6752975 3.63454086 23.1922187 3.45133782 25.0171283"></polygon>
                        <polygon id="Fill-57" points="0.559820089 21.1519659 1.3772513 18.1101042 2.38217181 18.3802077 1.90515258 20.1552032 2.1207791 20.2131368 2.57927062 18.5074128 3.3762384 18.7216567 2.91781601 20.4273807 3.12957107 20.4842773 3.60665943 18.7092818 4.61157994 18.9793162 3.79414873 22.0211088"></polygon>
                        <path d="M4.62537893,14.9081714 C4.22661851,14.7069246 3.90141583,14.8823156 3.75236461,15.1777909 C3.60151592,15.4768613 3.6555781,15.8389811 4.05413112,16.0401588 C4.44929662,16.239539 4.77636589,16.0695404 4.92707631,15.7704701 C5.07619667,15.4749947 5.02047529,15.1075516 4.62537893,14.9081714 M3.46691354,17.2042239 C2.49510784,16.713862 2.20785931,15.7338986 2.7449553,14.6695235 C3.28018471,13.6086742 4.23899336,13.2572701 5.21079905,13.7475629 C6.17914809,14.2361273 6.46985328,15.2178882 5.93455475,16.2786684 C5.39752788,17.3431817 4.43512431,17.6927193 3.46691354,17.2042239" id="Fill-59"></path>
                        <polygon id="Fill-61" points="4.04834467 12.4677134 4.94113109 11.2632744 6.64519587 11.5089738 6.71405256 11.4160588 5.4967548 10.5136628 6.25659804 9.4886937 8.94740129 11.4833945 8.07597703 12.6589358 6.35283148 12.4388848 6.28169339 12.53498 7.49892203 13.4373068 6.73907879 14.4624142"></polygon>
                        <path d="M8.88598333,9.82829683 L9.76570358,9.04729882 C9.8768698,9.17263735 10.053436,9.14913206 10.3780857,8.86623892 C10.6517841,8.63402042 10.6976194,8.48137427 10.6420363,8.41860131 C10.6262048,8.40083407 10.5729031,8.29879343 10.342966,8.46028864 L9.96695039,8.70343018 C9.42930132,9.05269121 8.78345876,9.60471999 8.15863271,8.90087466 C7.70601751,8.39094802 7.82831417,7.71185238 8.68722532,6.94931295 C9.45059435,6.27159998 10.1402674,5.97937385 10.8044302,6.78159575 L9.93058631,7.55720136 C9.7955,7.453225 9.61305742,7.48184615 9.33866767,7.72540249 C9.10617264,7.93183429 9.0931756,8.05537536 9.14606251,8.1149682 C9.16196315,8.13294283 9.22743231,8.21873716 9.38948059,8.10694874 L9.68889657,7.91572625 C10.2730032,7.54648571 10.9950997,6.85218077 11.6542849,7.5947407 C12.1678756,8.17331664 11.9680806,8.82524291 11.0532407,9.62670435 C10.117246,10.4523624 9.46732459,10.5492872 8.88598333,9.82829683" id="Fill-63"></path>
                        <polygon id="Fill-65" points="10.56469 5.4862051 11.8314872 4.68446713 13.3325077 5.52768503 13.4301929 5.46574166 12.6199516 4.18553267 13.6981533 3.50311864 15.4891877 6.3333636 14.25274 7.1158134 12.7248267 6.28974053 12.6237539 6.35368876 13.4339953 7.63403603 12.3558627 8.31638092"></polygon>
                        <path d="M17.2621714,3.76847268 C17.0905827,3.35616215 16.729569,3.27748854 16.4240002,3.40462454 C16.1147673,3.53335059 15.9198807,3.84334396 16.0914003,4.25565449 C16.2615371,4.66423183 16.6204077,4.74815956 16.9295023,4.61950264 C17.2350712,4.49229751 17.43217,4.17705002 17.2621714,3.76847268 M14.8875835,4.75659382 C14.4693966,3.75160417 14.8897266,2.82086361 15.9904658,2.36271775 C17.08761,1.90623109 18.0441372,2.26399551 18.462255,3.26898515 C18.8790592,4.27037987 18.4602501,5.20478449 17.363175,5.66134029 C16.2623667,6.11941701 15.3043185,5.7579194 14.8875835,4.75659382" id="Fill-67"></path>
                        <polygon id="Fill-69" points="18.2199776 1.53696981 19.5243141 1.26873291 20.1543943 3.12558211 20.2636939 3.10311382 20.2351419 1.12272355 21.2310751 0.918020081 21.9860098 2.74915172 22.0954477 2.72668342 21.9418337 0.771941584 23.2461702 0.503704684 23.3504231 3.90146426 21.6164236 4.25791515 21.2032835 3.04034085 21.0978553 3.06204868 21.1985824 4.34384774 19.464583 4.70029863"></polygon>
                        <path d="M25.2264015,2.16537697 C25.2253645,1.82648592 25.5155166,1.54248665 25.8584174,1.54138051 C26.2013182,1.54027438 26.4932677,1.82247619 26.4943047,2.16143638 C26.4954109,2.5002583 26.2051896,2.78833643 25.862358,2.78937343 C25.5193881,2.79047956 25.2275076,2.50433716 25.2264015,2.16537697" id="Fill-71"></path>
                        <path d="M41.8805531,33.1634622 C39.7854017,33.1634622 38.6868056,32.0916899 38.3640918,29.6339347 C38.2910871,29.0778271 37.7810913,28.6862565 37.2249837,28.7592612 C36.6689452,28.832335 36.2773055,29.3423308 36.3503793,29.8983693 C36.5019884,31.0532398 36.8241492,32.0266355 37.3007537,32.8158604 L35.5935088,34.0749838 C29.7583192,38.3782503 21.7997027,38.3753467 15.9677624,34.0679322 L14.5107106,32.9918044 C15.1351219,32.1231455 15.4632282,31.0265543 15.4632282,29.7108109 C15.4632282,29.149933 15.0086081,28.6952438 14.4477303,28.6952438 C13.8869216,28.6952438 13.4322324,29.149933 13.4322324,29.7108109 C13.4322324,31.8058932 12.36046,32.9046274 9.90270488,33.2272722 C9.34659725,33.3002769 8.95502668,33.8102035 9.02803136,34.3663111 C9.10103604,34.9223497 9.61103182,35.3139894 10.1671395,35.2409847 C11.2591678,35.0976715 12.1914293,34.803717 12.9571489,34.3692839 L14.7611112,35.7016193 C21.3098938,40.538456 30.2466763,40.5417053 36.7989156,35.7095696 L38.6469158,34.3466773 C38.6635077,34.3343716 38.6761591,34.319024 38.6918524,34.3059578 C39.5457168,34.8881978 40.6107832,35.1945271 41.8805531,35.1945271 C42.4413618,35.1945271 42.896051,34.7398379 42.896051,34.1789601 C42.896051,33.6181514 42.4413618,33.1634622 41.8805531,33.1634622" id="Fill-73"></path>
                        <path d="M18.6180329,24.5629231 C19.944492,24.5629231 21.0198592,22.0665224 21.0198592,18.9869831 C21.0198592,15.9075128 19.944492,13.4110431 18.6180329,13.4110431 C17.2915737,13.4110431 16.2162065,15.9075128 16.2162065,18.9869831 C16.2162065,22.0665224 17.2915737,24.5629231 18.6180329,24.5629231" id="Fill-75"></path>
                        <path d="M33.0191466,24.5629231 C34.3456057,24.5629231 35.420973,22.0665224 35.420973,18.9869831 C35.420973,15.9075128 34.3456057,13.4110431 33.0191466,13.4110431 C31.6926875,13.4110431 30.6173202,15.9075128 30.6173202,18.9869831 C30.6173202,22.0665224 31.6926875,24.5629231 33.0191466,24.5629231" id="Fill-77"></path>
                        <path d="M25.9576996,24.5629231 C27.2841587,24.5629231 28.359526,22.0665224 28.359526,18.9869831 C28.359526,15.9075128 27.2841587,13.4110431 25.9576996,13.4110431 C24.6312405,13.4110431 23.5558732,15.9075128 23.5558732,18.9869831 C23.5558732,22.0665224 24.6312405,24.5629231 25.9576996,24.5629231" id="Fill-79"></path>
                    </g>
                    <path d="M70.5440475,45.7258676 L70.5440475,36.6360069 L70.3575888,36.6360069 L68.5706931,40.7225597 L67.2810206,40.7225597 L67.2810206,40.6293303 L69.3165278,36.0610926 L71.8492583,36.0610926 L71.8492583,45.7258676 L74.9258265,45.7258676 L74.9258265,46.9378491 L67.4674792,46.9378491 L67.4674792,45.7258676 L70.5440475,45.7258676 Z M79.5562171,41.5305473 L79.5562171,39.7281134 L83.0989321,37.4595328 L83.0989321,37.2730741 L76.9457956,37.2730741 L76.9457956,36.0610926 L84.2176842,36.0610926 L84.2176842,38.0499852 L80.6749692,40.3185659 L80.6749692,40.5050246 L81.2964981,40.5050246 C81.7108528,40.5050246 82.1096633,40.5723562 82.4929414,40.7070215 C82.8762195,40.8416867 83.2154673,41.0385023 83.510695,41.297474 C83.8059227,41.5564456 84.0441731,41.874976 84.2254533,42.2530747 C84.4067335,42.6311734 84.4973722,43.0688289 84.4973722,43.5660546 L84.4973722,43.8457426 C84.4973722,44.3118916 84.4041438,44.7469575 84.2176842,45.1509534 C84.0312246,45.5549492 83.7722567,45.9045557 83.440773,46.1997835 C83.1092892,46.4950112 82.7182479,46.7280822 82.2676371,46.8990035 C81.8170264,47.0699248 81.3275772,47.1553842 80.799275,47.1553842 C80.1881018,47.1553842 79.6390901,47.0621558 79.1522233,46.8756962 C78.6653565,46.6892366 78.2510081,46.4328584 77.9091654,46.1065541 C77.5673228,45.7802498 77.3057653,45.3969775 77.1244851,44.9567256 C76.943205,44.5164737 76.8525662,44.047742 76.8525662,43.5505164 L76.8525662,42.7114523 L78.157777,42.7114523 L78.157777,43.457287 C78.157777,43.850924 78.222519,44.2005305 78.3520048,44.5061171 C78.4814906,44.8117037 78.6627681,45.0706715 78.8958426,45.2830283 C79.1289171,45.4953851 79.4060127,45.6585348 79.7271376,45.7724823 C80.0482625,45.8864299 80.3952793,45.9434028 80.7681985,45.9434028 C81.1100412,45.9434028 81.4285716,45.8864299 81.7237993,45.7724823 C82.019027,45.6585348 82.2754051,45.5005644 82.4929414,45.2985665 C82.7104776,45.0965686 82.8813963,44.8583182 83.0057027,44.5838082 C83.1300091,44.3092982 83.1921614,44.0166646 83.1921614,43.7058986 L83.1921614,43.6126693 C83.1921614,42.9600606 82.9849872,42.449894 82.5706325,42.0821542 C82.1562778,41.7144144 81.6383422,41.5305473 81.0168101,41.5305473 L79.5562171,41.5305473 Z M87.8070138,42.3385349 L92.4684808,42.3385349 L92.4684808,43.457287 L87.8070138,43.457287 L87.8070138,42.3385349 Z M99.0722258,45.7258676 L99.0722258,36.6360069 L98.8857671,36.6360069 L97.0988714,40.7225597 L95.8091989,40.7225597 L95.8091989,40.6293303 L97.8447062,36.0610926 L100.377437,36.0610926 L100.377437,45.7258676 L103.454005,45.7258676 L103.454005,46.9378491 L95.9956576,46.9378491 L95.9956576,45.7258676 L99.0722258,45.7258676 Z M111.440652,39.2308902 C111.440652,38.5575638 111.233477,38.0163211 110.819123,37.6071459 C110.404768,37.1979706 109.82986,36.993386 109.09438,36.993386 C108.742178,36.993386 108.418469,37.0555383 108.123241,37.1798447 C107.828013,37.3041511 107.574225,37.4828389 107.361868,37.7159134 C107.149511,37.948988 106.983772,38.2260835 106.864645,38.5472084 C106.745518,38.8683333 106.685955,39.2205295 106.685955,39.6038076 L106.685955,41.2197828 L106.872414,41.2197828 C107.121027,40.7639927 107.475813,40.4066171 107.936782,40.1476454 C108.397752,39.8886737 108.913098,39.7591898 109.482836,39.7591898 C109.980061,39.7591898 110.441024,39.8394698 110.865737,40.0000323 C111.290451,40.1605947 111.655596,40.3962554 111.961182,40.7070215 C112.266769,41.0177875 112.505019,41.3932908 112.67594,41.8335427 C112.846862,42.2737945 112.932321,42.7736024 112.932321,43.3329812 L112.932321,43.5194399 C112.932321,44.058101 112.836503,44.5501398 112.644864,44.9955711 C112.453225,45.4410024 112.189078,45.8242748 111.852415,46.1453997 C111.515751,46.4665246 111.116941,46.7151337 110.655971,46.8912344 C110.195002,47.0673352 109.695194,47.1553842 109.156533,47.1553842 C108.617872,47.1553842 108.118064,47.0673352 107.657094,46.8912344 C107.196125,46.7151337 106.797314,46.4691143 106.460651,46.1531688 C106.123988,45.8372233 105.859841,45.4591303 105.668202,45.0188785 C105.476563,44.5786266 105.380745,44.0943568 105.380745,43.5660546 L105.380745,39.6038076 C105.380745,39.0340699 105.479152,38.5161343 105.675971,38.0499852 C105.872789,37.5838362 106.142116,37.1876155 106.483958,36.8613111 C106.825801,36.5350068 107.222022,36.2838081 107.672633,36.1077073 C108.123243,35.9316066 108.607513,35.8435575 109.125456,35.8435575 C109.6434,35.8435575 110.12508,35.9212478 110.570511,36.0766309 C111.015943,36.2320139 111.399215,36.4573159 111.72034,36.7525436 C112.041465,37.0477713 112.292663,37.4051469 112.473944,37.824681 C112.655224,38.2442151 112.745862,38.7129469 112.745862,39.2308902 L111.440652,39.2308902 Z M109.156533,46.0055557 C109.529452,46.0055557 109.8687,45.9459931 110.174287,45.8268661 C110.479873,45.7077391 110.741431,45.5394101 110.958967,45.3218738 C111.176503,45.1043376 111.342242,44.8453698 111.45619,44.5449627 C111.570137,44.2445555 111.62711,43.9130767 111.62711,43.5505164 L111.62711,43.3640577 C111.62711,43.0014973 111.564958,42.6700185 111.440652,42.3696114 C111.316345,42.0692042 111.145427,41.8102364 110.92789,41.5927002 C110.710354,41.375164 110.448797,41.2068349 110.14321,41.0877079 C109.837623,40.968581 109.508734,40.9090184 109.156533,40.9090184 C108.804331,40.9090184 108.478032,40.9711706 108.177625,41.095477 C107.877218,41.2197835 107.61566,41.3907022 107.392945,41.6082384 C107.170229,41.8257746 106.99672,42.0795631 106.872414,42.3696114 C106.748108,42.6596597 106.685955,42.970421 106.685955,43.3019048 L106.685955,43.597131 C106.685955,43.9389737 106.742928,44.2575041 106.856876,44.5527318 C106.970823,44.8479595 107.136563,45.1043376 107.354099,45.3218738 C107.571635,45.5394101 107.833193,45.7077391 108.138779,45.8268661 C108.444366,45.9459931 108.783614,46.0055557 109.156533,46.0055557 Z M117.57825,46.0677086 C117.57825,45.7673014 117.684427,45.5109233 117.896784,45.2985665 C118.10914,45.0862097 118.365518,44.9800329 118.665926,44.9800329 C118.966333,44.9800329 119.222711,45.0862097 119.435068,45.2985665 C119.647424,45.5109233 119.753601,45.7673014 119.753601,46.0677086 C119.753601,46.3681157 119.647424,46.6244938 119.435068,46.8368506 C119.222711,47.0492074 118.966333,47.1553842 118.665926,47.1553842 C118.365518,47.1553842 118.10914,47.0492074 117.896784,46.8368506 C117.684427,46.6244938 117.57825,46.3681157 117.57825,46.0677086 Z M127.600404,45.7258676 L127.600404,36.6360069 L127.413945,36.6360069 L125.62705,40.7225597 L124.337377,40.7225597 L124.337377,40.6293303 L126.372885,36.0610926 L128.905615,36.0610926 L128.905615,45.7258676 L131.982183,45.7258676 L131.982183,46.9378491 L124.523836,46.9378491 L124.523836,45.7258676 L127.600404,45.7258676 Z M141.382808,45.7258676 L141.382808,46.9378491 L134.01769,46.9378491 L134.01769,45.0732623 C134.01769,44.5760366 134.10056,44.1435604 134.266302,43.7758206 C134.432044,43.4080808 134.667705,43.0921401 134.973291,42.827989 C135.278878,42.5638378 135.649202,42.3437152 136.084274,42.1676145 C136.519347,41.9915137 137.011385,41.8413124 137.560405,41.717006 C138.482345,41.5098286 139.147892,41.2146053 139.557067,40.8313272 C139.966242,40.4480492 140.170827,39.9767278 140.170827,39.4173489 L140.170827,39.3241196 C140.170827,39.0444301 140.124213,38.7699243 140.030983,38.5005937 C139.937753,38.2312632 139.792731,37.9878334 139.595913,37.7702972 C139.399094,37.552761 139.147895,37.3792526 138.842309,37.2497667 C138.536722,37.1202809 138.171578,37.0555389 137.746864,37.0555389 C136.949231,37.0555389 136.330298,37.2989687 135.890046,37.7858354 C135.449795,38.2727022 135.229672,38.9201217 135.229672,39.7281134 L135.229672,40.4117952 L133.924461,40.4117952 L133.924461,39.634884 C133.924461,39.1376584 134.007331,38.6611576 134.173073,38.2053675 C134.338815,37.7495773 134.582244,37.3455875 134.903369,36.993386 C135.224494,36.6411846 135.623305,36.3614993 136.099812,36.154322 C136.57632,35.9471446 137.125332,35.8435575 137.746864,35.8435575 C138.378755,35.8435575 138.927767,35.9393756 139.393916,36.1310146 C139.860065,36.3226537 140.248517,36.5764421 140.559283,36.8923876 C140.870049,37.2083331 141.10053,37.5657086 141.250733,37.964525 C141.400937,38.3633414 141.476038,38.7699209 141.476038,39.1842756 L141.476038,39.4639636 C141.476038,40.292673 141.21707,40.9996551 140.699127,41.5849311 C140.181183,42.1702071 139.352486,42.5871453 138.213011,42.8357581 C137.21856,43.0532943 136.48827,43.3407486 136.022121,43.6981295 C135.555972,44.0555104 135.322901,44.5760357 135.322901,45.2597209 L135.322901,45.7258676 L141.382808,45.7258676 Z M146.106428,46.0677086 C146.106428,45.7673014 146.212605,45.5109233 146.424962,45.2985665 C146.637319,45.0862097 146.893697,44.9800329 147.194104,44.9800329 C147.494511,44.9800329 147.750889,45.0862097 147.963246,45.2985665 C148.175603,45.5109233 148.28178,45.7673014 148.28178,46.0677086 C148.28178,46.3681157 148.175603,46.6244938 147.963246,46.8368506 C147.750889,47.0492074 147.494511,47.1553842 147.194104,47.1553842 C146.893697,47.1553842 146.637319,47.0492074 146.424962,46.8368506 C146.212605,46.6244938 146.106428,46.3681157 146.106428,46.0677086 Z M160.401594,45.7258676 L160.401594,46.9378491 L153.036476,46.9378491 L153.036476,45.0732623 C153.036476,44.5760366 153.119346,44.1435604 153.285088,43.7758206 C153.450829,43.4080808 153.68649,43.0921401 153.992077,42.827989 C154.297663,42.5638378 154.667987,42.3437152 155.10306,42.1676145 C155.538132,41.9915137 156.030171,41.8413124 156.579191,41.717006 C157.50113,41.5098286 158.166677,41.2146053 158.575853,40.8313272 C158.985028,40.4480492 159.189613,39.9767278 159.189613,39.4173489 L159.189613,39.3241196 C159.189613,39.0444301 159.142998,38.7699243 159.049769,38.5005937 C158.956539,38.2312632 158.811517,37.9878334 158.614698,37.7702972 C158.41788,37.552761 158.166681,37.3792526 157.861094,37.2497667 C157.555508,37.1202809 157.190363,37.0555389 156.76565,37.0555389 C155.968017,37.0555389 155.349084,37.2989687 154.908832,37.7858354 C154.46858,38.2727022 154.248457,38.9201217 154.248457,39.7281134 L154.248457,40.4117952 L152.943247,40.4117952 L152.943247,39.634884 C152.943247,39.1376584 153.026116,38.6611576 153.191858,38.2053675 C153.3576,37.7495773 153.60103,37.3455875 153.922155,36.993386 C154.24328,36.6411846 154.64209,36.3614993 155.118598,36.154322 C155.595106,35.9471446 156.144118,35.8435575 156.76565,35.8435575 C157.397541,35.8435575 157.946552,35.9393756 158.412701,36.1310146 C158.87885,36.3226537 159.267302,36.5764421 159.578068,36.8923876 C159.888834,37.2083331 160.119315,37.5657086 160.269519,37.964525 C160.419723,38.3633414 160.494823,38.7699209 160.494823,39.1842756 L160.494823,39.4639636 C160.494823,40.292673 160.235855,40.9996551 159.717912,41.5849311 C159.199969,42.1702071 158.371272,42.5871453 157.231796,42.8357581 C156.237345,43.0532943 155.507056,43.3407486 155.040907,43.6981295 C154.574758,44.0555104 154.341687,44.5760357 154.341687,45.2597209 L154.341687,45.7258676 L160.401594,45.7258676 Z M162.390487,40.2874894 C162.390487,38.8786835 162.727145,37.7858393 163.400471,37.0089243 C164.073797,36.2320092 165.011261,35.8435575 166.21289,35.8435575 C167.414518,35.8435575 168.351982,36.2320092 169.025308,37.0089243 C169.698634,37.7858393 170.035293,38.8786835 170.035293,40.2874894 L170.035293,42.7114523 C170.035293,44.1616937 169.698634,45.2648966 169.025308,46.0210939 C168.351982,46.7772912 167.414518,47.1553842 166.21289,47.1553842 C165.011261,47.1553842 164.073797,46.7772912 163.400471,46.0210939 C162.727145,45.2648966 162.390487,44.1616937 162.390487,42.7114523 L162.390487,40.2874894 Z M166.21289,45.9744792 C167.051958,45.9744792 167.68125,45.6818456 168.100784,45.0965696 C168.520318,44.5112936 168.730082,43.6851863 168.730082,42.6182229 L168.730082,40.3807188 C168.730082,39.8834931 168.678288,39.4302995 168.5747,39.0211242 C168.471111,38.6119489 168.31314,38.2597527 168.100784,37.964525 C167.888427,37.6692973 167.62428,37.4388159 167.308334,37.2730741 C166.992389,37.1073322 166.627244,37.0244625 166.21289,37.0244625 C165.788176,37.0244625 165.420442,37.1073322 165.109676,37.2730741 C164.79891,37.4388159 164.537352,37.6692973 164.324995,37.964525 C164.112639,38.2597527 163.954668,38.6119489 163.85108,39.0211242 C163.747491,39.4302995 163.695697,39.8834931 163.695697,40.3807188 L163.695697,42.6182229 C163.695697,43.6851863 163.905461,44.5112936 164.324995,45.0965696 C164.74453,45.6818456 165.373821,45.9744792 166.21289,45.9744792 Z M165.218443,41.4994709 C165.218443,41.2301403 165.316851,40.9970693 165.513669,40.8002508 C165.710488,40.6034323 165.943559,40.5050246 166.21289,40.5050246 C166.48222,40.5050246 166.715291,40.6034323 166.91211,40.8002508 C167.108928,40.9970693 167.207336,41.2301403 167.207336,41.4994709 C167.207336,41.7688014 167.108928,42.0018724 166.91211,42.1986909 C166.715291,42.3955094 166.48222,42.4939172 166.21289,42.4939172 C165.943559,42.4939172 165.710488,42.3955094 165.513669,42.1986909 C165.316851,42.0018724 165.218443,41.7688014 165.218443,41.4994709 Z M175.147368,45.7258676 L175.147368,36.6360069 L174.960909,36.6360069 L173.174014,40.7225597 L171.884341,40.7225597 L171.884341,40.6293303 L173.919848,36.0610926 L176.452579,36.0610926 L176.452579,45.7258676 L179.529147,45.7258676 L179.529147,46.9378491 L172.0708,46.9378491 L172.0708,45.7258676 L175.147368,45.7258676 Z M185.091831,47.1553842 C184.542811,47.1553842 184.045593,47.0802835 183.600162,46.93008 C183.15473,46.7798764 182.771458,46.5727021 182.450333,46.308551 C182.129208,46.0443999 181.883189,45.7336385 181.712267,45.3762576 C181.541346,45.0188767 181.455887,44.6278353 181.455887,44.2031217 L181.455887,44.0166631 C181.455887,43.6437438 181.51286,43.312265 181.626807,43.0222168 C181.740755,42.7321685 181.890956,42.47838 182.077416,42.2608438 C182.263875,42.0433076 182.478819,41.8620301 182.722252,41.717006 C182.965685,41.5719818 183.216884,41.4632154 183.475856,41.3907033 L183.475856,41.2042446 C183.237602,41.1317325 183.01489,41.0229661 182.807712,40.8779419 C182.600535,40.7329178 182.416668,40.561999 182.256105,40.3651805 C182.095543,40.1683621 181.968649,39.9430601 181.875419,39.6892678 C181.782189,39.4354756 181.735575,39.15838 181.735575,38.8579729 L181.735575,38.6715142 C181.735575,38.2571595 181.818445,37.8764768 181.984186,37.5294548 C182.149928,37.1824327 182.385589,36.8846197 182.691176,36.6360069 C182.996762,36.3873941 183.359317,36.1931682 183.778851,36.0533235 C184.198385,35.9134788 184.667117,35.8435575 185.18506,35.8435575 L185.27829,35.8435575 C185.785874,35.8435575 186.252016,35.9134788 186.67673,36.0533235 C187.101443,36.1931682 187.466588,36.3873941 187.772175,36.6360069 C188.077761,36.8846197 188.313422,37.1824327 188.479164,37.5294548 C188.644906,37.8764768 188.727775,38.2571595 188.727775,38.6715142 L188.727775,38.8579729 C188.727775,39.15838 188.681161,39.4354756 188.587931,39.6892678 C188.494702,39.9430601 188.367807,40.1683621 188.207245,40.3651805 C188.046682,40.561999 187.860226,40.7329178 187.647869,40.8779419 C187.435512,41.0229661 187.215389,41.1317325 186.987494,41.2042446 L186.987494,41.3907033 C187.246466,41.4632154 187.497665,41.5719818 187.741098,41.717006 C187.984532,41.8620301 188.199475,42.0433076 188.385934,42.2608438 C188.572394,42.47838 188.722595,42.7321685 188.836543,43.0222168 C188.95049,43.312265 189.007463,43.6437438 189.007463,44.0166631 L189.007463,44.2031217 C189.007463,44.6278353 188.922004,45.0188767 188.751083,45.3762576 C188.580161,45.7336385 188.334142,46.0443999 188.013017,46.308551 C187.691892,46.5727021 187.30862,46.7798764 186.863189,46.93008 C186.417757,47.0802835 185.920539,47.1553842 185.371519,47.1553842 L185.091831,47.1553842 Z M185.324904,45.9744792 C186.029307,45.9744792 186.601626,45.7932018 187.041878,45.4306414 C187.48213,45.068081 187.702253,44.5967596 187.702253,44.0166631 L187.702253,43.9234337 C187.702253,43.2811839 187.476951,42.7839658 187.02634,42.4317643 C186.575729,42.0795628 185.993052,41.9034647 185.27829,41.9034647 L185.18506,41.9034647 C184.470299,41.9034647 183.887621,42.0795628 183.43701,42.4317643 C182.9864,42.7839658 182.761098,43.2811839 182.761098,43.9234337 L182.761098,44.0166631 C182.761098,44.5967596 182.98122,45.068081 183.421472,45.4306414 C183.861724,45.7932018 184.434043,45.9744792 185.138446,45.9744792 L185.324904,45.9744792 Z M185.231675,40.6914832 C185.884284,40.6914832 186.412578,40.5205645 186.816574,40.1787219 C187.22057,39.8368792 187.422565,39.4069927 187.422565,38.8890493 L187.422565,38.79582 C187.422565,38.2675177 187.223159,37.8402209 186.824343,37.5139165 C186.425527,37.1876122 185.894643,37.0244625 185.231675,37.0244625 C184.568708,37.0244625 184.037824,37.1876122 183.639007,37.5139165 C183.240191,37.8402209 183.040786,38.2675177 183.040786,38.79582 L183.040786,38.8890493 C183.040786,39.4069927 183.24278,39.8368792 183.646776,40.1787219 C184.050772,40.5205645 184.579066,40.6914832 185.231675,40.6914832 Z" id="13-16.12.2018" fill="#00FF00"></path>
                    <g id="Group" transform="translate(67.281021, 4.432788)" fill="#FFFFFF">
                        <g id="Group-4">
                            <path d="M22.0540713,8.12898628 C22.0540713,15.3838343 14.0171021,14.8714101 11.1583145,17.0559554 L22.0271016,17.0559554 L22.0271016,23.7174701 L0.181648489,23.7174701 L0.181648489,19.9147431 C0.181648489,10.4483801 13.3967992,11.33838 13.3967992,8.5874711 C13.3967992,7.91322872 12.9922537,7.4547439 11.5358902,7.4547439 C10.9964963,7.4547439 8.94679944,7.31989542 9.02770853,9.36959226 L0.39740605,9.36959226 C0.39740605,3.4901987 3.95740582,0.469592831 11.1583145,0.469592831 C17.9007383,0.469592831 22.0540713,2.8968654 22.0540713,8.12898628 Z M33.8668197,24.3108034 C26.4231838,24.3108034 23.1059113,21.5868642 23.2407598,15.8692888 L31.0889411,15.8692888 C31.4125774,17.002016 32.3834865,17.4605008 33.7859106,17.4605008 C36.2401529,17.4605008 36.7795468,16.2468645 36.7795468,15.4377737 C36.7795468,14.4668647 36.1592438,13.4959556 34.0016682,13.4959556 C31.898032,13.4959556 31.3856077,14.4129253 31.1159108,14.7095919 L23.4295476,14.7095919 L26.234396,1.06292613 L43.1443949,1.06292613 L43.1443949,7.67050146 L32.7880319,7.67050146 L32.248638,9.42353165 C32.8419713,9.126865 34.0556076,8.61444079 36.6446983,8.61444079 C41.0677283,8.61444079 45.0592432,10.9068649 45.0592432,15.9501979 C45.0592432,21.1014097 41.4453041,24.3108034 33.8668197,24.3108034 Z" id="25"></path>
                            <path d="M72.5014229,1.06292613 L63.2777871,16.8401978 L63.2777871,23.7174701 L54.4317271,23.7174701 L54.4317271,16.7592888 L45.235061,1.06292613 L54.5126362,1.06292613 L58.5580905,8.50656201 L59.1783935,8.50656201 L63.2508174,1.06292613 L72.5014229,1.06292613 Z M97.9069015,23.7174701 L89.2226597,23.7174701 L86.5796295,18.4583796 L82.021751,18.4583796 L82.021751,23.7174701 L73.1487213,23.7174701 L73.1487213,1.06292613 L86.8493265,1.06292613 C93.268114,1.06292613 97.0169016,3.65201687 97.0169016,10.0708043 C97.0169016,13.0105011 95.7762956,15.1141373 94.0772048,16.4626221 L97.9069015,23.7174701 Z M82.021751,8.39868323 L82.021751,11.9047436 L86.1750841,11.9047436 C87.5235689,11.9047436 88.1169022,11.2035315 88.1169022,10.1517134 C88.1169022,9.09989531 87.5235689,8.39868323 86.1750841,8.39868323 L82.021751,8.39868323 Z M109.584804,24.4726216 C101.143289,24.4456519 97.421471,22.0183793 97.7181376,15.76141 L105.674198,15.76141 C105.674198,16.8941372 106.672076,17.5683796 109.584804,17.5953493 C112.012076,17.6492887 112.929046,17.0829251 112.929046,16.5165615 C112.929046,16.3547433 113.117834,15.5995919 111.229955,15.3838343 L108.236319,14.9253495 C103.948137,14.2780768 98.2035921,14.170198 98.2035921,7.80534994 C98.2035921,3.19353205 101.871471,0.307774659 109.638743,0.307774659 C116.542985,0.307774659 121.343591,1.92595637 121.100863,8.96504683 L113.198743,8.96504683 C112.982985,7.83231963 111.931167,7.15807725 109.449955,7.15807725 C107.346319,7.15807725 106.726016,7.72444085 106.726016,8.26383475 C106.726016,8.42565293 106.672076,9.1538347 107.993592,9.31565287 L110.366925,9.6932286 C114.978743,10.4483801 121.748136,10.1786831 121.748136,16.8941372 C121.748136,22.1262581 117.810561,24.526561 109.584804,24.4726216 Z" id="YRS"></path>
                        </g>
                    </g>
                </g>
            </g>
        </g>
    </g>
</svg>