<?xml version="1.0" encoding="UTF-8"?>
<svg width="128px" height="46px" viewBox="0 0 128 46" version="1.1" xmlns="http://www.w3.org/2000/svg" xmlns:xlink="http://www.w3.org/1999/xlink">
    <!-- Generator: Sketch 50.2 (55047) - http://www.bohemiancoding.com/sketch -->
    <title>Logo</title>
    <desc>Created with Sketch.</desc>
    <defs></defs>
    <g id="Symbols" stroke="none" stroke-width="1" fill="none" fill-rule="evenodd">
        <g id="Footer" transform="translate(-1152.000000, -609.000000)" fill="#FEFEFE">
            <g id="Group-4">
                <g transform="translate(1152.000000, 609.000000)">
                    <g id="Group-18">
                        <path d="M128,10.8522898 L125.115596,10.8522898 L125.115596,5.5610219 L125.115596,5.5105315 C125.115596,3.99377477 123.831414,2.76375946 122.230864,2.76375946 C120.647882,2.76375946 119.363863,3.99377477 119.363863,5.5105315 L119.363863,10.8522898 L116.479295,10.8522898 L116.479131,6.52930505 C115.97938,9.09361958 113.628548,11.0377358 110.808173,11.0377358 C107.642208,11.0377358 105.056604,8.56056052 105.056604,5.5105315 C105.056604,2.4603452 107.642208,0 110.808173,0 C113.628548,0 115.97938,1.93090383 116.479131,4.49222983 L116.479295,0.168615909 L119.38143,0.168615909 L119.38143,0.825777542 C120.243353,0.219106308 121.193109,0 122.230864,0 C125.414396,0 128,2.47717533 128,5.5105315 L128,10.8522898 Z M113.509434,5.50959069 C113.509434,3.82165955 112.161568,2.45283019 110.481432,2.45283019 C108.819736,2.45283019 107.471698,3.82165955 107.471698,5.50959069 C107.471698,7.2160763 108.819736,8.58490566 110.481432,8.58490566 C112.161568,8.58490566 113.509434,7.2160763 113.509434,5.50959069 Z M100.226415,11.0377358 L90.5660377,15.5008565 C91.5884178,16.5487954 92.9634445,17.1698113 94.4442282,17.1698113 C97.5821189,17.1698113 100.120658,14.4531204 100.226415,11.0377358 Z M96.6037736,7.13650151 C95.8442379,6.4798701 94.9677567,6.13207547 94.0036426,6.13207547 C91.724883,6.13207547 89.8259676,8.21803582 89.3584906,11.0377358 L96.6037736,7.13650151 Z M105.056604,11.0545559 C105.024447,17.1548602 100.345247,22.0754717 94.5442321,22.0754717 C88.7753743,22.0754717 84.0640176,17.1212201 84.0640176,11.0209158 C84.0640176,10.3981338 84.1132583,9.78768072 84.2073849,9.19343119 L79.1968998,21.7047262 L73.2037794,21.7047262 L67.9092395,8.48434743 C68.0917983,9.29840236 68.1882697,10.1475064 68.1882697,11.0209158 L68.1882697,11.088196 L68.1882697,21.7047262 L62.9322514,21.7047262 L62.9322514,20.3904731 C61.3617433,21.637446 59.6311195,22.0754717 57.7402124,22.0754717 C52.6039459,22.0754717 48.2968983,18.1917146 47.37707,13.0673252 C46.9189982,15.6197449 45.6204859,17.8644723 43.7975778,19.4747934 L45.1361189,21.8945902 L39.3841771,21.8945902 L36.3319281,16.4936827 C36.5754515,16.5296124 36.8246694,16.5482818 37.0782419,16.5482818 C39.9626708,16.5482818 42.302438,14.0877999 42.302438,11.0209158 C42.302438,7.98767177 39.9626708,5.52718988 37.0782419,5.52718988 C34.1675178,5.52718988 31.8304303,7.97657583 31.8210512,11.0013658 L31.8220561,21.7047262 L26.5660377,21.7047262 L26.5660377,11.088196 L26.5660377,11.0209158 C26.5660377,4.92061153 31.2772269,0 37.0782419,0 C42.1838586,0 46.4610938,3.85399175 47.37707,8.96904651 C48.2932136,3.85399175 52.5704489,0 57.6760656,0 C61.4173484,0 64.705249,2.04658551 66.568521,5.13636602 L64.6464617,0.336929267 L70.6075924,0.336929267 L76.2163344,14.7620107 L81.7929193,0.336929267 L87.7542175,0.336929267 L86.0750116,4.53013992 C87.9843421,1.78169183 91.0729353,0 94.5442321,0 C99.6721243,0 103.934788,3.8421913 104.864163,8.96499561 L100.152974,11.0545559 L105.056604,11.0545559 Z M62.7924528,11.634098 C62.7924528,8.59627315 60.3661271,6.13207547 57.3418172,6.13207547 C54.3506803,6.13207547 51.9245283,8.59627315 51.9245283,11.634098 C51.9245283,14.7056136 54.3506803,17.1698113 57.3418172,17.1698113 C60.3661271,17.1698113 62.7924528,14.7056136 62.7924528,11.634098 Z M103.849057,34.3296171 C103.849057,40.4260638 99.172364,45.3773585 93.374832,45.3773585 C90.235611,45.3773585 87.4489122,43.9289332 85.5269471,41.6384533 C83.6051493,43.9289332 80.7863117,45.3773585 77.6474256,45.3773585 C72.5233011,45.3773585 68.234115,41.4666629 67.3429338,36.3169996 C66.4515852,41.4666629 62.1592187,45.3773585 57.006638,45.3773585 C51.9010938,45.3773585 47.6242945,41.4948253 46.7120222,36.3726202 L46.7120222,45.0066714 L41.4590079,45.0066714 L41.4590079,34.4306496 L41.4590079,34.3296171 C41.4590079,31.2982912 39.1205779,28.8395413 36.2058262,28.8395413 C33.3230459,28.8395413 30.9846159,31.2982912 30.9846159,34.3296171 L30.9846159,45.0066714 L25.7316016,45.0066714 L25.7316016,36.3636435 C25.5956814,37.1303637 25.3802512,37.8935636 25.0804568,38.6409222 C22.8061369,44.2322066 16.6560828,46.8594026 11.3389583,44.5015091 L13.3889764,39.4157391 C16.0476223,40.5945099 19.1225657,39.2809118 20.2435725,36.4852697 C21.3647467,33.6896275 20.1155196,30.4562367 17.4570411,29.277466 C14.7983952,28.0647244 11.7234518,29.3784984 10.6022775,32.1739646 L5.41320598,45.0066714 L0,45.0066714 L5.76556068,30.018312 C7.94363162,24.3934089 14.1897673,21.8000076 19.5070591,24.1913439 C22.8834708,25.7010224 25.1114238,28.8342608 25.7316016,32.346283 L25.7316016,23.6525628 L31.0167546,23.6525628 L31.0167546,24.9661608 C32.5861977,23.7535953 34.3159998,23.3156706 36.2058262,23.3156706 C41.5351701,23.3156706 45.944207,27.499189 46.6217993,32.8841841 C47.2962112,27.4745469 51.7045786,23.3156706 57.006638,23.3156706 C62.1595535,23.3156706 66.4522548,27.200316 67.3432686,32.3446989 C68.2316042,27.2223178 72.4936732,23.3156706 77.6152868,23.3156706 L77.6152868,28.8395413 C74.7323391,28.8395413 72.4262153,31.2982912 72.4262153,34.3296171 C72.4262153,37.3947379 74.7644779,39.8534878 77.6474256,39.8534878 C80.5621773,39.8534878 82.9002725,37.3947379 82.9002725,34.3296171 L82.9002725,23.6525628 L88.1534542,23.6525628 L88.1534542,34.3296171 C88.1534542,37.3947379 90.4918842,39.8534878 93.374832,39.8534878 C96.2574449,39.8534878 98.6278463,37.3947379 98.6278463,34.3296171 C98.6278463,31.2982912 96.2895837,28.8395413 93.4068033,28.8395413 L93.4068033,23.3156706 C99.172364,23.3156706 103.849057,28.2669653 103.849057,34.3296171 Z M62.7924528,33.7094812 C62.7924528,30.6716078 60.3663008,28.2075472 57.3418172,28.2075472 C54.3505067,28.2075472 51.9245283,30.6716078 51.9245283,33.7094812 C51.9245283,36.7812224 54.3505067,39.245283 57.3418172,39.245283 C60.3663008,39.245283 62.7924528,36.7812224 62.7924528,33.7094812 Z" id="Logo"></path>
                    </g>
                </g>
            </g>
        </g>
    </g>
</svg>