<?xml version="1.0" encoding="UTF-8"?>
<svg width="153px" height="153px" viewBox="0 0 60 60" version="1.1" xmlns="http://www.w3.org/2000/svg" xmlns:xlink="http://www.w3.org/1999/xlink">
    <!-- Generator: Sketch 50.2 (55047) - http://www.bohemiancoding.com/sketch -->
    <title>Page 1 Copy</title>
    <desc>Created with Sketch.</desc>
    <defs>
        <polygon id="path-1" points="0.0240940649 0.055819319 58.039628 0.055819319 58.039628 14.6341992 0.0240940649 14.6341992"></polygon>
        <polygon id="path-3" points="0.0240940649 0.0507935072 58.039628 0.0507935072 58.039628 14.6292286 0.0240940649 14.6292286"></polygon>
        <polygon id="path-5" points="0.0240940649 0.0457927079 58.039628 0.0457927079 58.039628 14.6242278 0.0240940649 14.6242278"></polygon>
        <polygon id="path-7" points="0.0240940649 0.0407842622 58.039628 0.0407842622 58.039628 14.6192193 0.0240940649 14.6192193"></polygon>
    </defs>
    <g id="Layout---Desktop" stroke="none" stroke-width="1" fill="none" fill-rule="evenodd">
        <g id="Home_v2" transform="translate(-657.000000, -1282.000000)">
            <g id="Page-1-Copy" transform="translate(657.000000, 1282.246814)">
                <path d="M32.820062,4.67722308 L34.575312,4.95570796 L34.404566,6.03149152 L30.8767851,5.47169257 L30.9742013,4.85752713 C31.2167477,3.32876597 33.3280943,3.81118252 33.3985184,3.36692192 C33.4157995,3.25803601 33.3621976,3.17361885 33.1270683,3.13630402 C33.0398984,3.12254035 32.712476,3.04814008 32.6729437,3.38137377 L31.2792959,3.16016104 C31.4299316,2.2106209 32.082253,1.81415081 33.2450535,1.99858395 C34.333989,2.17139445 34.9424961,2.66979215 34.8083768,3.51472841 C34.6224908,4.68632239 33.3377289,4.39759123 32.820062,4.67722308" id="Fill-1" fill="#00FF00"></path>
                <path d="M34.863852,4.82447903 L36.088589,5.20772071 C36.0836953,5.40025913 36.2127679,5.51916193 36.4316102,5.5876744 C36.8146225,5.70749478 36.958147,5.54447178 36.9975263,5.41830483 C37.0449345,5.26667509 36.9955383,5.08491821 36.6588637,4.97954969 C36.3306766,4.87685743 36.2059625,4.99491912 36.1493786,5.02802838 L34.9499514,4.65273904 L36.053874,2.66014229 L38.6926749,3.48588588 L38.3700699,4.51701399 L36.7539859,4.01127567 L36.5841575,4.25856289 C36.6912083,4.24112892 36.9056156,4.22040695 37.3097322,4.34687976 C37.9998272,4.56281642 38.5107651,5.11542767 38.2645484,5.90248007 C38.0130556,6.70627826 37.2923747,7.03064203 36.1098462,6.6605523 C34.9482692,6.29719147 34.5635746,5.71017105 34.863852,4.82447903" id="Fill-3" fill="#00FF00"></path>
                <polygon id="Fill-5" fill="#00FF00" points="41.9671662 7.92526514 41.4212838 8.9086792 40.1562498 8.20665568 40.7085552 7.21161897 40.6392017 4.23706099 41.9658663 4.97341721 41.9537084 6.35903622 42.0422546 6.4082031 43.2155308 5.66695313 44.5383722 6.40116834"></polygon>
                <polygon id="Fill-7" fill="#00FF00" points="44.9806524 6.74259905 47.7224515 8.89156637 47.0123992 9.79729217 45.4124493 8.54334558 45.2602078 8.73771915 46.7976859 9.94272826 46.234599 10.6611152 44.6971209 9.45610614 44.5474027 9.64696233 46.1474291 10.9010619 45.4375297 11.8068641 42.6956542 9.6578968"></polygon>
                <path d="M48.3414495,12.7295498 L48.8094142,11.9300336 L48.6447854,11.7520235 L47.8113954,12.1565989 L48.3414495,12.7295498 Z M47.7799683,13.6875775 L46.8126883,12.6419976 L46.4342639,12.8239074 L45.4189641,11.7266372 L49.0305505,10.1754719 L50.4082171,11.6644713 L48.581549,15.1449206 L47.5663256,14.0475739 L47.7799683,13.6875775 Z" id="Fill-9" fill="#00FF00"></path>
                <path d="M50.9621589,15.3216613 L51.3314075,15.8918595 C51.4512279,16.0769044 51.6002578,16.0960971 51.7445469,16.0025041 C51.8890654,15.9090641 51.9324974,15.7653867 51.8126006,15.5801889 L51.4434285,15.0100672 L50.9621589,15.3216613 Z M49.9807329,17.3602135 L50.4677373,16.5299584 L50.0625503,15.9042468 L49.3406459,16.3717527 L48.5519877,15.1538211 L51.6616591,13.1399671 L52.8795907,15.0206194 C53.4500947,15.9017999 53.4279199,16.6464908 52.5468923,17.2169949 C52.1432345,17.4783516 51.7443175,17.4950974 51.4081782,17.3816236 L50.7527217,18.5523 L49.9807329,17.3602135 Z" id="Fill-11" fill="#00FF00"></path>
                <path d="M51.8605441,17.8862991 L52.390904,19.0741801 C52.2217639,19.1497273 52.1875841,19.3437186 52.3777521,19.7804091 C52.5315229,20.1463698 52.6771883,20.2455446 52.761682,20.207771 C52.7858448,20.1969895 52.9112471,20.1748912 52.8176542,19.87859 L52.686517,19.4010672 C52.4973431,18.7176246 52.1304649,17.852731 53.0807697,17.4285042 C53.7694118,17.1210392 54.4446727,17.4764476 54.962416,18.6360366 C55.4226577,19.6668589 55.5010342,20.491532 54.4338911,20.9244758 L53.9072014,19.7447001 C54.0618898,19.6369611 54.0923992,19.4349411 53.9270823,19.064469 C53.7868458,18.750428 53.6609847,18.6955263 53.5803908,18.7316177 C53.5562279,18.7421698 53.4439776,18.7827726 53.5078257,18.9908334 L53.6097533,19.3704048 C53.8043563,20.1092843 54.2958721,21.1020271 53.2931889,21.5496522 C52.5120243,21.8984082 51.8912064,21.4705111 51.3509825,20.2387393 C50.792254,18.976611 50.9065689,18.2591415 51.8605441,17.8862991" id="Fill-13" fill="#00FF00"></path>
                <path d="M54.8413339,24.1369235 L54.9848584,24.8007146 C55.0314255,25.0162689 55.1640155,25.0868459 55.3321616,25.0504487 C55.5001548,25.0142044 55.5918361,24.8951486 55.5451926,24.6795943 L55.4017446,24.0157267 L54.8413339,24.1369235 Z M53.2021576,25.6959647 L53.9512834,25.0918162 L53.7938423,24.3633358 L52.9534175,24.5450927 L52.6467936,23.1268232 L56.2676322,22.3441293 L56.7410259,24.5339288 C56.9627739,25.5597809 56.6784777,26.248423 55.6524727,26.470171 C55.1826729,26.5717928 54.8036368,26.4461611 54.5293574,26.2212016 L53.5020526,27.0839541 L53.2021576,25.6959647 Z" id="Fill-15" fill="#00FF00"></path>
                <path d="M55.0861055,29.6063986 L55.9604807,29.300157 L55.9502344,29.0578399 L55.0531491,28.8265339 L55.0861055,29.6063986 Z M54.0376198,29.9728944 L53.9775949,28.5496547 L53.5713374,28.4431392 L53.5083303,26.949399 L57.2651999,28.1063117 L57.350764,30.1333176 L53.7048449,31.6025892 L53.641685,30.1088489 L54.0376198,29.9728944 Z" id="Fill-17" fill="#00FF00"></path>
                <polygon id="Fill-19" fill="#00FF00" points="57.4202247 30.9771681 57.2677538 32.4646383 54.8557475 32.9842932 54.8408369 33.1291175 57.0975431 34.1232367 56.9451488 35.6105539 53.3935872 33.9251163 53.6005775 31.9068274"></polygon>
                <polygon id="Fill-21" fill="#00FF00" points="56.7912557 36.1865557 55.8806361 39.549555 54.7696023 39.2488189 55.3009563 37.2862728 55.062539 37.2217365 54.5519069 39.1075884 53.6706499 38.8690181 54.1812819 36.9830898 53.9472231 36.9197004 53.4157162 38.8822465 52.3046058 38.5813575 53.2153019 35.2183582"></polygon>
                <path d="M52.2798312,43.0850436 C52.7204215,43.3083974 53.0804179,43.1153237 53.2460407,42.7887425 C53.4134987,42.458338 53.3546208,42.0575858 52.9140305,41.8343086 C52.4774928,41.6128664 52.1155083,41.8001288 51.9479739,42.1305333 C51.7824276,42.4570381 51.8432171,42.8636015 52.2798312,43.0850436 M53.5662754,40.5480174 C54.6400709,41.0924469 54.9554118,42.1771004 54.3590626,43.3532058 C53.7647781,44.525335 52.7034464,44.9117882 51.6296509,44.3673587 C50.5597551,43.8248408 50.240438,42.7383521 50.8347991,41.5662229 C51.4310717,40.390041 52.4963796,40.0055759 53.5662754,40.5480174" id="Fill-23" fill="#00FF00"></path>
                <polygon id="Fill-25" fill="#00FF00" points="52.9142522 45.7827378 51.9243386 47.1129198 50.0400161 46.8377229 49.9637042 46.9403387 51.3081851 47.9408044 50.4656193 49.0729426 47.4936611 46.8611976 48.4600235 45.5627485 50.3653739 45.8098063 50.4442856 45.7035967 49.0998811 44.7030545 49.942447 43.5709164"></polygon>
                <path d="M47.5566375,48.6934859 L46.5820169,49.5553973 C46.4592144,49.4166137 46.2640762,49.4421529 45.9043092,49.7544353 C45.6010497,50.0108218 45.5500477,50.1795797 45.6115254,50.2489333 C45.6289594,50.2688141 45.6877608,50.3816762 45.9423887,50.2036661 L46.3587396,49.9354275 C46.9540947,49.5501213 47.6696525,48.9410025 48.3591358,49.7207907 C48.8587569,50.2856364 48.7221143,51.0366738 47.7706625,51.8780163 C46.9248087,52.6261481 46.1613839,52.9479885 45.4284686,52.0593144 L46.3965897,51.2032142 C46.5456961,51.3185996 46.7476397,51.2871726 47.0515874,51.0183987 C47.3093503,50.79061 47.3238786,50.6539674 47.265383,50.5879018 C47.247949,50.5680974 47.1756898,50.4728987 46.9962268,50.5963129 L46.6645989,50.8072029 C46.017783,51.2143781 45.2177316,51.980785 44.4901688,51.1580235 C43.9232586,50.5171719 44.1456948,49.7965674 45.1591595,48.9119459 C46.1962519,48.0007146 46.9150977,47.8948108 47.5566375,48.6934859" id="Fill-27" fill="#00FF00"></path>
                <polygon id="Fill-29" fill="#00FF00" points="45.6885484 53.4935879 44.2857248 54.3776742 42.6275087 53.4418977 42.519311 53.5100279 43.412726 54.9278386 42.2189572 55.6802524 40.2439473 52.5461888 41.6131264 51.6834362 43.3011638 52.6003259 43.4131848 52.5298253 42.5196933 51.1120146 43.713615 50.3597537"></polygon>
                <path d="M38.2806519,55.3766106 C38.4694436,55.8330291 38.8685134,55.9208872 39.2067173,55.7808801 C39.5490504,55.6392673 39.7652929,55.2968578 39.5764248,54.8404393 C39.3892389,54.3880734 38.9926923,54.2945569 38.6503593,54.4360933 C38.3120789,54.5761004 38.0935425,54.9243212 38.2806519,55.3766106 M40.9089772,54.2890515 C41.3692189,55.4015381 40.9022483,56.4299135 39.6839343,56.9340461 C38.4696729,57.4364964 37.4125468,57.0387264 36.9522286,55.9263162 C36.4936691,54.8178822 36.958881,53.7854541 38.1731424,53.2830038 C39.3915328,52.7787948 40.4503412,53.1807703 40.9089772,54.2890515" id="Fill-31" fill="#00FF00"></path>
                <polygon id="Fill-33" fill="#00FF00" points="37.2123848 57.844398 35.7691878 58.1377935 35.0767989 56.0825721 34.9558315 56.1071173 34.9826707 58.2976814 33.8807361 58.5217234 33.0500988 56.494641 32.9291315 56.5191862 33.0942955 58.6816113 31.6509455 58.9750068 31.5438948 55.2168374 33.46255 54.8267903 33.9165217 56.1744063 34.0332835 56.1507787 33.9250093 54.7328915 35.8436646 54.3426915"></polygon>
                <path d="M29.4684484,57.1338104 C29.4689836,57.5087174 29.1473726,57.8222996 28.7681071,57.8227584 C28.3887651,57.8232937 28.0663894,57.5105526 28.0658542,57.1355691 C28.0653189,56.7607385 28.38693,56.4427214 28.7662719,56.4422626 C29.1455374,56.4417273 29.4679896,56.7589799 29.4684484,57.1338104" id="Fill-35" fill="#00FF00"></path>
                <path d="M24.6490007,56.0488893 L22.8931391,55.7735395 L23.0618969,54.6973736 L26.5910542,55.250673 L26.494785,55.8649914 C26.2550678,57.3942878 24.1425742,56.9159239 24.0729148,57.360261 C24.0558631,57.4691469 24.1096179,57.5534876 24.3449001,57.5904201 C24.43207,57.6040308 24.7597218,57.6778194 24.7985659,57.3445857 L26.192749,57.5631986 C26.043872,58.5129681 25.3923153,58.9107381 24.2289795,58.728446 C23.1397381,58.5577765 22.5301606,58.0603729 22.6626741,57.2150543 C22.8464191,56.043078 24.1318691,56.3293623 24.6490007,56.0488893" id="Fill-37" fill="#00FF00"></path>
                <path d="M22.6065566,55.9057395 L21.3810549,55.5248682 C21.3854898,55.3322534 21.2561878,55.21358 21.0371926,55.1454498 C20.6539509,55.0263176 20.5108088,55.1897229 20.4715058,55.3159663 C20.4244035,55.4675961 20.4741821,55.649353 20.8110861,55.7541098 C21.139579,55.8562668 21.2640637,55.7378992 21.3205712,55.7045606 L22.5208395,56.077556 L21.4205107,58.0723702 L18.7800275,57.2517497 L19.100721,56.2199335 L20.717952,56.7226132 L20.8871686,56.4750201 C20.7801179,56.492607 20.565787,56.5136348 20.1613645,56.3880796 C19.4708107,56.1733664 18.9588023,55.6217492 19.2034897,54.8341615 C19.4535297,54.0298281 20.1736754,53.7040115 21.3569685,54.0718837 C22.5193102,54.4331035 22.9050752,55.0194358 22.6065566,55.9057395" id="Fill-39" fill="#00FF00"></path>
                <polygon id="Fill-41" fill="#00FF00" points="15.4986851 52.81952 16.0425029 51.8350354 17.3089132 52.5345356 16.7586724 53.5307192 16.8339138 56.5048184 15.5059492 55.771215 15.5153544 54.3856724 15.4265787 54.3367349 14.2549847 55.0801259 12.930767 54.3486634"></polygon>
                <polygon id="Fill-43" fill="#00FF00" points="12.4838531 54.0063687 9.73807781 51.8618363 10.4466008 50.9546577 12.0489212 52.2060809 12.2009332 52.011478 10.6611611 50.8089922 11.2231776 50.0893818 12.7627967 51.2920969 12.912209 51.1009349 11.3098122 49.8495116 12.0183352 48.9421801 14.7641869 51.0867889"></polygon>
                <path d="M9.11238148,48.0253898 L8.64586961,48.8258235 L8.81095716,49.0036043 L9.64358259,48.5974231 L9.11238148,48.0253898 Z M9.6720275,47.0662916 L10.6414485,48.1101128 L11.019567,47.9275148 L12.0370079,49.0229499 L8.4280978,50.5809206 L7.04760193,49.0942915 L8.86777052,45.6104014 L9.88513495,46.7059129 L9.6720275,47.0662916 Z" id="Fill-45" fill="#00FF00"></path>
                <path d="M6.48875879,45.4407412 L6.11843966,44.8714606 C5.99823697,44.6865687 5.84920703,44.6678348 5.70507084,44.7615807 C5.56085819,44.855403 5.51765557,44.9992334 5.63785827,45.1840488 L6.00825386,45.7533294 L6.48875879,45.4407412 Z M7.4657498,43.4004304 L6.98065698,44.231603 L7.3870675,44.8563206 L8.10790136,44.3875148 L8.8990064,45.6036878 L5.7938465,47.6235825 L4.57232099,45.7456065 C3.99990535,44.8658787 4.02062731,44.1212643 4.90043154,43.5488486 C5.30332468,43.2867272 5.70231811,43.2692933 6.03861039,43.3819259 L6.69154349,42.2101026 L7.4657498,43.4004304 Z" id="Fill-47" fill="#00FF00"></path>
                <path d="M5.58514342,42.8779769 L5.05233655,41.6910135 C5.2213238,41.6150075 5.25504479,41.4210162 5.06411213,40.9847079 C4.90957673,40.6189767 4.76368185,40.5201077 4.67911176,40.5580342 C4.65502534,40.5689687 4.52977597,40.5912964 4.62398063,40.8874447 L4.75595891,41.3647381 C4.9465857,42.0477983 5.31529907,42.9120802 4.365606,43.3383716 C3.67757554,43.647213 3.00139713,43.2931809 2.48120696,42.1343565 C2.01882419,41.1042989 1.93876552,40.2797788 3.00522038,39.8446175 L3.53450986,41.0235521 C3.379898,41.1315204 3.34984732,41.3336934 3.51585245,41.7038596 C3.65677711,42.0175947 3.7828676,42.0723435 3.86330859,42.0360992 C3.88747147,42.0253941 3.9997983,41.9845619 3.93533845,41.7765776 L3.83272266,41.3973121 C3.6365904,40.6585855 3.14300998,39.6667603 4.14492853,39.2169942 C4.92540495,38.8665559 5.54729333,39.2932296 6.09011709,40.5242368 C6.65136888,41.7853711 6.5385068,42.5032228 5.58514342,42.8779769" id="Fill-49" fill="#00FF00"></path>
                <path d="M2.59166804,36.6316039 L2.44684367,35.9680422 C2.39989427,35.7526408 2.26715134,35.6822932 2.09915813,35.7189963 C1.93101199,35.7556994 1.839713,35.8749081 1.88673886,36.0903095 L2.03156323,36.7538712 L2.59166804,36.6316039 Z M4.2277858,35.0694277 L3.47973047,35.675029 L3.63862436,36.4032035 L4.47889628,36.2199173 L4.78827294,37.6374222 L1.16881066,38.4270744 L0.691211391,36.2382689 C0.467551791,35.2127992 0.750471627,34.5236218 1.77594134,34.2999622 C2.24566473,34.1974228 2.6250067,34.3222899 2.89959187,34.5467906 L3.92513805,33.68205 L4.2277858,35.0694277 Z" id="Fill-51" fill="#00FF00"></path>
                <path d="M2.33606144,31.1645222 L1.4623744,31.472599 L1.47315594,31.7148395 L2.37062354,31.9443869 L2.33606144,31.1645222 Z M3.38355301,30.7958853 L3.44671296,32.2189721 L3.85312348,32.32457 L3.91934201,33.8181573 L0.160178506,32.6694263 L0.0702558771,30.6426498 L3.71303993,29.1655024 L3.779182,30.6590897 L3.38355301,30.7958853 Z" id="Fill-53" fill="#00FF00"></path>
                <polygon id="Fill-55" fill="#00FF00" points="0 29.7992046 0.149335794 28.311658 2.56004219 27.7868799 2.57457051 27.6420556 0.315876174 26.6529066 0.465288433 25.1652836 4.01998501 26.8430746 3.81735323 28.8615165"></polygon>
                <polygon id="Fill-57" fill="#00FF00" points="0.619189177 24.5864525 1.52330921 21.2220004 2.63480185 21.5207485 2.10719458 23.4839827 2.34568836 23.5480602 2.85280305 21.6614437 3.7342895 21.8984082 3.22725127 23.7850247 3.46146302 23.8479553 3.98914675 21.884721 5.10063938 22.1833926 4.19651934 25.5477682"></polygon>
                <path d="M5.11590176,17.6805017 C4.67485267,17.4579126 4.31516216,17.6519038 4.150304,17.9787145 C3.98345776,18.3095013 4.04325325,18.710024 4.48407294,18.9325366 C4.92114586,19.1530612 5.28290092,18.9650342 5.44959423,18.6342474 C5.61452885,18.3074367 5.5528982,17.9010262 5.11590176,17.6805017 M3.83458076,20.2200513 C2.75971478,19.6776863 2.44200345,18.5937975 3.03605864,17.4165451 C3.62804928,16.2431924 4.68853987,15.8545217 5.76340586,16.3968103 C6.8344486,16.9371871 7.15598317,18.0230641 6.56391606,19.1963403 C5.96993734,20.3737456 4.90547057,20.7603517 3.83458076,20.2200513" id="Fill-59" fill="#00FF00"></path>
                <polygon id="Fill-61" fill="#00FF00" points="4.47767284 14.9812323 5.46513953 13.6490622 7.34992089 13.9208182 7.42607985 13.8180495 6.07968729 12.8199542 6.92011213 11.6862867 9.89627588 13.8925262 8.93243682 15.192734 7.02655116 14.9493465 6.94786886 15.0556326 8.29418496 16.0536514 7.45376012 17.1874718"></polygon>
                <path d="M9.82834453,12.0619049 L10.8013594,11.1980818 C10.9243148,11.3367125 11.119606,11.3107145 11.4786848,10.9978204 C11.781409,10.7409751 11.8321052,10.5721408 11.7706274,10.5027107 C11.753117,10.4830593 11.6941626,10.3701972 11.4398406,10.548819 L11.0239485,10.8177458 C10.4292816,11.2040461 9.7149472,11.8146176 9.02385816,11.0361293 C8.52324298,10.4721248 8.65850924,9.72101086 9.60850817,8.87760389 C10.4528327,8.12801926 11.2156458,7.80480246 11.9502433,8.69210024 L10.983728,9.54995906 C10.8343157,9.43495597 10.632525,9.46661241 10.3290362,9.73599797 C10.071885,9.96432192 10.0575096,10.1009646 10.1160052,10.1668772 C10.1335921,10.1867581 10.2060043,10.2816509 10.3852378,10.1580073 L10.716407,9.94650562 C11.3624582,9.53810701 12.1611333,8.77017082 12.8902253,9.59147946 C13.4582825,10.2314135 13.2372992,10.9524768 12.2254402,11.8389335 C11.190183,12.7521528 10.4713372,12.8593565 9.82834453,12.0619049" id="Fill-63" fill="#00FF00"></path>
                <polygon id="Fill-65" fill="#00FF00" points="11.6850786 7.25933302 13.08622 6.37257049 14.7464242 7.30521191 14.8544689 7.23669943 13.9583012 5.82072388 15.1508466 5.06593964 17.1318207 8.19633293 15.7642474 9.06176177 14.0742984 8.14808363 13.9625068 8.21881359 14.8586745 9.63494206 13.6662056 10.3896498"></polygon>
                <path d="M19.0928298,5.35943456 C18.9030441,4.90339837 18.5037449,4.81638141 18.1657703,4.95700021 C17.8237432,5.09937771 17.6081889,5.44224596 17.7978981,5.89828215 C17.986078,6.35018924 18.3830069,6.44301753 18.7248811,6.3007165 C19.0628556,6.16002123 19.2808568,5.81134165 19.0928298,5.35943456 M16.4664162,6.45234624 C16.0038805,5.34077715 16.4687866,4.31133127 17.6862595,3.8045989 C18.8997562,3.29970169 19.9577234,3.69540714 20.4201827,4.80697623 C20.8811891,5.91456916 20.4179652,6.94806767 19.2045449,7.45304135 C17.9869956,7.95969725 16.9273461,7.5598627 16.4664162,6.45234624" id="Fill-67" fill="#00FF00"></path>
                <polygon id="Fill-69" fill="#00FF00" points="20.1522117 2.89128015 21.5948735 2.59459664 22.2917738 4.64836526 22.4126647 4.62351419 22.3810847 2.43310294 23.4826369 2.20669061 24.3176328 4.23201431 24.4386766 4.20716324 24.2687718 2.04512044 25.7114335 1.74843694 25.8267425 5.50652994 23.9088519 5.90078255 23.4518981 4.55408413 23.3352892 4.57809409 23.4466985 5.99582832 21.5288079 6.39008094"></polygon>
                <path d="M27.9016689,3.58633007 C27.9005219,3.21149952 28.2214448,2.89738204 28.6007103,2.8961586 C28.9799758,2.89493516 29.3028867,3.20706456 29.3040337,3.58197158 C29.3052572,3.95672566 28.9842578,4.27535457 28.6050688,4.27650154 C28.2257268,4.27772498 27.9028923,3.96123709 27.9016689,3.58633007" id="Fill-71" fill="#00FF00"></path>
                <path d="M46.3219983,37.8717716 C44.0046554,37.8717716 42.789553,36.6863375 42.4326152,33.9679366 C42.3518683,33.3528536 41.7877874,32.9197569 41.1727043,33.0005037 C40.5576978,33.081327 40.1245246,33.645408 40.2053479,34.2604146 C40.3730353,35.5377594 40.7293613,36.6143841 41.2565098,37.4873065 L39.3682111,38.8799602 C32.9141979,43.6395894 24.1115677,43.6363779 17.6611484,38.8721608 L16.0495759,37.6819094 C16.7402061,36.721129 17.1031082,35.508244 17.1031082,34.0529655 C17.1031082,33.4326064 16.6002755,32.9296973 15.9799164,32.9296973 C15.3596338,32.9296973 14.8567247,33.4326064 14.8567247,34.0529655 C14.8567247,36.3702319 13.6712905,37.5854873 10.9528897,37.9423486 C10.3378067,38.0230955 9.90470995,38.5871 9.9854568,39.202183 C10.0662036,39.8171895 10.6302846,40.2503627 11.2453676,40.1696159 C12.453206,40.0111043 13.4843341,39.6859759 14.3312584,39.205471 L16.3265314,40.679101 C23.5698145,46.0288857 33.4543454,46.0324795 40.7014517,40.6878944 L42.7454328,39.180467 C42.7637843,39.1668562 42.7777774,39.149881 42.7951349,39.1354292 C43.7395519,39.7794159 44.9175689,40.1182315 46.3219983,40.1182315 C46.9422809,40.1182315 47.44519,39.6153224 47.44519,38.9949633 C47.44519,38.3746807 46.9422809,37.8717716 46.3219983,37.8717716" id="Fill-73" fill="#00FF00"></path>
                <path d="M20.5924808,28.3591426 C22.0596113,28.3591426 23.2490216,25.597998 23.2490216,22.1918725 C23.2490216,18.7858236 22.0596113,16.0246024 20.5924808,16.0246024 C19.1253503,16.0246024 17.93594,18.7858236 17.93594,22.1918725 C17.93594,25.597998 19.1253503,28.3591426 20.5924808,28.3591426" id="Fill-75" fill="#00FF00"></path>
                <path d="M36.520837,28.3591426 C37.9879675,28.3591426 39.1773778,25.597998 39.1773778,22.1918725 C39.1773778,18.7858236 37.9879675,16.0246024 36.520837,16.0246024 C35.0537065,16.0246024 33.8642962,18.7858236 33.8642962,22.1918725 C33.8642962,25.597998 35.0537065,28.3591426 36.520837,28.3591426" id="Fill-77" fill="#00FF00"></path>
                <path d="M28.7105214,28.3591426 C30.1776519,28.3591426 31.3670622,25.597998 31.3670622,22.1918725 C31.3670622,18.7858236 30.1776519,16.0246024 28.7105214,16.0246024 C27.2433909,16.0246024 26.0539806,18.7858236 26.0539806,22.1918725 C26.0539806,25.597998 27.2433909,28.3591426 28.7105214,28.3591426" id="Fill-79" fill="#00FF00"></path>
               
            </g>
        </g>
    </g>
</svg>