<?xml version="1.0" encoding="UTF-8"?>
<svg width="32px" height="32px" viewBox="0 0 32 32" version="1.1" xmlns="http://www.w3.org/2000/svg" xmlns:xlink="http://www.w3.org/1999/xlink">
    <!-- Generator: Sketch 50.2 (55047) - http://www.bohemiancoding.com/sketch -->
    <title>gift</title>
    <desc>Created with Sketch.</desc>
    <defs></defs>
    <g id="Layout---Desktop" stroke="none" stroke-width="1" fill="none" fill-rule="evenodd">
        <g id="PRO" transform="translate(-265.000000, -4886.000000)" stroke="#00FF00">
            <g id="Group-6" transform="translate(92.000000, 936.000000)">
                <g id="Features" transform="translate(174.000000, 3752.000000)">
                    <g id="gift" transform="translate(0.000000, 199.000000)">
                        <path d="M3,20 L12,11" id="Shape"></path>
                        <path d="M3,28 L20,11" id="Shape"></path>
                        <path d="M9,30 L27,12" id="Shape"></path>
                        <path d="M18,30 L27,21" id="Shape"></path>
                        <polyline id="Shape" stroke-linecap="square" points="27 11 27 30 3 30 3 11"></polyline>
                        <rect id="Rectangle-path" stroke-linecap="square" x="0" y="6" width="30" height="5"></rect>
                        <path d="M6,3 C6,1.3 7.3000002,0 9,0 C13.3999996,0 15,6 15,6 C15,6 10.6999998,6 9,6 C7.3000002,6 6,4.6999998 6,3 Z" id="Shape" stroke-linecap="square"></path>
                        <path d="M24,3 C24,1.3 22.7000008,0 21,0 C16.6000004,0 15,6 15,6 C15,6 19.2999992,6 21,6 C22.7000008,6 24,4.6999998 24,3 Z" id="Shape" stroke-linecap="square"></path>
                    </g>
                </g>
            </g>
        </g>
    </g>
</svg>