<?xml version="1.0" encoding="UTF-8"?>
<svg width="31px" height="28px" viewBox="0 0 31 28" version="1.1" xmlns="http://www.w3.org/2000/svg" xmlns:xlink="http://www.w3.org/1999/xlink">
    <!-- Generator: Sketch 50.2 (55047) - http://www.bohemiancoding.com/sketch -->
    <title>user-swim</title>
    <desc>Created with Sketch.</desc>
    <defs></defs>
    <g id="Layout---Desktop" stroke="none" stroke-width="1" fill="none" fill-rule="evenodd">
        <g id="PRO" transform="translate(-266.000000, -4693.000000)" stroke="#00FF00">
            <g id="Group-6" transform="translate(92.000000, 936.000000)">
                <g id="Features" transform="translate(174.000000, 3752.000000)">
                    <g id="user-swim" transform="translate(1.000000, 6.000000)">
                        <path d="M13.8110642,12 L5,18.2936172" id="Shape"></path>
                        <circle id="Oval" stroke-linecap="square" cx="19" cy="8" r="3"></circle>
                        <path d="M18.1165565,18.454545 L10.5044998,7.4936504 C9.62330003,6.2819996 9.92765083,4.580482 11.1742309,3.7494287 L16.7983745,0" id="Shape" stroke-linecap="square"></path>
                        <path d="M0,22 C0,24.2000008 1.8,26 4,26 C5.5,26 6.8000002,25.1000004 7.5,23.8999996 C8.1999998,25.1000004 9.5,26 11,26 C12.5,26 13.8000002,25.1000004 14.5,23.8999996 C15.2000008,25.1000004 16.5,26 18,26 C19.5,26 20.7999992,25.1000004 21.5,23.8999996 C22.2000008,25.1000004 23.5,26 25,26 C27.2000008,26 29,24.2000008 29,22" id="Shape"></path>
                    </g>
                </g>
            </g>
        </g>
    </g>
</svg>